<svg width="21" height="21" viewBox="0 0 21 21" fill="none" xmlns="http://www.w3.org/2000/svg">
<rect opacity="0.1" x="3.5" y="2.55554" width="14" height="16" rx="3" fill="currentColor"/>
<path d="M14.875 19.3055C16.598 19.3055 18 17.9036 18 16.1805V4.93054C18 3.20752 16.598 1.80554 14.875 1.80554H6.125C4.40198 1.80554 3 3.20752 3 4.93054V16.1805C3 17.9036 4.40198 19.3055 6.125 19.3055H14.875ZM4.25 4.93054C4.25 3.89661 5.09106 3.05554 6.125 3.05554H14.875C15.9089 3.05554 16.75 3.89661 16.75 4.93054V16.1805C16.75 17.2145 15.9089 18.0555 14.875 18.0555H6.125C5.09106 18.0555 4.25 17.2145 4.25 16.1805V4.93054Z" fill="currentColor"/>
<path d="M9.25 11.1805H14.25C14.5955 11.1805 14.875 10.9007 14.875 10.5555C14.875 10.2104 14.5955 9.93054 14.25 9.93054H9.25C8.90454 9.93054 8.625 10.2104 8.625 10.5555C8.625 10.9007 8.90454 11.1805 9.25 11.1805Z" fill="currentColor"/>
<path d="M9.25 8.05554H14.25C14.5955 8.05554 14.875 7.7757 14.875 7.43054C14.875 7.08539 14.5955 6.80554 14.25 6.80554H9.25C8.90454 6.80554 8.625 7.08539 8.625 7.43054C8.625 7.7757 8.90454 8.05554 9.25 8.05554Z" fill="currentColor"/>
<path d="M9.25 14.3055H14.25C14.5955 14.3055 14.875 14.0257 14.875 13.6805C14.875 13.3354 14.5955 13.0555 14.25 13.0555H9.25C8.90454 13.0555 8.625 13.3354 8.625 13.6805C8.625 14.0257 8.90454 14.3055 9.25 14.3055Z" fill="currentColor"/>
<path d="M6.76233 8.05554C7.10779 8.05554 7.38733 7.7757 7.38733 7.43054C7.38733 7.08539 7.10779 6.80554 6.76233 6.80554H6.75623C6.41138 6.80554 6.13428 7.08539 6.13428 7.43054C6.13428 7.7757 6.41748 8.05554 6.76233 8.05554Z" fill="currentColor"/>
<path d="M6.76233 11.1805C7.10779 11.1805 7.38733 10.9007 7.38733 10.5555C7.38733 10.2104 7.10779 9.93054 6.76233 9.93054H6.75623C6.41138 9.93054 6.13428 10.2104 6.13428 10.5555C6.13428 10.9007 6.41748 11.1805 6.76233 11.1805Z" fill="currentColor"/>
<path d="M6.76233 14.3055C7.10779 14.3055 7.38733 14.0257 7.38733 13.6805C7.38733 13.3354 7.10779 13.0555 6.76233 13.0555H6.75623C6.41138 13.0555 6.13428 13.3354 6.13428 13.6805C6.13428 14.0257 6.41748 14.3055 6.76233 14.3055Z" fill="currentColor"/>
</svg>
