<svg width="25" height="25" viewBox="0 0 25 25" fill="none" xmlns="http://www.w3.org/2000/svg">
<g clip-path="url(#clip0_5370_11287)">
<path d="M21.9834 8.83139L21.6658 8.11804H22.8438C23.0178 8.11804 23.1847 8.0489 23.3078 7.92583C23.4309 7.80276 23.5 7.63584 23.5 7.46179C23.5 7.28774 23.4309 7.12082 23.3078 6.99775C23.1847 6.87468 23.0178 6.80554 22.8438 6.80554H21.0824L19.8526 4.03748C19.6979 3.68937 19.4456 3.3936 19.1262 3.18602C18.8068 2.97845 18.434 2.86799 18.0531 2.86804H7.94688C7.56614 2.86806 7.19358 2.97848 6.87432 3.18593C6.55506 3.39337 6.3028 3.68894 6.14809 4.03682L4.91762 6.80554H3.15625C2.9822 6.80554 2.81528 6.87468 2.69221 6.99775C2.56914 7.12082 2.5 7.28774 2.5 7.46179C2.5 7.63584 2.56914 7.80276 2.69221 7.92583C2.81528 8.0489 2.9822 8.11804 3.15625 8.11804H4.3375L4.01988 8.83139C3.58834 8.93244 3.20352 9.17614 2.9277 9.52307C2.65187 9.86999 2.50118 10.2998 2.5 10.743L2.5 15.993C2.50168 16.3988 2.62868 16.7941 2.86362 17.1249C3.09856 17.4557 3.42997 17.7058 3.8125 17.841V19.9305C3.8125 20.2786 3.95078 20.6125 4.19692 20.8586C4.44306 21.1048 4.7769 21.243 5.125 21.243H7.09375C7.44185 21.243 7.77569 21.1048 8.02183 20.8586C8.26797 20.6125 8.40625 20.2786 8.40625 19.9305V17.9618H17.5938V19.9305C17.5938 20.2786 17.732 20.6125 17.9782 20.8586C18.2243 21.1048 18.5582 21.243 18.9062 21.243H20.875C21.2231 21.243 21.5569 21.1048 21.8031 20.8586C22.0492 20.6125 22.1875 20.2786 22.1875 19.9305V17.841C22.57 17.7058 22.9014 17.4557 23.1364 17.1249C23.3713 16.7941 23.4983 16.3988 23.5 15.993V10.743C23.499 10.3003 23.3488 9.87078 23.0736 9.52392C22.7984 9.17705 22.4143 8.93307 21.9834 8.83139ZM7.34706 4.5697C7.39871 4.45378 7.48286 4.35533 7.58932 4.28626C7.69577 4.21719 7.81997 4.18047 7.94688 4.18054H18.0531C18.1801 4.18053 18.3043 4.21734 18.4108 4.28654C18.5173 4.35573 18.6014 4.45432 18.6529 4.57035L20.5213 8.77429H5.47872L7.34706 4.5697ZM7.09375 19.9305H5.125V17.9618H7.09375V19.9305ZM18.9062 19.9305V17.9618H20.875V19.9305H18.9062ZM22.1875 15.993C22.1875 16.1671 22.1184 16.334 21.9953 16.4571C21.8722 16.5802 21.7053 16.6493 21.5312 16.6493H4.46875C4.2947 16.6493 4.12778 16.5802 4.00471 16.4571C3.88164 16.334 3.8125 16.1671 3.8125 15.993V10.743C3.8125 10.569 3.88164 10.4021 4.00471 10.279C4.12778 10.1559 4.2947 10.0868 4.46875 10.0868H21.5312C21.7053 10.0868 21.8722 10.1559 21.9953 10.279C22.1184 10.4021 22.1875 10.569 22.1875 10.743V15.993Z" fill="#232323"/>
<path d="M18.9063 11.3993C18.5169 11.3993 18.1362 11.5148 17.8125 11.7311C17.4887 11.9474 17.2364 12.2549 17.0874 12.6146C16.9384 12.9744 16.8994 13.3702 16.9753 13.7521C17.0513 14.134 17.2388 14.4848 17.5141 14.7602C17.7895 15.0355 18.1403 15.223 18.5222 15.299C18.9041 15.3749 19.2999 15.3359 19.6597 15.1869C20.0194 15.0379 20.3269 14.7856 20.5432 14.4618C20.7595 14.1381 20.875 13.7574 20.875 13.368C20.875 12.8459 20.6676 12.3451 20.2984 11.9759C19.9292 11.6067 19.4284 11.3993 18.9063 11.3993ZM18.9063 14.0243C18.7765 14.0243 18.6496 13.9858 18.5417 13.9137C18.4337 13.8416 18.3496 13.7391 18.3 13.6192C18.2503 13.4993 18.2373 13.3673 18.2626 13.24C18.2879 13.1127 18.3504 12.9958 18.4422 12.904C18.534 12.8122 18.6509 12.7497 18.7782 12.7244C18.9055 12.6991 19.0375 12.7121 19.1574 12.7617C19.2773 12.8114 19.3798 12.8955 19.4519 13.0034C19.524 13.1114 19.5625 13.2382 19.5625 13.368C19.5625 13.5421 19.4934 13.709 19.3703 13.8321C19.2472 13.9552 19.0803 14.0243 18.9063 14.0243Z" fill="white"/>
<path d="M7.09375 11.3993C6.70437 11.3993 6.32373 11.5148 5.99997 11.7311C5.67621 11.9474 5.42387 12.2549 5.27486 12.6146C5.12585 12.9744 5.08687 13.3702 5.16283 13.7521C5.23879 14.134 5.4263 14.4848 5.70163 14.7602C5.97697 15.0355 6.32777 15.223 6.70967 15.299C7.09157 15.3749 7.48742 15.3359 7.84716 15.1869C8.2069 15.0379 8.51438 14.7856 8.73071 14.4618C8.94704 14.1381 9.0625 13.7574 9.0625 13.368C9.0625 12.8459 8.85508 12.3451 8.48587 11.9759C8.11666 11.6067 7.6159 11.3993 7.09375 11.3993ZM7.09375 14.0243C6.96396 14.0243 6.83708 13.9858 6.72916 13.9137C6.62124 13.8416 6.53712 13.7391 6.48745 13.6192C6.43778 13.4993 6.42479 13.3673 6.45011 13.24C6.47543 13.1127 6.53793 12.9958 6.62971 12.904C6.72149 12.8122 6.83842 12.7497 6.96572 12.7244C7.09302 12.6991 7.22497 12.7121 7.34489 12.7617C7.4648 12.8114 7.56729 12.8955 7.6394 13.0034C7.71151 13.1114 7.75 13.2382 7.75 13.368C7.75 13.5421 7.68086 13.709 7.55779 13.8321C7.43472 13.9552 7.2678 14.0243 7.09375 14.0243Z" fill="white"/>
</g>
<defs>
<clipPath id="clip0_5370_11287">
<rect width="21" height="21" fill="white" transform="translate(2.5 1.55554)"/>
</clipPath>
</defs>
</svg>
