<svg width="25" height="25" viewBox="0 0 25 25" fill="none" xmlns="http://www.w3.org/2000/svg">
<path d="M12.3139 21.5181C11.0805 21.5181 9.83887 21.0514 8.8722 20.1264C6.41387 17.7597 3.6972 13.9847 4.7222 9.49306C5.6472 5.41806 9.20553 3.59306 12.3139 3.59306C12.3139 3.59306 12.3139 3.59306 12.3222 3.59306C15.4305 3.59306 18.9889 5.41806 19.9139 9.5014C20.9305 13.9931 18.2139 17.7597 15.7555 20.1264C14.7889 21.0514 13.5472 21.5181 12.3139 21.5181ZM12.3139 4.84306C9.88887 4.84306 6.7722 6.13473 5.9472 9.76806C5.0472 13.6931 7.51387 17.0764 9.7472 19.2181C11.1889 20.6097 13.4472 20.6097 14.8889 19.2181C17.1139 17.0764 19.5805 13.6931 18.6972 9.76806C17.8639 6.13473 14.7389 4.84306 12.3139 4.84306Z" fill="#232323"/>
<circle cx="12.3135" cy="11.0514" r="2.5" stroke="#232323"/>
</svg>
