<svg width="20" height="21" viewBox="0 0 20 21" fill="none" xmlns="http://www.w3.org/2000/svg">
<path d="M17.8332 10.5629C17.8332 14.8892 14.3261 18.3963 9.99984 18.3963C5.67361 18.3963 2.1665 14.8892 2.1665 10.5629C2.1665 6.2367 5.67361 2.7296 9.99984 2.7296C14.3261 2.7296 17.8332 6.2367 17.8332 10.5629Z" stroke="#232323"/>
<path d="M13.3332 9.93793H10.6248V7.2296C10.6248 6.88793 10.3415 6.6046 9.99984 6.6046C9.65817 6.6046 9.37484 6.88793 9.37484 7.2296V9.93793H6.6665C6.32484 9.93793 6.0415 10.2213 6.0415 10.5629C6.0415 10.9046 6.32484 11.1879 6.6665 11.1879H9.37484V13.8963C9.37484 14.2379 9.65817 14.5213 9.99984 14.5213C10.3415 14.5213 10.6248 14.2379 10.6248 13.8963V11.1879H13.3332C13.6748 11.1879 13.9582 10.9046 13.9582 10.5629C13.9582 10.2213 13.6748 9.93793 13.3332 9.93793Z" fill="#292D32"/>
</svg>
