<svg width="25" height="25" viewBox="0 0 25 25" fill="none" xmlns="http://www.w3.org/2000/svg">
<path d="M12.4999 21.5222C11.2666 21.5222 10.0249 21.0556 9.05824 20.1306C6.5999 17.7639 3.88324 13.9889 4.90824 9.49723C5.83324 5.42223 9.39157 3.59723 12.4999 3.59723C12.4999 3.59723 12.4999 3.59723 12.5082 3.59723C15.6166 3.59723 19.1749 5.42223 20.0999 9.50556C21.1166 13.9972 18.3999 17.7639 15.9416 20.1306C14.9749 21.0556 13.7332 21.5222 12.4999 21.5222ZM12.4999 4.84723C10.0749 4.84723 6.95824 6.1389 6.13324 9.77223C5.23324 13.6972 7.6999 17.0806 9.93324 19.2222C11.3749 20.6139 13.6332 20.6139 15.0749 19.2222C17.2999 17.0806 19.7666 13.6972 18.8832 9.77223C18.0499 6.1389 14.9249 4.84723 12.4999 4.84723Z" fill="#232323"/>
<circle cx="12.5" cy="11.0556" r="2.5" stroke="#232323"/>
</svg>
