<svg width="36" height="36" viewBox="0 0 36 36" fill="none" xmlns="http://www.w3.org/2000/svg">
<path d="M18.1176 31.0411C16.3402 31.0411 14.5507 30.3686 13.1576 29.0355C9.61467 25.6247 5.69947 20.1842 7.17668 13.7109C8.50976 7.83816 13.638 5.20801 18.1176 5.20801C18.1176 5.20801 18.1176 5.20801 18.1296 5.20801C22.6093 5.20801 27.7375 7.83816 29.0705 13.723C30.5357 20.1962 26.6205 25.6247 23.0777 29.0355C21.6845 30.3686 19.8951 31.0411 18.1176 31.0411ZM18.1176 7.00948C14.6228 7.00948 10.1311 8.871 8.94212 14.1073C7.64506 19.7639 11.2 24.6399 14.4186 27.7264C16.4963 29.732 19.7509 29.732 21.8286 27.7264C25.0353 24.6399 28.5902 19.7639 27.3171 14.1073C26.1161 8.871 21.6125 7.00948 18.1176 7.00948Z" fill="#FFD400"/>
<circle cx="18.1176" cy="15.9568" r="3.60294" stroke="#232323" stroke-width="1.44118"/>
</svg>
