<svg width="20" height="21" viewBox="0 0 20 21" fill="none" xmlns="http://www.w3.org/2000/svg">
<path d="M20 10.563C20 16.0858 15.5228 20.563 10 20.563C4.47715 20.563 0 16.0858 0 10.563C0 5.04014 4.47715 0.562988 10 0.562988C15.5228 0.562988 20 5.04014 20 10.563ZM10 5.56299C9.33074 5.56299 8.80779 6.14084 8.87438 6.80679L9.31281 11.1911C9.34811 11.5441 9.64519 11.813 10 11.813C10.3548 11.813 10.6519 11.5441 10.6872 11.1911L11.1256 6.80678C11.1922 6.14084 10.6693 5.56299 10 5.56299ZM10.0019 13.063C9.31157 13.063 8.75193 13.6226 8.75193 14.313C8.75193 15.0033 9.31157 15.563 10.0019 15.563C10.6923 15.563 11.2519 15.0033 11.2519 14.313C11.2519 13.6226 10.6923 13.063 10.0019 13.063Z" fill="#429DF8"/>
</svg>
