<svg width="20" height="21" viewBox="0 0 20 21" fill="none" xmlns="http://www.w3.org/2000/svg">
<g clip-path="url(#clip0_1535_9934)">
<path d="M18.1437 15.8818C17.8385 16.5805 17.4772 17.2237 17.0586 17.815C16.4881 18.6212 16.0209 19.1792 15.6609 19.4891C15.1027 19.9977 14.5048 20.2582 13.8644 20.273C13.4047 20.273 12.8504 20.1434 12.205 19.8804C11.5576 19.6187 10.9626 19.4891 10.4186 19.4891C9.84802 19.4891 9.23608 19.6187 8.58155 19.8804C7.92602 20.1434 7.39793 20.2804 6.99417 20.294C6.38012 20.3199 5.76806 20.052 5.15713 19.4891C4.7672 19.152 4.27947 18.5743 3.6952 17.7558C3.06832 16.8817 2.55294 15.8682 2.14918 14.7127C1.71677 13.4646 1.5 12.256 1.5 11.0859C1.5 9.74554 1.79226 8.58953 2.37766 7.62079C2.83773 6.84266 3.44978 6.22886 4.21581 5.77825C4.98185 5.32765 5.80955 5.09803 6.70091 5.08334C7.18863 5.08334 7.82822 5.23284 8.62303 5.52666C9.4156 5.82146 9.92451 5.97096 10.1476 5.97096C10.3144 5.97096 10.8798 5.79615 11.8382 5.44764C12.7445 5.12444 13.5094 4.99062 14.136 5.04334C15.834 5.17913 17.1097 5.84245 17.9581 7.03747C16.4395 7.9493 15.6883 9.22642 15.7032 10.8648C15.7169 12.1409 16.1841 13.2028 17.1022 14.046C17.5183 14.4374 17.983 14.7398 18.5 14.9546C18.3879 15.2769 18.2695 15.5855 18.1437 15.8818V15.8818ZM14.2494 0.695814C14.2494 1.69604 13.8806 2.62995 13.1456 3.49437C12.2586 4.52199 11.1857 5.1158 10.0223 5.0221C10.0075 4.90211 9.99888 4.77581 9.99888 4.6431C9.99888 3.68288 10.4207 2.65526 11.1698 1.81504C11.5438 1.38962 12.0194 1.03589 12.5962 0.753713C13.1718 0.475746 13.7162 0.322024 14.2282 0.2957C14.2431 0.429415 14.2494 0.563138 14.2494 0.695801V0.695814Z" fill="black"/>
</g>
<defs>
<clipPath id="clip0_1535_9934">
<rect y="0.2957" width="20" height="20" rx="6" fill="white"/>
</clipPath>
</defs>
</svg>
