<svg width="19" height="20" viewBox="0 0 19 20" fill="none" xmlns="http://www.w3.org/2000/svg">
<rect y="0.562988" width="19" height="19" rx="9.5" fill="white"/>
<path d="M11.9107 10.063C11.9107 11.3944 10.8314 12.4737 9.49998 12.4737C8.16858 12.4737 7.08926 11.3944 7.08926 10.063C7.08926 8.73157 8.16858 7.65225 9.49998 7.65225C10.8314 7.65225 11.9107 8.73157 11.9107 10.063ZM11.9107 10.063L11.9107 10.8666C11.9107 11.7542 12.6303 12.4737 13.5179 12.4737C14.088 12.4737 14.5889 12.1768 14.8741 11.7291C15.033 11.4799 15.125 11.184 15.125 10.8666V10.063C15.125 6.95639 12.6066 4.43799 9.5 4.43799C6.3934 4.43799 3.875 6.95639 3.875 10.063C3.875 13.1696 6.3934 15.688 9.5 15.688C10.6951 15.688 11.8032 15.3153 12.7143 14.6798" stroke="#075E54" stroke-width="1.5" stroke-linecap="round" stroke-linejoin="round"/>
</svg>
