<svg width="28" height="29" viewBox="0 0 28 29" fill="none" xmlns="http://www.w3.org/2000/svg">
<path opacity="0.4" d="M18.6525 10.922C18.2083 10.922 17.8553 10.569 17.8553 10.1249V8.66725C17.8553 7.55126 17.377 6.48082 16.5571 5.72924C15.7145 4.96627 14.6326 4.61325 13.4939 4.71574C11.5807 4.89794 9.90677 6.84523 9.90677 8.87222V9.89711C9.90677 10.3412 9.55375 10.6942 9.10963 10.6942C8.66552 10.6942 8.3125 10.3412 8.3125 9.89711V8.87222C8.3125 6.02532 10.6128 3.39478 13.3344 3.13286C14.9173 2.98482 16.4433 3.48588 17.6162 4.55632C18.7777 5.60398 19.4382 7.10714 19.4382 8.66725V10.1249C19.4382 10.569 19.0852 10.922 18.6525 10.922Z" fill="#374151"/>
<path d="M22.9457 11.0358C21.9892 9.9768 20.4177 9.46436 18.1174 9.46436H9.64499C7.34469 9.46436 5.7732 9.9768 4.81664 11.0358C3.71204 12.2657 3.7462 13.9055 3.87147 15.0443L4.6686 21.3872C4.90774 23.6078 5.80736 25.8853 10.704 25.8853H17.0583C21.955 25.8853 22.8546 23.6078 23.0938 21.3986L23.8909 15.0329C24.0162 13.9055 24.0389 12.2657 22.9457 11.0358ZM9.80441 15.8073H9.79303C9.16671 15.8073 8.65427 15.2948 8.65427 14.6685C8.65427 14.0422 9.16671 13.5297 9.79303 13.5297C10.4307 13.5297 10.9432 14.0422 10.9432 14.6685C10.9432 15.2948 10.4307 15.8073 9.80441 15.8073ZM17.7757 15.8073H17.7644C17.138 15.8073 16.6256 15.2948 16.6256 14.6685C16.6256 14.0422 17.138 13.5297 17.7644 13.5297C18.4021 13.5297 18.9145 14.0422 18.9145 14.6685C18.9145 15.2948 18.4021 15.8073 17.7757 15.8073Z" fill="#374151"/>
</svg>
