<svg width="24" height="25" viewBox="0 0 24 25" fill="none" xmlns="http://www.w3.org/2000/svg">
<path d="M19.375 7.31293H15.625V5.43793C15.625 4.94065 15.4275 4.46373 15.0758 4.1121C14.7242 3.76047 14.2473 3.56293 13.75 3.56293H11.25C10.7527 3.56293 10.2758 3.76047 9.92417 4.1121C9.57254 4.46373 9.375 4.94065 9.375 5.43793C9.375 5.60369 9.44085 5.76266 9.55806 5.87987C9.67527 5.99708 9.83424 6.06293 10 6.06293C10.1658 6.06293 10.3247 5.99708 10.4419 5.87987C10.5592 5.76266 10.625 5.60369 10.625 5.43793C10.625 5.27217 10.6908 5.1132 10.8081 4.99599C10.9253 4.87878 11.0842 4.81293 11.25 4.81293H13.75C13.9158 4.81293 14.0747 4.87878 14.1919 4.99599C14.3092 5.1132 14.375 5.27217 14.375 5.43793V7.31293H5.625C5.45924 7.31293 5.30027 7.37878 5.18306 7.49599C5.06585 7.6132 5 7.77217 5 7.93793C5 8.10369 5.06585 8.26266 5.18306 8.37987C5.30027 8.49708 5.45924 8.56293 5.625 8.56293H6.25V20.1442C6.25066 20.7192 6.47937 21.2704 6.88594 21.677C7.29252 22.0836 7.84377 22.3123 8.41875 22.3129H16.5813C17.1562 22.3123 17.7075 22.0836 18.1141 21.677C18.5206 21.2704 18.7493 20.7192 18.75 20.1442V10.4379C18.75 10.2722 18.6842 10.1132 18.5669 9.99599C18.4497 9.87878 18.2908 9.81293 18.125 9.81293C17.9592 9.81293 17.8003 9.87878 17.6831 9.99599C17.5658 10.1132 17.5 10.2722 17.5 10.4379V20.1442C17.4997 20.3877 17.4028 20.6212 17.2305 20.7935C17.0583 20.9657 16.8248 21.0626 16.5813 21.0629H8.41875C8.17518 21.0626 7.94169 20.9657 7.76946 20.7935C7.59723 20.6212 7.50033 20.3877 7.5 20.1442V8.56293H19.375C19.5408 8.56293 19.6997 8.49708 19.8169 8.37987C19.9342 8.26266 20 8.10369 20 7.93793C20 7.77217 19.9342 7.6132 19.8169 7.49599C19.6997 7.37878 19.5408 7.31293 19.375 7.31293Z" fill="#EB3C24"/>
<path d="M11.875 11.0629V18.5629C11.875 18.7287 11.9408 18.8877 12.0581 19.0049C12.1753 19.1221 12.3342 19.1879 12.5 19.1879C12.6658 19.1879 12.8247 19.1221 12.9419 19.0049C13.0592 18.8877 13.125 18.7287 13.125 18.5629V11.0629C13.125 10.8972 13.0592 10.7382 12.9419 10.621C12.8247 10.5038 12.6658 10.4379 12.5 10.4379C12.3342 10.4379 12.1753 10.5038 12.0581 10.621C11.9408 10.7382 11.875 10.8972 11.875 11.0629Z" fill="#EB3C24"/>
<path d="M14.375 12.3129V17.3129C14.375 17.4787 14.4408 17.6377 14.5581 17.7549C14.6753 17.8721 14.8342 17.9379 15 17.9379C15.1658 17.9379 15.3247 17.8721 15.4419 17.7549C15.5592 17.6377 15.625 17.4787 15.625 17.3129V12.3129C15.625 12.1472 15.5592 11.9882 15.4419 11.871C15.3247 11.7538 15.1658 11.6879 15 11.6879C14.8342 11.6879 14.6753 11.7538 14.5581 11.871C14.4408 11.9882 14.375 12.1472 14.375 12.3129Z" fill="#EB3C24"/>
<path d="M9.375 12.3129V17.3129C9.375 17.4787 9.44085 17.6377 9.55806 17.7549C9.67527 17.8721 9.83424 17.9379 10 17.9379C10.1658 17.9379 10.3247 17.8721 10.4419 17.7549C10.5592 17.6377 10.625 17.4787 10.625 17.3129V12.3129C10.625 12.1472 10.5592 11.9882 10.4419 11.871C10.3247 11.7538 10.1658 11.6879 10 11.6879C9.83424 11.6879 9.67527 11.7538 9.55806 11.871C9.44085 11.9882 9.375 12.1472 9.375 12.3129Z" fill="#EB3C24"/>
</svg>
