<svg width="43" height="44" viewBox="0 0 43 44" fill="none" xmlns="http://www.w3.org/2000/svg">
<rect y="0.388672" width="43" height="43" rx="21.5" fill="#232323"/>
<path opacity="0.4" d="M28.1699 11.8887H26.2699C24.0899 11.8887 22.9399 13.0387 22.9399 15.2187V17.1187C22.9399 19.2987 24.0899 20.4487 26.2699 20.4487H28.1699C30.3499 20.4487 31.4999 19.2987 31.4999 17.1187V15.2187C31.4999 13.0387 30.3499 11.8887 28.1699 11.8887Z" fill="white"/>
<path opacity="0.4" d="M16.74 23.3184H14.84C12.65 23.3184 11.5 24.4684 11.5 26.6484V28.5484C11.5 30.7384 12.65 31.8884 14.83 31.8884H16.73C18.91 31.8884 20.06 30.7384 20.06 28.5584V26.6584C20.07 24.4684 18.92 23.3184 16.74 23.3184Z" fill="white"/>
<path d="M15.79 20.4687C18.1593 20.4687 20.08 18.548 20.08 16.1787C20.08 13.8094 18.1593 11.8887 15.79 11.8887C13.4207 11.8887 11.5 13.8094 11.5 16.1787C11.5 18.548 13.4207 20.4687 15.79 20.4687Z" fill="white"/>
<path d="M27.2099 31.8886C29.5792 31.8886 31.4999 29.9679 31.4999 27.5986C31.4999 25.2293 29.5792 23.3086 27.2099 23.3086C24.8406 23.3086 22.9199 25.2293 22.9199 27.5986C22.9199 29.9679 24.8406 31.8886 27.2099 31.8886Z" fill="white"/>
</svg>
