<svg width="24" height="25" viewBox="0 0 24 25" fill="none" xmlns="http://www.w3.org/2000/svg">
<g clip-path="url(#clip0_792_20765)">
<path d="M12.6318 8.93153C12.9225 8.93153 13.1581 8.69589 13.1581 8.40522C13.1581 8.11454 12.9225 7.87891 12.6318 7.87891C12.3411 7.87891 12.1055 8.11454 12.1055 8.40522C12.1055 8.69589 12.3411 8.93153 12.6318 8.93153Z" fill="black"/>
<path d="M10.7705 9.70175C10.8441 9.62815 10.8942 9.53437 10.9146 9.43227C10.9349 9.33017 10.9245 9.22434 10.8846 9.12816C10.8448 9.03198 10.7774 8.94977 10.6908 8.89193C10.6042 8.83409 10.5025 8.80322 10.3984 8.80322C10.2943 8.80322 10.1925 8.83409 10.106 8.89193C10.0194 8.94977 9.95195 9.03198 9.91212 9.12816C9.87229 9.22434 9.86187 9.33017 9.8822 9.43227C9.90252 9.53437 9.95266 9.62815 10.0263 9.70175C10.125 9.80042 10.2588 9.85585 10.3984 9.85585C10.5379 9.85585 10.6718 9.80042 10.7705 9.70175Z" fill="black"/>
<path d="M9.47358 12.0892C9.76425 12.0892 9.99989 11.8536 9.99989 11.5629C9.99989 11.2723 9.76425 11.0366 9.47358 11.0366C9.1829 11.0366 8.94727 11.2723 8.94727 11.5629C8.94727 11.8536 9.1829 12.0892 9.47358 12.0892Z" fill="black"/>
<path d="M10.0263 13.4241C9.95266 13.4977 9.90252 13.5915 9.8822 13.6936C9.86187 13.7957 9.87229 13.9015 9.91212 13.9977C9.95195 14.0939 10.0194 14.1761 10.106 14.2339C10.1925 14.2918 10.2943 14.3226 10.3984 14.3226C10.5025 14.3226 10.6042 14.2918 10.6908 14.2339C10.7774 14.1761 10.8448 14.0939 10.8846 13.9977C10.9245 13.9015 10.9349 13.7957 10.9146 13.6936C10.8942 13.5915 10.8441 13.4977 10.7705 13.4241C10.6718 13.3254 10.5379 13.27 10.3984 13.27C10.2588 13.27 10.125 13.3254 10.0263 13.4241Z" fill="black"/>
<path d="M5.10935 7.19833C5.18298 7.12473 5.23312 7.03095 5.25344 6.92885C5.27376 6.82676 5.26335 6.72092 5.22351 6.62474C5.18368 6.52856 5.11623 6.44635 5.02967 6.38852C4.94312 6.33068 4.84135 6.2998 4.73725 6.2998C4.63315 6.2998 4.53139 6.33068 4.44483 6.38852C4.35827 6.44635 4.29082 6.52856 4.25099 6.62474C4.21116 6.72092 4.20074 6.82676 4.22106 6.92885C4.24138 7.03095 4.29153 7.12473 4.36515 7.19833C4.46385 7.297 4.59769 7.35243 4.73725 7.35243C4.87681 7.35243 5.01066 7.297 5.10935 7.19833Z" fill="black"/>
<path d="M4.36515 15.9275C4.29153 16.0011 4.24138 16.0949 4.22106 16.197C4.20074 16.2991 4.21116 16.4049 4.25099 16.5011C4.29082 16.5973 4.35827 16.6795 4.44483 16.7374C4.53139 16.7952 4.63315 16.8261 4.73725 16.8261C4.84135 16.8261 4.94312 16.7952 5.02967 16.7374C5.11623 16.6795 5.18368 16.5973 5.22351 16.5011C5.26335 16.4049 5.27376 16.2991 5.25344 16.197C5.23312 16.0949 5.18298 16.0011 5.10935 15.9275C5.01066 15.8289 4.87681 15.7734 4.73725 15.7734C4.59769 15.7734 4.46385 15.8289 4.36515 15.9275Z" fill="black"/>
<path d="M12.6318 15.247C12.9225 15.247 13.1581 15.0113 13.1581 14.7206C13.1581 14.43 12.9225 14.1943 12.6318 14.1943C12.3411 14.1943 12.1055 14.43 12.1055 14.7206C12.1055 15.0113 12.3411 15.247 12.6318 15.247Z" fill="black"/>
<path d="M14.4921 13.4241C14.4185 13.4977 14.3683 13.5915 14.348 13.6936C14.3277 13.7957 14.3381 13.9015 14.3779 13.9977C14.4178 14.0939 14.4852 14.1761 14.5718 14.2339C14.6583 14.2918 14.7601 14.3226 14.8642 14.3226C14.9683 14.3226 15.0701 14.2918 15.1566 14.2339C15.2432 14.1761 15.3106 14.0939 15.3505 13.9977C15.3903 13.9015 15.4007 13.7957 15.3804 13.6936C15.3601 13.5915 15.3099 13.4977 15.2363 13.4241C15.1376 13.3254 15.0038 13.27 14.8642 13.27C14.7246 13.27 14.5908 13.3254 14.4921 13.4241Z" fill="black"/>
<path d="M15.789 12.0892C16.0797 12.0892 16.3153 11.8536 16.3153 11.5629C16.3153 11.2723 16.0797 11.0366 15.789 11.0366C15.4983 11.0366 15.2627 11.2723 15.2627 11.5629C15.2627 11.8536 15.4983 12.0892 15.789 12.0892Z" fill="black"/>
<path d="M15.2363 9.70175C15.3099 9.62815 15.3601 9.53437 15.3804 9.43227C15.4007 9.33017 15.3903 9.22434 15.3505 9.12816C15.3106 9.03198 15.2432 8.94977 15.1566 8.89193C15.0701 8.83409 14.9683 8.80322 14.8642 8.80322C14.7601 8.80322 14.6583 8.83409 14.5718 8.89193C14.4852 8.94977 14.4178 9.03198 14.3779 9.12816C14.3381 9.22434 14.3277 9.33017 14.348 9.43227C14.3683 9.53437 14.4185 9.62815 14.4921 9.70175C14.5908 9.80042 14.7246 9.85585 14.8642 9.85585C15.0038 9.85585 15.1376 9.80042 15.2363 9.70175Z" fill="black"/>
<path d="M12.6316 13.668C13.048 13.668 13.455 13.5446 13.8012 13.3132C14.1474 13.0819 14.4173 12.7531 14.5766 12.3684C14.736 11.9837 14.7776 11.5604 14.6964 11.1521C14.6152 10.7437 14.4147 10.3686 14.1203 10.0741C13.8258 9.77971 13.4507 9.5792 13.0423 9.49797C12.634 9.41674 12.2107 9.45843 11.826 9.61777C11.4413 9.77711 11.1125 10.047 10.8812 10.3932C10.6498 10.7394 10.5264 11.1464 10.5264 11.5628C10.5264 12.1211 10.7482 12.6566 11.143 13.0514C11.5378 13.4462 12.0733 13.668 12.6316 13.668ZM12.6316 10.5101C12.8398 10.5101 13.0433 10.5719 13.2164 10.6875C13.3895 10.8032 13.5244 10.9676 13.6041 11.1599C13.6838 11.3523 13.7046 11.5639 13.664 11.7681C13.6234 11.9723 13.5231 12.1599 13.3759 12.3071C13.2287 12.4543 13.0412 12.5546 12.837 12.5952C12.6328 12.6358 12.4211 12.6149 12.2288 12.5353C12.0365 12.4556 11.8721 12.3207 11.7564 12.1476C11.6407 11.9745 11.579 11.771 11.579 11.5628C11.579 11.2836 11.6899 11.0159 11.8873 10.8185C12.0847 10.621 12.3524 10.5101 12.6316 10.5101Z" fill="black"/>
<path d="M12.6313 16.8261C13.6722 16.8261 14.6898 16.5174 15.5553 15.9391C16.4208 15.3607 17.0954 14.5388 17.4938 13.577C17.8921 12.6153 17.9964 11.5571 17.7933 10.5361C17.5902 9.5152 17.0889 8.5774 16.3529 7.84134C15.6168 7.10528 14.679 6.60402 13.6581 6.40094C12.6371 6.19786 11.5789 6.30209 10.6172 6.70044C9.65547 7.09879 8.83348 7.77338 8.25516 8.6389C7.67684 9.50441 7.36816 10.522 7.36816 11.5629C7.3697 12.9583 7.9247 14.2961 8.91139 15.2828C9.89809 16.2695 11.2359 16.8245 12.6313 16.8261ZM12.6313 7.35243C13.464 7.35243 14.2781 7.59937 14.9705 8.06203C15.6629 8.52469 16.2026 9.18228 16.5213 9.95164C16.84 10.721 16.9234 11.5676 16.7609 12.3844C16.5984 13.2011 16.1974 13.9514 15.6086 14.5402C15.0197 15.1291 14.2695 15.5301 13.4527 15.6925C12.636 15.855 11.7894 15.7716 11.02 15.4529C10.2506 15.1342 9.59304 14.5946 9.13039 13.9022C8.66773 13.2098 8.42079 12.3957 8.42079 11.5629C8.42204 10.4466 8.86605 9.3764 9.6554 8.58705C10.4448 7.79769 11.515 7.35369 12.6313 7.35243Z" fill="black"/>
<path d="M12.6314 1.56305C10.4187 1.55554 8.26731 2.28929 6.52036 3.64724C6.41486 3.73419 6.34734 3.85877 6.33207 3.99463C6.31681 4.13048 6.355 4.26694 6.43857 4.37513C6.52214 4.48332 6.64453 4.55475 6.77983 4.5743C6.91514 4.59385 7.05274 4.55998 7.16351 4.47987C8.72681 3.26529 10.6517 2.60902 12.6314 2.61567C15.0044 2.61567 17.2801 3.55833 18.9581 5.23628C20.636 6.91423 21.5787 9.19001 21.5787 11.563C21.5787 13.936 20.636 16.2118 18.9581 17.8897C17.2801 19.5676 15.0044 20.5103 12.6314 20.5103C10.6444 20.5172 8.7127 19.856 7.14667 18.6329C7.09216 18.5896 7.02959 18.5576 6.9626 18.5386C6.89561 18.5197 6.82552 18.5142 6.75639 18.5225C6.68727 18.5308 6.62048 18.5528 6.5599 18.5871C6.49932 18.6214 6.44615 18.6674 6.40347 18.7224C6.36079 18.7774 6.32944 18.8403 6.31125 18.9075C6.29306 18.9747 6.28838 19.0449 6.29749 19.1139C6.3066 19.1829 6.32932 19.2495 6.36432 19.3096C6.39932 19.3698 6.44592 19.4225 6.50141 19.4645C8.25174 20.8314 10.4106 21.5704 12.6314 21.5629C15.2835 21.5629 17.827 20.5094 19.7024 18.634C21.5778 16.7587 22.6313 14.2151 22.6313 11.563C22.6313 8.91084 21.5778 6.36731 19.7024 4.49196C17.827 2.61661 15.2835 1.56305 12.6314 1.56305Z" fill="black"/>
<path d="M7.36838 17.2867V15.3309C7.36817 15.2354 7.34216 15.1417 7.29312 15.0598C6.65381 14.0054 6.31578 12.7959 6.31578 11.5627C6.31578 10.3296 6.65381 9.1201 7.29312 8.06565C7.34224 7.98396 7.36826 7.89046 7.36838 7.79513V5.83935C7.36838 5.75009 7.34568 5.66229 7.3024 5.58421C7.25913 5.50614 7.19671 5.44035 7.12102 5.39304L4.90524 4.00831C4.68329 3.87021 4.41807 3.81918 4.16072 3.86505C3.90338 3.91092 3.67213 4.05045 3.51156 4.25673C2.64946 5.39442 1.99682 6.67653 1.58421 8.04302L0.617896 8.41986C0.536805 8.45154 0.464838 8.50283 0.40844 8.56915C0.352042 8.63546 0.312975 8.71474 0.29474 8.79986C-0.0982465 10.621 -0.0982465 12.505 0.29474 14.3261C0.312975 14.4113 0.352042 14.4905 0.40844 14.5569C0.464838 14.6232 0.536805 14.6745 0.617896 14.7061L1.58421 15.083C1.99662 16.4506 2.64945 17.7338 3.51209 18.8724C3.67278 19.0784 3.90396 19.2177 4.16115 19.2634C4.41834 19.3092 4.68336 19.2582 4.90524 19.1203L7.12102 17.7356C7.19709 17.6881 7.25975 17.6218 7.30305 17.5433C7.34634 17.4647 7.36883 17.3764 7.36838 17.2867ZM1.05263 11.563C1.05319 10.8023 1.12508 10.0434 1.26737 9.29617L2.20525 8.93144L3.52104 8.92565C3.28173 9.78439 3.15957 10.6715 3.15788 11.563C3.15842 12.4526 3.28042 13.338 3.52051 14.1946H2.20473L1.26789 13.8298C1.12543 13.0826 1.05336 12.3237 1.05263 11.563ZM6.31576 16.9956L4.3505 18.233C3.66465 17.3267 3.12365 16.3194 2.74683 15.2472H3.52051C3.68214 15.2476 3.84167 15.2105 3.98663 15.1391C4.1316 15.0676 4.25807 14.9635 4.35616 14.8351C4.45425 14.7066 4.52132 14.5572 4.55211 14.3985C4.5829 14.2398 4.57659 14.0762 4.53366 13.9204C4.10279 12.3785 4.10279 10.748 4.53366 9.20617C4.57657 9.05032 4.58287 8.88665 4.55208 8.72795C4.52129 8.56926 4.45424 8.41982 4.35615 8.29132C4.25807 8.16282 4.13161 8.05873 3.98666 7.98717C3.8417 7.91562 3.68217 7.87853 3.52051 7.87881H2.74683C3.12243 6.80908 3.66241 5.80441 4.34735 4.90094L6.31576 6.13146V7.65145C5.62629 8.83984 5.26317 10.1894 5.26317 11.5633C5.26317 12.9372 5.62629 14.2867 6.31576 15.4751V16.9956Z" fill="black"/>
<path d="M20.4406 11.506C20.479 11.4485 20.5056 11.384 20.5191 11.3162C20.5325 11.2484 20.5325 11.1786 20.5189 11.1108C20.5054 11.043 20.4786 10.9786 20.4402 10.9211C20.4017 10.8637 20.3523 10.8144 20.2948 10.776L19.7685 10.4271C19.6524 10.3526 19.5116 10.3266 19.3765 10.3549C19.2415 10.3832 19.1229 10.4634 19.0464 10.5782C18.9698 10.693 18.9415 10.8333 18.9674 10.9688C18.9933 11.1044 19.0714 11.2243 19.1848 11.3029L19.7111 11.6518C19.7686 11.6902 19.8331 11.7168 19.9009 11.7303C19.9688 11.7437 20.0385 11.7437 20.1063 11.7301C20.1741 11.7166 20.2386 11.6898 20.296 11.6514C20.3535 11.6129 20.4023 11.5635 20.4406 11.506Z" fill="black"/>
<path d="M18.874 7.05007L18.2461 7.00955C18.1072 7.00213 17.9709 7.04935 17.8664 7.14111C17.7618 7.23287 17.6973 7.3619 17.6867 7.5006C17.6822 7.56962 17.6913 7.63885 17.7136 7.70433C17.7359 7.76982 17.7708 7.83026 17.8165 7.88223C17.8621 7.93419 17.9176 7.97664 17.9797 8.00715C18.0417 8.03767 18.1092 8.05565 18.1782 8.06007L18.8061 8.10059H18.8409C18.9805 8.10499 19.1161 8.05376 19.2179 7.95816C19.3197 7.86257 19.3794 7.73045 19.3838 7.59086C19.3882 7.45127 19.3369 7.31566 19.2413 7.21385C19.1457 7.11203 19.0136 7.05237 18.874 7.04797V7.05007Z" fill="black"/>
<path d="M15.4515 5.80978C15.5322 5.81035 15.612 5.79234 15.6847 5.75715L16.2484 5.47873C16.3735 5.41682 16.4689 5.30774 16.5136 5.17548C16.5583 5.04321 16.5487 4.89861 16.4868 4.77347C16.4249 4.64833 16.3158 4.55291 16.1835 4.50819C16.0513 4.46348 15.9067 4.47314 15.7815 4.53505L15.2178 4.81347C15.1103 4.86555 15.0236 4.95269 14.9722 5.06055C14.9207 5.1684 14.9075 5.29056 14.9347 5.40693C14.9619 5.5233 15.0279 5.62695 15.1218 5.70084C15.2157 5.77472 15.332 5.81444 15.4515 5.81346V5.80978Z" fill="black"/>
<path d="M12.3712 5.00769L12.7202 4.48401C12.7585 4.4265 12.7852 4.36201 12.7986 4.2942C12.812 4.22639 12.812 4.1566 12.7985 4.08882C12.7849 4.02103 12.7582 3.95657 12.7197 3.89913C12.6813 3.84168 12.6319 3.79237 12.5744 3.75401C12.5169 3.71565 12.4524 3.689 12.3846 3.67556C12.3168 3.66213 12.247 3.66218 12.1792 3.67572C12.1114 3.68926 12.0469 3.71602 11.9895 3.75446C11.932 3.79291 11.8827 3.8423 11.8444 3.8998L11.4954 4.42611C11.4209 4.54226 11.395 4.68303 11.4233 4.8181C11.4515 4.95316 11.5317 5.07173 11.6465 5.14826C11.7614 5.22478 11.9017 5.25316 12.0372 5.22726C12.1727 5.20136 12.2927 5.12327 12.3712 5.0098V5.00769Z" fill="black"/>
<path d="M8.6036 6.50996C8.73746 6.51024 8.86639 6.45951 8.96417 6.36809C9.06194 6.27667 9.12121 6.15143 9.12991 6.01786L9.17044 5.38997C9.17944 5.25038 9.13263 5.11293 9.04029 5.00787C8.94795 4.9028 8.81766 4.83871 8.67807 4.82971C8.53849 4.8207 8.40104 4.86752 8.29597 4.95986C8.1909 5.05219 8.12682 5.18249 8.11781 5.32207L8.07729 5.94996C8.07279 6.01894 8.08192 6.08814 8.10416 6.15359C8.12641 6.21904 8.16132 6.27946 8.20692 6.33142C8.25252 6.38337 8.30791 6.42583 8.36992 6.45638C8.43194 6.48692 8.49936 6.50495 8.56834 6.50944L8.6036 6.50996Z" fill="black"/>
<path d="M9.57934 17.3705L9.01566 17.6489C8.95369 17.6796 8.89837 17.7221 8.85286 17.7742C8.80734 17.8262 8.77252 17.8867 8.75038 17.9522C8.72824 18.0177 8.71922 18.0869 8.72383 18.1558C8.72843 18.2248 8.74658 18.2922 8.77724 18.3542C8.80789 18.4161 8.85045 18.4715 8.90248 18.517C8.95451 18.5625 9.015 18.5973 9.08049 18.6195C9.14598 18.6416 9.21518 18.6506 9.28416 18.646C9.35314 18.6414 9.42053 18.6232 9.4825 18.5926L10.0462 18.3142C10.1081 18.2835 10.1635 18.241 10.209 18.1889C10.2545 18.1369 10.2893 18.0764 10.3114 18.0109C10.3336 17.9454 10.3426 17.8762 10.338 17.8073C10.3334 17.7383 10.3152 17.6709 10.2846 17.6089C10.2539 17.547 10.2114 17.4916 10.1594 17.4461C10.1073 17.4006 10.0468 17.3658 9.98134 17.3436C9.91586 17.3215 9.84665 17.3125 9.77767 17.3171C9.70869 17.3217 9.6413 17.3398 9.57934 17.3705Z" fill="black"/>
<path d="M12.8916 18.1186L12.5426 18.6449C12.4655 18.7614 12.4378 18.9037 12.4656 19.0406C12.4935 19.1775 12.5746 19.2978 12.691 19.3749C12.8075 19.452 12.9499 19.4797 13.0868 19.4519C13.2237 19.424 13.3439 19.3429 13.421 19.2265L13.77 18.7001C13.8445 18.584 13.8704 18.4432 13.8421 18.3082C13.8139 18.1731 13.7337 18.0545 13.6189 17.978C13.504 17.9015 13.3638 17.8731 13.2282 17.899C13.0927 17.9249 12.9727 18.003 12.8942 18.1165L12.8916 18.1186Z" fill="black"/>
<path d="M16.1344 17.1097L16.0939 17.7376C16.0894 17.8067 16.0985 17.8759 16.1208 17.9414C16.1431 18.0069 16.1781 18.0673 16.2237 18.1193C16.2694 18.1712 16.3248 18.2137 16.3869 18.2442C16.449 18.2747 16.5164 18.2927 16.5855 18.2971H16.6197C16.7536 18.2974 16.8826 18.2466 16.9804 18.155C17.0782 18.0635 17.1374 17.9381 17.146 17.8045L17.1865 17.1766C17.191 17.1075 17.1818 17.0382 17.1594 16.9726C17.1371 16.907 17.1021 16.8465 17.0564 16.7945C17.0106 16.7425 16.9551 16.7 16.893 16.6694C16.8308 16.6388 16.7633 16.6208 16.6941 16.6163C16.625 16.6119 16.5557 16.6211 16.4902 16.6434C16.4246 16.6657 16.3641 16.7008 16.312 16.7465C16.207 16.8388 16.1429 16.9691 16.1339 17.1087L16.1344 17.1097Z" fill="black"/>
<path d="M19.382 14.149C19.3201 14.0238 19.2111 13.9284 19.0788 13.8837C18.9465 13.839 18.8019 13.8486 18.6768 13.9105C18.5516 13.9724 18.4562 14.0815 18.4115 14.2138C18.3668 14.346 18.3765 14.4907 18.4384 14.6158L18.7168 15.1795C18.7604 15.2678 18.8279 15.342 18.9117 15.3939C18.9954 15.4457 19.092 15.473 19.1905 15.4726C19.271 15.4733 19.3507 15.4553 19.4231 15.42C19.4851 15.3894 19.5404 15.3468 19.5859 15.2948C19.6314 15.2427 19.6663 15.1823 19.6884 15.1168C19.7106 15.0513 19.7196 14.9821 19.715 14.9131C19.7103 14.8441 19.6922 14.7767 19.6615 14.7147L19.382 14.149Z" fill="black"/>
</g>
<defs>
<clipPath id="clip0_792_20765">
<rect width="24" height="24" fill="white" transform="translate(0 0.562988)"/>
</clipPath>
</defs>
</svg>
