<svg width="24" height="25" viewBox="0 0 24 25" fill="currentcolor" xmlns="http://www.w3.org/2000/svg">
<g clip-path="url(#clip0_5001_20772)">
<path d="M18.0359 6.28251C16.5997 4.84633 14.6901 4.05546 12.6591 4.05554C12.3263 4.05554 12.0566 4.3253 12.0566 4.65803C12.0566 4.99077 12.3264 5.26053 12.6591 5.26053C14.3683 5.26045 15.9752 5.926 17.1838 7.1346C18.3924 8.3432 19.058 9.95016 19.0579 11.6594C19.0579 11.9921 19.3276 12.2619 19.6604 12.2619C19.9932 12.2619 20.2629 11.9921 20.2629 11.6595C20.263 9.62827 19.4721 7.71869 18.0359 6.28251Z" fill="currentcolor"/>
<path d="M15.5574 11.6595C15.5574 11.9922 15.8272 12.262 16.16 12.2619C16.4928 12.2619 16.7624 11.9921 16.7624 11.6594C16.7623 9.39725 14.9215 7.5566 12.6592 7.55627C12.6591 7.55627 12.6593 7.55627 12.6592 7.55627C12.3265 7.55627 12.0567 7.82595 12.0566 8.15869C12.0566 8.49142 12.3263 8.76118 12.6591 8.76126C14.2571 8.7615 15.5573 10.0616 15.5574 11.6595Z" fill="currentcolor"/>
<path d="M14.2243 14.7314C13.3059 14.6838 12.8381 15.3668 12.6137 15.6949C12.4258 15.9695 12.4962 16.3444 12.7708 16.5323C13.0455 16.7202 13.4204 16.6499 13.6083 16.3752C13.8734 15.9876 13.9935 15.9266 14.1564 15.9343C14.6778 15.9956 16.7315 17.5006 16.9372 17.9712C16.9888 18.1097 16.9868 18.2456 16.9315 18.4108C16.7159 19.0508 16.3589 19.5005 15.8991 19.7112C15.4623 19.9115 14.9267 19.8934 14.3506 19.659C12.1996 18.7822 10.3203 17.5587 8.76506 16.0222C8.76441 16.0216 8.76377 16.021 8.76321 16.0204C7.22999 14.4667 6.00869 12.5898 5.13339 10.442C4.8989 9.86548 4.88075 9.32983 5.08102 8.89306C5.29181 8.43324 5.74151 8.07632 6.38087 7.86095C6.54668 7.80536 6.68228 7.80359 6.81957 7.85468C7.29184 8.06106 8.79671 10.1147 8.85744 10.6302C8.86611 10.7993 8.80466 10.9193 8.41738 11.1839C8.14264 11.3716 8.07203 11.7465 8.25977 12.0212C8.44742 12.2959 8.82225 12.3665 9.09707 12.1788C9.42531 11.9547 10.1081 11.4881 10.0607 10.5666C10.0085 9.60408 8.13613 7.05506 7.24147 6.72609C6.84359 6.5778 6.42506 6.57523 5.99705 6.71886C5.03402 7.04317 4.33851 7.6214 3.98569 8.39098C3.64347 9.13759 3.65432 10.0038 4.01742 10.8965C4.95417 13.1949 6.26479 15.2061 7.91281 16.8742C7.91683 16.8782 7.92092 16.8823 7.9251 16.8862C9.592 18.5312 11.6008 19.8394 13.8962 20.775C14.3559 20.9619 14.8085 21.0555 15.2414 21.0555C15.6491 21.0555 16.0393 20.9726 16.4013 20.8067C17.1709 20.4539 17.7491 19.7585 18.0736 18.7948C18.217 18.3676 18.2146 17.9492 18.0675 17.5532C17.7374 16.6561 15.1883 14.7837 14.2243 14.7314Z" fill="currentcolor"/>
</g>
<defs>
<clipPath id="clip0_5001_20772">
<rect width="17" height="17" fill="currentcolor" transform="translate(3.5 4.05554)"/>
</clipPath>
</defs>
</svg>
