<svg width="57" height="38" viewBox="0 0 57 38" fill="none" xmlns="http://www.w3.org/2000/svg">
<path d="M55.945 15.1884C55.593 14.6018 52.1191 13.1012 52.1191 13.1012C52.7233 12.7892 53.1363 12.7246 53.1363 11.4341C53.1363 10.0262 53.1292 9.55686 52.1906 9.55686H49.0064C48.9935 9.52871 48.9795 9.49937 48.9666 9.47004C46.911 4.98121 46.6353 3.84668 43.5696 2.31911C39.4574 0.274144 31.748 0.170898 28.7257 0.170898C25.7034 0.170898 17.994 0.274144 13.8853 2.31911C10.8161 3.84433 10.8924 4.62923 8.48845 9.47004C8.48845 9.48295 8.46381 9.51697 8.44152 9.55686H5.25381C4.32226 9.55686 4.31522 10.0262 4.31522 11.4341C4.31522 12.7246 4.7282 12.7892 5.33242 13.1012C5.33242 13.1012 1.97577 14.7191 1.50647 15.1884C1.03717 15.6577 0.567871 18.9428 0.567871 24.5744C0.567871 30.206 1.03717 35.8376 1.03717 35.8376H2.43802C2.43802 37.4801 2.67971 37.7148 3.38366 37.7148H12.7696C13.4735 37.7148 13.7082 37.4801 13.7082 35.8376H43.7433C43.7433 37.4801 43.9779 37.7148 44.6819 37.7148H54.3025C54.7718 37.7148 55.0064 37.3628 55.0064 35.8376H56.4143C56.4143 35.8376 56.8836 30.0887 56.8836 24.5744C56.8836 19.0602 56.297 15.7751 55.945 15.1884ZM13.3867 20.461C11.25 20.6946 9.10221 20.8145 6.95267 20.82C4.55691 20.82 4.47478 20.9737 4.30583 19.4778C4.24228 18.7931 4.26237 18.1033 4.36567 17.4235L4.43958 17.0656H4.79156C6.19945 17.0656 7.5217 17.1255 10.0184 17.8611C11.2882 18.2422 12.4826 18.8399 13.5486 19.628C14.0601 19.9988 14.1775 20.3507 14.1775 20.3507L13.3867 20.461ZM42.3846 28.9084L41.8661 30.206H15.5854C15.5854 30.206 15.6311 30.1344 14.9987 28.8943C14.5294 27.9768 15.1161 27.3902 16.0441 27.057C17.8415 26.4094 23.0941 24.5744 28.7257 24.5744C34.3573 24.5744 39.7143 26.1559 41.4554 27.057C42.1007 27.3902 42.902 27.6248 42.3846 28.9154V28.9084ZM12.2322 12.8901C11.8533 12.9119 11.4735 12.9147 11.0942 12.8983C11.4004 12.3539 11.5705 11.7473 11.8697 11.1138C12.8083 9.11924 13.8818 6.86192 15.793 5.91042C18.5549 4.53537 24.2791 3.9159 28.7257 3.9159C33.1723 3.9159 38.8966 4.53068 41.6584 5.91042C43.5696 6.86192 44.6385 9.12042 45.5817 11.1138C45.8833 11.7532 46.051 12.3644 46.3655 12.9123C46.1308 12.9253 45.861 12.9123 45.2169 12.8901H12.2322ZM53.0283 19.4731C52.7773 20.9373 53.0119 20.82 50.4988 20.82C48.3493 20.8145 46.2016 20.6946 44.0647 20.461C43.7304 20.4012 43.6353 19.8368 43.9028 19.628C44.9636 18.8311 46.1596 18.2325 47.4331 17.8611C49.9298 17.1255 51.3353 17.0269 52.7233 17.0762C52.8166 17.0797 52.9051 17.1177 52.9721 17.1826C53.039 17.2476 53.0796 17.3351 53.0858 17.4282C53.1522 18.1111 53.1329 18.7997 53.0283 19.4778V19.4731Z" fill="#FFD400"/>
</svg>
