<svg width="31" height="32" viewBox="0 0 31 32" fill="none" xmlns="http://www.w3.org/2000/svg">
<g clip-path="url(#clip0_4907_2051)">
<path d="M28.1967 11.4571L27.739 10.4291H29.4366C29.6874 10.4291 29.928 10.3294 30.1054 10.1521C30.2827 9.97471 30.3824 9.73415 30.3824 9.48332C30.3824 9.23249 30.2827 8.99192 30.1054 8.81456C29.928 8.63719 29.6874 8.53755 29.4366 8.53755H26.8982L25.1258 4.54828C24.9029 4.04659 24.5393 3.62033 24.079 3.32118C23.6187 3.02203 23.0814 2.86285 22.5325 2.86292H7.96758C7.41888 2.86295 6.88195 3.02208 6.42184 3.32104C5.96173 3.62001 5.59818 4.04597 5.37522 4.54734L3.6019 8.53755H1.06345C0.812614 8.53755 0.572053 8.63719 0.394686 8.81456C0.217319 8.99192 0.117676 9.23249 0.117676 9.48332C0.117676 9.73415 0.217319 9.97471 0.394686 10.1521C0.572053 10.3294 0.812614 10.4291 1.06345 10.4291H2.76584L2.30808 11.4571C1.68616 11.6028 1.13158 11.954 0.734065 12.454C0.336554 12.954 0.119376 13.5734 0.117676 14.2122L0.117676 21.7784C0.1201 22.3631 0.303126 22.9328 0.641716 23.4095C0.980306 23.8863 1.45792 24.2467 2.00922 24.4417V27.453C2.00922 27.9547 2.20851 28.4358 2.56324 28.7905C2.91797 29.1452 3.3991 29.3445 3.90076 29.3445H6.73808C7.23975 29.3445 7.72087 29.1452 8.0756 28.7905C8.43034 28.4358 8.62962 27.9547 8.62962 27.453V24.6157H21.8704V27.453C21.8704 27.9547 22.0697 28.4358 22.4245 28.7905C22.7792 29.1452 23.2603 29.3445 23.762 29.3445H26.5993C27.101 29.3445 27.5821 29.1452 27.9368 28.7905C28.2916 28.4358 28.4908 27.9547 28.4908 27.453V24.4417C29.0421 24.2467 29.5198 23.8863 29.8583 23.4095C30.1969 22.9328 30.38 22.3631 30.3824 21.7784V14.2122C30.3809 13.5741 30.1644 12.9551 29.7678 12.4552C29.3713 11.9553 28.8177 11.6037 28.1967 11.4571ZM7.10315 5.3153C7.17758 5.14825 7.29886 5.00636 7.45228 4.90682C7.6057 4.80728 7.7847 4.75435 7.96758 4.75446H22.5325C22.7155 4.75444 22.8945 4.8075 23.048 4.90721C23.2014 5.00693 23.3226 5.14902 23.3969 5.31625L26.0895 11.3749H4.41054L7.10315 5.3153ZM6.73808 27.453H3.90076V24.6157H6.73808V27.453ZM23.762 27.453V24.6157H26.5993V27.453H23.762ZM28.4908 21.7784C28.4908 22.0292 28.3912 22.2698 28.2138 22.4471C28.0365 22.6245 27.7959 22.7241 27.5451 22.7241H2.95499C2.70416 22.7241 2.4636 22.6245 2.28623 22.4471C2.10886 22.2698 2.00922 22.0292 2.00922 21.7784V14.2122C2.00922 13.9613 2.10886 13.7208 2.28623 13.5434C2.4636 13.3661 2.70416 13.2664 2.95499 13.2664H27.5451C27.7959 13.2664 28.0365 13.3661 28.2138 13.5434C28.3912 13.7208 28.4908 13.9613 28.4908 14.2122V21.7784Z" fill="#FFD400"/>
<path d="M23.7621 15.158C23.201 15.158 22.6524 15.3244 22.1858 15.6361C21.7192 15.9479 21.3555 16.391 21.1408 16.9095C20.926 17.4279 20.8698 17.9984 20.9793 18.5488C21.0888 19.0992 21.359 19.6048 21.7558 20.0016C22.1526 20.3984 22.6582 20.6686 23.2086 20.7781C23.759 20.8876 24.3295 20.8314 24.8479 20.6166C25.3664 20.4019 25.8095 20.0382 26.1213 19.5716C26.433 19.105 26.5994 18.5564 26.5994 17.9953C26.5994 17.2428 26.3005 16.5211 25.7684 15.989C25.2363 15.4569 24.5146 15.158 23.7621 15.158ZM23.7621 18.941C23.5751 18.941 23.3922 18.8856 23.2367 18.7817C23.0811 18.6777 22.9599 18.53 22.8883 18.3572C22.8168 18.1844 22.798 17.9942 22.8345 17.8108C22.871 17.6273 22.9611 17.4588 23.0934 17.3265C23.2256 17.1942 23.3941 17.1042 23.5776 17.0677C23.7611 17.0312 23.9512 17.0499 24.1241 17.1215C24.2969 17.1931 24.4446 17.3143 24.5485 17.4698C24.6524 17.6254 24.7079 17.8082 24.7079 17.9953C24.7079 18.2461 24.6083 18.4867 24.4309 18.664C24.2535 18.8414 24.013 18.941 23.7621 18.941Z" fill="#232323"/>
<path d="M6.7382 15.158C6.17703 15.158 5.62846 15.3244 5.16187 15.6361C4.69527 15.9479 4.33161 16.391 4.11686 16.9095C3.90211 17.4279 3.84592 17.9984 3.9554 18.5488C4.06488 19.0992 4.3351 19.6048 4.73191 20.0016C5.12872 20.3984 5.63428 20.6686 6.18466 20.7781C6.73505 20.8876 7.30554 20.8314 7.82399 20.6166C8.34244 20.4019 8.78557 20.0382 9.09734 19.5716C9.40911 19.105 9.57551 18.5564 9.57551 17.9953C9.57551 17.2428 9.27658 16.5211 8.74448 15.989C8.21238 15.4569 7.4907 15.158 6.7382 15.158ZM6.7382 18.941C6.55114 18.941 6.36829 18.8856 6.21275 18.7817C6.05722 18.6777 5.936 18.53 5.86442 18.3572C5.79283 18.1844 5.7741 17.9942 5.8106 17.8108C5.84709 17.6273 5.93717 17.4588 6.06943 17.3265C6.2017 17.1942 6.37022 17.1042 6.55369 17.0677C6.73715 17.0312 6.92731 17.0499 7.10013 17.1215C7.27295 17.1931 7.42065 17.3143 7.52458 17.4698C7.6285 17.6254 7.68397 17.8082 7.68397 17.9953C7.68397 18.2461 7.58432 18.4867 7.40696 18.664C7.22959 18.8414 6.98903 18.941 6.7382 18.941Z" fill="#232323"/>
</g>
<defs>
<clipPath id="clip0_4907_2051">
<rect width="30.2647" height="30.2647" fill="white" transform="translate(0.117676 0.971375)"/>
</clipPath>
</defs>
</svg>
