<svg width="25" height="25" viewBox="0 0 25 25" fill="none" xmlns="http://www.w3.org/2000/svg">
<rect opacity="0.1" x="3.5" y="5.55566" width="17" height="13" rx="1" fill="#232323"/>
<path d="M19.0455 5.05566H5.40909C4.35643 5.05566 3.5 5.9121 3.5 6.96476V17.1466C3.5 18.1992 4.35643 19.0557 5.40909 19.0557H19.0455C20.0981 19.0557 20.9545 18.1992 20.9545 17.1466V6.96476C20.9545 5.9121 20.0981 5.05566 19.0455 5.05566ZM5.40909 6.14657H19.0455C19.4966 6.14657 19.8636 6.51363 19.8636 6.96476V9.05566H4.59091V6.96476C4.59091 6.51363 4.95797 6.14657 5.40909 6.14657ZM19.0455 17.9648H5.40909C4.95797 17.9648 4.59091 17.5977 4.59091 17.1466V10.1466H19.8636V17.1466C19.8636 17.5977 19.4966 17.9648 19.0455 17.9648Z" fill="#232323"/>
<path d="M7.31845 15.3285H6.77299C6.47177 15.3285 6.22754 15.0843 6.22754 14.783V14.2376C6.22754 13.9364 6.47177 13.6921 6.77299 13.6921H7.31845C7.61968 13.6921 7.8639 13.9364 7.8639 14.2376V14.783C7.8639 15.0843 7.61968 15.3285 7.31845 15.3285Z" fill="#232323"/>
</svg>
