<svg width="23" height="23" viewBox="0 0 23 23" fill="none" xmlns="http://www.w3.org/2000/svg">
<path opacity="0.4" d="M17.5448 2.24414H15.7869C13.7698 2.24414 12.7058 3.30817 12.7058 5.3252V7.08317C12.7058 9.1002 13.7698 10.1642 15.7869 10.1642H17.5448C19.5619 10.1642 20.6259 9.1002 20.6259 7.08317V5.3252C20.6259 3.30817 19.5619 2.24414 17.5448 2.24414Z" fill="#374151"/>
<path opacity="0.4" d="M6.96913 12.8203H5.21116C3.18488 12.8203 2.12085 13.8843 2.12085 15.9014V17.6593C2.12085 19.6856 3.18488 20.7497 5.20191 20.7497H6.95988C8.97691 20.7497 10.0409 19.6856 10.0409 17.6686V15.9106C10.0502 13.8843 8.98616 12.8203 6.96913 12.8203Z" fill="#374151"/>
<path d="M6.09015 10.1827C8.28233 10.1827 10.0594 8.40562 10.0594 6.21344C10.0594 4.02125 8.28233 2.24414 6.09015 2.24414C3.89796 2.24414 2.12085 4.02125 2.12085 6.21344C2.12085 8.40562 3.89796 10.1827 6.09015 10.1827Z" fill="#374151"/>
<path d="M16.6568 20.7491C18.849 20.7491 20.6261 18.972 20.6261 16.7798C20.6261 14.5877 18.849 12.8105 16.6568 12.8105C14.4646 12.8105 12.6875 14.5877 12.6875 16.7798C12.6875 18.972 14.4646 20.7491 16.6568 20.7491Z" fill="#374151"/>
</svg>
