<svg width="34" height="34" viewBox="0 0 34 34" fill="none" xmlns="http://www.w3.org/2000/svg">
<path opacity="0.4" d="M16.9997 31.1667C24.8237 31.1667 31.1663 24.8241 31.1663 17C31.1663 9.17601 24.8237 2.83337 16.9997 2.83337C9.17564 2.83337 2.83301 9.17601 2.83301 17C2.83301 24.8241 9.17564 31.1667 16.9997 31.1667Z" fill="#B0B0B0"/>
<path d="M18.5014 17L21.7598 13.7417C22.1706 13.3308 22.1706 12.6508 21.7598 12.24C21.3489 11.8292 20.6689 11.8292 20.2581 12.24L16.9998 15.4983L13.7414 12.24C13.3306 11.8292 12.6506 11.8292 12.2398 12.24C11.8289 12.6508 11.8289 13.3308 12.2398 13.7417L15.4981 17L12.2398 20.2583C11.8289 20.6692 11.8289 21.3492 12.2398 21.76C12.4523 21.9725 12.7214 22.0717 12.9906 22.0717C13.2598 22.0717 13.5289 21.9725 13.7414 21.76L16.9998 18.5017L20.2581 21.76C20.4706 21.9725 20.7398 22.0717 21.0089 22.0717C21.2781 22.0717 21.5473 21.9725 21.7598 21.76C22.1706 21.3492 22.1706 20.6692 21.7598 20.2583L18.5014 17Z" fill="#B0B0B0"/>
</svg>
