<svg width="43" height="43" viewBox="0 0 43 43" fill="none" xmlns="http://www.w3.org/2000/svg">
<rect width="43" height="43" rx="21.5" fill="#232323"/>
<path d="M21.5 5.25C12.5463 5.25 5.25 12.5463 5.25 21.5C5.25 30.4538 12.5463 37.75 21.5 37.75C30.4538 37.75 37.75 30.4538 37.75 21.5C37.75 12.5463 30.4538 5.25 21.5 5.25ZM26.96 25.2375C27.4313 25.7088 27.4313 26.4888 26.96 26.96C26.7163 27.2038 26.4075 27.3175 26.0988 27.3175C25.79 27.3175 25.4813 27.2038 25.2375 26.96L21.5 23.2225L17.7625 26.96C17.5188 27.2038 17.21 27.3175 16.9013 27.3175C16.5925 27.3175 16.2838 27.2038 16.04 26.96C15.5688 26.4888 15.5688 25.7088 16.04 25.2375L19.7775 21.5L16.04 17.7625C15.5688 17.2913 15.5688 16.5113 16.04 16.04C16.5113 15.5688 17.2913 15.5688 17.7625 16.04L21.5 19.7775L25.2375 16.04C25.7088 15.5688 26.4888 15.5688 26.96 16.04C27.4313 16.5113 27.4313 17.2913 26.96 17.7625L23.2225 21.5L26.96 25.2375Z" fill="#FFD400"/>
</svg>
