<svg width="24" height="24" viewBox="0 0 24 24" fill="none" xmlns="http://www.w3.org/2000/svg">
<path d="M16.8799 19.75C15.8199 19.75 14.7899 19.44 13.9099 18.85C13.2199 18.43 12.6199 17.81 12.1799 17.08C11.6599 16.23 11.3799 15.25 11.3799 14.25C11.3799 11.22 13.8499 8.75 16.8799 8.75C17.2999 8.75 17.7099 8.80001 18.0999 8.89001C20.5799 9.44001 22.3799 11.69 22.3799 14.25C22.3799 15.26 22.1099 16.24 21.5899 17.09C20.6099 18.73 18.7999 19.75 16.8799 19.75ZM16.8799 10.25C14.6699 10.25 12.8799 12.04 12.8799 14.25C12.8799 14.98 13.0799 15.69 13.4599 16.31C13.7799 16.84 14.2099 17.28 14.7099 17.59C15.3699 18.03 16.1099 18.25 16.8799 18.25C18.2799 18.25 19.5899 17.51 20.3099 16.31C20.6899 15.69 20.8799 14.98 20.8799 14.25C20.8799 12.39 19.5699 10.75 17.7599 10.35C17.4699 10.28 17.1799 10.25 16.8799 10.25Z" fill="#1FB256"/>
<path d="M16.1997 16.17C16.0097 16.17 15.8197 16.1 15.6697 15.95L14.4997 14.78C14.2097 14.49 14.2097 14.01 14.4997 13.72C14.7897 13.43 15.2697 13.43 15.5597 13.72L16.2197 14.38L18.2297 12.53C18.5397 12.25 19.0097 12.27 19.2897 12.57C19.5697 12.87 19.5497 13.35 19.2497 13.63L16.7097 15.97C16.5697 16.1 16.3797 16.17 16.1997 16.17Z" fill="#1FB256"/>
<path d="M10.9298 22.25C10.4498 22.25 9.96979 22.13 9.53979 21.89C8.6498 21.39 8.11981 20.49 8.11981 19.48V14.13C8.11981 13.62 7.78979 12.87 7.46979 12.48L3.6698 8.48999C3.0398 7.83999 2.5498 6.75001 2.5498 5.95001V3.62C2.5498 2.01 3.76982 0.75 5.31982 0.75H18.6598C20.1898 0.75 21.4298 1.98999 21.4298 3.51999V5.73999C21.4298 6.78999 20.8098 7.97 20.1998 8.59L18.3998 10.18C18.2198 10.34 17.9698 10.4 17.7298 10.35C17.4598 10.28 17.1698 10.25 16.8698 10.25C14.6598 10.25 12.8698 12.04 12.8698 14.25C12.8698 14.98 13.0698 15.69 13.4498 16.31C13.7698 16.84 14.1998 17.28 14.6998 17.59C14.9198 17.73 15.0598 17.97 15.0598 18.23V18.57C15.0598 19.36 14.5798 20.47 13.7798 20.94L12.3998 21.83C11.9598 22.11 11.4398 22.25 10.9298 22.25ZM5.32983 2.25C4.61983 2.25 4.05981 2.85 4.05981 3.62V5.95001C4.05981 6.31001 4.35983 7.04 4.75983 7.44L8.6098 11.49C9.1198 12.12 9.62982 13.18 9.62982 14.13V19.48C9.62982 20.14 10.0898 20.47 10.2798 20.58C10.7098 20.82 11.2198 20.81 11.6098 20.57L13.0098 19.67C13.2798 19.51 13.5498 19 13.5698 18.64C13.0198 18.23 12.5398 17.7 12.1798 17.1C11.6598 16.25 11.3798 15.27 11.3798 14.27C11.3798 11.24 13.8498 8.76999 16.8798 8.76999C17.1598 8.76999 17.4398 8.78999 17.6998 8.82999L19.1798 7.51999C19.5198 7.16999 19.9398 6.34 19.9398 5.75V3.53C19.9398 2.83 19.3698 2.26001 18.6698 2.26001H5.32983V2.25Z" fill="#1FB256"/>
</svg>
