<svg width="13" height="12" viewBox="0 0 13 12" fill="none" xmlns="http://www.w3.org/2000/svg">
<path fill-rule="evenodd" clip-rule="evenodd" d="M6.37543 0C9.68913 0 12.3754 2.6863 12.3754 6C12.3754 9.3137 9.68913 12 6.37543 12C3.06173 12 0.375427 9.3137 0.375427 6C0.375427 2.6863 3.06173 0 6.37543 0ZM3.56693 6.35623L5.27573 7.9255C5.525 8.1549 5.91083 8.1427 6.1452 7.9009L9.19365 4.98218C9.4416 4.74365 9.44925 4.34928 9.21073 4.10135C8.9722 3.8534 8.57785 3.84575 8.3299 4.08425L5.68928 6.6125L4.41118 5.43875C4.15783 5.20563 3.76345 5.222 3.53033 5.47535C3.2972 5.72873 3.31358 6.1231 3.56693 6.35623Z" fill="#078EA1"/>
</svg>
