<svg width="24" height="25" viewBox="0 0 24 25" fill="currentcolor" xmlns="http://www.w3.org/2000/svg">
<path fill-rule="evenodd" clip-rule="evenodd" d="M18.3107 9.8028C18.6791 10.646 18.8837 11.5769 18.8837 12.5555C18.8837 16.3546 15.7991 19.4393 12 19.4393C8.20093 19.4393 5.11628 16.3546 5.11628 12.5555C5.11628 8.75647 8.20093 5.67182 12 5.67182C12.3081 5.67182 12.5581 5.42177 12.5581 5.11368C12.5581 4.80559 12.3081 4.55554 12 4.55554C7.58474 4.55554 4 8.14029 4 12.5555C4 16.9708 7.58474 20.5555 12 20.5555C16.4153 20.5555 20 16.9708 20 12.5555C20 11.4177 19.7619 10.3356 19.3332 9.3548C19.2097 9.07275 18.88 8.94401 18.598 9.06754C18.3159 9.19108 18.1872 9.52001 18.3107 9.8028Z" fill="currentcolor"/>
<path fill-rule="evenodd" clip-rule="evenodd" d="M15.7209 4.55554C14.307 4.55554 13.1594 5.70308 13.1594 7.11703C13.1594 7.55908 13.3596 8.09712 13.6692 8.62252C14.2906 9.68001 15.3265 10.7174 15.3265 10.7174C15.5445 10.9354 15.8973 10.9354 16.1153 10.7174C16.1153 10.7174 17.1512 9.68001 17.7726 8.62252C18.0822 8.09712 18.2824 7.55908 18.2824 7.11703C18.2824 5.70308 17.1349 4.55554 15.7209 4.55554ZM15.7209 5.67182C16.5187 5.67182 17.1661 6.31926 17.1661 7.11703C17.1661 7.50996 16.8737 7.99294 16.5596 8.44838C16.2791 8.8547 15.9628 9.23275 15.7209 9.50512C15.4791 9.23275 15.1628 8.8547 14.8822 8.44838C14.5682 7.99294 14.2757 7.50996 14.2757 7.11703C14.2757 6.31926 14.9231 5.67182 15.7209 5.67182Z" fill="currentcolor"/>
<path fill-rule="evenodd" clip-rule="evenodd" d="M4.26263 13.0288L6.69611 14.5499C7.13965 14.8268 7.65239 14.9741 8.17481 14.9741H8.74039C9.22932 14.9741 9.6937 15.1877 10.0122 15.559L10.7943 16.4722C11.1605 16.8993 11.2877 17.4813 11.1337 18.0216C10.9343 18.7181 10.7192 19.472 10.7192 19.472C10.6343 19.7682 10.8063 20.077 11.1024 20.1618C11.3986 20.2467 11.7075 20.0748 11.7923 19.7786C11.7923 19.7786 12.0074 19.0247 12.2068 18.3282C12.4643 17.4277 12.2522 16.4573 11.642 15.7458C11.3867 15.4474 11.1054 15.12 10.8591 14.8327C10.3292 14.2136 9.55528 13.8578 8.74039 13.8578H8.17481C7.86151 13.8578 7.55416 13.77 7.28774 13.6033L4.85351 12.0822C4.5923 11.9192 4.24774 11.9981 4.08477 12.2601C3.92179 12.5213 4.00067 12.8658 4.26263 13.0288Z" fill="currentcolor"/>
<path fill-rule="evenodd" clip-rule="evenodd" d="M7.03551 6.85136C7.03551 6.85136 7.78863 8.35759 8.22323 9.2268C8.48593 9.75294 8.96221 10.1399 9.53077 10.2902L10.839 10.6363C11.1687 10.7234 11.424 10.9838 11.5043 11.315L12.0647 13.6123C12.186 14.1109 12.4904 14.5455 12.9176 14.8305L13.2643 15.0612C13.7525 15.3872 14.3576 15.4876 14.9246 15.3366C15.4924 15.1862 15.9672 14.7993 16.2299 14.2739L16.6578 13.4173C16.7799 13.1747 17.0009 12.9968 17.2643 12.9314C17.2643 12.9306 19.3414 12.4119 19.3414 12.4119C19.6398 12.3368 19.8221 12.0339 19.747 11.7347C19.6725 11.4363 19.3696 11.254 19.0705 11.3291L16.9935 11.8478C16.4145 11.9929 15.927 12.3836 15.6599 12.918L15.2312 13.7745C15.1122 14.0134 14.8963 14.189 14.6381 14.2575C14.3806 14.326 14.1053 14.2806 13.8835 14.1325L13.5367 13.9018C13.3425 13.7723 13.2041 13.5743 13.149 13.3481L12.5894 11.0508C12.4115 10.3222 11.8496 9.74922 11.1241 9.55722L9.81579 9.21117C9.55756 9.14271 9.341 8.96708 9.22193 8.72745C8.78658 7.85824 8.03421 6.35276 8.03421 6.35276C7.89653 6.07666 7.5609 5.96503 7.28556 6.10271C7.00946 6.24038 6.89784 6.57601 7.03551 6.85136Z" fill="currentcolor"/>
</svg>
