<svg width="20" height="21" viewBox="0 0 20 21" fill="none" xmlns="http://www.w3.org/2000/svg">
<path d="M7.3265 6.48499C7.04178 6.48499 6.80566 6.24887 6.80566 5.96415V3.88082C6.80566 3.5961 7.04178 3.35999 7.3265 3.35999C7.61122 3.35999 7.84733 3.5961 7.84733 3.88082V5.96415C7.84733 6.24887 7.61122 6.48499 7.3265 6.48499Z" fill="black"/>
<path d="M12.8822 6.48499C12.5974 6.48499 12.3613 6.24887 12.3613 5.96415V3.88082C12.3613 3.5961 12.5974 3.35999 12.8822 3.35999C13.1669 3.35999 13.403 3.5961 13.403 3.88082V5.96415C13.403 6.24887 13.1669 6.48499 12.8822 6.48499Z" fill="black"/>
<path d="M7.67394 12.5614C7.58366 12.5614 7.49338 12.5406 7.41005 12.5059C7.31977 12.4711 7.25033 12.4225 7.18088 12.36C7.05588 12.2281 6.97949 12.0545 6.97949 11.867C6.97949 11.7767 7.00033 11.6864 7.03505 11.6031C7.06977 11.5198 7.11838 11.4434 7.18088 11.3739C7.25033 11.3114 7.31977 11.2628 7.41005 11.2281C7.66005 11.1239 7.97255 11.1795 8.16699 11.3739C8.29199 11.5059 8.36838 11.6864 8.36838 11.867C8.36838 11.9086 8.36144 11.9573 8.35449 12.0059C8.34755 12.0475 8.33366 12.0892 8.31283 12.1309C8.29894 12.1725 8.2781 12.2142 8.25033 12.2559C8.22949 12.2906 8.19477 12.3253 8.16699 12.36C8.03505 12.485 7.85449 12.5614 7.67394 12.5614Z" fill="black"/>
<path d="M10.1041 12.5613C10.0138 12.5613 9.92356 12.5405 9.84022 12.5058C9.74995 12.4711 9.6805 12.4224 9.61106 12.3599C9.48606 12.228 9.40967 12.0544 9.40967 11.8669C9.40967 11.7766 9.4305 11.6863 9.46522 11.603C9.49995 11.5197 9.54856 11.4433 9.61106 11.3738C9.6805 11.3113 9.74995 11.2627 9.84022 11.228C10.0902 11.1169 10.4027 11.1794 10.5972 11.3738C10.7222 11.5058 10.7986 11.6863 10.7986 11.8669C10.7986 11.9086 10.7916 11.9572 10.7847 12.0058C10.7777 12.0474 10.7638 12.0891 10.743 12.1308C10.7291 12.1724 10.7083 12.2141 10.6805 12.2558C10.6597 12.2905 10.6249 12.3252 10.5972 12.3599C10.4652 12.4849 10.2847 12.5613 10.1041 12.5613Z" fill="black"/>
<path d="M12.5348 12.5613C12.4445 12.5613 12.3542 12.5405 12.2709 12.5058C12.1806 12.4711 12.1112 12.4224 12.0417 12.3599C12.0139 12.3252 11.9862 12.2905 11.9584 12.2558C11.9306 12.2141 11.9098 12.1724 11.8959 12.1308C11.8751 12.0891 11.8612 12.0474 11.8542 12.0058C11.8473 11.9572 11.8403 11.9086 11.8403 11.8669C11.8403 11.6863 11.9167 11.5058 12.0417 11.3738C12.1112 11.3113 12.1806 11.2627 12.2709 11.228C12.5278 11.1169 12.8334 11.1794 13.0278 11.3738C13.1528 11.5058 13.2292 11.6863 13.2292 11.8669C13.2292 11.9086 13.2223 11.9572 13.2153 12.0058C13.2084 12.0474 13.1945 12.0891 13.1737 12.1308C13.1598 12.1724 13.1389 12.2141 13.1112 12.2558C13.0903 12.2905 13.0556 12.3252 13.0278 12.3599C12.8959 12.4849 12.7153 12.5613 12.5348 12.5613Z" fill="black"/>
<path d="M7.67394 14.9918C7.58366 14.9918 7.49338 14.9711 7.41005 14.9363C7.32671 14.9016 7.25033 14.8529 7.18088 14.7904C7.05588 14.6585 6.97949 14.4779 6.97949 14.2974C6.97949 14.2071 7.00033 14.1168 7.03505 14.0335C7.06977 13.9432 7.11838 13.8669 7.18088 13.8044C7.43783 13.5475 7.91005 13.5475 8.16699 13.8044C8.29199 13.9363 8.36838 14.1168 8.36838 14.2974C8.36838 14.4779 8.29199 14.6585 8.16699 14.7904C8.03505 14.9154 7.85449 14.9918 7.67394 14.9918Z" fill="black"/>
<path d="M10.1041 14.9918C9.92356 14.9918 9.743 14.9154 9.61106 14.7904C9.48606 14.6585 9.40967 14.4779 9.40967 14.2974C9.40967 14.2071 9.4305 14.1168 9.46522 14.0335C9.49995 13.9432 9.54856 13.8669 9.61106 13.8044C9.868 13.5475 10.3402 13.5475 10.5972 13.8044C10.6597 13.8669 10.7083 13.9432 10.743 14.0335C10.7777 14.1168 10.7986 14.2071 10.7986 14.2974C10.7986 14.4779 10.7222 14.6585 10.5972 14.7904C10.4652 14.9154 10.2847 14.9918 10.1041 14.9918Z" fill="black"/>
<path d="M12.5348 14.9919C12.3542 14.9919 12.1737 14.9155 12.0417 14.7905C11.9792 14.728 11.9306 14.6516 11.8959 14.5613C11.8612 14.478 11.8403 14.3877 11.8403 14.2974C11.8403 14.2071 11.8612 14.1169 11.8959 14.0335C11.9306 13.9432 11.9792 13.8669 12.0417 13.8044C12.2014 13.6446 12.4445 13.5682 12.6667 13.6169C12.7153 13.6238 12.757 13.6377 12.7987 13.6585C12.8403 13.6724 12.882 13.6932 12.9237 13.721C12.9584 13.7419 12.9931 13.7766 13.0278 13.8044C13.1528 13.9363 13.2292 14.1169 13.2292 14.2974C13.2292 14.478 13.1528 14.6585 13.0278 14.7905C12.8959 14.9155 12.7153 14.9919 12.5348 14.9919Z" fill="black"/>
<path d="M16.0071 9.32518H4.2015C3.91678 9.32518 3.68066 9.08906 3.68066 8.80434C3.68066 8.51962 3.91678 8.28351 4.2015 8.28351H16.0071C16.2918 8.28351 16.5279 8.51962 16.5279 8.80434C16.5279 9.08906 16.2918 9.32518 16.0071 9.32518Z" fill="black"/>
<path d="M12.8821 18.2905H7.32655C4.79183 18.2905 3.3335 16.8322 3.3335 14.2975V8.3947C3.3335 5.85998 4.79183 4.40164 7.32655 4.40164H12.8821C15.4168 4.40164 16.8752 5.85998 16.8752 8.3947V14.2975C16.8752 16.8322 15.4168 18.2905 12.8821 18.2905ZM7.32655 5.44331C5.34044 5.44331 4.37516 6.40859 4.37516 8.3947V14.2975C4.37516 16.2836 5.34044 17.2489 7.32655 17.2489H12.8821C14.8682 17.2489 15.8335 16.2836 15.8335 14.2975V8.3947C15.8335 6.40859 14.8682 5.44331 12.8821 5.44331H7.32655Z" fill="black"/>
</svg>
