<svg width="139" height="120" viewBox="0 0 139 120" fill="none" xmlns="http://www.w3.org/2000/svg">
<path d="M122.25 55.6551C122.25 69.8551 116.45 82.6551 107.15 91.8551C98.0504 100.955 85.4504 106.455 71.5504 106.455C57.7504 106.455 45.1504 100.855 35.9504 91.8551C26.6504 82.6551 20.8504 69.8551 20.8504 55.6551C20.8504 27.5551 43.5504 4.8551 71.5504 4.8551C99.5504 4.8551 122.25 27.6551 122.25 55.6551Z" fill="#EAEEF9"/>
<path d="M117.85 22.3551C120.115 22.3551 121.95 20.5195 121.95 18.2551C121.95 15.9907 120.115 14.1551 117.85 14.1551C115.586 14.1551 113.75 15.9907 113.75 18.2551C113.75 20.5195 115.586 22.3551 117.85 22.3551Z" fill="#EAEEF9"/>
<path d="M123.85 6.35513C125.397 6.35513 126.65 5.10152 126.65 3.55513C126.65 2.00873 125.397 0.755127 123.85 0.755127C122.304 0.755127 121.05 2.00873 121.05 3.55513C121.05 5.10152 122.304 6.35513 123.85 6.35513Z" fill="#EAEEF9"/>
<path d="M22.4504 22.2551C23.9968 22.2551 25.2504 21.0015 25.2504 19.4551C25.2504 17.9087 23.9968 16.6551 22.4504 16.6551C20.904 16.6551 19.6504 17.9087 19.6504 19.4551C19.6504 21.0015 20.904 22.2551 22.4504 22.2551Z" fill="#EAEEF9"/>
<path d="M5.35039 76.2551C8.22227 76.2551 10.5504 73.927 10.5504 71.0551C10.5504 68.1832 8.22227 65.8551 5.35039 65.8551C2.47851 65.8551 0.150391 68.1832 0.150391 71.0551C0.150391 73.927 2.47851 76.2551 5.35039 76.2551Z" fill="#EAEEF9"/>
<g filter="url(#filter0_d_12883_85819)">
<path d="M116.869 26.5378V81.9426C116.869 84.2486 115.023 86.0755 112.76 86.0755H29.3052C27.0424 86.0755 25.1667 84.2187 25.1667 81.9426V26.5378C25.1667 24.2617 27.0126 22.4049 29.3052 22.4049H112.76C115.023 22.4049 116.869 24.2617 116.869 26.5378Z" fill="url(#paint0_linear_12883_85819)"/>
</g>
<path d="M116.869 26.5378V32.7371H25.1667V26.5378C25.1667 24.2617 27.0126 22.4049 29.3052 22.4049H112.76C115.023 22.4049 116.869 24.2617 116.869 26.5378Z" fill="#D5DDEA"/>
<path d="M30.9428 29.1133C31.7978 29.1133 32.491 28.4161 32.491 27.556C32.491 26.6959 31.7978 25.9987 30.9428 25.9987C30.0877 25.9987 29.3945 26.6959 29.3945 27.556C29.3945 28.4161 30.0877 29.1133 30.9428 29.1133Z" fill="#989FB0"/>
<path d="M36.0042 29.1133C36.8593 29.1133 37.5524 28.4161 37.5524 27.556C37.5524 26.6959 36.8593 25.9987 36.0042 25.9987C35.1492 25.9987 34.456 26.6959 34.456 27.556C34.456 28.4161 35.1492 29.1133 36.0042 29.1133Z" fill="#989FB0"/>
<path d="M41.036 29.1133C41.891 29.1133 42.5842 28.4161 42.5842 27.556C42.5842 26.6959 41.891 25.9987 41.036 25.9987C40.1809 25.9987 39.4877 26.6959 39.4877 27.556C39.4877 28.4161 40.1809 29.1133 41.036 29.1133Z" fill="#989FB0"/>
<path d="M44.311 70.4723H97.7246" stroke="#D5DDEA" stroke-width="2" stroke-miterlimit="10" stroke-linecap="round" stroke-linejoin="round"/>
<path d="M52.7369 76.1925H89.2988" stroke="#D5DDEA" stroke-width="2" stroke-miterlimit="10" stroke-linecap="round" stroke-linejoin="round"/>
<path d="M62.0858 54.36V57.4447H60.2101V60.4096H56.6968V57.4447H48.9557V53.9107L56.1311 43.878H60.2398V54.3899H62.0858V54.36ZM56.6968 47.9809L52.2308 54.36H56.6968V47.9809Z" fill="url(#paint1_linear_12883_85819)"/>
<path d="M70.8987 60.739C67.1473 60.739 63.8424 57.4447 63.8424 52.1138C63.8424 46.783 67.1175 43.4886 70.8987 43.4886C74.68 43.4886 77.955 46.783 77.955 52.1138C77.955 57.4447 74.68 60.739 70.8987 60.739ZM70.8987 57.5644C72.6554 57.5644 74.412 55.7975 74.412 52.1438C74.412 48.49 72.6554 46.7231 70.8987 46.7231C69.1421 46.7231 67.3855 48.49 67.3855 52.1438C67.3855 55.7975 69.1421 57.5644 70.8987 57.5644Z" fill="url(#paint2_linear_12883_85819)"/>
<path d="M93.1097 54.36V57.4447H91.234V60.4096H87.7207V57.4447H79.9796V53.9107L87.155 43.878H91.2638V54.3899H93.1097V54.36ZM87.691 47.9809L83.2249 54.36H87.691V47.9809Z" fill="url(#paint3_linear_12883_85819)"/>
<path d="M112.814 98.3099L92.8674 78.3789L97.4402 73.8061L117.371 93.7529L112.814 98.3099Z" fill="#858B9B"/>
<path d="M119.748 105.323L104.453 90.0275C103.176 88.7503 103.176 86.6689 104.453 85.3916C105.73 84.1144 107.812 84.1144 109.089 85.3916L124.384 100.687C125.661 101.964 125.661 104.045 124.384 105.323C123.107 106.6 121.025 106.6 119.748 105.323Z" fill="#858B9B"/>
<path d="M118.66 106.3L98.9814 86.6216C98.5241 86.1643 98.5241 85.4232 98.9814 84.9502L104.011 79.9201C104.469 79.4628 105.21 79.4628 105.683 79.9201L125.362 99.5988C125.819 100.056 125.819 100.797 125.362 101.27L120.332 106.3C119.858 106.758 119.117 106.758 118.66 106.3Z" fill="url(#paint4_linear_12883_85819)"/>
<path d="M70.2873 14.155C49.4102 14.155 32.491 31.0743 32.491 51.9514C32.491 72.8127 49.4102 89.7478 70.2716 89.7478C91.1487 89.7478 108.068 72.8285 108.068 51.9514C108.068 31.0743 91.1487 14.155 70.2873 14.155ZM70.2873 82.7467C53.5257 82.7467 39.9493 68.9495 39.9493 51.9356C39.9493 34.9217 53.5257 21.1403 70.2873 21.1403C87.0489 21.1403 100.625 34.9375 100.625 51.9514C100.625 68.9653 87.0332 82.7467 70.2873 82.7467Z" fill="url(#paint5_linear_12883_85819)"/>
<defs>
<filter id="filter0_d_12883_85819" x="3.16669" y="11.4049" width="135.702" height="107.671" filterUnits="userSpaceOnUse" color-interpolation-filters="sRGB">
<feFlood flood-opacity="0" result="BackgroundImageFix"/>
<feColorMatrix in="SourceAlpha" type="matrix" values="0 0 0 0 0 0 0 0 0 0 0 0 0 0 0 0 0 0 127 0" result="hardAlpha"/>
<feOffset dy="11"/>
<feGaussianBlur stdDeviation="11"/>
<feColorMatrix type="matrix" values="0 0 0 0 0.397708 0 0 0 0 0.47749 0 0 0 0 0.575 0 0 0 0.27 0"/>
<feBlend mode="normal" in2="BackgroundImageFix" result="effect1_dropShadow_12883_85819"/>
<feBlend mode="normal" in="SourceGraphic" in2="effect1_dropShadow_12883_85819" result="shape"/>
</filter>
<linearGradient id="paint0_linear_12883_85819" x1="70.9879" y1="20.9321" x2="70.9879" y2="86.7619" gradientUnits="userSpaceOnUse">
<stop stop-color="#FDFEFF"/>
<stop offset="0.9964" stop-color="#ECF0F5"/>
</linearGradient>
<linearGradient id="paint1_linear_12883_85819" x1="78.1152" y1="43.4886" x2="81.4144" y2="60.739" gradientUnits="userSpaceOnUse">
<stop stop-color="#B0BACC"/>
<stop offset="1" stop-color="#969EAE"/>
</linearGradient>
<linearGradient id="paint2_linear_12883_85819" x1="78.1152" y1="43.4886" x2="81.4144" y2="60.739" gradientUnits="userSpaceOnUse">
<stop stop-color="#B0BACC"/>
<stop offset="1" stop-color="#969EAE"/>
</linearGradient>
<linearGradient id="paint3_linear_12883_85819" x1="78.1152" y1="43.4886" x2="81.4144" y2="60.739" gradientUnits="userSpaceOnUse">
<stop stop-color="#B0BACC"/>
<stop offset="1" stop-color="#969EAE"/>
</linearGradient>
<linearGradient id="paint4_linear_12883_85819" x1="98.626" y1="93.1132" x2="125.709" y2="93.1132" gradientUnits="userSpaceOnUse">
<stop stop-color="#B0BACC"/>
<stop offset="1" stop-color="#969EAE"/>
</linearGradient>
<linearGradient id="paint5_linear_12883_85819" x1="32.4564" y1="51.9596" x2="108.082" y2="51.9596" gradientUnits="userSpaceOnUse">
<stop stop-color="#B0BACC"/>
<stop offset="1" stop-color="#969EAE"/>
</linearGradient>
</defs>
</svg>
