<svg width="117" height="106" viewBox="0 0 117 106" fill="none" xmlns="http://www.w3.org/2000/svg">
<path d="M17.6548 104.054H108.836" stroke="#D6DCE8" stroke-width="2" stroke-miterlimit="10" stroke-linejoin="round"/>
<path d="M7.28418 104.054H15.0748" stroke="#D6DCE8" stroke-width="2" stroke-miterlimit="10" stroke-linejoin="round"/>
<path d="M18.9549 17.0631L14.9097 17.8757L17.9249 33.0222L21.9701 32.2096L18.9549 17.0631Z" fill="#F1F3F9" stroke="#D6DCE8" stroke-width="2" stroke-miterlimit="10"/>
<path d="M33.8236 33.1405L31.1985 19.7664H10.0097C9.0721 19.7664 8.32205 19.3897 7.75952 18.8246L6.25942 17.1293C5.69689 16.5642 6.07191 15.434 7.00947 15.434H32.8861C33.8236 15.434 34.7612 16.1874 34.9487 17.1293L37.9489 32.1987L33.8236 33.1405Z" fill="#F1F3F9" stroke="#D6DCE8" stroke-width="2" stroke-miterlimit="10"/>
<path d="M95.5151 103.778C99.5539 103.778 102.828 100.489 102.828 96.4319C102.828 92.3746 99.5539 89.0856 95.5151 89.0856C91.4763 89.0856 88.2021 92.3746 88.2021 96.4319C88.2021 100.489 91.4763 103.778 95.5151 103.778Z" fill="white" stroke="#D6DCE8" stroke-width="2" stroke-miterlimit="10"/>
<path d="M43.9487 103.778C47.9875 103.778 51.2617 100.489 51.2617 96.4319C51.2617 92.3746 47.9875 89.0856 43.9487 89.0856C39.9099 89.0856 36.6357 92.3746 36.6357 96.4319C36.6357 100.489 39.9099 103.778 43.9487 103.778Z" fill="white" stroke="#D6DCE8" stroke-width="2" stroke-miterlimit="10"/>
<path d="M43.3128 79.0441L39.27 79.8691L42.7047 96.8524L46.7474 96.0273L43.3128 79.0441Z" fill="#F1F3F9" stroke="#D6DCE8" stroke-width="2" stroke-miterlimit="10"/>
<path d="M95.3275 98.5039H31.9486C31.011 98.5039 30.0734 97.7504 29.8859 96.8086L25.3856 74.958C25.1981 73.8278 25.9482 72.6976 27.0733 72.5092C28.1983 72.3208 29.3234 73.0743 29.5109 74.2045L33.6362 94.3598H95.515C96.6401 94.3598 97.5776 95.3017 97.5776 96.4319C97.5776 97.5621 96.6401 98.5039 95.3275 98.5039Z" fill="#F1F3F9" stroke="#D6DCE8" stroke-width="2" stroke-miterlimit="10"/>
<path d="M31.5737 103.778C35.6125 103.778 38.8866 100.489 38.8866 96.4319C38.8866 92.3746 35.6125 89.0856 31.5737 89.0856C27.5349 89.0856 24.2607 92.3746 24.2607 96.4319C24.2607 100.489 27.5349 103.778 31.5737 103.778Z" fill="white" stroke="#D6DCE8" stroke-width="2" stroke-miterlimit="10"/>
<path d="M31.5735 100.011C33.5411 100.011 35.1362 98.4085 35.1362 96.4319C35.1362 94.4553 33.5411 92.8529 31.5735 92.8529C29.6058 92.8529 28.0107 94.4553 28.0107 96.4319C28.0107 98.4085 29.6058 100.011 31.5735 100.011Z" fill="#F1F3F9" stroke="#D6DCE8" stroke-width="2" stroke-miterlimit="10"/>
<path d="M83.1391 103.778C87.178 103.778 90.4521 100.489 90.4521 96.4319C90.4521 92.3746 87.178 89.0856 83.1391 89.0856C79.1003 89.0856 75.8262 92.3746 75.8262 96.4319C75.8262 100.489 79.1003 103.778 83.1391 103.778Z" fill="white" stroke="#D6DCE8" stroke-width="2" stroke-miterlimit="10"/>
<path d="M83.1389 100.011C85.1065 100.011 86.7016 98.4085 86.7016 96.4319C86.7016 94.4553 85.1065 92.8529 83.1389 92.8529C81.1713 92.8529 79.5762 94.4553 79.5762 96.4319C79.5762 98.4085 81.1713 100.011 83.1389 100.011Z" fill="#F1F3F9" stroke="#D6DCE8" stroke-width="2" stroke-miterlimit="10"/>
<path d="M110.516 31.6337L102.828 75.9C102.265 78.7255 100.015 80.6092 97.2022 80.6092H31.1981C28.3855 80.6092 26.1353 78.7255 25.5728 75.9L16.9473 31.6337H110.516Z" fill="white" stroke="#D6DCE8" stroke-width="2" stroke-miterlimit="10"/>
<path d="M56.1373 74.5814C57.0749 74.5814 58.0124 73.8279 58.0124 72.6977V39.7334C58.0124 38.7916 57.2624 37.8497 56.1373 37.8497C55.1998 37.8497 54.2622 38.6032 54.2622 39.7334V72.6977C54.2622 73.8279 55.0123 74.5814 56.1373 74.5814Z" fill="#D6DCE8"/>
<path d="M65.7003 74.5813C66.6379 74.7697 67.5754 74.0162 67.7629 72.886L70.9506 40.11C71.1381 39.1682 70.3881 38.2264 69.263 38.038C68.3255 37.8496 67.3879 38.6031 67.2004 39.7333L64.0127 72.5092C64.0127 73.6395 64.5752 74.3929 65.7003 74.5813Z" fill="#D6DCE8"/>
<path d="M75.4512 74.3929C76.3888 74.5812 77.3264 73.8278 77.5139 72.8859L83.5142 40.4867C83.7018 39.5449 82.9517 38.603 82.0142 38.4147C81.0766 38.2263 80.139 38.9798 79.9515 39.9216L74.1387 72.3208C73.7636 73.2627 74.5137 74.2045 75.4512 74.3929Z" fill="#D6DCE8"/>
<path d="M46.3865 74.5813C45.4489 74.7697 44.5113 74.0162 44.3238 72.886L41.1361 40.11C40.9486 39.1682 41.6987 38.2264 42.8237 38.038C43.7613 37.8496 44.6989 38.6031 44.8864 39.7333L48.0741 72.5092C48.0741 73.6395 47.5115 74.3929 46.3865 74.5813Z" fill="#D6DCE8"/>
<path d="M36.6364 74.3929C35.6988 74.5812 34.7612 73.8278 34.5737 72.8859L28.5734 40.4867C28.3858 39.5449 29.1359 38.603 30.0735 38.4147C31.011 38.2263 31.9486 38.9798 32.1361 39.9216L37.9489 72.3208C38.324 73.2627 37.5739 74.2045 36.6364 74.3929Z" fill="#D6DCE8"/>
<path d="M110.516 31.6335L102.828 75.8999C102.266 78.7254 100.015 80.6091 97.2027 80.6091H79.7642C82.9519 80.6091 85.577 78.3487 86.1396 75.3348L94.2026 31.6335H110.516Z" fill="#F1F3F9" stroke="#D6DCE8" stroke-width="2" stroke-miterlimit="10"/>
</svg>
