<svg width="14" height="14" viewBox="0 0 14 14" fill="none" xmlns="http://www.w3.org/2000/svg">
<path d="M14 7C14 10.866 10.866 14 7 14C3.13401 14 0 10.866 0 7C0 3.13401 3.13401 0 7 0C10.866 0 14 3.13401 14 7ZM7 3.5C6.53152 3.5 6.16545 3.9045 6.21207 4.37066L6.51897 7.43967C6.54368 7.6868 6.75164 7.875 7 7.875C7.24836 7.875 7.45632 7.6868 7.48103 7.43967L7.78793 4.37066C7.83455 3.9045 7.46848 3.5 7 3.5ZM7.00135 8.75C6.5181 8.75 6.12635 9.14175 6.12635 9.625C6.12635 10.1082 6.5181 10.5 7.00135 10.5C7.4846 10.5 7.87635 10.1082 7.87635 9.625C7.87635 9.14175 7.4846 8.75 7.00135 8.75Z" fill="#E06E0E"/>
</svg>
