<svg width="24" height="25" viewBox="0 0 24 25" fill="none" xmlns="http://www.w3.org/2000/svg">
<path d="M21.2565 12.5629C21.2565 17.6751 17.1122 21.8194 12 21.8194C6.8878 21.8194 2.74354 17.6751 2.74354 12.5629C2.74354 7.45073 6.8878 3.30647 12 3.30647C17.1122 3.30647 21.2565 7.45073 21.2565 12.5629Z" stroke="#1FB256" stroke-width="1.48708"/>
<path d="M12.0009 10.8988C11.4085 10.8988 10.9873 11.1489 10.9873 11.5175V16.5326C10.9873 16.8485 11.4085 17.1644 12.0009 17.1644C12.5669 17.1644 13.0275 16.8485 13.0275 16.5326V11.5174C13.0275 11.1489 12.5669 10.8988 12.0009 10.8988Z" fill="#1FB256"/>
<path d="M12.0002 7.80542C11.3947 7.80542 10.9209 8.2398 10.9209 8.73999C10.9209 9.24023 11.3948 9.68776 12.0002 9.68776C12.5926 9.68776 13.0665 9.24023 13.0665 8.73999C13.0665 8.2398 12.5925 7.80542 12.0002 7.80542Z" fill="#1FB256"/>
</svg>
