<svg width="21" height="20" viewBox="0 0 21 20" fill="none" xmlns="http://www.w3.org/2000/svg">
<path d="M17.6946 10.0001C17.6946 13.8354 14.5854 16.9446 10.7501 16.9446C6.9148 16.9446 3.80566 13.8354 3.80566 10.0001C3.80566 6.1648 6.9148 3.05566 10.7501 3.05566C14.5854 3.05566 17.6946 6.1648 17.6946 10.0001Z" stroke="#374151" stroke-width="1.5" stroke-linecap="round" stroke-linejoin="round"/>
<path fill-rule="evenodd" clip-rule="evenodd" d="M9.9165 7.41569C9.9165 7.01485 10.2962 6.66675 10.7815 6.66675C11.2561 6.66675 11.6359 7.01485 11.6359 7.41569C11.6359 7.81657 11.2561 8.17521 10.7815 8.17521C10.2962 8.17521 9.9165 7.81657 9.9165 7.41569ZM9.96922 9.64148C9.96922 9.34613 10.3068 9.14566 10.7815 9.14566C11.2351 9.14566 11.6042 9.3461 11.6042 9.64142V13.6604C11.6042 13.9136 11.2351 14.1668 10.7815 14.1668C10.3068 14.1668 9.96922 13.9136 9.96922 13.6604V9.64148Z" fill="#374151"/>
</svg>
