<svg width="18" height="18" viewBox="0 0 18 18" fill="none" xmlns="http://www.w3.org/2000/svg">
<path d="M10.3538 6.33752C10.6969 6.31232 11.0497 6.32855 11.3939 6.3288L11.9975 6.32945C13.0227 6.33167 13.4172 6.67133 13.7762 7.59631L13.9855 8.15037C14.1354 8.55922 14.1981 8.69968 14.567 8.95461L15.0152 9.25138C15.7886 9.75642 15.7949 10.0865 15.7941 10.9891L15.7933 11.3499C15.7907 11.9958 15.2775 12.5372 14.6427 12.6305C14.625 12.781 14.6017 12.9346 14.5532 13.0787C14.057 14.5547 11.8019 14.2594 11.7364 12.6181C11.634 12.6039 11.5297 12.6074 11.4265 12.6072L9.51978 12.6069C9.53288 12.5557 9.53561 12.4996 9.54211 12.4488L10.188 7.37581L10.3538 6.33752ZM11.6112 7.47352C11.4652 7.52543 11.3165 7.63296 11.2474 7.77558L11.2364 7.79839C11.1542 7.96717 11.198 8.37734 11.1979 8.57188L11.1982 8.94462C11.1995 9.58129 11.5545 9.53274 12.0896 9.53347L13.0699 9.53561C13.547 9.46167 13.4839 9.11922 13.3632 8.77061L13.2132 8.33895C13.1436 8.13198 13.0951 7.90003 12.9942 7.70633C12.8281 7.38734 12.4929 7.47017 12.191 7.46997C11.9997 7.46986 11.8013 7.45833 11.6112 7.47352Z" fill="#F9DD4B"/>
<path d="M4.14072 12.6198L4.12691 12.6191C3.93487 12.6213 3.752 12.6076 3.57307 12.5312L3.48951 12.4944C2.39553 11.9757 2.79452 10.7293 2.94105 9.80347L3.55451 5.49106C3.63073 5.0675 3.94843 4.6839 4.35942 4.54525L4.47524 4.50908C4.56203 4.48562 4.65189 4.47609 4.74144 4.47229L8.36979 4.47417C8.67801 4.47434 8.98466 4.46678 9.29134 4.50213C10.0215 4.58628 10.4647 5.27461 10.3594 5.9803C10.3422 6.09519 10.2441 6.30098 10.3538 6.33754L10.188 7.37583L9.5421 12.4488C9.5356 12.4996 9.53287 12.5558 9.51977 12.6051L7.15116 12.6055L7.10715 12.8862C6.85051 13.8383 5.82096 14.3493 4.94099 13.8771C4.91039 13.8607 4.87681 13.8451 4.85141 13.821C4.82095 13.8159 4.76062 13.7638 4.73466 13.7437C4.35697 13.4511 4.19925 13.0812 4.14072 12.6198Z" fill="#FFF2B0"/>
<path d="M5.55042 9.03737L7.5195 9.03771C7.75707 9.03788 8.09502 8.99994 8.21335 9.26783C8.24035 9.32892 8.24741 9.4172 8.22412 9.48037L8.21534 9.50318C8.1263 9.72905 7.94191 9.76438 7.73123 9.7646L7.38937 9.76387L5.29214 9.76418C5.05083 9.7644 4.72891 9.7574 4.71485 9.42187C4.7011 9.09351 5.0175 9.03985 5.27445 9.03838L5.55042 9.03737Z" fill="#FEFEFE"/>
<path d="M8.38119 7.50751L8.74622 7.5043C8.81206 7.50368 8.8927 7.49581 8.95671 7.51226C9.16351 7.56547 9.2977 7.80479 9.23343 8.01016L9.22868 8.02442C9.06828 8.52164 8.4951 8.25662 8.11622 8.24635L5.68873 8.2439L5.24961 8.2441C5.17185 8.24402 5.08699 8.25099 5.01055 8.2364C4.69617 8.17632 4.5878 7.73259 4.88761 7.56784L4.90868 7.55659C5.05344 7.46993 5.28482 7.50782 5.44649 7.50782L8.38119 7.50751Z" fill="#FEFEFE"/>
<path d="M4.14075 12.6198V12.5545C4.14131 11.7181 4.83631 10.9994 5.68073 11.0026C6.54901 11.0059 7.15707 11.7684 7.1517 12.6049L7.10717 12.8862C6.85053 13.8382 5.82099 14.3492 4.94102 13.8771C4.91042 13.8607 4.87683 13.845 4.85144 13.821C4.82098 13.8158 4.76065 13.7638 4.73469 13.7437C4.357 13.451 4.19928 13.0812 4.14075 12.6198Z" fill="#F9DD4B"/>
</svg>
