<svg width="12" height="12" viewBox="0 0 12 12" fill="none" xmlns="http://www.w3.org/2000/svg">
<path d="M11.2162 5.85L10.3875 3.975C10.3585 3.9085 10.3108 3.85186 10.2502 3.81192C10.1897 3.77198 10.1188 3.75047 10.0463 3.75H8.04L8.16 2.66625C8.16591 2.61364 8.1606 2.56038 8.14445 2.50996C8.12829 2.45955 8.10164 2.41312 8.06625 2.37375C8.03119 2.3349 7.98839 2.30382 7.94059 2.28251C7.8928 2.2612 7.84108 2.25012 7.78875 2.25H2.625C2.52554 2.25 2.43016 2.28951 2.35984 2.35984C2.28951 2.43016 2.25 2.52554 2.25 2.625C2.25 2.72446 2.28951 2.81984 2.35984 2.89016C2.43016 2.96049 2.52554 3 2.625 3H4.5C4.59946 3 4.69484 3.03951 4.76516 3.10984C4.83549 3.18016 4.875 3.27554 4.875 3.375C4.875 3.47446 4.83549 3.56984 4.76516 3.64016C4.69484 3.71049 4.59946 3.75 4.5 3.75H1.875C1.77554 3.75 1.68016 3.78951 1.60984 3.85984C1.53951 3.93016 1.5 4.02554 1.5 4.125C1.5 4.22446 1.53951 4.31984 1.60984 4.39016C1.68016 4.46049 1.77554 4.5 1.875 4.5H5.625C5.72446 4.5 5.81984 4.53951 5.89016 4.60984C5.96049 4.68016 6 4.77554 6 4.875C6 4.97446 5.96049 5.06984 5.89016 5.14016C5.81984 5.21049 5.72446 5.25 5.625 5.25H3C2.90054 5.25 2.80516 5.28951 2.73484 5.35984C2.66451 5.43016 2.625 5.52554 2.625 5.625C2.625 5.72446 2.66451 5.81984 2.73484 5.89016C2.80516 5.96049 2.90054 6 3 6H4.5C4.59946 6 4.69484 6.03951 4.76516 6.10983C4.83549 6.18016 4.875 6.27554 4.875 6.375C4.875 6.47446 4.83549 6.56984 4.76516 6.64017C4.69484 6.71049 4.59946 6.75 4.5 6.75H1.5C1.40054 6.75 1.30516 6.78951 1.23483 6.85983C1.16451 6.93016 1.125 7.02554 1.125 7.125C1.125 7.22446 1.16451 7.31984 1.23483 7.39017C1.30516 7.46049 1.40054 7.5 1.5 7.5H2.25C2.34946 7.5 2.44484 7.53951 2.51516 7.60983C2.58549 7.68016 2.625 7.77554 2.625 7.875C2.625 7.97446 2.58549 8.06984 2.51516 8.14017C2.44484 8.21049 2.34946 8.25 2.25 8.25H1.875C1.77554 8.25 1.68016 8.28951 1.60984 8.35983C1.53951 8.43016 1.5 8.52554 1.5 8.625C1.5 8.72446 1.53951 8.81984 1.60984 8.89017C1.68016 8.96049 1.77554 9 1.875 9H2.94375C2.98424 9.15815 3.06131 9.30458 3.16875 9.4275C3.25979 9.52929 3.37135 9.61065 3.4961 9.66624C3.62084 9.72182 3.75593 9.75037 3.8925 9.75C4.12359 9.7434 4.34759 9.6687 4.53639 9.53527C4.72519 9.40184 4.87038 9.21563 4.95375 9H7.81875C7.85924 9.15815 7.93631 9.30458 8.04375 9.4275C8.13479 9.52929 8.24635 9.61065 8.3711 9.66624C8.49584 9.72182 8.63093 9.75037 8.7675 9.75C8.99859 9.7434 9.22259 9.6687 9.41139 9.53527C9.60019 9.40184 9.74538 9.21563 9.82875 9H10.5787C10.6715 9.00056 10.7611 8.96676 10.8303 8.90513C10.8996 8.8435 10.9436 8.75839 10.9537 8.66625L11.2425 6.04125C11.2528 5.97631 11.2436 5.90977 11.2162 5.85ZM3.8925 9C3.8614 9.00134 3.83041 8.99563 3.80183 8.98329C3.77326 8.97095 3.74784 8.95231 3.7275 8.92875C3.69806 8.89233 3.67653 8.85019 3.66426 8.805C3.65199 8.7598 3.64927 8.71255 3.65625 8.66625C3.66583 8.56096 3.71129 8.46216 3.78501 8.38638C3.85874 8.31061 3.95626 8.26246 4.06125 8.25C4.09235 8.24866 4.12334 8.25437 4.15192 8.26671C4.18049 8.27905 4.20591 8.29769 4.22625 8.32125C4.25569 8.35767 4.27722 8.39981 4.28949 8.445C4.30176 8.4902 4.30448 8.53745 4.2975 8.58375C4.28792 8.68904 4.24246 8.78784 4.16874 8.86362C4.09501 8.93939 3.99749 8.98754 3.8925 9ZM8.7675 9C8.7364 9.00134 8.70541 8.99563 8.67683 8.98329C8.64826 8.97095 8.62284 8.95231 8.6025 8.92875C8.57306 8.89233 8.55153 8.85019 8.53926 8.805C8.52699 8.7598 8.52427 8.71255 8.53125 8.66625C8.54083 8.56096 8.58629 8.46216 8.66001 8.38638C8.73374 8.31061 8.83126 8.26246 8.93625 8.25C8.96735 8.24866 8.99834 8.25437 9.02692 8.26671C9.05549 8.27905 9.08091 8.29769 9.10125 8.32125C9.13069 8.35767 9.15222 8.39981 9.16449 8.445C9.17676 8.4902 9.17948 8.53745 9.1725 8.58375C9.16292 8.68904 9.11746 8.78784 9.04374 8.86362C8.97001 8.93939 8.87249 8.98754 8.7675 9ZM10.455 6.375H8.7975C8.74517 6.37488 8.69345 6.3638 8.64566 6.34249C8.59786 6.32118 8.55506 6.2901 8.52 6.25125C8.48461 6.21187 8.45796 6.16545 8.4418 6.11504C8.42565 6.06462 8.42034 6.01136 8.42625 5.95875L8.55 4.83375C8.56105 4.74228 8.60539 4.65809 8.67456 4.59722C8.74372 4.53636 8.83287 4.50308 8.925 4.50375H9.79875L10.5 6.06L10.455 6.375Z" fill="white"/>
<path d="M1.5 6C1.59946 6 1.69484 5.96049 1.76516 5.89016C1.83549 5.81984 1.875 5.72446 1.875 5.625C1.875 5.52554 1.83549 5.43016 1.76516 5.35984C1.69484 5.28951 1.59946 5.25 1.5 5.25H1.125C1.02554 5.25 0.930161 5.28951 0.859835 5.35984C0.789509 5.43016 0.75 5.52554 0.75 5.625C0.75 5.72446 0.789509 5.81984 0.859835 5.89016C0.930161 5.96049 1.02554 6 1.125 6H1.5Z" fill="white"/>
</svg>
