<svg width="27" height="27" viewBox="0 0 27 27" fill="none" xmlns="http://www.w3.org/2000/svg">
<path d="M15.9689 10.1627C16.33 9.62343 16.969 9.58314 17.5555 9.58289L18.3179 9.59516C19.3924 9.73109 20.1391 10.3793 20.8448 11.1284L21.4695 11.7768C21.9707 12.2888 22.4907 12.7879 22.936 13.3508C23.5999 14.1902 23.6654 14.8024 23.6652 15.8064C23.665 16.5183 23.7315 17.1905 23.0996 17.6795C22.7841 17.9237 22.4054 17.9659 22.0194 17.9605C21.9952 17.9602 21.9764 17.9486 21.9726 17.9734C21.4672 21.3369 17.55 20.8652 17.2414 18.013L14.2987 17.9968L13.9125 17.997L13.8296 17.9775C13.8613 17.9514 13.9162 17.9404 13.955 17.9271L14.2301 17.8322C14.2492 17.8067 14.397 17.7582 14.4357 17.7396C15.2858 17.3314 15.8541 16.428 15.958 15.5039C15.9906 15.2145 15.9711 14.9067 15.9712 14.6147L15.9707 13.3476L15.9689 10.1627ZM18.9967 11.1178C18.3169 11.2184 18.4054 11.7453 18.405 12.2649C18.4044 12.9367 18.3564 13.5351 19.1621 13.782C19.3278 13.8328 19.5672 13.805 19.7421 13.8054L20.737 13.8118C21.0791 13.7853 21.4063 13.4872 21.3069 13.1177L21.302 13.0986C21.2134 12.7823 20.4232 12.1272 20.1745 11.8862C19.8302 11.5526 19.534 11.0906 18.9967 11.1178Z" fill="#232323"/>
<path d="M5.08407 9.2228L5.51919 9.21816C5.67596 8.57522 6.11218 7.99358 6.67698 7.64959C7.43792 7.1862 8.27952 7.22438 9.13605 7.22391L12.5781 7.22155C13.0601 7.22067 13.5727 7.17827 14.0441 7.29483C15.1927 7.57896 15.9339 8.48338 15.9391 9.66053C15.9398 9.81971 15.9244 10.0089 15.969 10.1627L15.9711 13.3475L15.9712 14.6147C15.9711 14.9067 15.9905 15.2145 15.958 15.5039C15.8541 16.428 15.2858 17.3313 14.4356 17.7396C14.397 17.7582 14.2492 17.8067 14.2301 17.8322L13.9549 17.9271C13.9162 17.9404 13.8613 17.9513 13.8296 17.9774L13.9125 17.9958L12.2994 17.9668C12.3005 18.1272 12.3003 18.2982 12.2683 18.4682C11.9463 20.1801 9.73376 20.9686 8.46493 19.677C8.14734 19.3537 7.7936 18.7695 7.7731 18.2952L7.75032 18.1314L7.74188 18.0787C7.72606 17.9932 7.61447 18.0367 7.54761 18.0341C7.07718 18.0158 6.56928 17.8398 6.18208 17.5803C5.24755 16.9538 5.06184 15.9213 5.06277 14.8706L5.06365 13.4086C5.06429 13.2345 5.06175 13.0486 5.09542 12.8776L5.11698 12.7403C5.12293 12.6958 5.13284 12.6758 5.16423 12.6439L5.17326 12.6351C5.07403 12.6191 4.96814 12.6307 4.86681 12.6194L4.85019 12.6175L4.42312 12.614C4.33697 12.6131 4.24015 12.6175 4.1566 12.597L4.13966 12.5925C3.64611 12.4646 3.71192 11.7634 4.23745 11.6783C4.51412 11.6354 4.80407 11.6968 5.07568 11.6568C5.0472 11.2519 5.14107 10.6095 5.22717 10.2239C5.27025 10.2131 5.3053 10.1928 5.30805 10.1448C5.25485 10.1439 5.19878 10.1459 5.14676 10.1339L5.12082 10.1275L3.80451 10.1197C3.71738 10.1188 3.6309 10.1226 3.55063 10.0831L3.53322 10.0744C3.18324 9.90855 3.16831 9.35088 3.55081 9.22811L3.56618 9.22356C3.68455 9.18749 3.87337 9.21879 3.99916 9.21938L5.08407 9.2228Z" fill="#F6F6F6"/>
<path d="M5.12082 10.1221L3.80451 10.1197C3.71738 10.1188 3.6309 10.1226 3.55063 10.0831L3.53322 10.0744C3.18324 9.90857 3.16831 9.3509 3.55081 9.22813L3.56618 9.22358C3.68455 9.18751 3.87337 9.21881 3.99916 9.2194L5.08407 9.22282L6.57784 9.22526C6.67572 9.22569 6.77861 9.22341 6.87387 9.248L6.89083 9.25214C7.25896 9.34875 7.19538 10.0496 6.69681 10.111C6.33679 10.1553 5.49586 10.1425 5.12082 10.1221Z" fill="#F9DD4B"/>
<path d="M4.23753 11.6783L11.1712 11.6583C11.414 11.6583 11.795 11.5968 12.014 11.7287L12.0324 11.7395C12.382 11.9519 12.3576 12.4703 11.9576 12.5912L11.9367 12.5978C11.8435 12.6247 11.739 12.6161 11.6426 12.6156L9.91819 12.613L4.85026 12.6151L4.42319 12.614C4.33705 12.6131 4.24023 12.6175 4.15667 12.597L4.13974 12.5925C3.64618 12.4646 3.71199 11.7634 4.23753 11.6783Z" fill="#F9DD4B"/>
<path d="M9.45745 15.818C10.7632 15.462 12.1514 16.4064 12.2792 17.7352C12.2859 17.8056 12.2837 17.8868 12.2995 17.955C12.3006 18.1272 12.3003 18.2982 12.2684 18.4682C11.9463 20.1802 9.73382 20.9686 8.46499 19.677C8.1474 19.3537 7.79366 18.7695 7.77316 18.2953L7.75038 18.1314C7.74709 17.1135 8.44706 16.0762 9.45745 15.818Z" fill="#232323"/>
</svg>
