<svg width="39" height="39" viewBox="0 0 39 39" fill="none" xmlns="http://www.w3.org/2000/svg">
<path d="M36.7733 19.5555C36.7733 9.93649 28.9756 2.13879 19.3566 2.13879C9.73764 2.13879 1.93994 9.93649 1.93994 19.5555C1.93994 28.2485 8.30893 35.454 16.6353 36.7605V24.59H12.2131V19.5555H16.6353V15.7184C16.6353 11.3533 19.2355 8.94218 23.2138 8.94218C25.1187 8.94218 27.1125 9.28235 27.1125 9.28235V13.5685H24.9163C22.7529 13.5685 22.078 14.9111 22.078 16.2898V19.5555H26.9084L26.1362 24.59H22.078V36.7605C30.4043 35.454 36.7733 28.2485 36.7733 19.5555Z" fill="#1877F2"/>
<path d="M26.1362 24.59L26.9084 19.5555H22.078V16.2898C22.078 14.9125 22.7529 13.5685 24.9163 13.5685H27.1125V9.28235C27.1125 9.28235 25.1187 8.94218 23.2138 8.94218C19.2355 8.94218 16.6353 11.3533 16.6353 15.7184V19.5555H12.2131V24.59H16.6353V36.7605C18.4385 37.0427 20.2747 37.0427 22.078 36.7605V24.59H26.1362Z" fill="white"/>
</svg>
