<svg width="24" height="25" viewBox="0 0 24 25" fill="currentColor" xmlns="http://www.w3.org/2000/svg">
<path d="M17.9263 11.1249C17.5847 11.1249 17.3076 11.4019 17.3076 11.7436V19.2855C17.3076 20.4604 16.3513 21.4167 15.1763 21.4167H5.1251C3.95016 21.4167 2.99385 20.4604 2.99385 19.2855V7.1793C2.99385 6.00436 3.95016 5.04805 5.1251 5.04805H11.8763C12.218 5.04805 12.4951 4.77098 12.4951 4.4293C12.4951 4.08761 12.218 3.81055 11.8763 3.81055H5.1251C3.26747 3.81055 1.75635 5.32167 1.75635 7.1793V19.2862C1.75635 21.1438 3.26747 22.6549 5.1251 22.6549H15.1763C17.034 22.6549 18.5451 21.1438 18.5451 19.2862V11.7443C18.5451 11.4019 18.268 11.1249 17.9263 11.1249Z" fill="currentColor"/>
<path d="M14.0145 12.8993H9.42954C9.08785 12.8993 8.81079 13.1764 8.81079 13.518C8.81079 13.8597 9.08785 14.1368 9.42954 14.1368H14.0145C14.3562 14.1368 14.6332 13.8597 14.6332 13.518C14.6332 13.1764 14.3562 12.8993 14.0145 12.8993Z" fill="currentColor"/>
<path d="M6.78478 12.8993H6.28428C5.94259 12.8993 5.66553 13.1764 5.66553 13.518C5.66553 13.8597 5.94259 14.1368 6.28428 14.1368H6.78547C7.12715 14.1368 7.40421 13.8597 7.40421 13.518C7.40421 13.1764 7.12646 12.8993 6.78478 12.8993Z" fill="currentColor"/>
<path d="M14.0145 9.79932H9.42954C9.08785 9.79932 8.81079 10.0764 8.81079 10.4181C8.81079 10.7598 9.08785 11.0368 9.42954 11.0368H14.0145C14.3562 11.0368 14.6332 10.7598 14.6332 10.4181C14.6332 10.0764 14.3562 9.79932 14.0145 9.79932Z" fill="currentColor"/>
<path d="M6.78478 9.79932H6.28428C5.94259 9.79932 5.66553 10.0764 5.66553 10.4181C5.66553 10.7598 5.94259 11.0368 6.28428 11.0368H6.78547C7.12715 11.0368 7.40421 10.7598 7.40421 10.4181C7.40421 10.0764 7.12646 9.79932 6.78478 9.79932Z" fill="currentColor"/>
<path d="M14.0145 15.9992H9.42954C9.08785 15.9992 8.81079 16.2763 8.81079 16.618C8.81079 16.9596 9.08785 17.2367 9.42954 17.2367H14.0145C14.3562 17.2367 14.6332 16.9596 14.6332 16.618C14.6332 16.2763 14.3562 15.9992 14.0145 15.9992Z" fill="currentColor"/>
<path d="M6.78478 15.9992H6.28428C5.94259 15.9992 5.66553 16.2763 5.66553 16.618C5.66553 16.9596 5.94259 17.2367 6.28428 17.2367H6.78547C7.12715 17.2367 7.40421 16.9596 7.40421 16.618C7.40421 16.2763 7.12646 15.9992 6.78478 15.9992Z" fill="currentColor"/>
<path d="M21.4629 3.23577C20.497 2.27052 18.9673 2.20315 17.9236 3.03502C16.8793 2.20246 15.3483 2.27052 14.3823 3.23646C13.3449 4.27459 13.3449 5.96309 14.3823 7.00052L16.9254 9.54359C17.2004 9.81859 17.562 9.95677 17.9236 9.95677C18.2853 9.95677 18.6469 9.81927 18.9219 9.54359L21.465 7.00052C22.5017 5.96377 22.5017 4.27527 21.4629 3.23577ZM20.5898 6.12602L18.0467 8.66909C17.9786 8.73715 17.868 8.73715 17.8006 8.66909L15.2575 6.12602C14.7027 5.57052 14.7027 4.66715 15.2589 4.11027C15.5366 3.83321 15.901 3.69434 16.2661 3.69434C16.6298 3.69434 16.9941 3.83252 17.2712 4.1089L17.4864 4.32409C17.7277 4.56609 18.1196 4.56609 18.3602 4.32409L18.5754 4.10959C19.1309 3.55684 20.0343 3.55684 20.5891 4.11234C21.1446 4.66784 21.1446 5.57121 20.5898 6.12602Z" fill="currentColor"/>
</svg>
