<svg width="44" height="44" viewBox="0 0 44 44" fill="none" xmlns="http://www.w3.org/2000/svg">
<path d="M27.1228 6.25306V22.3558C27.1228 24.3239 25.5125 25.9342 23.5444 25.9342H3.86328V11.6206C3.86328 7.66652 7.06594 4.46387 11.0201 4.46387H25.3336C26.3177 4.46387 27.1228 5.269 27.1228 6.25306Z" fill="#429DF8"/>
<path opacity="0.4" d="M39.6472 25.9348V31.3024C39.6472 34.2724 37.2496 36.6699 34.2796 36.6699H32.4904C32.4904 34.7018 30.8801 33.0915 28.912 33.0915C26.9439 33.0915 25.3336 34.7018 25.3336 36.6699H18.1768C18.1768 34.7018 16.5666 33.0915 14.5984 33.0915C12.6303 33.0915 11.0201 34.7018 11.0201 36.6699H9.23086C6.2608 36.6699 3.86328 34.2724 3.86328 31.3024V25.9348H23.5444C25.5125 25.9348 27.1228 24.3245 27.1228 22.3564V9.83203H30.4149C31.7031 9.83203 32.884 10.5298 33.5281 11.6391L36.5876 16.9888H34.2796C33.2955 16.9888 32.4904 17.7939 32.4904 18.778V24.1456C32.4904 25.1296 33.2955 25.9348 34.2796 25.9348H39.6472Z" fill="#429DF8"/>
<path d="M14.5989 40.2476C16.5752 40.2476 18.1773 38.6455 18.1773 36.6692C18.1773 34.6929 16.5752 33.0908 14.5989 33.0908C12.6226 33.0908 11.0205 34.6929 11.0205 36.6692C11.0205 38.6455 12.6226 40.2476 14.5989 40.2476Z" fill="#429DF8"/>
<path d="M28.9124 40.2476C30.8887 40.2476 32.4908 38.6455 32.4908 36.6692C32.4908 34.6929 30.8887 33.0908 28.9124 33.0908C26.9361 33.0908 25.334 34.6929 25.334 36.6692C25.334 38.6455 26.9361 40.2476 28.9124 40.2476Z" fill="#429DF8"/>
<path d="M39.647 23.3042V25.9342H34.2794C33.2954 25.9342 32.4902 25.1291 32.4902 24.1451V18.7775C32.4902 17.7934 33.2954 16.9883 34.2794 16.9883H36.5875L39.1818 21.5328C39.486 22.0696 39.647 22.678 39.647 23.3042Z" fill="#429DF8"/>
</svg>
