<svg width="190" height="25" viewBox="0 0 190 25" fill="none" xmlns="http://www.w3.org/2000/svg">
<path d="M0.5 4.06299C0.5 2.12999 2.067 0.562988 4 0.562988H30C31.933 0.562988 33.5 2.12999 33.5 4.06299V20.063C33.5 21.996 31.933 23.563 30 23.563H4C2.067 23.563 0.5 21.996 0.5 20.063V4.06299Z" fill="white"/>
<path d="M0.5 4.06299C0.5 2.12999 2.067 0.562988 4 0.562988H30C31.933 0.562988 33.5 2.12999 33.5 4.06299V20.063C33.5 21.996 31.933 23.563 30 23.563H4C2.067 23.563 0.5 21.996 0.5 20.063V4.06299Z" stroke="#E4E7EC"/>
<path d="M16.5183 12.563H4L4 16.602H16.5183V12.563Z" fill="#80BC00"/>
<path d="M16.5193 7.06299L4.00098 7.06299V11.102H16.5193V7.06299Z" fill="#00A0DF"/>
<path d="M26.7655 11.9468L26.6914 11.9582V13.0136L26.6286 12.9965H26.6115C26.543 12.9679 26.3719 12.9223 26.2064 12.9223C25.3222 12.9223 25.1396 13.5898 25.1396 14.1488C25.1396 14.919 25.5675 15.3582 26.3205 15.3582C26.64 15.3582 26.8739 15.324 27.1135 15.2498C27.3303 15.1814 27.4102 15.0787 27.4102 14.8676V11.8384C27.1991 11.8783 26.9766 11.9125 26.7655 11.9468ZM26.6914 14.7935H26.6514C26.5145 14.8277 26.4575 14.8391 26.3548 14.8391C26.1209 14.8391 25.8356 14.7193 25.8356 14.1488C25.8356 13.8522 25.887 13.4642 26.3262 13.4642C26.4004 13.4642 26.486 13.4757 26.6514 13.527L26.6856 13.5384V14.7992L26.6914 14.7935Z" fill="black"/>
<path d="M29.013 12.9106C28.7391 12.9106 28.4596 12.9563 28.1116 13.0647L27.8834 13.1331L27.9576 13.6466L28.1801 13.5724C28.414 13.4982 28.6992 13.4469 28.916 13.4469C29.013 13.4469 29.3096 13.4469 29.3096 13.7664V13.909H28.8989C28.1458 13.909 27.7979 14.1486 27.7979 14.662C27.7979 15.1013 28.1173 15.3637 28.6593 15.3637C28.8247 15.3637 29.0586 15.3352 29.2583 15.2838H29.2811L29.3496 15.2952C29.5606 15.3352 29.7774 15.3694 29.9885 15.415V13.7321C29.9885 13.1902 29.6576 12.9106 29.013 12.9106ZM29.321 14.816L29.2811 14.8275L29.1442 14.8617C29.0187 14.8959 28.9046 14.913 28.819 14.913C28.6136 14.913 28.4881 14.8103 28.4881 14.6392C28.4881 14.5251 28.5395 14.3368 28.876 14.3368H29.3153V14.8218L29.321 14.816Z" fill="black"/>
<path d="M23.7766 12.911C23.5028 12.911 23.2233 12.9566 22.8753 13.065L22.6471 13.1335L22.7213 13.6469L22.9437 13.5727C23.1776 13.4986 23.4629 13.4472 23.6797 13.4472C23.7766 13.4472 24.0733 13.4472 24.0733 13.7667V13.9093H23.6625C22.9095 13.9093 22.5615 14.1489 22.5615 14.6623C22.5615 15.1016 22.881 15.364 23.4229 15.364C23.5941 15.364 23.8223 15.3355 24.0219 15.2842H24.0448L24.1132 15.2956C24.3243 15.3298 24.5411 15.3697 24.7522 15.4097V13.7268C24.7522 13.1848 24.427 12.9053 23.7766 12.9053V12.911ZM24.0847 14.8107L24.0505 14.8221L23.9136 14.8563C23.7881 14.8905 23.674 14.9077 23.5884 14.9077C23.383 14.9077 23.2575 14.805 23.2575 14.6338C23.2575 14.5197 23.3088 14.3315 23.6454 14.3315H24.0847V14.8164V14.8107Z" fill="black"/>
<path d="M21.2429 12.9163C20.9006 12.9163 20.6154 13.0304 20.5127 13.0818L20.4841 13.0932L20.4613 13.0761C20.3187 12.9677 20.1019 12.9163 19.8053 12.9163C19.5429 12.9163 19.2976 12.9506 19.0294 13.0304C18.8012 13.0989 18.71 13.2073 18.71 13.4184V15.3409H19.4288V13.5667L19.463 13.5553C19.6113 13.5096 19.6912 13.4982 19.7768 13.4982C19.9821 13.4982 20.0905 13.6066 20.0905 13.8234V15.3409H20.7979V13.7892C20.7979 13.6979 20.7808 13.6409 20.7751 13.6352L20.7523 13.5895L20.7979 13.5667C20.9063 13.5211 21.0261 13.4925 21.1459 13.4925C21.2885 13.4925 21.4597 13.5496 21.4597 13.8177V15.3352H22.1671V13.7435C22.1671 13.1845 21.8647 12.9106 21.2372 12.9106" fill="black"/>
<path d="M28.7906 8.26141C28.7906 8.26141 28.7792 8.26141 28.7735 8.26141C28.3627 8.26141 27.9349 8.37551 27.7866 8.59799C27.7067 8.70638 27.661 8.8433 27.6553 9.00303V10.0698C27.6553 10.1611 27.6382 10.1953 27.6325 10.2067L27.6097 10.2524H26.309V9.50505C26.2919 8.7235 25.8298 8.28993 25.1566 8.28993H24.5006C24.4721 8.4839 24.455 8.61511 24.4264 8.80336H25.0768C25.4191 8.80336 25.6016 9.09431 25.6016 9.54499V10.2923L25.556 10.2695C25.556 10.2695 25.4932 10.2467 25.4019 10.2467H24.2781C24.2553 10.3893 24.2268 10.5718 24.1982 10.7601H27.6611C27.7751 10.7373 27.9178 10.7145 28.0376 10.6916C28.2144 10.7772 28.5396 10.8229 28.7621 10.8229C29.5151 10.8229 30 10.3208 30 9.53928C30 8.75773 29.5265 8.26711 28.7963 8.25L28.7906 8.26141ZM28.7963 10.2239C28.6936 10.2239 28.5168 10.2124 28.3798 10.1839H28.3399V9.13995C28.3399 9.05437 28.3228 9.00303 28.3171 8.99162L28.2943 8.94598L28.3399 8.92887C28.3399 8.92887 28.3627 8.92317 28.3742 8.91746H28.3798C28.3798 8.91746 28.4141 8.90035 28.4255 8.90035H28.4483C28.608 8.849 28.7507 8.85471 28.8191 8.849C29.2584 8.849 29.3097 9.24263 29.3097 9.53358C29.3097 10.1098 29.0302 10.2296 28.7906 10.2296" fill="black"/>
<path d="M22.7149 11.0738H22.7491C23.5021 11.0738 23.8501 10.8228 23.8501 10.2124C23.8501 9.77313 23.5307 9.41943 22.9887 9.41943H22.2927C22.0874 9.41943 21.9618 9.29963 21.9618 9.09996C21.9618 8.96305 22.0132 8.79761 22.3498 8.79761H23.8616C23.8958 8.60365 23.9129 8.47814 23.9414 8.28418H22.3669C21.631 8.28418 21.2659 8.59224 21.2659 9.10567C21.2659 9.6191 21.5853 9.87582 22.1273 9.87582H22.8233C23.0287 9.87582 23.1541 10.0413 23.1541 10.2124C23.1541 10.3265 23.1028 10.5604 22.7662 10.5604H20.0279C19.6856 10.5604 19.446 10.3607 19.446 9.91575V9.60199C19.446 9.13419 19.6343 8.84325 20.0279 8.84325H20.6897C20.7182 8.64358 20.741 8.51808 20.7638 8.32982H19.8682C19.195 8.32982 18.7329 8.7805 18.7158 9.56205V9.91005C18.7329 10.6973 19.195 11.0681 19.8682 11.0681H22.7149V11.0738Z" fill="black"/>
<path d="M39.5 4.06299C39.5 2.12999 41.067 0.562988 43 0.562988H69C70.933 0.562988 72.5 2.12999 72.5 4.06299V20.063C72.5 21.996 70.933 23.563 69 23.563H43C41.067 23.563 39.5 21.996 39.5 20.063V4.06299Z" fill="white"/>
<path d="M39.5 4.06299C39.5 2.12999 41.067 0.562988 43 0.562988H69C70.933 0.562988 72.5 2.12999 72.5 4.06299V20.063C72.5 21.996 70.933 23.563 69 23.563H43C41.067 23.563 39.5 21.996 39.5 20.063V4.06299Z" stroke="#E4E7EC"/>
<path d="M67.6619 9.68927L65.9533 16.215V16.2356H67.2914L69 9.70986H67.6619V9.68927ZM46.5408 13.3947C46.335 13.4977 46.1291 13.5388 45.9026 13.5388C45.4292 13.5388 45.1616 13.4565 45.1204 13.0654V13.0448C45.1204 13.0242 45.1204 13.0242 45.1204 13.0036V11.8714V11.7479V10.945V10.6156V10.4921V9.73045L43.9264 9.87455C44.7293 9.70986 45.1821 9.09228 45.1821 8.45412V8.06299H43.8441V9.89513L43.7617 9.91572V13.2918C43.8029 14.2388 44.4411 14.8152 45.4498 14.8152C45.8203 14.8152 46.2114 14.7328 46.5202 14.5887L46.5408 13.3947Z" fill="#292929"/>
<path d="M46.7466 9.44203L43 10.0184V10.9654L46.7466 10.389V9.44203ZM46.7466 10.8419L43 11.4183V12.324L46.7466 11.7476V10.8419ZM50.9461 11.2742C50.8844 10.2243 50.2256 9.58613 49.1552 9.58613C48.5376 9.58613 48.023 9.83316 47.673 10.286C47.323 10.7389 47.1378 11.3977 47.1378 12.2005C47.1378 13.0034 47.323 13.6621 47.673 14.115C48.023 14.5679 48.5376 14.7944 49.1552 14.7944C50.2256 14.7944 50.8844 14.1768 50.9461 13.1063V14.6914H52.2842V9.70964L50.9461 9.9155V11.2742ZM51.0285 12.2005C51.0285 13.1269 50.5344 13.7445 49.7728 13.7445C48.9905 13.7445 48.517 13.1681 48.517 12.2005C48.517 11.233 48.9905 10.6566 49.7728 10.6566C50.1433 10.6566 50.4727 10.8007 50.6991 11.0889C50.905 11.3565 51.0285 11.7476 51.0285 12.2005ZM56.175 9.58613C55.1045 9.58613 54.4457 10.2037 54.384 11.2742V8.24805L53.0459 8.45391V14.6914H54.384V13.1063C54.4457 14.1768 55.1045 14.7944 56.175 14.7944C57.4307 14.7944 58.1924 13.8268 58.1924 12.2005C58.1924 10.5743 57.4307 9.58613 56.175 9.58613ZM55.578 13.7445C54.8163 13.7445 54.3222 13.1475 54.3222 12.2005C54.3222 11.7476 54.4457 11.3565 54.6516 11.0889C54.878 10.8007 55.1868 10.6566 55.578 10.6566C56.3602 10.6566 56.8337 11.233 56.8337 12.2005C56.8337 13.1681 56.3602 13.7445 55.578 13.7445ZM61.8155 9.58613C60.745 9.58613 60.0863 10.2037 60.0245 11.2742V8.24805L58.6864 8.45391V14.6914H60.0245V13.1063C60.0863 14.1768 60.745 14.7944 61.8155 14.7944C63.0712 14.7944 63.8329 13.8268 63.8329 12.2005C63.8329 10.5743 63.0712 9.58613 61.8155 9.58613ZM61.2185 13.7445C60.4568 13.7445 59.9628 13.1475 59.9628 12.2005C59.9628 11.7476 60.0863 11.3565 60.2921 11.0889C60.5186 10.8007 60.8274 10.6566 61.2185 10.6566C62.0008 10.6566 62.4742 11.233 62.4742 12.2005C62.4742 13.1681 62.0008 13.7445 61.2185 13.7445ZM63.8329 9.68906H65.2533L66.4061 14.6914H65.1298L63.8329 9.68906Z" fill="#292929"/>
<path d="M78.5 4.06299C78.5 2.12999 80.067 0.562988 82 0.562988H108C109.933 0.562988 111.5 2.12999 111.5 4.06299V20.063C111.5 21.996 109.933 23.563 108 23.563H82C80.067 23.563 78.5 21.996 78.5 20.063V4.06299Z" fill="white"/>
<path d="M78.5 4.06299C78.5 2.12999 80.067 0.562988 82 0.562988H108C109.933 0.562988 111.5 2.12999 111.5 4.06299V20.063C111.5 21.996 109.933 23.563 108 23.563H82C80.067 23.563 78.5 21.996 78.5 20.063V4.06299Z" stroke="#E4E7EC"/>
<path fill-rule="evenodd" clip-rule="evenodd" d="M95.179 16.8624C93.9949 17.8605 92.459 18.463 90.7807 18.463C87.0358 18.463 84 15.4633 84 11.763C84 8.06268 87.0358 5.06299 90.7807 5.06299C92.459 5.06299 93.9949 5.66549 95.179 6.66353C96.363 5.66549 97.8989 5.06299 99.5773 5.06299C103.322 5.06299 106.358 8.06268 106.358 11.763C106.358 15.4633 103.322 18.463 99.5773 18.463C97.8989 18.463 96.363 17.8605 95.179 16.8624Z" fill="#ED0006"/>
<path fill-rule="evenodd" clip-rule="evenodd" d="M95.1787 16.8624C96.6366 15.6335 97.5611 13.8049 97.5611 11.763C97.5611 9.72103 96.6366 7.89243 95.1787 6.66353C96.3628 5.66549 97.8987 5.06299 99.577 5.06299C103.322 5.06299 106.358 8.06268 106.358 11.763C106.358 15.4633 103.322 18.463 99.577 18.463C97.8987 18.463 96.3628 17.8605 95.1787 16.8624Z" fill="#F9A000"/>
<path fill-rule="evenodd" clip-rule="evenodd" d="M95.1793 16.8624C96.6372 15.6335 97.5616 13.805 97.5616 11.763C97.5616 9.72107 96.6372 7.89248 95.1793 6.66357C93.7213 7.89248 92.7969 9.72107 92.7969 11.763C92.7969 13.805 93.7213 15.6335 95.1793 16.8624Z" fill="#FF5E00"/>
<path d="M117.5 4.06299C117.5 2.12999 119.067 0.562988 121 0.562988H147C148.933 0.562988 150.5 2.12999 150.5 4.06299V20.063C150.5 21.996 148.933 23.563 147 23.563H121C119.067 23.563 117.5 21.996 117.5 20.063V4.06299Z" fill="white"/>
<path d="M117.5 4.06299C117.5 2.12999 119.067 0.562988 121 0.562988H147C148.933 0.562988 150.5 2.12999 150.5 4.06299V20.063C150.5 21.996 148.933 23.563 147 23.563H121C119.067 23.563 117.5 21.996 117.5 20.063V4.06299Z" stroke="#E4E7EC"/>
<path fill-rule="evenodd" clip-rule="evenodd" d="M127.95 15.8212H125.891L124.346 9.75536C124.273 9.47633 124.117 9.22965 123.888 9.11339C123.317 8.82122 122.687 8.58869 122 8.47142V8.23788H125.318C125.776 8.23788 126.119 8.58869 126.177 8.99612L126.978 13.3716L129.037 8.23788H131.039L127.95 15.8212ZM132.184 15.8212H130.239L131.841 8.23788H133.786L132.184 15.8212ZM136.303 10.3387C136.36 9.93027 136.703 9.69673 137.104 9.69673C137.734 9.63809 138.42 9.75537 138.992 10.0465L139.336 8.4138C138.763 8.18026 138.133 8.06299 137.562 8.06299C135.674 8.06299 134.3 9.1134 134.3 10.5712C134.3 11.6803 135.273 12.2626 135.96 12.6134C136.703 12.9632 136.99 13.1967 136.932 13.5465C136.932 14.0712 136.36 14.3048 135.789 14.3048C135.102 14.3048 134.415 14.1299 133.786 13.8377L133.443 15.4714C134.129 15.7626 134.873 15.8799 135.56 15.8799C137.677 15.9375 138.992 14.8881 138.992 13.313C138.992 11.3295 136.303 11.2132 136.303 10.3387ZM145.8 15.8212L144.255 8.23788H142.596C142.253 8.23788 141.909 8.47142 141.795 8.82122L138.935 15.8212H140.937L141.337 14.7132H143.798L144.026 15.8212H145.8ZM142.883 10.2801L143.454 13.1381H141.852L142.883 10.2801Z" fill="#172B85"/>
<path d="M156.5 4.06299C156.5 2.12999 158.067 0.562988 160 0.562988H186C187.933 0.562988 189.5 2.12999 189.5 4.06299V20.063C189.5 21.996 187.933 23.563 186 23.563H160C158.067 23.563 156.5 21.996 156.5 20.063V4.06299Z" fill="white"/>
<path d="M156.5 4.06299C156.5 2.12999 158.067 0.562988 160 0.562988H186C187.933 0.562988 189.5 2.12999 189.5 4.06299V20.063C189.5 21.996 187.933 23.563 186 23.563H160C158.067 23.563 156.5 21.996 156.5 20.063V4.06299Z" stroke="#E4E7EC"/>
<g clip-path="url(#clip0_7667_47714)">
<path d="M162.532 15.6239C163.219 15.6484 163.889 15.4113 164.403 14.9619C164.569 14.8009 164.701 14.6085 164.789 14.3961C164.878 14.1837 164.922 13.9559 164.919 13.7263C164.921 13.5122 164.88 13.2999 164.797 13.1017C164.715 12.9034 164.594 12.7232 164.44 12.5716C164.076 12.2348 163.617 12.0142 163.123 11.939L162.199 11.7625C161.825 11.689 161.601 11.5014 161.601 11.244C161.601 10.902 161.938 10.6666 162.476 10.6666C162.777 10.6552 163.07 10.7609 163.292 10.9608C163.416 11.0942 163.495 11.2628 163.516 11.4426L164.848 11.1484C164.805 10.7754 164.63 10.429 164.354 10.1702C163.846 9.70882 163.175 9.46074 162.484 9.47882C161.839 9.4589 161.211 9.67666 160.722 10.0893C160.544 10.2514 160.402 10.4482 160.305 10.6673C160.208 10.8864 160.159 11.1229 160.161 11.3617C160.154 11.5612 160.189 11.7599 160.263 11.9458C160.337 12.1316 160.448 12.3008 160.591 12.4429C160.942 12.7622 161.375 12.9799 161.844 13.0717L162.753 13.285C163.209 13.388 163.411 13.5535 163.411 13.8477C163.411 14.2154 163.078 14.425 162.529 14.425C162.359 14.4331 162.189 14.407 162.031 14.3482C161.872 14.2893 161.727 14.1991 161.605 14.083C161.459 13.9386 161.373 13.7457 161.365 13.5424L160 13.8366C160.042 14.2315 160.225 14.5989 160.516 14.8737C160.785 15.1222 161.101 15.3153 161.447 15.4416C161.792 15.568 162.16 15.6249 162.529 15.6092L162.532 15.6239ZM172.628 15.6092C173.002 15.6194 173.374 15.5567 173.723 15.4248C174.073 15.2929 174.392 15.0943 174.663 14.8406C175.009 14.5168 175.259 14.106 175.385 13.6528L173.982 13.1931C173.916 13.4274 173.787 13.6398 173.608 13.8072C173.344 14.0512 172.994 14.1834 172.632 14.1749C172.434 14.177 172.239 14.1408 172.056 14.0682C171.873 13.9956 171.706 13.8882 171.566 13.752C171.271 13.4201 171.117 12.9897 171.135 12.5495C171.115 12.1038 171.274 11.668 171.577 11.3359C171.86 11.0678 172.239 10.9198 172.632 10.9241C172.807 10.9187 172.981 10.9485 173.143 11.0118C173.306 11.075 173.454 11.1703 173.578 11.2918C173.753 11.4669 173.881 11.6816 173.952 11.917L175.377 11.4463C175.258 11.0082 175.028 10.6071 174.708 10.2805C174.428 10.0195 174.099 9.81563 173.738 9.68055C173.378 9.54547 172.994 9.4819 172.609 9.49353C172.209 9.48885 171.811 9.56215 171.439 9.70921C171.068 9.85627 170.729 10.0742 170.443 10.3504C169.874 10.9502 169.56 11.741 169.564 12.5612C169.568 13.3815 169.891 14.1692 170.466 14.7633C171.045 15.3178 171.823 15.6267 172.632 15.6239L172.628 15.6092ZM167.795 15.6239C168.244 15.6418 168.686 15.5125 169.052 15.2561V13.9984C168.817 14.157 168.537 14.2393 168.252 14.2338C168.144 14.2533 168.033 14.2466 167.929 14.2143C167.825 14.182 167.73 14.1251 167.653 14.0486C167.577 13.972 167.52 13.8782 167.489 13.7752C167.457 13.6722 167.452 13.5633 167.473 13.4578V8.06299H165.899V9.65533H169.059V11.1594H165.899V13.8329C165.877 14.3045 166.045 14.7655 166.366 15.1164C166.559 15.2908 166.786 15.4255 167.032 15.5126C167.279 15.5998 167.541 15.6376 167.803 15.6239" fill="#4F008C"/>
<path d="M176.923 13.6455V9.6564H177.604V9.97191C177.712 9.84212 177.849 9.73888 178.004 9.67029C178.159 9.60171 178.328 9.56964 178.498 9.57662C179.282 9.57662 179.846 10.1968 179.846 11.0852C179.846 11.9737 179.3 12.612 178.498 12.612C178.328 12.6181 178.158 12.5849 178.003 12.5151C177.848 12.4452 177.711 12.3406 177.604 12.2094V13.66L176.923 13.6455ZM177.604 10.7443V11.4696C177.668 11.6215 177.776 11.7513 177.914 11.8429C178.052 11.9345 178.215 11.9838 178.381 11.9846C178.835 11.9846 179.135 11.6473 179.135 11.1034C179.135 10.5594 178.835 10.2294 178.381 10.2294C178.214 10.227 178.051 10.2746 177.912 10.3659C177.774 10.4571 177.666 10.5878 177.604 10.7407" fill="#03BB86"/>
<path d="M180.309 11.5761C180.298 11.3586 180.381 11.1461 180.541 10.9847C180.7 10.8233 180.922 10.7261 181.159 10.7142L182.381 10.5723V10.4305C182.386 10.3967 182.383 10.3622 182.372 10.3296C182.361 10.2971 182.342 10.2673 182.316 10.2427C182.29 10.218 182.259 10.1991 182.224 10.1874C182.189 10.1757 182.151 10.1715 182.114 10.1751H180.568V9.57568H182.114C182.733 9.57568 183.077 9.85233 183.077 10.3489V12.3741H182.381V12.0194C182.264 12.1609 182.11 12.2738 181.934 12.348C181.758 12.4223 181.565 12.4556 181.372 12.445C181.237 12.458 181.102 12.4448 180.973 12.4065C180.845 12.3682 180.727 12.3055 180.626 12.2226C180.526 12.1396 180.446 12.0382 180.391 11.925C180.337 11.8118 180.308 11.6893 180.309 11.5654V11.5761ZM181.55 11.9201C181.723 11.9235 181.893 11.8812 182.04 11.7982C182.188 11.7151 182.306 11.595 182.381 11.4519V11.0973L181.449 11.2178C181.19 11.2498 181.062 11.3739 181.062 11.5725C181.062 11.7711 181.244 11.9272 181.565 11.9272" fill="#03BB86"/>
<path d="M183.655 13.0271H184.112C184.182 13.0349 184.253 13.0127 184.31 12.9651C184.366 12.9174 184.404 12.8478 184.417 12.7702L184.501 12.5133L183.538 9.57568H184.189L184.786 11.6197L185.359 9.57568H186L184.943 12.9489C184.799 13.4143 184.608 13.66 184.145 13.66H183.655V13.0271Z" fill="#03BB86"/>
</g>
<defs>
<clipPath id="clip0_7667_47714">
<rect width="26" height="7.56364" fill="white" transform="translate(160 8.06299)"/>
</clipPath>
</defs>
</svg>
