<svg width="12" height="12" viewBox="0 0 12 12" fill="none" xmlns="http://www.w3.org/2000/svg">
<g clip-path="url(#clip0_15646_16596)">
<path d="M0.602227 11.3856C0.929367 11.7126 1.49217 11.7304 1.82473 11.3978L5.24351 7.97901C5.47847 8.06889 5.73347 8.11828 6 8.11828C7.16977 8.11828 8.11828 7.16976 8.11828 5.99999C8.11828 5.67374 8.04445 5.36484 7.91273 5.08898L6.29367 6.70804H5.70797L5.29383 6.29367V5.7082L6.91359 4.08843C6.63703 3.95601 6.32719 3.88171 6 3.88171C4.83023 3.88171 3.88172 4.83023 3.88172 5.99999C3.88172 6.26655 3.9311 6.52153 4.02098 6.75649L0.602227 10.1753C0.268008 10.5095 0.268008 11.0514 0.602227 11.3856Z" fill="white"/>
<path d="M12 6.75V5.25L11.1809 5.14758C11.1241 4.80164 11.0339 4.46719 10.9134 4.1475L11.5711 3.64945L10.8211 2.35055L10.0601 2.67164C9.8407 2.40445 9.59555 2.1593 9.32836 1.93992L9.64945 1.17891L8.35055 0.428906L7.8525 1.08656C7.53281 0.966094 7.19836 0.875859 6.85242 0.819141L6.75 0H5.25L5.14758 0.819141C4.80164 0.875859 4.46719 0.966094 4.1475 1.08656L3.64945 0.428906L2.35055 1.17891L2.67164 1.93992C2.40445 2.1593 2.1593 2.40445 1.93992 2.67164L1.17891 2.35055L0.428906 3.64945L1.08656 4.1475C0.966094 4.46719 0.875859 4.80164 0.819141 5.14758L0 5.25V6.75L0.819141 6.85242C0.875859 7.19836 0.966094 7.53281 1.08656 7.8525L0.428906 8.35055L0.796289 8.98683L2.38052 7.40259C2.21123 6.96736 2.11816 6.49437 2.11816 6C2.11816 3.85955 3.85955 2.11816 6 2.11816C8.14045 2.11816 9.88184 3.85955 9.88184 6C9.88184 8.14045 8.14045 9.88184 6 9.88184C5.50563 9.88184 5.03269 9.78872 4.59748 9.61941L3.0132 11.2037L3.64945 11.5711L4.1475 10.9134C4.46719 11.0339 4.80164 11.1241 5.14758 11.1809L5.25 12H6.75L6.85242 11.1809C7.19836 11.1241 7.53281 11.0339 7.8525 10.9134L8.35055 11.5711L9.64945 10.8211L9.32836 10.0601C9.59555 9.8407 9.8407 9.59555 10.0601 9.32836L10.8211 9.64945L11.5711 8.35055L10.9134 7.8525C11.0339 7.53281 11.1241 7.19836 11.1809 6.85242L12 6.75Z" fill="white"/>
</g>
<defs>
<clipPath id="clip0_15646_16596">
<rect width="12" height="12" fill="white"/>
</clipPath>
</defs>
</svg>
