<svg width="21" height="21" viewBox="0 0 21 21" fill="none" xmlns="http://www.w3.org/2000/svg">
<g clip-path="url(#clip0_1535_9940)">
<path fill-rule="evenodd" clip-rule="evenodd" d="M20.1 10.523C20.1 9.81389 20.0364 9.13208 19.9182 8.47753H10.5V12.3457H15.8818C15.65 13.5957 14.9455 14.6548 13.8864 15.3639V17.873H17.1182C19.0091 16.1321 20.1 13.5684 20.1 10.523Z" fill="#4285F4"/>
<path fill-rule="evenodd" clip-rule="evenodd" d="M10.5 20.2957C13.2 20.2957 15.4636 19.4002 17.1182 17.873L13.8864 15.3639C12.9909 15.9639 11.8455 16.3184 10.5 16.3184C7.89546 16.3184 5.69092 14.5593 4.90455 12.1957H1.56364V14.7866C3.2091 18.0548 6.59092 20.2957 10.5 20.2957Z" fill="#34A853"/>
<path fill-rule="evenodd" clip-rule="evenodd" d="M4.90455 12.1957C4.70455 11.5957 4.59091 10.9548 4.59091 10.2957C4.59091 9.63662 4.70455 8.99571 4.90455 8.39571V5.8048H1.56364C0.886364 7.1548 0.5 8.68207 0.5 10.2957C0.5 11.9093 0.886364 13.4366 1.56364 14.7866L4.90455 12.1957Z" fill="#FBBC05"/>
<path fill-rule="evenodd" clip-rule="evenodd" d="M10.5 4.27297C11.9682 4.27297 13.2864 4.77752 14.3227 5.76843L17.1909 2.90025C15.4591 1.28661 13.1955 0.2957 10.5 0.2957C6.59092 0.2957 3.2091 2.53661 1.56364 5.80479L4.90455 8.3957C5.69092 6.03206 7.89546 4.27297 10.5 4.27297Z" fill="#EA4335"/>
</g>
<defs>
<clipPath id="clip0_1535_9940">
<rect x="0.5" y="0.2957" width="20" height="20" rx="6" fill="white"/>
</clipPath>
</defs>
</svg>
