<svg width="23" height="24" viewBox="0 0 23 24" fill="none" xmlns="http://www.w3.org/2000/svg">
<path fill-rule="evenodd" clip-rule="evenodd" d="M11.4999 1.45837C12.0292 1.45837 12.4583 1.88743 12.4583 2.41671V3.90999C16.1911 4.34745 19.1525 7.30883 19.59 11.0417H21.0833C21.6125 11.0417 22.0416 11.4708 22.0416 12C22.0416 12.5293 21.6125 12.9584 21.0833 12.9584H19.59C19.1525 16.6913 16.1911 19.6526 12.4583 20.0901V21.5834C12.4583 22.1126 12.0292 22.5417 11.4999 22.5417C10.9706 22.5417 10.5416 22.1126 10.5416 21.5834V20.0901C6.8087 19.6526 3.84733 16.6913 3.40986 12.9584H1.91659C1.38731 12.9584 0.958252 12.5293 0.958252 12C0.958252 11.4708 1.38731 11.0417 1.91659 11.0417H3.40986C3.84733 7.30883 6.8087 4.34746 10.5416 3.90999V2.41671C10.5416 1.88743 10.9706 1.45837 11.4999 1.45837ZM5.27075 12C5.27075 8.55977 8.05965 5.77087 11.4999 5.77087C14.9402 5.77087 17.7291 8.55977 17.7291 12C17.7291 15.4403 14.9402 18.2292 11.4999 18.2292C8.05965 18.2292 5.27075 15.4403 5.27075 12ZM9.58325 12C9.58325 10.9415 10.4414 10.0834 11.4999 10.0834C12.5585 10.0834 13.4166 10.9415 13.4166 12C13.4166 13.0586 12.5585 13.9167 11.4999 13.9167C10.4414 13.9167 9.58325 13.0586 9.58325 12ZM11.4999 8.16671C9.38283 8.16671 7.66659 9.88295 7.66659 12C7.66659 14.1171 9.38283 15.8334 11.4999 15.8334C13.617 15.8334 15.3333 14.1171 15.3333 12C15.3333 9.88295 13.617 8.16671 11.4999 8.16671Z" fill="#232323"/>
</svg>
