<svg width="20" height="21" viewBox="0 0 20 21" fill="none" xmlns="http://www.w3.org/2000/svg">
<path d="M9.99951 2.43878C14.3256 2.43878 17.8333 5.94571 17.8335 10.2718C17.8335 14.598 14.3257 18.1058 9.99951 18.1058C5.67343 18.1056 2.1665 14.5979 2.1665 10.2718C2.16668 5.94582 5.67354 2.43896 9.99951 2.43878Z" stroke="#1FB256"/>
<path d="M13.3332 9.64711H10.6248V6.93878C10.6248 6.59712 10.3415 6.31378 9.99984 6.31378C9.65817 6.31378 9.37484 6.59712 9.37484 6.93878V9.64711H6.6665C6.32484 9.64711 6.0415 9.93045 6.0415 10.2721C6.0415 10.6138 6.32484 10.8971 6.6665 10.8971H9.37484V13.6054C9.37484 13.9471 9.65817 14.2304 9.99984 14.2304C10.3415 14.2304 10.6248 13.9471 10.6248 13.6054V10.8971H13.3332C13.6748 10.8971 13.9582 10.6138 13.9582 10.2721C13.9582 9.93045 13.6748 9.64711 13.3332 9.64711Z" fill="#1FB256"/>
</svg>
