<svg width="44" height="44" viewBox="0 0 44 44" fill="none" xmlns="http://www.w3.org/2000/svg">
<path opacity="0.4" d="M7.95485 27.1162L5.2353 24.3967C4.126 23.2874 4.126 21.4624 5.2353 20.3531L7.95485 17.6335C8.42004 17.1683 8.79577 16.2558 8.79577 15.6117V11.765C8.79577 10.1905 10.084 8.90222 11.6585 8.90222H15.5052C16.1494 8.90222 17.0619 8.52654 17.527 8.06135L20.2466 5.34174C21.3559 4.23244 23.1809 4.23244 24.2902 5.34174L27.0098 8.06135C27.475 8.52654 28.3874 8.90222 29.0315 8.90222H32.8784C34.4528 8.90222 35.741 10.1905 35.741 11.765V15.6117C35.741 16.2558 36.1168 17.1683 36.5819 17.6335L39.3016 20.3531C40.4109 21.4624 40.4109 23.2874 39.3016 24.3967L36.5819 27.1162C36.1168 27.5814 35.741 28.4939 35.741 29.138V32.9848C35.741 34.5593 34.4528 35.8475 32.8784 35.8475H29.0315C28.3874 35.8475 27.475 36.2233 27.0098 36.6884L24.2902 39.4081C23.1809 40.5174 21.3559 40.5174 20.2466 39.4081L17.527 36.6884C17.0619 36.2233 16.1494 35.8475 15.5052 35.8475H11.6585C10.084 35.8475 8.79577 34.5593 8.79577 32.9848V29.138C8.79577 28.476 8.42004 27.5635 7.95485 27.1162Z" fill="#1FB256"/>
<path d="M27.6548 29.513C26.6528 29.513 25.8477 28.7078 25.8477 27.7238C25.8477 26.7397 26.6528 25.9346 27.6368 25.9346C28.6209 25.9346 29.426 26.7397 29.426 27.7238C29.426 28.7078 28.6388 29.513 27.6548 29.513Z" fill="#1FB256"/>
<path d="M16.937 18.7766C15.935 18.7766 15.1299 17.9715 15.1299 16.9874C15.1299 16.0034 15.935 15.1982 16.9191 15.1982C17.9031 15.1982 18.7083 16.0034 18.7083 16.9874C18.7083 17.9715 17.921 18.7766 16.937 18.7766Z" fill="#1FB256"/>
<path d="M16.9204 29.0649C16.5805 29.0649 16.2405 28.9397 15.9722 28.6714C15.4533 28.1525 15.4533 27.2936 15.9722 26.7747L26.7073 16.0395C27.2262 15.5207 28.085 15.5207 28.6039 16.0395C29.1227 16.5584 29.1227 17.4173 28.6039 17.9362L17.8687 28.6714C17.6003 28.9397 17.2604 29.0649 16.9204 29.0649Z" fill="#1FB256"/>
</svg>
