<svg width="24" height="25" viewBox="0 0 24 25" fill="none" xmlns="http://www.w3.org/2000/svg">
<path opacity="0.4" d="M12 22.6445C17.5228 22.6445 22 18.1674 22 12.6445C22 7.12168 17.5228 2.64453 12 2.64453C6.47715 2.64453 2 7.12168 2 12.6445C2 18.1674 6.47715 22.6445 12 22.6445Z" fill="#1FB256"/>
<path d="M10.5804 16.2246C10.3804 16.2246 10.1904 16.1446 10.0504 16.0046L7.22043 13.1746C6.93043 12.8846 6.93043 12.4046 7.22043 12.1146C7.51043 11.8246 7.99043 11.8246 8.28043 12.1146L10.5804 14.4146L15.7204 9.27463C16.0104 8.98463 16.4904 8.98463 16.7804 9.27463C17.0704 9.56463 17.0704 10.0446 16.7804 10.3346L11.1104 16.0046C10.9704 16.1446 10.7804 16.2246 10.5804 16.2246Z" fill="#1FB256"/>
</svg>
