<svg width="24" height="25" viewBox="0 0 24 25" fill="none" xmlns="http://www.w3.org/2000/svg">
<path d="M9.57041 10.0574C9.76636 9.50049 10.1531 9.03086 10.6623 8.73171C11.1714 8.43257 11.7699 8.32322 12.3519 8.42303C12.934 8.52284 13.4619 8.82537 13.8422 9.27704C14.2225 9.72871 14.4306 10.3004 14.4297 10.8908C14.4297 12.5574 11.9292 13.3908 11.9292 13.3908M11.9959 16.7241H12.0043M20.335 12.5556C20.335 17.1579 16.6033 20.8889 12 20.8889C7.39675 20.8889 3.66504 17.1579 3.66504 12.5556C3.66504 7.95319 7.39675 4.22223 12 4.22223C16.6033 4.22223 20.335 7.95319 20.335 12.5556Z" stroke="currentColor" stroke-width="1.5" stroke-linecap="round" stroke-linejoin="round"/>
</svg>
