<svg width="13" height="12" viewBox="0 0 13 12" fill="none" xmlns="http://www.w3.org/2000/svg">
<path fill-rule="evenodd" clip-rule="evenodd" d="M2.29537 3.9H0.375366V10.2C0.375366 11.1941 1.18126 12 2.17537 12H6.61081C5.39113 11.2651 4.57537 9.92778 4.57537 8.4C4.57537 6.0804 6.45577 4.2 8.77537 4.2C9.19237 4.2 9.59515 4.26077 9.97537 4.37393V1.8C9.97537 0.80589 9.16951 0 8.17537 0H4.27537V1.92C4.27537 3.01352 3.38889 3.9 2.29537 3.9ZM3.5511 0.175734C3.5885 0.138336 3.63034 0.10638 3.67537 0.0803818V1.92C3.67537 2.68215 3.05752 3.3 2.29537 3.3H0.455748C0.481746 3.25497 0.513702 3.21314 0.5511 3.17573L3.5511 0.175734ZM8.77537 4.8C6.78715 4.8 5.17537 6.41178 5.17537 8.4C5.17537 10.3882 6.78715 12 8.77537 12C10.7636 12 12.3754 10.3882 12.3754 8.4C12.3754 6.41178 10.7636 4.8 8.77537 4.8ZM10.0481 8.82426L9.62389 8.4L10.0481 7.97574C10.2825 7.74144 10.2825 7.36152 10.0481 7.12722C9.81385 6.89292 9.43399 6.89292 9.19963 7.12722L8.77537 7.55148L8.35111 7.12722C8.11681 6.89292 7.73689 6.89292 7.50259 7.12722C7.26829 7.36152 7.26829 7.74144 7.50259 7.97574L7.92685 8.4L7.50259 8.82426C7.26829 9.05862 7.26829 9.43848 7.50259 9.67278C7.73689 9.90714 8.11681 9.90714 8.35111 9.67278L8.77537 9.24852L9.19963 9.67278C9.43399 9.90714 9.81385 9.90714 10.0481 9.67278C10.2825 9.43848 10.2825 9.05862 10.0481 8.82426Z" fill="#F81C6B"/>
</svg>
