<svg width="39" height="39" viewBox="0 0 39 39" fill="none" xmlns="http://www.w3.org/2000/svg">
<path d="M19.7955 5.27699C24.4518 5.27699 25.0032 5.29742 26.8344 5.3791C28.5362 5.45398 29.4552 5.73989 30.0679 5.97815C30.8779 6.29129 31.4634 6.6725 32.0692 7.27836C32.6819 7.89102 33.0563 8.46965 33.3694 9.27973C33.6077 9.89239 33.8936 10.8182 33.9685 12.5132C34.0502 14.3512 34.0706 14.9026 34.0706 19.5521C34.0706 24.2083 34.0502 24.7597 33.9685 26.5909C33.8936 28.2927 33.6077 29.2117 33.3694 29.8244C33.0563 30.6345 32.6751 31.2199 32.0692 31.8258C31.4566 32.4384 30.8779 32.8128 30.0679 33.126C29.4552 33.3642 28.5294 33.6501 26.8344 33.725C24.9964 33.8067 24.445 33.8271 19.7955 33.8271C15.1393 33.8271 14.5879 33.8067 12.7567 33.725C11.0549 33.6501 10.1359 33.3642 9.5232 33.126C8.71312 32.8128 8.12769 32.4316 7.52183 31.8258C6.90917 31.2131 6.53477 30.6345 6.22163 29.8244C5.98337 29.2117 5.69746 28.2859 5.62258 26.5909C5.54089 24.7529 5.52047 24.2015 5.52047 19.5521C5.52047 14.8958 5.54089 14.3444 5.62258 12.5132C5.69746 10.8114 5.98337 9.89239 6.22163 9.27973C6.53477 8.46965 6.91598 7.88422 7.52183 7.27836C8.1345 6.6657 8.71312 6.29129 9.5232 5.97815C10.1359 5.73989 11.0617 5.45398 12.7567 5.3791C14.5879 5.29742 15.1393 5.27699 19.7955 5.27699ZM19.7955 2.13879C15.0644 2.13879 14.4722 2.15922 12.6138 2.2409C10.7621 2.32259 9.48917 2.62212 8.38637 3.05098C7.23592 3.50027 6.26247 4.09251 5.29582 5.06596C4.32237 6.03261 3.73013 7.00607 3.28084 8.14971C2.85198 9.25931 2.55245 10.5255 2.47076 12.3771C2.38907 14.2423 2.36865 14.8345 2.36865 19.5657C2.36865 24.2968 2.38907 24.889 2.47076 26.7474C2.55245 28.5991 2.85198 29.872 3.28084 30.9748C3.73013 32.1253 4.32237 33.0987 5.29582 34.0654C6.26247 35.032 7.23593 35.6311 8.37956 36.0736C9.48917 36.5024 10.7553 36.8019 12.6069 36.8836C14.4654 36.9653 15.0576 36.9857 19.7887 36.9857C24.5198 36.9857 25.1121 36.9653 26.9705 36.8836C28.8221 36.8019 30.0951 36.5024 31.1979 36.0736C32.3415 35.6311 33.315 35.032 34.2816 34.0654C35.2483 33.0987 35.8473 32.1253 36.2898 30.9816C36.7187 29.872 37.0182 28.6059 37.0999 26.7543C37.1816 24.8958 37.202 24.3036 37.202 19.5725C37.202 14.8414 37.1816 14.2491 37.0999 12.3907C37.0182 10.5391 36.7187 9.26611 36.2898 8.16332C35.8609 7.00607 35.2687 6.03261 34.2952 5.06596C33.3286 4.09932 32.3551 3.50027 31.2115 3.05779C30.1019 2.62892 28.8357 2.3294 26.9841 2.24771C25.1189 2.15922 24.5267 2.13879 19.7955 2.13879Z" fill="#CD486B"/>
<path d="M19.7955 10.614C14.8534 10.614 10.8438 14.6235 10.8438 19.5657C10.8438 24.5078 14.8534 28.5174 19.7955 28.5174C24.7377 28.5174 28.7472 24.5078 28.7472 19.5657C28.7472 14.6235 24.7377 10.614 19.7955 10.614ZM19.7955 25.3724C16.5893 25.3724 13.9888 22.7719 13.9888 19.5657C13.9888 16.3594 16.5893 13.759 19.7955 13.759C23.0018 13.759 25.6022 16.3594 25.6022 19.5657C25.6022 22.7719 23.0018 25.3724 19.7955 25.3724Z" fill="#CD486B"/>
<path d="M31.1911 10.26C31.1911 11.4173 30.2517 12.3499 29.1012 12.3499C27.944 12.3499 27.0113 11.4105 27.0113 10.26C27.0113 9.10276 27.9508 8.17014 29.1012 8.17014C30.2517 8.17014 31.1911 9.10956 31.1911 10.26Z" fill="#CD486B"/>
</svg>
