<svg width="42" height="41" viewBox="0 0 42 41" fill="none" xmlns="http://www.w3.org/2000/svg">
<rect x="0.120117" width="40.9954" height="40.9954" rx="20.4977" fill="white"/>
<g clip-path="url(#clip0_987_18258)">
<mask id="mask0_987_18258" style="mask-type:alpha" maskUnits="userSpaceOnUse" x="0" y="0" width="41" height="41">
<path d="M34.7598 6.35549L34.7599 0.497681H0.617676V34.6399L6.47555 34.6398L28.1177 27.9976L34.7598 6.35549Z" fill="#FF00FF"/>
</mask>
<g mask="url(#mask0_987_18258)">
<path d="M39.9303 25.7151C40.3786 24.0518 40.6177 22.3026 40.6177 20.4977L39.9303 15.2803C39.429 13.4199 38.6659 11.6668 37.6831 10.0629L33.0692 4.8455C29.6548 2.12571 25.3304 0.499684 20.6264 0.497681H20.609C15.9049 0.499683 11.5806 2.12571 8.16618 4.84549L3.55222 10.0629C2.56942 11.6668 1.80639 13.4199 1.30502 15.2803L0.617676 20.4977L0.617678 20.5065C0.618451 22.3083 0.857504 24.0545 1.30503 25.7151L3.55222 30.9324C4.77629 32.9301 6.34127 34.6962 8.16619 36.1499L20.6177 40.4977L33.0692 36.1499C34.8941 34.6962 36.4591 32.9301 37.6831 30.9325L39.9303 25.7151Z" fill="#EEEEEE"/>
<path d="M39.9303 15.2802C40.3786 16.9436 40.6177 18.6927 40.6177 20.4977H0.617676C0.617676 18.6927 0.856778 16.9436 1.30504 15.2802H39.9303Z" fill="#D80027"/>
<path d="M33.0692 4.84546C34.8941 6.29913 36.4591 8.06526 37.6831 10.0629H3.55223C4.7763 8.06526 6.34127 6.29913 8.16619 4.84546H33.0692Z" fill="#D80027"/>
<path d="M37.6831 30.9324C38.6659 29.3285 39.429 27.5754 39.9303 25.715H1.30502C1.80639 27.5754 2.56942 29.3285 3.55221 30.9324H37.6831Z" fill="#D80027"/>
<path d="M33.0692 36.1498H8.16618C11.5785 38.868 15.8998 40.4937 20.6006 40.4977H20.6348C25.3356 40.4937 29.6568 38.868 33.0692 36.1498Z" fill="#D80027"/>
<path d="M0.617676 19.684C1.04457 9.01557 9.82827 0.497681 20.6014 0.497681C20.6068 0.497681 20.6123 0.497683 20.6177 0.497687V20.4977H0.617676V19.684Z" fill="#0052B4"/>
<path fill-rule="evenodd" clip-rule="evenodd" d="M9.17297 4.09384C9.82667 3.63691 10.5089 3.21806 11.2166 2.8405L11.2914 3.07063H13.471L11.7076 4.35178L12.3812 6.42473L10.6178 5.14358L8.85446 6.42473L9.528 4.35178L9.17297 4.09384ZM2.92935 11.1554C3.39083 10.2834 3.91489 9.44969 4.49555 8.66017L4.79136 9.57057H6.97099L5.20763 10.8517L5.88117 12.9247L4.11782 11.6435L2.35446 12.9247L2.92935 11.1554ZM17.1178 0.997681L17.7914 3.07063H19.971L18.2076 4.35178L18.8812 6.42473L17.1178 5.14358L15.3545 6.42473L16.028 4.35178L14.2647 3.07063H16.4443L17.1178 0.997681ZM10.6178 7.49762L11.2914 9.57057H13.471L11.7076 10.8517L12.3812 12.9247L10.6178 11.6435L8.85446 12.9247L9.528 10.8517L7.76465 9.57057H9.94427L10.6178 7.49762ZM17.7914 9.57057L17.1178 7.49762L16.4443 9.57057H14.2647L16.028 10.8517L15.3545 12.9247L17.1178 11.6435L18.8812 12.9247L18.2076 10.8517L19.971 9.57057H17.7914ZM4.11782 13.9976L4.79136 16.0706H6.97099L5.20763 17.3517L5.88117 19.4247L4.11782 18.1435L2.35446 19.4247L3.028 17.3517L1.26465 16.0706H3.44428L4.11782 13.9976ZM11.2914 16.0706L10.6178 13.9976L9.94427 16.0706H7.76465L9.528 17.3517L8.85446 19.4247L10.6178 18.1435L12.3812 19.4247L11.7076 17.3517L13.471 16.0706H11.2914ZM17.1178 13.9976L17.7914 16.0706H19.971L18.2076 17.3517L18.8812 19.4247L17.1178 18.1435L15.3545 19.4247L16.028 17.3517L14.2647 16.0706H16.4443L17.1178 13.9976Z" fill="#EEEEEE"/>
</g>
<path d="M34.7598 6.35559C38.3791 9.97488 40.6176 14.9749 40.6176 20.4977C40.6176 31.5401 31.6687 40.4924 20.6275 40.4977C20.6242 40.4977 20.6209 40.4977 20.6176 40.4977C20.6144 40.4977 20.6111 40.4977 20.6078 40.4977C15.4068 40.4952 10.6701 38.5075 7.11426 35.2511L15.6177 26.7477V25.4977L18.1177 22.9977H23.1177V17.9977L34.7598 6.35559Z" fill="#EEEEEE"/>
<path d="M36.5107 8.35474C38.113 10.4487 39.3108 12.8686 39.9875 15.4977L29.3677 15.4977L36.5107 8.35474Z" fill="#0052B4"/>
<path d="M36.5107 32.6407C38.113 30.5468 39.3108 28.1269 39.9875 25.4977H29.3677L36.5107 32.6407Z" fill="#0052B4"/>
<path d="M32.7607 36.3908L25.6177 29.2477L25.6177 39.8676C28.2468 39.1909 30.6667 37.9931 32.7607 36.3908Z" fill="#0052B4"/>
<path d="M15.6177 39.8677L15.6177 29.2477L8.47461 36.3908C10.5686 37.9931 12.9885 39.191 15.6177 39.8677Z" fill="#0052B4"/>
<path d="M40.463 22.9977C40.5651 22.1787 40.6177 21.3443 40.6177 20.4977C40.6177 19.651 40.5651 18.8167 40.463 17.9977L23.1177 17.9977L18.1177 22.9977L18.1177 40.343C18.9335 40.4447 19.7646 40.4973 20.6078 40.4977C20.6111 40.4977 20.6144 40.4977 20.6177 40.4977C20.621 40.4977 20.6243 40.4977 20.6276 40.4977C21.4709 40.4973 22.3019 40.4447 23.1177 40.3429L23.1177 22.9977L40.463 22.9977Z" fill="#D80027"/>
<path d="M35.9548 33.3348L28.1177 25.4977H25.6177L34.7599 34.6398C35.177 34.2227 35.5757 33.7873 35.9548 33.3348Z" fill="#D80027"/>
<path d="M7.7806 35.8348L15.6177 27.9977V25.4977L6.47559 34.6398C6.89269 35.0569 7.32813 35.4557 7.7806 35.8348Z" fill="#D80027"/>
</g>
<defs>
<clipPath id="clip0_987_18258">
<rect width="40" height="40" fill="white" transform="translate(0.617676 0.497681)"/>
</clipPath>
</defs>
</svg>
