<svg width="24" height="25" viewBox="0 0 24 25" fill="currentColor" xmlns="http://www.w3.org/2000/svg">
<g clip-path="url(#clip0_5001_20778)">
<path d="M10.1159 12.9324C10.0903 12.8039 9.20648 8.38489 9.17845 8.24485C9.13466 8.02576 8.94226 7.86804 8.71882 7.86804H7.78132C7.55788 7.86804 7.36548 8.02576 7.3217 8.24485C7.29323 8.38726 6.40851 12.8108 6.3842 12.9324C6.33341 13.1862 6.49807 13.4332 6.75191 13.4839C7.00576 13.5347 7.25273 13.37 7.30348 13.1162L7.6031 11.618H8.89704L9.19666 13.1162C9.24745 13.3702 9.49451 13.5347 9.74823 13.4839C10.0021 13.4332 10.1667 13.1862 10.1159 12.9324ZM7.7906 10.6805L8.1656 8.80554H8.33454L8.70954 10.6805H7.7906Z" fill="currentcolor"/>
<path d="M17.625 11.618H16.2188V11.1493C16.2188 10.8904 16.0089 10.6805 15.75 10.6805C15.4911 10.6805 15.2812 10.8904 15.2812 11.1493V11.618H13.875C13.6161 11.618 13.4062 11.8279 13.4062 12.0868C13.4062 12.3457 13.6161 12.5555 13.875 12.5555H13.9884C14.2555 13.4184 14.6577 14.0807 15.1002 14.6115C14.74 14.9409 14.3756 15.2111 14.0509 15.4708C13.8488 15.6325 13.816 15.9274 13.9777 16.1296C14.1396 16.3319 14.4346 16.3644 14.6366 16.2028C14.963 15.9416 15.3543 15.6514 15.75 15.2883C16.146 15.6517 16.538 15.9424 16.8634 16.2028C17.0656 16.3645 17.3606 16.3317 17.5223 16.1296C17.684 15.9274 17.6512 15.6324 17.4491 15.4708C17.1253 15.2117 16.7604 14.9412 16.3998 14.6115C16.8423 14.0807 17.2445 13.4184 17.5116 12.5555H17.625C17.8839 12.5555 18.0938 12.3457 18.0938 12.0868C18.0938 11.8279 17.8839 11.618 17.625 11.618ZM15.75 13.9226C15.4508 13.5469 15.1816 13.0986 14.9787 12.5524H16.5213C16.3184 13.0986 16.0492 13.5469 15.75 13.9226Z" fill="currentcolor"/>
<path d="M18.5938 7.39929H11.8312L11.6303 5.78735C11.5425 5.0851 10.9426 4.55554 10.2349 4.55554H5.40625C4.63084 4.55554 4 5.18639 4 5.96179V16.3055C4 17.0809 4.63084 17.7118 5.40625 17.7118H9.35884L9.55722 19.3237C9.64484 20.0246 10.2447 20.5555 10.9526 20.5555H18.5938C19.3692 20.5555 20 19.9247 20 19.1493V8.80554C20 8.03014 19.3692 7.39929 18.5938 7.39929ZM5.40625 16.7743C5.14778 16.7743 4.9375 16.564 4.9375 16.3055V5.96179C4.9375 5.70332 5.14778 5.49304 5.40625 5.49304H10.2349C10.4708 5.49304 10.6708 5.66954 10.7 5.90348C10.7679 6.44835 11.9878 16.2338 12.0551 16.7743H5.40625ZM10.4601 18.9852L10.3034 17.7118H11.561L10.4601 18.9852ZM19.0625 19.1493C19.0625 19.4078 18.8522 19.618 18.5938 19.618H11.1523L12.9368 17.5539C13.0282 17.4509 13.0691 17.3141 13.0502 17.1781L11.9481 8.33679H18.5938C18.8522 8.33679 19.0625 8.54707 19.0625 8.80554V19.1493Z" fill="currentcolor"/>
</g>
<defs>
<clipPath id="clip0_5001_20778">
<rect width="16" height="16" fill="currentcolor" transform="translate(4 4.55554)"/>
</clipPath>
</defs>
</svg>
