<svg width="42" height="41" viewBox="0 0 42 41" fill="none" xmlns="http://www.w3.org/2000/svg">
<rect x="0.120117" width="40.9954" height="40.9954" rx="20.4977" fill="white"/>
<g clip-path="url(#clip0_781_16239)">
<circle cx="20.6178" cy="20.4977" r="20" fill="#496E2D"/>
<path d="M30.2272 14.2477V21.8258H28.9772C28.7584 21.8258 28.5631 21.8102 28.3678 21.7946C28.6022 21.4586 28.774 21.0992 28.8678 20.7242C28.9716 20.3425 28.9974 19.9438 28.9437 19.5518C28.89 19.1599 28.7579 18.7828 28.5553 18.443C28.3334 18.0923 28.0266 17.8033 27.6634 17.6025C27.3001 17.4018 26.8922 17.2959 26.4772 17.2946C26.0635 17.2972 25.6571 17.4037 25.2954 17.6044C24.9336 17.8051 24.6281 18.0934 24.4069 18.443C23.9928 19.1149 23.8834 19.9274 24.0865 20.7242C24.1803 21.0992 24.3522 21.4586 24.5865 21.7946C24.3912 21.8102 24.1959 21.8258 23.9772 21.8258H22.7272V17.2946H20.8522V23.7008C20.8522 24.0116 20.7287 24.3097 20.5089 24.5294C20.2892 24.7492 19.9911 24.8727 19.6803 24.8727V26.7477C20.4884 26.7477 21.2634 26.4267 21.8348 25.8553C22.4062 25.2839 22.7272 24.5089 22.7272 23.7008H23.9772C24.9459 23.7008 25.774 23.5211 26.4772 23.2321C27.1803 23.5211 28.0084 23.7008 28.9772 23.7008H32.1022V14.2477H30.2272ZM33.274 14.2477V23.7008H35.149V14.2477H33.274ZM7.4928 14.2477V16.1227H9.3678V14.2477H7.4928ZM10.5397 14.2477V16.1227H12.4147V14.2477H10.5397ZM12.4147 17.2946C10.7156 17.2946 9.08617 17.9695 7.88477 19.1709C6.68336 20.3723 6.00842 22.0018 6.00842 23.7008H7.88342C7.88345 22.8308 8.13393 21.9792 8.60496 21.2477C9.07599 20.5162 9.74764 19.9358 10.5397 19.5758V23.7008H18.5084V17.2946H16.6334V21.8258H15.4615V17.2946H13.5865V21.8258H12.4147V17.2946ZM26.4772 19.1696C26.7428 19.1696 26.8444 19.2477 26.9537 19.4352C27.0238 19.5614 27.0681 19.7003 27.0842 19.8438C27.1003 19.9872 27.0878 20.1325 27.0475 20.2711C26.9772 20.5524 26.8131 20.8727 26.4772 21.1461C26.1997 20.9217 26.0001 20.6155 25.9069 20.2711C25.8665 20.1325 25.8541 19.9872 25.8702 19.8438C25.8862 19.7003 25.9306 19.5614 26.0006 19.4352C26.11 19.2477 26.2115 19.1696 26.4772 19.1696ZM10.5397 24.8727V26.7477H12.4147V24.8727H10.5397ZM13.5865 24.8727V26.7477H15.4615V24.8727H13.5865ZM16.6334 24.8727V26.7477H18.5084V24.8727H16.6334Z" fill="#EEEEEE"/>
</g>
<defs>
<clipPath id="clip0_781_16239">
<rect width="40" height="40" fill="white" transform="translate(0.617798 0.497681)"/>
</clipPath>
</defs>
</svg>
