<svg width="135" height="118" viewBox="0 0 135 118" fill="none" xmlns="http://www.w3.org/2000/svg">
<path d="M72.0675 118C104.867 118 131.467 91.6 131.467 59C131.467 26.4 104.867 0 72.0675 0C39.2675 0 12.6675 26.4 12.6675 59C12.6675 91.6 39.2675 118 72.0675 118Z" fill="#F1F3F9"/>
<path d="M129.95 30.8C132.214 30.8 134.05 28.9643 134.05 26.7C134.05 24.4356 132.214 22.6 129.95 22.6C127.685 22.6 125.85 24.4356 125.85 26.7C125.85 28.9643 127.685 30.8 129.95 30.8Z" fill="#F1F3F9"/>
<path d="M125.85 17.5C127.396 17.5 128.65 16.2464 128.65 14.7C128.65 13.1536 127.396 11.9 125.85 11.9C124.303 11.9 123.05 13.1536 123.05 14.7C123.05 16.2464 124.303 17.5 125.85 17.5Z" fill="#F1F3F9"/>
<path d="M12.4499 26.7C13.9963 26.7 15.2499 25.4464 15.2499 23.9C15.2499 22.3536 13.9963 21.1 12.4499 21.1C10.9035 21.1 9.6499 22.3536 9.6499 23.9C9.6499 25.4464 10.9035 26.7 12.4499 26.7Z" fill="#F1F3F9"/>
<path d="M6.14995 88.3C9.02183 88.3 11.35 85.9719 11.35 83.1C11.35 80.2281 9.02183 77.9 6.14995 77.9C3.27807 77.9 0.949951 80.2281 0.949951 83.1C0.949951 85.9719 3.27807 88.3 6.14995 88.3Z" fill="#F1F3F9"/>
<path d="M108.267 48.8777L115.767 54.7406L108.267 69.8777L104.267 76.964H83.6542L78.6913 80.4259L76.5505 81.8777L74.5069 80.4259L69.836 76.964L60.2668 74.3777L44.7668 80.4259L39.7668 55.1873L44.7668 36.3777C50.7028 30.6823 48.3302 27.8548 55.142 21.3777H99.1266C105.355 27.2965 103.012 43.8523 108.267 48.8777Z" fill="#AAB2C5"/>
<path d="M113.832 47.3333L107.38 25.8259C105.909 20.921 101.481 17.6277 96.363 17.6277H53.1707C48.0524 17.6277 43.6247 20.921 42.1535 25.8259L35.7013 47.3333C31.6271 49.1039 28.7668 53.1584 28.7668 57.8777V80.8777C28.7668 84.0531 31.3414 86.6277 34.5168 86.6277V92.3773C34.5168 95.5531 37.0911 98.1277 40.2668 98.1277H46.0172C49.1926 98.1277 51.7672 95.5531 51.7672 92.3777L51.7647 86.6277H97.7669L97.7665 92.3773C97.7665 95.5531 100.341 98.1277 103.517 98.1277H109.267C112.443 98.1277 115.017 95.5531 115.017 92.3777V86.628C118.192 86.628 120.767 84.0531 120.767 80.8777V57.8777C120.767 53.1584 117.907 49.1039 113.832 47.3333ZM53.1705 29.1277H96.3629L101.538 46.3777H47.9953L53.1705 29.1277ZM51.7667 72.2527C48.5909 72.2527 46.0167 69.6781 46.0167 66.5027C46.0167 63.3269 48.5909 60.7527 51.7667 60.7527C54.9424 60.7527 57.5167 63.3269 57.5167 66.5027C57.5167 69.6781 54.9424 72.2527 51.7667 72.2527ZM97.7667 72.2527C94.5909 72.2527 92.0167 69.6781 92.0167 66.5027C92.0167 63.3269 94.5909 60.7527 97.7667 60.7527C100.942 60.7527 103.517 63.3269 103.517 66.5027C103.517 69.6781 100.942 72.2527 97.7667 72.2527Z" fill="white" stroke="#D6DCE8" stroke-width="2" stroke-miterlimit="10"/>
<path d="M119.649 108.469L123.221 106.683C123.109 106.794 123.109 106.794 122.998 106.906C122.998 106.906 122.998 106.906 122.886 106.906L119.649 108.469Z" fill="#526DFF"/>
<path d="M83.0411 106.375L99.3786 80.5174C101.157 78.0912 104.88 78.0912 106.658 80.5174L122.996 106.375C124.718 108.693 122.996 111.982 120.05 111.982H86.0418C83.0411 111.928 81.3184 108.693 83.0411 106.375Z" fill="url(#paint0_linear_10754_132472)"/>
<path d="M103.019 87.1371C101.462 87.1371 100.251 88.5056 100.366 90.1122L101.231 99.7515C101.289 100.704 102.096 101.477 103.019 101.477C103.941 101.477 104.749 100.704 104.806 99.7515L105.671 90.1122C105.786 88.4461 104.576 87.1371 103.019 87.1371Z" fill="white"/>
<path d="M103.019 103.262C101.866 103.262 100.943 104.214 100.943 105.404C100.943 106.594 101.866 107.546 103.019 107.546C104.172 107.546 105.095 106.594 105.095 105.404C105.095 104.214 104.172 103.262 103.019 103.262Z" fill="white"/>
<defs>
<linearGradient id="paint0_linear_10754_132472" x1="82.3375" y1="96.2148" x2="123.689" y2="96.2148" gradientUnits="userSpaceOnUse">
<stop stop-color="#B0BACC"/>
<stop offset="1" stop-color="#969EAE"/>
</linearGradient>
</defs>
</svg>
