<svg width="20" height="20" viewBox="0 0 20 20" fill="none" xmlns="http://www.w3.org/2000/svg">
<path d="M11.9096 9.82658H8.09017C7.80545 9.82658 7.56934 9.59047 7.56934 9.30575C7.56934 9.02102 7.80545 8.78491 8.09017 8.78491H11.9096C12.1943 8.78491 12.4304 9.02102 12.4304 9.30575C12.4304 9.59047 12.1943 9.82658 11.9096 9.82658Z" fill="#1FB256"/>
<path d="M9.99984 11.7361C9.71511 11.7361 9.479 11.5 9.479 11.2153V7.39583C9.479 7.11111 9.71511 6.875 9.99984 6.875C10.2846 6.875 10.5207 7.11111 10.5207 7.39583V11.2153C10.5207 11.5 10.2846 11.7361 9.99984 11.7361Z" fill="#1FB256"/>
<path d="M9.99984 17.4724C8.97206 17.4724 7.93734 17.0835 7.13178 16.3127C5.08317 14.3405 2.81928 11.1946 3.67345 7.45158C4.44428 4.05575 7.40956 2.53491 9.99984 2.53491C9.99984 2.53491 9.99984 2.53491 10.0068 2.53491C12.5971 2.53491 15.5623 4.05575 16.3332 7.45852C17.1804 11.2016 14.9165 14.3405 12.8679 16.3127C12.0623 17.0835 11.0276 17.4724 9.99984 17.4724ZM9.99984 3.57658C7.979 3.57658 5.38178 4.65297 4.69428 7.68075C3.94428 10.9516 5.99984 13.771 7.86095 15.5557C9.06234 16.7155 10.9443 16.7155 12.1457 15.5557C13.9998 13.771 16.0554 10.9516 15.3193 7.68075C14.6248 4.65297 12.0207 3.57658 9.99984 3.57658Z" fill="#1FB256"/>
</svg>
