<svg width="20" height="21" viewBox="0 0 20 21" fill="none" xmlns="http://www.w3.org/2000/svg">
<path fill-rule="evenodd" clip-rule="evenodd" d="M3.63832 4.89871C6.25666 2.28036 10.2364 1.85732 13.2956 3.62552C13.7206 3.87119 13.866 4.4149 13.6204 4.83993C13.3747 5.26496 12.8309 5.41036 12.406 5.16469C10.026 3.78915 6.93032 4.12087 4.8954 6.15579C2.46546 8.58573 2.46546 12.5254 4.8954 14.9554C6.93032 16.9903 10.026 17.322 12.406 15.9464C12.8309 15.7008 13.3747 15.8462 13.6204 16.2712C13.866 16.6963 13.7206 17.2399 13.2956 17.4856C10.2364 19.2538 6.25666 18.8308 3.63832 16.2125C0.514114 13.0883 0.514114 8.02291 3.63832 4.89871ZM14.8889 7.26036C15.236 6.91322 15.7989 6.91322 16.146 7.26036L17.827 8.94143C17.9857 9.1001 18.1402 9.2545 18.2604 9.39601C18.3923 9.55147 18.5342 9.74872 18.6178 10.0062C18.7338 10.3633 18.7338 10.7479 18.6178 11.1049C18.5342 11.3625 18.3923 11.5597 18.2604 11.7151C18.1402 11.8566 17.9857 12.0111 17.827 12.1697L16.146 13.8508C15.7989 14.1979 15.236 14.1979 14.8889 13.8508C14.5418 13.5037 14.5418 12.9408 14.8889 12.5937L16.0382 11.4445H9.29519C8.80426 11.4445 8.4063 11.0465 8.4063 10.5556C8.4063 10.0646 8.80426 9.66668 9.29519 9.66668H16.0382L14.8889 8.51744C14.5418 8.17031 14.5418 7.60749 14.8889 7.26036Z" fill="black"/>
</svg>
