<svg width="54" height="55" viewBox="0 0 54 55" fill="none" xmlns="http://www.w3.org/2000/svg">
<path d="M36.5939 8.05552C36.5196 7.91302 36.4083 7.79315 36.2718 7.70852C36.1352 7.62389 35.9783 7.57762 35.8176 7.57458L28.2829 7.71802C26.3158 7.74392 24.4374 8.54072 23.0517 9.93708L4.09261 28.8961C3.30172 29.6873 2.85742 30.7601 2.85742 31.8788C2.85742 32.9975 3.30172 34.0703 4.09261 34.8615C9.62762 40.2699 9.37449 40.4218 9.99887 40.4049C10.1156 40.3991 10.23 40.3691 10.3345 40.3168C10.4391 40.2646 10.5317 40.1911 10.6064 40.1011L36.4757 9.00052C36.5883 8.87322 36.6598 8.7149 36.6809 8.54628C36.702 8.37767 36.6716 8.20661 36.5939 8.05552Z" fill="url(#paint0_linear_792_30678)"/>
<path d="M34.848 8.04713L27.5917 10.1312C25.7043 10.676 24.1014 11.9311 23.1198 13.6328L9.71266 36.8443C9.15324 37.8133 9.00164 38.9648 9.29121 40.0455C9.58077 41.1262 10.2878 42.0477 11.2567 42.6071L25.1364 50.6228C26.1573 51.1881 27.8448 51.6184 28.0642 50.5046L35.9111 9.00056C35.9351 8.85997 35.9231 8.71558 35.8762 8.58089C35.8292 8.4462 35.7489 8.32561 35.6427 8.23038C35.5365 8.13515 35.4079 8.06839 35.269 8.03634C35.13 8.0043 34.9851 8.00801 34.848 8.04713Z" fill="url(#paint1_linear_792_30678)"/>
<path d="M47.656 15.7505L40.5854 8.4014C40.1918 7.9931 39.72 7.66833 39.1981 7.44651C38.6762 7.22468 38.1149 7.11035 37.5479 7.11035C36.9808 7.11035 36.4195 7.22468 35.8976 7.44651C35.3757 7.66833 34.9039 7.9931 34.5104 8.4014L27.4397 15.7505C26.0788 17.1624 25.3169 19.046 25.3135 21.007V47.813C25.3135 48.9318 25.758 50.0049 26.5491 50.7961C27.3403 51.5872 28.4133 52.0317 29.5322 52.0317H45.5635C46.6824 52.0317 47.7554 51.5872 48.5466 50.7961C49.3378 50.0049 49.7822 48.9318 49.7822 47.813V21.007C49.7788 19.046 49.0169 17.1624 47.656 15.7505Z" fill="url(#paint2_linear_792_30678)"/>
<path d="M43.0316 2.9928C43.0316 3.04342 42.3819 7.7853 38.6356 9.97061C38.3542 9.73004 38.0015 9.58869 37.6319 9.56832C37.2622 9.54796 36.8961 9.64972 36.59 9.85792C36.2839 10.0661 36.0548 10.3692 35.9379 10.7205C35.821 11.0718 35.8229 11.4517 35.9432 11.8018C36.0636 12.1519 36.2957 12.4528 36.6039 12.6579C36.912 12.8631 37.2791 12.9612 37.6485 12.9372C38.018 12.9132 38.3692 12.7684 38.6482 12.525C38.9273 12.2817 39.1185 11.9533 39.1925 11.5906C43.8753 9.09311 44.7191 3.4653 44.7191 3.1953L43.0316 2.9928Z" fill="url(#paint3_linear_792_30678)"/>
<path d="M39.0568 33.4693H38.8121V30.0943H39.0568C39.5043 30.0943 39.9335 30.272 40.25 30.5885C40.5665 30.905 40.7443 31.3342 40.7443 31.7818H42.4318C42.4318 30.8867 42.0762 30.0282 41.4432 29.3953C40.8103 28.7623 39.9519 28.4068 39.0568 28.4068H38.8121V26.3564H37.1246V28.4068H36.8799C35.9848 28.4068 35.1263 28.7623 34.4934 29.3953C33.8605 30.0282 33.5049 30.8867 33.5049 31.7818C33.5049 32.6769 33.8605 33.5353 34.4934 34.1682C35.1263 34.8012 35.9848 35.1568 36.8799 35.1568H37.1246V38.5318H36.8799C36.4323 38.5318 36.0031 38.354 35.6866 38.0375C35.3702 37.721 35.1924 37.2918 35.1924 36.8443H33.5049C33.5049 37.7394 33.8605 38.5978 34.4934 39.2307C35.1263 39.8637 35.9848 40.2193 36.8799 40.2193H37.1246V42.2696H38.8121V40.2193H39.0568C39.9519 40.2193 40.8103 39.8637 41.4432 39.2307C42.0762 38.5978 42.4318 37.7394 42.4318 36.8443C42.4318 35.9492 42.0762 35.0907 41.4432 34.4578C40.8103 33.8248 39.9519 33.4693 39.0568 33.4693ZM36.8799 33.4693C36.4323 33.4693 36.0031 33.2915 35.6866 32.975C35.3702 32.6585 35.1924 32.2293 35.1924 31.7818C35.1924 31.3342 35.3702 30.905 35.6866 30.5885C36.0031 30.272 36.4323 30.0943 36.8799 30.0943H37.1246V33.4693H36.8799ZM39.0568 38.5318H38.8121V35.1568H39.0568C39.5043 35.1568 39.9335 35.3345 40.25 35.651C40.5665 35.9675 40.7443 36.3967 40.7443 36.8443C40.7443 37.2918 40.5665 37.721 40.25 38.0375C39.9335 38.354 39.5043 38.5318 39.0568 38.5318Z" fill="url(#paint4_linear_792_30678)"/>
<defs>
<linearGradient id="paint0_linear_792_30678" x1="30.772" y1="5.76052" x2="5.09668" y2="37.9411" gradientUnits="userSpaceOnUse">
<stop stop-color="#FFC033"/>
<stop offset="1" stop-color="#EF8E2E"/>
</linearGradient>
<linearGradient id="paint1_linear_792_30678" x1="39.8683" y1="7.96275" x2="16.3614" y2="47.7371" gradientUnits="userSpaceOnUse">
<stop stop-color="#CE7F20"/>
<stop offset="1" stop-color="#B2500D"/>
</linearGradient>
<linearGradient id="paint2_linear_792_30678" x1="37.5479" y1="7.11046" x2="37.5479" y2="52.0317" gradientUnits="userSpaceOnUse">
<stop stop-color="#FFC033"/>
<stop offset="1" stop-color="#EF8E2E"/>
</linearGradient>
<linearGradient id="paint3_linear_792_30678" x1="35.8597" y1="7.96249" x2="44.7106" y2="7.96249" gradientUnits="userSpaceOnUse">
<stop stop-color="#002237"/>
<stop offset="1" stop-color="#003352"/>
</linearGradient>
<linearGradient id="paint4_linear_792_30678" x1="33.5049" y1="34.313" x2="42.4318" y2="34.313" gradientUnits="userSpaceOnUse">
<stop stop-color="#002237"/>
<stop offset="1" stop-color="#003352"/>
</linearGradient>
</defs>
</svg>
