<svg width="25" height="25" viewBox="0 0 25 25" fill="none" xmlns="http://www.w3.org/2000/svg">
<path d="M5.5 10.3887C4.4 10.3887 3.5 11.2887 3.5 12.3887C3.5 13.4887 4.4 14.3887 5.5 14.3887C6.6 14.3887 7.5 13.4887 7.5 12.3887C7.5 11.2887 6.6 10.3887 5.5 10.3887Z" fill="#A7AEC1" stroke="#A7AEC1"/>
<path d="M19.5 10.3887C18.4 10.3887 17.5 11.2887 17.5 12.3887C17.5 13.4887 18.4 14.3887 19.5 14.3887C20.6 14.3887 21.5 13.4887 21.5 12.3887C21.5 11.2887 20.6 10.3887 19.5 10.3887Z" fill="#A7AEC1" stroke="#A7AEC1"/>
<path d="M12.5 10.3887C11.4 10.3887 10.5 11.2887 10.5 12.3887C10.5 13.4887 11.4 14.3887 12.5 14.3887C13.6 14.3887 14.5 13.4887 14.5 12.3887C14.5 11.2887 13.6 10.3887 12.5 10.3887Z" fill="#A7AEC1" stroke="#A7AEC1"/>
</svg>
