<svg width="18" height="18" viewBox="0 0 18 18" fill="none" xmlns="http://www.w3.org/2000/svg">
<path d="M12.1814 8.97841L12.2029 8.97773C12.9908 8.9527 13.8104 9.27625 14.3827 9.81833C16.5606 11.8809 15.3139 15.3575 12.2215 15.4194L12.2126 15.4178C12.1705 15.4246 12.1168 15.4181 12.0735 15.4169C10.4262 15.3702 9.02452 14.0266 8.94377 12.3677C8.90243 11.5178 9.2876 10.6635 9.85114 10.0457C10.4344 9.40625 11.3221 9.01671 12.1814 8.97841ZM12.576 10.732C12.1051 10.8395 12.1744 11.2361 12.4139 11.5614C12.4285 11.5812 12.4365 11.6063 12.4574 11.6204C12.2884 11.6317 12.1182 11.6284 11.949 11.6289L10.819 11.6305C10.722 11.6307 10.6159 11.6205 10.525 11.6583C10.1529 11.8129 10.0702 12.2829 10.4249 12.4243L10.4838 12.4426C10.5594 12.4642 10.6361 12.4608 10.7139 12.4609L11.0016 12.4612C11.1467 12.4614 12.4744 12.4495 12.5032 12.465C12.5624 12.4966 12.3952 12.7281 12.3682 12.7612C12.2816 12.8777 12.1804 13.0062 12.2013 13.1613C12.2339 13.4033 12.4481 13.5679 12.6915 13.5245C12.8365 13.4987 12.9626 13.3567 13.0673 13.2632L13.8605 12.5713C14.2835 12.2066 14.328 12.0306 13.8453 11.6258L13.1824 11.0421C12.9991 10.8758 12.8395 10.7213 12.576 10.732Z" fill="#232323"/>
<path d="M6.10218 4.00386L6.61895 3.78772C6.8059 3.70269 6.98289 3.59635 7.17116 3.51499C7.74668 3.26631 8.03223 3.46771 8.55648 3.66568L9.66565 4.05679L12.3312 4.92855C13.0073 5.15161 13.1845 5.3432 13.1859 6.10865L13.1861 6.9146C13.1843 7.38718 12.9384 7.69287 12.4996 7.81806C12.4534 7.83125 12.4619 7.84247 12.4457 7.8882C12.2802 8.35395 12.0673 8.29711 11.6329 8.40629C11.2119 8.51213 10.7824 8.64026 10.3966 8.84195C9.18302 9.47636 8.35632 10.8696 8.31244 12.2256L8.30569 12.5739C8.30499 12.6832 8.31278 12.829 8.27439 12.9308C8.0738 13.4628 6.93789 12.8311 6.61501 12.6995L4.53576 11.8461C3.876 11.5674 3.41987 11.4782 3.41776 10.5892L3.41728 8.09602C3.41678 8.00475 3.42145 7.90938 3.41093 7.81884C3.11941 7.6792 2.95345 7.64759 2.7759 7.31932C2.61927 7.02966 2.66493 6.66881 2.66437 6.3528C2.66403 6.15986 2.64608 5.94735 2.6737 5.75686L2.67557 5.74305C2.73978 5.29479 3.09829 5.01965 3.51448 4.91544C3.53732 4.90974 3.57228 4.89609 3.59532 4.8984C3.69825 4.88279 3.80586 4.83577 3.9041 4.80069L6.10218 4.00386Z" fill="#F9DD4B"/>
<path d="M6.10208 4.00385L6.11392 4.01327C6.19534 4.07568 6.32396 4.11536 6.41806 4.15904L8.35953 5.03367L10.1602 5.78309C10.3029 5.83478 10.4441 5.89002 10.5952 5.91058L8.52387 6.865C8.18898 7.02107 8.33045 6.99859 8.02234 6.83617L7.0664 6.38792L3.70141 4.93456C3.66811 4.92305 3.62379 4.91794 3.59521 4.89839C3.69815 4.88278 3.80576 4.83575 3.904 4.80068L6.10208 4.00385Z" fill="#232323"/>
</svg>
