<svg width="21" height="21" viewBox="0 0 21 21" fill="none" xmlns="http://www.w3.org/2000/svg">
<rect opacity="0.1" x="3.5" y="2.55566" width="14" height="16" rx="3" fill="#FFD400"/>
<path d="M14.875 19.3057C16.598 19.3057 18 17.9037 18 16.1807V4.93066C18 3.20764 16.598 1.80566 14.875 1.80566H6.125C4.40198 1.80566 3 3.20764 3 4.93066V16.1807C3 17.9037 4.40198 19.3057 6.125 19.3057H14.875ZM4.25 4.93066C4.25 3.89673 5.09106 3.05566 6.125 3.05566H14.875C15.9089 3.05566 16.75 3.89673 16.75 4.93066V16.1807C16.75 17.2146 15.9089 18.0557 14.875 18.0557H6.125C5.09106 18.0557 4.25 17.2146 4.25 16.1807V4.93066Z" fill="#FFD400"/>
<path d="M9.25 11.1807H14.25C14.5955 11.1807 14.875 10.9008 14.875 10.5557C14.875 10.2105 14.5955 9.93066 14.25 9.93066H9.25C8.90454 9.93066 8.625 10.2105 8.625 10.5557C8.625 10.9008 8.90454 11.1807 9.25 11.1807Z" fill="white"/>
<path d="M9.25 8.05566H14.25C14.5955 8.05566 14.875 7.77582 14.875 7.43066C14.875 7.08551 14.5955 6.80566 14.25 6.80566H9.25C8.90454 6.80566 8.625 7.08551 8.625 7.43066C8.625 7.77582 8.90454 8.05566 9.25 8.05566Z" fill="white"/>
<path d="M9.25 14.3057H14.25C14.5955 14.3057 14.875 14.0258 14.875 13.6807C14.875 13.3355 14.5955 13.0557 14.25 13.0557H9.25C8.90454 13.0557 8.625 13.3355 8.625 13.6807C8.625 14.0258 8.90454 14.3057 9.25 14.3057Z" fill="white"/>
<path d="M6.76233 8.05566C7.10779 8.05566 7.38733 7.77582 7.38733 7.43066C7.38733 7.08551 7.10779 6.80566 6.76233 6.80566H6.75623C6.41138 6.80566 6.13428 7.08551 6.13428 7.43066C6.13428 7.77582 6.41748 8.05566 6.76233 8.05566Z" fill="white"/>
<path d="M6.76233 11.1807C7.10779 11.1807 7.38733 10.9008 7.38733 10.5557C7.38733 10.2105 7.10779 9.93066 6.76233 9.93066H6.75623C6.41138 9.93066 6.13428 10.2105 6.13428 10.5557C6.13428 10.9008 6.41748 11.1807 6.76233 11.1807Z" fill="white"/>
<path d="M6.76233 14.3057C7.10779 14.3057 7.38733 14.0258 7.38733 13.6807C7.38733 13.3355 7.10779 13.0557 6.76233 13.0557H6.75623C6.41138 13.0557 6.13428 13.3355 6.13428 13.6807C6.13428 14.0258 6.41748 14.3057 6.76233 14.3057Z" fill="white"/>
</svg>
