<svg width="57" height="58" viewBox="0 0 57 58" fill="none" xmlns="http://www.w3.org/2000/svg">
<path d="M13.334 24.0145V52.8791C13.334 55.0411 15.0745 56.7817 17.2366 56.7817H45.3845C47.5465 56.7817 49.2871 55.0411 49.2871 52.8791V22.2305L13.334 24.0145Z" fill="#D9E3FF"/>
<path d="M13.334 24.0145V52.8791C13.334 52.9919 13.3397 53.1033 13.349 53.2136H40.286C42.448 53.2136 44.1886 51.473 44.1886 49.311V32.6046L49.2871 27.5062V22.2305L13.334 24.0145Z" fill="#C3D4F8"/>
<path d="M2.18457 15.7265V46.1162C2.18457 48.2748 3.92239 50.0127 6.08106 50.0127H36.8857C39.0443 50.0127 40.7822 48.2748 40.7822 46.1162V4.9248C40.7822 2.76615 39.0443 1.02832 36.8857 1.02832H16.8827L2.18457 15.7265Z" fill="#FBFCFF"/>
<path d="M16.8827 1.02832L2.18457 15.7265H12.9862C15.1449 15.7265 16.8827 13.9886 16.8827 11.83V1.02832Z" fill="#62ADE9"/>
<path d="M9.49313 20.8252H11.9424C13.4843 20.8252 14.7256 22.0665 14.7256 23.6084V26.0577C14.7256 27.5995 13.4843 28.8408 11.9424 28.8408H9.49313C7.95127 28.8408 6.70996 27.5995 6.70996 26.0577V23.6084C6.70996 22.0665 7.95127 20.8252 9.49313 20.8252Z" fill="#5BB774"/>
<path d="M9.49313 34.2432H11.9424C13.4843 34.2432 14.7256 35.4845 14.7256 37.0264V39.4756C14.7256 41.0175 13.4843 42.2588 11.9424 42.2588H9.49313C7.95127 42.2588 6.70996 41.0175 6.70996 39.4756V37.0264C6.70996 35.4845 7.95127 34.2432 9.49313 34.2432Z" fill="#5BB774"/>
<path d="M18.2812 5.53613V5.98155H19.1713V5.53613H18.2812ZM20.5075 5.53613V5.98155H21.3984V5.53613H20.5075ZM22.7338 5.53613V5.98155H23.6247V5.53613H22.7338ZM24.9609 5.53613V5.98155H25.851V5.53613H24.9609ZM27.1872 5.53613V5.98155H28.0781V5.53613H27.1872ZM29.4135 5.53613V5.98155H30.3044V5.53613H29.4135ZM31.6406 5.53613V5.98155H32.5306V5.53613H31.6406ZM33.8669 5.53613V5.98155H34.7578V5.53613H33.8669ZM36.0932 5.53613V5.98155H36.984V5.53613H36.0932ZM38.3203 5.53613V5.98155H39.2103V5.53613H38.3203Z" fill="#8DA2E9"/>
<path d="M4.01074 45.7666V46.212H4.90076V45.7666H4.01074ZM6.23703 45.7666V46.212H7.12787V45.7666H6.23703ZM8.46332 45.7666V46.212H9.35416V45.7666H8.46332ZM10.6904 45.7666V46.212H11.5805V45.7666H10.6904ZM12.9167 45.7666V46.212H13.8076V45.7666H12.9167ZM15.143 45.7666V46.212H16.0338V45.7666H15.143ZM17.3701 45.7666V46.212H18.2601V45.7666H17.3701ZM19.5964 45.7666V46.212H20.4872V45.7666H19.5964ZM21.8227 45.7666V46.212H22.7135V45.7666H21.8227ZM24.0498 45.7666V46.212H24.9398V45.7666H24.0498ZM26.2761 45.7666V46.212H27.1669V45.7666H26.2761ZM28.5024 45.7666V46.212H29.3932V45.7666H28.5024ZM30.7295 45.7666V46.212H31.6195V45.7666H30.7295ZM32.9558 45.7666V46.212H33.8466V45.7666H32.9558ZM35.1821 45.7666V46.212H36.0729V45.7666H35.1821ZM37.4092 45.7666V46.212H38.2992V45.7666H37.4092Z" fill="#8DA2E9"/>
<path d="M12.0076 37.028C11.8932 37.0344 11.7852 37.084 11.7116 37.1578L10.3535 38.515L9.77073 37.9323C9.59658 37.7583 9.3144 37.7583 9.14026 37.9323C8.96627 38.1064 8.96627 38.3886 9.14026 38.5627L10.0382 39.4617C10.2124 39.6363 10.4953 39.6363 10.6695 39.4617L12.3421 37.7883C12.5161 37.6142 12.5161 37.332 12.3421 37.1578C12.2428 37.0586 12.1219 37.0217 12.0076 37.028Z" fill="#FBFCFF"/>
<path d="M18.5713 26.3604C18.3252 26.3607 18.1259 26.5604 18.126 26.8066C18.1263 27.0524 18.3255 27.2516 18.5713 27.2519H22.161C22.4071 27.2519 22.6067 27.0527 22.607 26.8066C22.6071 26.5602 22.4074 26.3604 22.161 26.3604H18.5713Z" fill="#455A64"/>
<path d="M18.5713 39.6631C18.3252 39.6634 18.1259 39.8632 18.126 40.1093C18.1263 40.3551 18.3255 40.5543 18.5713 40.5547H22.161C22.4071 40.5547 22.6067 40.3554 22.607 40.1093C22.6071 39.8629 22.4074 39.6631 22.161 39.6631H18.5713Z" fill="#455A64"/>
<path d="M12.0346 23.588C11.92 23.5855 11.8029 23.6259 11.7116 23.7169L10.3535 25.075L9.77073 24.4924C9.59658 24.3185 9.3144 24.3185 9.14026 24.4924C8.96627 24.6666 8.96627 24.9488 9.14026 25.1229L10.0382 26.0217C10.2127 26.196 10.4955 26.1956 10.6695 26.0208L12.3421 24.3483C12.5166 24.174 12.5166 23.8912 12.3421 23.7169C12.2612 23.6361 12.1491 23.5905 12.0346 23.588Z" fill="#FBFCFF"/>
<path d="M18.5713 22.1348C18.3252 22.1351 18.1259 22.3348 18.126 22.581C18.126 22.8271 18.3253 23.0267 18.5713 23.027H24.8229C25.0689 23.0266 25.2681 22.827 25.2681 22.581C25.2682 22.3349 25.069 22.1352 24.8229 22.1348H18.5713Z" fill="#455A64"/>
<path d="M18.5713 35.4375C18.3252 35.4378 18.1259 35.6376 18.126 35.8837C18.126 36.1298 18.3253 36.3294 18.5713 36.3297H24.8229C25.0689 36.3293 25.2681 36.1297 25.2681 35.8837C25.2682 35.6377 25.069 35.438 24.8229 35.4375H18.5713Z" fill="#455A64"/>
<path d="M21.4343 14.8447C21.188 14.8447 20.9883 15.0444 20.9883 15.2907C20.9882 15.5372 21.1879 15.737 21.4343 15.737H35.5909C35.8374 15.7371 36.0372 15.5372 36.0371 15.2907C36.0371 15.0443 35.8373 14.8446 35.5909 14.8447H21.4343Z" fill="#455A64"/>
<path d="M21.4343 10.8467C21.1882 10.8467 20.9886 11.046 20.9883 11.292C20.9882 11.5385 21.1879 11.7383 21.4343 11.7383H27.3466C27.5931 11.7384 27.7929 11.5385 27.7928 11.292C27.7925 11.0459 27.5927 10.8466 27.3466 10.8467H21.4343Z" fill="#455A64"/>
</svg>
