<svg width="30" height="30" viewBox="0 0 30 30" fill="none" xmlns="http://www.w3.org/2000/svg">
<rect opacity="0.1" x="4.73535" y="3.58911" width="20.1765" height="23.0588" rx="4.32353" fill="#FFD400"/>
<path d="M21.1289 27.7288C23.612 27.7288 25.6325 25.7083 25.6325 23.2252V7.01192C25.6325 4.52874 23.612 2.50824 21.1289 2.50824H8.51857C6.03539 2.50824 4.01489 4.52874 4.01489 7.01192V23.2252C4.01489 25.7083 6.03539 27.7288 8.51857 27.7288H21.1289ZM5.81636 7.01192C5.81636 5.52183 7.02849 4.30971 8.51857 4.30971H21.1289C22.6189 4.30971 23.8311 5.52183 23.8311 7.01192V23.2252C23.8311 24.7152 22.6189 25.9274 21.1289 25.9274H8.51857C7.02849 25.9274 5.81636 24.7152 5.81636 23.2252V7.01192Z" fill="#FFD400"/>
<path d="M13.0223 16.0192H20.2282C20.7261 16.0192 21.1289 15.6159 21.1289 15.1185C21.1289 14.6211 20.7261 14.2178 20.2282 14.2178H13.0223C12.5245 14.2178 12.1216 14.6211 12.1216 15.1185C12.1216 15.6159 12.5245 16.0192 13.0223 16.0192Z" fill="#232323"/>
<path d="M13.0223 11.5156H20.2282C20.7261 11.5156 21.1289 11.1123 21.1289 10.6148C21.1289 10.1174 20.7261 9.71411 20.2282 9.71411H13.0223C12.5245 9.71411 12.1216 10.1174 12.1216 10.6148C12.1216 11.1123 12.5245 11.5156 13.0223 11.5156Z" fill="#232323"/>
<path d="M13.0223 20.5229H20.2282C20.7261 20.5229 21.1289 20.1196 21.1289 19.6222C21.1289 19.1247 20.7261 18.7214 20.2282 18.7214H13.0223C12.5245 18.7214 12.1216 19.1247 12.1216 19.6222C12.1216 20.1196 12.5245 20.5229 13.0223 20.5229Z" fill="#232323"/>
<path d="M9.43663 11.5156C9.93449 11.5156 10.3374 11.1123 10.3374 10.6148C10.3374 10.1174 9.93449 9.71411 9.43663 9.71411H9.42783C8.93084 9.71411 8.53149 10.1174 8.53149 10.6148C8.53149 11.1123 8.93964 11.5156 9.43663 11.5156Z" fill="#232323"/>
<path d="M9.43663 16.0192C9.93449 16.0192 10.3374 15.6159 10.3374 15.1185C10.3374 14.6211 9.93449 14.2178 9.43663 14.2178H9.42783C8.93084 14.2178 8.53149 14.6211 8.53149 15.1185C8.53149 15.6159 8.93964 16.0192 9.43663 16.0192Z" fill="#232323"/>
<path d="M9.43663 20.5229C9.93449 20.5229 10.3374 20.1196 10.3374 19.6222C10.3374 19.1247 9.93449 18.7214 9.43663 18.7214H9.42783C8.93084 18.7214 8.53149 19.1247 8.53149 19.6222C8.53149 20.1196 8.93964 20.5229 9.43663 20.5229Z" fill="#232323"/>
</svg>
