<svg width="54" height="54" viewBox="0 0 54 54" fill="none" xmlns="http://www.w3.org/2000/svg">
<path d="M36.8038 25.4549L23.5382 38.7205L15.2803 30.4626L28.5459 17.197C29.3834 16.3595 30.7413 16.3595 31.5789 17.197L36.8038 22.4219C37.6413 23.2594 37.6413 24.6173 36.8038 25.4549Z" fill="#474646"/>
<path d="M36.8026 25.4561L23.5379 38.7207L15.2793 30.4621L17.9769 27.7645L21.4576 31.2453C23.2053 32.993 26.039 32.993 27.7867 31.2453L36.7093 22.3228L36.8078 22.4213C37.643 23.2565 37.643 24.6157 36.8026 25.4561Z" fill="#2D2C2C"/>
<path d="M49.9226 11.4652C48.662 12.7258 46.9086 13.2031 45.2745 12.897L36.2792 21.8923L32.1084 17.7215L41.1037 8.72617C40.7976 7.0921 41.2749 5.33869 42.5355 4.07811C44.5794 2.03419 47.8839 2.03939 49.9226 4.07811C51.9613 6.11683 51.9665 9.42133 49.9226 11.4652Z" fill="#E4E3FF"/>
<path d="M49.9223 11.4653C48.6617 12.7259 46.9083 13.2032 45.2742 12.8971L36.2789 21.8924L35.5215 21.135L44.1647 12.4918C44.3865 12.27 44.6976 12.1798 45.01 12.208C46.4966 12.3425 48.0303 11.8424 49.1649 10.7079C51.0791 8.7937 51.1984 5.76932 49.5228 3.72021C49.6629 3.8292 49.7978 3.9537 49.9223 4.07819C51.961 6.11691 51.9662 9.42141 49.9223 11.4653Z" fill="#C2C2EF"/>
<path d="M48.2558 9.79228C47.139 10.9091 45.3266 10.9091 44.2077 9.79016C43.0909 8.67338 43.0909 6.86101 44.2077 5.74423C45.3266 4.62532 47.139 4.62532 48.2557 5.7421C49.3747 6.86101 49.3747 8.67338 48.2558 9.79228Z" fill="white"/>
<path d="M28.5626 42.6939L24.2668 46.9898C22.8417 48.4148 20.5312 48.4148 19.1062 46.9898L7.0102 34.8938C5.58514 33.4687 5.58514 31.1583 7.0102 29.7332L11.3061 25.4373C11.9445 24.7989 12.9796 24.7989 13.6181 25.4373L28.5626 40.3819C29.2011 41.0203 29.2011 42.0555 28.5626 42.6939Z" fill="#7979F7"/>
<path d="M28.56 42.6947L24.2646 46.99C22.8432 48.4114 20.5347 48.4166 19.1081 46.99L7.01066 34.8925C5.90054 33.7824 5.65674 32.1483 6.27403 30.8047C6.44523 31.3701 6.74612 31.8993 7.18705 32.3402L19.2845 44.4377C20.7111 45.8643 23.0196 45.8591 24.441 44.4376L28.5288 40.3498L28.5599 40.381C29.198 41.0191 29.198 42.0566 28.56 42.6947Z" fill="#5E5EEF"/>
<path d="M12.3077 49.7763C9.81497 52.269 5.60267 51.9806 3.5157 48.9191C2.25474 47.0693 2.2201 44.5726 3.43126 42.6898C4.17711 41.5304 5.22405 40.7518 6.37011 40.3503C7.69682 39.8855 8.8864 39.0984 9.88043 38.1044L10.0507 37.9341L16.0656 43.949L15.9172 44.0973C14.869 45.1456 14.1301 46.4398 13.5904 47.8205C13.3117 48.5336 12.8825 49.2014 12.3077 49.7763Z" fill="#474646"/>
<path d="M15.492 44.5569L13.9075 42.9725C11.9214 40.9863 8.97235 40.4707 6.33434 41.4353C6.32091 41.4402 6.30758 41.4449 6.29435 41.4495C5.14272 41.8542 4.09482 42.6323 3.35303 43.7892C2.93799 44.4428 2.66826 45.169 2.54892 45.9109C2.51261 44.7956 2.80311 43.6647 3.43082 42.6946C4.19021 41.5133 5.2605 40.7287 6.42377 40.33C7.78713 39.8627 8.98149 39.0011 10.0006 37.982L10.0502 37.9324L16.0678 43.95L15.9174 44.1004C15.7669 44.2509 15.6269 44.4013 15.492 44.5569Z" fill="#2D2C2C"/>
<path d="M8.15167 48.9188C9.84429 48.9188 11.2164 47.5467 11.2164 45.8541C11.2164 44.1614 9.84429 42.7893 8.15167 42.7893C6.45905 42.7893 5.08691 44.1614 5.08691 45.8541C5.08691 47.5467 6.45905 48.9188 8.15167 48.9188Z" fill="white"/>
<path d="M47.1439 21.9536C46.7597 22.6131 45.9136 22.8362 45.2541 22.4519L29.4433 13.2394C28.7838 12.8552 28.5607 12.009 28.945 11.3496C29.3292 10.6901 30.1754 10.467 30.8348 10.8512L46.6456 20.0638C47.3051 20.448 47.5282 21.2941 47.1439 21.9536Z" fill="#F9B938"/>
<path d="M43.1166 25.9805C42.7323 26.6399 41.8862 26.8631 41.2267 26.4788L25.416 17.2663C24.7565 16.882 24.5334 16.0359 24.9176 15.3764C25.3019 14.7169 26.148 14.4938 26.8075 14.8781L42.6183 24.0906C43.2777 24.4749 43.5009 25.321 43.1166 25.9805Z" fill="#F9B938"/>
<path d="M39.0902 30.0076C38.706 30.667 37.8598 30.8902 37.2004 30.5059L21.3896 21.2934C20.7301 20.9091 20.507 20.063 20.8913 19.4035C21.2755 18.744 22.1216 18.5209 22.7811 18.9052L38.5919 28.1177C39.2514 28.502 39.4745 29.3481 39.0902 30.0076Z" fill="#F9B938"/>
<path d="M35.0629 34.0344C34.6786 34.6939 33.8325 34.917 33.173 34.5328L17.3622 25.3202C16.7028 24.936 16.4797 24.0898 16.8639 23.4304C17.2482 22.7709 18.0943 22.5478 18.7538 22.932L34.5646 32.1446C35.224 32.5288 35.4471 33.3749 35.0629 34.0344Z" fill="#F9B938"/>
<path d="M45.2531 22.4526L29.4412 13.2395C28.7876 12.8556 28.5646 12.01 28.9433 11.3512C29.0055 11.2475 29.0781 11.1541 29.1611 11.0711C29.2908 10.9414 29.4464 10.8376 29.6125 10.7754C29.3375 11.4031 29.5761 12.1501 30.1831 12.4977L45.9949 21.7108C46.384 21.9443 46.8301 21.9547 47.214 21.7886C47.1984 21.8457 47.1724 21.9028 47.1414 21.9547C46.7627 22.6135 45.9171 22.8366 45.2531 22.4526Z" fill="#E5A320"/>
<path d="M41.2272 26.4783L25.4154 17.2651C24.7566 16.8864 24.5335 16.0409 24.9174 15.3768C24.9796 15.2731 25.0523 15.1797 25.1353 15.0967C25.265 14.967 25.4154 14.8684 25.5762 14.801C25.3169 15.4339 25.5503 16.1757 26.1521 16.5285L41.9638 25.7416C42.3581 25.9699 42.8146 25.9803 43.1933 25.8195C43.1726 25.8714 43.1466 25.9284 43.1155 25.9803C42.7316 26.6443 41.886 26.8674 41.2272 26.4783Z" fill="#E5A320"/>
<path d="M37.2018 30.5038L21.39 21.2907C20.7312 20.912 20.5081 20.0664 20.892 19.4024C20.9543 19.2987 21.0269 19.2053 21.1099 19.1223C21.2396 18.9926 21.39 18.894 21.556 18.8318C21.2915 19.4595 21.5249 20.2013 22.1267 20.554L37.9384 29.7672C38.3327 29.9955 38.7892 30.0059 39.1679 29.845C39.1472 29.8969 39.1212 29.954 39.0901 30.0059C38.7062 30.6699 37.8606 30.8929 37.2018 30.5038Z" fill="#E5A320"/>
<path d="M33.171 34.5347L17.3592 25.3215C16.7056 24.9376 16.4825 24.092 16.8612 23.4332C16.9235 23.3295 16.9961 23.2361 17.0791 23.1531C17.2088 23.0234 17.3644 22.9196 17.5304 22.8574C17.2555 23.4851 17.4941 24.2321 18.101 24.5797L33.9128 33.7929C34.3071 34.0211 34.7584 34.0367 35.1423 33.8706C35.1216 33.9225 35.0956 33.9796 35.0645 34.0315C34.6806 34.6955 33.835 34.9186 33.171 34.5347Z" fill="#E5A320"/>
<g opacity="0.3">
<path d="M24.5515 40.7717L20.8546 37.0747C20.5681 36.7883 20.5679 36.324 20.8546 36.0372C21.1413 35.7505 21.6056 35.7507 21.8921 36.0372L25.589 39.7341C25.8755 40.0206 25.8758 40.4849 25.589 40.7717C25.3023 41.0584 24.838 41.0582 24.5515 40.7717Z" fill="white"/>
</g>
<g opacity="0.3">
<path d="M9.49328 31.2737C9.20679 30.9872 9.20654 30.5229 9.49328 30.2362L10.5055 29.224C10.7922 28.9373 11.2565 28.9375 11.543 29.224C11.8295 29.5105 11.8297 29.9748 11.543 30.2615L10.5308 31.2737C10.2441 31.5604 9.77976 31.5602 9.49328 31.2737Z" fill="white"/>
</g>
<g opacity="0.3">
<path d="M38.8224 13.3954C38.679 13.252 38.679 13.02 38.8224 12.8766L40.8625 10.8365C41.0058 10.6932 41.2378 10.6932 41.3812 10.8365C41.5246 10.9799 41.5246 11.2119 41.3812 11.3553L39.3411 13.3954C39.1978 13.5387 38.9657 13.5387 38.8224 13.3954Z" fill="white"/>
</g>
</svg>
