<svg width="24" height="25" viewBox="0 0 24 25" fill="none" xmlns="http://www.w3.org/2000/svg">
<path fill-rule="evenodd" clip-rule="evenodd" d="M19.9674 7.7606C18.2372 9.49078 14.1763 13.5509 13.1859 14.5381C12.9718 14.7513 12.7171 14.9198 12.4437 15.0296C11.6494 15.3592 9.71166 16.1193 9.14199 16.1576C8.80263 16.1804 8.46978 16.055 8.22889 15.8141C7.988 15.5733 7.86267 15.2404 7.88546 14.901C7.92371 14.3314 8.68381 12.3953 9.00771 11.6043C9.12083 11.3235 9.28929 11.0688 9.50333 10.8556L16.2824 4.07563C16.6104 3.74766 17.0564 3.56293 17.5202 3.56293C17.9841 3.56293 18.4301 3.74766 18.7581 4.07563L19.9674 5.28497C20.2954 5.61294 20.4801 6.05891 20.4801 6.52278C20.4801 6.98666 20.2954 7.43263 19.9674 7.7606ZM9.10863 14.9344C9.66528 14.8644 11.2921 14.1857 11.9757 13.9017C11.9781 13.9009 11.9806 13.9 11.9822 13.8992C12.11 13.848 12.2255 13.7715 12.3224 13.6746L12.3232 13.6738C13.3153 12.6866 17.3746 8.62732 19.1039 6.89714C19.2032 6.79785 19.2594 6.66357 19.2594 6.52278C19.2594 6.38199 19.2032 6.24771 19.1039 6.14843L17.8946 4.93909C17.7953 4.83981 17.661 4.78365 17.5202 4.78365C17.3795 4.78365 17.2452 4.83981 17.1459 4.93909L10.366 11.719C10.2683 11.8159 10.1918 11.9322 10.1405 12.06L10.1389 12.0633C9.85815 12.7485 9.17861 14.3769 9.10863 14.9344Z" fill="#429DF8"/>
<path fill-rule="evenodd" clip-rule="evenodd" d="M18.355 8.50932C18.5927 8.74777 18.5927 9.13433 18.355 9.37278C18.1166 9.61123 17.73 9.61123 17.4916 9.37278L14.67 6.55127C14.4316 6.31282 14.4316 5.92626 14.67 5.68781C14.9085 5.45017 15.2951 5.45017 15.5335 5.68781L18.355 8.50932Z" fill="#429DF8"/>
<path fill-rule="evenodd" clip-rule="evenodd" d="M13.3737 13.4907C13.6122 13.7283 13.6122 14.1157 13.3737 14.3533C13.1361 14.5918 12.7487 14.5918 12.5111 14.3533L9.68958 11.5318C9.45113 11.2942 9.45113 10.9068 9.68958 10.6692C9.92721 10.4307 10.3146 10.4307 10.5522 10.6692L13.3737 13.4907Z" fill="#429DF8"/>
<path fill-rule="evenodd" clip-rule="evenodd" d="M8.90018 5.17349C9.2371 5.17349 9.51055 5.44694 9.51055 5.78386C9.51055 6.12078 9.2371 6.39422 8.90018 6.39422H6.05182C5.04024 6.39422 4.22073 7.21373 4.22073 8.22531V17.9911C4.22073 18.477 4.4136 18.9425 4.75703 19.2859C5.10046 19.6293 5.56597 19.8222 6.05182 19.8222H16.6315C17.1173 19.8222 17.5828 19.6293 17.9262 19.2859C18.2697 18.9425 18.4625 18.477 18.4625 17.9911V15.1428C18.4625 14.8058 18.736 14.5324 19.0729 14.5324C19.4098 14.5324 19.6833 14.8058 19.6833 15.1428V17.9911C19.6833 18.8009 19.3618 19.5764 18.7897 20.1494C18.2168 20.7215 17.4412 21.0429 16.6315 21.0429H6.05182C5.24207 21.0429 4.4665 20.7215 3.89357 20.1494C3.32146 19.5764 3 18.8009 3 17.9911V8.22531C3 6.53989 4.3664 5.17349 6.05182 5.17349H8.90018Z" fill="#429DF8"/>
</svg>
