<svg width="18" height="19" viewBox="0 0 18 19" fill="none" xmlns="http://www.w3.org/2000/svg">
<path fill-rule="evenodd" clip-rule="evenodd" d="M14.9756 5.68482C13.6779 6.98245 10.6322 10.0276 9.88939 10.7679C9.72887 10.9278 9.53782 11.0542 9.33274 11.1366C8.73702 11.3838 7.28375 11.9539 6.85649 11.9825C6.60197 11.9996 6.35233 11.9056 6.17167 11.725C5.991 11.5443 5.897 11.2947 5.91409 11.0401C5.94278 10.6129 6.51286 9.16084 6.75578 8.56756C6.84062 8.35699 6.96697 8.16594 7.1275 8.00603L12.2118 2.92109C12.4578 2.67511 12.7923 2.53656 13.1402 2.53656C13.4881 2.53656 13.8226 2.67511 14.0686 2.92109L14.9756 3.82809C15.2215 4.07407 15.3601 4.40855 15.3601 4.75645C15.3601 5.10436 15.2215 5.43884 14.9756 5.68482ZM6.83147 11.0652C7.24896 11.0127 8.46908 10.5036 8.98178 10.2906C8.98361 10.29 8.98544 10.2894 8.98666 10.2888C9.08249 10.2503 9.16916 10.193 9.2418 10.1203L9.24241 10.1197C9.98644 9.37935 13.0309 6.33485 14.328 5.03722C14.4024 4.96276 14.4445 4.86205 14.4445 4.75645C14.4445 4.65086 14.4024 4.55015 14.328 4.47569L13.421 3.56868C13.3465 3.49422 13.2458 3.45211 13.1402 3.45211C13.0346 3.45211 12.9339 3.49422 12.8594 3.56868L7.77448 8.65362C7.70124 8.72626 7.64386 8.81354 7.60541 8.90937L7.60419 8.91181C7.39361 9.42573 6.88396 10.6471 6.83147 11.0652Z" fill="black"/>
<path fill-rule="evenodd" clip-rule="evenodd" d="M13.7665 6.24636C13.9447 6.4252 13.9447 6.71512 13.7665 6.89395C13.5877 7.07279 13.2977 7.07279 13.1189 6.89395L11.0028 4.77782C10.8239 4.59899 10.8239 4.30906 11.0028 4.13023C11.1816 3.952 11.4715 3.952 11.6504 4.13023L13.7665 6.24636Z" fill="black"/>
<path fill-rule="evenodd" clip-rule="evenodd" d="M10.0305 9.9824C10.2094 10.1606 10.2094 10.4512 10.0305 10.6294C9.85232 10.8082 9.56178 10.8082 9.38356 10.6294L7.26743 8.51325C7.08859 8.33503 7.08859 8.04449 7.26743 7.86627C7.44565 7.68743 7.73619 7.68743 7.91441 7.86627L10.0305 9.9824Z" fill="black"/>
<path fill-rule="evenodd" clip-rule="evenodd" d="M6.67514 3.74448C6.92783 3.74448 7.13291 3.94956 7.13291 4.20225C7.13291 4.45494 6.92783 4.66003 6.67514 4.66003H4.53886C3.78018 4.66003 3.16555 5.27466 3.16555 6.03334V13.3577C3.16555 13.7221 3.3102 14.0712 3.56778 14.3288C3.82535 14.5864 4.17448 14.731 4.53886 14.731H12.4736C12.838 14.731 13.1871 14.5864 13.4447 14.3288C13.7023 14.0712 13.8469 13.7221 13.8469 13.3577V11.2214C13.8469 10.9687 14.052 10.7637 14.3047 10.7637C14.5574 10.7637 14.7625 10.9687 14.7625 11.2214V13.3577C14.7625 13.965 14.5214 14.5467 14.0923 14.9764C13.6626 15.4055 13.0809 15.6466 12.4736 15.6466H4.53886C3.93155 15.6466 3.34988 15.4055 2.92018 14.9764C2.49109 14.5467 2.25 13.965 2.25 13.3577V6.03334C2.25 4.76928 3.2748 3.74448 4.53886 3.74448H6.67514Z" fill="black"/>
</svg>
