<svg width="13" height="12" viewBox="0 0 13 12" fill="none" xmlns="http://www.w3.org/2000/svg">
<path fill-rule="evenodd" clip-rule="evenodd" d="M6.375 12C9.68869 12 12.375 9.31369 12.375 6C12.375 2.68629 9.68869 0 6.375 0C3.06129 0 0.375 2.68629 0.375 6C0.375 9.31369 3.06129 12 6.375 12ZM6.92045 2.72727C6.92045 2.42603 6.67625 2.18182 6.375 2.18182C6.07375 2.18182 5.82955 2.42603 5.82955 2.72727V3.04665C5.05978 3.22471 4.46591 3.89357 4.46591 4.72407C4.46591 5.55065 5.06313 6.24093 5.86462 6.40926L6.62405 6.56875C6.97145 6.64173 7.19318 6.92815 7.19318 7.2306C7.19318 7.58455 6.88778 7.90909 6.46369 7.90909H6.375C5.97895 7.90909 5.66673 7.65049 5.58115 7.33145C5.50315 7.04051 5.20404 6.86787 4.91307 6.94587C4.62211 7.02387 4.44946 7.323 4.52747 7.614C4.69782 8.24935 5.19922 8.74058 5.82955 8.92298V9.27273C5.82955 9.57398 6.07375 9.81818 6.375 9.81818C6.67625 9.81818 6.92045 9.57398 6.92045 9.27273V8.94338C7.69331 8.74822 8.28409 8.06945 8.28409 7.2306C8.28409 6.38269 7.67144 5.67398 6.84824 5.50113L6.0888 5.34164C5.76305 5.27324 5.55682 5.0052 5.55682 4.72407C5.55682 4.39516 5.84105 4.09091 6.23907 4.09091H6.375C6.77105 4.09091 7.08327 4.3495 7.16886 4.66852C7.24685 4.95949 7.54598 5.13213 7.83693 5.05413C8.12787 4.97613 8.30051 4.67699 8.22251 4.38602C8.05216 3.75065 7.55078 3.25944 6.92045 3.07702V2.72727Z" fill="#B217FB"/>
</svg>
