<svg width="13" height="12" viewBox="0 0 13 12" fill="none" xmlns="http://www.w3.org/2000/svg">
<path fill-rule="evenodd" clip-rule="evenodd" d="M4.37543 8.46153C4.37705 7.27876 4.84763 6.1449 5.68398 5.30855C6.52032 4.4722 7.65419 4.00163 8.83696 4C9.3079 3.99904 9.77575 4.07597 10.2216 4.22769C10.5468 4.32737 10.8573 4.47018 11.1447 4.65231V1.07692C11.143 0.791803 11.0291 0.518821 10.8274 0.317208C10.6258 0.115595 10.3528 0.00161545 10.0677 0H8.06773V2.30769C8.06612 2.59281 7.95214 2.86579 7.75052 3.0674C7.54891 3.26902 7.27593 3.383 6.99081 3.38461H4.52927C4.24415 3.383 3.97117 3.26902 3.76956 3.0674C3.56794 2.86579 3.45396 2.59281 3.45235 2.30769V0H1.45235C1.16723 0.00161545 0.894249 0.115595 0.692636 0.317208C0.491023 0.518821 0.377043 0.791803 0.375427 1.07692V9.6923C0.377043 9.97742 0.491023 10.2504 0.692636 10.452C0.894249 10.6536 1.16723 10.7676 1.45235 10.7692H5.02773C4.84561 10.4819 4.7028 10.1714 4.60312 9.84615C4.4514 9.40032 4.37446 8.93247 4.37543 8.46153ZM4.52927 2.46154H6.99081C7.03161 2.46154 7.07074 2.44533 7.09959 2.41648C7.12845 2.38762 7.14465 2.34849 7.14465 2.30769V0H4.37542V2.30769C4.37542 2.34849 4.39163 2.38762 4.42049 2.41648C4.44934 2.44533 4.48847 2.46154 4.52927 2.46154ZM6.8711 5.51942C7.453 5.13061 8.13712 4.92308 8.83696 4.92308C9.30187 4.92227 9.76236 5.01324 10.192 5.19078C10.6217 5.36831 11.0121 5.62892 11.3408 5.95766C11.6696 6.2864 11.9302 6.6768 12.1077 7.10647C12.2853 7.53614 12.3762 7.99663 12.3754 8.46154C12.3754 9.16138 12.1679 9.8455 11.7791 10.4274C11.3903 11.0093 10.8376 11.4628 10.1911 11.7306C9.5445 11.9985 8.83304 12.0685 8.14664 11.932C7.46025 11.7955 6.82976 11.4585 6.33489 10.9636C5.84003 10.4687 5.50303 9.83825 5.36649 9.15186C5.22996 8.46546 5.30003 7.754 5.56785 7.10743C5.83567 6.46086 6.2892 5.90823 6.8711 5.51942ZM10.1853 9.38461C10.1853 9.27109 10.1434 9.16154 10.0677 9.07692L9.45235 8.46154L10.0677 7.84615C10.1344 7.81433 10.1924 7.76699 10.2369 7.7081C10.2815 7.64921 10.3112 7.5805 10.3237 7.50772C10.3362 7.43495 10.331 7.36024 10.3087 7.28988C10.2863 7.21951 10.2474 7.15553 10.1952 7.10332C10.143 7.05111 10.079 7.01219 10.0086 6.98982C9.93826 6.96746 9.86355 6.9623 9.79078 6.97479C9.718 6.98727 9.64929 7.01704 9.5904 7.06158C9.53151 7.10612 9.48417 7.16414 9.45235 7.23077L8.83696 7.84615L8.22158 7.23077C8.18976 7.16414 8.14242 7.10612 8.08353 7.06158C8.02464 7.01704 7.95592 6.98727 7.88315 6.97479C7.81037 6.9623 7.73567 6.96746 7.6653 6.98982C7.59493 7.01219 7.53095 7.05111 7.47874 7.10332C7.42653 7.15553 7.38761 7.21951 7.36524 7.28988C7.34288 7.36024 7.33772 7.43495 7.35021 7.50772C7.3627 7.5805 7.39246 7.64921 7.437 7.7081C7.48154 7.76699 7.53957 7.81433 7.60619 7.84615L8.22158 8.46154L7.60619 9.07692C7.53051 9.16154 7.48867 9.27109 7.48867 9.38461C7.48867 9.49814 7.53051 9.60769 7.60619 9.69231C7.69081 9.76799 7.80036 9.80984 7.91389 9.80984C8.02741 9.80984 8.13696 9.76799 8.22158 9.69231L8.83696 9.07692L9.45235 9.69231C9.53697 9.76799 9.64651 9.80984 9.76004 9.80984C9.87357 9.80984 9.98311 9.76799 10.0677 9.69231C10.1434 9.60769 10.1853 9.49814 10.1853 9.38461Z" fill="#C12D0D"/>
</svg>
