<svg width="24" height="25" viewBox="0 0 24 25" fill="none" xmlns="http://www.w3.org/2000/svg">
<path d="M19.9166 19.0629H4.75C3.78501 19.0629 3 18.2779 3 17.3129V14.3962C3 14.0738 3.2609 13.8129 3.58333 13.8129C4.54833 13.8129 5.33334 13.0279 5.33334 12.0629C5.33334 11.0979 4.54833 10.3129 3.58333 10.3129C3.2609 10.3129 3 10.052 3 9.72961V6.81293C3 5.84793 3.78501 5.06293 4.75 5.06293H19.9166C20.8816 5.06293 21.6666 5.84793 21.6666 6.81293V9.72961C21.6666 10.052 21.4057 10.3129 21.0833 10.3129C20.1183 10.3129 19.3333 11.0979 19.3333 12.0629C19.3333 13.0279 20.1183 13.813 21.0833 13.813C21.4057 13.813 21.6666 14.0738 21.6666 14.3963V17.313C21.6666 18.2779 20.8816 19.0629 19.9166 19.0629ZM4.16667 14.9209V17.3129C4.16667 17.6348 4.42816 17.8963 4.75 17.8963H19.9166C20.2385 17.8963 20.5 17.6348 20.5 17.3129V14.9209C19.1704 14.6498 18.1666 13.4717 18.1666 12.0629C18.1666 10.6541 19.1704 9.47609 20.5 9.20491V6.81293C20.5 6.49108 20.2385 6.2296 19.9166 6.2296H4.75C4.42816 6.2296 4.16667 6.49108 4.16667 6.81293V9.20495C5.49625 9.47609 6.50001 10.6542 6.50001 12.0629C6.50001 13.4717 5.49625 14.6498 4.16667 14.9209Z" fill="#FFD400"/>
<path d="M10.0376 16.5168L13.5363 7.18679L14.6287 7.59643L11.13 16.9264L10.0376 16.5168Z" fill="#FFD400"/>
<path d="M9.57373 12.2592C8.60874 12.2592 7.82373 11.4742 7.82373 10.5092C7.82373 9.54422 8.60874 8.75922 9.57373 8.75922C10.5387 8.75922 11.3237 9.54422 11.3237 10.5092C11.3237 11.4742 10.5387 12.2592 9.57373 12.2592ZM9.57373 9.92589C9.25189 9.92589 8.9904 10.1874 8.9904 10.5092C8.9904 10.8311 9.25189 11.0926 9.57373 11.0926C9.89558 11.0926 10.1571 10.8311 10.1571 10.5092C10.1571 10.1874 9.89558 9.92589 9.57373 9.92589Z" fill="#FFD400"/>
<path d="M15.6035 15.8771C14.6385 15.8771 13.8535 15.0921 13.8535 14.1271C13.8535 13.1621 14.6385 12.3771 15.6035 12.3771C16.5685 12.3771 17.3535 13.1621 17.3535 14.1271C17.3535 15.0921 16.5685 15.8771 15.6035 15.8771ZM15.6035 13.5438C15.2817 13.5438 15.0202 13.8053 15.0202 14.1271C15.0202 14.449 15.2817 14.7105 15.6035 14.7105C15.9254 14.7105 16.1869 14.449 16.1869 14.1271C16.1869 13.8053 15.9254 13.5438 15.6035 13.5438Z" fill="#FFD400"/>
</svg>
