<svg width="24" height="25" viewBox="0 0 24 25" fill="none" xmlns="http://www.w3.org/2000/svg">
<g clip-path="url(#clip0_1128_24065)">
<path d="M21.75 21.6446H2.25001C1.0093 21.6446 0 20.6353 0 19.3946V15.6446C0 15.23 0.335439 14.8946 0.750005 14.8946C1.99072 14.8946 3.00002 13.8853 3.00002 12.6445C3.00002 11.4038 1.99072 10.3945 0.750005 10.3945C0.335439 10.3946 0 10.0591 0 9.64457V5.89455C0 4.65383 1.0093 3.64453 2.25001 3.64453H21.75C22.9908 3.64453 24 4.65383 24 5.89455V9.64457C24 10.0591 23.6646 10.3946 23.25 10.3946C22.0093 10.3946 21 11.4039 21 12.6446C21 13.8853 22.0093 14.8946 23.25 14.8946C23.6646 14.8946 24 15.23 24 15.6446V19.3946C24 20.6353 22.9908 21.6446 21.75 21.6446ZM1.50001 16.3191V19.3946C1.50001 19.8084 1.83621 20.1446 2.25001 20.1446H21.75C22.1638 20.1446 22.5 19.8084 22.5 19.3946V16.3191C20.7906 15.9705 19.5 14.4558 19.5 12.6445C19.5 10.8332 20.7905 9.31862 22.5 8.96995V5.89455C22.5 5.48074 22.1638 5.14454 21.75 5.14454H2.25001C1.83621 5.14454 1.50001 5.48074 1.50001 5.89455V8.97C3.20947 9.31862 4.50003 10.8333 4.50003 12.6446C4.50003 14.4559 3.20947 15.9705 1.50001 16.3191Z" fill="#6B7280"/>
<path d="M9.04834 18.3708L13.5467 6.3751L14.9512 6.90178L10.4528 18.8975L9.04834 18.3708Z" fill="#6B7280"/>
<path d="M8.45216 12.897C7.21145 12.897 6.20215 11.8877 6.20215 10.647C6.20215 9.40627 7.21145 8.39697 8.45216 8.39697C9.69288 8.39697 10.7022 9.40627 10.7022 10.647C10.7022 11.8877 9.69288 12.897 8.45216 12.897ZM8.45216 9.89698C8.03835 9.89698 7.70216 10.2332 7.70216 10.647C7.70216 11.0608 8.03835 11.397 8.45216 11.397C8.86597 11.397 9.20217 11.0608 9.20217 10.647C9.20217 10.2332 8.86597 9.89698 8.45216 9.89698Z" fill="#6B7280"/>
<path d="M16.2046 17.5486C14.9639 17.5486 13.9546 16.5393 13.9546 15.2986C13.9546 14.0579 14.9639 13.0486 16.2046 13.0486C17.4453 13.0486 18.4546 14.0579 18.4546 15.2986C18.4546 16.5393 17.4453 17.5486 16.2046 17.5486ZM16.2046 14.5486C15.7908 14.5486 15.4546 14.8848 15.4546 15.2986C15.4546 15.7124 15.7908 16.0486 16.2046 16.0486C16.6184 16.0486 16.9546 15.7124 16.9546 15.2986C16.9546 14.8848 16.6184 14.5486 16.2046 14.5486Z" fill="#6B7280"/>
</g>
<defs>
<clipPath id="clip0_1128_24065">
<rect width="24" height="24" fill="white" transform="translate(0 0.644531)"/>
</clipPath>
</defs>
</svg>
