<svg width="24" height="25" viewBox="0 0 24 25" fill="currentColor" xmlns="http://www.w3.org/2000/svg">
<g clip-path="url(#clip0_5098_30476)">
<path d="M10.0151 6.88289L9.90187 8.31839C9.88666 8.51151 9.9729 8.69862 10.1296 8.81247C10.2864 8.92632 10.4909 8.95051 10.6699 8.87637L12.0001 8.32511L13.3304 8.87633C13.5085 8.95022 13.7136 8.92662 13.8707 8.81243C14.0274 8.69858 14.1137 8.51144 14.0985 8.31836L13.9853 6.88285L14.9206 5.78802C15.0465 5.64077 15.0866 5.43867 15.0268 5.25446C14.9669 5.07025 14.8156 4.93038 14.6273 4.88518L13.2271 4.54923L12.4749 3.32136C12.3736 3.15622 12.1939 3.05554 12.0001 3.05554C11.8064 3.05554 11.6267 3.15622 11.5255 3.32139L10.7733 4.54927L9.37307 4.88522C9.1847 4.93042 9.0334 5.07025 8.97355 5.25449C8.91369 5.43871 8.95388 5.6408 9.07972 5.78805L10.0151 6.88289ZM11.2573 5.57798C11.4009 5.54354 11.5249 5.4534 11.6021 5.32749L12.0001 4.67774L12.3982 5.32749C12.4754 5.4534 12.5994 5.54354 12.743 5.57798L13.4839 5.75577L12.989 6.33512C12.8931 6.44741 12.8457 6.59322 12.8573 6.74043L12.9172 7.50002L12.2133 7.20834C12.0768 7.15182 11.9235 7.15182 11.7871 7.20834L11.0832 7.50002L11.1431 6.74043C11.1547 6.59318 11.1073 6.44741 11.0114 6.33512L10.5164 5.75577L11.2573 5.57798Z" fill="currentColor"/>
<path d="M21.4725 7.44392C21.4127 7.25971 21.2614 7.11984 21.073 7.07464L19.6728 6.73869L18.9206 5.51082C18.8194 5.34564 18.6396 5.24496 18.446 5.24496C18.2523 5.24496 18.0725 5.34564 17.9713 5.51082L17.2191 6.73869L15.8189 7.07464C15.6305 7.11984 15.4792 7.25967 15.4193 7.44392C15.3595 7.62813 15.3997 7.83023 15.5255 7.97748L16.4609 9.07231L16.3477 10.5078C16.3325 10.7009 16.4187 10.888 16.5754 11.0019C16.7322 11.1157 16.9367 11.14 17.1157 11.0658L18.446 10.5146L19.7762 11.0658C19.9543 11.1397 20.1594 11.1161 20.3165 11.0019C20.4732 10.888 20.5595 10.7009 20.5443 10.5078L20.4311 9.07231L21.3664 7.97748C21.4922 7.83023 21.5324 7.62813 21.4725 7.44392ZM19.4348 8.52454C19.3388 8.6368 19.2915 8.78264 19.3031 8.92985L19.363 9.68948L18.659 9.3978C18.5226 9.34128 18.3693 9.34128 18.2329 9.3978L17.5289 9.68948L17.5888 8.92989C17.6004 8.78264 17.553 8.63684 17.4571 8.52454L16.9621 7.94519L17.7031 7.76744C17.8467 7.733 17.9707 7.64286 18.0479 7.51695L18.446 6.8672L18.844 7.51695C18.9211 7.6429 19.0452 7.733 19.1888 7.76744L19.9297 7.94523L19.4348 8.52454Z" fill="currentColor"/>
<path d="M7.4244 11.0019C7.58111 10.888 7.66735 10.7009 7.65214 10.5078L7.53895 9.07231L8.47429 7.97748C8.60013 7.83023 8.64032 7.62813 8.58046 7.44392C8.52061 7.25971 8.36931 7.11984 8.18094 7.07464L6.78073 6.73869L6.02853 5.51082C5.92733 5.34564 5.74757 5.24496 5.55386 5.24496C5.36015 5.24496 5.18039 5.34564 5.0792 5.51082L4.32699 6.73869L2.92678 7.07464C2.73841 7.11984 2.58712 7.25967 2.52726 7.44392C2.4674 7.62813 2.50759 7.83023 2.63343 7.97748L3.56877 9.07231L3.45559 10.5078C3.44037 10.7009 3.52661 10.888 3.68333 11.0019C3.84041 11.1161 4.04555 11.1397 4.2236 11.0658L5.55386 10.5146L6.88416 11.0658C7.06306 11.1399 7.26772 11.1158 7.4244 11.0019ZM6.41098 8.92989L6.47087 9.68948L5.76691 9.3978C5.63046 9.34128 5.47716 9.34128 5.34074 9.3978L4.63681 9.68948L4.69671 8.92985C4.70832 8.78264 4.66094 8.63684 4.56501 8.52454L4.07008 7.94523L4.81104 7.76744C4.95466 7.733 5.07868 7.64286 5.15583 7.51695L5.55386 6.8672L5.95193 7.51695C6.02908 7.64286 6.1531 7.733 6.29672 7.76744L7.03768 7.94519L6.54271 8.52454C6.44675 8.63684 6.39936 8.78264 6.41098 8.92989Z" fill="currentColor"/>
<path d="M18.3456 15.2044C17.9814 14.7709 17.4478 14.5223 16.8817 14.5223H14.809L15.1715 13.3936C15.2411 13.1813 15.2764 12.9611 15.2764 12.7388C15.2764 11.826 14.6931 11.0224 13.8252 10.7391C13.1779 10.5274 12.479 10.8817 12.2667 11.531L11.4219 14.1474C11.3198 14.4601 11.0738 14.7133 10.764 14.8244L9.81055 15.1659V14.8192C9.81055 14.5118 9.56132 14.2626 9.25391 14.2626H6.43359C6.12618 14.2626 5.87695 14.5118 5.87695 14.8192V21.4989C5.87695 21.8063 6.12618 22.0555 6.43359 22.0555H9.25391C9.56132 22.0555 9.81055 21.8063 9.81055 21.4989V20.9762C10.0963 21 10.3618 21.1225 10.5665 21.3272C10.9952 21.7605 11.6031 22.0121 12.2134 22.0095H15.9128C17.0344 22.0095 17.9887 21.2075 18.1819 20.1025L18.7649 16.7632C18.8624 16.2058 18.7096 15.6376 18.3456 15.2044ZM8.69727 20.9422H6.99023V15.3758H8.69727V20.9422ZM17.6682 16.5715L17.0853 19.9108C16.9855 20.4818 16.4923 20.8962 15.9129 20.8962H12.2134C11.8946 20.8975 11.5781 20.7667 11.3542 20.5405C10.9387 20.125 10.3938 19.8861 9.81055 19.8608V16.3485L11.1395 15.8724C11.771 15.6459 12.2722 15.1302 12.4807 14.4911L13.3254 11.8751C13.3463 11.8113 13.4151 11.7764 13.4794 11.7974C13.9951 11.9581 14.2886 12.539 14.1126 13.0499L13.5155 14.9087C13.3941 15.2541 13.6796 15.6456 14.0454 15.6356H16.8817C17.3632 15.6239 17.7628 16.0991 17.6682 16.5715Z" fill="currentColor"/>
</g>
<defs>
<clipPath id="clip0_5098_30476">
<rect width="19" height="19" fill="currentColor" transform="translate(2.5 3.05554)"/>
</clipPath>
</defs>
</svg>
