<svg width="16" height="14" viewBox="0 0 16 14" fill="none" xmlns="http://www.w3.org/2000/svg">
<g clip-path="url(#clip0_7593_49013)">
<path d="M9.36214 2.8729H11.9869C12.134 2.8729 12.3675 2.98188 12.4763 3.08208C13.4379 4.48586 14.388 5.9064 15.3056 7.33851L15.3507 7.53292C15.2892 8.50257 15.4303 9.56902 15.3497 10.5273C15.2856 11.2872 14.5683 11.8897 13.8156 11.8774C13.692 12.4712 13.2679 12.9831 12.7088 13.2157C11.615 13.6708 10.3921 13.0241 10.1488 11.8738L5.57038 11.8758C5.4596 12.5261 4.94563 13.075 4.32249 13.2724C3.25564 13.6103 2.15226 12.961 1.91334 11.8784C1.69478 11.852 1.49897 11.8347 1.29299 11.7502C0.847286 11.5676 0.511562 11.1462 0.409368 10.6778C0.341105 7.79839 0.400586 4.90741 0.379428 2.02381C0.440505 1.28929 1.01455 0.70886 1.74787 0.637604H7.9947C8.61425 0.642793 9.36214 1.34358 9.36214 1.96453V2.8727V2.8729ZM3.80174 8.11335C3.89914 8.21255 4.00473 8.30417 4.09295 8.41295H4.13247L7.61686 4.92856L6.60749 3.87968L4.15243 6.29641L4.09235 6.29681L3.16442 5.34832L2.12531 6.38603L2.13529 6.43633C2.69716 6.98862 3.25005 7.55188 3.80134 8.11335H3.80174ZM13.4938 6.62535L12.0068 4.38985H10.1206V6.62535H13.4938ZM3.71012 10.7419C2.71632 10.7898 2.80534 12.3386 3.84305 12.2339C4.75901 12.1412 4.67398 10.6954 3.71012 10.7419ZM11.9332 10.7427C10.9485 10.8129 11.0462 12.3323 12.0667 12.2339C13.0108 12.1428 12.8952 10.6742 11.9332 10.7427Z" fill="#BAAF77"/>
</g>
<defs>
<clipPath id="clip0_7593_49013">
<rect width="15" height="12.7248" fill="white" transform="translate(0.375427 0.637604)"/>
</clipPath>
</defs>
</svg>
