<svg width="13" height="12" viewBox="0 0 13 12" fill="none" xmlns="http://www.w3.org/2000/svg">
<path fill-rule="evenodd" clip-rule="evenodd" d="M10.3364 4.24777V0.351563C10.3364 0.157379 10.179 0 9.98486 0H7.03174V2.67334C7.03174 2.92612 6.76202 3.12067 6.49863 2.97437L5.35596 2.39374L4.18967 2.98645C3.95557 3.10501 3.68082 2.93198 3.681 2.67334L3.68018 0H0.727051C0.532867 0 0.375488 0.157379 0.375488 0.351563V9.60938C0.375488 9.80356 0.532867 9.96094 0.727051 9.96094H4.62326C4.18958 8.89233 4.19415 7.7037 4.63535 6.63867C5.55792 4.41129 8.10236 3.34113 10.3364 4.24777ZM5.51389 1.68723L6.32861 2.10132V0H4.3833V2.10132L5.1972 1.68768C5.29324 1.63898 5.41034 1.63504 5.51389 1.68723ZM8.68994 4.62891C9.70764 4.62891 10.629 5.04144 11.296 5.7084C11.963 6.37537 12.3755 7.29675 12.3755 8.31445C12.3755 9.33215 11.963 10.2535 11.296 10.9205C10.629 11.5875 9.70764 12 8.68994 12C7.67224 12 6.75085 11.5875 6.08389 10.9205C5.41693 10.2535 5.00439 9.33215 5.00439 8.31445C5.00439 7.29675 5.41693 6.37537 6.08389 5.7084C6.75085 5.04144 7.67224 4.62891 8.68994 4.62891ZM9.21133 9.86719C9.58597 9.86719 9.9259 9.71457 10.172 9.46848C10.4307 9.20975 10.5708 8.87466 10.5708 8.48447C10.5708 7.7352 9.9606 7.125 9.21133 7.125H8.23438L8.44073 6.91827C8.57724 6.78094 8.5766 6.55902 8.43936 6.42252C8.30203 6.28601 8.08011 6.28665 7.9436 6.42389L7.1373 7.23166C7.00079 7.36899 7.00134 7.59091 7.13867 7.72742L7.94653 8.53372C8.08377 8.67023 8.30579 8.66968 8.44229 8.53235C8.5788 8.39511 8.57816 8.1731 8.44083 8.03659L8.23199 7.82812H9.21133C9.39188 7.82812 9.55594 7.90192 9.67487 8.02094C9.8067 8.15268 9.86768 8.31244 9.86768 8.50772C9.86768 8.8688 9.57242 9.16406 9.21133 9.16406H7.5708C7.37662 9.16406 7.21924 9.32144 7.21924 9.51562C7.21924 9.70981 7.37662 9.86719 7.5708 9.86719H9.21133Z" fill="#373737"/>
</svg>
