<svg width="11" height="13" viewBox="0 0 11 13" fill="none" xmlns="http://www.w3.org/2000/svg">
<path fill-rule="evenodd" clip-rule="evenodd" d="M10.9046 7.523C10.8553 8.01404 10.7267 8.48237 10.5321 8.91375L10.532 8.91356L6.41391 9.78931V7.16632L5.13103 7.439V8.89386C5.13103 9.02676 5.09068 9.15015 5.02142 9.25249V9.25268L4.35422 10.2418C4.18873 10.4828 3.93419 10.6579 3.63804 10.7195L0 11.4926C0.0492781 11.0016 0.177905 10.5332 0.372496 10.1019L3.84815 9.36327V7.71167L0.605014 8.40089C0.654389 7.90985 0.783114 7.44152 0.977704 7.01014L3.84815 6.40018V1.30077C4.20299 0.867452 4.63951 0.500001 5.13103 0.224121V6.1276L6.41391 5.85492V1.94226C6.76875 1.50894 7.20527 1.14159 7.69679 0.865609V5.58214L10.9045 4.9005C10.8552 5.39153 10.7266 5.85987 10.532 6.29124L7.69688 6.89374V8.20523L10.9046 7.523ZM6.41435 12.4118C6.46363 11.9208 6.59226 11.4525 6.78685 11.0211L10.9048 10.1457C10.8554 10.6367 10.7269 11.1051 10.5323 11.5364L6.41435 12.4118Z" fill="#6B7280"/>
</svg>
