<svg width="19" height="21" viewBox="0 0 19 21" fill="none" xmlns="http://www.w3.org/2000/svg">
<path fill-rule="evenodd" clip-rule="evenodd" d="M18.4167 12.6185C18.3335 13.4478 18.1162 14.2388 17.7876 14.9673L17.7874 14.967L10.8324 16.446V12.0161L8.66574 12.4766V14.9337C8.66574 15.1582 8.59759 15.3666 8.48061 15.5394V15.5397L7.3538 17.2103C7.0743 17.6173 6.64442 17.913 6.14425 18.017L0 19.3227C0.0832252 18.4934 0.300463 17.7025 0.629104 16.9739L6.4991 15.7265V12.9372L1.0218 14.1012C1.10519 13.2719 1.32259 12.4809 1.65123 11.7523L6.4991 10.7222V2.10985C7.09839 1.37803 7.83562 0.757442 8.66574 0.291512V10.2618L10.8324 9.8013V3.19325C11.4317 2.46143 12.1689 1.84101 12.999 1.37491V9.34061L18.4165 8.18939C18.3333 9.01869 18.1161 9.80966 17.7874 10.5382L12.9992 11.5557V13.7707L18.4167 12.6185ZM10.8328 20.8752C10.9161 20.0459 11.1333 19.255 11.4619 18.5263L18.4167 17.0479C18.3333 17.8772 18.1162 18.6682 17.7876 19.3968L10.8328 20.8752Z" fill="#1FB256"/>
</svg>
