<svg width="14" height="16" viewBox="0 0 14 16" fill="none" xmlns="http://www.w3.org/2000/svg">
<path fill-rule="evenodd" clip-rule="evenodd" d="M13.0855 9.35643C13.0264 9.94568 12.8721 10.5077 12.6385 11.0253L12.6384 11.0251L7.69669 12.076V8.92841L6.15724 9.25563V11.0015C6.15724 11.1609 6.10881 11.309 6.0257 11.4318V11.4321L5.22507 12.619C5.02648 12.9082 4.72103 13.1183 4.36565 13.1922L0 14.12C0.0591337 13.5307 0.213487 12.9687 0.446995 12.4511L4.61778 11.5648V9.58284L0.726017 10.4099C0.785267 9.82066 0.939737 9.25865 1.17324 8.741L4.61778 8.00905V1.88976C5.04359 1.36978 5.56741 0.928834 6.15724 0.597778V7.68195L7.69669 7.35473V2.65954C8.1225 2.13956 8.64632 1.69874 9.23615 1.36756V7.0274L13.0854 6.20943C13.0263 6.79867 12.8719 7.36067 12.6384 7.87832L9.23626 8.60132V10.1751L13.0855 9.35643ZM7.69723 15.223C7.75636 14.6338 7.91071 14.0719 8.14422 13.5541L13.0857 12.5037C13.0265 13.0929 12.8722 13.6549 12.6387 14.1726L7.69723 15.223Z" fill="#EB3C24"/>
</svg>
