<svg width="26" height="29" viewBox="0 0 26 29" fill="none" xmlns="http://www.w3.org/2000/svg">
<path fill-rule="evenodd" clip-rule="evenodd" d="M25.2329 17.3058C25.1198 18.4328 24.8246 19.5077 24.3779 20.4978L24.3777 20.4973L14.926 22.5073V16.4871L11.9816 17.113V20.4521C11.9816 20.7571 11.889 21.0403 11.73 21.2752V21.2757L10.1987 23.5459C9.81888 24.099 9.23467 24.5008 8.55495 24.6422L0.205078 26.4166C0.318179 25.2896 0.613399 24.2147 1.06001 23.2247L9.03719 21.5295V17.7388L1.59368 19.3207C1.707 18.1937 2.00245 17.1188 2.44906 16.1287L9.03719 14.7287V3.02479C9.8516 2.03026 10.8535 1.1869 11.9816 0.553711V14.1031L14.926 13.4773V4.4971C15.7404 3.50257 16.7423 2.65944 17.8704 2.02603V12.8512L25.2327 11.2867C25.1196 12.4137 24.8243 13.4886 24.3777 14.4787L17.8706 15.8615V18.8716L25.2329 17.3058ZM14.9269 28.5256C15.04 27.3986 15.3352 26.3239 15.7818 25.3336L25.2331 23.3245C25.1197 24.4515 24.8247 25.5264 24.3781 26.5165L14.9269 28.5256Z" fill="#EE772F"/>
</svg>
