<svg width="20" height="14" viewBox="0 0 20 14" fill="none" xmlns="http://www.w3.org/2000/svg">
<g clip-path="url(#clip0_5001_20783)">
<path d="M18.5021 13.1073H1.49785C0.670586 13.1073 0 12.4367 0 11.6094V1.5017C0 0.67447 0.670586 0.00384521 1.49785 0.00384521H18.5021C19.3294 0.00384521 20 0.674431 20 1.5017V11.6095C20 12.4367 19.3294 13.1073 18.5021 13.1073Z" fill="#73AF00"/>
<path d="M4.13834 4.45707C4.17232 4.67492 4.304 4.74328 4.41845 4.73434C4.55345 4.72387 4.67185 4.60043 4.67185 4.47004V3.72246C4.67185 3.68504 4.70232 3.65449 4.73982 3.65449C4.77732 3.65449 4.80779 3.685 4.80779 3.72246V4.47324C4.80779 4.56352 4.8524 4.6477 4.9272 4.69824C4.97287 4.72918 5.02603 4.74508 5.07959 4.74508C5.11369 4.74508 5.14795 4.73856 5.1806 4.72555L5.24853 4.6984C5.25478 5.32594 5.21662 5.87746 5.21591 5.88758C5.2106 5.96246 5.26693 6.0275 5.34181 6.03281C5.34513 6.03309 5.34838 6.0332 5.35166 6.0332C5.42236 6.0332 5.48201 5.97852 5.48713 5.90695C5.49029 5.86277 5.53216 5.25875 5.51959 4.58996L5.56068 4.57356C5.5967 4.55922 5.63716 4.56094 5.67181 4.5782C5.82154 4.65281 6.0017 4.62371 6.12002 4.50543L6.14451 4.48098C6.25435 4.37094 6.29212 4.21109 6.24295 4.06363L6.1272 3.71641C6.18978 3.73524 6.25853 3.70754 6.28877 3.64727C6.32236 3.58012 6.29513 3.49848 6.22798 3.46488L5.95615 3.32895C5.90697 3.30426 5.84795 3.31184 5.80627 3.34777C5.7647 3.38391 5.749 3.44137 5.76638 3.49352L5.98509 4.14969C6.00146 4.19879 5.98888 4.25215 5.95228 4.28879L5.92783 4.31324C5.8924 4.34867 5.83841 4.35731 5.7933 4.335C5.70521 4.29098 5.6049 4.28274 5.5108 4.30672C5.4917 3.87043 5.4447 3.43598 5.34463 3.13563C5.32091 3.06445 5.24408 3.02586 5.17263 3.04973C5.10142 3.07336 5.06295 3.15031 5.0867 3.22164C5.18463 3.51535 5.22728 3.96297 5.24244 4.40805L5.0797 4.47313V3.72234C5.0797 3.53492 4.92724 3.3825 4.73986 3.3825C4.55248 3.3825 4.40002 3.53492 4.40002 3.72234V4.38035L4.26134 3.69539C4.24658 3.62172 4.17494 3.57367 4.10119 3.58906C4.02755 3.60406 3.97998 3.67574 3.99494 3.7493L4.13834 4.45707Z" fill="#F5F5F5"/>
<path d="M4.4001 3.3147C4.47514 3.3147 4.536 3.25387 4.536 3.17876V3.04286C4.536 2.96774 4.47514 2.90692 4.4001 2.90692C4.32502 2.90692 4.26416 2.9677 4.26416 3.04286V3.17876C4.26416 3.25387 4.32502 3.3147 4.4001 3.3147Z" fill="#F5F5F5"/>
<path d="M5.75923 3.17876H5.89517C5.97024 3.17876 6.0311 3.11798 6.0311 3.04286C6.0311 2.96774 5.97024 2.90692 5.89517 2.90692H5.75923C5.68415 2.90692 5.62329 2.9677 5.62329 3.04286C5.62329 3.11798 5.68415 3.17876 5.75923 3.17876Z" fill="#F5F5F5"/>
<path d="M4.87383 4.96521L4.19419 5.37303C4.12977 5.41166 4.10895 5.49514 4.14758 5.55955C4.17305 5.60205 4.21805 5.62553 4.26426 5.62553C4.28809 5.62553 4.31219 5.61928 4.33411 5.60611L5.01376 5.1983C5.07817 5.15967 5.09899 5.07619 5.06036 5.01178C5.02169 4.9474 4.93829 4.92658 4.87383 4.96521Z" fill="#F5F5F5"/>
<path d="M6.70641 5.20564L6.70961 5.20349C6.72102 5.24943 6.74059 5.29388 6.77235 5.33122C6.82758 5.39626 6.9104 5.42896 7.00399 5.42122C7.13676 5.41154 7.227 5.35087 7.28676 5.27255C7.29586 5.2788 7.30544 5.2845 7.31544 5.28954C7.38891 5.32658 7.47387 5.32376 7.55477 5.28181C7.7602 5.17603 7.80446 4.93126 7.79821 4.80329C7.79454 4.72868 7.7311 4.67603 7.65669 4.67454C7.58204 4.67775 7.52391 4.74107 7.52661 4.81568C7.52665 4.81739 7.52969 4.97868 7.4311 5.03857C7.41501 5.01615 7.39594 4.96568 7.38876 4.924C7.37727 4.85404 7.31301 4.80532 7.24387 4.81091C7.1734 4.81646 7.11895 4.87568 7.11872 4.94642C7.11868 4.96618 7.11426 5.14064 6.97961 5.15521C6.96395 5.13384 6.96368 5.04384 6.97911 4.97732C6.99212 4.92275 6.97024 4.86579 6.92411 4.83396C6.87786 4.80197 6.81688 4.80197 6.77044 4.83345L6.69458 4.88505C6.65856 4.09677 6.57555 3.17822 6.57454 3.16646C6.56778 3.09185 6.50208 3.03622 6.42688 3.04341C6.35211 3.05017 6.297 3.1163 6.30379 3.19118C6.30497 3.20376 6.40098 4.26654 6.43055 5.07814C6.4236 5.08474 6.41645 5.09197 6.40965 5.09829C6.3559 4.96279 6.24934 4.87739 6.11211 4.86443C5.91844 4.84732 5.7086 4.97911 5.63336 5.16736C5.56852 5.32931 5.60934 5.48849 5.73727 5.57275C5.82926 5.63341 5.96809 5.65251 6.14266 5.59134C6.10004 5.74107 6.02243 5.89294 5.92157 6.0104C5.83122 6.11568 5.68036 6.23712 5.48731 6.23169C5.37493 6.22728 5.2886 6.19052 5.22333 6.11915C5.06594 5.94724 5.0795 5.63611 5.07962 5.63279C5.08352 5.5579 5.02622 5.49407 4.95137 5.48993C4.87602 5.48197 4.81227 5.54318 4.80813 5.61818C4.80719 5.6354 4.78747 6.04431 5.02157 6.30142C5.1368 6.42818 5.28989 6.49603 5.47661 6.50333C5.48571 6.50372 5.49481 6.50384 5.50395 6.50384C5.73133 6.50384 5.95196 6.39232 6.1277 6.18751C6.29301 5.99501 6.40528 5.73353 6.43895 5.49079C6.43852 5.95579 6.15829 6.48025 5.78676 6.7113C5.62899 6.80927 5.38301 6.89767 5.10594 6.76107C4.76438 6.59247 4.80508 6.20208 4.80688 6.18615C4.81622 6.11165 4.76336 6.04368 4.68887 6.03443C4.61473 6.0254 4.54637 6.07782 4.53715 6.15243C4.53411 6.17673 4.46879 6.74978 4.98567 7.00478C5.11844 7.07032 5.25727 7.10286 5.39719 7.10286C5.57692 7.10286 5.75833 7.04911 5.93028 6.94212C6.38262 6.66095 6.71094 6.05009 6.71094 5.48966C6.7109 5.402 6.70922 5.3063 6.70641 5.20564ZM5.8868 5.34575C5.86251 5.32966 5.88149 5.27833 5.88559 5.26814C5.91422 5.19646 6.00376 5.13447 6.07528 5.13447C6.07895 5.13447 6.08266 5.13458 6.08622 5.13497C6.1036 5.13657 6.14973 5.14095 6.16958 5.24357C6.17169 5.25447 6.17348 5.2656 6.17489 5.277C6.0234 5.36595 5.92184 5.36876 5.8868 5.34575Z" fill="#F5F5F5"/>
<path d="M4.46865 6.59595C4.40423 6.5581 4.32107 6.57974 4.28279 6.64415C4.27654 6.65462 4.26826 6.66607 4.25982 6.67638C4.25833 6.67294 4.25689 6.66923 4.25541 6.66521C4.19873 6.514 4.23908 6.28107 4.25947 6.20404C4.27865 6.13154 4.23548 6.05724 4.16306 6.03783C4.09072 6.01923 4.0163 6.06146 3.99685 6.13396C3.98697 6.17072 3.90341 6.50072 4.00083 6.76064C4.06322 6.92685 4.159 6.9688 4.22841 6.97447C4.23458 6.97497 4.24068 6.97525 4.24673 6.97525C4.39306 6.97525 4.49044 6.82779 4.51755 6.78103C4.55509 6.71634 4.5331 6.63392 4.46865 6.59595Z" fill="#F5F5F5"/>
<path d="M6.97714 4.13024C7.00655 4.13024 7.03616 4.12079 7.061 4.10118L7.74628 3.56317C7.75573 3.55575 7.76179 3.54602 7.7687 3.53688C7.86737 3.47735 7.93417 3.37016 7.93417 3.24677C7.93417 3.05934 7.78171 2.90692 7.59432 2.90692C7.40694 2.90692 7.25448 3.0593 7.25448 3.24677C7.25448 3.35165 7.30323 3.44434 7.37807 3.50673L6.89304 3.88751C6.83401 3.93384 6.82374 4.0193 6.87007 4.07825C6.89694 4.11243 6.93686 4.13024 6.97714 4.13024ZM7.5944 3.17876C7.6319 3.17876 7.66237 3.20927 7.66237 3.24673C7.66237 3.28419 7.6319 3.3147 7.5944 3.3147C7.5569 3.3147 7.52643 3.28419 7.52643 3.24673C7.52643 3.20927 7.5569 3.17876 7.5944 3.17876Z" fill="#F5F5F5"/>
<path d="M7.43345 4.00139C7.36184 3.97752 7.28516 4.01611 7.26145 4.08729C7.24692 4.1308 7.18118 4.35506 7.31442 4.48815C7.3661 4.5399 7.43407 4.5658 7.51751 4.56568C7.57329 4.56568 7.63591 4.55428 7.70528 4.53104C7.77649 4.5074 7.81497 4.43045 7.79122 4.35912C7.76747 4.28795 7.69063 4.2492 7.61923 4.27322C7.54329 4.29846 7.51118 4.29436 7.50825 4.29697C7.50024 4.27682 7.50552 4.21611 7.51946 4.17272C7.54298 4.10174 7.5045 4.02502 7.43345 4.00139Z" fill="#F5F5F5"/>
<path d="M8.98923 3.43945C9.002 3.44317 9.01477 3.44488 9.02739 3.44488C9.08626 3.44488 9.14048 3.40641 9.15782 3.34703L9.23712 3.0752C9.25813 3.00313 9.21673 2.92762 9.14473 2.9066C9.07247 2.88574 8.9972 2.92692 8.97614 2.99899L8.89684 3.27082C8.87579 3.34297 8.9172 3.41848 8.98923 3.43945Z" fill="#F5F5F5"/>
<path d="M8.19672 3.42351C8.21832 3.43613 8.24195 3.4421 8.26519 3.4421C8.31191 3.4421 8.35738 3.41808 8.38265 3.37484C8.42054 3.31007 8.39875 3.22667 8.33394 3.1889C8.3066 3.17296 8.31031 3.12796 8.31133 3.11906C8.31539 3.08335 8.33668 3.0398 8.37371 3.02824C8.44539 3.00597 8.48543 2.92976 8.46312 2.85808C8.4407 2.78628 8.36465 2.74656 8.29285 2.76859C8.15734 2.81077 8.05855 2.93624 8.04117 3.08812C8.02508 3.22945 8.08468 3.35796 8.19672 3.42351Z" fill="#F5F5F5"/>
<path d="M7.1186 5.62549C7.04353 5.62549 6.98267 5.68631 6.98267 5.76143C6.98267 5.82779 7.0302 5.88303 7.0931 5.89494C7.10024 5.90541 7.11856 5.94143 7.11856 6.03326C7.11856 6.10838 7.17942 6.1692 7.2545 6.1692C7.32958 6.1692 7.39044 6.10842 7.39044 6.03326C7.39048 5.63014 7.1297 5.62549 7.1186 5.62549Z" fill="#F5F5F5"/>
<path d="M9.42461 5.06264C9.44168 5.06545 9.45868 5.06678 9.47575 5.06678C9.58254 5.06678 9.69043 5.01291 9.79731 4.90604C9.85039 4.85295 9.85039 4.76694 9.79731 4.71385C9.74422 4.66076 9.65821 4.66076 9.60512 4.71385C9.52383 4.79522 9.48008 4.79694 9.46887 4.7944C9.44293 4.79069 9.41942 4.75682 9.41418 4.74756C9.38008 4.68143 9.29922 4.65506 9.23266 4.68834C9.16551 4.72194 9.13825 4.80358 9.17188 4.87073C9.18024 4.88756 9.25875 5.03569 9.42461 5.06264Z" fill="#F5F5F5"/>
<path d="M11.7352 4.10738C11.7343 4.10527 11.7335 4.10324 11.7329 4.1014C11.7088 4.03082 11.6318 3.99242 11.5613 4.01644C11.49 4.04008 11.4515 4.11703 11.4753 4.18836C11.4859 4.22019 11.5465 4.38004 11.6965 4.40019C11.7065 4.40152 11.7165 4.40219 11.7263 4.40219C11.8205 4.40219 11.9089 4.34125 11.9892 4.2207C12.0308 4.15832 12.014 4.0739 11.9515 4.03222C11.889 3.99066 11.8045 4.00738 11.763 4.06996C11.7523 4.08601 11.743 4.09824 11.7352 4.10738Z" fill="#F5F5F5"/>
<path d="M11.4683 6.57698C11.4683 5.99733 11.4428 5.45354 11.4074 4.97705C11.6004 5.31178 11.7741 5.65002 11.8847 5.9451C11.9052 5.99967 11.957 6.03327 12.012 6.03327C12.0278 6.03327 12.044 6.03045 12.0597 6.02463C12.13 5.99823 12.1656 5.91991 12.1393 5.84956C11.9672 5.39088 11.658 4.84463 11.3532 4.35971C11.2789 3.62748 11.1957 3.16272 11.1942 3.15444C11.1808 3.08053 11.1102 3.03061 11.0362 3.04502C10.9623 3.05842 10.9133 3.12916 10.9267 3.20299C10.9278 3.20889 10.9706 3.44831 11.0218 3.85123C10.9174 3.69627 10.8204 3.55647 10.7389 3.44139L10.7456 3.4435C10.8172 3.46737 10.8938 3.42877 10.9175 3.35764C10.9413 3.28635 10.9028 3.20936 10.8316 3.18573L10.4238 3.04979C10.3672 3.03069 10.3052 3.05088 10.2706 3.0992C10.2613 3.11209 10.255 3.12623 10.2507 3.14088C10.1693 3.08073 10.0649 3.03178 9.96696 3.07284C9.9077 3.09741 9.83708 3.15924 9.83708 3.31467C9.83708 3.43401 9.88259 3.56303 9.93087 3.69975C10.0109 3.92647 10.061 4.09319 9.97626 4.17272C9.92942 4.21663 9.88259 4.23323 9.83696 4.2217C9.75313 4.20045 9.67017 4.08881 9.61489 3.92303C9.61247 3.91584 9.60747 3.91061 9.60403 3.90416C9.63263 3.69362 9.62017 3.43995 9.56255 3.15209C9.5479 3.07842 9.47645 3.03049 9.40259 3.04549C9.32895 3.06022 9.28126 3.13178 9.29599 3.20545C9.38474 3.64932 9.3581 4.01147 9.22478 4.17409C9.17321 4.23702 9.1086 4.2662 9.02149 4.2662C8.99396 4.2662 8.97517 4.25745 8.95645 4.23592C8.84923 4.11233 8.84966 3.71358 8.88427 3.46971C8.88978 3.43084 8.8781 3.39127 8.85228 3.36151C8.82646 3.33178 8.78903 3.31467 8.74966 3.31467C8.51579 3.31467 8.42708 3.58065 8.34884 3.81538C8.31454 3.91854 8.25056 4.11034 8.20595 4.13026C8.12368 4.13026 8.07048 3.88866 8.07001 3.72233C8.06978 3.64733 8.00903 3.58666 7.93407 3.58666C7.93407 3.58666 7.93395 3.58666 7.93384 3.58666C7.85884 3.58666 7.7981 3.64748 7.7981 3.72248C7.7981 4.036 7.90489 4.40213 8.20591 4.40213C8.43005 4.40213 8.52083 4.15791 8.59685 3.93088C8.61005 4.11139 8.65083 4.29842 8.75102 4.41393C8.82145 4.49518 8.91493 4.53803 9.02149 4.53803C9.18931 4.53803 9.33224 4.47178 9.43497 4.34647C9.4536 4.32381 9.46962 4.29776 9.48544 4.27147C9.56435 4.3837 9.66118 4.45768 9.77028 4.48522C9.80227 4.4933 9.83446 4.49741 9.8663 4.49741C9.97122 4.49741 10.0738 4.45413 10.1623 4.37088C10.1807 4.35362 10.1937 4.33467 10.2077 4.31604C10.2409 4.32553 10.2747 4.33116 10.3081 4.33116C10.4183 4.33116 10.5243 4.28682 10.59 4.24459C10.653 4.20424 10.6712 4.12088 10.6312 4.05768C10.5912 3.99463 10.5074 3.97577 10.4441 4.01534C10.4429 4.01588 10.3521 4.06807 10.2902 4.05584C10.2904 3.90682 10.2365 3.74858 10.1872 3.60916C10.1592 3.52975 10.1305 3.44842 10.1169 3.38194C10.1281 3.39139 10.1391 3.4012 10.1489 3.41073C10.2018 3.46381 10.2879 3.46381 10.341 3.41073C10.3498 3.40194 10.3549 3.39127 10.3608 3.381C10.5017 3.5751 10.7915 3.98299 11.0895 4.45315C11.1465 5.03108 11.1964 5.76831 11.1964 6.5769C11.1964 6.65202 11.2572 6.71284 11.3323 6.71284C11.4074 6.71287 11.4683 6.65213 11.4683 6.57698Z" fill="#F5F5F5"/>
<path d="M11.6042 3.58653C11.6042 3.66165 11.6651 3.72247 11.7402 3.72247C11.8152 3.72247 11.8761 3.66165 11.8761 3.58653C11.8761 3.42657 11.751 3.16813 11.7258 3.11794C11.6922 3.05091 11.6107 3.02384 11.5435 3.05716C11.4763 3.09075 11.449 3.17239 11.4827 3.23954C11.5317 3.33763 11.6042 3.51563 11.6042 3.58653Z" fill="#F5F5F5"/>
<path d="M10.9856 6.5918C10.919 6.55782 10.8371 6.58477 10.8032 6.65169C10.7886 6.6802 10.7659 6.71196 10.7468 6.73239C10.7408 6.67837 10.7552 6.57044 10.7826 6.48098C10.8009 6.42126 10.7761 6.35676 10.7226 6.32462C10.6693 6.29239 10.6006 6.30075 10.5565 6.34493L10.2847 6.61676C10.2316 6.66985 10.2316 6.75587 10.2847 6.80895C10.3378 6.86204 10.4238 6.86204 10.4769 6.80895L10.4838 6.80204C10.4955 6.85661 10.518 6.90637 10.5566 6.94489C10.6075 6.99587 10.6691 7.02282 10.7332 7.02282C10.7456 7.02282 10.758 7.02173 10.7705 7.01977C10.9245 6.99481 11.0204 6.82505 11.0461 6.77364C11.0795 6.70657 11.0525 6.62551 10.9856 6.5918Z" fill="#F5F5F5"/>
<path d="M10.933 5.49798H9.97501C9.98348 5.46415 9.99223 5.43185 10.0012 5.40122C10.3832 5.32181 10.6103 5.19849 10.677 5.03396C10.7001 4.97689 10.7242 4.86154 10.6259 4.72892C10.5373 4.60943 10.4122 4.55583 10.2823 4.58236C10.0891 4.6215 9.91704 4.82962 9.79352 5.16283C9.40977 5.22853 9.16419 5.36626 9.00868 5.50224C8.95352 4.94521 8.73727 4.61431 8.72676 4.59857C8.68508 4.53603 8.60063 4.51915 8.53829 4.56083C8.47583 4.60251 8.45899 4.68681 8.50055 4.74931C8.50301 4.75302 8.74958 5.13013 8.74958 5.76134C8.74958 6.38177 8.25485 6.84876 7.93403 6.84876C7.78141 6.84876 7.71458 6.66736 7.68524 6.51392C7.99938 6.29376 8.27657 6.039 8.33778 5.79423C8.42063 5.46302 8.31637 5.21892 8.24739 5.0574C8.24415 5.04997 8.24075 5.04201 8.23731 5.03376C8.24024 5.03642 8.24301 5.03919 8.24579 5.04185C8.29876 5.09493 8.38485 5.09493 8.43794 5.04185C8.49102 4.98876 8.49102 4.90271 8.43794 4.84966C8.35848 4.77013 8.20419 4.64521 8.06391 4.70388C8.00465 4.72845 7.93399 4.79029 7.93399 4.94572C7.93399 5.01595 7.96333 5.08454 7.99731 5.16419C8.05852 5.30743 8.13465 5.48572 8.07399 5.72833C8.03809 5.87193 7.86176 6.04611 7.62907 6.21908C7.60411 6.18923 7.56809 6.16919 7.52622 6.16919H7.52598C7.45098 6.16931 7.39024 6.23001 7.39024 6.30501C7.39024 6.32947 7.39133 6.3556 7.3929 6.38243C7.102 6.57083 6.77282 6.74521 6.51836 6.86091C6.45004 6.892 6.41989 6.97255 6.45094 7.04091C6.47372 7.09095 6.52309 7.12056 6.57473 7.12056C6.59356 7.12056 6.6127 7.11673 6.6309 7.10837C6.70731 7.07365 7.07008 6.90462 7.44274 6.67368C7.51137 6.90669 7.6568 7.1206 7.93395 7.1206C8.26004 7.1206 8.62997 6.85396 8.84348 6.45587C8.86926 6.50138 8.89887 6.54497 8.93419 6.58564C9.27633 6.98017 9.94462 6.98466 9.9729 6.98466C10.0461 6.98466 10.1061 6.92677 10.1088 6.85365C10.1113 6.78048 10.0556 6.71837 9.98262 6.71322C9.98153 6.7131 9.87321 6.70115 9.81297 6.63075C9.77661 6.58825 9.76208 6.5299 9.76848 6.45224C9.78239 6.28474 10.3227 6.1595 10.799 6.15212C10.8557 6.15118 10.9059 6.11521 10.925 6.06173L11.0609 5.67947C11.0757 5.6379 11.0693 5.59158 11.0438 5.55564C11.0187 5.51947 10.9772 5.49798 10.933 5.49798ZM10.3364 4.84888C10.339 4.84837 10.3424 4.84755 10.3467 4.84755C10.3597 4.84755 10.3802 4.85392 10.4076 4.89083C10.4127 4.89775 10.4293 4.92134 10.4251 4.93173C10.4095 4.97021 10.3157 5.0338 10.1201 5.09142C10.2061 4.92361 10.2902 4.85818 10.3364 4.84888ZM9.51547 6.63572C9.37739 6.59083 9.23665 6.5197 9.13922 6.40701C9.03215 6.28318 8.99262 6.12654 9.01856 5.92833C9.02247 5.9179 9.03137 5.8974 9.04692 5.87072C9.23833 5.85318 9.74969 5.92865 9.78512 6.07505C9.62739 6.15556 9.51122 6.26876 9.49778 6.4297C9.49102 6.51044 9.49926 6.5788 9.51547 6.63572Z" fill="#F5F5F5"/>
<path d="M12.4128 3.54349L12.2768 3.13568C12.2549 3.07013 12.1869 3.03095 12.1195 3.0458C12.0517 3.06029 12.0057 3.1233 12.0126 3.1922C12.1064 4.13017 12.2838 5.95935 12.2838 6.16912C12.2838 6.35748 11.9488 6.72834 11.4075 6.99904C11.3403 7.03263 11.3131 7.11424 11.3467 7.18142C11.3705 7.22908 11.4185 7.25654 11.4684 7.25654C11.4888 7.25654 11.5096 7.25189 11.5291 7.2422C12.0236 6.99494 12.5557 6.55369 12.5557 6.16912C12.5557 5.96826 12.4168 4.52326 12.3372 3.71154C12.4016 3.68404 12.4353 3.61123 12.4128 3.54349Z" fill="#F5F5F5"/>
<path d="M13.5469 4.77006C13.5731 4.79623 13.6079 4.8099 13.6431 4.8099C13.6661 4.8099 13.6892 4.80408 13.7102 4.79209C13.7634 4.76182 13.7898 4.69971 13.7748 4.64037C13.7504 4.54482 13.7423 4.42533 13.7552 4.3765C13.8233 4.37861 13.8865 4.33018 13.8965 4.25994C13.9071 4.18561 13.8555 4.1167 13.7812 4.10611C13.6913 4.09393 13.6124 4.12029 13.5573 4.18162C13.5216 4.22147 13.5003 4.27256 13.4888 4.32752L13.3314 4.1701C13.2783 4.11701 13.1922 4.11701 13.1392 4.1701C13.0861 4.22318 13.0861 4.3092 13.1392 4.36229L13.5469 4.77006Z" fill="#F5F5F5"/>
<path d="M13.8529 4.91184L13.3431 5.27715C13.2822 5.32082 13.2681 5.40578 13.3118 5.46684C13.3384 5.50387 13.3801 5.52352 13.4225 5.52352C13.4499 5.52352 13.4776 5.51528 13.5015 5.49805L14.0113 5.13274C14.0722 5.08906 14.0863 5.0041 14.0426 4.94305C13.9988 4.88195 13.9137 4.86774 13.8529 4.91184Z" fill="#F5F5F5"/>
<path d="M13.8077 5.42299C13.7649 5.47807 13.771 5.55557 13.8196 5.60327C13.8254 5.61311 13.8519 5.6651 13.8471 5.79893C13.8445 5.87405 13.9031 5.93698 13.9781 5.93963C13.9798 5.93975 13.9815 5.93975 13.9831 5.93975C14.056 5.93975 14.1162 5.88198 14.1189 5.80874C14.1288 5.53131 14.038 5.42991 13.9985 5.3992C13.9393 5.35292 13.8538 5.36381 13.8077 5.42299Z" fill="#F5F5F5"/>
<path d="M14.994 6.42403C15.069 6.42403 15.1299 6.36325 15.1299 6.28809C15.1299 6.08754 15.1196 5.86364 15.1027 5.63071C15.2375 5.85157 15.3495 6.0552 15.4213 6.22266C15.4433 6.2743 15.4935 6.30508 15.5463 6.30508C15.5642 6.30508 15.5823 6.30164 15.5998 6.29407C15.6688 6.26446 15.7007 6.18454 15.6711 6.11567C15.5467 5.82524 15.3141 5.44055 15.0492 5.0434C14.9959 4.5445 14.9262 4.05563 14.8721 3.70496C14.9009 3.70789 14.9308 3.70086 14.957 3.68383C14.9999 3.65633 15.02 3.60856 15.0171 3.56102C15.0206 3.57438 15.0243 3.58778 15.0322 3.60008C15.0331 3.60141 15.1204 3.74567 15.0817 3.93289C15.0665 4.00629 15.1138 4.07825 15.1873 4.09348C15.1966 4.09532 15.2059 4.09629 15.2149 4.09629C15.278 4.09629 15.3346 4.05207 15.3479 3.98786C15.4093 3.6909 15.2675 3.46368 15.2615 3.45411C15.2212 3.3909 15.1371 3.37235 15.0738 3.41243C15.0307 3.43989 15.0103 3.4877 15.0131 3.53536C15.0096 3.52192 15.0057 3.5084 14.9978 3.4961L14.7684 3.1393C14.7333 3.08485 14.6647 3.06282 14.6046 3.08622C14.5442 3.10985 14.5089 3.17262 14.5201 3.23633C14.522 3.24703 14.6259 3.84352 14.718 4.56246C14.6138 4.41532 14.5096 4.27137 14.4085 4.13411C14.3921 3.92844 14.3756 3.73832 14.3614 3.5811C14.3689 3.57887 14.3763 3.57594 14.3835 3.57235C14.4506 3.53875 14.4779 3.45711 14.4443 3.38997L14.3084 3.11813C14.279 3.05946 14.2121 3.03024 14.149 3.04829C14.0861 3.06661 14.045 3.12711 14.0515 3.19243C14.0677 3.35465 14.0846 3.53422 14.1012 3.72286C14.0152 3.6095 13.9356 3.50579 13.8676 3.41793C13.8809 3.40653 13.8922 3.39235 13.9006 3.37559C13.9342 3.30844 13.9069 3.2268 13.8398 3.19321L13.5679 3.05727C13.5109 3.02887 13.4417 3.04375 13.4014 3.0934C13.3613 3.14305 13.3611 3.21391 13.401 3.26383C13.4084 3.27297 13.7431 3.6925 14.1434 4.23399C14.2129 5.13207 14.2591 6.06633 14.1938 6.26219C14.1818 6.29805 14.161 6.34024 14.1414 6.34172C14.0593 6.35313 13.8632 6.16946 13.7647 5.97258C13.7079 5.85922 13.6263 5.84743 13.5826 5.84938C13.4365 5.8584 13.3795 6.01914 13.2759 6.31094C13.2017 6.52 13.1094 6.77993 13.0058 6.88625C12.9497 6.81766 12.8771 6.58758 12.8368 6.3511C12.8557 6.40336 12.9047 6.44118 12.9635 6.44118C13.0386 6.44118 13.0994 6.38039 13.0994 6.30528C13.0994 6.10254 12.9577 4.55875 12.8785 3.7127C12.9446 3.68614 12.9793 3.61223 12.9565 3.54371L12.8206 3.1359C12.7988 3.07036 12.7317 3.03168 12.6635 3.0459C12.5959 3.06024 12.5497 3.12301 12.5563 3.1918C12.6487 4.16149 12.8219 6.03446 12.8273 6.29297C12.8269 6.29063 12.8265 6.28836 12.8261 6.28602C12.8156 6.21168 12.7462 6.16071 12.6724 6.17067C12.598 6.18141 12.5465 6.2502 12.557 6.3245C12.5967 6.60235 12.6982 7.08004 12.9318 7.15786C12.9502 7.16411 12.975 7.16965 13.0042 7.16965C13.0578 7.16965 13.1259 7.15067 13.1955 7.08098C13.3435 6.93297 13.4437 6.65075 13.5321 6.40188C13.5521 6.34559 13.5758 6.27895 13.598 6.22188C13.7227 6.40399 13.9403 6.63071 14.1608 6.61297C14.2383 6.60743 14.3792 6.56575 14.4517 6.34828C14.524 6.13145 14.4954 5.37524 14.4467 4.65122C14.5613 4.81172 14.6759 4.9761 14.7853 5.1384C14.8277 5.54547 14.8581 5.95329 14.8581 6.28825C14.8581 6.36321 14.9189 6.42403 14.994 6.42403Z" fill="#F5F5F5"/>
<path d="M16.0256 5.70906C15.9293 4.99172 15.7951 4.16074 15.7102 3.65074C15.7485 3.6602 15.7903 3.65246 15.824 3.62657C15.8838 3.58106 15.8952 3.49571 15.8496 3.4361L15.6033 3.11325C15.5653 3.0636 15.4982 3.0461 15.4408 3.07117C15.3834 3.09625 15.3506 3.15735 15.3613 3.21907C15.3637 3.23297 15.6061 4.62836 15.756 5.74516C15.8133 6.17192 15.7297 6.55332 15.5322 6.76516C15.4053 6.90125 15.2372 6.96282 15.0336 6.95098C14.9589 6.947 14.8941 7.00325 14.8894 7.07813C14.8847 7.15301 14.9416 7.21754 15.0165 7.22227C15.0395 7.22375 15.0621 7.22438 15.0845 7.22438C15.3409 7.22438 15.5633 7.13043 15.7311 6.95039C15.9873 6.67571 16.0946 6.22317 16.0256 5.70906Z" fill="#F5F5F5"/>
<path d="M14.5301 6.60513C14.4801 6.65938 14.4839 6.74489 14.5368 6.7961C14.5442 6.80325 14.553 6.81735 14.553 6.82427C14.5531 6.82809 14.5476 6.83954 14.5325 6.85466C14.4794 6.90774 14.4794 6.99376 14.5325 7.04684C14.5591 7.07341 14.5938 7.08669 14.6286 7.08669C14.6634 7.08669 14.6982 7.07341 14.7248 7.04684C14.811 6.96067 14.8268 6.87321 14.8248 6.81493C14.8207 6.6895 14.7352 6.60852 14.7182 6.59352C14.6626 6.54524 14.58 6.55106 14.5301 6.60513Z" fill="#F5F5F5"/>
<path d="M14.0509 9.58602H13.9149H13.0994V9.45009C13.0994 9.37497 13.0385 9.31415 12.9634 9.31415C12.8884 9.31415 12.8275 9.37497 12.8275 9.45009V9.58602H5.62329C5.89513 9.85786 6.43884 9.99384 6.84665 9.99384C7.13911 9.99384 10.7872 9.99384 12.8275 9.99384V10.2657C12.8275 10.3408 12.8884 10.4016 12.9634 10.4016H14.0509C14.2758 10.4016 14.4587 10.2187 14.4587 9.9938C14.4586 9.76895 14.2758 9.58602 14.0509 9.58602ZM14.0509 10.1297H13.0993V9.9938C13.7544 9.9938 14.1868 9.9938 14.1868 9.9938L14.1624 9.92063C14.1765 9.94204 14.1868 9.96622 14.1868 9.9938C14.1868 10.0688 14.1258 10.1297 14.0509 10.1297Z" fill="#F5F5F5"/>
</g>
<defs>
<clipPath id="clip0_5001_20783">
<rect y="0.00384521" width="20" height="13.1034" rx="2" fill="white"/>
</clipPath>
</defs>
</svg>
