<svg width="24" height="25" viewBox="0 0 24 25" fill="currentcolor" xmlns="http://www.w3.org/2000/svg">
<g clip-path="url(#clip0_5001_20761)">
<path d="M16.25 21.0555C16.1792 21.0555 16.1083 21.0414 16.0417 21.013C15.8774 20.9429 12 19.2542 12 15.7813V12.9352C12 12.7078 12.1445 12.5059 12.3605 12.4323L16.0793 11.1672C16.1898 11.1297 16.3102 11.1297 16.4207 11.1672L20.1395 12.4323C20.3555 12.5059 20.5 12.7078 20.5 12.9352V15.7813C20.5 19.2542 16.6226 20.9429 16.4583 21.0137C16.3917 21.0414 16.3208 21.0555 16.25 21.0555ZM13.0625 13.3156V15.7806C13.0625 18.1414 15.5105 19.5609 16.25 19.9349C16.9895 19.5609 19.4375 18.1414 19.4375 15.7806V13.3156L16.25 12.2311L13.0625 13.3156Z" fill="currentcolor"/>
<path d="M16.073 17.8681C15.9327 17.8681 15.7967 17.8128 15.6976 17.7122L14.2809 16.2956C14.0734 16.088 14.0734 15.7516 14.2809 15.544C14.4884 15.3365 14.8249 15.3365 15.0324 15.544L16.0163 16.5279L17.773 14.1847C17.9472 13.9503 18.2816 13.9021 18.5167 14.0792C18.7512 14.2549 18.7987 14.5878 18.6223 14.8229L16.4973 17.6563C16.4052 17.7795 16.2642 17.856 16.1098 17.8674C16.0978 17.8674 16.0857 17.8681 16.073 17.8681Z" fill="currentcolor"/>
<path d="M11.0013 18.9305H5.44792C4.37338 18.9305 3.5 18.0572 3.5 16.9826V6.00346C3.5 4.92892 4.37338 4.05554 5.44792 4.05554H13.5938C14.6683 4.05554 15.5417 4.92892 15.5417 6.00346V9.84971C15.5417 10.143 15.3037 10.381 15.0104 10.381C14.7172 10.381 14.4792 10.143 14.4792 9.84971V6.00346C14.4792 5.51542 14.0818 5.11804 13.5938 5.11804H5.44792C4.95988 5.11804 4.5625 5.51542 4.5625 6.00346V16.9826C4.5625 17.4707 4.95988 17.868 5.44792 17.868H11.0013C11.2945 17.868 11.5325 18.106 11.5325 18.3993C11.5325 18.6925 11.2945 18.9305 11.0013 18.9305Z" fill="currentcolor"/>
<path d="M12.8854 10.7847H6.15625C5.863 10.7847 5.625 10.5467 5.625 10.2535C5.625 9.96023 5.863 9.72223 6.15625 9.72223H12.8854C13.1787 9.72223 13.4167 9.96023 13.4167 10.2535C13.4167 10.5467 13.1787 10.7847 12.8854 10.7847Z" fill="currentcolor"/>
<path d="M10.0521 13.618H6.15625C5.863 13.618 5.625 13.38 5.625 13.0868C5.625 12.7935 5.863 12.5555 6.15625 12.5555H10.0521C10.3453 12.5555 10.5833 12.7935 10.5833 13.0868C10.5833 13.38 10.3453 13.618 10.0521 13.618Z" fill="currentcolor"/>
<path d="M9.34375 7.95135H6.15625C5.863 7.95135 5.625 7.71335 5.625 7.4201C5.625 7.12685 5.863 6.88885 6.15625 6.88885H9.34375C9.637 6.88885 9.875 7.12685 9.875 7.4201C9.875 7.71335 9.637 7.95135 9.34375 7.95135Z" fill="currentcolor"/>
</g>
<defs>
<clipPath id="clip0_5001_20761">
<rect width="17" height="17" fill="currentcolor" transform="translate(3.5 4.05554)"/>
</clipPath>
</defs>
</svg>
