<svg width="25" height="12" viewBox="0 0 25 12" fill="none" xmlns="http://www.w3.org/2000/svg">
<path d="M4.9541 3.76294C4.95471 3.45366 4.9541 3.14319 4.9541 2.83391H8.84158C8.86399 2.83391 9.00873 2.75044 9.03659 2.72702C9.24008 2.55467 9.25098 2.20696 9.05476 2.02319C9.01176 1.98296 8.82523 1.87486 8.78102 1.87486H4.9541V0.390346C4.9541 0.250422 5.17273 0.0294261 5.31626 0L18.0482 0.00660586C18.1724 0.0210186 18.3868 0.250422 18.3868 0.36092V2.41414H17.8575C17.1604 2.41414 16.4954 3.06812 16.4548 3.75213L16.45 10.164L16.542 10.5676H10.1285C9.62525 12.4719 6.86605 12.4821 6.37428 10.5706C6.01878 10.5165 5.36108 10.6925 5.09461 10.4144C5.0613 10.3802 4.95531 10.197 4.95531 10.1628V6.61066H7.08831C7.0986 6.61066 7.25304 6.56683 7.27666 6.55722C7.61702 6.4203 7.66304 5.91525 7.35599 5.71587C7.32935 5.69906 7.1628 5.62099 7.14887 5.62099H4.95531C4.95531 5.32192 4.95592 5.02105 4.95531 4.72199C5.34654 4.71538 5.93884 4.80126 5.92552 4.22655C5.91219 3.65184 5.33443 3.76834 4.95531 3.76234L4.9541 3.76294ZM9.28005 4.72199C9.28792 4.74421 9.24977 4.75802 9.24977 4.76703V5.45644C9.24977 6.64189 10.4774 7.87599 11.5796 8.18406C14.7337 9.06624 17.0671 5.33153 14.9069 2.93901C13.3413 1.20587 10.4162 1.67609 9.52048 3.82059C9.4363 3.8284 9.38301 3.77135 9.29701 3.76174C8.99601 3.72751 8.14148 3.72571 7.84352 3.76174C7.42746 3.81218 7.28211 4.35687 7.61641 4.6175C7.65214 4.64572 7.78114 4.72139 7.81384 4.72139H9.28126L9.28005 4.72199ZM8.12331 9.10648C6.8606 9.2386 7.01382 11.2282 8.41522 11.0438C9.59134 10.8889 9.43145 8.96956 8.12331 9.10648Z" fill="#F5D113"/>
<path d="M4.95422 3.76287C4.95361 4.08235 4.95361 4.40303 4.95422 4.72192C3.56977 4.74414 2.18229 4.7075 0.797238 4.71951C0.23825 4.61262 0.222504 3.83013 0.824491 3.76287C2.20046 3.77788 3.57885 3.74305 4.95422 3.76287Z" fill="#F5D113"/>
<path d="M22.9273 10.57C22.4198 12.4713 19.6872 12.4749 19.1688 10.5712C19.1143 10.5369 18.0823 10.5862 17.8903 10.564C17.6148 10.5315 17.4246 10.3201 17.4167 10.0439V3.92687C17.4367 3.69807 17.5233 3.5035 17.7498 3.41762L22.3338 3.40381C22.5512 3.41762 22.6747 3.63081 22.7971 3.78395C23.436 4.58085 24.0229 5.46183 24.6339 6.28036L24.62 10.2853C24.5964 10.3448 24.4722 10.4733 24.4171 10.5039C24.1519 10.6498 22.9927 10.5141 22.9267 10.5712L22.9273 10.57ZM20.9203 9.10587C19.6569 9.26981 19.8398 11.2077 21.2116 11.0432C22.4101 10.8991 22.2272 8.93652 20.9203 9.10587Z" fill="#F5D113"/>
<path d="M4.95409 5.65099V6.58002H3.66836C3.65927 6.58002 3.53936 6.50675 3.51695 6.48994C3.25411 6.29476 3.25411 5.93564 3.51695 5.74047C3.53936 5.72366 3.65927 5.65039 3.66836 5.65039H4.95409V5.65099Z" fill="#F5D113"/>
<path d="M12.3899 2.84223C15.4555 2.74074 15.5161 7.33962 12.4983 7.35704C9.55859 7.37385 9.47441 2.93892 12.3899 2.84223ZM12.9404 4.84201C12.8956 4.47028 13.076 3.72201 12.7266 3.48C12.4002 3.2542 11.9962 3.46618 11.9447 3.84032C11.9023 4.15019 11.9102 4.98613 11.9423 5.30622C11.9708 5.58847 12.1167 5.76863 12.4111 5.80106C12.6473 5.82748 13.2341 5.82748 13.4703 5.80106C13.9021 5.75241 14.0693 5.19752 13.7119 4.93209C13.6895 4.91527 13.5696 4.84201 13.5605 4.84201H12.9404Z" fill="#F5D113"/>
</svg>
