<svg width="39" height="39" viewBox="0 0 39 39" fill="none" xmlns="http://www.w3.org/2000/svg">
<path d="M26.0857 15.3951C28.1651 16.8868 30.7125 17.7645 33.4639 17.7645V12.4513C32.9432 12.4514 32.4238 12.3969 31.9144 12.2886V16.4709C29.1633 16.4709 26.6162 15.5932 24.5362 14.1015V24.9443C24.5362 30.3684 20.1547 34.7652 14.7502 34.7652C12.7337 34.7652 10.8594 34.1534 9.30239 33.1041C11.0794 34.9276 13.5576 36.0588 16.2994 36.0588C21.7042 36.0588 26.0859 31.662 26.0859 26.2376L26.0857 15.3951ZM27.9971 10.0347C26.9344 8.86951 26.2367 7.36377 26.0857 5.69911V5.01572H24.6173C24.9869 7.13149 26.2476 8.93909 27.9971 10.0347ZM12.7207 28.9418C12.127 28.1605 11.8061 27.2048 11.8076 26.2221C11.8076 23.7413 13.8116 21.7299 16.2841 21.7299C16.7449 21.7297 17.2029 21.8005 17.642 21.9404V16.5084C17.1289 16.4378 16.6109 16.4078 16.0932 16.4188V20.6468C15.6538 20.507 15.1955 20.436 14.7346 20.4364C12.2622 20.4364 10.2582 22.4477 10.2582 24.9288C10.2582 26.6831 11.2599 28.2019 12.7207 28.9418Z" fill="#FF004F"/>
<path d="M24.5362 14.1015C26.6162 15.5932 29.1633 16.4709 31.9144 16.4709V12.2886C30.3787 11.9603 29.0193 11.1549 27.9971 10.0347C26.2476 8.93909 24.9869 7.13149 24.6173 5.01572H20.7604V26.2374C20.7516 28.7114 18.751 30.7147 16.2838 30.7147C14.83 30.7147 13.5387 30.0192 12.7207 28.9418C11.2599 28.2019 10.2582 26.6831 10.2582 24.9288C10.2582 22.4477 12.2622 20.4364 14.7346 20.4364C15.2084 20.4364 15.6649 20.5104 16.0932 20.6468V16.4188C10.7837 16.5289 6.51319 20.8829 6.51319 26.2375C6.51319 28.9105 7.57652 31.3336 9.30239 33.1041C10.8594 34.1534 12.7337 34.7652 14.7502 34.7652C20.1547 34.7652 24.5362 30.3684 24.5362 24.9443V14.1015Z" fill="#111928"/>
<path d="M31.9144 12.2886L31.9144 11.1576C30.5296 11.1597 29.172 10.7707 27.9971 10.0347C29.0372 11.1774 30.4067 11.9653 31.9144 12.2886ZM24.6173 5.01572C24.5821 4.81352 24.555 4.61 24.5362 4.40569V3.72229H19.2108V24.9442C19.2023 27.4179 17.2018 29.4211 14.7344 29.4211C14.01 29.4211 13.3264 29.2484 12.7207 28.9418C13.5387 30.0192 14.83 30.7147 16.2838 30.7147C18.751 30.7147 20.7516 28.7114 20.7604 26.2374V5.01572H24.6173ZM16.0932 16.4188L16.0932 15.2151C15.6482 15.154 15.1996 15.1234 14.7504 15.1236C9.34535 15.1235 4.96387 19.5205 4.96387 24.9442C4.96387 28.3445 6.68568 31.3414 9.30239 33.1041C7.57652 31.3336 6.51319 28.9105 6.51319 26.2375C6.51319 20.8829 10.7837 16.5289 16.0932 16.4188Z" fill="#00F2EA"/>
</svg>
