<svg width="17" height="17" viewBox="0 0 17 17" fill="none" xmlns="http://www.w3.org/2000/svg">
<g clip-path="url(#clip0_4398_7302)">
<path d="M2.35645 4.19554H3.68298M3.68298 4.19554H14.2952M3.68298 4.19554L4.34624 13.4813C4.34624 13.8331 4.486 14.1705 4.73477 14.4193C4.98355 14.668 5.32095 14.8078 5.67277 14.8078H10.9789C11.3307 14.8078 11.6681 14.668 11.9169 14.4193C12.1657 14.1705 12.3054 13.8331 12.3054 13.4813L12.9687 4.19554M5.67277 4.19554V2.86901C5.67277 2.51719 5.81253 2.17979 6.0613 1.93101C6.31008 1.68224 6.64748 1.54248 6.9993 1.54248H9.65236C10.0042 1.54248 10.3416 1.68224 10.5904 1.93101C10.8391 2.17979 10.9789 2.51719 10.9789 2.86901V4.19554M6.9993 7.51187V11.4915M9.65236 7.51187V11.4915" stroke="#EB3C24" stroke-width="1.22449" stroke-linecap="round" stroke-linejoin="round"/>
</g>
<defs>
<clipPath id="clip0_4398_7302">
<rect width="15.9184" height="15.9184" fill="white" transform="translate(0.367188 0.216064)"/>
</clipPath>
</defs>
</svg>
