<svg width="16" height="12" viewBox="0 0 16 12" fill="none" xmlns="http://www.w3.org/2000/svg">
<path d="M3.58455 6.41012C4.27902 6.41012 4.97864 6.18563 5.56494 5.72346C6.36672 5.09118 6.78532 4.15058 6.78532 3.20125C6.78532 3.17029 6.78503 3.13935 6.7838 3.10838C6.77869 2.92747 6.75827 2.74626 6.72219 2.56746C6.65518 2.2336 6.53407 1.90694 6.35676 1.60132C6.28102 1.46999 6.19507 1.34287 6.09863 1.22057C6.06737 1.18089 6.03521 1.14185 6.00215 1.10397C4.88818 -0.180721 2.94416 -0.376367 1.59606 0.686857C0.207397 1.78192 -0.0321127 3.80167 1.06205 5.18946C1.50109 5.7463 2.0889 6.11833 2.72478 6.29384C2.9021 6.34282 3.08331 6.37649 3.26571 6.39421C3.37179 6.40472 3.47817 6.41012 3.58455 6.41012ZM3.30989 1.28666C3.30989 1.13729 3.431 1.01619 3.58037 1.01619C3.72971 1.01619 3.85084 1.13729 3.85084 1.28666V3.04555L4.96005 3.65831C5.09077 3.73044 5.13827 3.89512 5.06614 4.02584C5.01655 4.11511 4.92429 4.16556 4.82904 4.16556C4.78485 4.16556 4.74009 4.15476 4.69861 4.13161L3.44967 3.44163C3.36343 3.39414 3.30995 3.30339 3.30995 3.20512V1.28666H3.30989ZM15.2195 5.0425V10.065C15.2195 11.1318 14.3517 12 13.2848 12H5.19982C4.13329 12 3.26571 11.1318 3.26571 10.065V6.93693C3.3724 6.94654 3.47936 6.95105 3.58455 6.95105C4.42087 6.95105 5.24307 6.66587 5.90002 6.14807C6.80638 5.43344 7.32627 4.35912 7.32627 3.20125C7.32627 3.17601 7.32598 3.14385 7.32508 3.10838H13.2849C14.3517 3.10838 15.2195 3.97596 15.2195 5.0425ZM7.25263 2.46108C7.1868 2.13353 7.07833 1.81858 6.92896 1.52289L12.4178 0.770111C12.6582 0.737053 12.8713 0.799247 13.0513 0.954631C13.2325 1.1112 13.3242 1.31254 13.3242 1.55234V2.56807C13.3112 2.56746 13.298 2.56746 13.2848 2.56746H7.27215C7.26643 2.5317 7.25983 2.49623 7.25263 2.46108Z" fill="#FCA004"/>
</svg>
