<svg width="26" height="21" viewBox="0 0 26 21" fill="none" xmlns="http://www.w3.org/2000/svg">
<rect opacity="0.1" x="0.147217" y="1.03021" width="24.5" height="18.7353" rx="1.44118" fill="#FFD400"/>
<path d="M22.551 0.309631H2.89855C1.38149 0.309631 0.147217 1.5439 0.147217 3.06097V17.7348C0.147217 19.2518 1.38149 20.4861 2.89855 20.4861H22.551C24.068 20.4861 25.3023 19.2518 25.3023 17.7348V3.06097C25.3023 1.5439 24.068 0.309631 22.551 0.309631ZM2.89855 1.88182H22.551C23.2011 1.88182 23.7301 2.41082 23.7301 3.06097V6.07434H1.71941V3.06097C1.71941 2.41082 2.2484 1.88182 2.89855 1.88182ZM22.551 18.9139H2.89855C2.2484 18.9139 1.71941 18.3849 1.71941 17.7348V7.64653H23.7301V17.7348C23.7301 18.3849 23.2011 18.9139 22.551 18.9139Z" fill="#FFD400"/>
<path d="M5.64983 15.1145H4.86373C4.42961 15.1145 4.07764 14.7625 4.07764 14.3284V13.5423C4.07764 13.1081 4.42961 12.7562 4.86373 12.7562H5.64983C6.08395 12.7562 6.43593 13.1081 6.43593 13.5423V14.3284C6.43593 14.7625 6.08395 15.1145 5.64983 15.1145Z" fill="#232323"/>
</svg>
