<svg width="11" height="12" viewBox="0 0 11 12" fill="none" xmlns="http://www.w3.org/2000/svg">
<path d="M6.56979 5.9983L9.82812 2.73997C10.239 2.32913 10.239 1.64913 9.82812 1.2383C9.41729 0.827467 8.73729 0.827467 8.32646 1.2383L5.06812 4.49663L1.80979 1.2383C1.39896 0.827467 0.718958 0.827467 0.308125 1.2383C-0.102708 1.64913 -0.102708 2.32913 0.308125 2.73997L3.56646 5.9983L0.308125 9.25663C-0.102708 9.66747 -0.102708 10.3475 0.308125 10.7583C0.520625 10.9708 0.789791 11.07 1.05896 11.07C1.32812 11.07 1.59729 10.9708 1.80979 10.7583L5.06812 7.49997L8.32646 10.7583C8.53896 10.9708 8.80812 11.07 9.07729 11.07C9.34646 11.07 9.61562 10.9708 9.82812 10.7583C10.239 10.3475 10.239 9.66747 9.82812 9.25663L6.56979 5.9983Z" fill="#B0B0B0"/>
</svg>
