<svg width="18" height="19" viewBox="0 0 18 19" fill="currentColor" xmlns="http://www.w3.org/2000/svg">
<path d="M16.418 4.77429H14.272C14.6038 4.33329 14.8008 3.78538 14.8008 3.19226C14.8008 1.73837 13.6179 0.555542 12.1641 0.555542C11.2883 0.555542 10.6425 0.869312 10.1317 1.54298C9.70439 2.1066 9.39192 2.89354 9 3.88783C8.60808 2.8935 8.29561 2.1066 7.86829 1.54298C7.3575 0.869312 6.71171 0.555542 5.83594 0.555542C4.38205 0.555542 3.19922 1.73837 3.19922 3.19226C3.19922 3.78538 3.3962 4.33329 3.728 4.77429H1.58203C0.709699 4.77429 0 5.48399 0 6.35632V7.41101C0 8.09849 0.440895 8.68465 1.05469 8.90234V16.9735C1.05469 17.8458 1.76439 18.5555 2.63672 18.5555H15.3633C16.2356 18.5555 16.9453 17.8458 16.9453 16.9735V8.90234C17.5591 8.68465 18 8.09849 18 7.41101V6.35632C18 5.48399 17.2903 4.77429 16.418 4.77429ZM9.96799 4.30812C10.7758 2.25858 11.083 1.61023 12.1641 1.61023C13.0364 1.61023 13.7461 2.31993 13.7461 3.19226C13.7461 4.06459 13.0364 4.77429 12.1641 4.77429H9.78353C9.84814 4.61205 9.90977 4.45585 9.96799 4.30812ZM5.83594 1.61023C6.91703 1.61023 7.22415 2.25858 8.03201 4.30812C8.09023 4.45585 8.15186 4.61205 8.21647 4.77429H5.83594C4.96361 4.77429 4.25391 4.06459 4.25391 3.19226C4.25391 2.31993 4.96361 1.61023 5.83594 1.61023ZM6.89062 17.5009H2.63672C2.34594 17.5009 2.10938 17.2643 2.10938 16.9735V8.99304H6.89062V17.5009ZM6.89062 7.93835H1.58203C1.29125 7.93835 1.05469 7.70179 1.05469 7.41101V6.35632C1.05469 6.06555 1.29125 5.82898 1.58203 5.82898H6.89062V7.93835ZM10.0547 17.5009H7.94531V5.82898C8.05581 5.82898 9.44859 5.82898 10.0547 5.82898V17.5009ZM15.8906 16.9735C15.8906 17.2643 15.6541 17.5009 15.3633 17.5009H11.1094V8.99304H15.8906V16.9735ZM16.9453 7.41101C16.9453 7.70179 16.7087 7.93835 16.418 7.93835H11.1094V5.82898H16.418C16.7087 5.82898 16.9453 6.06555 16.9453 6.35632V7.41101Z" fill="currentColor"/>
</svg>
