<svg width="18" height="15" viewBox="0 0 18 15" fill="none" xmlns="http://www.w3.org/2000/svg">
<rect opacity="0.1" y="1" width="17" height="13" rx="1" fill="#FFD400"/>
<path d="M15.5455 0.5H1.90909C0.856432 0.5 0 1.35643 0 2.40909V12.5909C0 13.6436 0.856432 14.5 1.90909 14.5H15.5455C16.5981 14.5 17.4545 13.6436 17.4545 12.5909V2.40909C17.4545 1.35643 16.5981 0.5 15.5455 0.5ZM1.90909 1.59091H15.5455C15.9966 1.59091 16.3636 1.95797 16.3636 2.40909V4.5H1.09091V2.40909C1.09091 1.95797 1.45797 1.59091 1.90909 1.59091ZM15.5455 13.4091H1.90909C1.45797 13.4091 1.09091 13.042 1.09091 12.5909V5.59091H16.3636V12.5909C16.3636 13.042 15.9966 13.4091 15.5455 13.4091Z" fill="#FFD400"/>
<path d="M3.81845 10.7726H3.27299C2.97177 10.7726 2.72754 10.5284 2.72754 10.2271V9.68169C2.72754 9.38046 2.97177 9.13623 3.27299 9.13623H3.81845C4.11968 9.13623 4.3639 9.38046 4.3639 9.68169V10.2271C4.3639 10.5284 4.11968 10.7726 3.81845 10.7726Z" fill="#FFD400"/>
</svg>
