<svg width="17" height="18" viewBox="0 0 17 18" fill="none" xmlns="http://www.w3.org/2000/svg">
<path d="M4.79199 3.75C4.45033 3.75 4.16699 3.46667 4.16699 3.125V0.625C4.16699 0.283333 4.45033 0 4.79199 0C5.13366 0 5.41699 0.283333 5.41699 0.625V3.125C5.41699 3.46667 5.13366 3.75 4.79199 3.75Z" fill="#FFD400"/>
<path d="M11.458 3.75C11.1163 3.75 10.833 3.46667 10.833 3.125V0.625C10.833 0.283333 11.1163 0 11.458 0C11.7997 0 12.083 0.283333 12.083 0.625V3.125C12.083 3.46667 11.7997 3.75 11.458 3.75Z" fill="#FFD400"/>
<path d="M5.20833 11.0419C5.1 11.0419 4.99167 11.0169 4.89167 10.9753C4.78333 10.9336 4.7 10.8753 4.61667 10.8003C4.46667 10.6419 4.375 10.4336 4.375 10.2086C4.375 10.1003 4.4 9.99192 4.44167 9.89192C4.48333 9.79192 4.54167 9.70025 4.61667 9.61692C4.7 9.54192 4.78333 9.48359 4.89167 9.44192C5.19167 9.31692 5.56667 9.38359 5.8 9.61692C5.95 9.77525 6.04167 9.99192 6.04167 10.2086C6.04167 10.2586 6.03333 10.3169 6.025 10.3753C6.01667 10.4253 6 10.4753 5.975 10.5253C5.95833 10.5753 5.93333 10.6253 5.9 10.6753C5.875 10.7169 5.83333 10.7586 5.8 10.8003C5.64167 10.9503 5.425 11.0419 5.20833 11.0419Z" fill="#FFD400"/>
<path d="M8.12533 11.0417C8.01699 11.0417 7.90866 11.0167 7.80866 10.9751C7.70033 10.9334 7.61699 10.8751 7.53366 10.8001C7.38366 10.6417 7.29199 10.4334 7.29199 10.2084C7.29199 10.1001 7.31699 9.99172 7.35866 9.89172C7.40033 9.79172 7.45866 9.70005 7.53366 9.61672C7.61699 9.54172 7.70033 9.48338 7.80866 9.44172C8.10866 9.30838 8.48366 9.38338 8.71699 9.61672C8.86699 9.77505 8.95866 9.99172 8.95866 10.2084C8.95866 10.2584 8.95033 10.3167 8.94199 10.3751C8.93366 10.4251 8.91699 10.4751 8.89199 10.5251C8.87533 10.5751 8.85033 10.6251 8.81699 10.6751C8.79199 10.7167 8.75033 10.7584 8.71699 10.8001C8.55866 10.9501 8.34199 11.0417 8.12533 11.0417Z" fill="#FFD400"/>
<path d="M11.0413 11.0417C10.933 11.0417 10.8247 11.0167 10.7247 10.9751C10.6163 10.9334 10.533 10.8751 10.4497 10.8001C10.4163 10.7584 10.383 10.7167 10.3497 10.6751C10.3163 10.6251 10.2913 10.5751 10.2747 10.5251C10.2497 10.4751 10.233 10.4251 10.2247 10.3751C10.2163 10.3167 10.208 10.2584 10.208 10.2084C10.208 9.99172 10.2997 9.77505 10.4497 9.61672C10.533 9.54172 10.6163 9.48338 10.7247 9.44172C11.033 9.30838 11.3997 9.38338 11.633 9.61672C11.783 9.77505 11.8747 9.99172 11.8747 10.2084C11.8747 10.2584 11.8663 10.3167 11.858 10.3751C11.8497 10.4251 11.833 10.4751 11.808 10.5251C11.7913 10.5751 11.7663 10.6251 11.733 10.6751C11.708 10.7167 11.6663 10.7584 11.633 10.8001C11.4747 10.9501 11.258 11.0417 11.0413 11.0417Z" fill="#FFD400"/>
<path d="M5.20833 13.9584C5.1 13.9584 4.99167 13.9335 4.89167 13.8918C4.79167 13.8502 4.7 13.7917 4.61667 13.7167C4.46667 13.5584 4.375 13.3417 4.375 13.1251C4.375 13.0167 4.4 12.9084 4.44167 12.8084C4.48333 12.7001 4.54167 12.6085 4.61667 12.5335C4.925 12.2252 5.49167 12.2252 5.8 12.5335C5.95 12.6918 6.04167 12.9084 6.04167 13.1251C6.04167 13.3417 5.95 13.5584 5.8 13.7167C5.64167 13.8667 5.425 13.9584 5.20833 13.9584Z" fill="#FFD400"/>
<path d="M8.12533 13.9584C7.90866 13.9584 7.69199 13.8667 7.53366 13.7167C7.38366 13.5584 7.29199 13.3417 7.29199 13.1251C7.29199 13.0167 7.31699 12.9084 7.35866 12.8084C7.40033 12.7001 7.45866 12.6085 7.53366 12.5335C7.84199 12.2252 8.40866 12.2252 8.71699 12.5335C8.79199 12.6085 8.85033 12.7001 8.89199 12.8084C8.93366 12.9084 8.95866 13.0167 8.95866 13.1251C8.95866 13.3417 8.86699 13.5584 8.71699 13.7167C8.55866 13.8667 8.34199 13.9584 8.12533 13.9584Z" fill="#FFD400"/>
<path d="M11.0413 13.9584C10.8247 13.9584 10.608 13.8668 10.4497 13.7167C10.3747 13.6417 10.3163 13.5501 10.2747 13.4418C10.233 13.3418 10.208 13.2334 10.208 13.1251C10.208 13.0168 10.233 12.9084 10.2747 12.8084C10.3163 12.7001 10.3747 12.6084 10.4497 12.5334C10.6413 12.3417 10.933 12.2501 11.1997 12.3084C11.258 12.3167 11.308 12.3334 11.358 12.3584C11.408 12.3751 11.458 12.4001 11.508 12.4334C11.5497 12.4584 11.5913 12.5001 11.633 12.5334C11.783 12.6917 11.8747 12.9084 11.8747 13.1251C11.8747 13.3418 11.783 13.5584 11.633 13.7167C11.4747 13.8668 11.258 13.9584 11.0413 13.9584Z" fill="#FFD400"/>
<path d="M15.2087 7.1582H1.04199C0.700326 7.1582 0.416992 6.87487 0.416992 6.5332C0.416992 6.19154 0.700326 5.9082 1.04199 5.9082H15.2087C15.5503 5.9082 15.8337 6.19154 15.8337 6.5332C15.8337 6.87487 15.5503 7.1582 15.2087 7.1582Z" fill="#FFD400"/>
<path d="M11.4583 17.9167H4.79167C1.75 17.9167 0 16.1667 0 13.125V6.04167C0 3 1.75 1.25 4.79167 1.25H11.4583C14.5 1.25 16.25 3 16.25 6.04167V13.125C16.25 16.1667 14.5 17.9167 11.4583 17.9167ZM4.79167 2.5C2.40833 2.5 1.25 3.65833 1.25 6.04167V13.125C1.25 15.5083 2.40833 16.6667 4.79167 16.6667H11.4583C13.8417 16.6667 15 15.5083 15 13.125V6.04167C15 3.65833 13.8417 2.5 11.4583 2.5H4.79167Z" fill="#FFD400"/>
</svg>
