<svg width="63" height="27" viewBox="0 0 63 27" fill="none" xmlns="http://www.w3.org/2000/svg">
<path fill-rule="evenodd" clip-rule="evenodd" d="M8.71422 5.52861C9.88005 5.62695 11.0459 4.93854 11.7745 4.06573C12.491 3.16834 12.9647 1.96362 12.8432 0.734314C11.811 0.783486 10.5358 1.42273 9.80719 2.32012C9.13926 3.09458 8.56849 4.34847 8.71422 5.52861ZM22.5828 21.3621V2.19719H29.6871C33.3546 2.19719 35.917 4.75414 35.917 8.49123C35.917 12.2283 33.306 14.8099 29.5899 14.8099H25.5217V21.3621H22.5828ZM12.8309 5.76216C11.8038 5.70233 10.8666 6.07484 10.1097 6.37572C9.62252 6.56935 9.21001 6.73332 8.89618 6.73332C8.54399 6.73332 8.11445 6.56058 7.63217 6.36664L7.63217 6.36664C7.00023 6.11251 6.27775 5.82198 5.52011 5.83592C3.7835 5.86051 2.16833 6.85625 1.28181 8.44205C-0.539815 11.6137 0.808184 16.3096 2.56908 18.8911C3.43132 20.1696 4.46357 21.571 5.82371 21.5219C6.42209 21.499 6.85253 21.3141 7.298 21.1228C7.81085 20.9025 8.34362 20.6736 9.17549 20.6736C9.97853 20.6736 10.488 20.8965 10.9771 21.1105C11.4421 21.3139 11.8886 21.5093 12.5516 21.4973C13.9603 21.4727 14.8468 20.2188 15.709 18.9403C16.6395 17.5682 17.0484 16.229 17.1105 16.0258L17.1178 16.0023C17.1163 16.0008 17.1048 15.9954 17.0845 15.986C16.7734 15.8419 14.396 14.7402 14.3732 11.7858C14.3503 9.30598 16.2589 8.04956 16.5594 7.85178C16.5777 7.83974 16.59 7.83163 16.5956 7.8274C15.3811 6.00803 13.4867 5.81134 12.8309 5.76216ZM41.2847 21.5095C43.1306 21.5095 44.8429 20.563 45.6201 19.0632H45.6808V21.362H48.4011V11.8226C48.4011 9.05669 46.2152 7.2742 42.8513 7.2742C39.7302 7.2742 37.4228 9.08128 37.3378 11.5645H39.9852C40.2038 10.3843 41.2847 9.60988 42.7662 9.60988C44.5636 9.60988 45.5715 10.4581 45.5715 12.0193V13.0765L41.904 13.2978C38.4915 13.5068 36.6456 14.9205 36.6456 17.3791C36.6456 19.8623 38.5522 21.5095 41.2847 21.5095ZM42.0741 19.2353C40.5075 19.2353 39.5117 18.4732 39.5117 17.3053C39.5117 16.1006 40.4711 15.3999 42.3049 15.2893L45.5717 15.0803V16.1621C45.5717 17.9569 44.0658 19.2353 42.0741 19.2353ZM57.4243 22.1119C56.2463 25.4679 54.8983 26.5743 52.0323 26.5743C51.8137 26.5743 51.085 26.5497 50.915 26.5006V24.2018C51.0972 24.2264 51.5465 24.2509 51.7772 24.2509C53.0767 24.2509 53.8053 23.6977 54.2547 22.2595L54.5218 21.4112L49.5427 7.45864H52.6152L56.0763 18.7805H56.137L59.5981 7.45864H62.5855L57.4243 22.1119ZM25.5216 4.70497H28.9099C31.4601 4.70497 32.9174 6.08179 32.9174 8.50352C32.9174 10.9253 31.4601 12.3144 28.8977 12.3144H25.5216V4.70497Z" fill="#FEFCED"/>
</svg>
