<svg width="100" height="40" viewBox="0 0 100 40" fill="none" xmlns="http://www.w3.org/2000/svg">
<path d="M0.5 6C0.5 2.96243 2.96243 0.5 6 0.5H94C97.0376 0.5 99.5 2.96243 99.5 6V34C99.5 37.0376 97.0376 39.5 94 39.5H6C2.96243 39.5 0.5 37.0376 0.5 34V6Z" stroke="#232323"/>
<path fill-rule="evenodd" clip-rule="evenodd" d="M27.2142 11.8743C28.38 11.9726 29.5459 11.2842 30.2745 10.4114C30.991 9.51403 31.4646 8.30931 31.3432 7.08C30.3109 7.12917 29.0358 7.76841 28.3072 8.66581C27.6392 9.44027 27.0685 10.6942 27.2142 11.8743ZM41.0827 27.7077V8.54287H48.1871C51.8546 8.54287 54.417 11.0998 54.417 14.8369C54.417 18.574 51.806 21.1555 48.0899 21.1555H44.0216V27.7077H41.0827ZM31.3308 12.1079C30.3038 12.048 29.3666 12.4205 28.6096 12.7214C28.1225 12.915 27.71 13.079 27.3961 13.079C27.044 13.079 26.6144 12.9063 26.1321 12.7123L26.1321 12.7123C25.5002 12.4582 24.7777 12.1677 24.0201 12.1816C22.2835 12.2062 20.6683 13.2019 19.7818 14.7877C17.9602 17.9593 19.3082 22.6553 21.0691 25.2368C21.9313 26.5153 22.9635 27.9167 24.3237 27.8675C24.9221 27.8447 25.3525 27.6598 25.798 27.4685C26.3108 27.2482 26.8436 27.0193 27.6755 27.0193C28.4785 27.0193 28.988 27.2422 29.477 27.4562C29.942 27.6596 30.3886 27.8549 31.0515 27.843C32.4603 27.8184 33.3468 26.5645 34.209 25.286C35.1395 23.9139 35.5484 22.5747 35.6105 22.3715L35.6177 22.348C35.6162 22.3465 35.6047 22.3411 35.5845 22.3317C35.2734 22.1876 32.896 21.0858 32.8732 18.1314C32.8503 15.6517 34.7589 14.3953 35.0593 14.1975C35.0776 14.1854 35.09 14.1773 35.0955 14.1731C33.8811 12.3537 31.9866 12.157 31.3308 12.1079ZM59.7846 27.8552C61.6305 27.8552 63.3429 26.9087 64.1201 25.4089H64.1808V27.7077H66.9011V18.1683C66.9011 15.4024 64.7151 13.6199 61.3512 13.6199C58.2302 13.6199 55.9228 15.427 55.8378 17.9102H58.4852C58.7038 16.73 59.7846 15.9556 61.2662 15.9556C63.0635 15.9556 64.0715 16.8038 64.0715 18.365V19.4222L60.404 19.6435C56.9915 19.8525 55.1456 21.2662 55.1456 23.7248C55.1456 26.208 57.0522 27.8552 59.7846 27.8552ZM60.5741 25.581C59.0075 25.581 58.0117 24.8189 58.0117 23.651C58.0117 22.4463 58.9711 21.7456 60.8049 21.635L64.0716 21.426V22.5078C64.0716 24.3026 62.5658 25.581 60.5741 25.581ZM75.9242 28.4576C74.7463 31.8136 73.3983 32.92 70.5322 32.92C70.3136 32.92 69.585 32.8954 69.415 32.8463V30.5475C69.5971 30.572 70.0465 30.5966 70.2772 30.5966C71.5766 30.5966 72.3053 30.0434 72.7546 28.6052L73.0218 27.7569L68.0427 13.8043H71.1152L74.5762 25.1262H74.637L78.098 13.8043H81.0855L75.9242 28.4576ZM44.0216 11.0507H47.4098C49.9601 11.0507 51.4174 12.4275 51.4174 14.8492C51.4174 17.2709 49.9601 18.6601 47.3977 18.6601H44.0216V11.0507Z" fill="black"/>
</svg>
