<svg width="100" height="40" viewBox="0 0 100 40" fill="none" xmlns="http://www.w3.org/2000/svg">
<path d="M0.5 6C0.5 2.96243 2.96243 0.5 6 0.5H94C97.0376 0.5 99.5 2.96243 99.5 6V34C99.5 37.0376 97.0376 39.5 94 39.5H6C2.96243 39.5 0.5 37.0376 0.5 34V6Z" stroke="#E6E6E6"/>
<path d="M42.7434 16.4384C42.6764 16.4384 42.6093 16.4312 42.5414 16.4158L26.2651 12.7092C25.9842 12.6458 25.7513 12.4528 25.6362 12.189C25.5211 11.9253 25.5383 11.6226 25.6815 11.3734L27.2402 8.67278C27.6 8.04384 28.1864 7.59344 28.8896 7.40675C29.5883 7.22097 30.3197 7.31703 30.9495 7.67772L43.1957 14.7492C43.5835 14.973 43.7494 15.4479 43.5863 15.8648C43.4485 16.2164 43.1096 16.4384 42.7434 16.4384Z" fill="#136E35"/>
<path d="M40.0519 16.375H20.3047C20.0228 16.375 19.7573 16.2436 19.586 16.0207C19.4148 15.7968 19.3568 15.5068 19.4293 15.2349L20.2811 12.0449C20.6781 10.5931 22.1752 9.73309 23.6143 10.1264L40.2866 14.5933C40.7261 14.7111 41.0098 15.1362 40.95 15.5875C40.8911 16.0379 40.5068 16.375 40.0519 16.375Z" fill="#198942"/>
<path d="M42.2812 32.6875H18.7188C17.2198 32.6875 16 31.4677 16 29.9688V17.2812C16 15.7823 17.2198 14.5625 18.7188 14.5625H42.2812C43.7802 14.5625 45 15.7823 45 17.2812V29.9688C45 31.4677 43.7802 32.6875 42.2812 32.6875Z" fill="#1FB256"/>
<path d="M30.5 27.25C28.5008 27.25 26.875 25.6242 26.875 23.625C26.875 21.6258 28.5008 20 30.5 20C32.4992 20 34.125 21.6258 34.125 23.625C34.125 25.6242 32.4992 27.25 30.5 27.25Z" fill="#EBEBEB"/>
<path d="M40.4688 24.5566C40.466 24.5566 40.4633 24.5566 40.4606 24.5566L37.7419 24.5312C37.2416 24.5267 36.8392 24.1171 36.8438 23.6159C36.8483 23.1184 37.2534 22.7188 37.75 22.7188H37.7582L40.4769 22.7441C40.9772 22.7487 41.3795 23.1583 41.375 23.6594C41.3705 24.157 40.9654 24.5566 40.4688 24.5566Z" fill="#EBEBEB"/>
<path d="M23.25 24.5566C23.2473 24.5566 23.2446 24.5566 23.2419 24.5566L20.5231 24.5313C20.0219 24.5267 19.6205 24.1171 19.625 23.6159C19.6295 23.1148 20.0002 22.6979 20.5394 22.7188L23.2582 22.7441C23.7584 22.7487 24.1608 23.1583 24.1563 23.6594C24.1517 24.157 23.7466 24.5566 23.25 24.5566Z" fill="#EBEBEB"/>
<path d="M63.9299 12.72C65.2859 12.72 65.8859 13.836 65.9819 14.52L65.1179 15.072C64.9139 14.748 64.5779 14.34 63.7259 14.34C62.8019 14.34 61.9379 15.012 61.9379 15.624C61.9379 16.02 62.3459 16.236 63.1379 16.404L64.0379 16.584C65.3099 16.848 65.9939 17.28 65.9939 18.456C65.9939 19.812 64.5659 21.408 61.3739 21.408C58.7339 21.408 57.2339 19.944 57.2339 17.748C57.2339 16.56 57.5579 15.468 57.9659 14.616L59.0459 15C58.7219 15.768 58.4939 16.752 58.4939 17.412C58.4939 19.008 59.6459 19.776 61.5659 19.776C63.7139 19.776 64.9019 19.08 64.9019 18.648C64.9019 18.348 64.3859 18.228 63.7259 18.084L62.7899 17.88C61.8059 17.664 60.8699 17.232 60.8699 15.84C60.8699 14.16 62.3459 12.72 63.9299 12.72ZM60.7619 23.544C60.4019 23.544 60.1019 23.256 60.1019 22.896C60.1019 22.536 60.4019 22.236 60.7619 22.236C61.1219 22.236 61.4099 22.536 61.4099 22.896C61.4099 23.256 61.1339 23.544 60.7619 23.544ZM62.4059 23.544C62.0219 23.544 61.7459 23.268 61.7459 22.896C61.7459 22.536 62.0219 22.236 62.4059 22.236C62.7659 22.236 63.0539 22.536 63.0539 22.896C63.0539 23.256 62.7659 23.544 62.4059 23.544ZM74.1178 17.868L74.3218 17.904L74.2498 19.464L74.0458 19.5C72.8578 19.5 72.3178 18.972 71.8858 18.048C71.5618 19.056 70.7338 19.608 69.4138 19.608C67.0498 19.608 66.7378 18.216 66.8338 16.644L67.9138 16.596C67.8778 17.784 68.6098 17.952 69.5818 17.952C70.5298 17.952 71.1658 17.652 71.2738 17.112L69.4978 13.428L70.7578 12.852L72.5218 16.56C72.9658 17.484 73.2178 17.868 74.1178 17.868ZM76.5133 12.468C76.1533 12.468 75.8533 12.168 75.8533 11.808C75.8533 11.448 76.1533 11.148 76.5133 11.148C76.8733 11.148 77.1613 11.448 77.1613 11.808C77.1613 12.168 76.8853 12.468 76.5133 12.468ZM78.1573 12.468C77.7733 12.468 77.4973 12.18 77.4973 11.808C77.4973 11.448 77.7733 11.148 78.1573 11.148C78.5173 11.148 78.8053 11.448 78.8053 11.808C78.8053 12.168 78.5173 12.468 78.1573 12.468ZM80.3893 17.868L80.5933 17.904L80.5213 19.464L80.3173 19.5C79.1773 19.5 78.0853 19.284 77.1733 18.9C76.4173 19.248 75.3493 19.5 74.0413 19.5L73.8373 19.464L73.9093 17.904L74.1133 17.868C74.5933 17.868 75.0493 17.844 75.4933 17.796C75.0493 17.316 74.7853 16.764 74.7853 16.152C74.7853 14.736 75.7573 13.368 77.3293 13.368C78.7333 13.368 79.6693 14.628 79.6693 15.948C79.6693 16.668 79.3693 17.268 78.8533 17.784C79.3213 17.844 79.8373 17.868 80.3893 17.868ZM75.8773 16.14C75.8773 16.692 76.3573 17.136 77.2093 17.448C78.0373 17.16 78.5773 16.74 78.5773 16.224C78.5773 15.588 78.0493 15 77.2333 15C76.4293 15 75.8773 15.564 75.8773 16.14ZM81.9425 13.536C81.4985 13.536 81.1985 13.2 81.1985 12.804C81.1985 12.408 81.4985 12.072 81.9425 12.072C82.3745 12.072 82.6745 12.408 82.6745 12.804C82.6745 13.2 82.3745 13.536 81.9425 13.536ZM80.3225 19.5L80.1185 19.428L80.1905 17.94L80.3945 17.868C81.2825 17.868 81.7025 17.544 81.7025 16.848C81.7025 16.26 81.5225 15.36 81.3545 14.616L82.5425 14.28C82.7465 14.988 82.9385 15.912 82.9385 16.74C82.9385 18.492 81.9785 19.5 80.3225 19.5Z" fill="#232323"/>
<path d="M61.0401 28.34L61.9401 29.408C61.2081 30.212 60.1761 30.656 58.9281 30.656C56.4321 30.656 54.6441 28.88 54.6441 26.276C54.6441 23.744 56.4681 21.884 58.9761 21.884C60.2241 21.884 61.1961 22.268 61.9521 23.036L61.0161 24.212C60.5001 23.624 59.7441 23.336 58.9641 23.336C57.5481 23.336 56.2641 24.308 56.2641 26.264C56.2641 28.208 57.5481 29.216 58.9761 29.216C59.7441 29.216 60.5241 28.928 61.0401 28.34ZM67.9297 25.136V24.152H69.4537V30.5H67.9297V29.348C67.4017 30.176 66.6577 30.644 65.6617 30.644C64.0177 30.644 62.5417 29.504 62.5417 27.332C62.5417 25.16 63.9697 23.984 65.6617 23.984C66.6337 23.984 67.3897 24.38 67.9297 25.136ZM65.8897 29.348C66.9097 29.348 67.6417 28.508 67.9297 27.32V27.26C67.6177 26.036 66.8257 25.28 65.8897 25.28C64.9057 25.28 64.1497 25.964 64.1497 27.308C64.1497 28.604 64.9057 29.348 65.8897 29.348ZM73.0259 30.656C72.0659 30.656 71.1899 30.368 70.6739 30.092L70.9379 28.844C71.4779 29.192 72.3179 29.48 73.0739 29.48C73.8419 29.48 74.3219 29.252 74.3219 28.736C74.3219 27.476 70.7579 28.58 70.7579 26.024C70.7579 24.788 71.7419 23.972 73.3979 23.972C74.2259 23.972 75.0539 24.2 75.6419 24.512L75.3659 25.748C74.8019 25.424 74.1299 25.184 73.4699 25.184C72.7739 25.184 72.2819 25.46 72.2819 25.928C72.2819 27.284 75.8459 26.192 75.8459 28.58C75.8459 29.828 74.6579 30.656 73.0259 30.656ZM80.9462 23.984C82.2782 23.984 83.2622 24.668 83.2622 26.732V30.5H81.7382V26.828C81.7382 25.76 81.3302 25.292 80.5742 25.292C79.7342 25.292 79.0982 25.892 78.5822 27.104V30.5H77.0462V22.064H78.5822V25.34C79.1822 24.452 79.9862 23.984 80.9462 23.984Z" fill="#232323"/>
</svg>
