<svg width="100" height="40" viewBox="0 0 100 40" fill="none" xmlns="http://www.w3.org/2000/svg">
<path d="M0.5 6C0.5 2.96243 2.96243 0.5 6 0.5H94C97.0376 0.5 99.5 2.96243 99.5 6V34C99.5 37.0376 97.0376 39.5 94 39.5H6C2.96243 39.5 0.5 37.0376 0.5 34V6Z" stroke="#E6E6E6"/>
<g clip-path="url(#clip0_6969_5905)">
<path d="M44.225 9.5145H17.7751C16.5206 9.5145 15.5 10.5351 15.5 11.7896V28.2104C15.5 29.4649 16.5206 30.4855 17.7751 30.4855H44.2249C45.4795 30.4855 46.5 29.4649 46.5 28.2104V11.7896C46.5001 10.5351 45.4795 9.5145 44.225 9.5145ZM25.0359 23.169H28.109C28.4777 23.169 28.7765 23.4679 28.7765 23.8365C28.7765 24.2052 28.4776 24.5041 28.109 24.5041H25.0359C24.6672 24.5041 24.3684 24.2052 24.3684 23.8365C24.3684 23.4679 24.6672 23.169 25.0359 23.169ZM18.3869 16.4733C18.3869 16.1046 18.6857 15.8058 19.0544 15.8058H23.0534C23.4222 15.8058 23.721 16.1046 23.721 16.4733V19.3646C23.721 19.7333 23.4221 20.0321 23.0534 20.0321H19.0544C18.6857 20.0321 18.3869 19.7333 18.3869 19.3646V16.4733ZM19.0544 23.169H22.1275C22.4962 23.169 22.795 23.4679 22.795 23.8365C22.795 24.2052 22.4961 24.5041 22.1275 24.5041H19.0544C18.6857 24.5041 18.3869 24.2052 18.3869 23.8365C18.3869 23.4679 18.6858 23.169 19.0544 23.169ZM30.0252 27.4725H19.0544C18.6857 27.4725 18.3869 27.1736 18.3869 26.805C18.3869 26.4363 18.6857 26.1374 19.0544 26.1374H30.0252C30.394 26.1374 30.6928 26.4363 30.6928 26.805C30.6928 27.1736 30.394 27.4725 30.0252 27.4725ZM34.0905 24.5041H31.0174C30.6487 24.5041 30.3499 24.2052 30.3499 23.8365C30.3499 23.4679 30.6487 23.169 31.0174 23.169H34.0905C34.4592 23.169 34.758 23.4679 34.758 23.8365C34.758 24.2052 34.4592 24.5041 34.0905 24.5041ZM40.072 24.5041H36.9989C36.6302 24.5041 36.3314 24.2052 36.3314 23.8365C36.3314 23.4679 36.6302 23.169 36.9989 23.169H40.072C40.4407 23.169 40.7395 23.4679 40.7395 23.8365C40.7395 24.2052 40.4406 24.5041 40.072 24.5041ZM42.9457 14.7526H35.6976C35.3289 14.7526 35.0301 14.4537 35.0301 14.0851C35.0301 13.7164 35.329 13.4175 35.6976 13.4175H42.9457C43.3144 13.4175 43.6132 13.7164 43.6132 14.0851C43.6132 14.4537 43.3143 14.7526 42.9457 14.7526Z" fill="#429DF8"/>
</g>
<path d="M60.8922 10.476C60.8922 10.116 61.1922 9.816 61.5522 9.816C61.9122 9.816 62.2002 10.116 62.2002 10.476C62.2002 10.836 61.9242 11.136 61.5522 11.136C61.1922 11.136 60.8922 10.836 60.8922 10.476ZM62.5362 10.476C62.5362 10.116 62.8122 9.816 63.1962 9.816C63.5562 9.816 63.8442 10.116 63.8442 10.476C63.8442 10.836 63.5562 11.136 63.1962 11.136C62.8122 11.136 62.5362 10.848 62.5362 10.476ZM63.3762 16.5H61.1322C58.4562 16.5 57.4722 15.396 57.4722 13.536C57.4722 12.804 57.6402 11.928 58.0002 11.148L59.0802 11.532C58.8402 12.156 58.7082 12.672 58.7082 13.188C58.7082 14.34 59.5002 14.868 61.2402 14.868H63.3642C65.2362 14.868 66.0162 14.412 66.0162 13.464C66.0162 12.696 65.8122 11.88 65.6082 11.076L66.8322 10.74C67.0482 11.484 67.2642 12.444 67.2642 13.356C67.2642 15.288 66.2682 16.5 63.3762 16.5ZM71.0673 11.136C72.7233 11.136 73.6233 12.78 73.6233 14.592C73.6233 16.908 72.5673 19.032 69.3753 19.032C68.6553 19.032 67.9713 18.912 67.6713 18.816L67.7793 17.316C68.1753 17.4 68.7273 17.472 69.4113 17.472C71.6073 17.472 72.4953 16.38 72.5433 15.288C72.2313 15.792 71.6793 16.248 70.6713 16.248C69.1353 16.248 68.4273 15.216 68.4273 14.028C68.4273 12.384 69.5193 11.136 71.0673 11.136ZM70.8153 14.688C71.6673 14.688 72.2073 14.424 72.4833 14.124C72.2673 13.44 71.7993 12.744 70.9113 12.744C69.9633 12.744 69.4953 13.38 69.4953 13.884C69.4953 14.424 70.0473 14.688 70.8153 14.688ZM77.9898 14.868H78.9618L79.1658 14.928L79.0938 16.44L78.8898 16.5H77.8938C77.5338 18.048 76.3698 19.152 74.6898 19.152C74.1618 19.152 73.7178 19.056 73.5258 18.996L73.6338 17.484C73.9218 17.52 74.1858 17.532 74.4618 17.532C76.0818 17.532 76.7778 16.524 76.7778 15.588C76.7778 14.76 76.5258 13.704 76.2978 12.468L77.5338 12.12C77.7378 13.068 77.9298 14.028 77.9898 14.868ZM84.357 9L80.613 11.028C82.245 11.904 83.457 12.66 83.457 14.076C83.457 15.696 82.353 16.5 80.433 16.5H78.885L78.681 16.464L78.753 14.904L78.957 14.868H80.733C81.609 14.868 82.293 14.664 82.293 14.184C82.293 13.404 81.213 12.9 79.161 11.844V10.44L83.901 7.776L84.357 9ZM60.8165 28.708C59.3645 29.344 58.7165 29.8 58.7165 30.484C58.7165 31.072 59.3765 31.672 61.1165 31.672C62.5805 31.672 63.7805 31.24 64.1165 31.096L64.3565 32.512C63.9965 32.692 62.7965 33.292 60.9485 33.292C58.8965 33.292 57.5765 32.296 57.5765 30.64C57.5765 29.188 58.6205 28.36 59.9285 27.748C59.3405 27.172 58.5965 26.428 58.2965 26.08L58.3445 24.616C58.5485 24.436 59.7005 23.68 61.2965 23.68C62.8325 23.68 63.7325 24.412 63.7325 25.576C63.7325 26.464 63.1925 27.112 62.0885 27.796C62.5085 27.856 63.1325 27.868 64.1165 27.868H64.4165L64.6205 27.904L64.5485 29.464L64.3445 29.5H64.0085C62.2925 29.5 61.5365 29.404 60.8165 28.708ZM62.6405 25.876C62.6405 25.492 62.0165 25.228 61.1765 25.228C60.4445 25.228 59.7485 25.432 59.3525 25.636C59.9165 26.188 60.6725 26.908 61.0445 27.244C62.1245 26.74 62.6405 26.284 62.6405 25.876ZM67.3421 21.328C66.9101 21.328 66.6221 21.004 66.6221 20.632C66.6221 20.248 66.9101 19.924 67.3421 19.924C67.7501 19.924 68.0381 20.248 68.0381 20.632C68.0381 21.004 67.7501 21.328 67.3421 21.328ZM67.3421 22.18C68.9861 22.18 69.8741 23.704 69.8741 25.516C69.8741 28.492 68.7581 29.5 66.6221 29.5H64.3421L64.1381 29.464L64.2101 27.904L64.4141 27.868H66.6941C67.8821 27.868 68.7221 27.664 68.7941 26.14C68.4821 26.62 67.9181 27.04 66.9461 27.04C65.5061 27.04 64.7861 26.164 64.7861 24.952C64.7861 23.452 65.8061 22.18 67.3421 22.18ZM67.1141 25.612C67.9061 25.612 68.4461 25.36 68.7341 25.036C68.5781 24.46 68.1221 23.728 67.2101 23.728C66.3461 23.728 65.8541 24.328 65.8541 24.796C65.8541 25.312 66.3581 25.612 67.1141 25.612ZM78.1881 27.868L78.3921 27.904L78.3201 29.464L78.1161 29.5C76.9281 29.5 76.3881 28.972 75.9561 28.048C75.6321 29.056 74.8041 29.608 73.4841 29.608C71.1201 29.608 70.8081 28.216 70.9041 26.644L71.9841 26.596C71.9481 27.784 72.6801 27.952 73.6521 27.952C74.6001 27.952 75.2361 27.652 75.3441 27.112L73.5681 23.428L74.8281 22.852L76.5921 26.56C77.0361 27.484 77.2881 27.868 78.1881 27.868ZM79.4436 20.908H80.7396V26.692C80.7396 28.684 79.5996 29.5 78.1116 29.5L77.9076 29.464L77.9796 27.904L78.1836 27.868C78.9876 27.868 79.4436 27.688 79.4436 26.776V20.908ZM83.6949 29.5H82.3989V20.908H83.6949V29.5Z" fill="#232323"/>
<defs>
<clipPath id="clip0_6969_5905">
<rect width="31" height="31" fill="white" transform="translate(15.5 4.5)"/>
</clipPath>
</defs>
</svg>
