<svg width="100" height="40" viewBox="0 0 100 40" fill="none" xmlns="http://www.w3.org/2000/svg">
<path d="M0.5 6C0.5 2.96243 2.96243 0.5 6 0.5H94C97.0376 0.5 99.5 2.96243 99.5 6V34C99.5 37.0376 97.0376 39.5 94 39.5H6C2.96243 39.5 0.5 37.0376 0.5 34V6Z" stroke="#E6E6E6"/>
<path fill-rule="evenodd" clip-rule="evenodd" d="M47.5892 27.2218V19.7121H51.4651C53.0534 19.7121 54.394 19.1799 55.4868 18.1303L55.7491 17.8642C57.7453 15.6911 57.6142 12.3058 55.4868 10.2953C54.4231 9.23092 52.966 8.65438 51.4651 8.68394H45.2432V27.2218H47.5892ZM47.5894 17.4354V10.9605H51.5243C52.3695 10.9605 53.1711 11.2857 53.7686 11.877C55.0365 13.1188 55.0656 15.1884 53.8414 16.4745C53.2439 17.1102 52.3987 17.465 51.5243 17.4354H47.5894ZM66.6921 15.5285C65.6867 14.5972 64.317 14.1241 62.5831 14.1241C60.3537 14.1241 58.678 14.9519 57.5706 16.5929L59.6397 17.9085C60.3974 16.785 61.4319 16.2233 62.7433 16.2233C63.5739 16.2233 64.3753 16.5337 65.0019 17.0955C65.6139 17.6277 65.9636 18.3964 65.9636 19.2094V19.7564C65.0602 19.2538 63.9236 18.9877 62.5248 18.9877C60.8928 18.9877 59.5814 19.3721 58.6051 20.1556C57.6289 20.9391 57.1334 21.9739 57.1334 23.2896C57.1043 24.487 57.6143 25.6253 58.5177 26.394C59.4357 27.2218 60.6014 27.6358 61.9711 27.6358C63.5885 27.6358 64.8707 26.9114 65.847 25.4627H65.949V27.2218H68.193V19.4016C68.193 17.7607 67.6975 16.4598 66.6921 15.5285ZM60.3246 24.8861C59.8437 24.5313 59.5522 23.9548 59.5522 23.3339C59.5522 22.6391 59.8728 22.0626 60.4995 21.6043C61.1407 21.146 61.9423 20.9095 62.8895 20.9095C64.2012 20.8947 65.2213 21.1904 65.95 21.7817C65.95 22.7869 65.5565 23.6591 64.7841 24.3983C64.0846 25.1079 63.1373 25.507 62.1463 25.507C61.4905 25.5218 60.8493 25.3 60.3246 24.8861ZM73.2343 32.795L81.0736 14.538H78.5236L74.8954 23.6443H74.8517L71.136 14.538H68.5861L73.7297 26.4088L70.8155 32.795H73.2343Z" fill="#3C4043"/>
<path d="M39.49 18.0859C39.49 17.3615 39.4318 16.6372 39.3152 15.9276H29.4214V20.0225H35.0895C34.8564 21.3382 34.0987 22.5208 32.9913 23.26V25.9209H36.3718C38.3535 24.073 39.49 21.3382 39.49 18.0859Z" fill="#4285F4"/>
<path d="M29.4214 28.4932C32.2483 28.4932 34.6379 27.547 36.3719 25.9209L32.9914 23.26C32.0443 23.9104 30.8349 24.28 29.4214 24.28C26.6821 24.28 24.3652 22.4026 23.5347 19.8895H20.0522V22.6391C21.8299 26.2314 25.4581 28.4932 29.4214 28.4932Z" fill="#34A853"/>
<path d="M23.5353 19.8895C23.0981 18.5738 23.0981 17.1399 23.5353 15.8094V13.0745H20.0522C18.5511 16.0755 18.5511 19.6234 20.0522 22.6243L23.5353 19.8895Z" fill="#FBBC04"/>
<path d="M29.4214 11.4188C30.9223 11.3892 32.3648 11.9658 33.4431 13.0154L36.4448 9.97006C34.5359 8.16654 32.0297 7.17608 29.4214 7.20565C25.4581 7.20565 21.8299 9.48223 20.0522 13.0745L23.5347 15.8241C24.3652 13.2962 26.6821 11.4188 29.4214 11.4188Z" fill="#EA4335"/>
</svg>
