<svg width="100" height="40" viewBox="0 0 100 40" fill="none" xmlns="http://www.w3.org/2000/svg">
<path d="M0.5 6C0.5 2.96243 2.96243 0.5 6 0.5H94C97.0376 0.5 99.5 2.96243 99.5 6V34C99.5 37.0376 97.0376 39.5 94 39.5H6C2.96243 39.5 0.5 37.0376 0.5 34V6Z" stroke="#E6E6E6"/>
<g clip-path="url(#clip0_4240_45951)">
<path d="M45.0726 21.6096H18V30.4842H45.0726V21.6096Z" fill="#84B740"/>
<path d="M45.0726 9.5H18V18.3825H45.0726V9.5Z" fill="#259BD6"/>
<path d="M72.1452 28.6808L72.0246 28.7045C71.6066 28.7836 71.4539 28.8153 71.1485 28.8153C70.4411 28.8153 69.6051 28.4593 69.6051 26.7825C69.6051 25.9203 69.7498 24.7734 71.0681 24.7734H71.0761C71.3012 24.7893 71.5584 24.813 72.0407 24.9554L72.1452 24.987V28.6808ZM72.3622 20.3203L72.1452 20.3599V23.4605L71.9523 23.4051L71.896 23.3893C71.679 23.326 71.1806 23.1836 70.6983 23.1836C68.0618 23.1836 67.5072 25.1452 67.5072 26.7904C67.5072 29.0446 68.7933 30.3418 71.0359 30.3418C71.9844 30.3418 72.6837 30.2469 73.3911 30.0175C74.0422 29.8119 74.2753 29.5192 74.2753 28.8944V19.996C73.6483 20.1068 72.9972 20.2175 72.3622 20.3203Z" fill="#27292D"/>
<path d="M79.9824 28.7362L79.8699 28.7678L79.468 28.8706C79.0902 28.9655 78.7526 29.0209 78.4954 29.0209C77.8764 29.0209 77.5067 28.7203 77.5067 28.2062C77.5067 27.874 77.6594 27.3124 78.6722 27.3124H79.9824V28.7362ZM79.058 23.1441C78.2462 23.1441 77.4102 23.2864 76.3733 23.6028L75.6981 23.8006L75.9231 25.3034L76.5823 25.0898C77.2735 24.8684 78.1336 24.726 78.7767 24.726C79.0661 24.726 79.9503 24.726 79.9503 25.6672V26.0785H78.7204C76.4778 26.0785 75.4408 26.7825 75.4408 28.2932C75.4408 29.5825 76.3974 30.3576 78.005 30.3576C78.5034 30.3576 79.1947 30.2627 79.7895 30.1203L79.8217 30.1124L79.8538 30.1203L80.0548 30.152C80.6817 30.2627 81.3328 30.3734 81.9678 30.4921V25.5565C81.9678 23.9588 80.9872 23.1441 79.058 23.1441Z" fill="#27292D"/>
<path d="M64.3642 28.7362L64.2517 28.7678L63.8498 28.8706C63.472 28.9655 63.1424 29.0209 62.8772 29.0209C62.2582 29.0209 61.8885 28.7203 61.8885 28.2062C61.8885 27.874 62.0412 27.3124 63.046 27.3124H64.3562L64.3642 28.7362ZM63.4479 23.1441C62.628 23.1441 61.8001 23.2864 60.7631 23.6028L60.0879 23.8006L60.313 25.3034L60.9721 25.0898C61.6634 24.8684 62.5235 24.726 63.1665 24.726C63.4559 24.726 64.3401 24.726 64.3401 25.6672V26.0785H63.1103C60.8676 26.0785 59.8227 26.7825 59.8227 28.2932C59.8227 29.5825 60.7792 30.3576 62.3949 30.3576C62.8932 30.3576 63.5845 30.2627 64.1794 30.1203L64.2115 30.1124L64.2437 30.1203L64.4366 30.152C65.0716 30.2627 65.7147 30.3734 66.3497 30.5V25.5644C66.3577 23.9508 65.377 23.1441 63.4479 23.1441Z" fill="#27292D"/>
<path d="M55.9 23.1599C54.8792 23.1599 54.0352 23.4921 53.7217 23.6345L53.6413 23.674L53.569 23.6186C53.1349 23.3102 52.4999 23.152 51.6157 23.152C50.836 23.152 50.1045 23.2627 49.3087 23.4921C48.6255 23.6977 48.3602 24.022 48.3602 24.6311V30.2706H50.4984V25.0582L50.6029 25.0266C51.0369 24.8842 51.2941 24.8605 51.5433 24.8605C52.1623 24.8605 52.4758 25.1847 52.4758 25.8175V30.2785H54.5818V25.7305C54.5818 25.4616 54.5255 25.3034 54.5175 25.2718L54.4451 25.1373L54.5898 25.074C54.9113 24.9316 55.265 24.8605 55.6348 24.8605C56.0608 24.8605 56.5672 25.0266 56.5672 25.8175V30.2785H58.6652V25.6119C58.6652 23.9588 57.7649 23.1599 55.9 23.1599Z" fill="#27292D"/>
<path d="M78.4069 15.2898C78.0934 15.2898 77.571 15.2582 77.161 15.1791L77.0404 15.1554V12.1102C77.0404 11.8571 76.9922 11.6989 76.9842 11.6751L76.9199 11.5486L77.0565 11.4932C77.0887 11.4774 77.1208 11.4695 77.161 11.4537L77.1851 11.4379C77.2334 11.422 77.2816 11.4062 77.3298 11.3904C77.3539 11.3825 77.37 11.3746 77.3861 11.3746C77.8603 11.248 78.2944 11.2638 78.4873 11.248H78.4954C79.8056 11.248 79.9583 12.3949 79.9583 13.2571C79.9503 14.9339 79.1063 15.2898 78.4069 15.2898ZM78.3989 9.5H78.3426C77.1128 9.5 75.8508 9.8322 75.4007 10.4808C75.1595 10.7972 75.0229 11.1927 75.0148 11.6593V14.7994C75.0148 15.0684 74.9586 15.1712 74.9505 15.1949L74.8782 15.3294H70.9957V13.1463H70.9877C70.9395 10.8446 69.5569 9.5791 67.5554 9.5791H65.6021C65.5217 10.1407 65.4574 10.5362 65.377 11.0977H67.3223C68.3431 11.0977 68.8817 11.952 68.8817 13.265V15.4638L68.745 15.3927C68.7209 15.3847 68.5521 15.3294 68.2869 15.3294H64.9269C64.8626 15.7486 64.7822 16.2944 64.6938 16.8401H75.0229C75.3765 16.7689 75.7865 16.7056 76.1402 16.6503C76.6627 16.9034 77.6353 17.0379 78.3024 17.0379C80.5451 17.0379 82 15.5588 82 13.2808C81.992 11.0266 80.5853 9.54746 78.3989 9.5Z" fill="#27292D"/>
<path d="M60.2889 17.7655H60.3853C62.628 17.7655 63.673 17.0379 63.673 15.2424C63.673 13.9531 62.7164 12.9249 61.1088 12.9249H59.043C58.424 12.9249 58.0543 12.5768 58.0543 11.9915C58.0543 11.596 58.207 11.1056 59.2198 11.1056H63.7373C63.8337 10.5282 63.8819 10.1644 63.9704 9.58701H59.2761C57.0897 9.58701 55.9884 10.4887 55.9884 11.9915C55.9884 13.4944 56.945 14.2537 58.5526 14.2537H60.6184C61.2374 14.2537 61.6071 14.7362 61.6071 15.2424C61.6071 15.5746 61.4544 16.2627 60.4496 16.2627H60.104L53.4886 16.2469H52.2828C51.262 16.2469 50.5466 15.6774 50.5466 14.3565V13.4469C50.5466 12.0706 51.1012 11.2164 52.2828 11.2164H54.2442C54.3326 10.6311 54.3889 10.2593 54.4692 9.70565H51.7925C49.791 9.70565 48.4084 11.0266 48.3602 13.3282V14.3565C48.4084 16.6582 49.791 17.7576 51.7925 17.7576H53.7458L57.3308 17.7655H60.2889Z" fill="#27292D"/>
</g>
<defs>
<clipPath id="clip0_4240_45951">
<rect width="64" height="21" fill="white" transform="translate(18 9.5)"/>
</clipPath>
</defs>
</svg>
