<svg width="100" height="40" viewBox="0 0 100 40" fill="none" xmlns="http://www.w3.org/2000/svg">
<path d="M0.5 6C0.5 2.96243 2.96243 0.5 6 0.5H94C97.0376 0.5 99.5 2.96243 99.5 6V34C99.5 37.0376 97.0376 39.5 94 39.5H6C2.96243 39.5 0.5 37.0376 0.5 34V6Z" stroke="#E6E6E6"/>
<path d="M40.636 35.57C49.2553 35.57 56.2427 28.5991 56.2427 20C56.2427 11.4009 49.2553 4.43 40.636 4.43C32.0166 4.43 25.0293 11.4009 25.0293 20C25.0293 28.5991 32.0166 35.57 40.636 35.57Z" fill="#F93232"/>
<path d="M59.364 4.43C55.8587 4.43 52.6344 5.59775 50.0312 7.544H50V7.5658C49.3819 8.02978 48.8138 8.55294 48.2723 9.101H51.7276C52.2083 9.58834 52.6515 10.1099 53.062 10.658H46.9254C46.5477 11.1547 46.2013 11.6732 45.8845 12.215H54.0998C54.3932 12.7195 54.6695 13.2333 54.9083 13.772H45.0901C44.8669 14.278 44.6703 14.7965 44.5017 15.329H55.4951C55.6574 15.8366 55.7854 16.3582 55.8977 16.886H44.0944C43.9898 17.3967 43.9024 17.9136 43.8493 18.443H56.149C56.2099 18.9537 56.2426 19.4722 56.2426 20H43.7573C43.7573 20.5278 43.7994 21.0432 43.8509 21.557H56.1521C56.0928 22.0848 56.007 22.6033 55.8993 23.114H44.0959C44.2036 23.6449 44.3425 24.1619 44.5033 24.671H55.4966C55.3281 25.2035 55.1314 25.722 54.9083 26.228H45.0901C45.3257 26.7636 45.5911 27.2836 45.8845 27.785H54.0998C53.7846 28.3268 53.4334 28.8453 53.0557 29.342H46.9254C47.3406 29.8901 47.7885 30.4117 48.2707 30.899H51.7276C51.1845 31.4486 50.618 31.9702 50 32.4342C52.6094 34.3945 55.8447 35.57 59.364 35.57C67.9836 35.57 74.9707 28.5978 74.9707 20C74.9707 11.4022 67.9836 4.43 59.364 4.43Z" fill="#FED049"/>
</svg>
