<svg width="100" height="40" viewBox="0 0 100 40" fill="none" xmlns="http://www.w3.org/2000/svg">
<path d="M0.5 6C0.5 2.96243 2.96243 0.5 6 0.5H94C97.0376 0.5 99.5 2.96243 99.5 6V34C99.5 37.0376 97.0376 39.5 94 39.5H6C2.96243 39.5 0.5 37.0376 0.5 34V6Z" stroke="white"/>
<path d="M84.344 16.1773L82.71 20.6614C82.4291 21.4344 81.5886 22.0631 80.8159 22.0631L78.1003 22.0616C78.3852 21.6138 78.6155 21.1454 78.7925 20.6597L80.4296 16.1781H76.4987L74.8678 20.6597C74.5865 21.4327 73.7402 22.0616 72.9672 22.0616L71.6585 22.0631H70.251C70.5363 21.6157 70.7641 21.1472 70.9407 20.6614L72.5773 16.1773H68.6494L67.0164 20.6614C66.7352 21.4344 65.8909 22.0631 65.1183 22.0631L52.5763 22.0643C52.8616 21.6169 53.1001 21.1755 53.2768 20.6896L53.6902 19.5405C54.7592 16.6037 53.2396 14.2144 50.3026 14.2144H45.8331L44.409 18.139H48.8788C49.6514 18.139 50.0515 18.7675 49.7702 19.5405L49.3332 20.6896C49.0515 21.4623 48.2166 22.0631 47.4436 22.0631H40.9923L39.5671 25.9884H79.4095C82.3463 25.9884 85.5595 23.6263 86.6285 20.6895L88.275 16.1773H84.344Z" fill="#EE7623"/>
<path d="M42.6913 6.33499H38.7734C36.9163 11.4681 33.8112 19.9821 32.1013 24.665C31.9312 25.1095 31.7226 25.5409 31.4598 25.9529H31.6311C31.6307 25.9541 31.6301 25.9554 31.6301 25.9554L34.1686 25.9566C34.8474 25.9566 35.5705 25.4941 35.9276 24.8592C35.9866 24.7595 36.038 24.6566 36.0771 24.5494L37.7079 20.0679H37.7073C39.7347 14.5071 42.4865 6.94484 42.6913 6.33499Z" fill="#9D9D9C"/>
<path d="M22.0957 25.9881H11.725L13.1533 22.0634H23.5244C24.2971 22.0634 25.155 21.4349 25.4361 20.6619L25.8407 19.5409C26.122 18.7679 25.7218 18.139 24.9493 18.139H18.5106L19.9348 14.2147H26.3731C29.3099 14.2147 30.8297 16.6037 29.761 19.5409L29.361 20.6619C28.2916 23.5987 25.0325 25.9881 22.0957 25.9881Z" fill="#EE7623"/>
<path d="M39.5536 30.4314H39.0719L38.8926 30.9215H39.3742L39.5536 30.4314Z" fill="#9D9D9C"/>
<path d="M40.5677 31.8845C40.485 32.11 40.367 32.2647 40.214 32.3441C40.1092 32.4013 39.9446 32.428 39.7194 32.428H38.509C38.2399 32.428 38.0543 32.3796 37.956 32.2866C37.8298 32.1721 37.8201 31.9688 37.9254 31.6812L38.2018 30.9259H37.7115L37.4351 31.6812C37.1294 32.5166 37.4458 32.9315 38.3823 32.9315H39.9857C40.4231 32.9315 40.7672 32.6665 40.9288 32.225L41.4043 30.9261H40.9185L40.5677 31.8845Z" fill="#9D9D9C"/>
<path d="M40.3928 30.4314H39.9114L39.7321 30.9215H40.2133L40.3928 30.4314Z" fill="#9D9D9C"/>
<path d="M43.7033 31.9552C43.7665 31.7829 43.8576 31.6415 43.9791 31.5271C44.1145 31.3986 44.2627 31.3321 44.4261 31.3321C44.6602 31.3321 44.7728 31.4469 44.7653 31.6725L45.2638 31.4696C45.2493 31.1115 44.995 30.8997 44.6066 30.8997C44.3106 30.8997 44.026 31.0013 43.7602 31.2086C43.4939 31.4165 43.309 31.6683 43.201 31.9639C43.1411 32.1277 43.1154 32.2825 43.1282 32.428H42.6196H42.4874H42.328C42.1424 32.428 42.0242 32.4014 41.9755 32.3531C41.9073 32.2866 41.9102 32.1452 41.9896 31.929L42.6655 30.0826H42.1752L41.4266 32.1281C41.3376 32.3706 41.325 32.5607 41.3931 32.702C41.4643 32.8566 41.6183 32.932 41.8566 32.932H42.3033H42.4355H44.7507L44.9349 32.4281H43.6896C43.6268 32.3085 43.6305 32.1543 43.7033 31.9552Z" fill="#9D9D9C"/>
<path d="M50.4571 30.0206H49.9757L49.7962 30.5106H50.2776L50.4571 30.0206Z" fill="#9D9D9C"/>
<path d="M49.9034 30.8818C49.3161 30.8818 48.7517 31.3015 48.5316 31.9022C48.4622 32.0922 48.4411 32.2691 48.4673 32.4278H47.8649H47.7649H47.2598L47.4473 31.9154C47.6593 31.3365 47.4311 30.9218 46.8921 30.9218C46.331 30.9218 45.7569 31.319 45.5436 31.9022C45.3299 32.4853 45.5997 32.9317 46.1342 32.9317H46.6071C46.4503 33.1657 46.2484 33.2715 45.9922 33.2715L45.8501 33.6603C46.4241 33.6603 46.8357 33.4173 47.0797 32.9317H47.5802H47.6802H49.1527C49.7448 32.9317 50.3007 32.4982 50.5144 31.9154C50.7264 31.3365 50.4909 30.8818 49.9034 30.8818ZM46.765 32.4278H46.3276C46.0626 32.4278 45.9456 32.1805 46.0572 31.876C46.1657 31.58 46.4256 31.3765 46.7172 31.3765C46.9734 31.3765 47.0557 31.5621 46.9866 31.8229L46.765 32.4278ZM49.3286 32.4764C49.0326 32.4764 48.9247 32.2158 49.0411 31.8977C49.1673 31.5533 49.4383 31.3323 49.7207 31.3323C50.0167 31.3323 50.1296 31.58 50.0068 31.9154C49.887 32.2424 49.6157 32.4764 49.3286 32.4764Z" fill="#9D9D9C"/>
<path d="M58.9791 31.9641C58.9208 32.1231 58.8687 32.2291 58.8271 32.2822C58.7432 32.3793 58.6236 32.428 58.4601 32.428H58.1677H58.0403H57.3371C57.4383 32.3441 57.5349 32.1759 57.6305 31.9153L58.3016 30.0821H57.8113L57.1304 31.9418C57.0739 32.0964 57.0145 32.2112 56.9546 32.2774C56.8641 32.3793 56.7493 32.428 56.6035 32.428H56.2887H56.1444H55.8469L55.8937 32.2999C56.0022 32.0039 55.9984 31.7606 55.8896 31.5619C55.7814 31.3631 55.5784 31.2659 55.2828 31.2659C54.9868 31.2659 54.7124 31.3631 54.4574 31.5531C54.2068 31.7428 54.0248 31.986 53.9166 32.2822C53.8989 32.3305 53.8812 32.3793 53.868 32.428H53.6099H53.3906H52.8414C53.1137 31.6723 52.9922 31.195 52.4729 30.9965C52.3729 30.9567 52.2909 30.939 52.2308 30.9349C52.1706 30.9305 52.0175 30.9257 51.7746 30.9257L51.6096 31.3765C51.7683 31.3765 51.9156 31.3857 52.0412 31.4168C52.4516 31.514 52.5546 31.8494 52.3428 32.4281H50.7434L50.5591 32.9317H53.2066H53.4259H53.8824C53.9784 33.1879 54.1926 33.3156 54.5324 33.3156C54.8772 33.3156 55.1887 33.1879 55.4723 32.9317H55.9603H56.1043H57.8562H57.9836H58.3774C58.8721 32.9317 59.2168 32.6666 59.4126 32.1321L60.1626 30.0823H59.6676L58.9791 31.9641ZM55.1288 32.6887C55.0045 32.7991 54.8641 32.8563 54.7139 32.8563C54.4094 32.8563 54.3104 32.596 54.4268 32.2776C54.4833 32.1233 54.5716 31.9908 54.6837 31.8892C54.8162 31.7696 54.9562 31.712 55.1064 31.712C55.261 31.712 55.3667 31.7741 55.4156 31.8936C55.4548 32.004 55.4441 32.141 55.3876 32.2953C55.3292 32.4547 55.2413 32.5869 55.1288 32.6887Z" fill="#9D9D9C"/>
<path d="M62.5105 30.9967C62.4104 30.9569 62.3284 30.939 62.2679 30.9346C62.2077 30.9305 62.0549 30.9257 61.812 30.9257L61.647 31.3765C61.806 31.3765 61.953 31.3854 62.0786 31.4163C62.4894 31.5135 62.5916 31.8489 62.3798 32.4278H60.7808L60.5962 32.9313H62.6947L62.8789 32.4278C63.1513 31.6727 63.0298 31.1953 62.5105 30.9967Z" fill="#9D9D9C"/>
<path d="M63.1508 32.9315H63.6408L64.6855 30.0777H64.1954L63.1508 32.9315Z" fill="#9D9D9C"/>
<path d="M70.3354 31.942C70.2173 32.2647 70.0338 32.4278 69.782 32.4278H69.3006C69.3928 32.3569 69.4944 32.176 69.5993 31.8892L69.9518 30.9257H69.4527L69.0825 31.9375C68.9626 32.2647 68.7796 32.4278 68.5278 32.4278H68.0682L68.0777 32.4013C68.1619 32.3174 68.2493 32.1495 68.3446 31.8892L68.6976 30.9257H68.1985L67.8394 31.9069C67.712 32.2558 67.5248 32.4278 67.2731 32.4278H67.1081H66.9109H66.3395C66.6115 31.6725 66.4904 31.1953 65.971 30.9967C65.8707 30.9569 65.7887 30.939 65.7285 30.9351C65.6679 30.9307 65.5151 30.9259 65.2722 30.9259L65.1072 31.3767C65.2663 31.3767 65.4136 31.3859 65.5388 31.4165C65.9496 31.5136 66.0518 31.8494 65.8401 32.428H64.241L64.0568 32.9318H66.7267H66.9238H69.6155C70.119 32.9318 70.6243 32.5166 70.8573 31.8802L71.2065 30.9261H70.7074L70.3354 31.942Z" fill="#9D9D9C"/>
<path d="M74.8551 30.9216H73.6092C72.9554 30.9216 72.4084 31.3896 72.1496 32.0966L71.5757 33.665H72.0707L72.6077 32.1981C72.7838 31.7167 73.1024 31.4252 73.4335 31.4252H73.796C73.6572 31.5754 73.5542 31.7479 73.4818 31.9464C73.2713 32.5207 73.5158 32.9759 74.103 32.9759C74.6858 32.9759 75.2525 32.5385 75.4644 31.9596C75.6779 31.3763 75.4426 30.9216 74.8551 30.9216ZM74.2828 32.5207C73.9868 32.5207 73.873 32.2645 73.9912 31.942C74.1076 31.6242 74.3703 31.3765 74.6708 31.3765C74.9753 31.3765 75.0779 31.6286 74.9566 31.9596C74.837 32.2866 74.5613 32.5207 74.2828 32.5207Z" fill="#9D9D9C"/>
<path d="M80.5516 30.0292H80.07L79.8905 30.5193H80.3723L80.5516 30.0292Z" fill="#9D9D9C"/>
<path d="M83.1601 30.0292H82.6783L82.499 30.5193H82.9808L83.1601 30.0292Z" fill="#9D9D9C"/>
<path d="M82.3459 30.9259L81.9657 31.9639C81.9074 32.1233 81.8553 32.2289 81.8136 32.282C81.7294 32.3791 81.6102 32.4278 81.4467 32.4278H81.1975H81.0274H80.6541C81.0078 31.4248 80.8096 30.9174 80.0628 30.9174C79.5944 30.9174 79.0832 31.1559 78.48 31.6812L79.1271 30.0825H78.6412L77.7827 32.428H77.0617H76.8816H76.7705C76.5849 32.428 76.4667 32.4014 76.418 32.3526C76.3498 32.2864 76.3524 32.1451 76.4317 31.9289L77.1075 30.0825H76.6172L75.8686 32.1274C75.7796 32.3703 75.7679 32.5603 75.8351 32.7017C75.9067 32.8563 76.0603 32.9313 76.2986 32.9313H76.6974H76.8775H80.8431H81.0133H81.3644C81.8587 32.9313 82.2033 32.6663 82.399 32.1318L82.8404 30.9259H82.3459ZM80.1414 32.4278H78.1673C78.6803 31.8094 79.3622 31.3588 79.8568 31.3588C80.2809 31.3588 80.4049 31.721 80.1979 32.2864C80.1802 32.3353 80.1641 32.3791 80.1414 32.4278Z" fill="#9D9D9C"/>
</svg>
