<svg width="100" height="40" viewBox="0 0 100 40" fill="none" xmlns="http://www.w3.org/2000/svg">
<path d="M0.5 6C0.5 2.96243 2.96243 0.5 6 0.5H94C97.0376 0.5 99.5 2.96243 99.5 6V34C99.5 37.0376 97.0376 39.5 94 39.5H6C2.96243 39.5 0.5 37.0376 0.5 34V6Z" stroke="#E6E6E6"/>
<g clip-path="url(#clip0_4240_45961)">
<path d="M11 26.0536C12.3221 25.7665 13.6443 25.4798 14.9658 25.1913C15.0417 25.1748 15.0971 25.1492 15.1069 25.2671C15.184 26.1885 15.6892 26.8293 16.4528 27.2992C17.2176 27.7702 18.0543 27.9043 18.9365 27.8351C19.3634 27.8016 19.7842 27.7416 20.1797 27.5706C20.7224 27.336 21.1164 26.9686 21.2102 26.3543C21.3169 25.6562 21.0512 25.1294 20.4256 24.7878C19.9847 24.5468 19.5002 24.4359 19.0169 24.3204C17.9578 24.0672 16.8913 23.8399 15.8415 23.5517C14.6434 23.2226 13.5785 22.6227 12.7049 21.7354C11.9123 20.9304 11.5241 19.9337 11.4842 18.8036C11.4385 17.5062 11.788 16.3334 12.5814 15.2969C13.0592 14.6725 13.6757 14.2149 14.3494 13.8301C15.6063 13.1122 16.9623 12.7947 18.4112 12.7987C19.5733 12.802 20.6953 12.9714 21.7633 13.4321C22.8578 13.9041 23.8399 14.5397 24.5818 15.4922C25.1002 16.1573 25.4018 16.9181 25.5286 17.7503C25.5435 17.8475 25.5249 17.8883 25.4167 17.9121C24.1699 18.1872 22.9248 18.4697 21.6783 18.7466C21.6326 18.7567 21.5561 18.8234 21.535 18.6961C21.3321 17.4724 20.5347 16.8149 19.3942 16.5245C18.5626 16.3127 17.7332 16.381 16.9272 16.6832C16.7459 16.7512 16.5817 16.8514 16.4251 16.9654C15.6474 17.5318 15.4933 18.7549 16.5652 19.3752C16.9949 19.6239 17.4681 19.7247 17.9468 19.8173C18.9868 20.0181 20.0328 20.1952 21.064 20.4346C22.3084 20.7238 23.409 21.3219 24.3183 22.2186C25.3643 23.2507 25.8226 24.5328 25.7471 25.9941C25.6572 27.7327 24.8866 29.0987 23.4395 30.0792C22.0436 31.025 20.503 31.5201 18.8167 31.4893C17.5671 31.4665 16.3248 31.3592 15.1483 30.8647C14.073 30.4128 13.1025 29.8102 12.3057 28.954C11.6405 28.2391 11.2301 27.3912 11.0542 26.4302C11.0442 26.375 11.0555 26.308 11 26.2659C11 26.1949 11 26.1239 11 26.0529V26.0536Z" fill="#4F018C"/>
<path d="M89 13.1545C88.8489 13.5183 88.7541 13.9004 88.6377 14.2755C87.6803 17.363 86.7278 20.452 85.7707 23.5395C85.64 23.9615 85.4669 24.3655 85.2021 24.7254C84.841 25.2162 84.3453 25.4594 83.7495 25.503C83.1922 25.5438 82.6328 25.5142 82.0746 25.5225C81.9871 25.5237 81.9633 25.4926 81.9639 25.4079C81.967 24.8403 81.9682 24.2723 81.9633 23.7047C81.9624 23.6026 82.0045 23.5904 82.0898 23.5913C82.5112 23.5947 82.9326 23.5907 83.354 23.594C83.7748 23.5974 84.0911 23.3686 84.2158 22.9633C84.2962 22.7022 84.3721 22.4399 84.4586 22.1809C84.4946 22.0736 84.4888 21.9782 84.4546 21.8722C83.5247 19.0041 82.5971 16.1354 81.6702 13.2664C81.6537 13.2152 81.6199 13.1655 81.6388 13.0973C82.2565 13.0973 82.8753 13.0988 83.4945 13.0957C83.5963 13.0951 83.5884 13.1731 83.6045 13.2292C83.8806 14.1817 84.1542 15.1345 84.4287 16.0875C84.7228 17.1083 85.0174 18.1293 85.3118 19.1501C85.3243 19.1933 85.3395 19.2357 85.3612 19.3027C85.5525 18.6117 85.7375 17.9444 85.9221 17.2774C86.2951 15.9318 86.6699 14.5866 87.0374 13.2399C87.0697 13.1219 87.1187 13.0939 87.2339 13.0948C87.8226 13.0997 88.4116 13.0951 89.0006 13.0939V13.1548L89 13.1545Z" fill="#04BB86"/>
<path d="M33.4297 13.3325C33.2676 13.3349 33.1055 13.3392 32.9431 13.3392C31.5731 13.3398 30.2031 13.3395 28.8328 13.3392C28.7655 13.3392 28.6954 13.3626 28.696 13.242C28.7009 11.6612 28.7009 10.0808 28.7021 8.5H33.4248C33.4251 10.1118 33.4257 11.7237 33.426 13.3358L33.4294 13.3325H33.4297Z" fill="#4F018C"/>
<path d="M48.5689 12.8441C51.2092 12.834 53.2292 13.554 54.9361 15.0796C55.8643 15.909 56.4883 16.955 56.9174 18.118C56.9856 18.303 57.0356 18.4943 57.1023 18.6799C57.1346 18.7701 57.1075 18.7978 57.0216 18.8265C55.6668 19.2768 54.3127 19.729 52.9607 20.1875C52.8413 20.2281 52.8355 20.1635 52.812 20.0913C52.5801 19.3792 52.1986 18.757 51.6526 18.2448C50.9188 17.5565 50.0398 17.2171 49.0327 17.1991C47.8014 17.1771 46.7071 17.5425 45.8092 18.3907C45.1918 18.9736 44.793 19.7116 44.5964 20.5322C44.1912 22.226 44.3267 23.8518 45.3359 25.3336C45.9576 26.2461 46.8522 26.7589 47.9086 26.9801C49.2579 27.2626 50.5127 27.0344 51.6072 26.152C52.2318 25.6486 52.6597 25.0063 52.8992 24.2418C52.9318 24.1382 52.9555 24.0956 53.0817 24.1379C54.3868 24.5785 55.6937 25.0133 57.0024 25.4426C57.1328 25.4853 57.1462 25.5337 57.1084 25.6553C56.3732 28.0182 54.8347 29.67 52.6079 30.7002C51.5024 31.2118 50.3286 31.4065 49.111 31.4595C48.0576 31.5055 47.0435 31.3714 46.0529 31.0509C43.0393 30.0749 41.0563 28.0359 40.151 25.0362C39.0772 21.4779 39.8323 18.2616 42.3147 15.49C43.1426 14.5659 44.2113 13.9449 45.3676 13.4876C46.5094 13.036 47.6953 12.8288 48.5689 12.8444V12.8441Z" fill="#4F018C"/>
<path d="M33.42 17.8938C33.4209 20.2101 33.4267 22.5264 33.4166 24.8427C33.4151 25.1657 33.363 25.4862 33.4498 25.8071C33.7128 26.7809 34.6425 27.3982 35.6468 27.2815C36.0036 27.24 36.3662 27.2498 36.7194 27.1694C37.1877 27.0627 37.6265 26.8839 38.0339 26.6291C38.0665 26.6087 38.093 26.5728 38.1533 26.5804C38.1533 26.6236 38.1533 26.6672 38.1533 26.7108C38.1533 27.8866 38.1515 29.0627 38.1561 30.2386C38.1564 30.3449 38.118 30.4019 38.0348 30.4573C37.0149 31.1344 35.8927 31.4756 34.6696 31.4976C33.9112 31.511 33.1594 31.4802 32.4254 31.259C31.5618 30.9988 30.776 30.5908 30.13 29.9643C29.5846 29.4354 29.2305 28.7699 28.9843 28.0521C28.7753 27.443 28.6918 26.8156 28.6936 26.1709C28.7006 23.4795 28.6994 20.7881 28.6942 18.0967C28.6939 17.9371 28.7396 17.9096 28.8874 17.9099C30.3393 17.9157 31.791 17.9136 33.2429 17.9127C33.303 17.9127 33.3648 17.9267 33.4227 17.8974L33.4197 17.8941L33.42 17.8938Z" fill="#4F018C"/>
<path d="M63.8102 14.2953C64.0074 14.0869 64.1759 13.9138 64.37 13.7688C65.0537 13.2581 65.8256 13.0567 66.6724 13.1043C67.7456 13.1646 68.6597 13.565 69.3822 14.3678C69.994 15.0479 70.3301 15.8609 70.4654 16.7551C70.6293 17.838 70.5449 18.902 70.1028 19.9139C69.5516 21.1757 68.6243 22.0081 67.2443 22.261C65.9368 22.5008 64.7868 22.2046 63.8767 21.1836C63.8666 21.1723 63.855 21.1629 63.8434 21.1534C63.8401 21.1507 63.8343 21.151 63.8102 21.1452V21.3067C63.8102 22.6553 63.8081 24.0042 63.8136 25.3528C63.8142 25.488 63.7807 25.5216 63.6454 25.5167C63.067 25.4966 62.4881 25.4844 61.9094 25.4804C61.7812 25.4795 61.7641 25.4344 61.7641 25.3232C61.7671 23.3713 61.7662 21.4191 61.7662 19.4672C61.7662 17.5154 61.7681 15.5022 61.7626 13.5199C61.7623 13.37 61.8034 13.3367 61.9478 13.3389C62.5216 13.3477 63.0954 13.3459 63.6691 13.3398C63.7846 13.3386 63.8166 13.3709 63.813 13.4845C63.8044 13.7405 63.8102 13.9967 63.8102 14.2956V14.2953ZM63.8102 17.735C63.8102 18.0696 63.8114 18.4042 63.8093 18.7387C63.8087 18.8167 63.8242 18.8871 63.8581 18.9575C64.1411 19.5498 64.5824 19.981 65.1893 20.2299C66.332 20.6991 67.7559 20.3588 68.2325 18.8874C68.4766 18.1336 68.4753 17.3697 68.2358 16.6153C68.0366 15.9876 67.6541 15.5013 67.0249 15.2542C65.8844 14.8066 64.4568 15.2548 63.8629 16.5281C63.8258 16.608 63.8084 16.6884 63.8093 16.7768C63.8124 17.0961 63.8105 17.4154 63.8105 17.7347L63.8102 17.735Z" fill="#04BB86"/>
<path d="M78.1456 20.5751C78.0886 20.5693 78.0761 20.6099 78.0542 20.6336C77.3314 21.4194 76.4301 21.807 75.3676 21.8259C74.912 21.8341 74.4531 21.8698 74.0067 21.732C72.9159 21.3957 72.1751 20.715 71.9676 19.5654C71.7251 18.2207 72.545 16.998 73.8851 16.6546C74.3392 16.5382 74.809 16.53 75.2716 16.4715C76.1872 16.3554 77.1044 16.249 78.0216 16.146C78.1337 16.1336 78.1532 16.0897 78.1474 15.9937C78.141 15.8877 78.1447 15.7807 78.1483 15.6744C78.1636 15.239 77.857 14.9196 77.4173 14.9193C76.4374 14.919 75.4571 14.9206 74.4772 14.9209C73.9287 14.9209 73.3802 14.9193 72.8321 14.9224C72.7419 14.923 72.6974 14.9123 72.6986 14.8023C72.7047 14.2752 72.7041 13.7478 72.6989 13.2204C72.698 13.118 72.7312 13.0945 72.8284 13.0948C74.3772 13.0982 75.9261 13.093 77.4746 13.1009C77.9951 13.1037 78.507 13.1832 78.9854 13.4038C79.7886 13.7746 80.196 14.4203 80.2207 15.2895C80.2447 16.1357 80.228 16.9827 80.2283 17.8295C80.2289 19.0361 80.2259 20.243 80.232 21.4496C80.2326 21.5882 80.1936 21.6147 80.0634 21.6132C79.4796 21.6059 78.8955 21.6062 78.3117 21.6132C78.1831 21.6147 78.1355 21.5913 78.1416 21.4502C78.1544 21.1586 78.1456 20.8664 78.1456 20.5745V20.5751ZM78.1456 18.2951C78.1456 18.1378 78.1444 17.9809 78.1462 17.8237C78.1468 17.7612 78.1294 17.7265 78.0581 17.7402C78.0134 17.7488 77.9673 17.7491 77.9219 17.7548C77.2382 17.8444 76.5541 17.93 75.8712 18.0263C75.5458 18.072 75.214 18.0839 74.8998 18.1967C74.4918 18.3432 74.2319 18.6117 74.1938 19.0571C74.1542 19.5212 74.3687 19.8478 74.7719 20.0538C75.0955 20.2192 75.4419 20.2555 75.8054 20.2314C76.6019 20.1781 77.2787 19.8889 77.8144 19.289C78.0365 19.0401 78.2075 18.7734 78.1465 18.417C78.1398 18.3776 78.1456 18.3359 78.1453 18.2954L78.1456 18.2951Z" fill="#04BB86"/>
<path d="M33.4264 13.3358C34.9441 13.3371 36.4619 13.3383 37.9796 13.3395C38.1121 13.3395 38.1783 13.4065 38.1783 13.5406C38.1783 14.9446 38.1762 16.3487 38.182 17.7524C38.1826 17.8886 38.146 17.9166 38.015 17.9163C36.5378 17.9115 35.0605 17.9133 33.5833 17.9124C33.5287 17.9124 33.4712 17.9282 33.42 17.8941L33.423 17.8974C33.423 16.416 33.4227 14.9349 33.423 13.4534C33.423 13.4132 33.4276 13.373 33.43 13.3328L33.4267 13.3361L33.4264 13.3358Z" fill="#4F018C"/>
</g>
<defs>
<clipPath id="clip0_4240_45961">
<rect width="78" height="23" fill="white" transform="translate(11 8.5)"/>
</clipPath>
</defs>
</svg>
