<svg width="100" height="40" viewBox="0 0 100 40" fill="none" xmlns="http://www.w3.org/2000/svg">
<path d="M0 6C0 2.68629 2.68629 0 6 0H94C97.3137 0 100 2.68629 100 6V34C100 37.3137 97.3137 40 94 40H6C2.68629 40 0 37.3137 0 34V6Z" fill="url(#paint0_linear_4314_12475)"/>
<path d="M83.657 12.7932L78.7309 31.9566L78.7196 32H82.556L87.5 12.7932H83.657Z" fill="#292929"/>
<path d="M22.6991 23.6996C22.1237 23.9883 21.4906 24.1373 20.8493 24.1348C19.4676 24.1348 18.6836 23.91 18.5984 22.7722V22.6955C18.5984 22.6503 18.5933 22.6103 18.5933 22.5575V19.2437L18.5984 18.8537V16.5175H18.5933V15.5236L18.5984 15.1302V12.8749L15.1714 13.3357C17.4891 12.8783 18.819 11.0098 18.819 9.14719V8H14.9682V13.3655L14.7509 13.4277V23.3641C14.878 26.1558 16.6834 27.8149 19.6457 27.8149C20.693 27.8149 21.8456 27.5722 22.7283 27.1642L22.7484 27.1557V23.6698L22.6991 23.6996Z" fill="#292929"/>
<path d="M23.3067 12.0709L12.5 13.7683V16.56L23.3067 14.8627V12.0709Z" fill="#292929"/>
<path d="M23.3067 16.1556L12.5 17.8529V20.5204L23.3067 18.8222V16.1556Z" fill="#292929"/>
<path d="M35.4349 17.4399C35.282 14.3382 33.3795 12.5003 30.2802 12.5003C28.4982 12.5003 27.0296 13.2012 26.0324 14.5289C25.0353 15.8567 24.5137 17.7977 24.5137 20.1568C24.5137 22.5159 25.0386 24.4628 26.0324 25.7854C27.0262 27.1081 28.4982 27.8141 30.2802 27.8141C33.3795 27.8141 35.282 25.9668 35.4349 22.8489V27.522H39.2798V12.8273L35.4349 13.432V17.4399ZM35.6355 20.1602C35.6355 22.9076 34.2196 24.6826 32.0288 24.6826C29.772 24.6826 28.4221 22.992 28.4221 20.1602C28.4196 17.3122 29.7678 15.6088 32.0263 15.6088C33.1246 15.6088 34.0424 16.0449 34.6801 16.8693C35.3029 17.675 35.633 18.812 35.633 20.1576L35.6355 20.1602Z" fill="#292929"/>
<path d="M50.5145 12.5011C47.4135 12.5011 45.5102 14.3398 45.3598 17.445V8.54849L41.509 9.15403V27.5228H45.3598V22.848C45.5102 25.9702 47.4135 27.8192 50.5145 27.8192C54.1429 27.8192 56.3094 24.9567 56.3094 20.1618C56.3094 15.3669 54.1429 12.5011 50.5145 12.5011ZM48.7659 24.6799C46.5743 24.6799 45.1592 22.905 45.1592 20.1576C45.1592 18.8119 45.4885 17.6749 46.112 16.8676C46.7498 16.0432 47.6675 15.6071 48.7659 15.6071C51.0227 15.6071 52.3726 17.3104 52.3726 20.1576C52.3726 22.9894 51.0243 24.6799 48.7659 24.6799Z" fill="#292929"/>
<path d="M66.7952 12.5011C63.6941 12.5011 61.7918 14.3398 61.6405 17.445V8.54849L57.7897 9.15403V27.5228H61.6405V22.848C61.7918 25.9702 63.6941 27.8192 66.7952 27.8192C70.4235 27.8192 72.5903 24.9567 72.5903 20.1618C72.5903 15.3669 70.4235 12.5011 66.7952 12.5011ZM65.0466 24.6799C62.8558 24.6799 61.4399 22.905 61.4399 20.1576C61.4399 18.8119 61.7692 17.6749 62.3927 16.8676C63.0305 16.0432 63.9483 15.6071 65.0466 15.6071C67.3033 15.6071 68.6533 17.3104 68.6533 20.1576C68.6533 22.9894 67.305 24.6799 65.0466 24.6799Z" fill="#292929"/>
<path d="M72.5992 12.7932H76.7107L80.0511 27.4955H76.3649L72.5992 12.7932Z" fill="#292929"/>
<defs>
<linearGradient id="paint0_linear_4314_12475" x1="50" y1="0" x2="50" y2="40" gradientUnits="userSpaceOnUse">
<stop stop-color="#7FF9C8"/>
<stop offset="1" stop-color="#7EF9AB"/>
</linearGradient>
</defs>
</svg>
