<svg width="100" height="40" viewBox="0 0 100 40" fill="none" xmlns="http://www.w3.org/2000/svg">
<path d="M0.5 6C0.5 2.96243 2.96243 0.5 6 0.5H94C97.0376 0.5 99.5 2.96243 99.5 6V34C99.5 37.0376 97.0376 39.5 94 39.5H6C2.96243 39.5 0.5 37.0376 0.5 34V6Z" stroke="#E6E6E6"/>
<path fill-rule="evenodd" clip-rule="evenodd" d="M27.0364 9.83704C27.0364 9.83704 26.8 7.85716 24.2763 7.85716H15.1074L15 8.22925C15 8.22925 19.4073 9.12769 23.6355 12.4937C27.6762 15.7108 28.9944 19.721 28.9944 19.721L27.0364 9.83704Z" fill="#F6AC1D"/>
<path fill-rule="evenodd" clip-rule="evenodd" d="M43.208 9.82799L39.6385 31.7653H45.3494L48.9194 9.82799H43.208ZM34.8334 9.82799L29.3883 24.9163L28.7442 21.6672L28.7447 21.6683L28.6027 20.9401C27.9437 19.5199 26.4175 16.8206 23.5355 14.517C22.6835 13.8361 21.8246 13.255 20.9943 12.7586L25.943 31.7653H31.8934L40.9802 9.82799H34.8334ZM57.1225 15.9182C57.1225 13.438 62.6845 13.7567 65.1285 15.1034L65.9435 10.3919C65.9435 10.3919 63.4283 9.43536 60.8066 9.43536C57.9723 9.43536 51.2419 10.6749 51.2419 16.6975C51.2419 22.3656 59.1413 22.4361 59.1413 25.4119C59.1413 28.3877 52.0564 27.8559 49.7182 25.9787L48.8685 30.9033C48.8685 30.9033 51.4185 32.1428 55.3157 32.1428C59.2125 32.1428 65.0929 30.124 65.0929 24.6326C65.0929 18.929 57.1225 18.3978 57.1225 15.9182ZM80.4277 9.82799H75.8358C73.7156 9.82799 73.1993 11.4629 73.1993 11.4629L64.6822 31.7653H70.6349L71.8257 28.507H79.0862L79.756 31.7653H85L80.4277 9.82799ZM73.4716 24.0052L76.4726 15.7958L78.1609 24.0052H73.4716Z" fill="#005BAC"/>
</svg>
