<svg width="100" height="40" viewBox="0 0 100 40" fill="none" xmlns="http://www.w3.org/2000/svg">
<path d="M0.5 6C0.5 2.96243 2.96243 0.5 6 0.5H94C97.0376 0.5 99.5 2.96243 99.5 6V34C99.5 37.0376 97.0376 39.5 94 39.5H6C2.96243 39.5 0.5 37.0376 0.5 34V6Z" stroke="#E6E6E6"/>
<path fill-rule="evenodd" clip-rule="evenodd" d="M33.6603 12.2445H37.6923C37.9567 12.2445 38.2198 12.2648 38.4787 12.3025L39.1351 10.9294C39.3774 10.4236 39.1531 9.82204 38.6338 9.586L29.8484 5.59484C29.3292 5.3588 28.7117 5.57866 28.4694 6.08446L27.7258 7.63696L32.2951 9.71144C33.3058 10.1714 33.8389 11.2235 33.6603 12.2445ZM41.5 29.1047H34.9217C32.8185 29.1047 31.114 27.4443 31.114 25.3955V22.6978C31.114 20.649 32.8185 18.9886 34.9217 18.9886H41.5V17.3026C41.5 16.3193 41.0985 15.3751 40.3854 14.6791C39.6709 13.9845 38.7017 13.5933 37.6923 13.5933H18.3077C17.2983 13.5933 16.3291 13.9845 15.6146 14.6791C14.9015 15.3751 14.5 16.3193 14.5 17.3026V30.7908C14.5 31.774 14.9015 32.7182 15.6146 33.4142C16.3291 34.1088 17.2983 34.5 18.3077 34.5H37.6923C38.7017 34.5 39.6709 34.1088 40.3854 33.4142C41.0985 32.7182 41.5 31.774 41.5 30.7908V29.1047ZM41.5 21.0118V27.0815H34.9217C33.9663 27.0815 33.1909 26.3262 33.1909 25.3955V22.6978C33.1909 21.7672 33.9663 21.0118 34.9217 21.0118H41.5ZM35.6154 22.6978C36.3797 22.6978 37 23.3021 37 24.0467C37 24.7912 36.3797 25.3955 35.6154 25.3955C34.8511 25.3955 34.2308 24.7912 34.2308 24.0467C34.2308 23.3021 34.8511 22.6978 35.6154 22.6978ZM32.2286 12.2445H19.2423L21.5463 7.43329C21.7886 6.92748 22.4062 6.70763 22.9254 6.94367L31.7108 10.9348C32.2189 11.1655 32.4446 11.7455 32.2286 12.2445Z" fill="#F9DD4B"/>
<path d="M49.5931 11.82C49.2331 11.82 48.9331 11.52 48.9331 11.16C48.9331 10.8 49.2331 10.5 49.5931 10.5C49.9531 10.5 50.2411 10.8 50.2411 11.16C50.2411 11.52 49.9651 11.82 49.5931 11.82ZM51.2371 11.82C50.8531 11.82 50.5771 11.532 50.5771 11.16C50.5771 10.8 50.8531 10.5 51.2371 10.5C51.5971 10.5 51.8851 10.8 51.8851 11.16C51.8851 11.52 51.5971 11.82 51.2371 11.82ZM53.9971 17.868L54.2011 17.904L54.1291 19.452L53.9251 19.5C52.5331 19.5 51.8251 18.804 51.6451 17.652C51.3931 18.288 50.8531 18.756 49.8451 18.756C48.5011 18.756 47.6011 17.892 47.6011 16.56C47.6011 15.108 48.6331 13.944 51.5011 13.38V12.528H52.7371V16.692C52.7371 17.712 53.2291 17.868 53.9971 17.868ZM50.0011 17.112C50.7691 17.112 51.2731 16.896 51.5011 16.644V14.82C49.3771 15.204 48.6931 15.78 48.6931 16.344C48.6931 16.872 49.2931 17.112 50.0011 17.112ZM62.7282 17.868L62.9322 17.904L62.8602 19.464L62.6562 19.5C61.7322 19.5 61.2402 19.26 60.9642 18.852C60.3882 19.272 59.5482 19.5 58.4322 19.5H53.9202L53.7162 19.452L53.7882 17.904L53.9922 17.868H54.5322C54.7122 17.544 54.9042 17.232 55.0962 16.932V10.956H56.3922V14.328C56.3922 14.808 56.2002 15.348 55.9842 15.756C57.0162 14.592 58.1442 13.944 59.3562 13.944C60.9522 13.944 61.9602 15.288 61.9602 16.716C61.9602 17.1 61.9002 17.448 61.7922 17.76C61.9962 17.832 62.2842 17.868 62.7282 17.868ZM59.0802 13.044C58.6362 13.044 58.3362 12.708 58.3362 12.312C58.3362 11.916 58.6362 11.58 59.0802 11.58C59.5122 11.58 59.8122 11.916 59.8122 12.312C59.8122 12.708 59.5122 13.044 59.0802 13.044ZM55.6002 17.868H58.6362C59.9202 17.868 60.8202 17.568 60.8202 16.872C60.8202 16.26 60.2202 15.576 59.1882 15.576C57.7602 15.576 56.5002 16.596 55.6002 17.868ZM65.9387 12.48C65.4947 12.48 65.1947 12.144 65.1947 11.748C65.1947 11.352 65.4947 11.016 65.9387 11.016C66.3707 11.016 66.6707 11.352 66.6707 11.748C66.6707 12.144 66.3707 12.48 65.9387 12.48ZM68.9987 17.868L69.2027 17.904L69.1307 19.464L68.9267 19.5C67.7867 19.5 66.6947 19.284 65.7827 18.9C65.0267 19.248 63.9587 19.5 62.6507 19.5L62.4467 19.464L62.5187 17.904L62.7227 17.868C63.2027 17.868 63.6587 17.844 64.1027 17.796C63.6587 17.316 63.3947 16.764 63.3947 16.152C63.3947 14.736 64.3667 13.368 65.9387 13.368C67.3427 13.368 68.2787 14.628 68.2787 15.948C68.2787 16.668 67.9787 17.268 67.4627 17.784C67.9307 17.844 68.4467 17.868 68.9987 17.868ZM64.4867 16.14C64.4867 16.692 64.9667 17.136 65.8187 17.448C66.6467 17.16 67.1867 16.74 67.1867 16.224C67.1867 15.588 66.6587 15 65.8427 15C65.0387 15 64.4867 15.564 64.4867 16.14ZM78.0879 17.868L78.2919 17.904L78.2199 19.464L78.0159 19.5C76.1559 19.5 75.6999 18.612 75.6399 17.208H75.2799C72.5919 19.14 71.0679 19.5 68.9319 19.5L68.7279 19.464L68.7999 17.904L69.0039 17.868C70.3719 17.868 71.9079 17.784 74.3439 16.548C74.1759 16.476 73.9959 16.392 73.8039 16.296C73.1199 15.972 72.4119 15.636 71.5239 15.636C70.7199 15.636 70.1799 15.948 69.8559 16.164L69.3519 15.096C69.6399 14.676 70.5159 14.064 71.6799 14.064C72.8319 14.064 73.5399 14.58 74.2239 14.952C75.2199 15.492 75.4359 15.564 76.1679 15.564H77.4639L77.3439 17.208H76.4439C76.6239 17.7 77.0799 17.868 78.0879 17.868ZM82.1539 14.352C83.5099 14.352 84.4699 15.516 84.4699 17.076C84.4699 18.516 83.5099 19.548 81.8419 19.548C80.7019 19.548 79.9939 19.032 79.6939 18.456C79.4059 19.152 78.7579 19.5 78.0139 19.5L77.8099 19.464L77.8819 17.904L78.0859 17.868C78.5779 17.868 79.1179 17.76 79.3579 17.088C79.7779 15.3 80.8099 14.352 82.1539 14.352ZM81.9619 17.928C82.8499 17.928 83.3659 17.616 83.3659 17.148C83.3659 16.5 82.7899 15.96 82.0099 15.96C81.2179 15.96 80.6059 16.452 80.3059 17.34C80.5219 17.628 81.0259 17.928 81.9619 17.928Z" fill="#232323"/>
<path d="M55.5339 28.472L57.2979 22.064H58.8099L56.3019 30.5H54.7899L52.9779 24.632L51.1299 30.5H49.5819L47.1819 22.064H48.7659L50.4579 28.532L52.4499 22.064H53.6139L55.5339 28.472ZM64.2734 25.136V24.152H65.7974V30.5H64.2734V29.348C63.7454 30.176 63.0014 30.644 62.0054 30.644C60.3614 30.644 58.8854 29.504 58.8854 27.332C58.8854 25.16 60.3134 23.984 62.0054 23.984C62.9774 23.984 63.7334 24.38 64.2734 25.136ZM62.2334 29.348C63.2534 29.348 63.9854 28.508 64.2734 27.32V27.26C63.9614 26.036 63.1694 25.28 62.2334 25.28C61.2494 25.28 60.4934 25.964 60.4934 27.308C60.4934 28.604 61.2494 29.348 62.2334 29.348ZM68.9377 30.5H67.4017V22.064H68.9377V30.5ZM72.0783 30.5H70.5423V22.064H72.0783V30.5ZM79.6829 27.812H74.9189C75.0749 28.892 75.7589 29.432 76.9829 29.432C77.7629 29.432 78.4109 29.3 79.1549 28.904L79.4189 30.008C78.7229 30.416 77.8349 30.668 76.7429 30.668C74.5349 30.668 73.3229 29.42 73.3229 27.368C73.3229 25.316 74.7029 23.984 76.5869 23.984C78.3389 23.984 79.7189 25.04 79.7189 27.32C79.7189 27.512 79.7069 27.68 79.6829 27.812ZM74.9189 26.852H78.1349C78.0269 25.748 77.4989 25.196 76.5629 25.196C75.6269 25.196 75.0509 25.76 74.9189 26.852ZM85.2108 29.036L85.4508 30.224C84.8988 30.488 84.2748 30.632 83.5308 30.632C82.1988 30.632 81.3228 29.936 81.3228 28.364V25.328H80.2068V24.152H81.3228V22.412H82.8468V24.152H85.1868V25.328H82.8468V27.992C82.8468 28.964 83.2908 29.324 83.9148 29.324C84.3708 29.324 84.7788 29.24 85.2108 29.036Z" fill="#232323"/>
</svg>
