<svg width="147" height="58" viewBox="0 0 147 58" fill="none" xmlns="http://www.w3.org/2000/svg">
<path d="M41.8278 36.0928H38.1485H38.0922H19.8555V39.3349H27.132V57.2297H30.8373V39.3349H38.0922V57.2297H52.9482V53.9918H41.8278V36.0928Z" fill="white"/>
<path d="M76.1676 42.2047C75.5789 40.8671 74.7651 39.7243 73.7305 38.7633C72.696 37.811 71.4796 37.0622 70.0944 36.5298C68.7006 35.993 67.2202 35.7246 65.6359 35.7246C64.0516 35.7246 62.5972 35.993 61.199 36.5298C59.7965 37.0622 58.5758 37.811 57.5413 38.7633C56.5067 39.7243 55.6843 40.8757 55.0739 42.222C54.4593 43.5682 54.1562 45.0399 54.1562 46.6415C54.1562 48.2432 54.4593 49.7495 55.0739 51.0828C55.6843 52.4203 56.5067 53.5674 57.5413 54.5197C58.5758 55.4764 59.8009 56.2252 61.199 56.7577C62.6015 57.2944 64.0776 57.5628 65.6359 57.5628C67.1942 57.5628 68.7049 57.2944 70.0944 56.7577C71.4839 56.2252 72.696 55.4764 73.7305 54.5197C74.7651 53.5674 75.5789 52.416 76.1676 51.0828C76.7606 49.7452 77.055 48.2691 77.055 46.6415C77.055 45.014 76.7606 43.5379 76.1676 42.2047ZM72.696 49.6673C72.3107 50.5893 71.774 51.3988 71.0944 52.087C70.4148 52.7753 69.6053 53.3164 68.6703 53.7059C67.7396 54.0999 66.7267 54.2903 65.6316 54.2903C64.5364 54.2903 63.5192 54.0999 62.5755 53.7059C61.6319 53.3207 60.8137 52.7883 60.1212 52.1043C59.4329 51.4247 58.8918 50.6153 58.5022 49.6846C58.1127 48.7496 57.9179 47.7367 57.9179 46.6415C57.9179 45.5464 58.1083 44.5378 58.5022 43.6028C58.8875 42.6678 59.4329 41.8627 60.1212 41.1831C60.8137 40.5035 61.6319 39.9711 62.5755 39.5815C63.5192 39.1919 64.5407 38.9928 65.6316 38.9928C66.7224 38.9928 67.7353 39.1876 68.6703 39.5815C69.6053 39.9667 70.4148 40.5035 71.0944 41.1831C71.774 41.8627 72.3064 42.6678 72.696 43.6028C73.0812 44.5378 73.2847 45.5507 73.2847 46.6415C73.2847 47.7324 73.0856 48.7366 72.696 49.6673Z" fill="white"/>
<path d="M98.0362 47.7499C97.0925 46.7716 95.7593 46.2695 94.0494 46.2436C94.9152 46.2003 95.6294 46.0185 96.1835 45.6938C96.7462 45.3735 97.1877 44.9796 97.5211 44.5251C97.8544 44.0662 98.0881 43.5987 98.205 43.1053C98.3305 42.6161 98.3911 42.1703 98.3911 41.7677C98.3911 40.6769 98.1704 39.7678 97.7245 39.032C97.2743 38.2961 96.6986 37.7117 95.9844 37.2789C95.2745 36.8417 94.4737 36.5343 93.582 36.3439C92.6946 36.1577 91.8029 36.0625 90.9112 36.0625H80.9639V57.2297H91.8808C92.8374 57.2297 93.7638 57.1475 94.6641 56.983C95.5688 56.8142 96.374 56.5155 97.0882 56.0956C97.7981 55.6757 98.3738 55.0914 98.8067 54.3425C99.2439 53.598 99.456 52.6586 99.456 51.5245C99.456 49.9878 98.9841 48.7325 98.0362 47.7543V47.7499ZM84.6995 39.2657H90.777C91.2878 39.2657 91.7812 39.309 92.2617 39.3826C92.7422 39.4648 93.1577 39.599 93.517 39.7981C93.872 39.9973 94.1534 40.2873 94.3655 40.6509C94.5776 41.0145 94.6858 41.5037 94.6858 42.1053C94.6858 43.2611 94.3525 44.0446 93.6815 44.4601C93.0149 44.8757 92.1535 45.0791 91.1103 45.0791H84.6995V39.2657ZM95.3697 52.676C95.1143 53.0612 94.7723 53.3599 94.3525 53.559C93.9239 53.7581 93.4478 53.8837 92.9153 53.9399C92.3786 53.9962 91.8332 54.0222 91.2791 54.0222H84.6995V47.9491H91.1103C91.6687 47.9491 92.2227 47.988 92.7811 48.0659C93.3395 48.1438 93.833 48.291 94.2659 48.5161C94.7031 48.7369 95.058 49.0572 95.3351 49.4684C95.6121 49.8753 95.7506 50.4164 95.7506 51.0873C95.7506 51.7583 95.6208 52.2821 95.3697 52.676Z" fill="white"/>
<path d="M118.277 44.8929H107.127V37.0536L103.408 36.084V57.2122H107.127V48.1653H118.277V57.2122H122.034V37.0926L118.277 36.084V44.8929Z" fill="white"/>
<path d="M133.414 36.0625L125.467 57.2297H129.371L135.981 39.335L142.561 57.2297H146.5L138.552 36.0625H133.414Z" fill="white"/>
<path d="M8.03438 36.0625L0.0869141 57.2297H3.99572L10.6056 39.335L17.1852 57.2297H21.12L13.1769 36.0625H8.03438Z" fill="white"/>
<path d="M73.1807 28.6995L77.0288 29.7557V25.189H73.1807V28.6995Z" fill="white"/>
<path d="M146.5 0.562988V21.6956H142.777V1.53261L146.5 0.562988Z" fill="white"/>
<path d="M138.47 16.683C138.349 15.5878 138.15 14.5749 137.786 13.6053C137.297 12.1552 136.535 10.8652 135.518 9.77009C134.548 8.71822 133.254 7.86978 131.765 7.26377C130.272 6.61447 128.571 6.33745 126.592 6.33745C124.614 6.33745 122.961 6.61447 121.506 7.26377C120.13 7.78321 119.242 8.51476 118.312 9.40214V0.562988L114.589 1.53261V18.4534H100.737V0.562988L97.0188 1.53261V18.4534H84.6215V6.39804L80.8988 7.36768V18.4534H64.5927V15.7869C64.5927 13.9689 64.3113 12.3543 63.8265 10.8609C63.3027 9.3632 62.5366 8.11219 61.5194 7.02137C60.5108 5.93054 59.2554 5.08647 57.7664 4.47613C56.2687 3.90907 54.5718 3.58873 52.6369 3.58873C50.702 3.58873 49.0008 3.90907 47.4641 4.47613C46.014 5.08647 44.7198 5.93487 43.7501 7.02137C42.7416 8.11219 41.9711 9.3632 41.4473 10.8609C41.1226 11.7483 40.9235 12.6746 40.8369 13.6832C40.7201 14.2113 40.6768 14.7784 40.6768 15.38V18.4534H3.80078V0.562988L0.078125 1.53261V21.6913H138.596V18.4534C138.596 17.8474 138.557 17.1981 138.475 16.6786L138.47 16.683ZM118.796 15.5056C119.078 14.497 119.606 13.6486 120.294 12.9214C120.935 12.1941 121.831 11.6271 122.878 11.2245C123.887 10.822 125.177 10.5752 126.592 10.5752C128.09 10.5752 129.345 10.8176 130.393 11.2245C131.402 11.6314 132.25 12.1941 132.981 12.9214C133.665 13.6486 134.107 14.497 134.436 15.5056C134.553 15.8649 134.916 17.8517 134.916 18.4534H118.312C118.312 17.8474 118.632 15.8649 118.792 15.5056H118.796ZM48.8753 8.43685C49.9272 8.02996 51.1738 7.8698 52.6326 7.8698C54.0913 7.8698 55.338 8.02996 56.3509 8.43685C57.4417 8.87838 58.2858 9.44543 58.9784 10.1337C59.6234 10.8652 60.1471 11.7093 60.4718 12.7179C60.7532 13.7265 60.9177 14.7827 60.9177 15.9125V18.4577H54.3337C54.4939 18.2933 54.6541 18.0941 54.8142 17.8907C55.1346 17.4881 55.3813 16.999 55.5025 16.4752C55.6237 16.0294 55.7059 15.5445 55.7059 15.1809C55.7059 14.0901 55.4635 13.1638 55.0133 12.4322C54.5675 11.666 54.0048 11.099 53.2775 10.6531C52.5893 10.2506 51.7409 9.92593 50.8968 9.72248C50.0051 9.52336 49.1177 9.43677 48.187 9.43677H48.1481C47.7845 9.43677 47.4208 9.43678 47.0572 9.51902C47.581 9.07317 48.1914 8.70955 48.8796 8.42818L48.8753 8.43685ZM44.4297 14.6961C44.4687 14.458 44.5509 14.2503 44.6678 14.0512C44.9102 13.6875 45.1916 13.3672 45.5206 13.2027C45.8798 13.0036 46.3257 12.8391 46.7716 12.8002C47.2174 12.679 47.7022 12.6789 48.187 12.6789C48.6329 12.6789 49.1177 12.679 49.5592 12.8002C50.044 12.8391 50.4466 13.0036 50.8145 13.2027C51.1738 13.3672 51.4595 13.6832 51.663 14.0512C51.8621 14.4148 51.9833 14.8996 51.9833 15.5056C51.9833 16.6354 51.663 17.4448 50.9747 17.8517C50.3254 18.25 49.438 18.4577 48.4294 18.4577H47.9013C46.8927 18.4577 46.0443 18.2543 45.3561 17.8517C44.6678 17.4448 44.3475 16.6354 44.3475 15.5056C44.3475 15.2199 44.3475 14.9385 44.4297 14.6961Z" fill="white"/>
</svg>
