<svg width="278" height="40" viewBox="0 0 278 40" fill="none" xmlns="http://www.w3.org/2000/svg">
<g clip-path="url(#clip0_7466_43702)">
<path d="M160.005 18.9989H155.876L145.225 0.549805H132.773L122.12 18.9989H117.99L109.643 33.4585H126.273L128.336 37.0337H149.648L151.711 33.4585H168.345L159.997 18.9989H160.005ZM138.998 4.27837L147.496 18.9989H130.499L138.998 4.27837ZM124.28 29.7784L128.377 22.6817H149.624L153.724 29.7784H124.282H124.28Z" fill="#FEDD06"/>
<path d="M29.6267 19.0234H27.1006H27.0603H14.543V21.2482H19.5386V33.5315H22.0808V21.2482H27.0603V33.5315H37.256V31.3067H29.6267V19.0234Z" fill="black"/>
<path d="M53.1946 23.2205C52.7911 22.3032 52.2342 21.5176 51.5213 20.8586C50.8111 20.2048 49.9772 19.691 49.0249 19.3279C48.0699 18.9593 47.0503 18.7764 45.9635 18.7764C44.8766 18.7764 43.8786 18.962 42.9182 19.3279C41.9578 19.691 41.1185 20.2048 40.4056 20.8586C39.6954 21.5176 39.1305 22.3059 38.7135 23.234C38.2911 24.1567 38.084 25.1682 38.084 26.2685C38.084 27.3687 38.2938 28.4018 38.7135 29.3164C39.1305 30.2338 39.6954 31.022 40.4056 31.6757C41.1158 32.3321 41.9551 32.8459 42.9182 33.2118C43.8786 33.5776 44.8955 33.7632 45.9635 33.7632C47.0315 33.7632 48.0699 33.5776 49.0249 33.2118C49.9772 32.8486 50.8111 32.3348 51.5213 31.6757C52.2315 31.022 52.7911 30.2338 53.1946 29.3164C53.6008 28.3991 53.8026 27.3849 53.8026 26.2685C53.8026 25.152 53.6008 24.1379 53.1946 23.2232V23.2205ZM50.8111 28.3399C50.5448 28.9721 50.1789 29.5289 49.7109 29.9997C49.2455 30.4705 48.6886 30.8444 48.0483 31.1107C47.4081 31.3798 46.714 31.5116 45.9635 31.5116C45.2129 31.5116 44.5162 31.3798 43.8678 31.1107C43.2195 30.8444 42.6573 30.4812 42.1838 30.0132C41.713 29.5478 41.3391 28.9909 41.0728 28.3533C40.8037 27.7104 40.6719 27.0163 40.6719 26.2658C40.6719 25.5152 40.8037 24.8238 41.0728 24.1809C41.3391 23.5379 41.713 22.9865 42.1838 22.5211C42.6599 22.0557 43.2195 21.6871 43.8678 21.4208C44.5162 21.1518 45.2183 21.0173 45.9635 21.0173C46.7086 21.0173 47.4081 21.1518 48.0483 21.4208C48.6913 21.6871 49.2455 22.053 49.7109 22.5211C50.1763 22.9865 50.5448 23.5406 50.8111 24.1809C51.0775 24.8238 51.2147 25.5179 51.2147 26.2658C51.2147 27.0136 51.0775 27.705 50.8111 28.3426V28.3399Z" fill="black"/>
<path d="M68.2034 27.024C67.5551 26.3515 66.6405 26.0098 65.4676 25.991C66.0621 25.9614 66.5517 25.835 66.931 25.6144C67.3157 25.3938 67.6197 25.1248 67.8483 24.81C68.077 24.4953 68.2357 24.1751 68.3164 23.8362C68.4025 23.5026 68.4456 23.1932 68.4456 22.9188C68.4456 22.1683 68.2922 21.5442 67.9882 21.0411C67.6816 20.5353 67.2834 20.1372 66.7938 19.8386C66.3069 19.54 65.7581 19.3275 65.1447 19.1956C64.5368 19.0665 63.9234 19.002 63.31 19.002H56.4824V33.5315H63.9745C64.6309 33.5315 65.2685 33.475 65.8845 33.362C66.506 33.2463 67.0574 33.0419 67.547 32.754C68.034 32.4635 68.4267 32.0654 68.7253 31.5515C69.0239 31.0404 69.1692 30.3948 69.1692 29.6173C69.1692 28.5628 68.8464 27.6992 68.1954 27.0294L68.2034 27.024ZM59.0488 21.1998H63.2213C63.571 21.1998 63.91 21.2294 64.2408 21.2805C64.569 21.337 64.8569 21.4312 65.1017 21.5684C65.3465 21.7056 65.5375 21.9019 65.6828 22.1548C65.828 22.405 65.9034 22.7413 65.9034 23.1529C65.9034 23.9465 65.6747 24.4845 65.2147 24.7697C64.7573 25.0521 64.1655 25.1947 63.4499 25.1947H59.0515V21.2052L59.0488 21.1998ZM66.3714 30.4029C66.1966 30.6692 65.9625 30.8709 65.672 31.0081C65.3788 31.1453 65.0506 31.2314 64.6874 31.2718C64.3189 31.3094 63.9449 31.3283 63.5656 31.3283H59.0515V27.1585H63.4499C63.8319 27.1585 64.2139 27.1854 64.5959 27.2392C64.9779 27.293 65.3196 27.3953 65.6155 27.5459C65.9141 27.6992 66.1589 27.9171 66.3499 28.1996C66.5409 28.4794 66.6378 28.8506 66.6378 29.3106C66.6378 29.7707 66.549 30.1311 66.3741 30.4002L66.3714 30.4029Z" fill="black"/>
<path d="M82.0964 25.0633H74.4429V19.683L71.8926 19.0186V33.5212H74.4429V27.3096H82.0964V33.5212H84.6762V19.7099L82.0964 19.0186V25.0633Z" fill="black"/>
<path d="M92.4849 19.002L87.0293 33.5315H89.7114L94.2497 21.2482L98.7638 33.5315H101.465L96.0117 19.002H92.4849Z" fill="black"/>
<path d="M6.43221 19.002L0.976562 33.5315H3.65865L8.19695 21.2482L12.711 33.5315H15.412L9.959 19.002H6.43221Z" fill="black"/>
<path d="M226.699 38.2991L229.338 39.0227V35.8887H226.699V38.2991Z" fill="black"/>
<path d="M277.022 18.9883V33.4909H274.469V19.6528L277.022 18.9883Z" fill="black"/>
<path d="M271.512 30.0505C271.429 29.2999 271.292 28.6032 271.044 27.9387C270.711 26.9433 270.186 26.0556 269.489 25.3077C268.825 24.5841 267.937 24.003 266.912 23.5887C265.884 23.1421 264.72 22.9538 263.361 22.9538C262.003 22.9538 260.867 23.1448 259.872 23.5887C258.928 23.9465 258.32 24.4469 257.679 25.0575V18.9912L255.124 19.6557V31.2691H245.614V18.9885L243.061 19.653V31.2664H234.552V22.9915L231.996 23.656V31.2637H220.805V29.4317C220.805 28.1835 220.612 27.0752 220.278 26.0502C219.918 25.0226 219.393 24.1644 218.696 23.4139C218.005 22.666 217.144 22.0849 216.119 21.6652C215.092 21.2779 213.927 21.0546 212.598 21.0546C211.269 21.0546 210.101 21.2752 209.047 21.6652C208.051 22.0822 207.164 22.666 206.496 23.4139C205.802 24.1644 205.275 25.0226 204.917 26.0502C204.694 26.6609 204.557 27.2958 204.5 27.9871C204.42 28.3503 204.39 28.7377 204.39 29.152V31.261H179.081V18.9805L176.525 19.6449V33.4831H271.598V31.261C271.598 30.8468 271.571 30.4002 271.515 30.0424L271.512 30.0505ZM258.008 29.2434C258.201 28.5494 258.564 27.9683 259.035 27.4706C259.476 26.9702 260.09 26.5829 260.808 26.3058C261.499 26.0287 262.387 25.8619 263.358 25.8619C264.386 25.8619 265.247 26.0287 265.968 26.3058C266.659 26.5855 267.24 26.9702 267.743 27.4706C268.214 27.9683 268.518 28.5521 268.741 29.2434C268.822 29.4909 269.072 30.8548 269.072 31.2691H257.677C257.677 30.8548 257.897 29.4909 258.008 29.2434ZM210.015 24.3904C210.736 24.1106 211.594 24.003 212.595 24.003C213.596 24.003 214.451 24.1133 215.145 24.3904C215.896 24.6944 216.474 25.0817 216.948 25.5552C217.392 26.0583 217.752 26.6367 217.973 27.328C218.166 28.0221 218.277 28.7457 218.277 29.5205V31.2691H213.757C213.868 31.1588 213.978 31.0189 214.088 30.8817C214.309 30.6046 214.475 30.2711 214.562 29.9106C214.645 29.6066 214.701 29.2703 214.701 29.0228C214.701 28.2723 214.535 27.6374 214.228 27.137C213.924 26.6098 213.534 26.2224 213.036 25.9184C212.563 25.6413 211.982 25.4207 211.401 25.2808C210.79 25.1436 210.182 25.0844 209.542 25.0844H209.515C209.265 25.0844 209.017 25.0844 208.764 25.1409C209.125 24.8369 209.542 24.5841 210.012 24.3904H210.015ZM206.967 28.6866C206.994 28.5225 207.051 28.3826 207.131 28.2427C207.298 27.9925 207.492 27.7719 207.718 27.6616C207.965 27.5244 208.269 27.4114 208.576 27.3845C208.883 27.3011 209.214 27.3011 209.547 27.3011C209.854 27.3011 210.187 27.3011 210.489 27.3845C210.822 27.4114 211.099 27.5244 211.35 27.6616C211.597 27.7719 211.793 27.9925 211.931 28.2427C212.068 28.4929 212.151 28.8265 212.151 29.2407C212.151 30.0155 211.931 30.5724 211.457 30.8521C211.013 31.1265 210.403 31.2664 209.711 31.2664H209.348C208.657 31.2664 208.073 31.1265 207.602 30.8521C207.129 30.5724 206.908 30.0182 206.908 29.2407C206.908 29.0444 206.908 28.8534 206.965 28.6839L206.967 28.6866Z" fill="black"/>
</g>
<defs>
<clipPath id="clip0_7466_43702">
<rect width="276.045" height="38.472" fill="white" transform="translate(0.976562 0.549805)"/>
</clipPath>
</defs>
</svg>
