<svg width="39" height="39" viewBox="0 0 39 39" fill="none" xmlns="http://www.w3.org/2000/svg">
<path d="M16.8246 17.204L19.55 14.7815L17.2789 11.3748L19.3229 9.25512L25.9091 12.7375L27.726 9.70934L20.9884 4.03156L15.2349 5.39423L13.5694 0.549194L11.5254 1.83616L15.0078 11.9047L13.5694 12.7375L16.8246 17.204Z" fill="#F9DD4B"/>
<path d="M11.3436 32.8901H10.3714H10.3566H5.53809V33.7467H7.46067V38.4748H8.4397V33.7467H10.3566V38.4748H14.2818V37.6193H11.3436V32.8901Z" fill="white"/>
<path d="M20.4169 34.505C20.2613 34.1516 20.0463 33.8496 19.773 33.5957C19.4996 33.3441 19.1782 33.1463 18.8122 33.0056C18.444 32.8638 18.0528 32.7928 17.6342 32.7928C17.2156 32.7928 16.8313 32.8638 16.4619 33.0056C16.0913 33.1463 15.7688 33.3441 15.4955 33.5957C15.2221 33.8496 15.0048 34.1539 14.8435 34.5096C14.6811 34.8653 14.6011 35.2541 14.6011 35.6773C14.6011 36.1005 14.6811 36.4985 14.8435 36.8508C15.0048 37.2042 15.2221 37.5073 15.4955 37.7589C15.7688 38.0116 16.0925 38.2095 16.4619 38.3502C16.8325 38.492 17.2225 38.5629 17.6342 38.5629C18.046 38.5629 18.4451 38.492 18.8122 38.3502C19.1794 38.2095 19.4996 38.0116 19.773 37.7589C20.0463 37.5073 20.2613 37.203 20.4169 36.8508C20.5736 36.4974 20.6513 36.1073 20.6513 35.6773C20.6513 35.2473 20.5736 34.8573 20.4169 34.505ZM19.4996 36.4768C19.3978 36.7204 19.256 36.9343 19.0764 37.1161C18.8969 37.298 18.683 37.4409 18.436 37.5439C18.1901 37.6479 17.9224 37.6983 17.6331 37.6983C17.3437 37.6983 17.0749 37.6479 16.8256 37.5439C16.5763 37.4421 16.3601 37.3014 16.1771 37.1207C15.9953 36.9411 15.8523 36.7272 15.7494 36.4813C15.6464 36.2343 15.595 35.9667 15.595 35.6773C15.595 35.3879 15.6453 35.1215 15.7494 34.8744C15.8512 34.6274 15.9953 34.4146 16.1771 34.2351C16.3601 34.0555 16.5763 33.9148 16.8256 33.8119C17.0749 33.709 17.3449 33.6564 17.6331 33.6564C17.9213 33.6564 18.1889 33.7078 18.436 33.8119C18.683 33.9137 18.8969 34.0555 19.0764 34.2351C19.256 34.4146 19.3967 34.6274 19.4996 34.8744C19.6014 35.1215 19.6552 35.3891 19.6552 35.6773C19.6552 35.9655 19.6026 36.2309 19.4996 36.4768Z" fill="white"/>
<path d="M26.1949 35.9701C25.9456 35.7116 25.5933 35.579 25.1415 35.5721C25.3703 35.5607 25.559 35.5126 25.7054 35.4269C25.8541 35.3422 25.9707 35.2381 26.0588 35.118C26.1469 34.9968 26.2086 34.8733 26.2395 34.7429C26.2727 34.6137 26.2887 34.4959 26.2887 34.3895C26.2887 34.1013 26.2304 33.8611 26.1126 33.6667C25.9936 33.4722 25.8415 33.3178 25.6528 33.2035C25.4652 33.0879 25.2536 33.0067 25.018 32.9564C24.7836 32.9072 24.5479 32.8821 24.3123 32.8821H21.6841V38.4749H24.5685C24.8213 38.4749 25.0661 38.4531 25.304 38.4097C25.543 38.3651 25.7557 38.2861 25.9444 38.1752C26.132 38.0643 26.2841 37.9099 26.3985 37.712C26.514 37.5153 26.57 37.2671 26.57 36.9674C26.57 36.5614 26.4454 36.2297 26.1949 35.9713V35.9701ZM22.6711 33.7284H24.2769C24.4118 33.7284 24.5422 33.7399 24.6692 33.7593C24.7961 33.781 24.9059 33.8165 25.0009 33.8691C25.0946 33.9217 25.169 33.9983 25.225 34.0944C25.2811 34.1905 25.3097 34.3197 25.3097 34.4787C25.3097 34.7841 25.2216 34.9911 25.0443 35.1009C24.8682 35.2107 24.6406 35.2644 24.365 35.2644H22.6711V33.7284ZM25.4904 37.2717C25.4229 37.3735 25.3325 37.4524 25.2216 37.505C25.1084 37.5576 24.9826 37.5908 24.8419 37.6056C24.7001 37.6205 24.556 37.6274 24.4096 37.6274H22.6711V36.0227H24.365C24.5125 36.0227 24.6589 36.033 24.8064 36.0536C24.954 36.0742 25.0844 36.1131 25.1987 36.1726C25.3142 36.2309 25.408 36.3155 25.4812 36.4242C25.5544 36.5317 25.591 36.6746 25.591 36.8519C25.591 37.0292 25.5567 37.1676 25.4904 37.2717Z" fill="white"/>
<path d="M31.5429 35.2153H28.5967V33.144L27.6143 32.8878V38.4703H28.5967V36.0799H31.5429V38.4703H32.5357V33.1543L31.5429 32.8878V35.2153Z" fill="white"/>
<path d="M35.5422 32.8821L33.4424 38.4749H34.474L36.2205 33.7467L37.9589 38.4749H38.9997L36.8998 32.8821H35.5422Z" fill="white"/>
<path d="M2.41481 32.8821L0.314941 38.4749H1.34772L3.09418 33.7467L4.83262 38.4749H5.87227L3.77355 32.8821H2.41481Z" fill="white"/>
<path d="M19.6274 30.9366L20.6442 31.2157V30.0091H19.6274V30.9366Z" fill="white"/>
<path d="M38.9997 23.5024V29.0861H38.0161V23.7586L38.9997 23.5024Z" fill="white"/>
<path d="M36.8783 27.7616C36.8463 27.4723 36.7936 27.2047 36.6976 26.9485C36.5683 26.5653 36.367 26.2245 36.0983 25.9351C35.8421 25.6572 35.5001 25.433 35.1067 25.2729C34.7121 25.1014 34.2626 25.0282 33.7399 25.0282C33.2172 25.0282 32.7803 25.1014 32.396 25.2729C32.0323 25.4102 31.7979 25.6034 31.552 25.8379V23.5024L30.5684 23.7586V28.2294H26.9085V23.5024L25.926 23.7586V28.2294H22.6504V25.0442L21.6668 25.3004V28.2294H17.3585V27.5249C17.3585 27.0445 17.2841 26.6179 17.156 26.2233C17.0176 25.8276 16.8152 25.4971 16.5464 25.2089C16.2799 24.9206 15.9483 24.6976 15.5548 24.5364C15.1591 24.3865 14.7108 24.3019 14.1995 24.3019C13.6883 24.3019 13.2388 24.3865 12.8328 24.5364C12.4496 24.6976 12.1077 24.9218 11.8515 25.2089C11.585 25.4971 11.3814 25.8276 11.243 26.2233C11.1572 26.4578 11.1046 26.7026 11.0817 26.969C11.0509 27.1086 11.0394 27.2584 11.0394 27.4174V28.2294H1.29609V23.5024L0.3125 23.7586V29.0849H36.9114V28.2294C36.9114 28.0693 36.9012 27.8977 36.8794 27.7605L36.8783 27.7616ZM31.6801 27.4506C31.7544 27.1841 31.894 26.9599 32.0758 26.7678C32.2451 26.5756 32.4818 26.4258 32.7586 26.3194C33.0251 26.2131 33.3659 26.1479 33.7399 26.1479C34.1356 26.1479 34.4673 26.2119 34.7441 26.3194C35.0106 26.4269 35.2348 26.5756 35.428 26.7678C35.6088 26.9599 35.7254 27.1841 35.8123 27.4506C35.8432 27.5455 35.9393 28.0704 35.9393 28.2294H31.552C31.552 28.0693 31.6366 27.5455 31.6789 27.4506H31.6801ZM13.2056 25.5829C13.4835 25.4754 13.8129 25.433 14.1984 25.433C14.5838 25.433 14.9132 25.4754 15.1808 25.5829C15.469 25.6995 15.6921 25.8493 15.8751 26.0312C16.0455 26.2245 16.1839 26.4475 16.2696 26.714C16.344 26.9805 16.3874 27.2596 16.3874 27.5581V28.2306H14.6478C14.6902 28.1871 14.7325 28.1345 14.7748 28.0807C14.8594 27.9744 14.9246 27.8451 14.9567 27.7067C14.9887 27.5889 15.0104 27.4608 15.0104 27.3648C15.0104 27.0766 14.9464 26.8318 14.8274 26.6385C14.7096 26.4361 14.5609 26.2862 14.3688 26.1684C14.1869 26.0621 13.9628 25.9763 13.7397 25.9226C13.5041 25.8699 13.2697 25.8471 13.0238 25.8471H13.0135C12.9174 25.8471 12.8213 25.8471 12.7253 25.8688C12.8636 25.751 13.0249 25.6549 13.2068 25.5806L13.2056 25.5829ZM12.031 27.2367C12.0413 27.1738 12.0631 27.1189 12.0939 27.0663C12.158 26.9702 12.2323 26.8856 12.3192 26.8421C12.4142 26.7895 12.532 26.746 12.6498 26.7357C12.7676 26.7037 12.8957 26.7037 13.0238 26.7037C13.1416 26.7037 13.2697 26.7037 13.3863 26.7357C13.5144 26.746 13.6208 26.7895 13.718 26.8421C13.8129 26.8856 13.8884 26.9691 13.9422 27.0663C13.9948 27.1623 14.0268 27.2904 14.0268 27.4506C14.0268 27.7491 13.9422 27.9629 13.7603 28.0704C13.5888 28.1757 13.3543 28.2306 13.0878 28.2306H12.9483C12.6818 28.2306 12.4576 28.1768 12.2758 28.0704C12.0939 27.9629 12.0093 27.7491 12.0093 27.4506C12.0093 27.3751 12.0093 27.3007 12.031 27.2367Z" fill="white"/>
</svg>
