<svg width="129" height="50" viewBox="0 0 129 50" fill="none" xmlns="http://www.w3.org/2000/svg">
<path d="M37.2687 31.1373H34.0442H33.9948H18.0127V33.9787H24.3896V49.6611H27.6369V33.9787H33.9948V49.6611H47.0142V46.8236H37.2687V31.1373Z" fill="black"/>
<path d="M67.3629 36.4937C66.8469 35.3215 66.1337 34.3201 65.2271 33.4779C64.3204 32.6433 63.2545 31.987 62.0405 31.5204C60.819 31.05 59.5216 30.8148 58.1332 30.8148C56.7448 30.8148 55.4701 31.05 54.2448 31.5204C53.0157 31.987 51.946 32.6433 51.0393 33.4779C50.1326 34.3201 49.4119 35.3291 48.877 36.5089C48.3383 37.6887 48.0728 38.9785 48.0728 40.3821C48.0728 41.7857 48.3383 43.1059 48.877 44.2743C49.4119 45.4465 50.1326 46.4518 51.0393 47.2864C51.946 48.1247 53.0195 48.781 54.2448 49.2476C55.4739 49.718 56.7675 49.9532 58.1332 49.9532C59.4989 49.9532 60.8228 49.718 62.0405 49.2476C63.2583 48.781 64.3204 48.1247 65.2271 47.2864C66.1337 46.4518 66.8469 45.4427 67.3629 44.2743C67.8826 43.1021 68.1405 41.8085 68.1405 40.3821C68.1405 38.9558 67.8826 37.6622 67.3629 36.4937ZM64.3205 43.0338C63.9828 43.8418 63.5124 44.5512 62.9168 45.1544C62.3213 45.7576 61.6119 46.2317 60.7925 46.5732C59.9768 46.9184 59.0892 47.0853 58.1294 47.0853C57.1696 47.0853 56.2782 46.9184 55.4512 46.5732C54.6242 46.2355 53.9072 45.7689 53.3002 45.1696C52.6971 44.574 52.2229 43.8646 51.8815 43.049C51.54 42.2296 51.3693 41.3419 51.3693 40.3821C51.3693 39.4224 51.5362 38.5385 51.8815 37.7191C52.2191 36.8996 52.6971 36.1941 53.3002 35.5985C53.9072 35.0029 54.6242 34.5363 55.4512 34.1949C56.2782 33.8535 57.1734 33.679 58.1294 33.679C59.0854 33.679 59.9731 33.8497 60.7925 34.1949C61.6119 34.5325 62.3213 35.0029 62.9168 35.5985C63.5124 36.1941 63.979 36.8996 64.3205 37.7191C64.6581 38.5385 64.8364 39.4261 64.8364 40.3821C64.8364 41.3381 64.6619 42.2182 64.3205 43.0338Z" fill="black"/>
<path d="M86.5279 41.3533C85.7009 40.4959 84.5324 40.0559 83.034 40.0331C83.7927 39.9952 84.4186 39.8358 84.9042 39.5513C85.3974 39.2706 85.7843 38.9254 86.0764 38.5271C86.3685 38.125 86.5734 37.7153 86.6758 37.2828C86.7858 36.8541 86.8389 36.4634 86.8389 36.1106C86.8389 35.1546 86.6455 34.358 86.2547 33.7131C85.8602 33.0682 85.3557 32.5561 84.7297 32.1767C84.1076 31.7936 83.4058 31.5242 82.6243 31.3573C81.8466 31.1942 81.0652 31.1107 80.2837 31.1107H71.5662V49.6611H81.1335C81.9718 49.6611 82.7836 49.589 83.5727 49.4449C84.3655 49.2969 85.0711 49.0352 85.6971 48.6672C86.3192 48.2992 86.8238 47.7871 87.2031 47.1308C87.5863 46.4783 87.7721 45.6551 87.7721 44.6612C87.7721 43.3145 87.3586 42.2144 86.5279 41.3571V41.3533ZM74.84 33.9179H80.1661C80.6137 33.9179 81.0462 33.9559 81.4673 34.0203C81.8884 34.0924 82.2525 34.21 82.5674 34.3845C82.8785 34.559 83.1251 34.8132 83.3109 35.1319C83.4968 35.4505 83.5917 35.8792 83.5917 36.4065C83.5917 37.4194 83.2996 38.106 82.7116 38.4702C82.1274 38.8344 81.3724 39.0127 80.4582 39.0127H74.84V33.9179ZM84.191 45.6703C83.9672 46.0079 83.6675 46.2697 83.2996 46.4442C82.924 46.6187 82.5067 46.7287 82.0401 46.778C81.5697 46.8273 81.0917 46.8501 80.6062 46.8501H74.84V41.5278H80.4582C80.9476 41.5278 81.4331 41.5619 81.9225 41.6302C82.4119 41.6985 82.8443 41.8275 83.2237 42.0247C83.6068 42.2182 83.9179 42.4989 84.1607 42.8593C84.4035 43.2159 84.5249 43.6901 84.5249 44.2781C84.5249 44.8661 84.4111 45.3251 84.191 45.6703Z" fill="black"/>
<path d="M104.266 38.8495H94.4942V31.9794L91.2356 31.1296V49.6459H94.4942V41.7174H104.266V49.6459H107.559V32.0135L104.266 31.1296V38.8495Z" fill="black"/>
<path d="M117.532 31.1107L110.567 49.6611H113.989L119.782 33.9786L125.548 49.6611H129L122.035 31.1107H117.532Z" fill="black"/>
<path d="M7.65269 31.1107L0.687744 49.6611H4.11331L9.90604 33.9786L15.6722 49.6611H19.1205L12.1594 31.1107H7.65269Z" fill="black"/>
<path d="M64.7454 24.658L68.1178 25.5836V21.5814H64.7454V24.658Z" fill="black"/>
<path d="M129 0V18.52H125.738V0.849747L129 0Z" fill="black"/>
<path d="M121.963 14.1271C121.857 13.1673 121.682 12.2797 121.364 11.4299C120.935 10.1591 120.267 9.02861 119.376 8.06885C118.526 7.14702 117.392 6.40347 116.087 5.87238C114.778 5.30335 113.287 5.06058 111.554 5.06058C109.82 5.06058 108.371 5.30335 107.096 5.87238C105.89 6.3276 105.112 6.96871 104.297 7.74639V0L101.034 0.849747V15.6787H88.895V0L85.6363 0.849747V15.6787H74.7716V5.11367L71.5092 5.96344V15.6787H57.219V13.3418C57.219 11.7486 56.9724 10.3336 56.5475 9.02483C56.0885 7.71226 55.417 6.61591 54.5256 5.65994C53.6417 4.70397 52.5415 3.96426 51.2366 3.42937C49.924 2.93241 48.4369 2.65167 46.7412 2.65167C45.0455 2.65167 43.5547 2.93241 42.208 3.42937C40.9371 3.96426 39.8029 4.70777 38.9531 5.65994C38.0692 6.61591 37.394 7.71226 36.935 9.02483C36.6504 9.8025 36.4759 10.6143 36.4001 11.4982C36.2976 11.961 36.2597 12.458 36.2597 12.9853V15.6787H3.9426V0L0.680176 0.849747V18.5162H122.073V15.6787C122.073 15.1476 122.039 14.5785 121.967 14.1233L121.963 14.1271ZM104.722 13.0953C104.968 12.2114 105.431 11.4678 106.034 10.8305C106.596 10.1932 107.381 9.69627 108.299 9.34347C109.183 8.99067 110.313 8.77444 111.554 8.77444C112.866 8.77444 113.966 8.98688 114.884 9.34347C115.768 9.70006 116.512 10.1932 117.153 10.8305C117.752 11.4678 118.139 12.2114 118.428 13.0953C118.53 13.4101 118.849 15.1514 118.849 15.6787H104.297C104.297 15.1476 104.577 13.4101 104.718 13.0953H104.722ZM43.4447 6.90043C44.3665 6.54384 45.459 6.40348 46.7374 6.40348C48.0159 6.40348 49.1084 6.54384 49.9961 6.90043C50.9521 7.28738 51.6918 7.78432 52.2988 8.38749C52.864 9.0286 53.323 9.76835 53.6075 10.6522C53.8541 11.5361 53.9983 12.4618 53.9983 13.4519V15.6825H48.2283C48.3686 15.5383 48.509 15.3638 48.6494 15.1855C48.9301 14.8327 49.1463 14.404 49.2525 13.945C49.3588 13.5543 49.4309 13.1294 49.4309 12.8108C49.4309 11.8548 49.2184 11.043 48.8239 10.4019C48.4331 9.7304 47.94 9.23345 47.3027 8.84272C46.6995 8.48992 45.956 8.20542 45.2162 8.02713C44.4348 7.85262 43.6571 7.77674 42.8415 7.77674H42.8073C42.4887 7.77674 42.17 7.77674 41.8514 7.84882C42.3104 7.45808 42.8453 7.13942 43.4484 6.89284L43.4447 6.90043ZM39.5487 12.3859C39.5828 12.1772 39.6549 11.9952 39.7574 11.8207C39.9698 11.502 40.2164 11.2213 40.5047 11.0771C40.8195 10.9026 41.2103 10.7585 41.601 10.7243C41.9917 10.6181 42.4166 10.6181 42.8415 10.6181C43.2322 10.6181 43.6571 10.6181 44.044 10.7243C44.4689 10.7585 44.8217 10.9026 45.1441 11.0771C45.459 11.2213 45.7094 11.4982 45.8877 11.8207C46.0622 12.1393 46.1684 12.5642 46.1684 13.0953C46.1684 14.0854 45.8877 14.7948 45.2845 15.1514C44.7155 15.5004 43.9378 15.6825 43.0539 15.6825H42.5911C41.7072 15.6825 40.9637 15.5042 40.3605 15.1514C39.7573 14.7948 39.4766 14.0854 39.4766 13.0953C39.4766 12.8449 39.4766 12.5983 39.5487 12.3859Z" fill="black"/>
</svg>
