<svg width="104" height="103" viewBox="0 0 104 103" fill="none" xmlns="http://www.w3.org/2000/svg">
<path d="M77.5439 23.1415H72.5231L59.5708 0.704285H44.4292L31.4738 23.1415H26.4531L16.3016 40.7263H36.5281L39.0385 45.0743H64.9554L67.4657 40.7263H87.6923L77.5408 23.1415H77.5439ZM51.9969 5.23882L62.3319 23.1385H41.662L51.9939 5.23882H51.9969ZM34.0973 36.2468L39.0782 27.6149H64.9156L69.8997 36.2468H34.0942H34.0973Z" fill="#FEDD06"/>
<path d="M29.7768 87.1296H27.1778H27.138H14.256V89.4198H19.396V102.06H22.0133V89.4198H27.138V102.06H37.632V99.7731H29.7768V87.1296Z" fill="black"/>
<path d="M54.0334 91.447C53.6175 90.5022 53.0427 89.695 52.3119 89.0162C51.5811 88.3435 50.7219 87.8145 49.7434 87.4384C48.7589 87.0593 47.7131 86.8697 46.594 86.8697C45.4749 86.8697 44.4475 87.0593 43.4599 87.4384C42.4692 87.8145 41.607 88.3435 40.8762 89.0162C40.1454 89.695 39.5644 90.5083 39.1333 91.4593C38.6991 92.4102 38.4851 93.4498 38.4851 94.5812C38.4851 95.7125 38.6991 96.7766 39.1333 97.7184C39.5644 98.6632 40.1454 99.4735 40.8762 100.146C41.607 100.822 42.4723 101.351 43.4599 101.727C44.4506 102.106 45.4933 102.296 46.594 102.296C47.6948 102.296 48.7619 102.106 49.7434 101.727C50.725 101.351 51.5811 100.822 52.3119 100.146C53.0427 99.4735 53.6175 98.6601 54.0334 97.7184C54.4523 96.7735 54.6602 95.7309 54.6602 94.5812C54.6602 93.4315 54.4523 92.3888 54.0334 91.447ZM51.5811 96.7185C51.309 97.3698 50.9298 97.9416 50.4498 98.4277C49.9697 98.9139 49.3979 99.2961 48.7375 99.5713C48.0801 99.8496 47.3646 99.9841 46.591 99.9841C45.8174 99.9841 45.0988 99.8496 44.4323 99.5713C43.7657 99.2992 43.1878 98.9231 42.6985 98.44C42.2124 97.9599 41.8302 97.3881 41.555 96.7307C41.2798 96.0703 41.1422 95.3548 41.1422 94.5812C41.1422 93.8076 41.2767 93.0951 41.555 92.4347C41.8271 91.7742 42.2124 91.2055 42.6985 90.7254C43.1878 90.2454 43.7657 89.8693 44.4323 89.5941C45.0988 89.3189 45.8204 89.1783 46.591 89.1783C47.3615 89.1783 48.077 89.3158 48.7375 89.5941C49.3979 89.8662 49.9697 90.2454 50.4498 90.7254C50.9298 91.2055 51.3059 91.7742 51.5811 92.4347C51.8532 93.0951 51.997 93.8106 51.997 94.5812C51.997 95.3517 51.8563 96.0611 51.5811 96.7185Z" fill="black"/>
<path d="M69.4808 95.364C68.8142 94.6729 67.8724 94.3182 66.6646 94.2999C67.2762 94.2693 67.7807 94.1409 68.1721 93.9116C68.5696 93.6853 68.8815 93.407 69.1169 93.086C69.3523 92.7619 69.5175 92.4316 69.6 92.0831C69.6887 91.7375 69.7315 91.4226 69.7315 91.1382C69.7315 90.3677 69.5756 89.7256 69.2606 89.2058C68.9426 88.686 68.5359 88.2732 68.0314 87.9674C67.53 87.6586 66.9643 87.4415 66.3344 87.307C65.7076 87.1755 65.0777 87.1082 64.4478 87.1082H57.4213V102.06H65.1327C65.8085 102.06 66.4628 102.002 67.0988 101.886C67.7379 101.767 68.3066 101.556 68.8111 101.259C69.3126 100.963 69.7193 100.55 70.025 100.021C70.3339 99.4949 70.4837 98.8314 70.4837 98.0302C70.4837 96.9448 70.1504 96.058 69.4808 95.367V95.364ZM60.06 89.3709H64.353C64.7138 89.3709 65.0624 89.4015 65.4018 89.4535C65.7412 89.5115 66.0347 89.6063 66.2885 89.747C66.5393 89.8876 66.738 90.0925 66.8878 90.3493C67.0377 90.6062 67.1141 90.9517 67.1141 91.3767C67.1141 92.1931 66.8787 92.7466 66.4047 93.0401C65.9338 93.3337 65.3254 93.4774 64.5885 93.4774H60.06V89.3709ZM67.5972 98.8436C67.4168 99.1157 67.1753 99.3267 66.8787 99.4674C66.576 99.608 66.2396 99.6967 65.8635 99.7364C65.4844 99.7762 65.0991 99.7945 64.7077 99.7945H60.06V95.5046H64.5885C64.9829 95.5046 65.3743 95.5321 65.7687 95.5872C66.1632 95.6422 66.5117 95.7462 66.8175 95.9052C67.1263 96.0611 67.3771 96.2874 67.5728 96.5778C67.7685 96.8653 67.8663 97.2475 67.8663 97.7214C67.8663 98.1954 67.7746 98.5653 67.5972 98.8436Z" fill="black"/>
<path d="M83.7785 93.3459H75.9019V87.8084L73.2754 87.1235V102.048H75.9019V95.6575H83.7785V102.048H86.4325V87.8359L83.7785 87.1235V93.3459Z" fill="black"/>
<path d="M94.4712 87.1082L88.8573 102.06H91.6153L96.2844 89.4198L100.932 102.06H103.715L98.1006 87.1082H94.4712Z" fill="black"/>
<path d="M5.90548 87.1082L0.291565 102.06H3.05266L7.72174 89.4198L12.3694 102.06H15.1488L9.53801 87.1082H5.90548Z" fill="black"/>
<path d="M51.9236 81.9071L54.6418 82.6532V79.4273H51.9236V81.9071Z" fill="black"/>
<path d="M103.715 62.0322V76.9598H101.085V62.7171L103.715 62.0322Z" fill="black"/>
<path d="M98.0426 73.419C97.957 72.6454 97.8163 71.9299 97.5594 71.245C97.2139 70.2206 96.6758 69.3095 95.9572 68.5359C95.2723 67.7928 94.3581 67.1935 93.3062 66.7654C92.2513 66.3068 91.0496 66.1111 89.6523 66.1111C88.2549 66.1111 87.0869 66.3068 86.0595 66.7654C85.0872 67.1324 84.4603 67.6491 83.8029 68.2759V62.0322L81.1733 62.7171V74.6696H71.3888V62.0322L68.7622 62.7171V74.6696H60.005V66.1539L57.3754 66.8388V74.6696H45.8571V72.786C45.8571 71.5018 45.6584 70.3613 45.3159 69.3064C44.9459 68.2484 44.4047 67.3648 43.6862 66.5942C42.9737 65.8237 42.087 65.2275 41.0352 64.7963C39.9772 64.3958 38.7786 64.1695 37.4118 64.1695C36.045 64.1695 34.8434 64.3958 33.7579 64.7963C32.7336 65.2275 31.8193 65.8267 31.1344 66.5942C30.422 67.3648 29.8777 68.2484 29.5077 69.3064C29.2784 69.9332 29.1377 70.5876 29.0766 71.3C28.994 71.673 28.9634 72.0736 28.9634 72.4986V74.6696H2.91506V62.0322L0.285461 62.7171V76.9567H98.1312V74.6696C98.1312 74.2415 98.1037 73.7828 98.0456 73.4159L98.0426 73.419ZM84.1454 72.5873C84.3441 71.8748 84.7172 71.2755 85.2034 70.7618C85.6559 70.2481 86.2888 69.8476 87.0288 69.5632C87.7412 69.2789 88.6524 69.1046 89.6523 69.1046C90.7102 69.1046 91.597 69.2758 92.3369 69.5632C93.0494 69.8507 93.6487 70.2481 94.1654 70.7618C94.6485 71.2755 94.9604 71.8748 95.1928 72.5873C95.2753 72.8411 95.5322 74.2445 95.5322 74.6696H83.8029C83.8029 74.2415 84.0292 72.8411 84.1423 72.5873H84.1454ZM34.7547 67.5941C35.4977 67.3067 36.3783 67.1935 37.4088 67.1935C38.4392 67.1935 39.3198 67.3067 40.0353 67.5941C40.8058 67.906 41.4021 68.3065 41.8913 68.7927C42.3469 69.3094 42.7169 69.9057 42.9462 70.6181C43.145 71.3306 43.2612 72.0767 43.2612 72.8747V74.6726H38.6104C38.7236 74.5564 38.8367 74.4158 38.9498 74.2721C39.1761 73.9877 39.3504 73.6422 39.436 73.2722C39.5216 72.9573 39.5797 72.6148 39.5797 72.358C39.5797 71.5874 39.4085 70.9331 39.0905 70.4163C38.7755 69.8751 38.378 69.4746 37.8643 69.1596C37.3782 68.8753 36.7789 68.6459 36.1826 68.5022C35.5527 68.3616 34.9259 68.3004 34.2685 68.3004H34.241C33.9842 68.3004 33.7273 68.3004 33.4705 68.3585C33.8404 68.0436 34.2716 67.7867 34.7577 67.588L34.7547 67.5941ZM31.6144 72.0155C31.642 71.8473 31.7001 71.7006 31.7826 71.5599C31.9539 71.3031 32.1526 71.0768 32.385 70.9606C32.6388 70.8199 32.9537 70.7038 33.2687 70.6762C33.5836 70.5906 33.9261 70.5906 34.2685 70.5906C34.5835 70.5906 34.9259 70.5906 35.2378 70.6762C35.5803 70.7038 35.8646 70.8199 36.1245 70.9606C36.3783 71.0768 36.5801 71.3 36.7238 71.5599C36.8645 71.8168 36.9501 72.1592 36.9501 72.5873C36.9501 73.3853 36.7238 73.9571 36.2377 74.2445C35.779 74.5258 35.1522 74.6726 34.4398 74.6726H34.0667C33.3543 74.6726 32.755 74.5289 32.2688 74.2445C31.7826 73.9571 31.5563 73.3853 31.5563 72.5873C31.5563 72.3855 31.5563 72.1867 31.6144 72.0155Z" fill="black"/>
</svg>
