<svg width="57" height="56" viewBox="0 0 57 56" fill="none" xmlns="http://www.w3.org/2000/svg">
<path d="M42.4885 12.6895H39.7569L32.7099 0.482117H24.4718L17.4232 12.6895H14.6916L9.16846 22.2568H20.1731L21.5389 24.6225H35.6395L37.0053 22.2568H48.0099L42.4868 12.6895H42.4885ZM28.5892 2.94922L34.2121 12.6879H22.9663L28.5875 2.94922H28.5892ZM18.8505 19.8197L21.5605 15.1234H35.6179L38.3295 19.8197H18.8489H18.8505Z" fill="#FEDD06"/>
<path d="M16.4998 47.5034H15.0857H15.0641H8.05542V48.7494H10.8519V55.6267H12.2759V48.7494H15.0641V55.6267H20.7736V54.3824H16.4998V47.5034Z" fill="white"/>
<path d="M29.6971 49.8524C29.4709 49.3383 29.1581 48.8992 28.7605 48.5298C28.3629 48.1639 27.8955 47.8761 27.3631 47.6714C26.8275 47.4651 26.2585 47.362 25.6496 47.362C25.0408 47.362 24.4818 47.4651 23.9445 47.6714C23.4055 47.8761 22.9363 48.1639 22.5387 48.5298C22.1411 48.8992 21.825 49.3417 21.5905 49.859C21.3542 50.3764 21.2378 50.942 21.2378 51.5576C21.2378 52.1731 21.3542 52.752 21.5905 53.2644C21.825 53.7785 22.1411 54.2193 22.5387 54.5853C22.9363 54.953 23.4071 55.2408 23.9445 55.4454C24.4835 55.6517 25.0507 55.7548 25.6496 55.7548C26.2485 55.7548 26.8291 55.6517 27.3631 55.4454C27.8971 55.2408 28.3629 54.953 28.7605 54.5853C29.1581 54.2193 29.4709 53.7768 29.6971 53.2644C29.9251 52.7504 30.0382 52.1831 30.0382 51.5576C30.0382 50.9321 29.9251 50.3648 29.6971 49.8524ZM28.3629 52.7204C28.2149 53.0748 28.0086 53.3859 27.7474 53.6504C27.4862 53.9149 27.1751 54.1228 26.8158 54.2726C26.4581 54.4239 26.0689 54.4971 25.648 54.4971C25.2271 54.4971 24.8361 54.4239 24.4735 54.2726C24.1108 54.1245 23.7964 53.9199 23.5302 53.657C23.2657 53.3958 23.0578 53.0847 22.908 52.7271C22.7583 52.3677 22.6835 51.9785 22.6835 51.5576C22.6835 51.1367 22.7566 50.7491 22.908 50.3897C23.0561 50.0304 23.2657 49.721 23.5302 49.4598C23.7964 49.1986 24.1108 48.994 24.4735 48.8443C24.8361 48.6945 25.2287 48.618 25.648 48.618C26.0672 48.618 26.4565 48.6929 26.8158 48.8443C27.1751 48.9923 27.4862 49.1986 27.7474 49.4598C28.0086 49.721 28.2132 50.0304 28.3629 50.3897C28.511 50.7491 28.5892 51.1384 28.5892 51.5576C28.5892 51.9768 28.5127 52.3628 28.3629 52.7204Z" fill="white"/>
<path d="M38.1015 51.9835C37.7388 51.6075 37.2264 51.4145 36.5693 51.4045C36.902 51.3879 37.1765 51.318 37.3895 51.1932C37.6057 51.0701 37.7754 50.9188 37.9035 50.7441C38.0316 50.5677 38.1214 50.3881 38.1664 50.1984C38.2146 50.0104 38.2379 49.8391 38.2379 49.6844C38.2379 49.2651 38.1531 48.9158 37.9817 48.633C37.8087 48.3502 37.5874 48.1256 37.3129 47.9592C37.0401 47.7912 36.7323 47.6731 36.3896 47.5999C36.0486 47.5284 35.7059 47.4918 35.3632 47.4918H31.5403V55.6267H35.7359C36.1035 55.6267 36.4595 55.5951 36.8055 55.5319C37.1532 55.467 37.4627 55.3522 37.7372 55.1909C38.01 55.0295 38.2312 54.8049 38.3976 54.5171C38.5656 54.231 38.6471 53.87 38.6471 53.4341C38.6471 52.8435 38.4658 52.3611 38.1015 51.9851V51.9835ZM32.976 48.7228H35.3116C35.5079 48.7228 35.6976 48.7394 35.8822 48.7677C36.0669 48.7993 36.2266 48.8509 36.3647 48.9274C36.5011 49.004 36.6092 49.1154 36.6908 49.2552C36.7723 49.3949 36.8139 49.5829 36.8139 49.8141C36.8139 50.2583 36.6858 50.5594 36.4279 50.7191C36.1717 50.8788 35.8407 50.957 35.4397 50.957H32.976V48.7228ZM37.0767 53.8766C36.9786 54.0247 36.8471 54.1395 36.6858 54.216C36.5211 54.2925 36.3381 54.3408 36.1334 54.3624C35.9272 54.384 35.7176 54.394 35.5046 54.394H32.976V52.06H35.4397C35.6543 52.06 35.8673 52.0749 36.0819 52.1049C36.2965 52.1348 36.4861 52.1914 36.6525 52.2779C36.8205 52.3628 36.9569 52.4858 37.0634 52.6439C37.1699 52.8003 37.2231 53.0082 37.2231 53.2661C37.2231 53.5239 37.1732 53.7252 37.0767 53.8766Z" fill="white"/>
<path d="M45.8804 50.8855H41.595V47.8728L40.166 47.5001V55.6201H41.595V52.1432H45.8804V55.6201H47.3244V47.8877L45.8804 47.5001V50.8855Z" fill="white"/>
<path d="M51.6979 47.4918L48.6436 55.6267H50.1441L52.6844 48.7494L55.2131 55.6267H56.7269L53.6726 47.4918H51.6979Z" fill="white"/>
<path d="M3.51236 47.4918L0.458008 55.6267H1.96023L4.50054 48.7494L7.02918 55.6267H8.54139L5.48871 47.4918H3.51236Z" fill="white"/>
<path d="M28.5491 44.662L30.028 45.068V43.3129H28.5491V44.662Z" fill="white"/>
<path d="M56.7271 33.8487V41.9703H55.2964V34.2213L56.7271 33.8487Z" fill="white"/>
<path d="M53.6412 40.0439C53.5946 39.623 53.5181 39.2337 53.3783 38.8611C53.1903 38.3038 52.8976 37.808 52.5066 37.3872C52.134 36.9829 51.6366 36.6568 51.0643 36.4239C50.4904 36.1744 49.8366 36.0679 49.0763 36.0679C48.316 36.0679 47.6805 36.1744 47.1216 36.4239C46.5926 36.6236 46.2515 36.9047 45.8938 37.2457V33.8487L44.4632 34.2213V40.7243H39.1397V33.8487L37.7107 34.2213V40.7243H32.9461V36.0912L31.5155 36.4639V40.7243H25.2487V39.6995C25.2487 39.0008 25.1406 38.3803 24.9543 37.8064C24.753 37.2308 24.4585 36.75 24.0676 36.3308C23.68 35.9115 23.1975 35.5872 22.6252 35.3526C22.0496 35.1347 21.3975 35.0115 20.6539 35.0115C19.9103 35.0115 19.2565 35.1347 18.6659 35.3526C18.1086 35.5872 17.6112 35.9132 17.2385 36.3308C16.8509 36.75 16.5548 37.2308 16.3535 37.8064C16.2287 38.1474 16.1522 38.5034 16.1189 38.891C16.074 39.094 16.0574 39.3119 16.0574 39.5432V40.7243H1.88527V33.8487L0.45459 34.2213V41.9687H53.6894V40.7243C53.6894 40.4914 53.6745 40.2419 53.6429 40.0422L53.6412 40.0439ZM46.0802 39.5914C46.1883 39.2038 46.3913 38.8777 46.6558 38.5982C46.902 38.3188 47.2464 38.1008 47.6489 37.9461C48.0366 37.7914 48.5323 37.6966 49.0763 37.6966C49.6519 37.6966 50.1343 37.7897 50.5369 37.9461C50.9245 38.1025 51.2506 38.3188 51.5318 38.5982C51.7946 38.8777 51.9643 39.2038 52.0907 39.5914C52.1356 39.7295 52.2754 40.4931 52.2754 40.7243H45.8938C45.8938 40.4914 46.017 39.7295 46.0785 39.5914H46.0802ZM19.2082 36.8748C19.6125 36.7184 20.0916 36.6568 20.6522 36.6568C21.2128 36.6568 21.692 36.7184 22.0812 36.8748C22.5005 37.0444 22.8249 37.2624 23.091 37.5269C23.3389 37.808 23.5402 38.1324 23.665 38.5201C23.7731 38.9077 23.8363 39.3136 23.8363 39.7478V40.726H21.306C21.3676 40.6628 21.4291 40.5862 21.4907 40.508C21.6138 40.3533 21.7086 40.1653 21.7552 39.964C21.8018 39.7927 21.8334 39.6064 21.8334 39.4666C21.8334 39.0474 21.7402 38.6914 21.5672 38.4103C21.3958 38.1158 21.1796 37.8979 20.9001 37.7265C20.6356 37.5718 20.3095 37.447 19.9851 37.3689C19.6424 37.2923 19.3014 37.2591 18.9437 37.2591H18.9287C18.789 37.2591 18.6493 37.2591 18.5095 37.2907C18.7108 37.1193 18.9454 36.9796 19.2099 36.8714L19.2082 36.8748ZM17.4997 39.2803C17.5147 39.1888 17.5463 39.109 17.5912 39.0324C17.6844 38.8927 17.7925 38.7696 17.9189 38.7064C18.057 38.6299 18.2284 38.5666 18.3997 38.5517C18.5711 38.5051 18.7574 38.5051 18.9437 38.5051C19.1151 38.5051 19.3014 38.5051 19.4711 38.5517C19.6574 38.5666 19.8121 38.6299 19.9535 38.7064C20.0916 38.7696 20.2014 38.891 20.2796 39.0324C20.3561 39.1722 20.4027 39.3585 20.4027 39.5914C20.4027 40.0256 20.2796 40.3367 20.0151 40.4931C19.7655 40.6461 19.4245 40.726 19.0369 40.726H18.8339C18.4463 40.726 18.1202 40.6478 17.8557 40.4931C17.5912 40.3367 17.4681 40.0256 17.4681 39.5914C17.4681 39.4816 17.4681 39.3735 17.4997 39.2803Z" fill="white"/>
</svg>
