<svg width="28" height="29" viewBox="0 0 28 29" fill="none" xmlns="http://www.w3.org/2000/svg">
<path d="M11.6698 14.3265C11.6698 13.0368 12.7148 11.9909 14.0042 11.9909C15.2936 11.9909 16.3391 13.0368 16.3391 14.3265C16.3391 15.6163 15.2936 16.6621 14.0042 16.6621C12.7148 16.6621 11.6698 15.6163 11.6698 14.3265ZM10.4076 14.3265C10.4076 16.3135 12.0178 17.9241 14.0042 17.9241C15.9906 17.9241 17.6008 16.3135 17.6008 14.3265C17.6008 12.3396 15.9906 10.7289 14.0042 10.7289C12.0178 10.7289 10.4076 12.3396 10.4076 14.3265ZM16.9026 10.5863C16.9026 10.7526 16.9518 10.9151 17.0441 11.0534C17.1364 11.1917 17.2676 11.2995 17.4212 11.3632C17.5748 11.4269 17.7437 11.4436 17.9068 11.4113C18.0699 11.3789 18.2196 11.2989 18.3372 11.1813C18.4548 11.0638 18.5349 10.914 18.5674 10.751C18.5999 10.5879 18.5834 10.4188 18.5198 10.2652C18.4563 10.1115 18.3486 9.98018 18.2104 9.88774C18.0722 9.79531 17.9097 9.74593 17.7435 9.74587H17.7432C17.5203 9.74597 17.3067 9.83454 17.1491 9.99211C16.9915 10.1497 16.9028 10.3634 16.9026 10.5863ZM11.1745 20.0294C10.4916 19.9983 10.1205 19.8845 9.8738 19.7884C9.54678 19.6611 9.31346 19.5094 9.06814 19.2644C8.82283 19.0193 8.67098 18.7861 8.54423 18.459C8.44808 18.2124 8.33433 17.841 8.30329 17.1579C8.26933 16.4194 8.26255 16.1976 8.26255 14.3266C8.26255 12.4556 8.26989 12.2344 8.30329 11.4952C8.33438 10.8122 8.44897 10.4415 8.54423 10.1942C8.67154 9.86705 8.82317 9.63366 9.06814 9.38827C9.31312 9.14288 9.54622 8.99099 9.8738 8.8642C10.1203 8.76802 10.4916 8.65424 11.1745 8.62319C11.9128 8.58922 12.1346 8.58244 14.0042 8.58244C15.8738 8.58244 16.0958 8.58978 16.8347 8.62319C17.5176 8.6543 17.8882 8.76892 18.1354 8.8642C18.4625 8.99099 18.6958 9.14322 18.9411 9.38827C19.1864 9.63332 19.3377 9.86705 19.465 10.1942C19.5612 10.4408 19.6749 10.8122 19.706 11.4952C19.7399 12.2344 19.7467 12.4556 19.7467 14.3266C19.7467 16.1976 19.7399 16.4188 19.706 17.1579C19.6749 17.841 19.5605 18.2123 19.465 18.459C19.3377 18.7861 19.1861 19.0195 18.9411 19.2644C18.6961 19.5092 18.4625 19.6611 18.1354 19.7884C17.8889 19.8846 17.5176 19.9984 16.8347 20.0294C16.0964 20.0634 15.8747 20.0702 14.0042 20.0702C12.1337 20.0702 11.9126 20.0634 11.1745 20.0294ZM11.1165 7.36274C10.3709 7.39671 9.86136 7.51497 9.41639 7.68817C8.95557 7.86702 8.56547 8.10697 8.17564 8.49629C7.78582 8.88561 7.54655 9.27645 7.36775 9.7374C7.1946 10.1828 7.07637 10.6922 7.04242 11.438C7.0079 12.185 7 12.4239 7 14.3265C7 16.2292 7.0079 16.468 7.04242 17.2151C7.07637 17.961 7.1946 18.4703 7.36775 18.9157C7.54655 19.3763 7.78587 19.7676 8.17564 20.1568C8.56541 20.5459 8.95557 20.7855 9.41639 20.9649C9.8622 21.1381 10.3709 21.2564 11.1165 21.2903C11.8637 21.3243 12.1021 21.3328 14.0042 21.3328C15.9063 21.3328 16.1451 21.3249 16.8919 21.2903C17.6376 21.2564 18.1468 21.1381 18.592 20.9649C19.0525 20.7855 19.4429 20.5461 19.8328 20.1568C20.2226 19.7675 20.4613 19.3763 20.6407 18.9157C20.8138 18.4703 20.9326 17.9609 20.966 17.2151C20.9999 16.4675 21.0078 16.2292 21.0078 14.3265C21.0078 12.4239 20.9999 12.185 20.966 11.438C20.932 10.6921 20.8138 10.1825 20.6407 9.7374C20.4613 9.27673 20.222 8.88623 19.8328 8.49629C19.4435 8.10635 19.0525 7.86702 18.5926 7.68817C18.1468 7.51497 17.6375 7.39615 16.8925 7.36274C16.1456 7.32878 15.9069 7.32031 14.0048 7.32031C12.1026 7.32031 11.8637 7.32822 11.1165 7.36274Z" fill="#252C32"/>
</svg>
