<svg width="15" height="15" viewBox="0 0 15 15" fill="none" xmlns="http://www.w3.org/2000/svg">
<path d="M5.16984 7.599C5.16984 6.30923 6.21481 5.2634 7.5042 5.2634C8.79359 5.2634 9.83912 6.30923 9.83912 7.599C9.83912 8.88876 8.79359 9.93459 7.5042 9.93459C6.21481 9.93459 5.16984 8.88876 5.16984 7.599ZM3.90763 7.599C3.90763 9.58596 5.51781 11.1966 7.5042 11.1966C9.49059 11.1966 11.1008 9.58596 11.1008 7.599C11.1008 5.61203 9.49059 4.00138 7.5042 4.00138C5.51781 4.00138 3.90763 5.61203 3.90763 7.599ZM10.4026 3.85874C10.4026 4.02502 10.4518 4.18759 10.5441 4.32589C10.6364 4.46419 10.7676 4.572 10.9212 4.63569C11.0748 4.69939 11.2437 4.71611 11.4068 4.68373C11.5699 4.65136 11.7196 4.57134 11.8372 4.45381C11.9548 4.33628 12.0349 4.1865 12.0674 4.02343C12.0999 3.86035 12.0834 3.6913 12.0198 3.53764C11.9563 3.38399 11.8486 3.25264 11.7104 3.16021C11.5722 3.06777 11.4097 3.01839 11.2435 3.01833H11.2432C11.0203 3.01843 10.8067 3.107 10.6491 3.26457C10.4915 3.42215 10.4028 3.63585 10.4026 3.85874ZM4.6745 13.3019C3.99162 13.2708 3.62046 13.157 3.3738 13.0609C3.04678 12.9335 2.81346 12.7819 2.56814 12.5368C2.32283 12.2918 2.17098 12.0586 2.04423 11.7315C1.94808 11.4849 1.83433 11.1135 1.80329 10.4304C1.76933 9.69189 1.76255 9.47005 1.76255 7.59905C1.76255 5.72805 1.76989 5.50683 1.80329 4.7677C1.83438 4.08462 1.94897 3.71396 2.04423 3.46661C2.17154 3.13951 2.32317 2.90612 2.56814 2.66073C2.81312 2.41534 3.04622 2.26345 3.3738 2.13666C3.62034 2.04048 3.99162 1.9267 4.6745 1.89565C5.4128 1.86168 5.63458 1.8549 7.5042 1.8549C9.37382 1.8549 9.59582 1.86224 10.3347 1.89565C11.0176 1.92676 11.3882 2.04138 11.6354 2.13666C11.9625 2.26345 12.1958 2.41568 12.4411 2.66073C12.6864 2.90578 12.8377 3.13951 12.965 3.46661C13.0612 3.71323 13.1749 4.08462 13.206 4.7677C13.2399 5.50683 13.2467 5.72805 13.2467 7.59905C13.2467 9.47005 13.2399 9.69128 13.206 10.4304C13.1749 11.1135 13.0605 11.4848 12.965 11.7315C12.8377 12.0586 12.6861 12.292 12.4411 12.5368C12.1961 12.7816 11.9625 12.9335 11.6354 13.0609C11.3889 13.1571 11.0176 13.2708 10.3347 13.3019C9.59644 13.3359 9.37466 13.3426 7.5042 13.3426C5.63374 13.3426 5.41258 13.3359 4.6745 13.3019ZM4.61651 0.635203C3.87087 0.669169 3.36136 0.787434 2.91639 0.960628C2.45557 1.13948 2.06547 1.37943 1.67564 1.76875C1.28582 2.15808 1.04655 2.54891 0.867748 3.00986C0.694605 3.45524 0.576374 3.96462 0.542417 4.71047C0.507901 5.4575 0.5 5.69633 0.5 7.599C0.5 9.50166 0.507901 9.74049 0.542417 10.4875C0.576374 11.2334 0.694605 11.7428 0.867748 12.1881C1.04655 12.6488 1.28587 13.0401 1.67564 13.4292C2.06541 13.8184 2.45557 14.058 2.91639 14.2374C3.3622 14.4106 3.87087 14.5288 4.61651 14.5628C5.36372 14.5968 5.60208 14.6052 7.5042 14.6052C9.40632 14.6052 9.64508 14.5973 10.3919 14.5628C11.1376 14.5288 11.6468 14.4106 12.092 14.2374C12.5525 14.058 12.9429 13.8186 13.3328 13.4292C13.7226 13.0399 13.9613 12.6488 14.1407 12.1881C14.3138 11.7428 14.4326 11.2334 14.466 10.4875C14.4999 9.73993 14.5078 9.50166 14.5078 7.599C14.5078 5.69633 14.4999 5.4575 14.466 4.71047C14.432 3.96456 14.3138 3.45496 14.1407 3.00986C13.9613 2.54919 13.722 2.15869 13.3328 1.76875C12.9435 1.37882 12.5525 1.13948 12.0926 0.960628C11.6468 0.787434 11.1375 0.668609 10.3925 0.635203C9.64564 0.601237 9.40688 0.592773 7.50476 0.592773C5.60264 0.592773 5.36372 0.600676 4.61651 0.635203Z" fill="#FFD400"/>
</svg>
