<svg width="29" height="28" viewBox="0 0 29 28" fill="none" xmlns="http://www.w3.org/2000/svg">
<path d="M12.1698 14.0359C12.1698 12.7461 13.2148 11.7003 14.5042 11.7003C15.7936 11.7003 16.8391 12.7461 16.8391 14.0359C16.8391 15.3256 15.7936 16.3715 14.5042 16.3715C13.2148 16.3715 12.1698 15.3256 12.1698 14.0359ZM10.9076 14.0359C10.9076 16.0228 12.5178 17.6335 14.5042 17.6335C16.4906 17.6335 18.1008 16.0228 18.1008 14.0359C18.1008 12.0489 16.4906 10.4383 14.5042 10.4383C12.5178 10.4383 10.9076 12.0489 10.9076 14.0359ZM17.4026 10.2956C17.4026 10.4619 17.4518 10.6245 17.5441 10.7628C17.6364 10.9011 17.7676 11.0089 17.9212 11.0726C18.0748 11.1363 18.2437 11.153 18.4068 11.1206C18.5699 11.0882 18.7196 11.0082 18.8372 10.8907C18.9548 10.7732 19.0349 10.6234 19.0674 10.4603C19.0999 10.2972 19.0834 10.1282 19.0198 9.97452C18.9563 9.82087 18.8486 9.68952 18.7104 9.59708C18.5722 9.50464 18.4097 9.45527 18.2435 9.4552H18.2432C18.0203 9.45531 17.8067 9.54387 17.6491 9.70145C17.4915 9.85902 17.4028 10.0727 17.4026 10.2956ZM11.6745 19.7388C10.9916 19.7077 10.6205 19.5939 10.3738 19.4978C10.0468 19.3704 9.81346 19.2187 9.56814 18.9737C9.32283 18.7286 9.17098 18.4955 9.04423 18.1684C8.94808 17.9217 8.83433 17.5504 8.80329 16.8673C8.76933 16.1288 8.76255 15.9069 8.76255 14.0359C8.76255 12.1649 8.76989 11.9437 8.80329 11.2046C8.83438 10.5215 8.94897 10.1508 9.04423 9.90349C9.17154 9.57638 9.32317 9.34299 9.56814 9.0976C9.81312 8.85222 10.0462 8.70032 10.3738 8.57354C10.6203 8.47736 10.9916 8.36358 11.6745 8.33252C12.4128 8.29856 12.6346 8.29178 14.5042 8.29178C16.3738 8.29178 16.5958 8.29912 17.3347 8.33252C18.0176 8.36363 18.3882 8.47825 18.6354 8.57354C18.9625 8.70032 19.1958 8.85255 19.4411 9.0976C19.6864 9.34265 19.8377 9.57638 19.965 9.90349C20.0612 10.1501 20.1749 10.5215 20.206 11.2046C20.2399 11.9437 20.2467 12.1649 20.2467 14.0359C20.2467 15.9069 20.2399 16.1282 20.206 16.8673C20.1749 17.5504 20.0605 17.9216 19.965 18.1684C19.8377 18.4955 19.6861 18.7289 19.4411 18.9737C19.1961 19.2185 18.9625 19.3704 18.6354 19.4978C18.3889 19.5939 18.0176 19.7077 17.3347 19.7388C16.5964 19.7727 16.3747 19.7795 14.5042 19.7795C12.6337 19.7795 12.4126 19.7727 11.6745 19.7388ZM11.6165 7.07208C10.8709 7.10604 10.3614 7.22431 9.91639 7.3975C9.45557 7.57636 9.06547 7.81631 8.67564 8.20563C8.28582 8.59495 8.04655 8.98579 7.86775 9.44674C7.6946 9.89211 7.57637 10.4015 7.54242 11.1473C7.5079 11.8944 7.5 12.1332 7.5 14.0359C7.5 15.9385 7.5079 16.1774 7.54242 16.9244C7.57637 17.6703 7.6946 18.1796 7.86775 18.625C8.04655 19.0857 8.28587 19.477 8.67564 19.8661C9.06541 20.2553 9.45557 20.4949 9.91639 20.6742C10.3622 20.8474 10.8709 20.9657 11.6165 20.9997C12.3637 21.0336 12.6021 21.0421 14.5042 21.0421C16.4063 21.0421 16.6451 21.0342 17.3919 20.9997C18.1376 20.9657 18.6468 20.8474 19.092 20.6742C19.5525 20.4949 19.9429 20.2554 20.3328 19.8661C20.7226 19.4768 20.9613 19.0857 21.1407 18.625C21.3138 18.1796 21.4326 17.6702 21.466 16.9244C21.4999 16.1768 21.5078 15.9385 21.5078 14.0359C21.5078 12.1332 21.4999 11.8944 21.466 11.1473C21.432 10.4014 21.3138 9.89183 21.1407 9.44674C20.9613 8.98607 20.722 8.59557 20.3328 8.20563C19.9435 7.81569 19.5525 7.57636 19.0926 7.3975C18.6468 7.22431 18.1375 7.10548 17.3925 7.07208C16.6456 7.03811 16.4069 7.02965 14.5048 7.02965C12.6026 7.02965 12.3637 7.03755 11.6165 7.07208Z" fill="#FFD400"/>
</svg>
