<svg width="28" height="29" viewBox="0 0 28 29" fill="none" xmlns="http://www.w3.org/2000/svg">
<path d="M14.0098 8.37475C15.966 8.37538 17.5954 9.93454 17.5978 11.8119C17.5984 12.2516 17.6125 12.6565 17.6385 13.0295C17.6544 13.2596 17.8544 13.4302 18.0836 13.4302C18.1174 13.4302 18.1518 13.4265 18.1863 13.4187L18.7992 13.2812C18.8252 13.2753 18.8514 13.2725 18.8773 13.2725C19.0329 13.2725 19.1762 13.3744 19.2112 13.5251C19.2606 13.7382 19.1359 13.9535 18.9202 14.0259L17.99 14.3854C17.7551 14.4762 17.629 14.7209 17.6951 14.955C18.4414 17.5964 20.5259 17.3217 20.5259 17.6658C20.5259 18.098 18.9547 18.159 18.8128 18.2949C18.6708 18.4308 18.8066 19.0905 18.4895 19.2182C18.4297 19.2422 18.3448 19.2506 18.2412 19.2506C18.0023 19.2506 17.6644 19.206 17.3083 19.206C16.9994 19.206 16.6768 19.2395 16.3932 19.365C15.6408 19.6977 14.9154 20.3193 14.0162 20.3193C13.117 20.3193 12.3916 19.6977 11.6392 19.365C11.3556 19.2395 11.033 19.206 10.7241 19.206C10.3681 19.206 10.0302 19.2506 9.7913 19.2506C9.68776 19.2506 9.60274 19.2422 9.54298 19.2182C9.22583 19.0905 9.36161 18.4308 9.21966 18.2949C9.07772 18.159 7.50655 18.0979 7.50655 17.6658C7.50655 17.3216 9.59104 17.5963 10.3373 14.9549C10.4035 14.7209 10.2773 14.4762 10.0425 14.3854L9.11223 14.0259C8.89653 13.9535 8.77183 13.7382 8.82125 13.5251C8.8562 13.3743 8.99951 13.2725 9.15515 13.2725C9.18098 13.2725 9.20718 13.2753 9.23326 13.2812L9.84608 13.4187C9.88062 13.4265 9.91501 13.4302 9.94878 13.4302C10.178 13.4302 10.378 13.2596 10.394 13.0295C10.4199 12.6565 10.4341 12.2516 10.4346 11.8119C10.437 9.93454 12.0535 8.37541 14.0098 8.37475ZM14.01 7.62988H14.0094C13.4255 7.63006 12.8567 7.74239 12.3189 7.96376C11.8026 8.17623 11.338 8.47918 10.9379 8.86422C10.5383 9.24875 10.2239 9.69517 10.0033 10.1911C9.77391 10.7067 9.65726 11.2517 9.65655 11.811C9.6562 12.0855 9.65026 12.352 9.63881 12.6071L9.41081 12.5559C9.32716 12.5372 9.24114 12.5276 9.15521 12.5276C8.90708 12.5276 8.66231 12.6079 8.466 12.7537C8.26118 12.9058 8.11756 13.1225 8.06163 13.3637C7.92853 13.938 8.25972 14.5177 8.83366 14.7215L9.51638 14.9854C9.06431 16.3138 8.23072 16.5684 7.66938 16.7398C7.52043 16.7853 7.39178 16.8246 7.26928 16.8828C6.7812 17.1147 6.72852 17.5076 6.72852 17.6658C6.72852 17.9687 6.87827 18.2451 7.15024 18.4441C7.28565 18.5432 7.4534 18.625 7.66303 18.6941C7.94876 18.7883 8.27998 18.848 8.54918 18.896C8.56219 18.9914 8.58127 19.094 8.61342 19.1974C8.7469 19.6268 9.02858 19.8191 9.24139 19.9047C9.4433 19.986 9.65194 19.9954 9.7913 19.9954C9.92761 19.9954 10.0717 19.9852 10.2243 19.9744C10.3879 19.9628 10.5572 19.9508 10.7241 19.9508C10.9829 19.9508 11.1755 19.9803 11.313 20.0411C11.5017 20.1246 11.7019 20.2372 11.9138 20.3563C12.5038 20.6881 13.1725 21.0641 14.0162 21.0641C14.8599 21.0641 15.5286 20.6881 16.1186 20.3563C16.3305 20.2371 16.5307 20.1246 16.7195 20.0411C16.857 19.9803 17.0496 19.9508 17.3083 19.9508C17.4753 19.9508 17.6445 19.9628 17.8082 19.9744C17.9607 19.9852 18.1048 19.9954 18.2411 19.9954C18.3805 19.9954 18.5891 19.986 18.791 19.9047C19.0038 19.8191 19.2855 19.6268 19.419 19.1974C19.4512 19.094 19.4703 18.9914 19.4832 18.896C19.7524 18.848 20.0837 18.7883 20.3694 18.6941C20.5791 18.625 20.7468 18.5432 20.8822 18.4441C21.1541 18.2451 21.3039 17.9687 21.3039 17.6658C21.3039 17.5076 21.2512 17.1147 20.7631 16.8828C20.6406 16.8246 20.5119 16.7853 20.363 16.7399C19.8016 16.5684 18.9681 16.3138 18.516 14.9854L19.1987 14.7216C19.7726 14.5177 20.1038 13.938 19.9707 13.3637C19.9148 13.1225 19.7712 12.9058 19.5664 12.7537C19.37 12.6079 19.1253 12.5276 18.8773 12.5276C18.7913 12.5276 18.7053 12.5371 18.6216 12.5559L18.3936 12.6071C18.3821 12.352 18.3762 12.0855 18.3758 11.8109C18.3751 11.2513 18.2576 10.7057 18.0264 10.1894C17.8044 9.69371 17.4883 9.24741 17.0867 8.86285C16.6851 8.47832 16.2192 8.17569 15.7018 7.96341C15.163 7.7423 14.5937 7.63009 14.01 7.62988Z" fill="#252C32"/>
</svg>
