<svg width="29" height="29" viewBox="0 0 29 29" fill="none" xmlns="http://www.w3.org/2000/svg">
<path d="M14.5098 8.64721C16.466 8.64784 18.0954 10.207 18.0978 12.0843C18.0984 12.5241 18.1125 12.929 18.1385 13.302C18.1544 13.5321 18.3544 13.7026 18.5836 13.7026C18.6174 13.7026 18.6518 13.699 18.6863 13.6912L19.2992 13.5537C19.3252 13.5478 19.3514 13.545 19.3773 13.545C19.5329 13.545 19.6762 13.6468 19.7112 13.7976C19.7606 14.0107 19.6359 14.226 19.4202 14.2984L18.49 14.6579C18.2551 14.7487 18.129 14.9934 18.1951 15.2274C18.9414 17.8689 21.0259 17.5941 21.0259 17.9383C21.0259 18.3704 19.4547 18.4314 19.3128 18.5674C19.1708 18.7033 19.3066 19.3629 18.9895 19.4906C18.9297 19.5147 18.8448 19.5231 18.7412 19.5231C18.5023 19.5231 18.1644 19.4784 17.8083 19.4784C17.4994 19.4784 17.1768 19.512 16.8932 19.6374C16.1408 19.9702 15.4154 20.5917 14.5162 20.5917C13.617 20.5917 12.8916 19.9702 12.1392 19.6374C11.8556 19.512 11.533 19.4784 11.2241 19.4784C10.8681 19.4784 10.5302 19.5231 10.2913 19.5231C10.1878 19.5231 10.1027 19.5147 10.043 19.4906C9.72583 19.3629 9.86161 18.7033 9.71966 18.5674C9.57772 18.4314 8.00655 18.3704 8.00655 17.9382C8.00655 17.5941 10.091 17.8688 10.8373 15.2274C10.9035 14.9934 10.7773 14.7487 10.5425 14.6579L9.61223 14.2984C9.39653 14.226 9.27183 14.0107 9.32125 13.7976C9.3562 13.6468 9.49951 13.5449 9.65515 13.545C9.68098 13.545 9.70718 13.5478 9.73326 13.5536L10.3461 13.6912C10.3806 13.6989 10.415 13.7026 10.4488 13.7026C10.678 13.7026 10.878 13.532 10.894 13.3019C10.9199 12.9289 10.9341 12.524 10.9346 12.0843C10.937 10.207 12.5535 8.64787 14.5098 8.64721ZM14.51 7.90234H14.5094C13.9255 7.90252 13.3567 8.01485 12.8189 8.23622C12.3026 8.44869 11.838 8.75164 11.4379 9.13668C11.0383 9.52121 10.7239 9.96763 10.5033 10.4635C10.2739 10.9792 10.1573 11.5242 10.1565 12.0834C10.1562 12.358 10.1503 12.6244 10.1388 12.8796L9.91081 12.8284C9.82716 12.8096 9.74114 12.8001 9.65521 12.8001C9.40708 12.8 9.16231 12.8803 8.966 13.0262C8.76118 13.1783 8.61756 13.3949 8.56163 13.6362C8.42853 14.2104 8.75972 14.7901 9.33366 14.994L10.0164 15.2578C9.56431 16.5862 8.73072 16.8408 8.16938 17.0123C8.02043 17.0578 7.89178 17.0971 7.76928 17.1553C7.2812 17.3872 7.22852 17.7801 7.22852 17.9382C7.22852 18.2412 7.37827 18.5176 7.65024 18.7166C7.78565 18.8157 7.9534 18.8975 8.16303 18.9666C8.44876 19.0607 8.77998 19.1205 9.04918 19.1684C9.06219 19.2639 9.08127 19.3665 9.11342 19.4699C9.2469 19.8993 9.52858 20.0915 9.74139 20.1772C9.9433 20.2585 10.1519 20.2679 10.2913 20.2679C10.4276 20.2679 10.5717 20.2577 10.7243 20.2468C10.8879 20.2352 11.0572 20.2232 11.2241 20.2232C11.4829 20.2232 11.6755 20.2528 11.813 20.3136C12.0017 20.3971 12.2019 20.5096 12.4138 20.6288C13.0038 20.9605 13.6725 21.3365 14.5162 21.3365C15.3599 21.3365 16.0286 20.9605 16.6186 20.6288C16.8305 20.5096 17.0307 20.3971 17.2195 20.3136C17.357 20.2528 17.5496 20.2232 17.8083 20.2232C17.9753 20.2232 18.1445 20.2352 18.3082 20.2468C18.4607 20.2577 18.6048 20.2679 18.7411 20.2679C18.8805 20.2679 19.0891 20.2585 19.291 20.1772C19.5038 20.0915 19.7855 19.8993 19.919 19.4699C19.9512 19.3665 19.9703 19.2639 19.9832 19.1684C20.2524 19.1205 20.5837 19.0607 20.8694 18.9666C21.0791 18.8975 21.2468 18.8157 21.3822 18.7166C21.6541 18.5176 21.8039 18.2412 21.8039 17.9382C21.8039 17.7801 21.7512 17.3872 21.2631 17.1553C21.1406 17.0971 21.0119 17.0578 20.863 17.0123C20.3016 16.8409 19.4681 16.5863 19.016 15.2578L19.6987 14.994C20.2726 14.7902 20.6038 14.2104 20.4707 13.6362C20.4148 13.3949 20.2712 13.1783 20.0664 13.0262C19.87 12.8804 19.6253 12.8001 19.3773 12.8001C19.2913 12.8001 19.2053 12.8096 19.1216 12.8284L18.8936 12.8796C18.8821 12.6244 18.8762 12.358 18.8758 12.0834C18.8751 11.5237 18.7576 10.9782 18.5264 10.4618C18.3044 9.96617 17.9883 9.51987 17.5867 9.13531C17.1851 8.75078 16.7192 8.44815 16.2018 8.23587C15.663 8.01476 15.0937 7.90255 14.51 7.90234Z" fill="#FFD400"/>
</svg>
