<svg width="39" height="39" viewBox="0 0 39 39" fill="none" xmlns="http://www.w3.org/2000/svg">
<path d="M34.3018 27.5449C28.9077 24.933 28.048 20.9001 28.0097 20.601C27.9634 20.2387 27.9109 19.9538 28.3105 19.5852C28.6959 19.2291 30.4055 18.1706 30.8799 17.8395C31.6639 17.2911 32.0093 16.7436 31.7547 16.0706C31.5767 15.605 31.1433 15.4296 30.6867 15.4296C30.5427 15.43 30.3992 15.4461 30.2587 15.4777C29.3972 15.6646 28.5606 16.0964 28.0764 16.213C28.0183 16.228 27.9585 16.2361 27.8984 16.237C27.6403 16.237 27.5424 16.1222 27.5674 15.8115C27.6279 14.8696 27.756 13.0313 27.6074 11.314C27.4036 8.95126 26.6418 7.78058 25.7385 6.74523C25.3015 6.24313 23.2723 4.08606 19.3564 4.08606C15.4405 4.08606 13.414 6.24313 12.9797 6.739C12.0737 7.77435 11.3128 8.94503 11.1108 11.3077C10.9621 13.025 11.0956 14.8625 11.1508 15.8053C11.1686 16.1008 11.0778 16.2308 10.8197 16.2308C10.7597 16.2298 10.6999 16.2217 10.6417 16.2068C10.1585 16.0901 9.32189 15.6584 8.46039 15.4714C8.31986 15.4399 8.17632 15.4238 8.03231 15.4233C7.57397 15.4233 7.14233 15.6014 6.96433 16.0643C6.7098 16.7373 7.05333 17.2848 7.84007 17.8332C8.31443 18.1644 10.0241 19.222 10.4094 19.579C10.8082 19.9476 10.7565 20.2325 10.7103 20.5948C10.672 20.8984 9.81138 24.9312 4.4181 27.5387C4.10216 27.6918 3.56461 28.0159 4.51244 28.5393C6.00049 29.3619 6.99103 29.2738 7.76087 29.7697C8.41411 30.1907 8.02786 31.0988 8.50311 31.4264C9.08694 31.8297 10.8126 31.3979 13.042 32.1341C14.911 32.7502 16.0466 34.4906 19.3609 34.4906C22.6751 34.4906 23.8437 32.7422 25.6797 32.1341C27.9047 31.3979 29.6339 31.8297 30.2186 31.4264C30.693 31.0988 30.3076 30.1907 30.9609 29.7697C31.7307 29.2738 32.7204 29.3619 34.2093 28.5393C35.1553 28.0221 34.6178 27.6981 34.3018 27.5449Z" fill="white"/>
<path d="M36.6487 27.2384C36.4067 26.5796 35.9457 26.2271 35.4206 25.9351C35.3218 25.8772 35.231 25.8309 35.1536 25.7953C34.9969 25.7143 34.8367 25.6359 34.6774 25.5532C33.0408 24.6852 31.7628 23.5902 30.8763 22.2922C30.6246 21.9268 30.4063 21.5394 30.224 21.1349C30.1483 20.9185 30.1519 20.7957 30.2062 20.6835C30.26 20.5971 30.3312 20.5228 30.4153 20.4654C30.6966 20.2793 30.9867 20.0906 31.1834 19.9633C31.534 19.7363 31.8117 19.5565 31.9906 19.4292C32.6625 18.9591 33.1324 18.4597 33.4261 17.9015C33.631 17.5158 33.7505 17.0906 33.7765 16.6546C33.8024 16.2187 33.7342 15.7822 33.5765 15.375C33.1315 14.2034 32.0253 13.4761 30.685 13.4761C30.4023 13.4758 30.1203 13.5057 29.844 13.5651C29.7701 13.5811 29.6962 13.598 29.6241 13.6167C29.6366 12.8155 29.6188 11.9698 29.5476 11.1374C29.2948 8.21116 28.2705 6.67727 27.2025 5.45407C26.5186 4.68756 25.713 4.03908 24.8182 3.5347C23.1976 2.60884 21.3598 2.13879 19.3564 2.13879C17.3531 2.13879 15.5242 2.60884 13.9017 3.5347C13.0047 4.03923 12.1976 4.68901 11.513 5.45763C10.4451 6.68083 9.4207 8.21739 9.16794 11.141C9.09675 11.9733 9.07894 12.8235 9.09051 13.6203C9.01843 13.6016 8.94545 13.5847 8.87158 13.5687C8.59519 13.5092 8.31326 13.4794 8.03055 13.4796C6.68935 13.4796 5.58132 14.207 5.13811 15.3785C4.97969 15.786 4.91081 16.2227 4.93615 16.6591C4.96149 17.0955 5.08045 17.5214 5.28496 17.9077C5.57954 18.4659 6.04945 18.9653 6.72139 19.4354C6.89938 19.56 7.17795 19.7398 7.5286 19.9695C7.71817 20.0924 7.99495 20.2722 8.26639 20.452C8.36136 20.5135 8.44209 20.5945 8.50313 20.6897C8.56009 20.8064 8.56187 20.9319 8.47732 21.1633C8.29749 21.5594 8.08275 21.9387 7.83564 22.2966C6.9688 23.5652 5.72817 24.6407 4.14401 25.5015C3.30476 25.9466 2.43257 26.244 2.06412 27.2455C1.78645 28.0013 1.96801 28.8613 2.67376 29.586C2.93278 29.8564 3.2332 30.0839 3.56374 30.2599C4.25151 30.638 4.98284 30.9306 5.74152 31.1314C5.89808 31.1718 6.04672 31.2383 6.18117 31.3282C6.43837 31.5534 6.40189 31.8926 6.74453 32.3894C6.91653 32.6461 7.13508 32.8683 7.38887 33.0446C8.10798 33.5413 8.91608 33.5725 9.77224 33.6054C10.5456 33.6348 11.4223 33.6686 12.4235 33.9989C12.8382 34.136 13.269 34.4013 13.7682 34.7111C14.9671 35.4482 16.6082 36.4569 19.3547 36.4569C22.1011 36.4569 23.7538 35.4429 24.9615 34.7031C25.4572 34.3986 25.8853 34.136 26.2885 34.0025C27.2897 33.6713 28.1663 33.6384 28.9397 33.609C29.7959 33.576 30.604 33.5449 31.3231 33.0481C31.6237 32.8385 31.8741 32.5649 32.0564 32.2469C32.303 31.8276 32.2967 31.5347 32.5281 31.33C32.6543 31.2444 32.7939 31.1806 32.9411 31.1412C33.7101 30.9398 34.4514 30.6444 35.1482 30.2617C35.4994 30.0732 35.8155 29.8257 36.0827 29.5299L36.0916 29.5192C36.7538 28.8106 36.9202 27.9755 36.6487 27.2384ZM34.2075 28.5506C32.7186 29.3732 31.7289 29.2851 30.9591 29.7809C30.305 30.202 30.6921 31.1101 30.2169 31.4377C29.633 31.841 27.9074 31.4092 25.678 32.1454C23.8393 32.7535 22.6663 34.5019 19.3591 34.5019C16.0519 34.5019 14.9065 32.757 13.0376 32.141C10.8126 31.4047 9.0834 31.8365 8.49868 31.4332C8.02432 31.1056 8.40968 30.1976 7.75643 29.7765C6.98571 29.2806 5.99605 29.3687 4.50801 28.5506C3.56018 28.0271 4.09773 27.7031 4.41367 27.55C9.80695 24.938 10.6676 20.9052 10.7058 20.6061C10.7521 20.2437 10.8037 19.9588 10.405 19.5903C10.0197 19.2342 8.31 18.1757 7.83564 17.8445C7.05068 17.2961 6.70537 16.7486 6.9599 16.0756C7.1379 15.61 7.57221 15.4346 8.02788 15.4346C8.17189 15.4351 8.31543 15.4512 8.45596 15.4827C9.31746 15.6696 10.154 16.1014 10.6373 16.218C10.6955 16.233 10.7552 16.241 10.8153 16.2421C11.0734 16.2421 11.1642 16.1121 11.1464 15.8165C11.0912 14.8738 10.9577 13.0363 11.1063 11.319C11.3101 8.9563 12.0711 7.78562 12.9753 6.75027C13.4096 6.25262 15.4503 4.09555 19.3529 4.09555C23.2554 4.09555 25.3015 6.24372 25.7358 6.73959C26.6409 7.77494 27.4027 8.94562 27.6048 11.3083C27.7534 13.0256 27.6252 14.864 27.5647 15.8058C27.5443 16.1165 27.6377 16.2314 27.8958 16.2314C27.9559 16.2304 28.0156 16.2224 28.0738 16.2074C28.5579 16.0907 29.3945 15.659 30.256 15.472C30.3965 15.4405 30.5401 15.4244 30.6841 15.4239C31.1424 15.4239 31.5741 15.602 31.7521 16.0649C32.0066 16.7379 31.6631 17.2854 30.8772 17.8338C30.4029 18.165 28.6932 19.2226 28.3079 19.5796C27.9082 19.9482 27.9608 20.233 28.007 20.5954C28.0453 20.8989 28.905 24.9318 34.2992 27.5393C34.6178 27.6986 35.1554 28.0227 34.2075 28.5506Z" fill="#111928"/>
</svg>
