<svg width="28" height="29" viewBox="0 0 28 29" fill="none" xmlns="http://www.w3.org/2000/svg">
<path d="M18.3934 10.2674C18.3005 10.2194 18.2101 10.1668 18.1224 10.1097C17.8677 9.94127 17.634 9.74279 17.4266 9.51856C16.9077 8.92482 16.7139 8.32248 16.6425 7.90076H16.6454C16.5858 7.55071 16.6104 7.32422 16.6142 7.32422H14.2507V16.4634C14.2507 16.5861 14.2507 16.7073 14.2455 16.8272C14.2455 16.8421 14.2441 16.8559 14.2432 16.8719C14.2432 16.8785 14.2432 16.8854 14.2418 16.8923C14.2418 16.894 14.2418 16.8957 14.2418 16.8974C14.2169 17.2253 14.1118 17.5421 13.9357 17.8199C13.7596 18.0976 13.518 18.3278 13.2321 18.4903C12.9341 18.6598 12.597 18.7488 12.2542 18.7483C11.153 18.7483 10.2605 17.8504 10.2605 16.7415C10.2605 15.6325 11.153 14.7346 12.2542 14.7346C12.4626 14.7344 12.6698 14.7672 12.868 14.8318L12.8708 12.4253C12.2692 12.3476 11.6579 12.3954 11.0757 12.5658C10.4934 12.7361 9.95278 13.0252 9.48787 13.415C9.0805 13.7689 8.73802 14.1913 8.47585 14.663C8.37608 14.835 7.99965 15.5262 7.95407 16.648C7.9254 17.2847 8.11662 17.9444 8.20779 18.2171V18.2228C8.26513 18.3833 8.48732 18.9312 8.84941 19.3931C9.14139 19.7636 9.48635 20.089 9.87318 20.3589V20.3532L9.87892 20.3589C11.0231 21.1364 12.2917 21.0854 12.2917 21.0854C12.5113 21.0765 13.247 21.0854 14.0824 20.6895C15.009 20.2506 15.5365 19.5966 15.5365 19.5966C15.8735 19.2059 16.1415 18.7606 16.3289 18.2799C16.5428 17.7177 16.6142 17.0434 16.6142 16.7739V11.9253C16.6428 11.9425 17.0247 12.1951 17.0247 12.1951C17.0247 12.1951 17.5749 12.5477 18.4332 12.7774C19.049 12.9408 19.8787 12.9752 19.8787 12.9752V10.6289C19.588 10.6604 18.9977 10.5687 18.3934 10.2674Z" fill="#232323"/>
</svg>
