<svg width="29" height="28" viewBox="0 0 29 28" fill="none" xmlns="http://www.w3.org/2000/svg">
<path d="M18.8931 9.97672C18.8002 9.92871 18.7098 9.87608 18.6222 9.81903C18.3674 9.65059 18.1338 9.45211 17.9264 9.22788C17.4075 8.63414 17.2137 8.0318 17.1423 7.61008H17.1452C17.0855 7.26003 17.1102 7.03354 17.1139 7.03354H14.7504V16.1727C14.7504 16.2954 14.7504 16.4167 14.7453 16.5365C14.7453 16.5514 14.7438 16.5652 14.743 16.5812C14.743 16.5878 14.743 16.5947 14.7415 16.6016C14.7415 16.6033 14.7415 16.605 14.7415 16.6067C14.7166 16.9347 14.6115 17.2514 14.4354 17.5292C14.2594 17.8069 14.0178 18.0372 13.7318 18.1996C13.4338 18.3691 13.0968 18.4581 12.7539 18.4576C11.6527 18.4576 10.7603 17.5597 10.7603 16.4508C10.7603 15.3419 11.6527 14.4439 12.7539 14.4439C12.9624 14.4438 13.1695 14.4766 13.3677 14.5411L13.3706 12.1346C12.7689 12.0569 12.1577 12.1047 11.5754 12.2751C10.9932 12.4454 10.4525 12.7346 9.98763 13.1243C9.58026 13.4783 9.23778 13.9006 8.97561 14.3723C8.87584 14.5443 8.49941 15.2355 8.45383 16.3573C8.42516 16.9941 8.61638 17.6537 8.70755 17.9264V17.9321C8.76489 18.0927 8.98707 18.6405 9.34916 19.1024C9.64114 19.4729 9.9861 19.7983 10.3729 20.0683V20.0625L10.3787 20.0683C11.5229 20.8458 12.7915 20.7947 12.7915 20.7947C13.0111 20.7858 13.7467 20.7947 14.5821 20.3988C15.5087 19.9599 16.0362 19.3059 16.0362 19.3059C16.3732 18.9152 16.6412 18.4699 16.8287 17.9892C17.0425 17.427 17.1139 16.7527 17.1139 16.4832V11.6347C17.1426 11.6519 17.5245 11.9044 17.5245 11.9044C17.5245 11.9044 18.0746 12.2571 18.933 12.4867C19.5488 12.6501 20.3785 12.6845 20.3785 12.6845V10.3382C20.0878 10.3698 19.4975 10.278 18.8931 9.97672Z" fill="#FFD400"/>
</svg>
