<svg width="13" height="15" viewBox="0 0 13 15" fill="none" xmlns="http://www.w3.org/2000/svg">
<path d="M10.8934 3.53986C10.8005 3.49185 10.7101 3.43922 10.6224 3.38218C10.3677 3.21373 10.134 3.01525 9.92665 2.79102C9.40773 2.19728 9.21393 1.59494 9.14255 1.17322H9.14541C9.08578 0.823166 9.11044 0.59668 9.11416 0.59668H6.75068V9.73584C6.75068 9.85854 6.75068 9.97981 6.74552 10.0996C6.74552 10.1146 6.74408 10.1283 6.74322 10.1444C6.74322 10.151 6.74322 10.1578 6.74179 10.1647C6.74179 10.1664 6.74179 10.1682 6.74179 10.1699C6.71688 10.4978 6.61176 10.8146 6.43569 11.0923C6.25962 11.3701 6.01799 11.6003 5.73206 11.7627C5.43406 11.9323 5.09701 12.0212 4.75416 12.0208C3.65298 12.0208 2.7605 11.1228 2.7605 10.0139C2.7605 8.905 3.65298 8.00708 4.75416 8.00708C4.96261 8.00689 5.16977 8.03969 5.36796 8.10427L5.37083 5.69778C4.76917 5.62007 4.15793 5.66788 3.57568 5.83822C2.99342 6.00855 2.45278 6.29771 1.98787 6.68744C1.5805 7.04139 1.23802 7.46372 0.97585 7.93541C0.876081 8.10743 0.499655 8.79864 0.454071 9.92046C0.425402 10.5572 0.616625 11.2169 0.707793 11.4895V11.4953C0.765131 11.6558 0.987317 12.2037 1.34941 12.6655C1.64139 13.036 1.98635 13.3615 2.37318 13.6314V13.6257L2.37892 13.6314C3.5231 14.4089 4.79171 14.3579 4.79171 14.3579C5.01132 14.349 5.74697 14.3579 6.58239 13.962C7.50898 13.523 8.03649 12.8691 8.03649 12.8691C8.37349 12.4783 8.64146 12.0331 8.82891 11.5523C9.04278 10.9901 9.11416 10.3158 9.11416 10.0463V5.19779C9.14283 5.21499 9.52471 5.46757 9.52471 5.46757C9.52471 5.46757 10.0749 5.8202 10.9332 6.04984C11.549 6.21326 12.3787 6.24766 12.3787 6.24766V3.90137C12.088 3.93291 11.4977 3.84117 10.8934 3.53986Z" fill="#FFD400"/>
</svg>
