<svg width="24" height="24" viewBox="0 0 24 24" fill="none" xmlns="http://www.w3.org/2000/svg">
<path d="M19.0282 4.90436C17.1494 3.03256 14.65 2.00107 11.9899 2C9.33582 2 6.83246 3.03058 4.94128 4.90192C3.04675 6.77646 2.00244 9.26761 2 11.9074V11.9104V11.9123C2.00031 13.51 2.42007 15.1218 3.21689 16.593L2.02731 22L7.49652 20.756C8.88171 21.454 10.4273 21.8221 11.9861 21.8227H11.9901C14.6437 21.8227 17.1471 20.792 19.0386 18.9205C20.9348 17.0444 21.9796 14.5565 21.9808 11.915C21.9815 9.29218 20.9331 6.8024 19.0282 4.90436ZM11.9899 20.2617H11.9864C10.5867 20.2611 9.19986 19.9097 7.97595 19.2452L7.71732 19.1048L4.08054 19.932L4.87048 16.3419L4.7182 16.0793C3.96106 14.7736 3.56097 13.3322 3.56097 11.9106C3.56387 7.30899 7.3447 3.56097 11.9896 3.56097C14.2336 3.56189 16.342 4.43179 17.9265 6.01016C19.5349 7.61295 20.4204 9.70981 20.4196 11.9146C20.4178 16.5172 16.6362 20.2617 11.9899 20.2617Z" fill="black"/>
<path d="M9.27139 7.54199H8.83347C8.68103 7.54199 8.43353 7.59906 8.22418 7.82687C8.01468 8.05484 7.42432 8.60584 7.42432 9.72644C7.42432 10.847 8.24326 11.9298 8.35739 12.0819C8.47168 12.2339 9.9382 14.607 12.2609 15.5199C14.1913 16.2786 14.5842 16.1277 15.0031 16.0897C15.4221 16.0518 16.3551 15.5388 16.5456 15.0071C16.736 14.4753 16.736 14.0193 16.6789 13.9241C16.6217 13.8292 16.4693 13.7723 16.2408 13.6585C16.0123 13.5445 14.8923 12.9842 14.6828 12.9081C14.4733 12.8322 14.321 12.7942 14.1685 13.0223C14.0161 13.25 13.5674 13.7767 13.434 13.9287C13.3008 14.0808 13.1674 14.0999 12.9388 13.9859C12.7103 13.8716 11.9818 13.6269 11.1089 12.8511C10.4294 12.2473 9.95789 11.4774 9.82452 11.2494C9.69131 11.0216 9.81033 10.8983 9.92493 10.7846C10.0276 10.6827 10.1663 10.5432 10.2806 10.4103C10.3947 10.2773 10.4272 10.1824 10.5035 10.0304C10.5797 9.87842 10.5415 9.74536 10.4845 9.63153C10.4272 9.51755 9.98871 8.3913 9.78546 7.94086H9.78561C9.61441 7.56152 9.4342 7.54871 9.27139 7.54199Z" fill="black"/>
</svg>
