<svg width="28" height="29" viewBox="0 0 28 29" fill="none" xmlns="http://www.w3.org/2000/svg">
<path d="M7 20.7722L8.00447 17.0374C7.19439 15.5824 6.93702 13.8847 7.27959 12.2556C7.62215 10.6265 8.54168 9.17544 9.86942 8.16859C11.1972 7.16174 12.8441 6.66667 14.5079 6.77423C16.1718 6.88179 17.741 7.58477 18.9276 8.75417C20.1142 9.92356 20.8386 11.4809 20.9678 13.1405C21.0971 14.8001 20.6226 16.4505 19.6313 17.789C18.64 19.1275 17.1986 20.0642 15.5713 20.4272C13.9441 20.7903 12.2404 20.5553 10.7727 19.7655L7 20.7722ZM10.9546 18.3679L11.1879 18.506C12.251 19.1351 13.4927 19.3954 14.7194 19.2464C15.9461 19.0974 17.0891 18.5475 17.9701 17.6823C18.851 16.8171 19.4206 15.6853 19.59 14.4632C19.7594 13.2411 19.5191 11.9974 18.9065 10.9259C18.294 9.85434 17.3436 9.01522 16.2035 8.53925C15.0633 8.06329 13.7975 7.97721 12.6033 8.29444C11.409 8.61167 10.3535 9.31439 9.60103 10.2931C8.8486 11.2718 8.44159 12.4715 8.44343 13.7052C8.44243 14.7282 8.72581 15.7314 9.26203 16.6031L9.40835 16.8439L8.8468 18.9285L10.9546 18.3679Z" fill="#232323"/>
<path fill-rule="evenodd" clip-rule="evenodd" d="M16.6183 14.665C16.4815 14.5549 16.3213 14.4774 16.15 14.4384C15.9787 14.3994 15.8007 14.3999 15.6296 14.44C15.3726 14.5466 15.2065 14.9493 15.0404 15.1506C15.0053 15.1989 14.9539 15.2327 14.8956 15.2458C14.8374 15.2589 14.7764 15.2503 14.724 15.2217C13.7829 14.8537 12.9941 14.1789 12.4857 13.3069C12.4423 13.2525 12.4218 13.1834 12.4284 13.1142C12.4351 13.0449 12.4684 12.981 12.5213 12.9358C12.7065 12.7527 12.8426 12.5259 12.9168 12.2764C12.9332 12.0013 12.8701 11.7272 12.7348 11.4868C12.6303 11.1499 12.4313 10.8499 12.1614 10.6222C12.0222 10.5597 11.8679 10.5388 11.717 10.5619C11.5661 10.585 11.4252 10.6512 11.3112 10.7525C11.1132 10.923 10.9561 11.1356 10.8514 11.3748C10.7467 11.6139 10.6971 11.8735 10.7061 12.1343C10.7067 12.2808 10.7253 12.4266 10.7615 12.5686C10.8533 12.9097 10.9945 13.2355 11.1807 13.5359C11.315 13.7659 11.4615 13.9887 11.6196 14.2031C12.1336 14.9074 12.7796 15.5054 13.5218 15.9639C13.8943 16.1969 14.2923 16.3863 14.7082 16.5285C15.1402 16.724 15.6171 16.799 16.0883 16.7456C16.3568 16.7051 16.6112 16.5992 16.8292 16.4374C17.0471 16.2757 17.2218 16.0629 17.338 15.8178C17.4063 15.6698 17.427 15.5043 17.3973 15.3441C17.3261 15.0164 16.8872 14.8229 16.6183 14.665Z" fill="#232323"/>
</svg>
