<svg width="29" height="29" viewBox="0 0 29 29" fill="none" xmlns="http://www.w3.org/2000/svg">
<path d="M7.5 21.0447L8.50447 17.3098C7.69439 15.8549 7.43702 14.1571 7.77959 12.5281C8.12215 10.899 9.04168 9.4479 10.3694 8.44105C11.6972 7.4342 13.3441 6.93913 15.0079 7.04669C16.6718 7.15425 18.241 7.85723 19.4276 9.02663C20.6142 10.196 21.3386 11.7534 21.4678 13.413C21.5971 15.0725 21.1226 16.723 20.1313 18.0615C19.14 19.3999 17.6986 20.3366 16.0713 20.6997C14.4441 21.0627 12.7404 20.8278 11.2727 20.0379L7.5 21.0447ZM11.4546 18.6403L11.6879 18.7785C12.751 19.4076 13.9927 19.6679 15.2194 19.5189C16.4461 19.3699 17.5891 18.8199 18.4701 17.9548C19.351 17.0896 19.9206 15.9577 20.09 14.7356C20.2594 13.5135 20.0191 12.2698 19.4065 11.1983C18.794 10.1268 17.8436 9.28768 16.7035 8.81171C15.5633 8.33575 14.2975 8.24967 13.1033 8.5669C11.909 8.88413 10.8535 9.58685 10.101 10.5655C9.3486 11.5442 8.94159 12.7439 8.94343 13.9777C8.94243 15.0006 9.22581 16.0038 9.76203 16.8755L9.90835 17.1164L9.3468 19.2009L11.4546 18.6403Z" fill="#FFD400"/>
<path fill-rule="evenodd" clip-rule="evenodd" d="M17.1173 14.9365C16.9805 14.8264 16.8203 14.7488 16.649 14.7098C16.4777 14.6708 16.2997 14.6714 16.1286 14.7115C15.8716 14.8181 15.7055 15.2208 15.5394 15.4221C15.5044 15.4704 15.4529 15.5042 15.3947 15.5173C15.3364 15.5304 15.2754 15.5218 15.223 15.4932C14.282 15.1252 13.4932 14.4504 12.9847 13.5784C12.9414 13.524 12.9208 13.4549 12.9275 13.3856C12.9341 13.3164 12.9674 13.2525 13.0203 13.2073C13.2056 13.0242 13.3416 12.7974 13.4158 12.5479C13.4323 12.2728 13.3691 11.9987 13.2339 11.7583C13.1293 11.4214 12.9303 11.1214 12.6604 10.8937C12.5212 10.8312 12.3669 10.8102 12.216 10.8334C12.0652 10.8565 11.9242 10.9227 11.8102 11.024C11.6123 11.1945 11.4552 11.4071 11.3504 11.6463C11.2457 11.8854 11.1961 12.145 11.2052 12.4058C11.2058 12.5523 11.2244 12.6981 11.2605 12.8401C11.3523 13.1812 11.4936 13.507 11.6797 13.8074C11.814 14.0374 11.9605 14.2601 12.1187 14.4746C12.6326 15.1789 13.2786 15.7769 14.0208 16.2354C14.3933 16.4684 14.7914 16.6578 15.2072 16.8C15.6392 16.9955 16.1161 17.0705 16.5874 17.0171C16.8559 16.9765 17.1103 16.8707 17.3282 16.7089C17.5461 16.5471 17.7208 16.3344 17.837 16.0893C17.9053 15.9413 17.926 15.7758 17.8963 15.6156C17.8252 15.2879 17.3862 15.0944 17.1173 14.9365Z" fill="#FFD400"/>
</svg>
