<svg width="143" height="116" viewBox="0 0 143 116" fill="none" xmlns="http://www.w3.org/2000/svg">
<path d="M71.699 101.738C99.699 101.738 122.399 79.0383 122.399 50.9383C122.399 22.8383 99.699 0.138306 71.699 0.138306C43.699 0.138306 20.999 22.8383 20.999 50.9383C20.999 79.0383 43.699 101.738 71.699 101.738Z" fill="#EAEEF9"/>
<path d="M128.199 30.0383C130.463 30.0383 132.299 28.2027 132.299 25.9383C132.299 23.6739 130.463 21.8383 128.199 21.8383C125.934 21.8383 124.099 23.6739 124.099 25.9383C124.099 28.2027 125.934 30.0383 128.199 30.0383Z" fill="#EAEEF9"/>
<path d="M134.198 13.9383C135.745 13.9383 136.998 12.6847 136.998 11.1383C136.998 9.59192 135.745 8.33832 134.198 8.33832C132.652 8.33832 131.398 9.59192 131.398 11.1383C131.398 12.6847 132.652 13.9383 134.198 13.9383Z" fill="#EAEEF9"/>
<path d="M17.5988 32.9383C19.1452 32.9383 20.3988 31.6847 20.3988 30.1383C20.3988 28.5919 19.1452 27.3383 17.5988 27.3383C16.0524 27.3383 14.7988 28.5919 14.7988 30.1383C14.7988 31.6847 16.0524 32.9383 17.5988 32.9383Z" fill="#EAEEF9"/>
<path d="M22.7986 93.8383C25.6705 93.8383 27.9986 91.5102 27.9986 88.6384C27.9986 85.7665 25.6705 83.4384 22.7986 83.4384C19.9268 83.4384 17.5986 85.7665 17.5986 88.6384C17.5986 91.5102 19.9268 93.8383 22.7986 93.8383Z" fill="#EAEEF9"/>
<g filter="url(#filter0_d_5551_47504)">
<path d="M112.015 83.0077H31.5824C26.6887 83.0077 22.7988 79.1178 22.7988 74.2241V27.9219C22.7988 23.0282 26.6887 19.1383 31.5824 19.1383H112.015C116.909 19.1383 120.799 23.0282 120.799 27.9219V74.2241C120.799 79.1178 116.909 83.0077 112.015 83.0077Z" fill="url(#paint0_linear_5551_47504)"/>
</g>
<path d="M47.6436 68.5775H34.8446C33.7153 68.5775 32.8369 67.6991 32.8369 66.5698C32.8369 65.4405 33.7153 64.5621 34.8446 64.5621H47.6436C48.7729 64.5621 49.6513 65.4405 49.6513 66.5698C49.6513 67.6991 48.7729 68.5775 47.6436 68.5775Z" fill="#D5DDEA"/>
<path d="M68.3477 68.5775H55.5487C54.4194 68.5775 53.541 67.6991 53.541 66.5698C53.541 65.4405 54.4194 64.5621 55.5487 64.5621H68.3477C69.477 64.5621 70.3554 65.4405 70.3554 66.5698C70.3554 67.6991 69.477 68.5775 68.3477 68.5775Z" fill="#D5DDEA"/>
<path d="M89.0528 68.5775H76.2538C75.1245 68.5775 74.2461 67.6991 74.2461 66.5698C74.2461 65.4405 75.1245 64.5621 76.2538 64.5621H89.0528C90.1821 64.5621 91.0604 65.4405 91.0604 66.5698C91.0604 67.6991 90.1821 68.5775 89.0528 68.5775Z" fill="#D5DDEA"/>
<path d="M109.757 68.5775H96.9579C95.8286 68.5775 94.9502 67.6991 94.9502 66.5698C94.9502 65.4405 95.8286 64.5621 96.9579 64.5621H109.757C110.886 64.5621 111.765 65.4405 111.765 66.5698C111.765 67.6991 110.886 68.5775 109.757 68.5775Z" fill="#D5DDEA"/>
<path d="M105.114 44.4853C109.272 44.4853 112.643 41.1145 112.643 36.9565C112.643 32.7985 109.272 29.4277 105.114 29.4277C100.956 29.4277 97.585 32.7985 97.585 36.9565C97.585 41.1145 100.956 44.4853 105.114 44.4853Z" fill="#989FB0"/>
<path d="M95.2007 44.4853C99.3587 44.4853 102.729 41.1145 102.729 36.9565C102.729 32.7985 99.3587 29.4277 95.2007 29.4277C91.0426 29.4277 87.6719 32.7985 87.6719 36.9565C87.6719 41.1145 91.0426 44.4853 95.2007 44.4853Z" fill="#D5DDEA"/>
<path d="M48.7729 46.8694H34.7191C33.7153 46.8694 32.8369 45.9911 32.8369 44.9872V35.9527C32.8369 34.9488 33.7153 34.0705 34.7191 34.0705H48.6474C49.6513 34.0705 50.5296 34.9488 50.5296 35.9527V44.9872C50.6551 45.9911 49.7767 46.8694 48.7729 46.8694Z" fill="#D5DDEA"/>
<rect x="89.4004" y="59.4756" width="40" height="40" rx="20" fill="#12B76A"/>
<path d="M101.067 79.3447L106.468 85.3954C106.55 85.4876 106.697 85.4886 106.781 85.3976L117.734 73.486" stroke="white" stroke-width="3.75" stroke-linecap="round"/>
<defs>
<filter id="filter0_d_5551_47504" x="0.798828" y="8.13831" width="142" height="107.869" filterUnits="userSpaceOnUse" color-interpolation-filters="sRGB">
<feFlood flood-opacity="0" result="BackgroundImageFix"/>
<feColorMatrix in="SourceAlpha" type="matrix" values="0 0 0 0 0 0 0 0 0 0 0 0 0 0 0 0 0 0 127 0" result="hardAlpha"/>
<feOffset dy="11"/>
<feGaussianBlur stdDeviation="11"/>
<feColorMatrix type="matrix" values="0 0 0 0 0.397708 0 0 0 0 0.47749 0 0 0 0 0.575 0 0 0 0.27 0"/>
<feBlend mode="normal" in2="BackgroundImageFix" result="effect1_dropShadow_5551_47504"/>
<feBlend mode="normal" in="SourceGraphic" in2="effect1_dropShadow_5551_47504" result="shape"/>
</filter>
<linearGradient id="paint0_linear_5551_47504" x1="71.7669" y1="17.6609" x2="71.7669" y2="83.6963" gradientUnits="userSpaceOnUse">
<stop stop-color="#FDFEFF"/>
<stop offset="0.9964" stop-color="#ECF0F5"/>
</linearGradient>
</defs>
</svg>
