<svg width="59" height="25" viewBox="0 0 59 25" fill="none" xmlns="http://www.w3.org/2000/svg">
<path d="M10.742 3.64252C10.0602 4.44934 8.96925 5.0857 7.87834 4.99479C7.74198 3.90389 8.27607 2.7448 8.90106 2.02889C9.58288 1.19935 10.7761 0.608443 11.742 0.562988C11.8556 1.69935 11.4124 2.81298 10.742 3.64252ZM11.7306 5.2107C10.1511 5.11979 8.79879 6.10842 8.04879 6.10842C7.28743 6.10842 6.13971 5.25615 4.88971 5.27888C3.26472 5.30161 1.75336 6.22206 0.923819 7.68796C-0.780721 10.6198 0.480638 14.9607 2.12836 17.347C2.93518 18.5288 3.90108 19.8243 5.1738 19.7788C6.37835 19.7334 6.85562 18.9947 8.31016 18.9947C9.77606 18.9947 10.1965 19.7788 11.4692 19.7561C12.7874 19.7334 13.617 18.5743 14.4238 17.3925C15.3442 16.0516 15.7192 14.7448 15.7419 14.6766C15.7192 14.6539 13.1965 13.6879 13.1738 10.7789C13.151 8.34705 15.1624 7.18797 15.2533 7.11978C14.117 5.43797 12.3442 5.25615 11.7306 5.2107ZM20.8556 1.91526V19.6311H23.6056V13.5743H27.4124C30.8896 13.5743 33.3328 11.188 33.3328 7.73342C33.3328 4.27889 30.9351 1.91526 27.5033 1.91526H20.8556ZM23.6056 4.23343H26.776C29.1624 4.23343 30.526 5.50615 30.526 7.74478C30.526 9.98341 29.1624 11.2675 26.7646 11.2675H23.6056V4.23343ZM38.3555 19.7675C40.0828 19.7675 41.685 18.8925 42.4123 17.5061H42.4691V19.6311H45.0146V10.813C45.0146 8.25614 42.9691 6.60842 39.8214 6.60842C36.901 6.60842 34.7419 8.27887 34.6623 10.5743H37.1396C37.3442 9.48341 38.3555 8.76751 39.7419 8.76751C41.4237 8.76751 42.3669 9.55159 42.3669 10.9948V11.972L38.9351 12.1766C35.7419 12.3698 34.0146 13.6766 34.0146 15.9493C34.0146 18.2447 35.7987 19.7675 38.3555 19.7675ZM39.0941 17.6652C37.6282 17.6652 36.6964 16.9607 36.6964 15.8811C36.6964 14.7675 37.5941 14.1198 39.3101 14.0175L42.3669 13.8243V14.8243C42.3669 16.4834 40.9578 17.6652 39.0941 17.6652ZM48.4123 24.4493C51.0941 24.4493 52.3555 23.4265 53.4577 20.3243L58.2873 6.77888H55.4918L52.2532 17.2448H52.1964L48.9577 6.77888H46.0828L50.7418 19.6766L50.4918 20.4606C50.0714 21.7902 49.3896 22.3016 48.1737 22.3016C47.9578 22.3016 47.5373 22.2788 47.3668 22.2561V24.3811C47.5259 24.4265 48.2078 24.4493 48.4123 24.4493Z" fill="black"/>
</svg>
