<svg width="39" height="16" viewBox="0 0 39 16" fill="none" xmlns="http://www.w3.org/2000/svg">
<path d="M11.2319 9.67188H10.278H10.2634H5.53564V10.5124H7.42205V15.1515H8.38264V10.5124H10.2634V15.1515H14.1148V14.3121H11.2319V9.67188Z" fill="black"/>
<path d="M20.1341 11.2563C19.9814 10.9096 19.7705 10.6133 19.5023 10.3642C19.2341 10.1173 18.9187 9.92318 18.5596 9.78515C18.1983 9.646 17.8145 9.57642 17.4038 9.57642C16.9931 9.57642 16.616 9.646 16.2535 9.78515C15.8899 9.92318 15.5735 10.1173 15.3053 10.3642C15.0371 10.6133 14.8239 10.9118 14.6656 11.2608C14.5063 11.6098 14.4277 11.9914 14.4277 12.4066C14.4277 12.8218 14.5063 13.2123 14.6656 13.5579C14.8239 13.9047 15.0371 14.2021 15.3053 14.449C15.5735 14.697 15.8911 14.8911 16.2535 15.0291C16.6171 15.1683 16.9998 15.2379 17.4038 15.2379C17.8078 15.2379 18.1994 15.1683 18.5596 15.0291C18.9199 14.8911 19.2341 14.697 19.5023 14.449C19.7705 14.2021 19.9814 13.9036 20.1341 13.5579C20.2878 13.2112 20.3641 12.8285 20.3641 12.4066C20.3641 11.9846 20.2878 11.602 20.1341 11.2563ZM19.2341 13.191C19.1342 13.43 18.995 13.6399 18.8189 13.8183C18.6427 13.9967 18.4328 14.137 18.1904 14.238C17.9492 14.3401 17.6866 14.3895 17.4027 14.3895C17.1187 14.3895 16.855 14.3401 16.6104 14.238C16.3658 14.1381 16.1537 14.0001 15.9741 13.8228C15.7957 13.6466 15.6554 13.4367 15.5544 13.1955C15.4534 12.9531 15.4029 12.6905 15.4029 12.4066C15.4029 12.1227 15.4523 11.8612 15.5544 11.6188C15.6543 11.3764 15.7957 11.1677 15.9741 10.9915C16.1537 10.8153 16.3658 10.6773 16.6104 10.5763C16.855 10.4753 17.1199 10.4237 17.4027 10.4237C17.6855 10.4237 17.948 10.4742 18.1904 10.5763C18.4328 10.6762 18.6427 10.8153 18.8189 10.9915C18.995 11.1677 19.1331 11.3764 19.2341 11.6188C19.3339 11.8612 19.3867 12.1238 19.3867 12.4066C19.3867 12.6894 19.3351 12.9497 19.2341 13.191Z" fill="black"/>
<path d="M25.8038 12.694C25.5592 12.4404 25.2136 12.3102 24.7703 12.3035C24.9947 12.2922 25.1799 12.2451 25.3235 12.1609C25.4694 12.0779 25.5839 11.9758 25.6703 11.8579C25.7567 11.739 25.8173 11.6178 25.8476 11.4899C25.8802 11.3631 25.8959 11.2475 25.8959 11.1431C25.8959 10.8603 25.8386 10.6247 25.7231 10.4339C25.6063 10.2431 25.4571 10.0916 25.2719 9.9794C25.0879 9.86606 24.8803 9.78638 24.6491 9.73701C24.4191 9.68875 24.1879 9.66406 23.9567 9.66406H21.3779V15.1516H24.2081C24.4561 15.1516 24.6962 15.1303 24.9297 15.0876C25.1642 15.0438 25.3729 14.9664 25.5581 14.8576C25.7421 14.7487 25.8914 14.5972 26.0036 14.4031C26.1169 14.2101 26.1719 13.9665 26.1719 13.6725C26.1719 13.2741 26.0496 12.9487 25.8038 12.6951V12.694ZM22.3464 10.4945H23.9219C24.0544 10.4945 24.1823 10.5057 24.3068 10.5248C24.4314 10.5461 24.5391 10.5809 24.6323 10.6325C24.7243 10.6841 24.7972 10.7593 24.8522 10.8536C24.9072 10.9478 24.9353 11.0747 24.9353 11.2306C24.9353 11.5303 24.8489 11.7334 24.6749 11.8411C24.5021 11.9488 24.2788 12.0016 24.0083 12.0016H22.3464V10.4945ZM25.1126 13.971C25.0464 14.0709 24.9577 14.1483 24.8489 14.2C24.7378 14.2516 24.6143 14.2841 24.4763 14.2987C24.3371 14.3133 24.1957 14.32 24.0521 14.32H22.3464V12.7456H24.0083C24.1531 12.7456 24.2967 12.7557 24.4415 12.7759C24.5863 12.7961 24.7142 12.8343 24.8264 12.8926C24.9398 12.9498 25.0318 13.0329 25.1036 13.1395C25.1754 13.245 25.2113 13.3852 25.2113 13.5592C25.2113 13.7331 25.1777 13.8689 25.1126 13.971Z" fill="black"/>
<path d="M31.0505 11.9533H28.1598V9.92105L27.1958 9.66968V15.1471H28.1598V12.8017H31.0505V15.1471H32.0246V9.93115L31.0505 9.66968V11.9533Z" fill="black"/>
<path d="M34.9749 9.66406L32.9146 15.1516H33.9268L35.6404 10.5124L37.3461 15.1516H38.3673L36.3069 9.66406H34.9749Z" fill="black"/>
<path d="M2.47099 9.66406L0.410645 15.1516H1.42399L3.13757 10.5124L4.84329 15.1516H5.86337L3.80415 9.66406H2.47099Z" fill="black"/>
<path d="M19.3599 7.75506L20.3575 8.02888V6.84497H19.3599V7.75506Z" fill="black"/>
<path d="M38.3674 0.460938V5.93947H37.4023V0.712307L38.3674 0.460938Z" fill="black"/>
<path d="M36.2857 4.63997C36.2543 4.35606 36.2027 4.09347 36.1084 3.8421C35.9816 3.46616 35.7841 3.13175 35.5204 2.84784C35.269 2.57515 34.9335 2.35519 34.5475 2.19808C34.1603 2.02976 33.7193 1.95794 33.2064 1.95794C32.6936 1.95794 32.2649 2.02976 31.8879 2.19808C31.531 2.33275 31.301 2.5224 31.0597 2.75245V0.460938L30.0946 0.712307V5.09895H26.5036V0.460938L25.5396 0.712307V5.09895H22.3257V1.97365L21.3606 2.22502V5.09895H17.1333V4.40768C17.1333 3.93636 17.0604 3.51779 16.9347 3.13063C16.7989 2.74235 16.6003 2.41803 16.3366 2.13524C16.0751 1.85245 15.7497 1.63363 15.3636 1.4754C14.9753 1.32839 14.5354 1.24535 14.0338 1.24535C13.5322 1.24535 13.0912 1.32839 12.6928 1.4754C12.3169 1.63363 11.9813 1.85357 11.73 2.13524C11.4685 2.41803 11.2688 2.74235 11.133 3.13063C11.0488 3.36068 10.9972 3.60082 10.9747 3.86229C10.9444 3.9992 10.9332 4.14621 10.9332 4.30219V5.09895H1.37328V0.460938L0.408203 0.712307V5.93835H36.3183V5.09895C36.3183 4.94184 36.3082 4.77351 36.2869 4.63885L36.2857 4.63997ZM31.1854 4.33474C31.2583 4.07327 31.3952 3.85332 31.5737 3.66479C31.7397 3.47626 31.972 3.32925 32.2436 3.22489C32.5051 3.12053 32.8395 3.05656 33.2064 3.05656C33.5947 3.05656 33.9202 3.11941 34.1917 3.22489C34.4532 3.33038 34.6731 3.47626 34.8628 3.66479C35.0401 3.85332 35.1546 4.07327 35.2398 4.33474C35.2701 4.42788 35.3644 4.94297 35.3644 5.09895H31.0597C31.0597 4.94184 31.1427 4.42788 31.1842 4.33474H31.1854ZM13.0586 2.5022C13.3313 2.39671 13.6545 2.35519 14.0327 2.35519C14.4109 2.35519 14.7341 2.39671 14.9967 2.5022C15.2795 2.61666 15.4983 2.76367 15.6778 2.9421C15.845 3.13175 15.9808 3.35058 16.065 3.61205C16.1379 3.87352 16.1806 4.14733 16.1806 4.44022V5.10007H14.4737C14.5152 5.05743 14.5568 5.00581 14.5983 4.95307C14.6813 4.8487 14.7453 4.72189 14.7767 4.58611C14.8081 4.47052 14.8295 4.34484 14.8295 4.25057C14.8295 3.96778 14.7666 3.72763 14.6499 3.53798C14.5343 3.33935 14.3884 3.19235 14.1999 3.07676C14.0215 2.9724 13.8015 2.88824 13.5827 2.83549C13.3515 2.78387 13.1215 2.76143 12.8802 2.76143H12.8701C12.7759 2.76143 12.6816 2.76143 12.5873 2.78275C12.7231 2.66716 12.8813 2.5729 13.0598 2.49995L13.0586 2.5022ZM11.9062 4.12489C11.9163 4.06317 11.9376 4.00931 11.9679 3.95768C12.0307 3.86342 12.1037 3.78038 12.1889 3.73773C12.2821 3.68611 12.3977 3.64347 12.5133 3.63337C12.6288 3.60195 12.7545 3.60195 12.8802 3.60195C12.9958 3.60195 13.1215 3.60195 13.236 3.63337C13.3616 3.64347 13.466 3.68611 13.5614 3.73773C13.6545 3.78038 13.7286 3.8623 13.7813 3.95768C13.833 4.05195 13.8644 4.17763 13.8644 4.33474C13.8644 4.62763 13.7813 4.83748 13.6029 4.94296C13.4346 5.0462 13.2045 5.10007 12.9431 5.10007H12.8062C12.5447 5.10007 12.3247 5.04733 12.1463 4.94296C11.9679 4.83748 11.8848 4.62763 11.8848 4.33474C11.8848 4.26067 11.8848 4.18773 11.9062 4.12489Z" fill="black"/>
</svg>
