<svg width="134" height="121" viewBox="0 0 134 121" fill="none" xmlns="http://www.w3.org/2000/svg">
<path d="M71.568 119.563C104.368 119.563 130.968 93.1629 130.968 60.5629C130.968 27.9629 104.368 1.56293 71.568 1.56293C38.768 1.56293 12.168 27.9629 12.168 60.5629C12.168 93.1629 38.768 119.563 71.568 119.563Z" fill="#F1F3F9" stroke="#D6DCE8" stroke-width="2" stroke-miterlimit="10"/>
<path d="M129.45 32.3629C131.714 32.3629 133.55 30.5273 133.55 28.2629C133.55 25.9985 131.714 24.1629 129.45 24.1629C127.186 24.1629 125.35 25.9985 125.35 28.2629C125.35 30.5273 127.186 32.3629 129.45 32.3629Z" fill="#F1F3F9"/>
<path d="M125.35 19.063C126.897 19.063 128.15 17.8094 128.15 16.263C128.15 14.7166 126.897 13.463 125.35 13.463C123.804 13.463 122.55 14.7166 122.55 16.263C122.55 17.8094 123.804 19.063 125.35 19.063Z" fill="#F1F3F9"/>
<path d="M11.9504 28.2629C13.4968 28.2629 14.7504 27.0093 14.7504 25.4629C14.7504 23.9165 13.4968 22.6629 11.9504 22.6629C10.404 22.6629 9.15039 23.9165 9.15039 25.4629C9.15039 27.0093 10.404 28.2629 11.9504 28.2629Z" fill="#F1F3F9"/>
<path d="M5.6502 89.863C8.52208 89.863 10.8502 87.5348 10.8502 84.6629C10.8502 81.7911 8.52208 79.463 5.6502 79.463C2.77831 79.463 0.450195 81.7911 0.450195 84.6629C0.450195 87.5348 2.77831 89.863 5.6502 89.863Z" fill="#F1F3F9"/>
<path d="M107.767 50.4406L115.267 56.3035L107.767 71.4406L103.767 78.5269H83.1544L78.1915 81.9888L76.0507 83.4406L74.0072 81.9888L69.3362 78.5269L59.7671 75.9406L44.2671 81.9888L39.2671 56.7502L44.2671 37.9406C50.2031 32.2452 47.8305 29.4177 54.6422 22.9406H98.6269C104.855 28.8594 102.512 45.4152 107.767 50.4406Z" fill="#AAB2C5"/>
<path d="M113.333 48.8963L106.88 27.3888C105.409 22.4839 100.982 19.1906 95.8633 19.1906H52.6709C47.5526 19.1906 43.125 22.4839 41.6538 27.3888L35.2015 48.8963C31.1273 50.6668 28.2671 54.7214 28.2671 59.4406V82.4406C28.2671 85.616 30.8417 88.1906 34.0171 88.1906V93.9403C34.0171 97.116 36.5913 99.6906 39.7671 99.6906H45.5174C48.6929 99.6906 51.2674 97.116 51.2674 93.9406L51.265 88.1906H97.2671L97.2667 93.9403C97.2667 97.116 99.841 99.6906 103.017 99.6906H108.767C111.943 99.6906 114.517 97.116 114.517 93.9406V88.191C117.693 88.191 120.267 85.616 120.267 82.4406V59.4406C120.267 54.7213 117.407 50.6668 113.333 48.8963ZM52.6707 30.6906H95.8631L101.038 47.9406H47.4956L52.6707 30.6906ZM51.2669 73.8156C48.0911 73.8156 45.5169 71.241 45.5169 68.0656C45.5169 64.8898 48.0911 62.3156 51.2669 62.3156C54.4427 62.3156 57.0169 64.8898 57.0169 68.0656C57.0169 71.241 54.4427 73.8156 51.2669 73.8156ZM97.2669 73.8156C94.0911 73.8156 91.5169 71.241 91.5169 68.0656C91.5169 64.8898 94.0911 62.3156 97.2669 62.3156C100.443 62.3156 103.017 64.8898 103.017 68.0656C103.017 71.241 100.443 73.8156 97.2669 73.8156Z" fill="white" stroke="#D6DCE8" stroke-width="2" stroke-miterlimit="10"/>
<path d="M119.149 110.032L122.721 108.246C122.609 108.357 122.609 108.357 122.498 108.469C122.498 108.469 122.498 108.469 122.386 108.469L119.149 110.032Z" fill="#526DFF"/>
</svg>
