<svg width="112" height="114" viewBox="0 0 112 114" fill="none" xmlns="http://www.w3.org/2000/svg">
<path d="M56.0001 113.105C86.3987 113.105 111.042 88.6612 111.042 58.5081C111.042 28.3549 86.3987 3.91096 56.0001 3.91096C25.6014 3.91096 0.958496 28.3549 0.958496 58.5081C0.958496 88.6612 25.6014 113.105 56.0001 113.105Z" fill="#D5DDEA"/>
<path d="M53.7281 8.87045C48.2337 9.11266 42.9217 10.2291 38.0304 12.1014C37.7271 12.4121 37.4284 12.7072 37.144 12.9881L37.1093 13.0224C31.4153 18.7889 26.7788 27.1144 23.9811 36.9916H53.7281V8.87045Z" fill="white"/>
<path d="M28.2029 17.1858C20.8074 22.1159 14.7827 28.9588 10.8693 36.9916H19.4863C21.4714 29.533 24.4569 22.8012 28.2029 17.1858Z" fill="white"/>
<path d="M9.01408 41.3106C7.00763 46.6742 5.90894 52.4685 5.90894 58.5073C5.90894 64.637 7.04096 70.5148 9.1053 75.9459H18.4778C17.3395 70.4283 16.7324 64.5681 16.7324 58.508C16.7324 52.5414 17.3386 46.7632 18.4665 41.3106H9.01408Z" fill="white"/>
<path d="M10.988 80.2649C14.8759 88.1364 20.7962 94.8515 28.0458 99.7237C24.3593 94.207 21.443 87.5965 19.4951 80.2649H10.988Z" fill="white"/>
<path d="M38.0123 104.906C42.9086 106.783 48.227 107.902 53.7281 108.144V80.2649H23.9893C26.7697 90.0928 31.3742 98.3277 37.0999 103.984C37.4019 104.283 37.7071 104.59 38.0123 104.906Z" fill="white"/>
<path d="M58.0645 108.153C63.5921 107.932 68.9385 106.826 73.8615 104.955C74.1298 104.671 74.4035 104.39 74.6829 104.114C80.354 98.3712 84.976 90.0896 87.7773 80.2649H58.0645V108.153Z" fill="white"/>
<path d="M83.5396 100.025C91.0211 95.1303 97.0935 88.3002 101.044 80.2649H92.2741C90.2802 87.7088 87.2889 94.4251 83.5396 100.025Z" fill="white"/>
<path d="M102.918 75.9459C104.97 70.5148 106.092 64.637 106.092 58.5073C106.092 52.4685 105.003 46.6742 103.008 41.3106H93.3349C94.46 46.7867 95.0602 52.6026 95.0602 58.6282C95.0602 64.6388 94.445 70.4581 93.301 75.9459H102.918Z" fill="white"/>
<path d="M101.163 36.9916C97.1806 28.7807 90.9894 21.813 83.3419 16.8606C87.2338 22.5331 90.3018 29.3732 92.3208 36.9916H101.163Z" fill="white"/>
<path d="M73.6159 11.9674C73.9421 12.3312 74.2738 12.6966 74.6138 13.0698C74.6364 13.0947 74.6596 13.119 74.6834 13.1428C80.4333 18.8918 85.0493 27.1482 87.8273 36.9916H58.0645V8.86171C63.5003 9.07932 68.7609 10.1526 73.6159 11.9674Z" fill="white"/>
<path d="M88.8678 75.9459C90.0668 70.5171 90.7237 64.6952 90.7237 58.6282C90.7237 52.5416 90.083 46.7243 88.9045 41.3106H58.0645V75.9459H88.8678Z" fill="white"/>
<path d="M53.7281 75.9459V41.3106H22.8983C21.716 46.7051 21.0688 52.4858 21.0688 58.508C21.0688 64.6319 21.7172 70.4938 22.9088 75.9459H53.7281Z" fill="white"/>
<path d="M87.5782 0.164246C100.351 0.164246 110.682 10.285 110.682 22.7991C110.682 32.7831 96.0239 52.5459 90.0212 60.2048C88.7648 61.846 86.252 61.846 84.9956 60.2048C78.993 52.5459 64.3352 32.7831 64.3352 22.7991C64.4748 10.285 74.805 0.164246 87.5782 0.164246Z" fill="url(#paint0_linear_1190_15376)"/>
<path d="M87.5085 32.3711C92.4976 32.3711 96.5421 28.1507 96.5421 22.9447C96.5421 17.7386 92.4976 13.5183 87.5085 13.5183C82.5193 13.5183 78.4749 17.7386 78.4749 22.9447C78.4749 28.1507 82.5193 32.3711 87.5085 32.3711Z" fill="white"/>
<defs>
<linearGradient id="paint0_linear_1190_15376" x1="64.314" y1="30.8067" x2="110.69" y2="30.8067" gradientUnits="userSpaceOnUse">
<stop stop-color="#B0BACC"/>
<stop offset="1" stop-color="#969EAE"/>
</linearGradient>
</defs>
</svg>
