<svg width="1098" height="408" viewBox="0 0 1098 408" fill="none" xmlns="http://www.w3.org/2000/svg">
<g clip-path="url(#clip0_1266_21082)">
<path d="M1096.7 80.3083L1135.06 146.738H1058.35L1096.7 80.3083Z" stroke="white" stroke-opacity="0.05" stroke-width="1.5" stroke-miterlimit="10"/>
<path d="M1030.27 195.388L1048.76 163.358H1144.64L1163.14 195.388H1030.27Z" stroke="white" stroke-opacity="0.05" stroke-width="1.5" stroke-miterlimit="10"/>
<path d="M1058.35 -2.75171H1135.06L1096.7 63.6783L1058.35 -2.75171Z" stroke="white" stroke-opacity="0.05" stroke-width="1.5" stroke-miterlimit="10"/>
<path d="M1010.68 -51.3916L1049.03 15.0384H972.33L1010.68 -51.3916Z" stroke="white" stroke-opacity="0.05" stroke-width="1.5" stroke-miterlimit="10"/>
<path d="M944.24 63.6784L962.73 31.6484H1058.62L1077.12 63.6784H944.24Z" stroke="white" stroke-opacity="0.05" stroke-width="1.5" stroke-miterlimit="10"/>
<path d="M925.03 80.3083L963.39 146.738H886.68L925.03 80.3083Z" stroke="white" stroke-opacity="0.05" stroke-width="1.5" stroke-miterlimit="10"/>
<path d="M858.6 195.388L877.09 163.358H972.97L991.47 195.388H858.6Z" stroke="white" stroke-opacity="0.05" stroke-width="1.5" stroke-miterlimit="10"/>
<path d="M886.68 -2.75171H963.39L925.03 63.6783L886.68 -2.75171Z" stroke="white" stroke-opacity="0.05" stroke-width="1.5" stroke-miterlimit="10"/>
<path d="M972.33 128.948H1049.03L1010.68 195.388L972.33 128.948Z" stroke="white" stroke-opacity="0.05" stroke-width="1.5" stroke-miterlimit="10"/>
<path d="M1077.12 80.3083L1058.62 112.338H962.73L944.24 80.3083H1077.12Z" stroke="white" stroke-opacity="0.05" stroke-width="1.5" stroke-miterlimit="10"/>
<path d="M839.58 -51.3916L877.94 15.0384H801.23L839.58 -51.3916Z" stroke="white" stroke-opacity="0.05" stroke-width="1.5" stroke-miterlimit="10"/>
<path d="M773.15 63.6784L791.64 31.6484H887.52L906.02 63.6784H773.15Z" stroke="white" stroke-opacity="0.05" stroke-width="1.5" stroke-miterlimit="10"/>
<path d="M753.94 80.3083L792.29 146.738H715.59L753.94 80.3083Z" stroke="white" stroke-opacity="0.05" stroke-width="1.5" stroke-miterlimit="10"/>
<path d="M687.5 195.388L705.99 163.358H801.88L820.38 195.388H687.5Z" stroke="white" stroke-opacity="0.05" stroke-width="1.5" stroke-miterlimit="10"/>
<path d="M715.59 -2.75171H792.29L753.94 63.6783L715.59 -2.75171Z" stroke="white" stroke-opacity="0.05" stroke-width="1.5" stroke-miterlimit="10"/>
<path d="M801.23 128.948H877.94L839.58 195.388L801.23 128.948Z" stroke="white" stroke-opacity="0.05" stroke-width="1.5" stroke-miterlimit="10"/>
<path d="M906.02 80.3083L887.52 112.338H791.64L773.15 80.3083H906.02Z" stroke="white" stroke-opacity="0.05" stroke-width="1.5" stroke-miterlimit="10"/>
<path d="M667.51 -51.3916L705.86 15.0384H629.16L667.51 -51.3916Z" stroke="white" stroke-opacity="0.05" stroke-width="1.5" stroke-miterlimit="10"/>
<path d="M601.08 63.6784L619.56 31.6484H715.45L733.95 63.6784H601.08Z" stroke="white" stroke-opacity="0.05" stroke-width="1.5" stroke-miterlimit="10"/>
<path d="M581.86 80.3083L620.22 146.738H543.52L581.86 80.3083Z" stroke="white" stroke-opacity="0.05" stroke-width="1.5" stroke-miterlimit="10"/>
<path d="M515.43 195.388L533.92 163.358H629.81L648.3 195.388H515.43Z" stroke="white" stroke-opacity="0.05" stroke-width="1.5" stroke-miterlimit="10"/>
<path d="M543.52 -2.75171H620.22L581.86 63.6783L543.52 -2.75171Z" stroke="white" stroke-opacity="0.05" stroke-width="1.5" stroke-miterlimit="10"/>
<path d="M629.16 128.948H705.86L667.51 195.388L629.16 128.948Z" stroke="white" stroke-opacity="0.05" stroke-width="1.5" stroke-miterlimit="10"/>
<path d="M733.95 80.3083L715.45 112.338H619.56L601.08 80.3083H733.95Z" stroke="white" stroke-opacity="0.05" stroke-width="1.5" stroke-miterlimit="10"/>
<path d="M496.41 -51.3916L534.77 15.0384H458.06L496.41 -51.3916Z" stroke="white" stroke-opacity="0.05" stroke-width="1.5" stroke-miterlimit="10"/>
<path d="M429.98 63.6784L448.47 31.6484H544.35L562.85 63.6784H429.98Z" stroke="white" stroke-opacity="0.05" stroke-width="1.5" stroke-miterlimit="10"/>
<path d="M410.77 80.3083L449.12 146.738H372.42L410.77 80.3083Z" stroke="white" stroke-opacity="0.05" stroke-width="1.5" stroke-miterlimit="10"/>
<path d="M344.34 195.388L362.82 163.358H458.71L477.21 195.388H344.34Z" stroke="white" stroke-opacity="0.05" stroke-width="1.5" stroke-miterlimit="10"/>
<path d="M372.42 -2.75171H449.12L410.77 63.6783L372.42 -2.75171Z" stroke="white" stroke-opacity="0.05" stroke-width="1.5" stroke-miterlimit="10"/>
<path d="M458.06 128.948H534.77L496.41 195.388L458.06 128.948Z" stroke="white" stroke-opacity="0.05" stroke-width="1.5" stroke-miterlimit="10"/>
<path d="M562.85 80.3083L544.35 112.338H448.47L429.98 80.3083H562.85Z" stroke="white" stroke-opacity="0.05" stroke-width="1.5" stroke-miterlimit="10"/>
<path d="M324.74 -51.3916L363.1 15.0384H286.39L324.74 -51.3916Z" stroke="white" stroke-opacity="0.05" stroke-width="1.5" stroke-miterlimit="10"/>
<path d="M258.31 63.6784L276.8 31.6484H372.68L391.18 63.6784H258.31Z" stroke="white" stroke-opacity="0.05" stroke-width="1.5" stroke-miterlimit="10"/>
<path d="M239.1 80.3083L277.45 146.738H200.75L239.1 80.3083Z" stroke="white" stroke-opacity="0.05" stroke-width="1.5" stroke-miterlimit="10"/>
<path d="M172.67 195.388L191.16 163.358H287.04L305.54 195.388H172.67Z" stroke="white" stroke-opacity="0.05" stroke-width="1.5" stroke-miterlimit="10"/>
<path d="M200.75 -2.75171H277.45L239.1 63.6783L200.75 -2.75171Z" stroke="white" stroke-opacity="0.05" stroke-width="1.5" stroke-miterlimit="10"/>
<path d="M286.39 128.948H363.1L324.74 195.388L286.39 128.948Z" stroke="white" stroke-opacity="0.05" stroke-width="1.5" stroke-miterlimit="10"/>
<path d="M391.18 80.3083L372.68 112.338H276.8L258.31 80.3083H391.18Z" stroke="white" stroke-opacity="0.05" stroke-width="1.5" stroke-miterlimit="10"/>
<path d="M153.64 -51.3916L192 15.0384H115.3L153.64 -51.3916Z" stroke="white" stroke-opacity="0.05" stroke-width="1.5" stroke-miterlimit="10"/>
<path d="M87.21 63.6784L105.7 31.6484H201.59L220.08 63.6784H87.21Z" stroke="white" stroke-opacity="0.05" stroke-width="1.5" stroke-miterlimit="10"/>
<path d="M67.9999 80.3083L106.36 146.738H29.6499L67.9999 80.3083Z" stroke="white" stroke-opacity="0.05" stroke-width="1.5" stroke-miterlimit="10"/>
<path d="M1.56982 195.388L20.0598 163.358H115.94L134.44 195.388H1.56982Z" stroke="white" stroke-opacity="0.05" stroke-width="1.5" stroke-miterlimit="10"/>
<path d="M29.6499 -2.75171H106.36L67.9999 63.6783L29.6499 -2.75171Z" stroke="white" stroke-opacity="0.05" stroke-width="1.5" stroke-miterlimit="10"/>
<path d="M115.3 128.948H192L153.64 195.388L115.3 128.948Z" stroke="white" stroke-opacity="0.05" stroke-width="1.5" stroke-miterlimit="10"/>
<path d="M220.08 80.3083L201.59 112.338H105.7L87.21 80.3083H220.08Z" stroke="white" stroke-opacity="0.05" stroke-width="1.5" stroke-miterlimit="10"/>
<path d="M1096.7 343.718L1135.06 410.148H1058.35L1096.7 343.718Z" stroke="white" stroke-opacity="0.05" stroke-width="1.5" stroke-miterlimit="10"/>
<path d="M1058.35 260.658H1135.06L1096.7 327.088L1058.35 260.658Z" stroke="white" stroke-opacity="0.05" stroke-width="1.5" stroke-miterlimit="10"/>
<path d="M1163.14 212.018L1144.64 244.038H1048.76L1030.27 212.018H1163.14Z" stroke="white" stroke-opacity="0.05" stroke-width="1.5" stroke-miterlimit="10"/>
<path d="M1010.68 212.018L1049.03 278.448H972.33L1010.68 212.018Z" stroke="white" stroke-opacity="0.05" stroke-width="1.5" stroke-miterlimit="10"/>
<path d="M944.24 327.088L962.73 295.058H1058.62L1077.12 327.088H944.24Z" stroke="white" stroke-opacity="0.05" stroke-width="1.5" stroke-miterlimit="10"/>
<path d="M925.03 343.718L963.39 410.148H886.68L925.03 343.718Z" stroke="white" stroke-opacity="0.05" stroke-width="1.5" stroke-miterlimit="10"/>
<path d="M886.68 260.658H963.39L925.03 327.088L886.68 260.658Z" stroke="white" stroke-opacity="0.05" stroke-width="1.5" stroke-miterlimit="10"/>
<path d="M991.47 212.018L972.97 244.038H877.09L858.6 212.018H991.47Z" stroke="white" stroke-opacity="0.05" stroke-width="1.5" stroke-miterlimit="10"/>
<path d="M972.33 392.358H1049.03L1010.68 458.788L972.33 392.358Z" stroke="white" stroke-opacity="0.05" stroke-width="1.5" stroke-miterlimit="10"/>
<path d="M1077.12 343.718L1058.62 375.748H962.73L944.24 343.718H1077.12Z" stroke="white" stroke-opacity="0.05" stroke-width="1.5" stroke-miterlimit="10"/>
<path d="M839.58 212.018L877.94 278.448H801.23L839.58 212.018Z" stroke="white" stroke-opacity="0.05" stroke-width="1.5" stroke-miterlimit="10"/>
<path d="M773.15 327.088L791.64 295.058H887.52L906.02 327.088H773.15Z" stroke="white" stroke-opacity="0.05" stroke-width="1.5" stroke-miterlimit="10"/>
<path d="M753.94 343.718L792.29 410.148H715.59L753.94 343.718Z" stroke="white" stroke-opacity="0.05" stroke-width="1.5" stroke-miterlimit="10"/>
<path d="M715.59 260.658H792.29L753.94 327.088L715.59 260.658Z" stroke="white" stroke-opacity="0.05" stroke-width="1.5" stroke-miterlimit="10"/>
<path d="M820.38 212.018L801.88 244.038H705.99L687.5 212.018H820.38Z" stroke="white" stroke-opacity="0.05" stroke-width="1.5" stroke-miterlimit="10"/>
<path d="M801.23 392.358H877.94L839.58 458.788L801.23 392.358Z" stroke="white" stroke-opacity="0.05" stroke-width="1.5" stroke-miterlimit="10"/>
<path d="M906.02 343.718L887.52 375.748H791.64L773.15 343.718H906.02Z" stroke="white" stroke-opacity="0.05" stroke-width="1.5" stroke-miterlimit="10"/>
<path d="M667.51 212.018L705.86 278.448H629.16L667.51 212.018Z" stroke="white" stroke-opacity="0.05" stroke-width="1.5" stroke-miterlimit="10"/>
<path d="M601.08 327.088L619.56 295.058H715.45L733.95 327.088H601.08Z" stroke="white" stroke-opacity="0.05" stroke-width="1.5" stroke-miterlimit="10"/>
<path d="M581.86 343.718L620.22 410.148H543.52L581.86 343.718Z" stroke="white" stroke-opacity="0.05" stroke-width="1.5" stroke-miterlimit="10"/>
<path d="M543.52 260.658H620.22L581.86 327.088L543.52 260.658Z" stroke="white" stroke-opacity="0.05" stroke-width="1.5" stroke-miterlimit="10"/>
<path d="M648.3 212.018L629.81 244.038H533.92L515.43 212.018H648.3Z" stroke="white" stroke-opacity="0.05" stroke-width="1.5" stroke-miterlimit="10"/>
<path d="M629.16 392.358H705.86L667.51 458.788L629.16 392.358Z" stroke="white" stroke-opacity="0.05" stroke-width="1.5" stroke-miterlimit="10"/>
<path d="M733.95 343.718L715.45 375.748H619.56L601.08 343.718H733.95Z" stroke="white" stroke-opacity="0.05" stroke-width="1.5" stroke-miterlimit="10"/>
<path d="M496.41 212.018L534.77 278.448H458.06L496.41 212.018Z" stroke="white" stroke-opacity="0.05" stroke-width="1.5" stroke-miterlimit="10"/>
<path d="M429.98 327.088L448.47 295.058H544.35L562.85 327.088H429.98Z" stroke="white" stroke-opacity="0.05" stroke-width="1.5" stroke-miterlimit="10"/>
<path d="M410.77 343.718L449.12 410.148H372.42L410.77 343.718Z" stroke="white" stroke-opacity="0.05" stroke-width="1.5" stroke-miterlimit="10"/>
<path d="M372.42 260.658H449.12L410.77 327.088L372.42 260.658Z" stroke="white" stroke-opacity="0.05" stroke-width="1.5" stroke-miterlimit="10"/>
<path d="M477.21 212.018L458.71 244.038H362.82L344.34 212.018H477.21Z" stroke="white" stroke-opacity="0.05" stroke-width="1.5" stroke-miterlimit="10"/>
<path d="M458.06 392.358H534.77L496.41 458.788L458.06 392.358Z" stroke="white" stroke-opacity="0.05" stroke-width="1.5" stroke-miterlimit="10"/>
<path d="M562.85 343.718L544.35 375.748H448.47L429.98 343.718H562.85Z" stroke="white" stroke-opacity="0.05" stroke-width="1.5" stroke-miterlimit="10"/>
<path d="M324.74 212.018L363.1 278.448H286.39L324.74 212.018Z" stroke="white" stroke-opacity="0.05" stroke-width="1.5" stroke-miterlimit="10"/>
<path d="M258.31 327.088L276.8 295.058H372.68L391.18 327.088H258.31Z" stroke="white" stroke-opacity="0.05" stroke-width="1.5" stroke-miterlimit="10"/>
<path d="M239.1 343.718L277.45 410.148H200.75L239.1 343.718Z" stroke="white" stroke-opacity="0.05" stroke-width="1.5" stroke-miterlimit="10"/>
<path d="M200.75 260.658H277.45L239.1 327.088L200.75 260.658Z" stroke="white" stroke-opacity="0.05" stroke-width="1.5" stroke-miterlimit="10"/>
<path d="M305.54 212.018L287.04 244.038H191.16L172.67 212.018H305.54Z" stroke="white" stroke-opacity="0.05" stroke-width="1.5" stroke-miterlimit="10"/>
<path d="M286.39 392.358H363.1L324.74 458.788L286.39 392.358Z" stroke="white" stroke-opacity="0.05" stroke-width="1.5" stroke-miterlimit="10"/>
<path d="M391.18 343.718L372.68 375.748H276.8L258.31 343.718H391.18Z" stroke="white" stroke-opacity="0.05" stroke-width="1.5" stroke-miterlimit="10"/>
<path d="M153.64 212.018L192 278.448H115.3L153.64 212.018Z" stroke="white" stroke-opacity="0.05" stroke-width="1.5" stroke-miterlimit="10"/>
<path d="M87.21 327.088L105.7 295.058H201.59L220.08 327.088H87.21Z" stroke="white" stroke-opacity="0.05" stroke-width="1.5" stroke-miterlimit="10"/>
<path d="M67.9999 343.718L106.36 410.148H29.6499L67.9999 343.718Z" stroke="white" stroke-opacity="0.05" stroke-width="1.5" stroke-miterlimit="10"/>
<path d="M29.6499 260.658H106.36L67.9999 327.088L29.6499 260.658Z" stroke="white" stroke-opacity="0.05" stroke-width="1.5" stroke-miterlimit="10"/>
<path d="M134.44 212.018L115.94 244.038H20.0598L1.56982 212.018H134.44Z" stroke="white" stroke-opacity="0.05" stroke-width="1.5" stroke-miterlimit="10"/>
<path d="M115.3 392.358H192L153.64 458.788L115.3 392.358Z" stroke="white" stroke-opacity="0.05" stroke-width="1.5" stroke-miterlimit="10"/>
<path d="M220.08 343.718L201.59 375.748H105.7L87.21 343.718H220.08Z" stroke="white" stroke-opacity="0.05" stroke-width="1.5" stroke-miterlimit="10"/>
</g>
<defs>
<clipPath id="clip0_1266_21082">
<rect width="1335.27" height="513.18" fill="white" transform="translate(0.27002 -52.8916)"/>
</clipPath>
</defs>
</svg>
