<svg width="136" height="40" viewBox="0 0 136 40" fill="none" xmlns="http://www.w3.org/2000/svg">
<path d="M134.5 34.7938C134.5 36.8721 132.781 38.5556 130.656 38.5556H4.84932C2.72463 38.5556 1 36.8721 1 34.7938V4.79412C1 2.71675 2.72463 1.02734 4.84932 1.02734H130.655C132.781 1.02734 134.499 2.71675 134.499 4.79412L134.5 34.7938Z" fill="white"/>
<path d="M130.25 1.07223C132.565 1.07223 134.449 2.90889 134.449 5.16602V34.416C134.449 36.6731 132.565 38.5098 130.25 38.5098H5.25C2.935 38.5098 1.05125 36.6731 1.05125 34.416V5.16602C1.05125 2.90889 2.935 1.07223 5.25 1.07223H130.25ZM130.25 0.291018H5.25C2.50125 0.291018 0.25 2.48599 0.25 5.16602V34.416C0.25 37.096 2.50125 39.291 5.25 39.291H130.25C132.999 39.291 135.25 37.096 135.25 34.416V5.16602C135.25 2.48599 132.999 0.291018 130.25 0.291018Z" fill="#A6A6A6"/>
<path d="M30.3771 19.5804C30.3481 16.4379 33.0161 14.9091 33.1381 14.838C31.6271 12.69 29.2851 12.3966 28.4621 12.3732C26.4951 12.1713 24.5871 13.5207 23.5851 13.5207C22.5631 13.5207 21.0201 12.3927 19.3571 12.4258C17.2171 12.458 15.2151 13.666 14.1171 15.5419C11.8511 19.3668 13.5411 24.9877 15.7121 28.0794C16.7981 29.5936 18.0671 31.2843 19.7281 31.2248C21.3531 31.1595 21.9601 30.2147 23.9211 30.2147C25.8641 30.2147 26.4341 31.2248 28.1281 31.1868C29.8721 31.1595 30.9701 29.6658 32.0181 28.1379C33.2731 26.4024 33.7771 24.6933 33.7971 24.6055C33.7561 24.5919 30.4101 23.3468 30.3771 19.5804Z" fill="black"/>
<path d="M27.1771 10.3393C28.0511 9.27364 28.6491 7.82381 28.4831 6.35254C27.2181 6.40714 25.6361 7.20566 24.7251 8.24794C23.9191 9.16639 23.1991 10.6718 23.3851 12.0875C24.8061 12.1908 26.2651 11.3884 27.1771 10.3393Z" fill="black"/>
<path d="M49.2998 10.0507C49.2998 11.1983 48.9468 12.0621 48.2418 12.6423C47.5888 13.1775 46.6608 13.4457 45.4588 13.4457C44.8628 13.4457 44.3528 13.4203 43.9258 13.3696V7.0994C44.4828 7.01165 45.0828 6.9668 45.7308 6.9668C46.8758 6.9668 47.7388 7.20957 48.3208 7.69512C48.9728 8.24405 49.2998 9.02892 49.2998 10.0507ZM48.1948 10.079C48.1948 9.33507 47.9928 8.7647 47.5888 8.3669C47.1848 7.97007 46.5948 7.77117 45.8178 7.77117C45.4878 7.77117 45.2068 7.79262 44.9738 7.83747V12.6042C45.1028 12.6237 45.3388 12.6325 45.6818 12.6325C46.4838 12.6325 47.1028 12.4151 47.5388 11.9802C47.9748 11.5454 48.1948 10.9116 48.1948 10.079Z" fill="black"/>
<path d="M55.158 11.0529C55.158 11.7597 54.951 12.3389 54.537 12.7932C54.103 13.2603 53.528 13.4933 52.81 13.4933C52.118 13.4933 51.567 13.27 51.156 12.8215C50.746 12.374 50.541 11.8095 50.541 11.1289C50.541 10.4172 50.752 9.83314 51.176 9.37977C51.6 8.92639 52.17 8.69922 52.888 8.69922C53.58 8.69922 54.136 8.92249 54.557 9.37002C54.957 9.80487 55.158 10.3665 55.158 11.0529ZM54.071 11.086C54.071 10.6619 53.977 10.2982 53.79 9.99499C53.57 9.62839 53.257 9.44509 52.85 9.44509C52.429 9.44509 52.109 9.62839 51.889 9.99499C51.701 10.2982 51.608 10.6677 51.608 11.1045C51.608 11.5287 51.702 11.8923 51.889 12.1956C52.116 12.5622 52.432 12.7455 52.84 12.7455C53.24 12.7455 53.554 12.5592 53.78 12.1858C53.974 11.8767 54.071 11.5101 54.071 11.086Z" fill="black"/>
<path d="M63.0136 8.79297L61.5386 13.3891H60.5786L59.9676 11.3933C59.8126 10.8951 59.6866 10.3998 59.5886 9.90837H59.5696C59.4786 10.4134 59.3526 10.9077 59.1906 11.3933L58.5416 13.3891H57.5706L56.1836 8.79297H57.2606L57.7936 10.9779C57.9226 11.4947 58.0286 11.9871 58.1136 12.4531H58.1326C58.2106 12.069 58.3396 11.5795 58.5216 10.9877L59.1906 8.79394H60.0446L60.6856 10.9409C60.8406 11.4645 60.9666 11.9685 61.0636 12.4541H61.0926C61.1636 11.9812 61.2706 11.4771 61.4126 10.9409L61.9846 8.79394H63.0136V8.79297Z" fill="black"/>
<path d="M68.4484 13.389H67.4004V10.7565C67.4004 9.94526 67.0844 9.53966 66.4504 9.53966C66.1394 9.53966 65.8884 9.65081 65.6934 9.87409C65.5004 10.0974 65.4024 10.3606 65.4024 10.6619V13.388H64.3544V10.1061C64.3544 9.70249 64.3414 9.26471 64.3164 8.79086H65.2374L65.2864 9.50944H65.3154C65.4374 9.28616 65.6194 9.10189 65.8584 8.95466C66.1424 8.78306 66.4604 8.69629 66.8084 8.69629C67.2484 8.69629 67.6144 8.83474 67.9054 9.11261C68.2674 9.45289 68.4484 9.96086 68.4484 10.6356V13.389Z" fill="black"/>
<path d="M71.338 13.3887H70.291V6.68359H71.338V13.3887Z" fill="black"/>
<path d="M77.5076 11.0529C77.5076 11.7597 77.3006 12.3389 76.8866 12.7932C76.4526 13.2603 75.8766 13.4933 75.1596 13.4933C74.4666 13.4933 73.9156 13.27 73.5056 12.8215C73.0956 12.374 72.8906 11.8095 72.8906 11.1289C72.8906 10.4172 73.1016 9.83314 73.5256 9.37977C73.9496 8.92639 74.5196 8.69922 75.2366 8.69922C75.9296 8.69922 76.4846 8.92249 76.9066 9.37002C77.3066 9.80487 77.5076 10.3665 77.5076 11.0529ZM76.4196 11.086C76.4196 10.6619 76.3256 10.2982 76.1386 9.99499C75.9196 9.62839 75.6056 9.44509 75.1996 9.44509C74.7776 9.44509 74.4576 9.62839 74.2386 9.99499C74.0506 10.2982 73.9576 10.6677 73.9576 11.1045C73.9576 11.5287 74.0516 11.8923 74.2386 12.1956C74.4656 12.5622 74.7816 12.7455 75.1896 12.7455C75.5896 12.7455 75.9026 12.5592 76.1286 12.1858C76.3236 11.8767 76.4196 11.5101 76.4196 11.086Z" fill="black"/>
<path d="M82.5809 13.389H81.6399L81.5619 12.8595H81.5329C81.2109 13.2817 80.7519 13.4933 80.1559 13.4933C79.7109 13.4933 79.3509 13.3539 79.0799 13.077C78.8339 12.8254 78.7109 12.5124 78.7109 12.141C78.7109 11.5794 78.9509 11.1513 79.4339 10.8549C79.9159 10.5585 80.5939 10.4133 81.4669 10.4201V10.3343C81.4669 9.72882 81.1409 9.42657 80.4879 9.42657C80.0229 9.42657 79.6129 9.54064 79.2589 9.76684L79.0459 9.09604C79.4839 8.83182 80.0249 8.69922 80.6629 8.69922C81.8949 8.69922 82.5129 9.33297 82.5129 10.6005V12.2931C82.5129 12.7523 82.5359 13.1179 82.5809 13.389ZM81.4929 11.8095V11.1006C80.3369 11.0811 79.7589 11.3902 79.7589 12.0269C79.7589 12.2667 79.8249 12.4461 79.9599 12.5661C80.0949 12.686 80.2669 12.7455 80.4719 12.7455C80.7019 12.7455 80.9169 12.6743 81.1129 12.5329C81.3099 12.3906 81.4309 12.2102 81.4759 11.9889C81.4869 11.9391 81.4929 11.8787 81.4929 11.8095Z" fill="black"/>
<path d="M88.5352 13.3887H87.6052L87.5561 12.6506H87.5271C87.2301 13.2122 86.7241 13.493 86.0132 13.493C85.4452 13.493 84.9722 13.2756 84.5972 12.8407C84.2222 12.4059 84.0352 11.8413 84.0352 11.1481C84.0352 10.4042 84.2382 9.80164 84.6462 9.34144C85.0412 8.91244 85.5251 8.69794 86.1011 8.69794C86.7341 8.69794 87.1771 8.90562 87.4291 9.32194H87.4491V6.68359H88.4981V12.1504C88.4981 12.5979 88.5102 13.0104 88.5352 13.3887ZM87.4491 11.4504V10.684C87.4491 10.5514 87.4391 10.4442 87.4201 10.3623C87.3611 10.1166 87.2341 9.90987 87.0411 9.74314C86.8461 9.57642 86.6111 9.49257 86.3401 9.49257C85.9491 9.49257 85.6431 9.64369 85.4182 9.94692C85.1952 10.2501 85.0822 10.6372 85.0822 11.1101C85.0822 11.5644 85.1892 11.933 85.4042 12.2167C85.6311 12.519 85.9371 12.6701 86.3201 12.6701C86.6641 12.6701 86.9392 12.5443 87.1482 12.2918C87.3502 12.0588 87.4491 11.778 87.4491 11.4504Z" fill="black"/>
<path d="M97.4979 11.0529C97.4979 11.7597 97.2909 12.3389 96.8769 12.7932C96.4429 13.2603 95.8689 13.4933 95.1499 13.4933C94.4589 13.4933 93.9079 13.27 93.4959 12.8215C93.0859 12.374 92.8809 11.8095 92.8809 11.1289C92.8809 10.4172 93.0919 9.83314 93.5159 9.37977C93.9399 8.92639 94.5099 8.69922 95.2289 8.69922C95.9199 8.69922 96.4769 8.92249 96.8969 9.37002C97.2969 9.80487 97.4979 10.3665 97.4979 11.0529ZM96.4119 11.086C96.4119 10.6619 96.3179 10.2982 96.1309 9.99499C95.9099 9.62839 95.5979 9.44509 95.1899 9.44509C94.7699 9.44509 94.4499 9.62839 94.2289 9.99499C94.0409 10.2982 93.9479 10.6677 93.9479 11.1045C93.9479 11.5287 94.0419 11.8923 94.2289 12.1956C94.4559 12.5622 94.7719 12.7455 95.1799 12.7455C95.5799 12.7455 95.8949 12.5592 96.1209 12.1858C96.3139 11.8767 96.4119 11.5101 96.4119 11.086Z" fill="black"/>
<path d="M103.133 13.389H102.086V10.7565C102.086 9.94526 101.77 9.53966 101.135 9.53966C100.824 9.53966 100.573 9.65081 100.379 9.87409C100.185 10.0974 100.088 10.3606 100.088 10.6619V13.388H99.039V10.1061C99.039 9.70249 99.027 9.26471 99.002 8.79086H99.9219L99.971 9.50944H100C100.123 9.28616 100.305 9.10189 100.543 8.95466C100.828 8.78306 101.145 8.69629 101.494 8.69629C101.933 8.69629 102.299 8.83474 102.59 9.11261C102.953 9.45289 103.133 9.96086 103.133 10.6356V13.389Z" fill="black"/>
<path d="M110.185 9.55749H109.031V11.7902C109.031 12.3577 109.236 12.6414 109.642 12.6414C109.83 12.6414 109.986 12.6258 110.109 12.5936L110.136 13.3688C109.929 13.4448 109.657 13.4828 109.322 13.4828C108.908 13.4828 108.586 13.36 108.353 13.1143C108.119 12.8686 108.003 12.4552 108.003 11.8751V9.55749H107.314V8.79211H108.003V7.94971L109.03 7.64746V8.79114H110.184V9.55749H110.185Z" fill="black"/>
<path d="M115.735 13.3887H114.686V10.7757C114.686 9.95179 114.37 9.53937 113.737 9.53937C113.251 9.53937 112.919 9.77824 112.737 10.256C112.706 10.3564 112.688 10.4793 112.688 10.6236V13.3877H111.641V6.68359H112.688V9.45357H112.708C113.038 8.94949 113.511 8.69794 114.124 8.69794C114.558 8.69794 114.917 8.83639 115.202 9.11427C115.557 9.46039 115.735 9.97519 115.735 10.6557V13.3887Z" fill="black"/>
<path d="M121.457 10.8735C121.457 11.0568 121.443 11.2108 121.418 11.3366H118.275C118.289 11.7909 118.439 12.1371 118.73 12.3769C118.996 12.5914 119.339 12.6987 119.759 12.6987C120.224 12.6987 120.648 12.6265 121.03 12.4812L121.194 13.191C120.747 13.3802 120.221 13.4748 119.612 13.4748C118.882 13.4748 118.307 13.2651 117.891 12.8459C117.473 12.4266 117.266 11.8641 117.266 11.1582C117.266 10.4649 117.459 9.88773 117.848 9.42753C118.254 8.93613 118.803 8.69043 119.496 8.69043C120.174 8.69043 120.689 8.93613 121.037 9.42753C121.318 9.81753 121.457 10.3002 121.457 10.8735ZM120.457 10.6092C120.465 10.306 120.396 10.0447 120.254 9.82435C120.072 9.54063 119.795 9.39828 119.42 9.39828C119.078 9.39828 118.799 9.53673 118.586 9.8146C118.412 10.0359 118.309 10.3002 118.275 10.6092H120.457Z" fill="black"/>
<path d="M53.8952 31.0075H51.6242L50.3802 27.1963H46.0562L44.8712 31.0075H42.6602L46.9442 18.0322H49.5902L53.8952 31.0075ZM50.0052 25.5973L48.8802 22.2091C48.7612 21.863 48.5382 21.0479 48.2092 19.7648H48.1692C48.0382 20.3167 47.8272 21.1318 47.5372 22.2091L46.4322 25.5973H50.0052Z" fill="black"/>
<path d="M64.9129 26.2141C64.9129 27.8053 64.4719 29.063 63.5899 29.9863C62.7999 30.8083 61.8189 31.2187 60.6479 31.2187C59.3839 31.2187 58.4759 30.7761 57.9229 29.8908H57.8829V34.8194H55.7509V24.7311C55.7509 23.7307 55.7239 22.7041 55.6719 21.6511H57.5469L57.6659 23.134H57.7059C58.4169 22.0167 59.4959 21.459 60.9439 21.459C62.0759 21.459 63.0209 21.8948 63.7769 22.7674C64.5349 23.641 64.9129 24.7896 64.9129 26.2141ZM62.7409 26.2901C62.7409 25.3795 62.5309 24.6287 62.1089 24.0379C61.6479 23.4217 61.0289 23.1136 60.2529 23.1136C59.7269 23.1136 59.2489 23.2852 58.8219 23.6235C58.3939 23.9647 58.1139 24.4103 57.9829 24.9622C57.9169 25.2196 57.8839 25.4302 57.8839 25.5959V27.1559C57.8839 27.8365 58.0979 28.4107 58.5259 28.8797C58.9539 29.3487 59.5099 29.5827 60.1939 29.5827C60.9969 29.5827 61.6219 29.2804 62.0689 28.6779C62.5169 28.0744 62.7409 27.2788 62.7409 26.2901Z" fill="black"/>
<path d="M75.949 26.2141C75.949 27.8053 75.508 29.063 74.625 29.9863C73.836 30.8083 72.855 31.2187 71.684 31.2187C70.42 31.2187 69.512 30.7761 68.96 29.8908H68.92V34.8194H66.788V24.7311C66.788 23.7307 66.761 22.7041 66.709 21.6511H68.584L68.703 23.134H68.743C69.453 22.0167 70.532 21.459 71.981 21.459C73.112 21.459 74.057 21.8948 74.815 22.7674C75.57 23.641 75.949 24.7896 75.949 26.2141ZM73.777 26.2901C73.777 25.3795 73.566 24.6287 73.144 24.0379C72.683 23.4217 72.066 23.1136 71.289 23.1136C70.762 23.1136 70.285 23.2852 69.857 23.6235C69.429 23.9647 69.15 24.4103 69.019 24.9622C68.954 25.2196 68.92 25.4302 68.92 25.5959V27.1559C68.92 27.8365 69.134 28.4107 69.56 28.8797C69.988 29.3477 70.544 29.5827 71.23 29.5827C72.033 29.5827 72.658 29.2804 73.105 28.6779C73.553 28.0744 73.777 27.2788 73.777 26.2901Z" fill="black"/>
<path d="M88.2892 27.3685C88.2892 28.4722 87.8962 29.3702 87.1072 30.0634C86.2402 30.821 85.0332 31.1993 83.4822 31.1993C82.0502 31.1993 80.9022 30.9302 80.0332 30.391L80.5272 28.6584C81.4632 29.2103 82.4902 29.4872 83.6092 29.4872C84.4122 29.4872 85.0372 29.3097 85.4862 28.9568C85.9332 28.6038 86.1562 28.13 86.1562 27.5391C86.1562 27.0126 85.9722 26.569 85.6032 26.2092C85.2362 25.8495 84.6232 25.515 83.7672 25.206C81.4372 24.3587 80.2732 23.1175 80.2732 21.4854C80.2732 20.4187 80.6812 19.5441 81.4982 18.8636C82.3122 18.1821 83.3982 17.8418 84.7562 17.8418C85.9672 17.8418 86.9732 18.0475 87.7762 18.458L87.2432 20.1525C86.4932 19.7547 85.6452 19.5558 84.6962 19.5558C83.9462 19.5558 83.3602 19.7362 82.9402 20.095C82.5852 20.4158 82.4072 20.8068 82.4072 21.2699C82.4072 21.7827 82.6102 22.2069 83.0182 22.5403C83.3732 22.8484 84.0182 23.1819 84.9542 23.5416C86.0992 23.9911 86.9402 24.5166 87.4812 25.1192C88.0202 25.7198 88.2892 26.4715 88.2892 27.3685Z" fill="black"/>
<path d="M95.3381 23.2115H92.9881V27.7541C92.9881 28.9094 93.4021 29.4866 94.2321 29.4866C94.6131 29.4866 94.9291 29.4545 95.1791 29.3901L95.2381 30.9686C94.8181 31.1217 94.2651 31.1987 93.5801 31.1987C92.7381 31.1987 92.0801 30.9482 91.6051 30.448C91.1321 29.9468 90.8941 29.1064 90.8941 27.9257V23.2096H89.4941V21.6496H90.8941V19.9365L92.9881 19.3203V21.6496H95.3381V23.2115Z" fill="black"/>
<path d="M105.942 26.2521C105.942 27.6902 105.52 28.8709 104.678 29.7943C103.795 30.7449 102.623 31.2187 101.162 31.2187C99.754 31.2187 98.633 30.7634 97.797 29.8528C96.961 28.9421 96.543 27.7926 96.543 26.4071C96.543 24.9573 96.973 23.7697 97.836 22.8464C98.697 21.9221 99.859 21.46 101.32 21.46C102.728 21.46 103.861 21.9153 104.716 22.8269C105.534 23.7112 105.942 24.853 105.942 26.2521ZM103.73 26.3194C103.73 25.4565 103.541 24.7165 103.158 24.0993C102.711 23.3524 102.072 22.98 101.244 22.98C100.387 22.98 99.736 23.3534 99.289 24.0993C98.906 24.7174 98.717 25.4692 98.717 26.3584C98.717 27.2212 98.906 27.9613 99.289 28.5775C99.75 29.3243 100.394 29.6968 101.225 29.6968C102.039 29.6968 102.678 29.3165 103.139 28.558C103.532 27.9291 103.73 27.1813 103.73 26.3194Z" fill="black"/>
<path d="M112.87 23.4792C112.659 23.4412 112.434 23.4217 112.198 23.4217C111.448 23.4217 110.868 23.6976 110.46 24.2504C110.105 24.7379 109.927 25.3541 109.927 26.098V31.0072H107.796L107.816 24.5975C107.816 23.5192 107.789 22.5373 107.736 21.652H109.593L109.671 23.4421H109.73C109.955 22.8269 110.31 22.3316 110.796 21.9601C111.271 21.6257 111.784 21.459 112.337 21.459C112.534 21.459 112.712 21.4726 112.87 21.497V23.4792Z" fill="black"/>
<path d="M122.407 25.8864C122.407 26.2589 122.382 26.5728 122.329 26.8293H115.933C115.958 27.7536 116.267 28.4604 116.861 28.9479C117.4 29.3838 118.097 29.6022 118.953 29.6022C119.9 29.6022 120.764 29.4549 121.541 29.1595L121.875 30.6025C120.967 30.9886 119.895 31.1807 118.658 31.1807C117.17 31.1807 116.002 30.7536 115.152 29.9005C114.304 29.0474 113.879 27.9018 113.879 26.4646C113.879 25.0538 114.274 23.8789 115.065 22.9419C115.893 21.9416 117.012 21.4414 118.42 21.4414C119.803 21.4414 120.85 21.9416 121.561 22.9419C122.124 23.7366 122.407 24.7194 122.407 25.8864ZM120.374 25.3473C120.388 24.7311 120.249 24.1987 119.96 23.7492C119.591 23.1711 119.024 22.8825 118.261 22.8825C117.564 22.8825 116.997 23.1642 116.564 23.7297C116.209 24.1792 115.998 24.7184 115.933 25.3463H120.374V25.3473Z" fill="black"/>
</svg>
