<svg width="136" height="40" viewBox="0 0 136 40" fill="none" xmlns="http://www.w3.org/2000/svg">
<path d="M130.75 39.291H5.75C3.00125 39.291 0.75 37.096 0.75 34.416V5.16602C0.75 2.48599 3.00125 0.291018 5.75 0.291018H130.75C133.499 0.291018 135.75 2.48599 135.75 5.16602V34.416C135.75 37.096 133.499 39.291 130.75 39.291Z" fill="white"/>
<path d="M130.75 1.07223C133.065 1.07223 134.949 2.90889 134.949 5.16602V34.416C134.949 36.6731 133.065 38.5098 130.75 38.5098H5.75C3.435 38.5098 1.55125 36.6731 1.55125 34.416V5.16602C1.55125 2.90889 3.435 1.07223 5.75 1.07223H130.75ZM130.75 0.291018H5.75C3.00125 0.291018 0.75 2.48599 0.75 5.16602V34.416C0.75 37.096 3.00125 39.291 5.75 39.291H130.75C133.499 39.291 135.75 37.096 135.75 34.416V5.16602C135.75 2.48599 133.499 0.291018 130.75 0.291018Z" fill="#A6A6A6"/>
<path d="M11.1845 7.64159C10.8907 7.9414 10.7207 8.40818 10.7207 9.01268V30.5748C10.7207 31.1793 10.8907 31.6461 11.1845 31.9459L11.257 32.0117L23.6494 19.9339V19.6487L11.257 7.57091L11.1845 7.64159Z" fill="url(#paint0_linear_7466_43910)"/>
<path d="M27.7747 23.9629L23.6484 19.9349V19.6497L27.7797 15.6218L27.8722 15.6742L32.7647 18.3883C34.1609 19.1586 34.1609 20.4261 32.7647 21.2012L27.8722 23.9105L27.7747 23.9629Z" fill="url(#paint1_linear_7466_43910)"/>
<path d="M27.8743 23.9102L23.6505 19.792L11.1855 31.9466C11.6493 32.4219 12.4055 32.4792 13.2655 32.0039L27.8743 23.9102Z" fill="url(#paint2_linear_7466_43910)"/>
<path d="M27.8743 15.6738L13.2655 7.58012C12.4055 7.10968 11.6493 7.16696 11.1855 7.64227L23.6505 19.792L27.8743 15.6738Z" fill="url(#paint3_linear_7466_43910)"/>
<path d="M48.1685 10.2777C48.1685 11.0918 47.9185 11.7438 47.426 12.2301C46.8598 12.8066 46.1223 13.0966 45.2185 13.0966C44.3548 13.0966 43.6173 12.8017 43.0123 12.2204C42.406 11.6305 42.1035 10.9066 42.1035 10.04C42.1035 9.17349 42.406 8.44955 43.0123 7.86456C43.6173 7.27834 44.3548 6.9834 45.2185 6.9834C45.6485 6.9834 46.0585 7.06993 46.4498 7.2308C46.8398 7.3929 47.1573 7.61227 47.3873 7.88284L46.8648 8.39715C46.4635 7.93524 45.9173 7.70734 45.2185 7.70734C44.5885 7.70734 44.0423 7.92184 43.5785 8.35449C43.1198 8.78837 42.8898 9.35021 42.8898 10.04C42.8898 10.7298 43.1198 11.2966 43.5785 11.7304C44.0423 12.1582 44.5885 12.3776 45.2185 12.3776C45.8873 12.3776 46.4498 12.1582 46.8935 11.7256C47.186 11.4391 47.3523 11.0443 47.396 10.5397H45.2185V9.83527H48.1235C48.1585 9.98762 48.1685 10.1351 48.1685 10.2777Z" fill="black" stroke="black" stroke-width="0.12" stroke-miterlimit="10"/>
<path d="M52.7766 7.83503H50.0479V9.68753H52.5079V10.392H50.0479V12.2445H52.7766V12.9623H49.2754V7.11719H52.7766V7.83503Z" fill="black" stroke="black" stroke-width="0.12" stroke-miterlimit="10"/>
<path d="M56.0302 12.9623H55.2577V7.83503H53.584V7.11719H57.7052V7.83503H56.0302V12.9623Z" fill="black" stroke="black" stroke-width="0.12" stroke-miterlimit="10"/>
<path d="M60.6875 12.9623V7.11719H61.4588V12.9623H60.6875Z" fill="black" stroke="black" stroke-width="0.12" stroke-miterlimit="10"/>
<path d="M64.8779 12.9623H64.1116V7.83503H62.4316V7.11719H66.5579V7.83503H64.8779V12.9623Z" fill="black" stroke="black" stroke-width="0.12" stroke-miterlimit="10"/>
<path d="M74.3599 12.2106C73.7687 12.8017 73.0362 13.0966 72.1624 13.0966C71.2837 13.0966 70.5512 12.8017 69.9599 12.2106C69.3699 11.6207 69.0762 10.8968 69.0762 10.04C69.0762 9.18324 69.3699 8.4593 69.9599 7.86943C70.5512 7.27834 71.2837 6.9834 72.1624 6.9834C73.0312 6.9834 73.7637 7.27834 74.3549 7.8743C74.9499 8.46905 75.2437 9.18812 75.2437 10.04C75.2437 10.8968 74.9499 11.6207 74.3599 12.2106ZM70.5312 11.7207C70.9762 12.1582 71.5174 12.3776 72.1624 12.3776C72.8024 12.3776 73.3487 12.1582 73.7887 11.7207C74.2324 11.2831 74.4574 10.7213 74.4574 10.04C74.4574 9.35874 74.2324 8.7969 73.7887 8.35937C73.3487 7.92184 72.8024 7.70246 72.1624 7.70246C71.5174 7.70246 70.9762 7.92184 70.5312 8.35937C70.0874 8.7969 69.8624 9.35874 69.8624 10.04C69.8624 10.7213 70.0874 11.2831 70.5312 11.7207Z" fill="black" stroke="black" stroke-width="0.12" stroke-miterlimit="10"/>
<path d="M76.3262 12.9623V7.11719H77.2637L80.1787 11.6631H80.2124L80.1787 10.5394V7.11719H80.9499V12.9623H80.1449L77.0924 8.19212H77.0587L77.0924 9.32069V12.9623H76.3262Z" fill="black" stroke="black" stroke-width="0.12" stroke-miterlimit="10"/>
<path d="M68.8841 21.4997C66.5353 21.4997 64.6166 23.2425 64.6166 25.6471C64.6166 28.0322 66.5353 29.7933 68.8841 29.7933C71.2378 29.7933 73.1566 28.0322 73.1566 25.6471C73.1566 23.2425 71.2378 21.4997 68.8841 21.4997ZM68.8841 28.1602C67.5953 28.1602 66.4866 27.123 66.4866 25.6471C66.4866 24.1517 67.5953 23.1329 68.8841 23.1329C70.1728 23.1329 71.2866 24.1517 71.2866 25.6471C71.2866 27.123 70.1728 28.1602 68.8841 28.1602ZM59.5728 21.4997C57.2191 21.4997 55.3053 23.2425 55.3053 25.6471C55.3053 28.0322 57.2191 29.7933 59.5728 29.7933C61.9253 29.7933 63.8403 28.0322 63.8403 25.6471C63.8403 23.2425 61.9253 21.4997 59.5728 21.4997ZM59.5728 28.1602C58.2828 28.1602 57.1703 27.123 57.1703 25.6471C57.1703 24.1517 58.2828 23.1329 59.5728 23.1329C60.8616 23.1329 61.9703 24.1517 61.9703 25.6471C61.9703 27.123 60.8616 28.1602 59.5728 28.1602ZM48.4928 22.7709V24.5332H52.8091C52.6828 25.5179 52.3453 26.2419 51.8278 26.7464C51.1978 27.3558 50.2166 28.0322 48.4928 28.0322C45.8366 28.0322 43.7566 25.9421 43.7566 23.3522C43.7566 20.7624 45.8366 18.6722 48.4928 18.6722C49.9291 18.6722 50.9741 19.2194 51.7453 19.9288L53.0191 18.6869C51.9403 17.6826 50.5053 16.9111 48.4928 16.9111C44.8503 16.9111 41.7891 19.8008 41.7891 23.3522C41.7891 26.9037 44.8503 29.7933 48.4928 29.7933C50.4616 29.7933 51.9403 29.1644 53.1028 27.9847C54.2941 26.8232 54.6653 25.1901 54.6653 23.8714C54.6653 23.4619 54.6303 23.0853 54.5678 22.7709H48.4928ZM93.8003 24.1371C93.449 23.2096 92.3653 21.4997 90.1578 21.4997C87.9703 21.4997 86.149 23.1804 86.149 25.6471C86.149 27.9701 87.9515 29.7933 90.3678 29.7933C92.3215 29.7933 93.449 28.6319 93.9128 27.9554L92.4628 27.0134C91.979 27.7032 91.3203 28.1602 90.3678 28.1602C89.4215 28.1602 88.7428 27.7373 88.3078 26.9037L93.9965 24.6088L93.8003 24.1371ZM88.0003 25.5179C87.9516 23.9189 89.2741 23.0999 90.2216 23.0999C90.964 23.0999 91.594 23.4619 91.804 23.9799L88.0003 25.5179ZM83.3765 29.541H85.2465V17.3535H83.3765V29.541ZM80.3141 22.4235H80.2515C79.8315 21.9385 79.0303 21.4997 78.0153 21.4997C75.8853 21.4997 73.9378 23.323 73.9378 25.6605C73.9378 27.9847 75.8853 29.7933 78.0153 29.7933C79.0303 29.7933 79.8315 29.3509 80.2515 28.8512H80.3141V29.446C80.3141 31.0316 79.4453 31.8835 78.044 31.8835C76.9016 31.8835 76.1928 31.0791 75.9003 30.4027L74.2741 31.0645C74.7428 32.1638 75.9841 33.5166 78.044 33.5166C80.2365 33.5166 82.0866 32.2589 82.0866 29.1986V21.752H80.3141V22.4235ZM78.1753 28.1602C76.8866 28.1602 75.8078 27.1084 75.8078 25.6605C75.8078 24.1993 76.8866 23.1329 78.1753 23.1329C79.4453 23.1329 80.4466 24.1993 80.4466 25.6605C80.4466 27.1084 79.4453 28.1602 78.1753 28.1602ZM102.555 17.3535H98.0828V29.541H99.9478V24.9232H102.555C104.627 24.9232 106.658 23.4619 106.658 21.1378C106.658 18.8148 104.622 17.3535 102.555 17.3535ZM102.604 23.2279H99.9478V19.0488H102.604C103.997 19.0488 104.792 20.1762 104.792 21.1378C104.792 22.0811 103.997 23.2279 102.604 23.2279ZM114.133 21.4766C112.785 21.4766 111.384 22.0567 110.808 23.3425L112.463 24.0189C112.819 23.3425 113.474 23.1231 114.167 23.1231C115.134 23.1231 116.115 23.6898 116.13 24.6904V24.8184C115.793 24.6283 115.07 24.3467 114.182 24.3467C112.399 24.3467 110.583 25.3034 110.583 27.0889C110.583 28.722 112.043 29.7738 113.684 29.7738C114.939 29.7738 115.632 29.2217 116.067 28.5794H116.13V29.5215H117.932V24.8464C117.932 22.6856 116.277 21.4766 114.133 21.4766ZM113.908 28.1553C113.298 28.1553 112.448 27.8604 112.448 27.123C112.448 26.1797 113.508 25.8178 114.425 25.8178C115.247 25.8178 115.632 25.9945 116.13 26.2273C115.984 27.3558 114.988 28.1553 113.908 28.1553ZM124.494 21.7435L122.35 27.0268H122.287L120.07 21.7435H118.059L121.389 29.1267L119.489 33.2351H121.438L126.569 21.7435H124.494ZM107.683 29.541H109.553V17.3535H107.683V29.541Z" fill="black"/>
<defs>
<linearGradient id="paint0_linear_7466_43910" x1="22.5491" y1="30.7994" x2="6.19155" y2="14.0223" gradientUnits="userSpaceOnUse">
<stop stop-color="#00A0FF"/>
<stop offset="0.0066" stop-color="#00A1FF"/>
<stop offset="0.2601" stop-color="#00BEFF"/>
<stop offset="0.5122" stop-color="#00D2FF"/>
<stop offset="0.7604" stop-color="#00DFFF"/>
<stop offset="1" stop-color="#00E3FF"/>
</linearGradient>
<linearGradient id="paint1_linear_7466_43910" x1="34.5828" y1="19.791" x2="10.3859" y2="19.791" gradientUnits="userSpaceOnUse">
<stop stop-color="#FFE000"/>
<stop offset="0.4087" stop-color="#FFBD00"/>
<stop offset="0.7754" stop-color="#FFA500"/>
<stop offset="1" stop-color="#FF9C00"/>
</linearGradient>
<linearGradient id="paint2_linear_7466_43910" x1="25.5775" y1="17.5533" x2="3.39531" y2="-5.1977" gradientUnits="userSpaceOnUse">
<stop stop-color="#FF3A44"/>
<stop offset="1" stop-color="#C31162"/>
</linearGradient>
<linearGradient id="paint3_linear_7466_43910" x1="8.04785" y1="39.1202" x2="17.9532" y2="28.9609" gradientUnits="userSpaceOnUse">
<stop stop-color="#32A071"/>
<stop offset="0.0685" stop-color="#2DA771"/>
<stop offset="0.4762" stop-color="#15CF74"/>
<stop offset="0.8009" stop-color="#06E775"/>
<stop offset="1" stop-color="#00F076"/>
</linearGradient>
</defs>
</svg>
