<svg width="36" height="56" viewBox="0 0 36 56" fill="none" xmlns="http://www.w3.org/2000/svg">
<path d="M-5.03711e-05 39.4189C-5.08019e-05 48.058 7.98942 55.0613 17.8449 55.0613C27.7005 55.0613 35.6899 48.058 35.6899 39.4189C35.6899 30.7798 27.7005 23.7765 17.8449 23.7765C7.98943 23.7765 -4.99403e-05 30.7798 -5.03711e-05 39.4189Z" fill="#3478F5" fill-opacity="0.2"/>
<path d="M9.27945 39.4191C9.27945 43.5659 13.1144 46.9275 17.845 46.9275C22.5757 46.9275 26.4106 43.5659 26.4106 39.4191C26.4106 35.2723 22.5757 31.9107 17.845 31.9107C13.1144 31.9107 9.27945 35.2723 9.27945 39.4191Z" fill="white"/>
<path d="M10.7069 39.4187C10.7069 42.8743 13.9027 45.6757 17.8449 45.6757C21.7871 45.6757 24.9829 42.8743 24.9829 39.4187C24.9829 35.9631 21.7871 33.1617 17.8449 33.1617C13.9027 33.1617 10.7069 35.9631 10.7069 39.4187Z" fill="#3478F5"/>
<path fill-rule="evenodd" clip-rule="evenodd" d="M26.4104 42.5476L29.2656 39.4191L26.4104 36.2906C26.7378 37.2781 26.9144 38.329 26.9144 39.4191C26.9144 40.5092 26.7378 41.5601 26.4104 42.5476Z" fill="#3478F5"/>
<path fill-rule="evenodd" clip-rule="evenodd" d="M17.8448 -6.10352e-05C26.1234 -6.10352e-05 32.8346 5.88275 32.8346 13.1396C32.8346 19.9743 26.8814 25.5902 19.2724 26.2204V40.0445C19.2724 40.7357 18.6332 41.2959 17.8448 41.2959C17.0563 41.2959 16.4172 40.7357 16.4172 40.0445V26.2204C8.80817 25.5902 2.85498 19.9743 2.85498 13.1396C2.85498 5.88275 9.56614 -6.10352e-05 17.8448 -6.10352e-05Z" fill="black"/>
<path d="M22.8413 13.1396C22.8413 10.7206 20.6043 8.7597 17.8447 8.7597C15.0852 8.7597 12.8481 10.7206 12.8481 13.1396C12.8481 15.5585 15.0852 17.5195 17.8447 17.5195C20.6043 17.5195 22.8413 15.5585 22.8413 13.1396Z" fill="white"/>
<path opacity="0.3" d="M17.8449 42.5474C19.816 42.5474 21.4139 41.847 21.4139 40.9831C21.4139 40.1192 19.816 39.4189 17.8449 39.4189C15.8738 39.4189 14.2759 40.1192 14.2759 40.9831C14.2759 41.847 15.8738 42.5474 17.8449 42.5474Z" fill="black"/>
</svg>
