<svg width="18" height="19" viewBox="0 0 18 19" fill="none" xmlns="http://www.w3.org/2000/svg">
<path d="M15.3865 7.85925L9.76148 2.55206C9.75873 2.54966 9.75615 2.54708 9.75375 2.54433C9.54665 2.35598 9.27677 2.25162 8.99684 2.25162C8.7169 2.25162 8.44702 2.35598 8.23992 2.54433L8.23219 2.55206L2.61352 7.85925C2.4989 7.96464 2.40742 8.09267 2.34485 8.23525C2.28227 8.37782 2.24998 8.53183 2.25 8.68753V15.1879C2.25 15.4863 2.36853 15.7724 2.5795 15.9834C2.79048 16.1944 3.07663 16.3129 3.375 16.3129H14.625C14.9234 16.3129 15.2095 16.1944 15.4205 15.9834C15.6315 15.7724 15.75 15.4863 15.75 15.1879V8.68753C15.75 8.53183 15.7177 8.37782 15.6552 8.23525C15.5926 8.09267 15.5011 7.96464 15.3865 7.85925ZM14.625 15.1879H3.375V8.68753L3.38273 8.6805L9 3.37542L14.618 8.67909L14.6257 8.68612L14.625 15.1879Z" fill="#18181B"/>
</svg>
