<svg width="53" height="37" viewBox="0 0 53 37" fill="none" xmlns="http://www.w3.org/2000/svg">
<g clip-path="url(#clip0_792_21545)">
<path d="M37.5813 22.9227C37.4187 22.5686 37.0762 22.3489 36.686 22.3489H33.645V5.01237C33.645 4.24491 33.0214 3.62125 32.2546 3.62125H25.8736C25.1061 3.62125 24.481 4.24563 24.481 5.01237V6.47647C21.9243 4.5954 18.8226 3.56995 15.6227 3.56995C7.38008 3.56995 0.673828 10.2682 0.673828 18.5007C0.673828 26.7332 7.38008 33.4301 15.6234 33.4301C19.3205 33.4301 22.8305 32.0874 25.5751 29.6383L28.6269 33.1786C28.7367 33.3058 28.8957 33.3788 29.0641 33.3788C29.2318 33.3788 29.3915 33.3058 29.5013 33.1786L33.7585 28.2414L37.4325 23.977C37.6883 23.6807 37.7454 23.2753 37.5813 22.9227Z" fill="#F9AF38"/>
<path d="M15.6234 30.6638C8.90777 30.6638 3.44377 25.2077 3.44377 18.5007C3.44377 11.7931 8.90777 6.33555 15.6234 6.33555C18.9903 6.33555 22.1967 7.7404 24.4817 10.1555V6.47647C21.925 4.5954 18.8233 3.56995 15.6234 3.56995C7.38008 3.56995 0.673828 10.2682 0.673828 18.5007C0.673828 26.7332 7.38008 33.4301 15.6234 33.4301C19.3205 33.4301 22.8305 32.0874 25.5751 29.6383L23.7692 27.5433C21.5297 29.5603 18.66 30.6638 15.6234 30.6638Z" fill="#FFD241"/>
<path d="M20.6939 23.9763C20.441 23.6844 20.3831 23.2819 20.5436 22.9263C20.545 22.9234 20.5465 22.9205 20.5479 22.9177C20.7134 22.5679 21.0552 22.3504 21.4404 22.3504H24.4813V10.1563C22.1963 7.74115 18.9899 6.3363 15.623 6.3363C8.90736 6.3363 3.44336 11.7938 3.44336 18.5015C3.44336 25.2085 8.90736 30.6645 15.623 30.6645C18.6603 30.6645 21.5293 29.561 23.7688 27.5434L20.6939 23.9763Z" fill="#F9AF38"/>
<path d="M2.05771 18.5007C2.05771 10.4995 8.3918 3.94934 16.3143 3.58657C16.0845 3.57573 15.8539 3.56995 15.6227 3.56995C7.38008 3.56995 0.673828 10.2682 0.673828 18.5007C0.673828 26.7332 7.38008 33.4301 15.6234 33.4301C15.8576 33.4301 16.0917 33.4243 16.3244 33.4142C8.39686 33.0558 2.05771 26.5042 2.05771 18.5007Z" fill="#FFDB76"/>
<path d="M26.7166 5.01233C26.7166 4.24487 27.341 3.62122 28.1092 3.62122H25.874C25.1065 3.62122 24.4814 4.24559 24.4814 5.01233V22.3496H26.7166V5.01233Z" fill="#FF8C95"/>
<path d="M22.9295 23.9763C22.6766 23.6844 22.6188 23.2818 22.7792 22.9263C22.7807 22.9234 22.7821 22.9205 22.7836 22.9176C22.9491 22.5679 23.2909 22.3503 23.676 22.3503H21.4409C21.0557 22.3503 20.7139 22.5679 20.5484 22.9176C20.5469 22.9205 20.5455 22.9234 20.5441 22.9263C20.3829 23.2818 20.4414 23.6851 20.6944 23.9763L28.6262 33.1786C28.7361 33.3058 28.8951 33.3788 29.0634 33.3788C29.2311 33.3788 29.3908 33.3058 29.5007 33.1786L30.1814 32.3895L22.9295 23.9763Z" fill="#FF8C95"/>
<path d="M15.6939 13.5534C14.9734 13.5534 14.2407 13.7413 13.69 14.2248C13.2976 14.5709 13.0244 15.05 12.9876 15.5776C12.8842 17.0308 14.4524 17.4876 15.6318 17.4984C16.8986 17.5121 18.2051 17.8352 19.1482 18.7247C19.9352 19.4655 20.3305 20.4902 20.2546 21.5655C20.1809 22.6155 19.6649 23.5832 18.8772 24.2776C18.2116 24.8623 17.4059 25.2128 16.5517 25.3623V26.8293C16.5517 27.3265 16.1456 27.7327 15.6477 27.7327H15.4482C14.9525 27.7327 14.5463 27.3265 14.5463 26.8293V25.3392C13.4746 25.108 12.5171 24.5046 11.8422 23.6424C11.6651 23.4177 11.608 23.1517 11.6767 22.8721C11.7453 22.5946 11.9202 22.3836 12.1818 22.2672L12.3675 22.1827C12.7484 22.0107 13.1827 22.114 13.4443 22.4392C13.9494 23.065 14.7183 23.4459 15.5494 23.4459C16.2699 23.4459 17.0026 23.258 17.5533 22.7745C17.9457 22.4305 18.2189 21.9492 18.2557 21.4239C18.3591 19.9684 16.7909 19.5139 15.6115 19.5002C14.3447 19.4886 13.0382 19.1656 12.0951 18.276C11.3081 17.5331 10.9128 16.5084 10.9887 15.4352C11.0624 14.383 11.5784 13.4154 12.3661 12.7231C13.0316 12.1363 13.8374 11.7858 14.6916 11.6362V10.1692C14.6916 9.67203 15.0977 9.26807 15.5956 9.26807H15.7951C16.2908 9.26807 16.697 9.67131 16.697 10.1692V11.6593C17.7687 11.8935 18.7262 12.494 19.4011 13.3561C19.5782 13.5809 19.6353 13.849 19.5666 14.1265C19.498 14.404 19.3231 14.615 19.0615 14.7313L18.8758 14.8159C18.4949 14.9879 18.0606 14.8846 17.799 14.5594C17.2939 13.9343 16.525 13.5534 15.6939 13.5534Z" fill="#FFD241"/>
<path d="M15.3203 26.8287V25.3385C14.2486 25.1073 13.2911 24.5039 12.6161 23.6417C12.4391 23.417 12.382 23.1511 12.4506 22.8714C12.5193 22.5939 12.6942 22.3829 12.9558 22.2665L13.1278 22.1878C12.8943 22.0757 12.6197 22.0685 12.3675 22.1827L12.1818 22.2672C11.9202 22.3843 11.7453 22.5953 11.6767 22.8721C11.608 23.1518 11.6651 23.4177 11.8422 23.6425C12.5171 24.5046 13.4739 25.1073 14.5463 25.3393V26.8294C14.5463 27.3266 14.9525 27.7327 15.4482 27.7327H15.6477C15.7488 27.7327 15.8457 27.7154 15.9367 27.6843C15.5805 27.5643 15.3203 27.2261 15.3203 26.8287Z" fill="#FFDB76"/>
<path d="M17.7989 14.5601C18.0605 14.8853 18.4941 14.9886 18.8757 14.8167L18.8894 14.8101C18.7702 14.7531 18.6618 14.6692 18.5729 14.5587C18.0678 13.9328 17.2989 13.552 16.4678 13.552C16.324 13.552 16.1802 13.56 16.0371 13.5758C16.7345 13.6655 17.3646 14.0217 17.7989 14.5601Z" fill="#FFDB76"/>
<path d="M12.0951 18.2767C13.0382 19.1663 14.3447 19.4893 15.6115 19.5009C16.7916 19.5146 18.3591 19.9685 18.2557 21.4246C18.2189 21.9493 17.9457 22.4313 17.5533 22.7753C17.1125 23.1626 16.5546 23.3599 15.9801 23.4235C16.0928 23.4379 16.2077 23.4459 16.3234 23.4459C17.0438 23.4459 17.7766 23.258 18.3273 22.7745C18.7197 22.4305 18.9929 21.9493 19.0297 21.4239C19.133 19.9685 17.5649 19.5139 16.3855 19.5002C15.1187 19.4886 13.8121 19.1656 12.8691 18.276C12.0821 17.5331 11.6868 16.5084 11.7627 15.4352C11.8364 14.383 12.3524 13.4154 13.1401 12.7231C13.8056 12.1363 14.6114 11.7858 15.4656 11.6362V10.1692C15.4656 9.7725 15.7243 9.43646 16.0805 9.3165C15.9909 9.28615 15.8948 9.26953 15.7951 9.26953H15.5956C15.0977 9.26953 14.6916 9.67277 14.6916 10.1707V11.6377C13.8374 11.7865 13.0317 12.1378 12.3661 12.7246C11.5784 13.4169 11.0624 14.3845 10.9887 15.4367C10.9128 16.5091 11.3074 17.5338 12.0951 18.2767Z" fill="#FFDB76"/>
<path d="M5.07728 18.5008C5.07728 12.0691 10.1005 6.78795 16.4346 6.36375C16.165 6.34569 15.8947 6.33557 15.623 6.33557C8.90736 6.33557 3.44336 11.7931 3.44336 18.5008C3.44336 25.2077 8.90736 30.6638 15.623 30.6638C15.8991 30.6638 16.1744 30.6544 16.4468 30.6363C10.107 30.2186 5.07728 24.936 5.07728 18.5008Z" fill="#F9C075"/>
</g>
<path d="M53 15.1779L51.627 16.3223L49.4375 18.1466L46.488 15.1779C45.934 13.5183 45.0025 12.01 43.7666 10.7716C42.5308 9.53316 41.0244 8.59844 39.366 8.04098L36.9688 5.67786L38.5437 2.94661H38.5444L39.366 1.52161C46.4687 1.52161 53 8.05286 53 15.1779ZM50.625 12.2091C50.625 11.9742 50.5554 11.7446 50.4249 11.5494C50.2944 11.3541 50.1089 11.2019 49.8919 11.112C49.6749 11.0221 49.4362 10.9986 49.2058 11.0444C48.9755 11.0902 48.7639 11.2033 48.5978 11.3694C48.4317 11.5355 48.3186 11.7471 48.2728 11.9774C48.227 12.2078 48.2505 12.4466 48.3404 12.6635C48.4303 12.8805 48.5825 13.066 48.7778 13.1965C48.973 13.327 49.2026 13.3966 49.4375 13.3966C49.7524 13.3966 50.0545 13.2715 50.2772 13.0488C50.4999 12.8261 50.625 12.5241 50.625 12.2091ZM43.5 5.08411C43.5 4.84924 43.4304 4.61965 43.2999 4.42437C43.1694 4.22908 42.9839 4.07688 42.7669 3.987C42.5499 3.89712 42.3112 3.8736 42.0808 3.91942C41.8505 3.96524 41.6389 4.07834 41.4728 4.24442C41.3067 4.41049 41.1936 4.62208 41.1478 4.85244C41.102 5.08279 41.1255 5.32156 41.2154 5.53854C41.3053 5.75553 41.4575 5.94099 41.6528 6.07148C41.848 6.20196 42.0776 6.27161 42.3125 6.27161C42.6274 6.27161 42.9295 6.14649 43.1522 5.9238C43.3749 5.7011 43.5 5.39905 43.5 5.08411Z" fill="#FFD44C"/>
<path d="M49.7537 15.163C49.5372 14.5126 49.2617 13.8833 48.9306 13.2831C48.727 13.187 48.5548 13.0351 48.4343 12.8449C48.3138 12.6548 48.2499 12.4342 48.25 12.2091V12.2002C46.8662 10.2493 44.899 8.78779 42.6316 8.02614L40.2344 5.66301L41.8093 2.93176H41.81L42.3964 1.91497C41.4071 1.65546 40.3888 1.52327 39.366 1.52161L38.5444 2.94661H38.5437L36.9688 5.67786L39.366 8.04098C41.0244 8.59844 42.5308 9.53316 43.7666 10.7716C45.0025 12.01 45.934 13.5183 46.488 15.1779L49.4375 18.1466L51.2321 16.6511L49.7537 15.163Z" fill="#FFBA0D"/>
<path d="M51.6321 16.329C51.7525 17.1271 51.8128 17.9332 51.8125 18.7404C51.8125 27.5939 44.6348 34.7716 35.7812 34.7716C26.9277 34.7716 19.75 27.5939 19.75 18.7404C19.75 9.88681 26.9277 2.70911 35.7812 2.70911C36.7072 2.7085 37.6314 2.78796 38.5437 2.94661L36.9688 5.67786L39.366 8.04098C41.0244 8.59844 42.5308 9.53316 43.7666 10.7716C45.0025 12.01 45.934 13.5183 46.488 15.1779L49.4375 18.1466L51.627 16.3223L51.6321 16.329ZM44.6875 18.7404C44.6875 16.9789 44.1652 15.2569 43.1865 13.7923C42.2079 12.3277 40.8169 11.1862 39.1895 10.5121C37.5621 9.83797 35.7714 9.66159 34.0437 10.0052C32.3161 10.3489 30.7291 11.1971 29.4836 12.4427C28.238 13.6883 27.3898 15.2752 27.0461 17.0028C26.7025 18.7305 26.8789 20.5212 27.5529 22.1486C28.227 23.776 29.3686 25.167 30.8332 26.1456C32.2978 27.1243 34.0198 27.6466 35.7812 27.6466C38.1433 27.6465 40.4086 26.7081 42.0788 25.0379C43.749 23.3677 44.6874 21.1024 44.6875 18.7404Z" fill="#D1D3D4"/>
<path d="M23.9063 18.7404C23.9063 10.5904 29.9885 3.86024 37.8616 2.8427C37.1717 2.75348 36.4769 2.70885 35.7813 2.70911C26.9277 2.70911 19.75 9.8868 19.75 18.7404C19.75 27.5939 26.9277 34.7716 35.7813 34.7716C36.4761 34.772 37.1703 34.7271 37.8594 34.6373C29.9877 33.619 23.9063 26.8896 23.9063 18.7404Z" fill="#BCBEC0"/>
<path d="M49.4375 13.3966C50.0933 13.3966 50.625 12.8649 50.625 12.2091C50.625 11.5533 50.0933 11.0216 49.4375 11.0216C48.7817 11.0216 48.25 11.5533 48.25 12.2091C48.25 12.8649 48.7817 13.3966 49.4375 13.3966Z" fill="#FFBA0D"/>
<path d="M42.3125 6.27161C42.9683 6.27161 43.5 5.73994 43.5 5.08411C43.5 4.42827 42.9683 3.89661 42.3125 3.89661C41.6567 3.89661 41.125 4.42827 41.125 5.08411C41.125 5.73994 41.6567 6.27161 42.3125 6.27161Z" fill="#FFBA0D"/>
<path d="M35.7812 9.83411C37.5427 9.83411 39.2647 10.3564 40.7293 11.3351C42.1939 12.3137 43.3355 13.7047 44.0096 15.3321C44.6836 16.9595 44.86 18.7502 44.5164 20.4779C44.1727 22.2055 43.3245 23.7925 42.0789 25.038C40.8334 26.2836 39.2464 27.1318 37.5188 27.4755C35.7911 27.8191 34.0004 27.6428 32.373 26.9687C30.7456 26.2946 29.3546 25.153 28.376 23.6884C27.3973 22.2238 26.875 20.5018 26.875 18.7404C26.8751 16.3783 27.8135 14.113 29.4837 12.4428C31.1539 10.7726 33.4192 9.8342 35.7812 9.83411ZM42.3125 18.7404C42.3125 17.4486 41.9294 16.1858 41.2118 15.1118C40.4941 14.0377 39.4741 13.2006 38.2807 12.7063C37.0872 12.2119 35.774 12.0826 34.5071 12.3346C33.2401 12.5866 32.0764 13.2087 31.163 14.1221C30.2495 15.0355 29.6275 16.1992 29.3755 17.4662C29.1235 18.7331 29.2528 20.0463 29.7472 21.2398C30.2415 22.4332 31.0786 23.4532 32.1527 24.1709C33.2267 24.8886 34.4895 25.2716 35.7812 25.2716C37.5134 25.2716 39.1747 24.5835 40.3995 23.3586C41.6244 22.1338 42.3125 20.4726 42.3125 18.7404Z" fill="#414042"/>
<path d="M35.7812 12.2091C37.073 12.2091 38.3358 12.5922 39.4098 13.3098C40.4839 14.0275 41.321 15.0475 41.8153 16.241C42.3097 17.4344 42.439 18.7476 42.187 20.0145C41.935 21.2815 41.313 22.4452 40.3995 23.3586C39.4861 24.2721 38.3224 24.8941 37.0554 25.1461C35.7885 25.3981 34.4753 25.2688 33.2818 24.7744C32.0884 24.2801 31.0684 23.443 30.3507 22.3689C29.6331 21.2949 29.25 20.0321 29.25 18.7404C29.25 17.0082 29.9381 15.3469 31.163 14.1221C32.3878 12.8972 34.0491 12.2091 35.7812 12.2091ZM39.9375 18.7404C39.9375 18.5055 39.8679 18.2759 39.7374 18.0806C39.6069 17.8853 39.4214 17.7331 39.2044 17.6432C38.9874 17.5534 38.7487 17.5299 38.5183 17.5757C38.288 17.6215 38.0764 17.7346 37.9103 17.9007C37.7442 18.0667 37.6311 18.2783 37.5853 18.5087C37.5395 18.739 37.563 18.9778 37.6529 19.1948C37.7428 19.4118 37.895 19.5972 38.0903 19.7277C38.2855 19.8582 38.5151 19.9279 38.75 19.9279C39.0649 19.9279 39.367 19.8027 39.5897 19.58C39.8124 19.3573 39.9375 19.0553 39.9375 18.7404ZM36.9688 15.7716C36.9688 15.5367 36.8991 15.3071 36.7686 15.1119C36.6381 14.9166 36.4527 14.7644 36.2357 14.6745C36.0187 14.5846 35.7799 14.5611 35.5496 14.6069C35.3192 14.6527 35.1076 14.7658 34.9416 14.9319C34.7755 15.098 34.6624 15.3096 34.6166 15.5399C34.5707 15.7703 34.5943 16.0091 34.6841 16.226C34.774 16.443 34.9262 16.6285 35.1215 16.759C35.3168 16.8895 35.5464 16.9591 35.7812 16.9591C36.0962 16.9591 36.3982 16.834 36.6209 16.6113C36.8436 16.3886 36.9688 16.0866 36.9688 15.7716ZM36.9688 21.7091C36.9688 21.4742 36.8991 21.2446 36.7686 21.0494C36.6381 20.8541 36.4527 20.7019 36.2357 20.612C36.0187 20.5221 35.7799 20.4986 35.5496 20.5444C35.3192 20.5902 35.1076 20.7033 34.9416 20.8694C34.7755 21.0355 34.6624 21.2471 34.6166 21.4774C34.5707 21.7078 34.5943 21.9466 34.6841 22.1635C34.774 22.3805 34.9262 22.566 35.1215 22.6965C35.3168 22.827 35.5464 22.8966 35.7812 22.8966C36.0962 22.8966 36.3982 22.7715 36.6209 22.5488C36.8436 22.3261 36.9688 22.0241 36.9688 21.7091ZM34 18.7404C34 18.5055 33.9304 18.2759 33.7999 18.0806C33.6694 17.8853 33.4839 17.7331 33.2669 17.6432C33.0499 17.5534 32.8112 17.5299 32.5808 17.5757C32.3505 17.6215 32.1389 17.7346 31.9728 17.9007C31.8067 18.0667 31.6936 18.2783 31.6478 18.5087C31.602 18.739 31.6255 18.9778 31.7154 19.1948C31.8053 19.4118 31.9575 19.5972 32.1528 19.7277C32.348 19.8582 32.5776 19.9279 32.8125 19.9279C33.1274 19.9279 33.4295 19.8027 33.6522 19.58C33.8749 19.3573 34 19.0553 34 18.7404Z" fill="#808285"/>
<path d="M31.6251 18.7404C31.6253 17.2141 32.1598 15.736 33.1359 14.5626C34.112 13.3893 35.4681 12.5947 36.9688 12.3167C36.0269 12.1436 35.0584 12.1797 34.132 12.4226C33.2056 12.6654 32.3439 13.109 31.608 13.7219C30.8722 14.3349 30.2801 15.1022 29.8738 15.9694C29.4675 16.8367 29.2568 17.7826 29.2568 18.7404C29.2568 19.6981 29.4675 20.6441 29.8738 21.5113C30.2801 22.3786 30.8722 23.1458 31.608 23.7588C32.3439 24.3717 33.2056 24.8153 34.132 25.0582C35.0584 25.301 36.0269 25.3371 36.9688 25.164C35.4681 24.886 34.112 24.0914 33.1359 22.9181C32.1598 21.7447 31.6253 20.2666 31.6251 18.7404Z" fill="#626466"/>
<path d="M38.75 19.9279C39.4058 19.9279 39.9375 19.3962 39.9375 18.7404C39.9375 18.0845 39.4058 17.5529 38.75 17.5529C38.0942 17.5529 37.5625 18.0845 37.5625 18.7404C37.5625 19.3962 38.0942 19.9279 38.75 19.9279Z" fill="#D1D3D4"/>
<path d="M35.7812 16.9591C36.4371 16.9591 36.9688 16.4274 36.9688 15.7716C36.9688 15.1158 36.4371 14.5841 35.7812 14.5841C35.1254 14.5841 34.5938 15.1158 34.5938 15.7716C34.5938 16.4274 35.1254 16.9591 35.7812 16.9591Z" fill="#D1D3D4"/>
<path d="M35.7812 22.8966C36.4371 22.8966 36.9688 22.3649 36.9688 21.7091C36.9688 21.0533 36.4371 20.5216 35.7812 20.5216C35.1254 20.5216 34.5938 21.0533 34.5938 21.7091C34.5938 22.3649 35.1254 22.8966 35.7812 22.8966Z" fill="#D1D3D4"/>
<path d="M32.8125 19.9279C33.4683 19.9279 34 19.3962 34 18.7404C34 18.0845 33.4683 17.5529 32.8125 17.5529C32.1567 17.5529 31.625 18.0845 31.625 18.7404C31.625 19.3962 32.1567 19.9279 32.8125 19.9279Z" fill="#D1D3D4"/>
<path d="M45.2812 6.86536H46.4688V8.05286H45.2812V6.86536Z" fill="#808285"/>
<path d="M46.4688 8.05286H47.6562V9.24036H46.4688V8.05286Z" fill="#808285"/>
<path d="M30.0156 8.82104L34.7649 4.07174L35.6045 4.91131L30.8552 9.66061L30.0156 8.82104Z" fill="#808285"/>
<path d="M21.1084 19.7526L21.948 18.913L26.6973 23.6623L25.8577 24.5019L21.1084 19.7526Z" fill="#808285"/>
<path d="M35.9492 32.5691L40.6985 27.8198L41.5381 28.6594L36.7888 33.4087L35.9492 32.5691Z" fill="#808285"/>
<path d="M23.9062 10.4279H25.0938V11.6154H23.9062V10.4279Z" fill="#808285"/>
<path d="M23.9062 12.8029H25.0938V13.9904H23.9062V12.8029Z" fill="#808285"/>
<path d="M23.9062 15.1779H25.0938V16.3654H23.9062V15.1779Z" fill="#808285"/>
<path d="M27.4688 29.4279H28.6562V30.6154H27.4688V29.4279Z" fill="#808285"/>
<path d="M29.8438 29.4279H31.0312V30.6154H29.8438V29.4279Z" fill="#808285"/>
<path d="M32.2188 29.4279H33.4062V30.6154H32.2188V29.4279Z" fill="#808285"/>
<path d="M46.4688 21.1154H47.6562V22.3029H46.4688V21.1154Z" fill="#808285"/>
<path d="M46.4688 23.4904H47.6562V24.6779H46.4688V23.4904Z" fill="#808285"/>
<path d="M46.4688 25.8654H47.6562V27.0529H46.4688V25.8654Z" fill="#808285"/>
<defs>
<clipPath id="clip0_792_21545">
<rect width="37" height="37" fill="white" transform="translate(0.673828)"/>
</clipPath>
</defs>
</svg>
