<svg width="60" height="23" viewBox="0 0 60 23" fill="none" xmlns="http://www.w3.org/2000/svg">
<path d="M29.1648 13.1687L0.669922 13.1687L0.669922 22.3625H29.1648V13.1687Z" fill="#80BC00"/>
<path d="M29.1668 0.649658L0.671875 0.649658L0.671875 9.84342L29.1668 9.84342V0.649658Z" fill="#00A0DF"/>
<path d="M52.4909 11.7667L52.3221 11.7927V14.195L52.1793 14.1561H52.1403C51.9845 14.0912 51.5949 13.9873 51.2183 13.9873C49.2056 13.9873 48.79 15.5066 48.79 16.7792C48.79 18.5322 49.764 19.5321 51.4781 19.5321C52.2052 19.5321 52.7376 19.4542 53.283 19.2854C53.7765 19.1295 53.9583 18.8958 53.9583 18.4153V11.52C53.4778 11.6109 52.9714 11.6888 52.4909 11.7667ZM52.3221 18.2465H52.2312C51.9195 18.3244 51.7897 18.3504 51.556 18.3504C51.0236 18.3504 50.3743 18.0777 50.3743 16.7792C50.3743 16.1039 50.4911 15.2209 51.491 15.2209C51.6598 15.2209 51.8546 15.2469 52.2312 15.3637L52.3091 15.3897V18.2595L52.3221 18.2465Z" fill="black"/>
<path d="M57.6053 13.9609C56.982 13.9609 56.3457 14.0648 55.5535 14.3115L55.0341 14.4674L55.2029 15.6361L55.7094 15.4673C56.2418 15.2984 56.8911 15.1816 57.3845 15.1816C57.6053 15.1816 58.2805 15.1816 58.2805 15.9088V16.2334H57.3456C55.6315 16.2334 54.8394 16.7788 54.8394 17.9475C54.8394 18.9474 55.5666 19.5447 56.8002 19.5447C57.1768 19.5447 57.7092 19.4798 58.1637 19.3629H58.2156L58.3714 19.3889C58.8519 19.4798 59.3453 19.5577 59.8258 19.6616V15.8309C59.8258 14.5972 59.0726 13.9609 57.6053 13.9609V13.9609ZM58.3065 18.2981L58.2156 18.3241L57.9039 18.402C57.6182 18.4799 57.3586 18.5189 57.1638 18.5189C56.6963 18.5189 56.4106 18.2851 56.4106 17.8956C56.4106 17.6358 56.5275 17.2073 57.2936 17.2073H58.2935V18.3111L58.3065 18.2981Z" fill="black"/>
<path d="M45.6873 13.9617C45.064 13.9617 44.4277 14.0656 43.6356 14.3123L43.1162 14.4682L43.285 15.6369L43.7914 15.468C44.3238 15.2992 44.9731 15.1824 45.4665 15.1824C45.6873 15.1824 46.3625 15.1824 46.3625 15.9095V16.2342H45.4276C43.7135 16.2342 42.9214 16.7796 42.9214 17.9483C42.9214 18.9482 43.6486 19.5455 44.8822 19.5455C45.2717 19.5455 45.7912 19.4806 46.2457 19.3637H46.2976L46.4535 19.3897C46.9339 19.4676 47.4274 19.5585 47.9078 19.6494V15.8187C47.9078 14.585 47.1677 13.9487 45.6873 13.9487V13.9617ZM46.3885 18.2859L46.3106 18.3119L45.999 18.3898C45.7133 18.4677 45.4536 18.5067 45.2588 18.5067C44.7913 18.5067 44.5056 18.2729 44.5056 17.8834C44.5056 17.6236 44.6225 17.1951 45.3886 17.1951H46.3885V18.2989V18.2859Z" fill="black"/>
<path d="M39.9194 13.9739C39.1403 13.9739 38.491 14.2336 38.2572 14.3505L38.1923 14.3765L38.1403 14.3375C37.8157 14.0908 37.3223 13.9739 36.647 13.9739C36.0497 13.9739 35.4913 14.0518 34.881 14.2336C34.3616 14.3895 34.1538 14.6362 34.1538 15.1166V19.4928H35.79V15.4543L35.8679 15.4283C36.2055 15.3244 36.3873 15.2984 36.5821 15.2984C37.0496 15.2984 37.2963 15.5452 37.2963 16.0386V19.4928H38.9065V15.9607C38.9065 15.7529 38.8676 15.6231 38.8546 15.6101L38.8026 15.5062L38.9065 15.4543C39.1532 15.3504 39.4259 15.2855 39.6986 15.2855C40.0233 15.2855 40.4128 15.4153 40.4128 16.0256V19.4798H42.023V15.8568C42.023 14.5842 41.3348 13.9609 39.9064 13.9609" fill="black"/>
<path d="M57.0993 3.37827C57.0993 3.37827 57.0734 3.37827 57.0604 3.37827C56.1254 3.37827 55.1515 3.63798 54.8139 4.14441C54.6321 4.39114 54.5282 4.70279 54.5152 5.06639V7.49468C54.5152 7.70245 54.4763 7.78036 54.4633 7.80633L54.4113 7.91022H51.4506V6.20911C51.4117 4.43009 50.3599 3.44319 48.8276 3.44319H47.3342C47.2693 3.8847 47.2303 4.18337 47.1654 4.61189H48.6458C49.4249 4.61189 49.8404 5.27415 49.8404 6.30001V8.00112L49.7366 7.94917C49.7366 7.94917 49.5937 7.89723 49.3859 7.89723H46.8278C46.7758 8.22187 46.7109 8.63741 46.646 9.06593H54.5282C54.7879 9.01399 55.1125 8.96205 55.3852 8.9101C55.7878 9.10489 56.528 9.20877 57.0344 9.20877C58.7485 9.20877 59.8523 8.06605 59.8523 6.28703C59.8523 4.50801 58.7745 3.39125 57.1123 3.35229L57.0993 3.37827ZM57.1123 7.84529C56.8786 7.84529 56.476 7.81932 56.1644 7.75439H56.0735V5.37804C56.0735 5.18325 56.0345 5.06639 56.0216 5.04041L55.9696 4.93653L56.0735 4.89757C56.0735 4.89757 56.1254 4.88459 56.1514 4.8716H56.1644C56.1644 4.8716 56.2423 4.83265 56.2683 4.83265H56.3202C56.6838 4.71578 57.0085 4.72876 57.1643 4.71578C58.1642 4.71578 58.281 5.61178 58.281 6.27404C58.281 7.58558 57.6447 7.85828 57.0993 7.85828" fill="black"/>
<path d="M43.2699 9.77986H43.3478C45.0619 9.77986 45.854 9.2085 45.854 7.81904C45.854 6.81916 45.1268 6.01405 43.8932 6.01405H42.309C41.8415 6.01405 41.5558 5.74136 41.5558 5.28686C41.5558 4.97521 41.6727 4.59863 42.4388 4.59863L45.88 4.59863C45.9579 4.15712 45.9968 3.87144 46.0618 3.42993H42.4778C40.8026 3.42993 39.9715 4.13115 39.9715 5.29985C39.9715 6.46855 40.6987 7.0529 41.9324 7.0529H43.5166C43.9841 7.0529 44.2697 7.42948 44.2697 7.81904C44.2697 8.07875 44.1529 8.61116 43.3867 8.61116H37.1537C36.3746 8.61116 35.8291 8.15667 35.8291 7.1438V6.42959C35.8291 5.36478 36.2577 4.70252 37.1537 4.70252H38.66C38.7249 4.24802 38.7769 3.96234 38.8288 3.53382L36.7901 3.53382C35.2578 3.53382 34.2059 4.55967 34.167 6.33869V7.13081C34.2059 8.92281 35.2578 9.76687 36.7901 9.76687H43.2699V9.77986Z" fill="black"/>
</svg>
