<svg width="346" height="232" viewBox="0 0 346 232" fill="none" xmlns="http://www.w3.org/2000/svg">
<g clip-path="url(#clip0_7466_43704)">
<g clip-path="url(#clip1_7466_43704)">
<path d="M106.482 230.281H108.854L101.959 145.613H95.916L106.482 230.281Z" fill="#EBEBEB"/>
<path d="M95.916 145.613L96.6252 151.278H102.418L101.959 145.613H95.916Z" fill="#C7C7C7"/>
<path d="M201.932 1.28125H101.19C95.5648 1.28125 91 5.9408 91 11.7009V219.862C91 225.61 95.5648 230.281 101.19 230.281H201.932C207.563 230.281 212.134 225.61 212.134 219.862V11.7009C212.134 5.9408 207.563 1.28125 201.932 1.28125ZM205.764 213.426C205.764 218.905 201.676 223.337 196.634 223.337H106.506C101.453 223.337 97.3645 218.905 97.3645 213.426V19.5905C97.3645 8.42909 101.453 7.88478 106.506 7.88478H124.557C125.605 7.88478 126.464 9.08107 126.464 10.5645V11.2045C126.464 14.6797 128.359 14.6917 130.689 14.6917H172.439C174.787 14.6917 176.664 14.6797 176.664 11.2045V10.5645C176.664 9.08107 177.511 7.88478 178.577 7.88478H196.634C201.676 7.88478 205.764 9.36818 205.764 19.5905V213.426Z" fill="#263238"/>
<path d="M157.255 10.3491H145.867C145.48 10.3491 145.164 10.0321 145.164 9.64331C145.164 9.25452 145.48 8.9375 145.867 8.9375H157.255C157.643 8.9375 157.959 9.25452 157.959 9.64331C157.959 10.0321 157.643 10.3491 157.255 10.3491Z" fill="white"/>
<path d="M205.764 19.5905V213.426C205.764 218.905 201.676 223.337 196.635 223.337H106.507C101.453 223.337 97.3652 218.905 97.3652 213.426V19.5905C97.3652 8.42908 101.453 7.88477 106.507 7.88477H124.557C125.606 7.88477 126.464 9.08106 126.464 10.5645V11.2045C126.464 14.6797 128.359 14.6917 130.689 14.6917H172.44C174.788 14.6917 176.665 14.6797 176.665 11.2045V10.5645C176.665 9.08106 177.511 7.88477 178.578 7.88477H196.635C201.676 7.88477 205.764 9.36817 205.764 19.5905Z" fill="white"/>
<path d="M121.44 12.2391C121.381 12.299 121.321 12.3528 121.268 12.4126C121.232 12.4485 121.202 12.4784 121.166 12.5143C120.696 12.0597 120.141 11.8145 119.486 11.8145C118.83 11.8145 118.276 12.0597 117.805 12.5143C117.775 12.4844 117.746 12.4485 117.71 12.4186C117.65 12.3588 117.597 12.3049 117.537 12.2451C117.537 12.2451 117.543 12.2332 117.549 12.2332C117.621 12.1674 117.692 12.1016 117.77 12.0358C117.924 11.9042 118.097 11.7965 118.282 11.7068C118.497 11.5991 118.723 11.5214 118.955 11.4795C119.069 11.4615 119.182 11.4496 119.295 11.4316C119.331 11.4316 119.581 11.4316 119.593 11.4316C119.671 11.4316 119.748 11.4436 119.825 11.4496C120.04 11.4735 120.243 11.5214 120.445 11.5991C120.588 11.653 120.731 11.7188 120.862 11.7965C121.005 11.8803 121.137 11.97 121.262 12.0776C121.327 12.1315 121.387 12.1913 121.446 12.2451L121.44 12.2391Z" fill="#C7C7C7"/>
<path d="M118.36 13.0646C118.271 12.9749 118.175 12.8852 118.086 12.7895C118.402 12.4784 118.771 12.281 119.206 12.2272C119.856 12.1375 120.416 12.3349 120.893 12.7895C120.797 12.8852 120.708 12.9749 120.619 13.0646C120.309 12.7595 119.933 12.598 119.492 12.598C119.051 12.598 118.676 12.7595 118.366 13.0646H118.36Z" fill="#C7C7C7"/>
<path d="M120.337 13.3395C120.248 13.4292 120.152 13.5249 120.063 13.6146C119.902 13.4591 119.711 13.3754 119.485 13.3754C119.259 13.3754 119.068 13.4591 118.907 13.6146C118.818 13.5249 118.722 13.4292 118.633 13.3395C119.068 12.8789 119.854 12.843 120.337 13.3395Z" fill="#C7C7C7"/>
<path d="M119.737 13.8665C119.737 14.004 119.624 14.1177 119.487 14.1177C119.35 14.1177 119.236 14.004 119.236 13.8665C119.236 13.7289 119.35 13.6152 119.487 13.6152C119.624 13.6152 119.737 13.7289 119.737 13.8665Z" fill="#C7C7C7"/>
<path d="M104.432 12.7657C104.432 12.365 104.753 12.042 105.153 12.042C105.552 12.042 105.874 12.365 105.874 12.7657C105.874 13.1665 105.552 13.4895 105.153 13.4895C104.753 13.4895 104.432 13.1665 104.432 12.7657Z" fill="#C7C7C7"/>
<path d="M106.697 12.7657C106.697 12.365 107.019 12.042 107.418 12.042C107.818 12.042 108.139 12.365 108.139 12.7657C108.139 13.1665 107.818 13.4895 107.418 13.4895C107.019 13.4895 106.697 13.1665 106.697 12.7657Z" fill="#C7C7C7"/>
<path d="M108.955 12.7657C108.955 12.365 109.277 12.042 109.676 12.042C110.075 12.042 110.397 12.365 110.397 12.7657C110.397 13.1665 110.075 13.4895 109.676 13.4895C109.277 13.4895 108.955 13.1665 108.955 12.7657Z" fill="#C7C7C7"/>
<path d="M111.221 12.7657C111.221 12.365 111.543 12.042 111.942 12.042C112.341 12.042 112.663 12.365 112.663 12.7657C112.663 13.1665 112.341 13.4895 111.942 13.4895C111.543 13.4895 111.221 13.1665 111.221 12.7657Z" fill="#C7C7C7"/>
<path d="M113.484 12.7657C113.484 12.365 113.806 12.042 114.205 12.042C114.605 12.042 114.927 12.365 114.927 12.7657C114.927 13.1665 114.605 13.4895 114.205 13.4895C113.806 13.4895 113.484 13.1665 113.484 12.7657Z" fill="#C7C7C7"/>
<path d="M197.635 14.3447H191.777V11.6172H197.635V14.3447ZM192.087 14.0397H197.331V11.9282H192.087V14.0397Z" fill="#C7C7C7"/>
<path d="M196.038 12.084H192.266V13.8784H196.038V12.084Z" fill="#C7C7C7"/>
<path d="M198.153 12.2568H197.635V13.7103H198.153V12.2568Z" fill="#C7C7C7"/>
<path d="M111.172 212.863H110.642V215.31H109.652V214.065H107.9V215.31H106.911V212.863H106.381L108.776 210.381L111.172 212.863Z" fill="#EBEBEB"/>
<path d="M196.974 210.381H191.199V211.206H196.974V210.381Z" fill="#EBEBEB"/>
<path d="M196.974 212.427H191.199V213.258H196.974V212.427Z" fill="#EBEBEB"/>
<path d="M196.974 214.479H191.199V215.31H196.974V214.479Z" fill="#EBEBEB"/>
<path d="M153.375 212.929L151.731 214.688L150.092 212.929L150.378 212.654L151.731 214.108L153.083 212.654L153.375 212.929Z" fill="#EBEBEB"/>
<path d="M151.732 216.506C150.087 216.506 148.746 215.16 148.746 213.509C148.746 211.859 150.087 210.513 151.732 210.513C153.376 210.513 154.717 211.859 154.717 213.509C154.717 215.16 153.376 216.506 151.732 216.506ZM151.732 210.913C150.301 210.913 149.145 212.08 149.145 213.509C149.145 214.939 150.307 216.105 151.732 216.105C153.156 216.105 154.318 214.939 154.318 213.509C154.318 212.08 153.156 210.913 151.732 210.913Z" fill="#EBEBEB"/>
<path d="M159.02 99.4013C163.042 99.3774 166.278 96.0876 166.26 92.0501C166.237 88.0066 162.959 84.7587 158.937 84.7826C154.92 84.8065 151.684 88.0963 151.708 92.1338C151.732 96.1653 155.009 99.4252 159.026 99.4013H159.02ZM152.584 92.1338C152.56 88.5868 155.409 85.6978 158.937 85.6798C162.464 85.6619 165.343 88.515 165.367 92.062C165.384 95.6031 162.542 98.4921 159.008 98.516C155.48 98.534 152.602 95.6808 152.584 92.1398V92.1338ZM159.02 99.4013C163.042 99.3774 166.278 96.0876 166.26 92.0501C166.237 88.0066 162.959 84.7587 158.937 84.7826C154.92 84.8065 151.684 88.0963 151.708 92.1338C151.732 96.1653 155.009 99.4252 159.026 99.4013H159.02ZM152.584 92.1338C152.56 88.5868 155.409 85.6978 158.937 85.6798C162.464 85.6619 165.343 88.515 165.367 92.062C165.384 95.6031 162.542 98.4921 159.008 98.516C155.48 98.534 152.602 95.6808 152.584 92.1398V92.1338ZM159.02 99.4013C163.042 99.3774 166.278 96.0876 166.26 92.0501C166.237 88.0066 162.959 84.7587 158.937 84.7826C154.92 84.8065 151.684 88.0963 151.708 92.1338C151.732 96.1653 155.009 99.4252 159.026 99.4013H159.02ZM152.584 92.1338C152.56 88.5868 155.409 85.6978 158.937 85.6798C162.464 85.6619 165.343 88.515 165.367 92.062C165.384 95.6031 162.542 98.4921 159.008 98.516C155.48 98.534 152.602 95.6808 152.584 92.1398V92.1338ZM159.062 107.494C167.542 107.44 174.365 100.502 174.317 92.0022C174.264 83.4966 167.357 76.6419 158.883 76.6897C150.415 76.7435 143.579 83.676 143.633 92.1817C143.681 100.681 150.594 107.542 159.062 107.494ZM150.564 92.1458C150.534 87.4862 154.282 83.676 158.925 83.6521C163.561 83.6222 167.357 87.3905 167.387 92.0441C167.417 96.7037 163.662 100.508 159.026 100.538C154.39 100.562 150.594 96.7994 150.57 92.1458H150.564ZM151.696 92.1338C151.72 96.1653 154.997 99.4252 159.014 99.4013C163.037 99.3774 166.272 96.0876 166.255 92.0501C166.231 88.0066 162.953 84.7587 158.931 84.7826C154.914 84.8065 151.678 88.0963 151.702 92.1338H151.696ZM152.584 92.1338C152.56 88.5868 155.409 85.6978 158.937 85.6798C162.464 85.6619 165.343 88.515 165.367 92.062C165.384 95.6031 162.542 98.4921 159.008 98.516C155.48 98.534 152.602 95.6808 152.584 92.1398V92.1338ZM159.02 99.4013C163.042 99.3774 166.278 96.0876 166.26 92.0501C166.237 88.0066 162.959 84.7587 158.937 84.7826C154.92 84.8065 151.684 88.0963 151.708 92.1338C151.732 96.1653 155.009 99.4252 159.026 99.4013H159.02ZM152.584 92.1338C152.56 88.5868 155.409 85.6978 158.937 85.6798C162.464 85.6619 165.343 88.515 165.367 92.062C165.384 95.6031 162.542 98.4921 159.008 98.516C155.48 98.534 152.602 95.6808 152.584 92.1398V92.1338ZM159.02 99.4013C163.042 99.3774 166.278 96.0876 166.26 92.0501C166.237 88.0066 162.959 84.7587 158.937 84.7826C154.92 84.8065 151.684 88.0963 151.708 92.1338C151.732 96.1653 155.009 99.4252 159.026 99.4013H159.02ZM152.584 92.1338C152.56 88.5868 155.409 85.6978 158.937 85.6798C162.464 85.6619 165.343 88.515 165.367 92.062C165.384 95.6031 162.542 98.4921 159.008 98.516C155.48 98.534 152.602 95.6808 152.584 92.1398V92.1338Z" fill="#FFC727"/>
<path d="M155.938 77.3469L161.837 77.311L161.486 73.124L156.241 73.1539L155.938 77.3469Z" fill="#FFC727"/>
<path d="M167.178 79.2798L171.379 83.4429L174.079 80.2308L170.348 76.5283L167.178 79.2798Z" fill="#FFC727"/>
<path d="M173.768 88.6162L173.803 94.5438L177.981 94.1909L177.945 88.9213L173.768 88.6162Z" fill="#FFC727"/>
<path d="M171.849 99.9033L167.701 104.114L170.901 106.83L174.59 103.079L171.849 99.9033Z" fill="#FFC727"/>
<path d="M162.54 106.519L156.641 106.554L156.992 110.741L162.236 110.712L162.54 106.519Z" fill="#FFC727"/>
<path d="M151.301 104.587L147.1 100.424L144.4 103.636L148.131 107.338L151.301 104.587Z" fill="#FFC727"/>
<path d="M144.711 95.2499L144.675 89.3223L140.498 89.6752L140.534 94.9448L144.711 95.2499Z" fill="#FFC727"/>
<path d="M146.63 83.9627L150.778 79.7517L147.577 77.0361L143.889 80.7865L146.63 83.9627Z" fill="#FFC727"/>
<g opacity="0.5">
<path d="M140.515 75.7503C139.365 70.7139 134.365 67.5677 129.347 68.7281C124.336 69.8825 121.201 74.9009 122.357 79.9373C123.507 84.9677 128.507 88.114 133.519 86.9596C138.536 85.7991 141.665 80.7807 140.515 75.7503ZM132.577 82.8383C129.836 83.4724 127.089 81.7437 126.457 78.9922C125.825 76.2348 127.548 73.4773 130.289 72.8433C133.036 72.2153 135.783 73.9379 136.409 76.6954C137.041 79.4528 135.318 82.2043 132.577 82.8383Z" fill="#FFC727"/>
<path d="M127.69 69.5055L131.176 68.704L130.419 66.2695L127.314 66.9813L127.69 69.5055Z" fill="#FFC727"/>
<path d="M134.604 69.1581L137.643 71.0662L138.817 68.8052L136.117 67.1064L134.604 69.1581Z" fill="#FFC727"/>
<path d="M139.74 73.8182L140.545 77.3234L142.97 76.5577L142.255 73.4414L139.74 73.8182Z" fill="#FFC727"/>
<path d="M140.092 80.7568L138.191 83.8074L140.444 84.9917L142.136 82.2761L140.092 80.7568Z" fill="#FFC727"/>
<path d="M135.449 85.9131L131.957 86.7206L132.72 89.155L135.825 88.4432L135.449 85.9131Z" fill="#FFC727"/>
<path d="M128.532 86.2655L125.498 84.3574L124.318 86.6184L127.018 88.3171L128.532 86.2655Z" fill="#FFC727"/>
<path d="M123.394 81.6057L122.595 78.1006L120.164 78.8662L120.879 81.9826L123.394 81.6057Z" fill="#FFC727"/>
<path d="M123.042 74.6675L124.949 71.6169L122.69 70.4326L120.998 73.1422L123.042 74.6675Z" fill="#FFC727"/>
</g>
<g opacity="0.5">
<path d="M180.967 66.7241C180.58 62.3038 176.7 59.0379 172.296 59.4327C167.899 59.8215 164.645 63.7154 165.038 68.1357C165.425 72.5501 169.305 75.8159 173.703 75.4271C178.107 75.0324 181.355 71.1384 180.967 66.7241ZM173.387 71.8143C170.979 72.0297 168.846 70.2352 168.632 67.8187C168.417 65.4022 170.205 63.2609 172.612 63.0455C175.02 62.8362 177.153 64.6246 177.362 67.0471C177.576 69.4636 175.789 71.605 173.381 71.8203L173.387 71.8143Z" fill="#FFC727"/>
<path d="M170.795 59.9052L173.858 59.63L173.501 57.4707L170.777 57.71L170.795 59.9052Z" fill="#FFC727"/>
<path d="M176.719 60.4196L179.079 62.4054L180.342 60.6169L178.244 58.8584L176.719 60.4196Z" fill="#FFC727"/>
<path d="M180.539 64.9896L180.813 68.0641L182.964 67.7052L182.726 64.9717L180.539 64.9896Z" fill="#FFC727"/>
<path d="M180.027 70.9346L178.049 73.3032L179.831 74.5713L181.583 72.4658L180.027 70.9346Z" fill="#FFC727"/>
<path d="M175.473 74.7695L172.41 75.0447L172.768 77.204L175.491 76.9647L175.473 74.7695Z" fill="#FFC727"/>
<path d="M169.551 74.2544L167.191 72.2686L165.928 74.057L168.019 75.8156L169.551 74.2544Z" fill="#FFC727"/>
<path d="M165.73 69.6848L165.456 66.6104L163.305 66.9692L163.543 69.7028L165.73 69.6848Z" fill="#FFC727"/>
<path d="M166.243 63.7393L168.221 61.3706L166.44 60.1025L164.688 62.202L166.243 63.7393Z" fill="#FFC727"/>
</g>
<path d="M182.565 131.043H120.57V136.36H182.565V131.043Z" stroke="#FFC727" stroke-width="0.5" stroke-miterlimit="10"/>
<path d="M123.531 132.054H121.57V135.349H123.531V132.054Z" fill="#FFC727"/>
<path d="M126.244 132.054H124.283V135.349H126.244V132.054Z" fill="#FFC727"/>
<path d="M128.955 132.054H126.994V135.349H128.955V132.054Z" fill="#FFC727"/>
<path d="M131.666 132.054H129.705V135.349H131.666V132.054Z" fill="#FFC727"/>
<path d="M134.371 132.054H132.41V135.349H134.371V132.054Z" fill="#FFC727"/>
<path d="M137.084 132.054H135.123V135.349H137.084V132.054Z" fill="#FFC727"/>
<path d="M139.795 132.054H137.834V135.349H139.795V132.054Z" fill="#FFC727"/>
<path d="M142.5 132.054H140.539V135.349H142.5V132.054Z" fill="#FFC727"/>
<path d="M145.211 132.054H143.25V135.349H145.211V132.054Z" fill="#FFC727"/>
<path d="M147.923 132.054H145.963V135.349H147.923V132.054Z" fill="#FFC727"/>
<path d="M150.629 132.054H148.668V135.349H150.629V132.054Z" fill="#FFC727"/>
<path d="M153.34 132.054H151.379V135.349H153.34V132.054Z" fill="#FFC727"/>
<path d="M237.436 149.31C228.247 165.035 213.819 179.086 209.994 180.515C205.828 182.071 190.304 177.297 182.581 174.504C180.054 173.589 185.221 155.722 187.944 154.801C190.668 153.88 202.705 161.213 205.602 160.501C206.513 160.28 222.544 150.895 231.34 144.986C239.54 139.477 240.225 144.537 237.436 149.31Z" fill="#AD6359"/>
<path d="M183.709 177.806L190.675 154.263C190.675 154.263 202.791 160.017 204.799 159.556C206.807 159.096 225.394 147.629 232.164 143.849C238.928 140.069 244.053 142.473 235.459 154.311C226.181 167.087 215.424 179.289 211.217 181.012C205.681 183.279 183.709 177.806 183.709 177.806Z" fill="#FFC727"/>
<path d="M209.995 169.546C209.709 170.318 209.471 171.113 209.411 171.968C209.942 171.287 210.287 170.545 210.591 169.779C210.871 169.008 211.116 168.224 211.169 167.363C210.651 168.045 210.299 168.786 209.995 169.546ZM209.298 157.254C209.077 157.38 208.857 157.499 208.648 157.619C209.244 157.81 209.852 157.954 210.496 158.002C210.114 157.703 209.709 157.463 209.298 157.254ZM199.203 176.766C198.44 176.472 197.654 176.239 196.795 176.173C197.475 176.706 198.214 177.059 198.977 177.364C199.745 177.645 200.526 177.884 201.384 177.944C200.705 177.418 199.966 177.071 199.203 176.766ZM196.271 163.008C195.919 162.266 195.538 161.537 194.978 160.891C195.085 161.74 195.353 162.512 195.681 163.271C196.027 164.019 196.414 164.749 196.974 165.389C196.873 164.539 196.587 163.762 196.271 163.008ZM221.228 157.768C220.489 158.109 219.762 158.498 219.113 159.06C219.965 158.953 220.74 158.672 221.491 158.349C222.23 158.008 222.957 157.625 223.606 157.057C222.754 157.164 221.985 157.445 221.228 157.768ZM186.033 169.947L185.812 170.694C186.45 170.389 187.07 170.036 187.63 169.546C187.07 169.618 186.545 169.761 186.033 169.947Z" fill="white"/>
<path d="M189.394 177.328C189.757 176.544 189.948 175.653 190.216 174.827C190.455 174.08 190.711 173.338 190.937 172.59C191.444 170.957 191.956 169.324 192.451 167.685C192.946 166.052 193.446 164.426 193.929 162.787C194.406 161.16 194.936 159.539 195.323 157.888C195.341 157.822 195.24 157.798 195.216 157.852C194.513 159.401 193.971 161.022 193.411 162.625C192.856 164.204 192.35 165.801 191.855 167.404C191.355 169.037 190.902 170.682 190.461 172.327C190.252 173.123 190.067 173.924 189.877 174.726C189.68 175.569 189.388 176.442 189.311 177.304C189.311 177.351 189.37 177.375 189.394 177.328Z" fill="#263238"/>
<path opacity="0.1" d="M194.619 180.127C200.99 181.275 208.332 182.196 211.216 181.012C215.423 179.289 226.18 167.099 235.458 154.311C240.917 146.786 240.839 143.078 238.319 142.336L194.613 180.121L194.619 180.127Z" fill="black"/>
<path d="M198.69 116.724C197.355 111.071 192.951 106.956 187.683 105.724L190.472 117.519L184.614 121.323L177.683 120.57L174.894 108.768C170.729 112.255 168.649 117.92 169.984 123.566C171.861 131.522 179.817 136.444 187.743 134.554C195.668 132.67 200.573 124.679 198.69 116.73V116.724Z" fill="#DBDBDB"/>
<path d="M189.549 206.379C190.884 212.032 195.288 216.147 200.556 217.379L197.767 205.584L203.625 201.78L210.555 202.533L213.344 214.335C217.51 210.847 219.59 205.183 218.255 199.536C216.378 191.581 208.422 186.658 200.496 188.549C192.57 190.433 187.666 198.424 189.549 206.373V206.379Z" fill="#DBDBDB"/>
<path d="M191.85 123.334L179.059 126.381L195.628 196.463L208.419 193.416L191.85 123.334Z" fill="#DBDBDB"/>
<path d="M192.96 144.839L187.695 146.093L194.519 174.953L199.784 173.699L192.96 144.839Z" fill="#C7C7C7"/>
<path d="M195.276 173.577C196.498 171.298 193.119 171.155 193.119 171.155C193.119 171.155 198.029 170.18 198.381 167.339C198.714 164.599 194.626 164.575 194.334 164.569C194.591 164.515 199.084 163.504 199.144 160.609C199.209 157.607 195.103 158.289 194.835 158.33C195.061 158.205 198.059 156.458 197.612 154.251C196.837 150.459 187.857 154.718 184.901 153.701L183.048 148.168C182.797 149.269 182.672 150.381 181.2 152.17C179.824 153.838 178.894 154.945 178.602 156.273C178.125 158.45 179.877 159.407 179.877 159.407C179.877 159.407 177.321 160.394 177.201 162.667C177.142 163.833 178.954 164.97 178.954 164.97C178.954 164.97 176.939 165.843 176.957 167.877C176.969 169.498 178.781 170.383 178.781 170.383C178.781 170.383 177.237 172.124 177.78 173.775C178.87 177.106 192.642 178.452 195.264 173.571L195.276 173.577Z" fill="#AD6359"/>
<path d="M184.285 152.504L183.076 148.293C182.998 148.15 182.915 148 182.831 147.863C179.905 143.089 172.808 142.18 173.833 146.068C174.607 149.029 179.536 150.626 179.893 153.772H179.899L184.285 152.504Z" fill="#AD6359"/>
<path d="M179.054 170.575C179.006 170.569 178.988 170.628 179.036 170.646C183.458 172.196 188.791 172.543 193.302 171.191C193.451 171.149 193.445 170.886 193.273 170.904C188.35 171.406 183.946 171.46 179.054 170.581V170.575Z" fill="#263238"/>
<path d="M178.886 165C178.833 164.988 178.815 165.078 178.868 165.096C183.433 166.669 189.452 166.89 194.47 164.719C194.643 164.647 194.72 164.402 194.517 164.474C191.067 165.67 183.284 165.814 178.88 165H178.886Z" fill="#263238"/>
<path d="M195.139 158.067C190.246 159.969 185.234 160.101 180.068 159.497C180.002 159.491 179.996 159.586 180.05 159.604C182.493 160.591 185.83 160.633 188.423 160.442C190.908 160.262 193.113 159.598 195.198 158.234C195.282 158.181 195.234 158.025 195.133 158.061L195.139 158.067Z" fill="#263238"/>
<path d="M74.2669 228.69C75.9951 229.354 126.148 230.269 128.109 229.145C128.323 229.019 128.264 226.794 129.003 221.052C129.039 220.777 130.183 219.712 131.971 218.211C138.681 212.564 154.437 200.673 154.437 200.673L129.408 178.847L105.154 202.778L98.843 208.999C98.843 208.999 78.349 220.107 76.3229 221.572C74.3086 223.044 72.5387 228.032 74.2669 228.696V228.69Z" fill="#AD6359"/>
<path d="M74.2658 228.69C75.9939 229.36 126.147 230.275 128.108 229.151C128.322 229.025 128.263 226.806 129.002 221.052C129.037 220.777 130.182 219.718 131.969 218.205C134.299 216.243 135.408 215.346 138.882 212.636L107.06 200.895L105.153 202.779L98.8477 208.999C98.8477 208.999 78.3538 220.101 76.3277 221.572C74.3134 223.044 72.5376 228.026 74.2658 228.69Z" fill="#EBEBEB"/>
<path d="M70.8097 229.384C72.5498 229.994 125.987 230.58 127.911 229.39C128.364 229.109 128.776 225.998 129.109 221.728C129.151 221.195 134.562 216.847 135.307 216.045L102.561 204.974L98.425 208.88C98.425 208.88 74.3257 220.137 72.3591 221.668C70.3985 223.199 69.0696 228.774 70.8097 229.384Z" fill="#FFC727"/>
<path d="M71.5479 227.386C79.9445 227.279 117.184 227.638 125.491 228.17C125.557 228.17 125.557 228.218 125.491 228.224C117.172 228.511 79.9385 227.883 71.5479 227.524C71.3691 227.518 71.3751 227.386 71.5479 227.386Z" fill="#263238"/>
<path d="M95.7559 209.239C99.0633 208.659 103.098 209.215 105.595 211.608C105.69 211.703 105.559 211.835 105.452 211.799C102.204 210.728 99.1706 210.035 95.7619 209.658C95.5235 209.634 95.5175 209.281 95.7559 209.239Z" fill="#263238"/>
<path d="M93.3536 210.65C96.661 210.07 100.695 210.626 103.192 213.019C103.288 213.115 103.157 213.246 103.049 213.21C99.8015 212.14 96.7682 211.446 93.3595 211.069C93.1211 211.045 93.1152 210.692 93.3536 210.65Z" fill="#263238"/>
<path d="M90.9512 212.068C94.2586 211.488 98.293 212.044 100.79 214.437C100.885 214.533 100.754 214.664 100.647 214.628C97.3991 213.558 94.3659 212.864 90.9572 212.487C90.7188 212.463 90.7128 212.11 90.9512 212.068Z" fill="#263238"/>
<path d="M88.5508 213.479C91.8582 212.899 95.8926 213.455 98.3896 215.848C98.4849 215.944 98.3538 216.075 98.2466 216.039C94.9988 214.969 91.9655 214.275 88.5568 213.898C88.3184 213.874 88.3125 213.521 88.5508 213.479Z" fill="#263238"/>
<path d="M91.1674 206.242C93.4796 208.091 96.5129 208.874 99.2303 209.921C99.5104 210.029 99.7428 209.765 99.7547 209.514C99.8084 209.502 99.856 209.466 99.8322 209.395C98.9621 206.613 97.0433 203.652 94.8324 201.738C93.4677 200.56 91.0601 199.723 89.7431 201.505C88.4977 203.186 89.8147 205.166 91.1674 206.242ZM90.357 203.563C89.8147 199.92 93.6882 201.876 94.6595 202.785C95.2853 203.371 95.8514 204.041 96.3877 204.705C97.514 206.093 98.4258 207.618 99.4031 209.113C98.098 208.515 96.7572 208.037 95.4343 207.492C93.855 206.84 90.6549 205.578 90.357 203.569V203.563Z" fill="#263238"/>
<path d="M110.915 204.465C110.14 202.39 107.595 202.521 105.957 203.275C103.305 204.495 100.641 206.804 99.0379 209.232C98.9962 209.292 99.032 209.346 99.0797 209.37C99.0201 209.615 99.169 209.932 99.467 209.908C102.363 209.663 105.492 209.759 108.227 208.622C109.824 207.958 111.642 206.433 110.909 204.465H110.915ZM103.787 208.628C102.363 208.784 100.945 208.868 99.5266 209.077C100.879 207.916 102.178 206.708 103.644 205.685C104.348 205.201 105.075 204.71 105.837 204.322C107.023 203.717 111.278 202.916 109.753 206.272C108.912 208.12 105.486 208.437 103.787 208.622V208.628Z" fill="#263238"/>
<path d="M104.807 201.439L135.747 217.529C135.747 217.529 167.975 188.244 170.931 188.029C173.797 187.819 217.246 217.344 239.075 217.434C261.684 217.529 262.829 193.753 262.829 193.753L229.844 186.151C206.067 174.391 181.306 153.265 165.108 155.239C147.517 157.38 104.807 201.439 104.807 201.439Z" fill="#37474F"/>
<path d="M104.807 201.439L135.747 217.529C135.747 217.529 167.975 188.244 170.931 188.029C173.797 187.819 217.246 217.344 239.075 217.434C261.684 217.529 262.829 193.753 262.829 193.753L229.844 186.151C206.067 174.391 181.306 153.265 165.108 155.239C147.517 157.38 104.807 201.439 104.807 201.439Z" fill="#37474F"/>
<path d="M112.365 197.342C117.585 199.932 116.125 199.118 121.315 201.768C123.86 203.066 136.649 209.544 138.824 211.147C138.871 211.183 138.824 211.267 138.77 211.249C136.214 210.387 123.562 203.634 121.047 202.294C115.898 199.555 117.406 200.285 112.293 197.491C112.198 197.438 112.269 197.3 112.365 197.348V197.342Z" fill="#263238"/>
<path d="M141.224 210.112C147.272 204.758 167.093 187.334 167.891 186.682C168.541 186.162 169.19 185.48 169.953 185.127C170.603 184.828 171.24 184.99 171.86 185.283C172.778 185.713 173.672 186.18 174.584 186.629C176.371 187.502 178.159 188.381 179.947 189.254C186.878 192.652 193.772 196.133 200.757 199.417C207.473 202.575 212.27 205.548 219.284 207.976C226.262 210.393 233.473 212.229 240.803 213.126C241.709 213.234 242.615 213.33 243.52 213.42C243.586 213.426 243.586 213.527 243.52 213.521C236.316 213.168 229.224 211.691 222.341 209.568C215.393 207.42 210.673 204.639 204.076 201.588C197.235 198.43 190.495 195.051 183.749 191.683C180.191 189.906 176.64 188.112 173.064 186.359C172.254 185.959 171.103 185.097 170.18 185.528C169.78 185.713 169.447 186.036 169.113 186.318C168.72 186.647 168.32 186.976 167.927 187.311C166.396 188.591 142.106 209.591 141.307 210.196C141.247 210.243 141.164 210.16 141.224 210.112Z" fill="#263238"/>
<path d="M121.881 210.321L162.839 193.83C152.374 202.419 135.742 217.529 135.742 217.529L121.881 210.321Z" fill="#263238"/>
<path d="M262.823 193.753C262.823 193.753 261.679 217.529 239.069 217.434C220.095 217.356 184.775 195.033 173.988 189.339L209.958 174.852C216.526 178.877 223.224 182.873 229.845 186.151L262.823 193.753Z" fill="#263238"/>
<path d="M262.823 193.752C262.823 193.752 266.118 217.953 255.064 225.903C244.009 233.858 165.77 229.372 154.066 224.987C142.356 220.609 142.833 201.355 156.015 197.473C168.553 193.782 221.185 194.051 222.502 193.585C222.83 193.471 217.979 190.247 218.009 190.068L228.592 184.026L262.828 193.746L262.823 193.752Z" fill="#37474F"/>
<path d="M247.174 195.081C247.191 194.991 247.334 195.027 247.328 195.111C247.209 197.533 247.996 200.123 249.498 202.031C251.226 204.22 253.854 205.518 256.232 206.858C256.458 206.99 256.267 207.349 256.029 207.265C254.569 206.751 253.139 206.039 251.822 205.219C250.624 204.472 249.527 203.55 248.711 202.384C247.215 200.231 246.631 197.659 247.174 195.081Z" fill="#263238"/>
<path d="M223.462 191.366C224.034 190.697 224.654 190.063 225.25 189.411C226.656 187.873 228.075 186.324 229.541 184.847C229.678 184.709 229.928 184.924 229.803 185.08C228.802 186.276 227.753 187.431 226.716 188.597C226.185 189.195 225.649 189.787 225.113 190.38C224.612 190.93 223.998 191.474 223.617 192.12C223.218 192.79 223.677 193.4 224.38 193.508C225.011 193.604 225.613 193.304 226.114 192.952C227.258 192.15 228.182 190.972 229.147 189.973C229.737 189.363 230.327 188.753 230.929 188.148C231.567 187.508 232.246 186.904 232.878 186.264C232.919 186.222 232.991 186.288 232.955 186.33C232.395 187.036 231.871 187.778 231.304 188.483C230.744 189.189 230.172 189.889 229.594 190.583C229.046 191.241 228.48 191.881 227.896 192.509C227.401 193.041 226.847 193.556 226.197 193.903C225.154 194.459 223.385 194.507 222.902 193.167C222.664 192.503 223.027 191.857 223.45 191.366H223.462Z" fill="#263238"/>
<path d="M155.688 225.137C159.776 225.394 163.853 225.813 167.935 226.082C171.987 226.351 176.045 226.555 180.103 226.692C188.256 226.973 196.414 227.027 204.572 226.824C212.814 226.62 221.711 226.19 229.923 225.418C233.85 225.047 237.831 224.772 241.728 224.108C245.244 223.51 248.462 222.2 251.186 219.778C256.698 214.867 259.088 207.39 260.25 200.2C260.405 199.237 260.542 198.268 260.661 197.299C260.667 197.234 260.768 197.24 260.762 197.305C259.958 204.698 258.474 212.373 253.563 218.121C251.442 220.609 248.79 222.607 245.739 223.684C242.02 224.994 237.95 225.155 234.065 225.508C225.823 226.262 216.89 226.728 208.619 227.003C200.299 227.278 191.968 227.314 183.643 227.069C175.324 226.824 167.005 226.339 158.716 225.562C157.703 225.466 156.695 225.364 155.688 225.227C155.629 225.221 155.635 225.131 155.694 225.131L155.688 225.137Z" fill="#263238"/>
<path d="M182.863 194.751C185.455 194.488 188.041 194.231 190.64 194.076C193.268 193.92 195.896 193.8 198.524 193.693C203.72 193.483 208.929 193.316 214.137 193.304C217.093 193.298 220.043 193.412 222.992 193.579C223.088 193.579 223.076 193.723 222.981 193.723C217.766 193.962 212.558 194.064 207.343 194.177C202.141 194.291 196.939 194.518 191.736 194.787C188.786 194.937 185.836 195.027 182.887 195.134C182.672 195.14 182.642 194.769 182.863 194.751Z" fill="#263238"/>
<path d="M217.408 189.781C219.458 190.738 221.365 191.959 223.224 193.251C225.059 194.525 226.931 195.847 228.57 197.366C228.617 197.408 228.546 197.468 228.504 197.444C226.525 196.415 224.63 195.153 222.753 193.944C220.87 192.73 218.999 191.492 217.271 190.056C217.152 189.955 217.235 189.704 217.408 189.787V189.781Z" fill="#263238"/>
<path d="M218.349 191.527L264.36 196.863C264.36 195.912 255.213 149.442 243.324 142.222C241.042 140.834 236.948 140.918 233.295 144.268C226.668 150.351 217.747 190.905 218.343 191.527H218.349Z" fill="#FFC727"/>
<path d="M247.562 146.493C246.846 146.828 246.143 147.211 245.523 147.75C246.37 147.642 247.144 147.367 247.895 147.044L247.931 147.026C247.806 146.84 247.687 146.667 247.562 146.493ZM239.373 178.41C238.629 178.757 237.908 179.146 237.264 179.708C238.11 179.607 238.885 179.326 239.636 179.003C240.375 178.656 241.102 178.267 241.751 177.705C240.899 177.806 240.13 178.087 239.373 178.41ZM259.772 177.059C259.605 177.178 259.432 177.31 259.271 177.453C259.468 177.429 259.659 177.394 259.85 177.352C259.826 177.256 259.802 177.154 259.772 177.059ZM220.477 180.396C220.477 180.396 220.471 180.396 220.471 180.384C220.393 180.725 220.316 181.054 220.238 181.383C220.5 181.874 220.804 182.346 221.18 182.777C221.079 181.928 220.798 181.15 220.477 180.396ZM248.33 166.071C247.985 165.323 247.597 164.599 247.043 163.947C247.144 164.803 247.424 165.574 247.746 166.334C248.092 167.076 248.473 167.805 249.033 168.451C248.932 167.602 248.652 166.824 248.33 166.071ZM237.169 141.888C237.127 141.9 237.091 141.912 237.055 141.93C237.103 141.989 237.151 142.049 237.204 142.109C237.204 142.037 237.186 141.959 237.169 141.888ZM229.952 169.372C229.189 169.079 228.402 168.846 227.544 168.78C228.224 169.313 228.963 169.666 229.725 169.971C230.494 170.252 231.275 170.491 232.133 170.551C231.454 170.024 230.715 169.678 229.952 169.372ZM263.461 192.198C263.282 192.12 263.103 192.042 262.925 191.97C262.156 191.689 261.375 191.444 260.523 191.384C261.19 191.917 261.935 192.263 262.698 192.569C262.996 192.682 263.3 192.784 263.604 192.874C263.562 192.658 263.514 192.431 263.461 192.198ZM249.677 185.905C249.391 186.677 249.153 187.466 249.093 188.322C249.617 187.646 249.969 186.898 250.273 186.138C250.559 185.367 250.791 184.583 250.857 183.722C250.327 184.404 249.981 185.146 249.677 185.905ZM230.911 189.345C230.625 190.116 230.387 190.9 230.327 191.761C230.858 191.079 231.203 190.337 231.507 189.572C231.787 188.8 232.032 188.011 232.085 187.155C231.567 187.831 231.215 188.573 230.911 189.345ZM235.911 156.118C235.625 156.889 235.387 157.679 235.333 158.54C235.852 157.858 236.203 157.11 236.513 156.351C236.793 155.579 237.032 154.79 237.091 153.934C236.561 154.616 236.221 155.358 235.911 156.118Z" fill="white"/>
<path d="M248.366 145.56C256.918 152.163 279.45 178.847 274.736 185.181C269.992 191.557 237.741 189.404 228.325 186.682C225.524 185.875 232.711 167.978 235.703 167.093C238.194 166.357 252.168 170.162 252.418 169.348C252.704 168.427 249.606 162.511 244.612 151.703C238.855 139.237 244.582 142.647 248.36 145.56H248.366Z" fill="#AD6359"/>
<path d="M221.937 163.989C215.477 164.157 213.844 165.192 208.32 162.428C204.697 160.616 201.985 162.159 204.446 165.586C208.475 171.197 216.853 172.74 219.911 172.435L221.937 163.989Z" fill="#AD6359"/>
<path d="M239.707 167.302C239.707 167.302 231.96 164.527 225.065 164.019C220.292 163.666 209.827 164.066 201.693 175.85C199.762 178.643 198.987 183.997 203.79 180.581C207.199 178.153 208.635 175.581 210.876 174.534C210.876 174.534 210.697 181.461 213.558 183.291C214.839 184.11 218.385 186.258 221.382 187.538C221.382 187.538 221.835 186.958 222.306 186.138C222.306 186.138 225.142 187.592 229.826 186.347L239.707 167.29V167.302Z" fill="#AD6359"/>
<path d="M220.458 164.414C218.456 165.927 214.26 169.205 211.757 173.081C208.98 177.388 204.779 186.438 207.973 188.465C210.309 189.949 212.216 186.635 212.216 186.635C212.216 186.635 211.269 190.744 213.67 191.624C215.863 192.425 217.18 189.769 217.18 189.769C217.18 189.769 217.031 192.359 219.29 192.724C222.007 193.161 221.876 187.658 225.005 185.714C225.708 185.277 220.452 164.414 220.452 164.414H220.458Z" fill="#AD6359"/>
<path d="M216.782 175.27C215.132 177.004 212.385 181.903 212.164 186.545C212.164 186.652 212.236 186.712 212.259 186.616C213.582 181.556 215.775 177.124 216.824 175.299C216.836 175.276 216.8 175.252 216.782 175.276V175.27Z" fill="#263238"/>
<path d="M221.037 178.213C219.761 179.858 217.157 185.032 217.098 189.745C217.098 189.853 217.175 189.907 217.199 189.811C218.361 184.47 220.149 180.127 221.078 178.243C221.09 178.219 221.055 178.195 221.037 178.219V178.213Z" fill="#263238"/>
<path d="M210.871 174.492C208.916 175.443 207.742 176.675 206.205 178.177C205.442 178.918 204.673 179.648 203.833 180.3C203.07 180.892 201.95 181.79 200.937 181.221C200.377 180.91 200.263 180.187 200.281 179.6C200.299 178.942 200.734 177.656 201.026 177.064C201.038 177.034 200.99 177.004 200.972 177.04C200.704 177.573 200.192 178.751 200.079 179.337C199.977 179.87 199.93 180.474 200.156 180.982C200.645 182.071 202.009 181.999 202.903 181.526C203.44 181.245 203.928 180.856 204.393 180.474C204.846 180.103 205.275 179.714 205.698 179.307C206.568 178.482 207.385 177.609 208.249 176.771C209.19 175.856 209.87 175.365 210.907 174.564C210.942 174.534 210.907 174.48 210.865 174.498L210.871 174.492Z" fill="#263238"/>
<path d="M207.76 182.472C208.099 181.204 210.173 175.826 210.918 174.534C210.936 174.499 210.894 174.469 210.871 174.499C209.518 176.293 207.611 180.773 207.223 182.167C206.842 183.549 206.431 185.301 206.663 186.731C207.021 188.89 208.511 189.057 209.059 189.075C209.708 189.099 210.322 188.86 210.841 188.471C211.413 188.041 211.913 187.263 212.241 186.629C212.259 186.593 212.211 186.563 212.194 186.593C211.592 187.568 210.489 188.609 209.297 188.651C208.779 188.669 208.231 188.519 207.849 188.154C207.402 187.718 207.265 187.072 207.218 186.473C207.11 185.116 207.414 183.764 207.766 182.46L207.76 182.472Z" fill="#263238"/>
<path d="M239.708 167.303L233.225 189.961C233.225 189.961 273.587 192.269 275.827 184.912C278.062 177.555 258.563 153.456 250.477 146.834C241.103 139.166 240.596 142.384 243.653 150.058C246.847 158.091 252.348 169.558 252.348 169.558L239.714 167.297L239.708 167.303Z" fill="#FFC727"/>
<path d="M249.677 185.905C249.391 186.676 249.152 187.466 249.093 188.321C249.617 187.645 249.969 186.898 250.273 186.138C250.559 185.366 250.791 184.583 250.857 183.722C250.326 184.403 249.981 185.145 249.677 185.905ZM259.349 160.848C258.58 160.567 257.787 160.328 256.941 160.268C257.615 160.801 258.354 161.147 259.116 161.453C259.885 161.734 260.666 161.979 261.524 162.039C260.85 161.506 260.106 161.159 259.349 160.848ZM274.587 183.393C274.247 182.645 273.86 181.915 273.293 181.275C273.401 182.118 273.681 182.896 273.997 183.65C274.342 184.397 274.73 185.127 275.29 185.773C275.188 184.918 274.908 184.152 274.587 183.393ZM261.381 176.161C260.827 176.418 260.284 176.699 259.772 177.058C259.605 177.178 259.432 177.309 259.271 177.453C259.468 177.429 259.659 177.393 259.849 177.351C260.475 177.22 261.065 176.992 261.643 176.747C262.388 176.4 263.109 176.017 263.759 175.455C262.906 175.551 262.138 175.838 261.381 176.161ZM239.373 178.41C238.628 178.757 237.907 179.146 237.264 179.708C238.11 179.606 238.885 179.325 239.635 179.002C240.374 178.655 241.101 178.266 241.751 177.704C240.899 177.806 240.13 178.087 239.373 178.41ZM249.284 145.883C248.711 146.02 248.169 146.23 247.633 146.457L247.561 146.493C246.846 146.828 246.143 147.211 245.523 147.749C246.369 147.641 247.144 147.366 247.895 147.043L247.931 147.025C248.497 146.762 249.045 146.475 249.564 146.104C249.468 146.026 249.373 145.955 249.284 145.883Z" fill="white"/>
<path d="M265.093 173.188C263.091 172.219 260.987 171.448 258.866 170.784C256.762 170.126 254.599 169.695 252.43 169.354C251.19 169.157 249.945 169.025 248.693 168.882C248.657 168.882 248.651 168.936 248.693 168.942C250.88 169.253 253.049 169.749 255.183 170.311C257.31 170.868 259.42 171.46 261.523 172.094C262.715 172.453 263.889 172.871 265.063 173.266C265.117 173.284 265.147 173.206 265.093 173.183V173.188Z" fill="#263238"/>
<path d="M239.802 167.225C240.004 167.243 251.232 169.002 251.607 169.109C251.536 168.954 248.693 163.595 248.27 162.811C248.228 162.733 248.193 162.656 248.151 162.578C247.895 162.237 247.638 161.902 247.394 161.555C247.084 161.106 246.78 160.658 246.47 160.209C246.458 160.197 246.482 160.179 246.488 160.191C246.816 160.622 247.144 161.058 247.465 161.495C247.614 161.698 247.757 161.902 247.901 162.111C247.614 161.555 247.34 160.993 247.06 160.436C246.619 159.539 246.208 158.636 245.797 157.721C245.785 157.691 245.827 157.673 245.845 157.703C246.685 159.264 247.567 160.801 248.413 162.362C249.253 163.918 252.447 169.654 252.43 169.654C252.412 169.672 240.022 167.447 239.784 167.393C239.689 167.369 239.701 167.231 239.802 167.237V167.225Z" fill="#263238"/>
<path d="M241.346 181.048C242.055 178.524 242.746 175.988 243.545 173.487C243.998 172.07 244.451 170.64 244.915 169.229C244.933 169.175 245.029 169.199 245.011 169.253C244.397 171.819 243.783 174.385 243.05 176.921C242.323 179.445 241.62 181.975 240.863 184.487C240.434 185.917 239.963 187.328 239.445 188.728C239.433 188.758 239.385 188.746 239.391 188.716C239.916 186.132 240.619 183.59 241.334 181.048H241.346Z" fill="#263238"/>
<path d="M232.776 190.373C233.062 189.661 233.396 188.651 233.712 187.951C233.795 187.765 233.927 187.777 233.867 187.969C233.67 188.603 233.533 189.309 233.337 189.955C233.903 189.973 234.463 189.979 235.029 190.002C235.685 190.032 236.334 190.062 236.99 190.086C238.271 190.134 239.546 190.176 240.827 190.2C243.42 190.248 246.012 190.242 248.598 190.182C253.789 190.056 258.991 189.745 264.146 189.081C265.588 188.896 267.024 188.681 268.455 188.423C269.909 188.16 271.476 187.867 272.656 187.514C272.692 187.502 272.709 187.568 272.674 187.58C271.47 188.046 270.332 188.399 269.068 188.669C267.781 188.95 266.488 189.195 265.183 189.392C262.591 189.793 259.981 190.056 257.364 190.242C252.18 190.619 246.977 190.768 241.775 190.714C240.321 190.696 238.861 190.666 237.407 190.613C236.674 190.589 235.935 190.565 235.202 190.523C234.469 190.481 232.723 190.481 232.77 190.361L232.776 190.373Z" fill="#263238"/>
<path d="M235.434 151.446C238.068 152.062 242.573 148.006 244.349 144.728C244.468 144.501 244.116 142.138 243.824 139.243C243.658 137.485 243.509 135.529 243.503 133.729C243.503 133.358 232.275 136.51 232.275 136.51C232.275 136.51 233.396 140.278 233.384 143.413C233.384 143.676 233.354 143.921 233.306 144.148C233.306 144.184 233.294 144.226 233.288 144.268C233.068 145.668 232.877 150.848 235.428 151.446H235.434Z" fill="#AD6359"/>
<path d="M242.817 133.776C242.305 136.821 240.446 144.172 234.451 144.328C234.033 144.34 233.652 144.322 233.3 144.268C233.3 144.22 233.312 144.178 233.312 144.142C233.354 143.909 233.384 143.67 233.39 143.407C233.396 140.266 232.275 136.504 232.275 136.504C232.275 136.504 240.374 134.231 242.811 133.776H242.817Z" fill="#263238"/>
<path d="M247.025 121.981C247.579 126.102 243.658 137.096 240.464 139.166C235.828 142.163 229.159 141.427 226.853 136.049C224.612 130.84 229.976 116.598 233.456 114.815C238.587 112.189 246.209 115.892 247.025 121.981Z" fill="#AD6359"/>
<path d="M234.886 126.803C234.886 126.803 234.928 126.863 234.916 126.892C234.612 127.616 234.386 128.501 234.952 128.998C234.97 129.016 234.952 129.052 234.928 129.034C234.165 128.609 234.475 127.437 234.88 126.803H234.886Z" fill="#263238"/>
<path d="M235.84 126.287C237.049 126.652 236.233 129.057 235.113 128.722C234.01 128.387 234.827 125.982 235.84 126.287Z" fill="#263238"/>
<path d="M230.548 125.451C230.548 125.421 230.476 125.469 230.47 125.499C230.244 126.252 229.851 127.078 229.1 127.096C229.076 127.096 229.064 127.132 229.094 127.138C229.952 127.305 230.459 126.205 230.554 125.451H230.548Z" fill="#263238"/>
<path d="M230.148 124.446C228.986 123.949 228.074 126.318 229.153 126.779C230.214 127.233 231.126 124.865 230.148 124.446Z" fill="#263238"/>
<path d="M237.079 125.463C236.763 125.301 236.495 125.104 236.197 124.912C235.863 124.697 235.571 124.56 235.404 124.177C235.315 123.973 235.44 123.668 235.631 123.561C236.072 123.315 236.549 123.477 236.966 123.716C237.419 123.979 237.699 124.296 237.878 124.787C238.056 125.259 237.496 125.672 237.079 125.463Z" fill="#263238"/>
<path d="M229.642 122.813C229.993 122.872 230.327 122.866 230.679 122.89C231.078 122.914 231.394 122.98 231.751 122.765C231.942 122.651 232.025 122.334 231.93 122.137C231.716 121.676 231.239 121.521 230.762 121.473C230.244 121.419 229.832 121.509 229.391 121.796C228.968 122.071 229.177 122.735 229.642 122.813Z" fill="#263238"/>
<path d="M233.23 133.951C232.991 134.064 232.735 134.244 232.455 134.172C232.187 134.106 231.925 133.885 231.722 133.711C231.704 133.693 231.669 133.711 231.674 133.741C231.77 134.094 232.115 134.411 232.479 134.471C232.837 134.525 233.099 134.291 233.283 134.01C233.307 133.968 233.26 133.939 233.224 133.951H233.23Z" fill="#263238"/>
<path d="M233.205 131.456C232.567 131.959 231.84 132.108 231.137 132.007C230.821 131.965 230.505 131.869 230.213 131.737C230.154 131.713 230.094 131.69 230.046 131.66C229.993 131.636 229.945 131.612 229.892 131.576C229.808 131.534 229.784 131.444 229.802 131.361C229.814 131.331 229.82 131.307 229.838 131.283L229.862 131.211C230.041 130.631 230.392 129.781 230.392 129.781C230.148 129.817 228.92 129.931 229.039 129.638C230.029 127.209 231.131 124.506 232.627 122.293C232.675 122.215 232.794 122.281 232.758 122.358C231.9 124.733 230.631 126.94 229.731 129.309C230.112 129.297 230.75 129.243 231.048 129.351C231.119 129.405 230.338 130.99 230.279 131.253C230.279 131.253 230.279 131.265 230.279 131.283C231.197 131.731 232.019 131.69 233.169 131.361C233.241 131.337 233.282 131.408 233.217 131.45L233.205 131.456Z" fill="#263238"/>
<path d="M230.648 131.563C230.648 131.563 230.923 132.425 231.53 132.909C231.757 133.089 232.019 133.22 232.335 133.238C232.979 133.286 233.181 132.742 233.229 132.239C233.271 131.826 233.205 131.432 233.205 131.432C233.205 131.432 232.061 131.952 230.648 131.563Z" fill="#263238"/>
<path d="M231.531 132.903C231.758 133.083 232.02 133.214 232.336 133.232C232.979 133.28 233.182 132.736 233.23 132.233C232.574 132.084 231.793 132.299 231.531 132.903Z" fill="#FF9ABB"/>
<path d="M244.147 130.247C242.359 129.918 242.872 125.767 242.872 125.767C242.872 125.767 238.188 126.138 239.29 120.151C239.29 120.151 233.73 120.845 230.846 118.446C228.379 116.394 227.842 111.394 230.423 109.001C231.877 107.656 235.363 106.848 239.249 112.453C239.249 112.453 246.334 109.384 247.168 117.399C247.168 117.399 250.315 118.434 250.076 121.664C249.701 126.754 245.679 130.535 244.135 130.247H244.147Z" fill="#263238"/>
<path d="M239.379 119.732C239.409 119.679 239.493 119.714 239.469 119.774C238.903 121.174 238.307 122.699 239.219 124.105C240.106 125.469 241.668 126.139 243.241 125.666C243.33 125.636 243.384 125.78 243.289 125.804C241.799 126.24 240.184 125.744 239.195 124.518C238.015 123.052 238.474 121.21 239.373 119.732H239.379Z" fill="#263238"/>
<path d="M244.196 129.296C246.901 128.519 249.178 126.808 249.952 123.973C250.322 122.621 250.363 121.15 249.726 119.894C249.142 118.739 248.039 118.141 247.11 117.322C247.086 117.298 247.11 117.256 247.145 117.268C253.319 120.223 250.256 128.71 244.267 129.625C244.076 129.655 244.011 129.35 244.196 129.296Z" fill="#263238"/>
<path d="M229.601 108.894C233.087 105.568 237.938 109.253 239.386 112.794C239.386 112.806 239.368 112.818 239.362 112.806C237.956 110.078 234.511 106.992 231.276 108.278C227.366 109.833 227.551 116.418 231.425 117.824C231.544 117.866 231.478 118.069 231.353 118.033C227.724 117.011 227.003 111.37 229.595 108.9L229.601 108.894Z" fill="#263238"/>
<path d="M242.991 130.792C242.991 130.792 246.209 127.61 247.699 128.83C249.183 130.051 246.293 134.985 244.219 135.35C242.145 135.715 241.77 133.795 241.77 133.795L242.991 130.792Z" fill="#AD6359"/>
<path d="M246.836 130.224C246.865 130.224 246.865 130.272 246.836 130.278C245.37 130.577 244.422 131.707 243.677 132.928C244.178 132.497 244.78 132.324 245.364 132.928C245.393 132.958 245.352 133.011 245.316 132.993C244.78 132.772 244.362 132.79 243.904 133.173C243.576 133.442 243.326 133.807 243.063 134.136C242.98 134.244 242.771 134.136 242.843 134.01C242.843 133.998 242.855 133.992 242.861 133.98C243.147 132.234 244.946 130.051 246.841 130.218L246.836 130.224Z" fill="#263238"/>
<path d="M227.693 196.044H180.031V198.185H227.693V196.044Z" fill="#C7C7C7"/>
<path d="M180.031 196.044V198.185H212.426L210.793 196.044H180.031Z" fill="#A6A6A6"/>
<path d="M208.736 198.185H162.284L158.416 166.52H204.869L208.736 198.185Z" fill="#A6A6A6"/>
<path d="M206.597 198.185H160.145L156.277 166.52H202.73L206.597 198.185Z" fill="#C7C7C7"/>
<path d="M184.268 182.023C184.489 183.572 183.511 184.978 182.081 185.163C180.651 185.343 179.316 184.236 179.096 182.681C178.875 181.132 179.852 179.726 181.283 179.541C182.713 179.361 184.048 180.468 184.268 182.023Z" fill="white"/>
</g>
<path d="M5.48828 230.658H307.505" stroke="#263238" stroke-width="1.28676" stroke-linecap="round" stroke-linejoin="round"/>
</g>
<defs>
<clipPath id="clip0_7466_43704">
<rect width="346" height="231" fill="white" transform="translate(0 0.291016)"/>
</clipPath>
<clipPath id="clip1_7466_43704">
<rect width="206" height="229" fill="white" transform="translate(70 1.28125)"/>
</clipPath>
</defs>
</svg>
