<svg width="39" height="25" viewBox="0 0 39 25" fill="none" xmlns="http://www.w3.org/2000/svg">
<path d="M24.1804 3.26611H13.8975V21.7449H24.1804V3.26611Z" fill="#FF5F00"/>
<path d="M14.5507 12.5061C14.5491 10.7265 14.9523 8.9698 15.73 7.36906C16.5077 5.76831 17.6393 4.36546 19.0393 3.26673C17.3056 1.90403 15.2235 1.05659 13.031 0.821268C10.8385 0.585944 8.62401 0.972231 6.64066 1.93598C4.65731 2.89972 2.98511 4.40204 1.81521 6.27121C0.64531 8.14039 0.0249023 10.301 0.0249023 12.5061C0.0249023 14.7112 0.64531 16.8719 1.81521 18.741C2.98511 20.6102 4.65731 22.1125 6.64066 23.0763C8.62401 24.04 10.8385 24.4263 13.031 24.191C15.2235 23.9557 17.3056 23.1082 19.0393 21.7455C17.6393 20.6468 16.5077 19.2439 15.73 17.6432C14.9524 16.0424 14.5491 14.2858 14.5507 12.5061V12.5061Z" fill="#EB001B"/>
<path d="M38.0538 12.5061C38.0539 14.7112 37.4336 16.8718 36.2637 18.741C35.0939 20.6102 33.4217 22.1125 31.4384 23.0762C29.4551 24.04 27.2407 24.4263 25.0482 24.191C22.8557 23.9557 20.7737 23.1082 19.04 21.7455C20.4388 20.6457 21.5695 19.2426 22.3471 17.6421C23.1246 16.0416 23.5286 14.2855 23.5286 12.5061C23.5286 10.7268 23.1246 8.97063 22.3471 7.37014C21.5695 5.76965 20.4388 4.36657 19.04 3.26672C20.7737 1.90403 22.8557 1.05659 25.0482 0.821266C27.2407 0.585945 29.4551 0.972239 31.4384 1.93599C33.4217 2.89975 35.0939 4.40207 36.2637 6.27125C37.4336 8.14043 38.0539 10.301 38.0538 12.5061V12.5061Z" fill="#F79E1B"/>
<path d="M36.9322 19.7884V19.4101H37.0848V19.333H36.6963V19.4101H36.8489V19.7884H36.9322ZM37.6865 19.7884V19.3323H37.5674L37.4304 19.646L37.2934 19.3323H37.1743V19.7884H37.2584V19.4444L37.3868 19.741H37.474L37.6025 19.4436V19.7884H37.6865Z" fill="#F79E1B"/>
</svg>
