<svg width="62" height="63" viewBox="0 0 62 63" fill="none" xmlns="http://www.w3.org/2000/svg">
<path d="M0.775391 10.6709C0.775391 5.22369 5.19121 0.807861 10.6384 0.807861H52.1369C57.5841 0.807861 61.9999 5.22368 61.9999 10.6709V52.1693C61.9999 57.6165 57.5841 62.0324 52.1369 62.0324H10.6384C5.19121 62.0324 0.775391 57.6165 0.775391 52.1693V10.6709Z" fill="#E6E6E6"/>
<g opacity="0.25">
<path d="M24.2324 33.6719H23.2785H23.2639H18.5361V34.5124H20.4225V39.1515H21.3831V34.5124H23.2639V39.1515H27.1153V38.3121H24.2324V33.6719Z" fill="black"/>
<path d="M33.1341 35.2563C32.9814 34.9096 32.7705 34.6133 32.5023 34.3642C32.2341 34.1173 31.9187 33.9232 31.5596 33.7851C31.1983 33.646 30.8145 33.5764 30.4038 33.5764C29.9931 33.5764 29.616 33.646 29.2535 33.7851C28.8899 33.9232 28.5735 34.1173 28.3053 34.3642C28.0371 34.6133 27.8239 34.9118 27.6656 35.2608C27.5063 35.6098 27.4277 35.9914 27.4277 36.4066C27.4277 36.8218 27.5063 37.2123 27.6656 37.5579C27.8239 37.9047 28.0371 38.2021 28.3053 38.449C28.5735 38.697 28.8911 38.8911 29.2535 39.0291C29.6171 39.1683 29.9998 39.2379 30.4038 39.2379C30.8078 39.2379 31.1994 39.1683 31.5596 39.0291C31.9199 38.8911 32.2341 38.697 32.5023 38.449C32.7705 38.2021 32.9814 37.9036 33.1341 37.5579C33.2878 37.2112 33.3641 36.8285 33.3641 36.4066C33.3641 35.9846 33.2878 35.602 33.1341 35.2563ZM32.2341 37.191C32.1342 37.43 31.995 37.6399 31.8189 37.8183C31.6427 37.9967 31.4328 38.137 31.1904 38.238C30.9492 38.3401 30.6866 38.3895 30.4027 38.3895C30.1187 38.3895 29.855 38.3401 29.6104 38.238C29.3658 38.1381 29.1537 38.0001 28.9741 37.8228C28.7957 37.6466 28.6554 37.4367 28.5544 37.1955C28.4534 36.9531 28.4029 36.6905 28.4029 36.4066C28.4029 36.1227 28.4523 35.8612 28.5544 35.6188C28.6543 35.3764 28.7957 35.1677 28.9741 34.9915C29.1537 34.8153 29.3658 34.6773 29.6104 34.5763C29.855 34.4753 30.1199 34.4237 30.4027 34.4237C30.6855 34.4237 30.948 34.4742 31.1904 34.5763C31.4328 34.6762 31.6427 34.8153 31.8189 34.9915C31.995 35.1677 32.1331 35.3764 32.2341 35.6188C32.3339 35.8612 32.3867 36.1238 32.3867 36.4066C32.3867 36.6894 32.3351 36.9497 32.2341 37.191Z" fill="black"/>
<path d="M38.8038 36.694C38.5592 36.4404 38.2136 36.3102 37.7703 36.3035C37.9947 36.2922 38.1799 36.2451 38.3235 36.1609C38.4694 36.0779 38.5839 35.9758 38.6703 35.8579C38.7567 35.739 38.8173 35.6178 38.8476 35.4899C38.8802 35.3631 38.8959 35.2475 38.8959 35.1431C38.8959 34.8603 38.8386 34.6247 38.7231 34.4339C38.6063 34.2431 38.4571 34.0916 38.2719 33.9794C38.0879 33.8661 37.8803 33.7864 37.6491 33.737C37.4191 33.6888 37.1879 33.6641 36.9567 33.6641H34.3779V39.1516H37.2081C37.4561 39.1516 37.6962 39.1303 37.9297 39.0876C38.1642 39.0438 38.3729 38.9664 38.5581 38.8576C38.7421 38.7487 38.8914 38.5972 39.0036 38.4031C39.1169 38.2101 39.1719 37.9665 39.1719 37.6725C39.1719 37.2741 39.0496 36.9487 38.8038 36.6951V36.694ZM35.3464 34.4945H36.9219C37.0544 34.4945 37.1823 34.5057 37.3068 34.5248C37.4314 34.5461 37.5391 34.5809 37.6323 34.6325C37.7243 34.6841 37.7972 34.7593 37.8522 34.8536C37.9072 34.9478 37.9353 35.0747 37.9353 35.2306C37.9353 35.5303 37.8489 35.7334 37.6749 35.8411C37.5021 35.9488 37.2788 36.0016 37.0083 36.0016H35.3464V34.4945ZM38.1126 37.971C38.0464 38.0709 37.9577 38.1483 37.8489 38.2C37.7378 38.2516 37.6143 38.2841 37.4763 38.2987C37.3371 38.3133 37.1957 38.32 37.0521 38.32H35.3464V36.7456H37.0083C37.1531 36.7456 37.2967 36.7557 37.4415 36.7759C37.5863 36.7961 37.7142 36.8343 37.8264 36.8926C37.9398 36.9498 38.0318 37.0329 38.1036 37.1395C38.1754 37.245 38.2113 37.3852 38.2113 37.5592C38.2113 37.7331 38.1777 37.8689 38.1126 37.971Z" fill="black"/>
<path d="M44.051 35.9533H41.1602V33.921L40.1963 33.6697V39.1471H41.1602V36.8017H44.051V39.1471H45.0251V33.9311L44.051 33.6697V35.9533Z" fill="black"/>
<path d="M47.9754 33.6641L45.915 39.1516H46.9273L48.6408 34.5124L50.3466 39.1516H51.3678L49.3074 33.6641H47.9754Z" fill="black"/>
<path d="M15.4705 33.6641L13.4102 39.1516H14.4235L16.1371 34.5124L17.8428 39.1516H18.8629L16.8037 33.6641H15.4705Z" fill="black"/>
<path d="M32.3604 31.7551L33.358 32.0289V30.845H32.3604V31.7551Z" fill="black"/>
<path d="M51.3674 24.4609V29.9395H50.4023V24.7123L51.3674 24.4609Z" fill="black"/>
<path d="M49.2857 28.64C49.2543 28.3561 49.2027 28.0935 49.1084 27.8421C48.9816 27.4662 48.7841 27.1318 48.5204 26.8478C48.269 26.5751 47.9335 26.3552 47.5475 26.1981C47.1603 26.0298 46.7193 25.9579 46.2064 25.9579C45.6936 25.9579 45.2649 26.0298 44.8879 26.1981C44.531 26.3327 44.301 26.5224 44.0597 26.7524V24.4609L43.0946 24.7123V29.0989H39.5036V24.4609L38.5396 24.7123V29.0989H35.3257V25.9736L34.3606 26.225V29.0989H30.1333V28.4077C30.1333 27.9364 30.0604 27.5178 29.9347 27.1306C29.7989 26.7424 29.6003 26.418 29.3366 26.1352C29.0751 25.8525 28.7497 25.6336 28.3636 25.4754C27.9753 25.3284 27.5354 25.2453 27.0338 25.2453C26.5322 25.2453 26.0912 25.3284 25.6928 25.4754C25.3169 25.6336 24.9813 25.8536 24.73 26.1352C24.4685 26.418 24.2688 26.7424 24.133 27.1306C24.0488 27.3607 23.9972 27.6008 23.9747 27.8623C23.9444 27.9992 23.9332 28.1462 23.9332 28.3022V29.0989H14.3733V24.4609L13.4082 24.7123V29.9383H49.3183V29.0989C49.3183 28.9418 49.3082 28.7735 49.2869 28.6388L49.2857 28.64ZM44.1854 28.3347C44.2583 28.0733 44.3952 27.8533 44.5737 27.6648C44.7397 27.4763 44.972 27.3293 45.2436 27.2249C45.5051 27.1205 45.8395 27.0566 46.2064 27.0566C46.5947 27.0566 46.9202 27.1194 47.1917 27.2249C47.4532 27.3304 47.6731 27.4763 47.8628 27.6648C48.0401 27.8533 48.1546 28.0733 48.2398 28.3347C48.2701 28.4279 48.3644 28.943 48.3644 29.0989H44.0597C44.0597 28.9418 44.1427 28.4279 44.1842 28.3347H44.1854ZM26.0586 26.5022C26.3313 26.3967 26.6545 26.3552 27.0327 26.3552C27.4109 26.3552 27.7341 26.3967 27.9967 26.5022C28.2795 26.6167 28.4983 26.7637 28.6778 26.9421C28.845 27.1317 28.9808 27.3506 29.065 27.612C29.1379 27.8735 29.1806 28.1473 29.1806 28.4402V29.1001H27.4737C27.5152 29.0574 27.5568 29.0058 27.5983 28.9531C27.6813 28.8487 27.7453 28.7219 27.7767 28.5861C27.8081 28.4705 27.8295 28.3448 27.8295 28.2506C27.8295 27.9678 27.7666 27.7276 27.6499 27.538C27.5343 27.3394 27.3884 27.1923 27.1999 27.0768C27.0215 26.9724 26.8015 26.8882 26.5827 26.8355C26.3515 26.7839 26.1215 26.7614 25.8802 26.7614H25.8701C25.7759 26.7614 25.6816 26.7614 25.5873 26.7827C25.7231 26.6672 25.8813 26.5729 26.0598 26.5L26.0586 26.5022ZM24.9062 28.1249C24.9163 28.0632 24.9376 28.0093 24.9679 27.9577C25.0307 27.8634 25.1037 27.7804 25.1889 27.7377C25.2821 27.6861 25.3977 27.6435 25.5133 27.6334C25.6288 27.6019 25.7545 27.6019 25.8802 27.6019C25.9958 27.6019 26.1215 27.6019 26.236 27.6334C26.3616 27.6435 26.466 27.6861 26.5614 27.7377C26.6545 27.7804 26.7286 27.8623 26.7813 27.9577C26.833 28.0519 26.8644 28.1776 26.8644 28.3347C26.8644 28.6276 26.7813 28.8375 26.6029 28.943C26.4346 29.0462 26.2045 29.1001 25.9431 29.1001H25.8062C25.5447 29.1001 25.3247 29.0473 25.1463 28.943C24.9679 28.8375 24.8848 28.6276 24.8848 28.3347C24.8848 28.2607 24.8848 28.1877 24.9062 28.1249Z" fill="black"/>
</g>
</svg>
