<svg width="239" height="193" viewBox="0 0 239 193" fill="none" xmlns="http://www.w3.org/2000/svg">
<path d="M0.382812 20.1358C0.382812 9.04477 9.37386 0.0537109 20.4649 0.0537109H218.035C229.126 0.0537109 238.117 9.04475 238.117 20.1358V172.296C238.117 183.387 229.126 192.378 218.035 192.378H20.4649C9.37386 192.378 0.382812 183.387 0.382812 172.296V20.1358Z" fill="#F9F9F9"/>
<g opacity="0.25">
<path d="M86.1491 102.891H82.1218H82.0602H62.0986V106.439H70.0633V126.027H74.1191V106.439H82.0602V126.027H98.3213V122.483H86.1491V102.891Z" fill="black"/>
<path d="M123.737 109.58C123.092 108.116 122.202 106.865 121.069 105.813C119.937 104.771 118.605 103.951 117.089 103.369C115.564 102.781 113.943 102.487 112.209 102.487C110.475 102.487 108.883 102.781 107.352 103.369C105.817 103.951 104.481 104.771 103.349 105.813C102.216 106.865 101.316 108.126 100.648 109.599C99.9752 111.073 99.6436 112.684 99.6436 114.437C99.6436 116.19 99.9752 117.839 100.648 119.298C101.316 120.762 102.216 122.018 103.349 123.06C104.481 124.107 105.822 124.927 107.352 125.51C108.888 126.097 110.503 126.391 112.209 126.391C113.915 126.391 115.568 126.097 117.089 125.51C118.61 124.927 119.937 124.107 121.069 123.06C122.202 122.018 123.092 120.757 123.737 119.298C124.386 117.834 124.708 116.218 124.708 114.437C124.708 112.655 124.386 111.04 123.737 109.58ZM119.937 117.749C119.515 118.758 118.928 119.644 118.184 120.397C117.44 121.151 116.554 121.743 115.53 122.169C114.512 122.6 113.403 122.809 112.204 122.809C111.005 122.809 109.892 122.6 108.859 122.169C107.826 121.748 106.931 121.165 106.173 120.416C105.419 119.672 104.827 118.786 104.401 117.768C103.974 116.744 103.761 115.635 103.761 114.437C103.761 113.238 103.969 112.134 104.401 111.111C104.822 110.087 105.419 109.206 106.173 108.462C106.931 107.718 107.826 107.135 108.859 106.709C109.892 106.283 111.01 106.065 112.204 106.065C113.398 106.065 114.507 106.278 115.53 106.709C116.554 107.131 117.44 107.718 118.184 108.462C118.928 109.206 119.51 110.087 119.937 111.111C120.358 112.134 120.581 113.243 120.581 114.437C120.581 115.631 120.363 116.73 119.937 117.749Z" fill="black"/>
<path d="M147.673 115.65C146.64 114.579 145.181 114.03 143.31 114.001C144.257 113.954 145.039 113.755 145.645 113.4C146.261 113.049 146.745 112.618 147.109 112.12C147.474 111.618 147.73 111.106 147.858 110.566C147.996 110.031 148.062 109.543 148.062 109.102C148.062 107.908 147.82 106.913 147.332 106.108C146.839 105.302 146.209 104.663 145.427 104.189C144.65 103.71 143.774 103.374 142.798 103.165C141.827 102.962 140.85 102.857 139.874 102.857H128.986V126.027H140.936C141.983 126.027 142.997 125.937 143.982 125.757C144.973 125.572 145.854 125.245 146.636 124.785C147.413 124.326 148.043 123.686 148.517 122.866C148.995 122.051 149.227 121.023 149.227 119.782C149.227 118.1 148.711 116.726 147.673 115.655V115.65ZM133.075 106.364H139.728C140.287 106.364 140.827 106.411 141.353 106.492C141.879 106.582 142.333 106.728 142.727 106.946C143.115 107.164 143.423 107.482 143.655 107.88C143.888 108.278 144.006 108.813 144.006 109.472C144.006 110.737 143.641 111.594 142.907 112.049C142.177 112.504 141.234 112.727 140.092 112.727H133.075V106.364ZM144.755 121.042C144.475 121.464 144.101 121.791 143.641 122.009C143.172 122.227 142.651 122.364 142.068 122.426C141.481 122.487 140.884 122.516 140.277 122.516H133.075V115.868H140.092C140.704 115.868 141.31 115.911 141.921 115.996C142.532 116.081 143.073 116.243 143.546 116.489C144.025 116.731 144.414 117.081 144.717 117.531C145.02 117.977 145.172 118.569 145.172 119.303C145.172 120.038 145.029 120.611 144.755 121.042Z" fill="black"/>
<path d="M169.828 112.523H157.623V103.942L153.553 102.881V126.007H157.623V116.105H169.828V126.007H173.941V103.985L169.828 102.881V112.523Z" fill="black"/>
<path d="M186.397 102.857L177.698 126.027H181.972L189.207 106.439L196.409 126.027H200.721L192.021 102.857H186.397Z" fill="black"/>
<path d="M49.1591 102.857L40.46 126.027H44.7385L51.9735 106.439L59.1754 126.027H63.4823L54.7879 102.857H49.1591Z" fill="black"/>
<path d="M120.467 94.7977L124.679 95.9537V90.9551H120.467V94.7977Z" fill="black"/>
<path d="M200.72 64V87.1313H196.646V65.0613L200.72 64Z" fill="black"/>
<path d="M191.931 81.6446C191.799 80.4459 191.581 79.3372 191.183 78.2758C190.647 76.6886 189.813 75.2766 188.7 74.0779C187.639 72.9266 186.222 71.9979 184.592 71.3345C182.957 70.6238 181.095 70.3206 178.93 70.3206C176.765 70.3206 174.955 70.6238 173.363 71.3345C171.856 71.9031 170.885 72.7038 169.866 73.6752V64L165.791 65.0613V83.5825H150.629V64L146.56 65.0613V83.5825H132.99V70.3869L128.915 71.4483V83.5825H111.067V80.6638C111.067 78.6738 110.759 76.9065 110.228 75.2719C109.655 73.6325 108.816 72.2632 107.702 71.0692C106.599 69.8752 105.224 68.9513 103.595 68.2832C101.955 67.6626 100.098 67.3119 97.98 67.3119C95.862 67.3119 94 67.6626 92.3179 68.2832C90.7307 68.9513 89.314 69.8799 88.2527 71.0692C87.1487 72.2632 86.3053 73.6325 85.732 75.2719C85.3767 76.2432 85.1587 77.2571 85.0639 78.3611C84.936 78.9392 84.8886 79.5598 84.8886 80.2184V83.5825H44.5249V64L40.4502 65.0613V87.1266H192.069V83.5825C192.069 82.9192 192.026 82.2084 191.936 81.6399L191.931 81.6446ZM170.397 80.3559C170.705 79.2519 171.283 78.3232 172.036 77.5272C172.737 76.7312 173.718 76.1105 174.865 75.6699C175.969 75.2293 177.381 74.9592 178.93 74.9592C180.569 74.9592 181.943 75.2245 183.09 75.6699C184.194 76.1153 185.123 76.7312 185.923 77.5272C186.672 78.3232 187.155 79.2519 187.515 80.3559C187.643 80.7491 188.041 82.9239 188.041 83.5825H169.866C169.866 82.9192 170.217 80.7491 170.392 80.3559H170.397ZM93.8626 72.6186C95.0139 72.1732 96.3785 71.9979 97.9752 71.9979C99.5719 71.9979 100.937 72.1732 102.045 72.6186C103.239 73.1019 104.163 73.7225 104.921 74.4759C105.627 75.2766 106.201 76.2006 106.556 77.3045C106.864 78.4085 107.044 79.5646 107.044 80.8012V83.5872H99.8373C100.013 83.4072 100.188 83.1892 100.363 82.9665C100.714 82.5259 100.984 81.9905 101.117 81.4172C101.249 80.9292 101.339 80.3985 101.339 80.0005C101.339 78.8065 101.074 77.7925 100.581 76.9918C100.093 76.1532 99.4772 75.5325 98.6812 75.0445C97.9278 74.6038 96.9992 74.2485 96.0752 74.0258C95.0992 73.8078 94.1279 73.7131 93.1092 73.7131H93.0666C92.6686 73.7131 92.2706 73.7131 91.8726 73.8031C92.4459 73.3151 93.1139 72.9171 93.8673 72.6091L93.8626 72.6186ZM88.9965 79.4698C89.0392 79.2092 89.1292 78.9818 89.2572 78.7639C89.5225 78.3659 89.8305 78.0152 90.1905 77.8352C90.5838 77.6172 91.0718 77.4372 91.5599 77.3946C92.0479 77.2619 92.5786 77.2619 93.1092 77.2619C93.5972 77.2619 94.1279 77.2619 94.6112 77.3946C95.1418 77.4372 95.5825 77.6172 95.9852 77.8352C96.3785 78.0152 96.6912 78.3611 96.9139 78.7639C97.1318 79.1619 97.2645 79.6925 97.2645 80.3559C97.2645 81.5925 96.9139 82.4785 96.1605 82.9239C95.4498 83.3598 94.4785 83.5872 93.3746 83.5872H92.7965C91.6925 83.5872 90.7639 83.3645 90.0105 82.9239C89.2571 82.4785 88.9065 81.5925 88.9065 80.3559C88.9065 80.0431 88.9065 79.7352 88.9965 79.4698Z" fill="black"/>
</g>
</svg>
