<svg width="143" height="116" viewBox="0 0 143 116" fill="none" xmlns="http://www.w3.org/2000/svg">
<path d="M71.3001 101.6C99.3001 101.6 122 78.9 122 50.8C122 22.7 99.3001 0 71.3001 0C43.3001 0 20.6001 22.7 20.6001 50.8C20.6001 78.9 43.3001 101.6 71.3001 101.6Z" fill="#EAEEF9"/>
<path d="M127.8 29.9C130.064 29.9 131.9 28.0644 131.9 25.8C131.9 23.5356 130.064 21.7 127.8 21.7C125.536 21.7 123.7 23.5356 123.7 25.8C123.7 28.0644 125.536 29.9 127.8 29.9Z" fill="#EAEEF9"/>
<path d="M133.8 13.8C135.346 13.8 136.6 12.5464 136.6 11C136.6 9.45362 135.346 8.20001 133.8 8.20001C132.254 8.20001 131 9.45362 131 11C131 12.5464 132.254 13.8 133.8 13.8Z" fill="#EAEEF9"/>
<path d="M17.2 32.8C18.7464 32.8 20 31.5464 20 30C20 28.4536 18.7464 27.2 17.2 27.2C15.6536 27.2 14.4 28.4536 14.4 30C14.4 31.5464 15.6536 32.8 17.2 32.8Z" fill="#EAEEF9"/>
<path d="M22.4 93.7C25.2718 93.7 27.6 91.3719 27.6 88.5C27.6 85.6282 25.2718 83.3 22.4 83.3C19.5281 83.3 17.2 85.6282 17.2 88.5C17.2 91.3719 19.5281 93.7 22.4 93.7Z" fill="#EAEEF9"/>
<g filter="url(#filter0_d_2760_56150)">
<path d="M111.616 82.8694H31.1836C26.2899 82.8694 22.4 78.9795 22.4 74.0858V27.7836C22.4 22.8899 26.2899 19 31.1836 19H111.616C116.51 19 120.4 22.8899 120.4 27.7836V74.0858C120.4 78.9795 116.51 82.8694 111.616 82.8694Z" fill="url(#paint0_linear_2760_56150)"/>
</g>
<path d="M47.2451 68.4392H34.4462C33.3168 68.4392 32.4385 67.5608 32.4385 66.4315C32.4385 65.3022 33.3168 64.4238 34.4462 64.4238H47.2451C48.3745 64.4238 49.2528 65.3022 49.2528 66.4315C49.2528 67.5608 48.3745 68.4392 47.2451 68.4392Z" fill="#D5DDEA"/>
<path d="M67.9494 68.4392H55.1504C54.0211 68.4392 53.1427 67.5608 53.1427 66.4315C53.1427 65.3022 54.0211 64.4238 55.1504 64.4238H67.9494C69.0787 64.4238 69.957 65.3022 69.957 66.4315C69.957 67.5608 69.0787 68.4392 67.9494 68.4392Z" fill="#D5DDEA"/>
<path d="M88.6536 68.4392H75.8546C74.7253 68.4392 73.8469 67.5608 73.8469 66.4315C73.8469 65.3022 74.7253 64.4238 75.8546 64.4238H88.6536C89.7829 64.4238 90.6613 65.3022 90.6613 66.4315C90.6613 67.5608 89.7829 68.4392 88.6536 68.4392Z" fill="#D5DDEA"/>
<path d="M109.358 68.4392H96.5588C95.4295 68.4392 94.5511 67.5608 94.5511 66.4315C94.5511 65.3022 95.4295 64.4238 96.5588 64.4238H109.358C110.487 64.4238 111.365 65.3022 111.365 66.4315C111.365 67.5608 110.487 68.4392 109.358 68.4392Z" fill="#D5DDEA"/>
<path d="M104.715 44.347C108.873 44.347 112.244 40.9762 112.244 36.8182C112.244 32.6601 108.873 29.2894 104.715 29.2894C100.557 29.2894 97.1862 32.6601 97.1862 36.8182C97.1862 40.9762 100.557 44.347 104.715 44.347Z" fill="#989FB0"/>
<path d="M94.802 44.347C98.96 44.347 102.331 40.9762 102.331 36.8182C102.331 32.6601 98.96 29.2894 94.802 29.2894C90.644 29.2894 87.2732 32.6601 87.2732 36.8182C87.2732 40.9762 90.644 44.347 94.802 44.347Z" fill="#D5DDEA"/>
<path d="M48.3745 46.7311H34.3207C33.3168 46.7311 32.4385 45.8528 32.4385 44.8489V35.8144C32.4385 34.8105 33.3168 33.9322 34.3207 33.9322H48.249C49.2528 33.9322 50.1312 34.8105 50.1312 35.8144V44.8489C50.2567 45.8528 49.3783 46.7311 48.3745 46.7311Z" fill="#D5DDEA"/>
<path d="M128.113 83.6426C127.713 85.3426 127.113 87.1426 126.413 88.6426C124.513 92.3426 121.513 95.2426 117.813 97.1426C114.013 99.0426 109.513 99.8426 105.013 98.8426C94.4134 96.6426 87.6134 86.2426 89.8134 75.6426C92.0134 65.0426 102.313 58.1426 112.913 60.4426C116.713 61.2426 120.013 63.1426 122.813 65.7426C127.513 70.4426 129.513 77.2426 128.113 83.6426Z" fill="url(#paint1_linear_2760_56150)"/>
<path d="M115.213 77.9427H110.713V73.4427C110.713 72.5427 110.013 71.7427 109.013 71.7427C108.113 71.7427 107.313 72.4427 107.313 73.4427V77.9427H102.813C101.913 77.9427 101.113 78.6427 101.113 79.6427C101.113 80.6427 101.813 81.3427 102.813 81.3427H107.313V85.8427C107.313 86.7427 108.013 87.5427 109.013 87.5427C109.913 87.5427 110.713 86.8427 110.713 85.8427V81.3427H115.213C116.113 81.3427 116.913 80.6427 116.913 79.6427C116.913 78.6427 116.113 77.9427 115.213 77.9427Z" fill="white"/>
<defs>
<filter id="filter0_d_2760_56150" x="0.400024" y="8" width="142" height="107.869" filterUnits="userSpaceOnUse" color-interpolation-filters="sRGB">
<feFlood flood-opacity="0" result="BackgroundImageFix"/>
<feColorMatrix in="SourceAlpha" type="matrix" values="0 0 0 0 0 0 0 0 0 0 0 0 0 0 0 0 0 0 127 0" result="hardAlpha"/>
<feOffset dy="11"/>
<feGaussianBlur stdDeviation="11"/>
<feColorMatrix type="matrix" values="0 0 0 0 0.397708 0 0 0 0 0.47749 0 0 0 0 0.575 0 0 0 0.27 0"/>
<feBlend mode="normal" in2="BackgroundImageFix" result="effect1_dropShadow_2760_56150"/>
<feBlend mode="normal" in="SourceGraphic" in2="effect1_dropShadow_2760_56150" result="shape"/>
</filter>
<linearGradient id="paint0_linear_2760_56150" x1="71.3681" y1="17.5226" x2="71.3681" y2="83.558" gradientUnits="userSpaceOnUse">
<stop stop-color="#FDFEFF"/>
<stop offset="0.9964" stop-color="#ECF0F5"/>
</linearGradient>
<linearGradient id="paint1_linear_2760_56150" x1="89.3821" y1="79.6421" x2="128.559" y2="79.6421" gradientUnits="userSpaceOnUse">
<stop stop-color="#B0BACC"/>
<stop offset="1" stop-color="#969EAE"/>
</linearGradient>
</defs>
</svg>
