<svg width="14" height="14" viewBox="0 0 14 14" fill="none" xmlns="http://www.w3.org/2000/svg">
<g clip-path="url(#clip0_17427_28106)">
<path d="M11.975 6.39237C11.7738 6.39237 11.6105 6.22903 11.6105 6.02778C11.6105 4.63167 11.067 3.31967 10.0802 2.33237C9.93778 2.18996 9.93778 1.95907 10.0802 1.81665C10.2226 1.67424 10.4535 1.67424 10.596 1.81665C11.7204 2.94146 12.3396 4.43727 12.3396 6.02778C12.3396 6.22903 12.1763 6.39237 11.975 6.39237Z" fill="#EE772F"/>
<path d="M2.00979 6.39235C1.80854 6.39235 1.6452 6.22902 1.6452 6.02777C1.6452 4.43725 2.26453 2.94145 3.38935 1.81708C3.53176 1.67466 3.76274 1.67466 3.90516 1.81708C4.04757 1.95949 4.04757 2.19047 3.90516 2.33289C2.91786 3.31965 2.37437 4.63165 2.37437 6.02777C2.37437 6.22902 2.21104 6.39235 2.00979 6.39235Z" fill="#EE772F"/>
<path d="M6.99247 12.8334C5.9872 12.8334 5.16956 12.0157 5.16956 11.0105C5.16956 10.8092 5.33289 10.6459 5.53414 10.6459C5.73539 10.6459 5.89872 10.8092 5.89872 11.0105C5.89872 11.6138 6.38917 12.1042 6.99247 12.1042C7.59569 12.1042 8.08622 11.6138 8.08622 11.0105C8.08622 10.8092 8.24956 10.6459 8.45081 10.6459C8.65206 10.6459 8.81539 10.8092 8.81539 11.0105C8.81539 12.0157 7.99775 12.8334 6.99247 12.8334Z" fill="#EE772F"/>
<path d="M11.0029 11.375H2.98204C2.51287 11.375 2.13129 10.9934 2.13129 10.5243C2.13129 10.2754 2.2397 10.0397 2.42885 9.87777C3.16816 9.2531 3.58962 8.34511 3.58962 7.3831V6.02775C3.58962 4.15143 5.11605 2.625 6.99246 2.625C8.86878 2.625 10.3952 4.15143 10.3952 6.02775V7.3831C10.3952 8.34511 10.8167 9.2531 11.5512 9.87439C11.7451 10.0397 11.8535 10.2754 11.8535 10.5243C11.8535 10.9934 11.472 11.375 11.0029 11.375ZM6.99246 3.35417C5.51801 3.35417 4.31879 4.55339 4.31879 6.02775V7.3831C4.31879 8.55989 3.80307 9.67118 2.90425 10.431C2.88725 10.4456 2.86045 10.4757 2.86045 10.5243C2.86045 10.5904 2.91591 10.6458 2.98204 10.6458H11.0029C11.0689 10.6458 11.1244 10.5904 11.1244 10.5243C11.1244 10.4757 11.0977 10.4456 11.0816 10.4319C10.1818 9.67118 9.66604 8.55989 9.66604 7.3831V6.02775C9.66604 4.55339 8.46681 3.35417 6.99246 3.35417Z" fill="#EE772F"/>
<path d="M6.99245 3.35419C6.7912 3.35419 6.62787 3.19085 6.62787 2.9896V1.53127C6.62787 1.33002 6.7912 1.16669 6.99245 1.16669C7.1937 1.16669 7.35704 1.33002 7.35704 1.53127V2.9896C7.35704 3.19085 7.1937 3.35419 6.99245 3.35419Z" fill="#EE772F"/>
</g>
<defs>
<clipPath id="clip0_17427_28106">
<rect width="11.6667" height="11.6667" fill="white" transform="translate(1.16669 1.16669)"/>
</clipPath>
</defs>
</svg>
