<svg width="478" height="93" viewBox="0 0 478 93" fill="none" xmlns="http://www.w3.org/2000/svg">
<g clip-path="url(#clip0_7466_43869)">
<path d="M409.53 69.501L447.89 135.931H371.18L409.53 69.501Z" stroke="white" stroke-opacity="0.05" stroke-width="1.5" stroke-miterlimit="10"/>
<path d="M371.18 -13.5596H447.89L409.53 52.8704L371.18 -13.5596Z" stroke="white" stroke-opacity="0.05" stroke-width="1.5" stroke-miterlimit="10"/>
<path d="M324.08 -62.1992L362.431 4.23078H285.73L324.08 -62.1992Z" stroke="white" stroke-opacity="0.05" stroke-width="1.5" stroke-miterlimit="10"/>
<path d="M257.641 52.8708L276.131 20.8408H372.021L390.521 52.8708H257.641Z" stroke="white" stroke-opacity="0.05" stroke-width="1.5" stroke-miterlimit="10"/>
<path d="M238.43 69.501L276.79 135.931H200.08L238.43 69.501Z" stroke="white" stroke-opacity="0.05" stroke-width="1.5" stroke-miterlimit="10"/>
<path d="M200.08 -13.5596H276.79L238.43 52.8704L200.08 -13.5596Z" stroke="white" stroke-opacity="0.05" stroke-width="1.5" stroke-miterlimit="10"/>
<path d="M390.521 69.501L372.021 101.531H276.131L257.641 69.501H390.521Z" stroke="white" stroke-opacity="0.05" stroke-width="1.5" stroke-miterlimit="10"/>
<path d="M152.411 -62.1992L190.761 4.23078H114.061L152.411 -62.1992Z" stroke="white" stroke-opacity="0.05" stroke-width="1.5" stroke-miterlimit="10"/>
<path d="M85.9707 52.8708L104.461 20.8408H200.351L218.851 52.8708H85.9707Z" stroke="white" stroke-opacity="0.05" stroke-width="1.5" stroke-miterlimit="10"/>
<path d="M66.7602 69.501L105.12 135.931H28.4102L66.7602 69.501Z" stroke="white" stroke-opacity="0.05" stroke-width="1.5" stroke-miterlimit="10"/>
<path d="M28.4102 -13.5596H105.12L66.7602 52.8704L28.4102 -13.5596Z" stroke="white" stroke-opacity="0.05" stroke-width="1.5" stroke-miterlimit="10"/>
<path d="M218.851 69.501L200.351 101.531H104.461L85.9707 69.501H218.851Z" stroke="white" stroke-opacity="0.05" stroke-width="1.5" stroke-miterlimit="10"/>
<path d="M-18.6901 -62.1992L19.6699 4.23078H-57.04L-18.6901 -62.1992Z" stroke="white" stroke-opacity="0.05" stroke-width="1.5" stroke-miterlimit="10"/>
<path d="M-85.1201 52.8708L-66.6301 20.8408H29.2499L47.7499 52.8708H-85.1201Z" stroke="white" stroke-opacity="0.05" stroke-width="1.5" stroke-miterlimit="10"/>
<path d="M47.7499 69.501L29.2499 101.531H-66.6301L-85.1201 69.501H47.7499Z" stroke="white" stroke-opacity="0.05" stroke-width="1.5" stroke-miterlimit="10"/>
</g>
<defs>
<clipPath id="clip0_7466_43869">
<rect width="1335.27" height="513.18" fill="white" transform="translate(-858 -63.6992)"/>
</clipPath>
</defs>
</svg>
