<svg width="52" height="52" viewBox="0 0 52 52" fill="none" xmlns="http://www.w3.org/2000/svg">
<g clip-path="url(#clip0_7533_33228)">
<path d="M29.2573 33.2329C29.2155 33.2315 29.1724 33.2301 29.1306 33.2329C29.1724 33.2287 29.2141 33.2274 29.2573 33.2329Z" fill="#EBEBEB"/>
<path d="M44.0265 42.5039H48.7974V40.4902H44.0265V42.5039Z" fill="#EBEBEB"/>
<path d="M46.6888 39.9662H51.4597V37.9525H46.6888V39.9662Z" fill="#EBEBEB"/>
<path d="M48.1084 18.6948C48.1084 18.6948 48.1001 18.699 48.0959 18.7004C48.0416 18.7226 47.9887 18.7449 47.9345 18.7671C47.6784 18.8713 47.4195 18.9672 47.1579 19.0562C46.8391 19.1687 46.5177 19.2702 46.1948 19.3703C45.8719 19.4661 45.5476 19.5606 45.2206 19.6468C44.8935 19.7316 44.565 19.8136 44.231 19.8761C44.5442 19.7427 44.8615 19.626 45.1802 19.5148C45.5003 19.4036 45.8218 19.3022 46.1447 19.2007C46.4689 19.1034 46.7932 19.0089 47.1203 18.9241C47.3805 18.856 47.645 18.7907 47.9094 18.7365C47.9706 18.7226 48.0319 18.7115 48.0945 18.699C48.0987 18.699 48.1042 18.6976 48.1084 18.6962V18.6948Z" fill="white"/>
<path d="M12.7846 38.3666C12.7846 38.3666 16.0232 50.2461 16.8026 52H29.3589C27.1905 46.3326 24.8983 38.9183 24.8315 38.4041C24.8274 38.3805 24.826 38.368 24.826 38.368H12.7832L12.7846 38.3666Z" fill="#37474F"/>
<path d="M14.5452 39.9468C14.6245 40.9113 18.1373 51.169 18.4323 52H18.6133C18.6133 52 14.7985 40.6514 14.5925 39.9468C14.5869 39.9176 14.541 39.9176 14.5452 39.9468Z" fill="#263238"/>
<path d="M23.0891 38.3666L21.4677 49.0315L21.4106 49.3928L21.2673 50.3587L21.2562 50.4268L21.2172 50.6839V50.6867L21.0182 52H16.8026C16.0232 50.2461 12.7846 38.3666 12.7846 38.3666H23.0891Z" fill="#263238"/>
<path d="M6.48973 52H18.3711C18.3752 51.9486 18.378 51.9083 18.3808 51.8763C18.385 51.8235 18.3878 51.7957 18.3878 51.7957C18.4532 51.7596 18.52 51.7221 18.5868 51.6873C19.2854 51.3079 19.8992 51.0119 20.403 50.7868C20.4893 50.7478 20.5714 50.7117 20.6521 50.6756C20.8804 50.5769 21.0863 50.4935 21.2561 50.4268C21.6931 50.2531 21.9367 50.1767 21.9367 50.1767C21.952 50.1405 21.9645 50.1058 21.9771 50.0683C23.6986 45.692 24.7355 39.024 24.8329 38.4028C24.8371 38.3694 24.8385 38.3555 24.8385 38.3555H7.86756C6.85715 41.5102 4.83217 47.311 6.48973 52Z" fill="#37474F"/>
<path d="M22.5435 49.8626C21.1045 50.3573 19.7155 51.0591 18.3878 51.7957C18.3363 51.8249 18.3697 51.9055 18.4268 51.8805C19.8269 51.2801 21.2548 50.7061 22.6201 50.0293C22.7273 49.9765 22.6549 49.825 22.5449 49.8626H22.5435Z" fill="#263238"/>
<path d="M22.9874 40.2706C22.9833 40.222 22.8984 40.2108 22.8984 40.2637C22.9095 41.923 22.8037 43.3836 22.6632 44.9346C22.5978 45.6545 22.0174 49.6347 20.7676 49.3442C20.5589 49.2956 20.4517 49.0899 20.4183 48.7744C20.3793 48.395 20.5213 47.9309 20.5839 47.5542C20.7231 46.7218 20.8344 45.8852 20.9054 45.0444C21.039 43.474 21.046 41.9022 20.8539 40.3359C20.8483 40.2845 20.7732 40.2887 20.7732 40.3401C20.7746 42.515 20.7175 44.6858 20.3918 46.8399C20.236 47.8753 19.7127 49.4332 20.7968 49.593C21.9019 49.7556 22.6159 47.1443 22.7509 46.4313C23.1266 44.4384 23.1419 42.2871 22.9847 40.272L22.9874 40.2706Z" fill="#263238"/>
<path d="M20.8024 49.4512C20.6897 49.718 20.5992 49.996 20.5213 50.2767C20.4615 50.4935 20.3794 50.7284 20.4044 50.9549C20.4086 50.9994 20.467 51.0035 20.4907 50.973C20.6368 50.7867 20.6995 50.5338 20.7816 50.3128C20.8762 50.0571 20.9778 49.8042 21.0655 49.5471C21.1239 49.3762 20.872 49.2872 20.8024 49.4512Z" fill="#263238"/>
<path d="M15.1436 41.5714C15.1297 41.4004 15.1436 41.2184 15.0908 41.0544C15.0824 41.0294 15.049 41.0322 15.0407 41.0544C14.9933 41.1962 14.9975 41.3532 14.9822 41.5005C14.9641 41.6714 14.9418 41.8424 14.9237 42.0147C14.8862 42.3635 14.8263 42.7137 14.74 43.0542C14.5772 43.7032 14.2571 44.2911 13.7853 44.7678C13.3246 45.232 12.7707 45.5752 12.1709 45.8296C11.4987 46.1144 10.793 46.2201 10.0986 46.423C10.0693 46.4313 10.0777 46.473 10.1069 46.4744C10.8543 46.498 11.6573 46.2993 12.3504 46.0338C12.9725 45.7948 13.564 45.4349 14.0344 44.961C14.5215 44.469 14.8514 43.87 15.017 43.1988C15.1005 42.8569 15.1367 42.5081 15.152 42.1565C15.1603 41.9605 15.1603 41.7673 15.145 41.5714H15.1436Z" fill="#263238"/>
<path d="M8.15569 52C7.7841 50.9814 7.60178 49.9001 7.50018 48.8217C7.40137 47.7391 7.41111 46.6495 7.48348 45.5655C7.53915 45.0249 7.5809 44.4829 7.67276 43.9479C7.7173 43.6796 7.74931 43.41 7.80498 43.1446L7.97198 42.3483C8.00121 42.2162 8.02626 42.0828 8.05966 41.9508L8.16405 41.5575L8.37837 40.7737C8.45214 40.5138 8.54817 40.2595 8.63167 40.0024C8.71657 39.7453 8.80564 39.4896 8.8961 39.2353C8.77641 39.7634 8.6275 40.2817 8.51059 40.8084L8.34219 41.5992L8.2559 41.9939C8.22807 42.1259 8.20858 42.2593 8.18492 42.3914L8.04575 43.1863C7.99704 43.4503 7.97198 43.7186 7.93441 43.9854C7.8509 44.5163 7.81193 45.0527 7.76183 45.5878C7.68529 46.6593 7.66302 47.7335 7.7173 48.8064C7.7326 49.0746 7.74652 49.3428 7.77436 49.6097L7.81054 50.0113L7.86204 50.4116C7.92745 50.9452 8.02209 51.4761 8.15709 52H8.15569Z" fill="#263238"/>
<path d="M18.8192 22.3026C21.0961 26.0368 25.6054 31.9196 27.7806 33.2288C30.1981 34.6838 37.1123 29.7433 41.5784 26.7873C42.4663 26.1994 38.3245 19.0298 37.4087 19.7066C35.0163 21.4729 30.0687 25.5755 29.4118 25.4365C28.8746 25.3225 24.3055 22.147 21.7474 20.325C17.6752 17.426 17.2173 19.6746 18.8192 22.3026Z" fill="#D3766A"/>
<path d="M35.6565 20.7503L39.4977 28.9887C39.4977 28.9887 31.1347 34.449 28.5336 33.7861C25.9324 33.1232 20.403 25.4768 18.7816 22.4763C17.1602 19.4759 17.916 17.7887 21.0571 19.8025C24.1997 21.8162 29.0388 25.0362 29.5454 25.0529C30.0534 25.0696 35.6551 20.7517 35.6551 20.7517L35.6565 20.7503Z" fill="#FFC727"/>
<path d="M37.129 29.9767C36.0295 26.4565 34.3399 22.9224 34.0894 22.2859C34.0769 22.2553 34.0309 22.279 34.0435 22.3081C34.3218 22.9196 35.8152 27.1667 37.0789 30.0004C37.0928 30.0337 37.1401 30.0101 37.129 29.9754V29.9767Z" fill="#263238"/>
<path opacity="0.1" d="M31.0512 33.4442C30.0478 33.7833 29.1515 33.9431 28.5322 33.7847C25.931 33.1204 20.4016 25.4754 18.7802 22.4763C18.0871 21.1922 17.8282 20.1499 18.0064 19.5315C21.1225 22.8752 28.4139 30.6397 31.0512 33.4442Z" fill="black"/>
<path d="M39.0927 28.4467L35.6843 21.0241C35.804 20.8698 36.3162 20.564 36.8214 20.0888C36.8214 20.086 38.1463 18.2696 38.6808 16.2934C39.1331 14.634 39.6132 12.12 40.5151 12.3298C41.8317 12.6314 41.6076 15.8834 41.364 17.7429C42.3104 17.3621 43.1622 17.123 43.7091 17.1647C45.5253 17.3051 45.9317 25.4796 44.4008 26.5205C42.9256 27.5253 40.0975 28.5912 39.0927 28.4481V28.4467Z" fill="#D3766A"/>
<path d="M44.007 29.2124L31.9809 28.316L33.1653 12.4938L45.1913 13.3902L44.007 29.2124Z" fill="#455A64"/>
<path d="M43.9757 14.3198L34.23 13.5932L33.1988 27.3855L42.9445 28.1121L43.9757 14.3198Z" fill="white"/>
<path d="M37.8803 13.8653L34.2288 13.593L33.1975 27.3854L36.8491 27.6576L37.8803 13.8653Z" fill="#EBEBEB"/>
<path d="M36.4151 16.5629C36.326 16.6088 36.2286 16.6422 36.1242 16.6602C35.8542 16.7047 35.5926 16.6352 35.3866 16.4865C35.1862 16.3406 35.04 16.1196 34.9955 15.8556C34.9064 15.3219 35.2669 14.8174 35.8013 14.7299C36.3358 14.6409 36.8396 15.0009 36.9286 15.5345C36.9996 15.964 36.7797 16.3739 36.4137 16.5629H36.4151Z" fill="#A6A6A6"/>
<path d="M36.269 15.6055C36.2564 15.7695 36.1131 15.8931 35.9489 15.8806C35.7846 15.8681 35.6608 15.725 35.6733 15.561C35.6858 15.397 35.8292 15.2733 35.9934 15.2858C36.1576 15.2983 36.2815 15.4415 36.269 15.6055Z" fill="white"/>
<path d="M36.4247 16.4406L36.415 16.5629C36.3259 16.6088 36.2285 16.6422 36.1241 16.6602C35.8541 16.7047 35.5925 16.6352 35.3865 16.4865L35.3962 16.3642C35.4171 16.0821 35.6648 15.8681 35.9487 15.8889C36.2327 15.9098 36.4456 16.1571 36.4247 16.4406Z" fill="white"/>
<path d="M41.069 15.2741L38.439 15.0781L38.4254 15.2596L41.0554 15.4557L41.069 15.2741Z" fill="#EBEBEB"/>
<path d="M42.9458 15.9196L38.4005 15.5807L38.3869 15.7623L42.9322 16.1011L42.9458 15.9196Z" fill="#EBEBEB"/>
<path d="M41.8953 16.3459L38.3632 16.0826L38.3496 16.2641L41.8817 16.5275L41.8953 16.3459Z" fill="#EBEBEB"/>
<path d="M40.3272 17.2383L38.2885 17.0863L38.2749 17.2678L40.3137 17.4199L40.3272 17.2383Z" fill="#EBEBEB"/>
<path d="M41.782 17.851L38.2498 17.5876L38.2362 17.7692L41.7684 18.0325L41.782 17.851Z" fill="#EBEBEB"/>
<path d="M42.7577 18.4294L38.2124 18.0905L38.1988 18.272L42.7441 18.6109L42.7577 18.4294Z" fill="#EBEBEB"/>
<path d="M40.8049 18.79L38.1749 18.5939L38.1613 18.7755L40.7913 18.9716L40.8049 18.79Z" fill="#EBEBEB"/>
<path d="M42.6458 19.9344L38.1005 19.5955L38.087 19.7771L42.6323 20.116L42.6458 19.9344Z" fill="#EBEBEB"/>
<path d="M41.36 20.3447L38.0624 20.0989L38.0489 20.2804L41.3465 20.5263L41.36 20.3447Z" fill="#EBEBEB"/>
<path d="M40.4729 20.7819L38.0247 20.5993L38.0111 20.7809L40.4594 20.9634L40.4729 20.7819Z" fill="#EBEBEB"/>
<path d="M42.0827 21.4074L37.9884 21.1021L37.9748 21.2837L42.0691 21.5889L42.0827 21.4074Z" fill="#EBEBEB"/>
<path d="M41.2108 22.3529L37.9131 22.107L37.8996 22.2886L41.1972 22.5344L41.2108 22.3529Z" fill="#EBEBEB"/>
<path d="M42.4204 22.9472L37.8751 22.6084L37.8615 22.7899L42.4068 23.1288L42.4204 22.9472Z" fill="#EBEBEB"/>
<path d="M41.8946 23.9185L37.8004 23.6133L37.7868 23.7948L41.881 24.1001L41.8946 23.9185Z" fill="#EBEBEB"/>
<path d="M40.1867 24.2946L37.7621 24.1139L37.7485 24.2954L40.1731 24.4762L40.1867 24.2946Z" fill="#EBEBEB"/>
<path d="M42.2697 24.954L37.7244 24.6151L37.7109 24.7966L42.2562 25.1355L42.2697 24.954Z" fill="#EBEBEB"/>
<path d="M40.9481 25.866L37.6505 25.6202L37.6369 25.8017L40.9345 26.0476L40.9481 25.866Z" fill="#EBEBEB"/>
<path d="M42.1577 26.4604L37.6124 26.1215L37.5989 26.3031L42.1442 26.642L42.1577 26.4604Z" fill="#EBEBEB"/>
<path d="M41.6693 26.93L37.575 26.6248L37.5614 26.8063L41.6557 27.1116L41.6693 26.93Z" fill="#EBEBEB"/>
<path d="M36.0655 17.4267L34.858 17.3366L34.8445 17.5182L36.0519 17.6082L36.0655 17.4267Z" fill="#A6A6A6"/>
<path d="M36.8295 17.9879L34.8198 17.8381L34.8062 18.0196L36.8159 18.1695L36.8295 17.9879Z" fill="#A6A6A6"/>
<path d="M36.4628 18.4651L34.7834 18.3399L34.7699 18.5214L36.4492 18.6466L36.4628 18.4651Z" fill="#A6A6A6"/>
<path d="M36.7176 19.493L34.7079 19.3432L34.6944 19.5247L36.704 19.6745L36.7176 19.493Z" fill="#A6A6A6"/>
<path d="M36.8049 20.0053L34.6703 19.8462L34.6567 20.0278L36.7913 20.1869L36.8049 20.0053Z" fill="#A6A6A6"/>
<path d="M36.1308 20.4597L34.6332 20.3481L34.6197 20.5296L36.1172 20.6413L36.1308 20.4597Z" fill="#A6A6A6"/>
<path d="M36.3662 20.9817L34.5966 20.8497L34.583 21.0313L36.3526 21.1632L36.3662 20.9817Z" fill="#A6A6A6"/>
<path d="M42.2949 12.2504L36.1993 11.7959L36.038 13.9524L42.1336 14.4068L42.2949 12.2504Z" fill="#A6A6A6"/>
<path d="M41.3529 13.0219L37.0148 12.6995L37.1401 11.0249L41.4782 11.3487L41.3529 13.0219Z" fill="#A6A6A6"/>
<path d="M40.8686 17.5066C40.4748 18.3655 41.7148 18.3377 41.7148 18.3377C41.7148 18.3377 39.9403 18.8088 39.8777 19.8511C39.8193 20.8559 41.3168 20.7697 41.4239 20.7642C41.3307 20.7906 39.7107 21.2645 39.7552 22.3193C39.8026 23.4158 41.2903 23.0697 41.3864 23.0475C41.3056 23.0989 40.2493 23.8049 40.465 24.5985C40.838 25.9618 43.5895 24.2316 44.6959 24.5318C44.6959 24.5318 44.3995 26.4607 44.4037 26.5191C44.4037 26.5191 47.0563 24.9264 47.3778 23.4158C47.5476 22.6195 46.8378 22.304 46.8378 22.304C46.8378 22.304 47.7494 21.8843 47.7411 21.0532C47.7355 20.6266 47.0466 20.2555 47.0466 20.2555C47.0466 20.2555 47.7633 19.89 47.7091 19.1507C47.6673 18.5614 46.9826 18.2807 46.9826 18.2807C46.9826 18.2807 47.5072 17.6108 47.2679 17.0216C46.7891 15.8334 41.7148 15.6666 40.87 17.5066H40.8686Z" fill="#D3766A"/>
<path d="M46.8781 18.2196C46.8948 18.2209 46.9004 18.1987 46.8837 18.1932C45.2275 17.7318 43.2679 17.7318 41.6465 18.3307C41.5936 18.3502 41.602 18.4447 41.6646 18.435C43.4544 18.1362 45.066 18.0139 46.8781 18.2182V18.2196Z" fill="#263238"/>
<path d="M47.0688 20.2458C47.0883 20.2485 47.0925 20.2152 47.0716 20.2096C45.3625 19.7441 43.1552 19.8038 41.3668 20.7155C41.3056 20.7475 41.2819 20.8364 41.3557 20.8058C42.5902 20.2902 45.4391 20.0526 47.0688 20.2458Z" fill="#263238"/>
<path d="M41.2819 23.1531C43.03 22.3457 44.8601 22.1789 46.7654 22.2776C46.7905 22.2776 46.7891 22.2442 46.7696 22.2373C45.851 21.9357 44.6291 21.9982 43.6841 22.1289C42.7781 22.2526 41.9862 22.5472 41.2541 23.092C41.2263 23.1128 41.2458 23.1698 41.2819 23.1531Z" fill="#263238"/>
<path d="M24.8273 38.3666L24.3361 33.0022C24.3361 33.0022 25.7709 30.8134 25.5622 28.2243C25.4105 26.3412 20.0217 19.7524 19.6751 19.43C18.2834 18.1348 15.9327 18.6517 14.9696 19.3786C9.62811 23.4088 9.67404 29.8531 7.86755 38.3555L24.8287 38.3666H24.8273Z" fill="#FFC727"/>
<path d="M24.8273 38.3666L24.336 33.0022C24.336 33.0022 26.1843 30.5438 25.5622 28.2243C24.9401 25.9048 23.1002 23.791 23.1002 23.791H15.1561C15.1561 23.791 14.4366 30.7314 12.6176 31.9141C10.7081 33.1537 8.85707 32.6867 8.85707 32.6867L7.86615 38.3555L24.8273 38.3666Z" fill="#37474F"/>
<path d="M19.2687 32.3018C20.037 32.2671 20.8108 32.2573 21.5776 32.3365C21.959 32.3755 22.3347 32.4324 22.7119 32.4977C22.8998 32.5297 23.0877 32.5561 23.2769 32.5811C23.4704 32.6061 23.6778 32.627 23.874 32.6048C23.8921 32.6034 23.8949 32.6284 23.8782 32.6326C23.6903 32.6659 23.5094 32.6979 23.3173 32.7048C23.135 32.7132 22.9513 32.7007 22.769 32.684C22.382 32.6478 21.9965 32.5936 21.611 32.5533C20.8316 32.4727 20.0523 32.3907 19.2687 32.3671C19.2325 32.3671 19.2325 32.3046 19.2687 32.3032V32.3018Z" fill="#263238"/>
<path d="M17.4929 33.2524C18.1052 33.0967 18.7357 32.9675 19.362 32.8827C19.6779 32.8396 19.9925 32.816 20.3098 32.7993C20.4615 32.791 20.6132 32.7868 20.7649 32.784C20.9319 32.7799 21.1003 32.7993 21.2659 32.7938C21.2826 32.7938 21.2868 32.8202 21.2701 32.8216C21.1128 32.8313 20.9569 32.8688 20.7997 32.8883C20.6424 32.9077 20.4851 32.9258 20.3279 32.9453C20.0133 32.9842 19.6988 33.0273 19.3843 33.062C18.7538 33.1343 18.1261 33.2121 17.4984 33.3066C17.465 33.3121 17.4595 33.2635 17.4915 33.2552L17.4929 33.2524Z" fill="#263238"/>
<path d="M16.1054 21.6606C15.1214 23.0573 7.68392 31.8835 5.58517 33.2177C3.98884 34.2322 -0.203091 34.852 0.00845435 30.8912C0.14902 28.2521 10.7249 20.8017 14.9934 18.9964C16.9529 18.1668 18.1707 18.731 16.1068 21.6606H16.1054Z" fill="#FFC727"/>
<path d="M1.69103 33.8319C2.31731 34.0084 2.97978 34.0223 3.61303 33.9167C4.24905 33.8138 4.86003 33.5845 5.40977 33.2551C5.68533 33.0912 5.94698 32.9049 6.19471 32.7034C6.44244 32.4991 6.67904 32.2782 6.91424 32.0558C7.38048 31.6069 7.8314 31.14 8.27398 30.6674C9.17026 29.7294 10.0359 28.7607 10.903 27.7935L13.4944 24.8819C13.0964 25.3961 12.6844 25.8992 12.2766 26.4051C11.8633 26.9068 11.4444 27.4043 11.0241 27.9005C10.1807 28.89 9.31361 29.86 8.42568 30.812C7.97614 31.2817 7.51826 31.7473 7.04367 32.1948C6.80429 32.4171 6.56352 32.6381 6.30744 32.8438C6.05136 33.0522 5.7758 33.2343 5.4877 33.3955C4.91291 33.7165 4.27828 33.9347 3.62555 34.0195C3.29988 34.0584 2.97004 34.0668 2.64437 34.0376C2.3187 34.0098 1.99443 33.95 1.68964 33.8347L1.69103 33.8319Z" fill="#263238"/>
<path d="M12.4993 26.0633C12.6705 25.9187 12.8514 25.7964 13.0323 25.6741C13.2146 25.5518 13.3956 25.4351 13.5793 25.3086C13.4512 25.4948 13.2717 25.6352 13.0908 25.7603C12.9057 25.8826 12.7108 25.991 12.4993 26.0633Z" fill="#263238"/>
<path d="M15.1562 23.791H16.3712C16.3712 23.791 16.5131 21.2492 15.6363 18.6476L14.8514 18.8463C14.8514 18.8463 15.6238 22.0608 15.1562 23.791Z" fill="#37474F"/>
<path d="M20.0857 19.1312C20.0857 19.1312 21.7238 21.4841 23.1002 23.7911H22.3292L19.2409 18.8088L20.0857 19.1312Z" fill="#37474F"/>
<path d="M16.0775 19.5565C16.1735 19.8942 17.7086 21.8718 19.2674 21.7231C19.7753 21.6744 19.8338 19.0548 19.8338 19.0548L19.87 18.8477L20.3752 15.9418L16.8889 13.9378L16.3864 13.6751C16.3864 13.6751 16.3002 14.4798 16.2041 15.4818C16.2 15.5276 16.1944 15.5749 16.1902 15.6249C16.1833 15.6819 16.1763 15.7347 16.1721 15.7875C16.1554 15.9376 16.1401 16.0905 16.1262 16.2419C16.1164 16.3573 16.1053 16.4713 16.0997 16.5936C16.09 16.7158 16.083 16.8354 16.0747 16.9577C16.0079 18.1667 16.0399 19.4147 16.0789 19.5579L16.0775 19.5565Z" fill="#D3766A"/>
<path d="M16.2028 15.4804C17.138 17.729 19.0141 18.5725 19.8686 18.8463L20.3738 15.9404L16.8875 13.9364L16.3851 13.6737C16.3851 13.6737 16.2988 14.4784 16.2028 15.4804Z" fill="#263238"/>
<path d="M17.408 13.2735C17.2215 13.0303 16.8012 12.8621 16.6133 12.9441C16.4241 13.0261 15.6767 14.4408 15.8159 14.8133C15.955 15.1857 16.6732 15.0343 16.6732 15.0343L17.408 13.2735Z" fill="#FFC727"/>
<path d="M24.1844 10.8136C25.277 15.8736 22.3668 17.098 21.2729 17.3329C20.2806 17.5455 16.8764 18.1431 15.2648 13.2234C13.6545 8.30371 15.6642 6.19686 17.9077 5.59093C20.1512 4.985 23.0905 5.75492 24.1844 10.8136Z" fill="#D3766A"/>
<path d="M22.5255 10.0673C22.403 10.0701 22.2903 10.0534 22.1678 10.0437C22.0314 10.0326 21.9201 10.0395 21.8073 9.95058C21.7475 9.90333 21.735 9.79076 21.7753 9.72822C21.87 9.5823 22.0411 9.55311 22.2068 9.55867C22.3863 9.56562 22.5227 9.61565 22.6577 9.73378C22.7885 9.84774 22.6855 10.0631 22.5241 10.0673H22.5255Z" fill="#263238"/>
<path d="M18.9737 11.382C19.092 11.3514 19.1964 11.3028 19.3105 11.2597C19.4385 11.2111 19.5457 11.186 19.6292 11.0693C19.6737 11.0068 19.6542 10.8956 19.5972 10.8469C19.465 10.733 19.2924 10.7538 19.1365 10.8053C18.9667 10.8622 18.8498 10.9484 18.7524 11.0999C18.6591 11.2458 18.8178 11.4237 18.9737 11.382Z" fill="#263238"/>
<path d="M19.8435 12.013C19.838 12.0005 19.8185 12.0338 19.8213 12.0477C19.8908 12.3938 19.9117 12.801 19.6167 12.9691C19.6069 12.9747 19.6111 12.9914 19.6222 12.9886C19.998 12.8704 19.9646 12.3298 19.8435 12.013Z" fill="#263238"/>
<path d="M19.4705 11.7016C18.9041 11.7531 19.0474 12.8815 19.5735 12.8343C20.0899 12.787 19.9465 11.6586 19.4705 11.7016Z" fill="#263238"/>
<path d="M21.9409 11.5613C21.9423 11.5474 21.9702 11.5766 21.9702 11.5905C21.9827 11.9435 22.0578 12.3437 22.3849 12.4396C22.3946 12.4424 22.3946 12.4604 22.3835 12.4591C21.991 12.4313 21.8978 11.8976 21.9423 11.5613H21.9409Z" fill="#263238"/>
<path d="M22.229 11.1721C22.7926 11.0902 22.9151 12.2214 22.3932 12.2965C21.8796 12.3715 21.7572 11.2402 22.229 11.1721Z" fill="#263238"/>
<path d="M20.4852 14.7174C20.5756 14.7925 20.6689 14.8995 20.7983 14.8995C20.9222 14.8995 21.06 14.8328 21.1685 14.78C21.1797 14.7744 21.1908 14.7855 21.1852 14.7966C21.1045 14.9384 20.9194 15.0384 20.7538 15.0232C20.5923 15.0079 20.5019 14.8772 20.4518 14.7355C20.4448 14.716 20.4713 14.7063 20.4838 14.7174H20.4852Z" fill="#263238"/>
<path d="M21.7711 13.2512C21.7711 13.2512 21.9158 13.7626 21.9506 14.0086C21.9534 14.0323 21.8963 14.0503 21.8128 14.067C21.8087 14.0684 21.8073 14.0712 21.8031 14.0684C21.3772 14.1962 20.9193 14.1073 20.6048 13.7904C20.5839 13.7682 20.6118 13.739 20.6368 13.7515C20.9945 13.9447 21.3619 13.9558 21.7488 13.9086C21.7572 13.8377 21.4719 13.0414 21.5094 13.033C21.643 13.0025 21.92 13.0567 22.0856 13.0817C21.8142 12.0074 21.373 10.9859 21.1197 9.91306C21.1114 9.87415 21.1657 9.85469 21.1824 9.88804C21.721 10.9262 22.0592 12.1547 22.3681 13.2568C22.4085 13.3944 21.8755 13.2804 21.7711 13.2512Z" fill="#263238"/>
<path d="M14.9752 13.0928C15.8562 13.1609 16.058 11.3167 16.058 11.3167C16.058 11.3167 17.8477 11.3223 18.4378 8.75125C18.4378 8.75125 18.3989 9.94781 17.6459 10.8762C17.6459 10.8762 20.8024 10.5426 22.1301 7.90489C22.1301 7.90489 21.5999 9.24877 21.103 9.72546C21.103 9.72546 22.4266 9.35717 23.0724 8.2829C23.0724 8.2829 23.6249 9.80467 24.0507 10.2258C24.0507 10.2258 23.9199 4.71126 18.8039 5.29774C18.8039 5.29774 15.6001 5.51037 14.4505 8.04248C13.3009 10.5746 14.9738 13.0914 14.9738 13.0914L14.9752 13.0928Z" fill="#263238"/>
<path d="M16.154 13.4374C16.154 13.4374 14.8291 11.9768 14.1513 12.4688C13.4735 12.9608 14.612 15.1774 15.5069 15.3873C16.4018 15.5971 16.6133 14.773 16.6133 14.773L16.154 13.4374Z" fill="#D3766A"/>
<path d="M14.4937 13.0956C14.4798 13.0956 14.4798 13.115 14.4923 13.1192C15.1228 13.286 15.5083 13.8016 15.802 14.3491C15.596 14.1504 15.3371 14.0601 15.0671 14.3088C15.0532 14.3213 15.0713 14.345 15.088 14.3394C15.3274 14.256 15.5097 14.2755 15.7004 14.452C15.8354 14.5757 15.9383 14.7424 16.0427 14.8911C16.0775 14.9412 16.1708 14.9009 16.1429 14.8411C16.1415 14.8369 16.1388 14.8328 16.136 14.8272C16.0539 14.0615 15.3246 13.0692 14.4937 13.0956Z" fill="#263238"/>
<path d="M15.6349 15.4206C15.6349 15.5776 15.7615 15.7041 15.9188 15.7041C16.0761 15.7041 16.2027 15.5776 16.2027 15.4206C16.2027 15.2636 16.0761 15.1371 15.9188 15.1371C15.7615 15.1371 15.6349 15.2636 15.6349 15.4206Z" fill="white"/>
<path d="M22.595 6.05373C21.991 6.10099 18.9027 7.21 17.6975 8.26759C16.4936 9.32519 14.6621 12.1491 14.5688 12.2965C14.4756 12.4438 12.1583 7.51852 16.0204 5.22545C20.2291 2.7253 22.595 6.05373 22.595 6.05373Z" fill="#FFC727"/>
<path d="M14.74 12.0088C14.74 12.0088 16.3099 7.481 17.5708 6.1538C18.8318 4.82659 22.1079 3.2409 24.5323 3.48271C26.4237 3.67172 23.0808 7.10994 23.0808 7.10994C23.0808 7.10994 22.7774 6.55821 22.1761 6.52208C21.0098 6.44981 19.1519 7.40318 18.1568 8.14252C16.9042 9.07226 14.7386 12.0102 14.7386 12.0102L14.74 12.0088Z" fill="#FFC727"/>
<path opacity="0.2" d="M14.74 12.0088C14.74 12.0088 16.3099 7.481 17.5708 6.1538C18.8318 4.82659 22.1079 3.2409 24.5323 3.48271C26.4237 3.67172 23.0808 7.10994 23.0808 7.10994C23.0808 7.10994 22.7774 6.55821 22.1761 6.52208C21.0098 6.44981 19.1519 7.40318 18.1568 8.14252C16.9042 9.07226 14.7386 12.0102 14.7386 12.0102L14.74 12.0088Z" fill="black"/>
<path d="M26.2136 29.211H7.55865V40.7681H26.2136V29.211Z" fill="#FFC727"/>
<path opacity="0.2" d="M26.2136 29.211H7.55865V40.7681H26.2136V29.211Z" fill="black"/>
<path opacity="0.2" d="M7.56002 40.7695H14.6245L14.6245 29.2124H7.56002L7.56002 40.7695Z" fill="black"/>
<path d="M8.04572 39.9732C8.56901 39.1519 9.08813 38.3277 9.60168 37.4994L11.134 35.0132L12.6468 32.5172C13.1492 31.6834 13.6447 30.8468 14.1374 30.0073C13.6141 30.8287 13.095 31.6528 12.5814 32.4811L11.0491 34.9673L9.53627 37.4647C9.03385 38.2985 8.53839 39.1352 8.04572 39.9732Z" fill="#FFC727"/>
<path d="M8.04572 30.0073C8.53839 30.8468 9.03385 31.6834 9.53627 32.5158L11.0491 35.0132L12.5814 37.4994C13.095 38.3263 13.6141 39.1505 14.1374 39.9732C13.6461 39.1338 13.1492 38.2972 12.6468 37.4633L11.134 34.9673L9.60168 32.4811C9.08813 31.6542 8.56901 30.8301 8.04572 30.0073Z" fill="#FFC727"/>
<path d="M12.15 29.211H10.0039V31.354H12.15V29.211Z" fill="#EBEBEB"/>
<path d="M22.293 37.6912H22.1427V39.8078H22.293V37.6912Z" fill="#263238"/>
<path d="M22.6535 37.6912H22.5032V39.8078H22.6535V37.6912Z" fill="#263238"/>
<path d="M23.014 37.6912H22.8636V39.8078H23.014V37.6912Z" fill="#263238"/>
<path d="M23.3758 37.6912H23.2255V39.8078H23.3758V37.6912Z" fill="#263238"/>
<path d="M23.7362 37.6912H23.5859V39.8078H23.7362V37.6912Z" fill="#263238"/>
<path d="M24.0967 37.6912H23.9464V39.8078H24.0967V37.6912Z" fill="#263238"/>
<path d="M24.4572 37.6912H24.3069V39.8078H24.4572V37.6912Z" fill="#263238"/>
<path d="M24.8176 37.6912H24.6673V39.8078H24.8176V37.6912Z" fill="#263238"/>
<path d="M25.1781 37.6912H25.0278V39.8078H25.1781V37.6912Z" fill="#263238"/>
<path d="M20.6674 39.6466L21.2464 39.8078H19.8894L20.4684 39.6452V38.867C20.055 38.8128 19.8894 38.4056 19.8894 37.6926H21.2464C21.2464 38.4042 21.0821 38.8128 20.6674 38.867V39.6466Z" fill="#263238"/>
<path d="M19.5721 38.7711H19.2186V39.8078H18.3112V38.7711H17.9549L18.7649 37.6926L19.5721 38.7711Z" fill="#263238"/>
<path opacity="0.1" d="M26.2136 40.7681V39.755L14.6245 37.8788V40.7681H26.2136Z" fill="black"/>
<path d="M25.1795 28.84H9.40546V29.2124H25.1795V28.84Z" fill="#EBEBEB"/>
<path d="M24.7703 28.4675H8.99628V28.84H24.7703V28.4675Z" fill="#C7C7C7"/>
<path d="M25.5023 31.9127L14.1281 33.8194L15.3389 41.0218L26.7131 39.115L25.5023 31.9127Z" fill="white"/>
<path d="M25.4996 31.9155C25.1141 32.4311 24.7161 32.93 24.3264 33.4386C23.9311 33.9389 23.5345 34.4406 23.1351 34.9368C22.7175 35.4552 22.2986 35.9694 21.8797 36.4808C21.8672 36.4975 21.8546 36.5141 21.8421 36.5294C21.4705 36.9811 21.0961 37.4328 20.7232 37.8844L20.6675 37.9484L20.5951 37.9053C20.0941 37.5995 19.5945 37.2952 19.0962 36.9867C19.0795 36.9769 19.0614 36.9658 19.0433 36.9547C18.4769 36.6086 17.9132 36.2584 17.3496 35.9027C16.8124 35.5649 16.2724 35.2217 15.7351 34.877C15.1993 34.5226 14.6607 34.1808 14.1277 33.8194C14.6788 34.1141 15.2258 34.4281 15.7741 34.7325C16.3211 35.0438 16.8694 35.3551 17.415 35.6747C18.0218 36.0263 18.63 36.3849 19.2382 36.749C19.2382 36.749 19.2396 36.7495 19.2423 36.7504C19.6974 37.02 20.1512 37.2924 20.6063 37.5648C20.9458 37.159 21.2868 36.7518 21.6278 36.3501C21.6278 36.3501 21.6287 36.3483 21.6306 36.3446C22.0857 35.8054 22.5422 35.2675 23.0028 34.7353C23.4148 34.2586 23.8281 33.7833 24.2443 33.3122C24.6646 32.8452 25.0779 32.3699 25.5038 31.9127L25.4996 31.9155Z" fill="#DBDBDB"/>
<path d="M19.2799 36.9116C19.2799 36.9116 19.2729 36.9213 19.2687 36.9255C19.2172 36.9867 19.1657 37.0478 19.1142 37.1076C18.8693 37.3952 18.616 37.6746 18.3557 37.9484C18.0398 38.2847 17.7141 38.6113 17.3857 38.9365C17.0545 39.2561 16.7218 39.5757 16.3795 39.8857C16.0357 40.1956 15.6892 40.5013 15.3245 40.789C15.6182 40.4291 15.9299 40.0872 16.2459 39.7522C16.5632 39.4145 16.8888 39.0879 17.2159 38.7641C17.5485 38.4417 17.8812 38.1235 18.2235 37.8136C18.4963 37.5662 18.7747 37.3216 19.0627 37.0867C19.1296 37.0311 19.195 36.9783 19.2645 36.9255C19.2687 36.9213 19.2757 36.9172 19.2799 36.913V36.9116Z" fill="#DBDBDB"/>
<path d="M26.645 38.8919C26.2066 38.7391 25.7765 38.564 25.3534 38.3819C24.9275 38.2012 24.5086 38.0081 24.0897 37.8135C23.6736 37.6134 23.2575 37.4105 22.8497 37.1951C22.517 37.0213 22.1858 36.8421 21.8615 36.6489C21.7919 36.6086 21.7238 36.5669 21.6542 36.5252C21.6486 36.5224 21.6444 36.5183 21.6389 36.5155C21.6444 36.5183 21.6514 36.5196 21.6569 36.521C21.7391 36.5516 21.8198 36.5794 21.9005 36.61C22.2484 36.7378 22.5908 36.8782 22.9304 37.0227C23.3563 37.2034 23.7752 37.3966 24.1927 37.5939C24.6088 37.794 25.025 37.9969 25.4328 38.2124C25.8433 38.4264 26.2483 38.6473 26.645 38.8919Z" fill="#DBDBDB"/>
<path d="M17.1179 34.0458L16.8831 41.3451L28.4105 41.7149L28.6453 34.4156L17.1179 34.0458Z" fill="#EBEBEB"/>
<path d="M28.6449 34.4142C28.1647 34.8436 27.6776 35.255 27.1933 35.6775C26.7076 36.0902 26.2191 36.503 25.7292 36.9116C25.2184 37.3382 24.7049 37.7593 24.1927 38.179C24.176 38.1929 24.1621 38.2068 24.1468 38.2193C23.6931 38.589 23.238 38.9573 22.7815 39.3269L22.7147 39.3784L22.652 39.3228C22.2206 38.9253 21.7919 38.5278 21.3633 38.1276C21.348 38.1151 21.3327 38.1012 21.3173 38.0859C20.8316 37.6342 20.3459 37.1812 19.8644 36.7212C19.4037 36.2848 18.943 35.8415 18.4838 35.3981C18.0287 34.9451 17.568 34.5045 17.1171 34.0445C17.6 34.442 18.0732 34.8575 18.5506 35.2633C19.0265 35.6761 19.5011 36.0902 19.9729 36.5099C20.499 36.9741 21.0237 37.4452 21.5484 37.9219C21.5484 37.9219 21.5493 37.9228 21.5512 37.9247C21.9436 38.2791 22.3361 38.6348 22.7286 38.992C23.1419 38.6612 23.5553 38.3291 23.97 38.0025C23.97 38.0025 23.9714 38.0011 23.9742 37.9983C24.5267 37.5592 25.0806 37.1228 25.6359 36.6906C26.1342 36.3042 26.6324 35.9193 27.1334 35.5399C27.6373 35.1647 28.1369 34.7811 28.6449 34.4156V34.4142Z" fill="#C7C7C7"/>
<path d="M21.5595 38.0887C21.5595 38.0887 21.5512 38.097 21.5456 38.0998C21.483 38.1499 21.4218 38.1999 21.3591 38.2471C21.0627 38.482 20.7593 38.7058 20.4503 38.9226C20.0746 39.1908 19.6904 39.4465 19.3035 39.7008C18.9166 39.9496 18.5269 40.1969 18.1289 40.4332C17.7309 40.6695 17.33 40.9002 16.9167 41.1114C17.2758 40.8168 17.6487 40.543 18.0245 40.2762C18.4017 40.0079 18.7872 39.7522 19.1713 39.4979C19.561 39.2477 19.9493 39.0004 20.3473 38.7641C20.6633 38.5751 20.9848 38.3903 21.3132 38.2166C21.3884 38.1763 21.4649 38.136 21.5428 38.097C21.5484 38.0943 21.5554 38.0901 21.5609 38.0873L21.5595 38.0887Z" fill="#C7C7C7"/>
<path d="M28.3902 41.4797C27.9907 41.2434 27.6038 40.9877 27.2239 40.7264C26.8426 40.4652 26.4696 40.1942 26.098 39.9204C25.7292 39.6424 25.3617 39.3617 25.0041 39.0699C24.7118 38.8336 24.4237 38.5932 24.144 38.3402C24.0827 38.286 24.0243 38.2332 23.9658 38.179C23.9603 38.1749 23.9575 38.1707 23.9519 38.1665C23.9575 38.1707 23.9644 38.1735 23.9686 38.1763C24.0438 38.2221 24.1161 38.2652 24.1899 38.3111C24.5058 38.5042 24.8134 38.7099 25.1182 38.9184C25.4995 39.1797 25.8725 39.4507 26.2427 39.7258C26.6115 40.0038 26.9789 40.2845 27.3366 40.5763C27.6971 40.8668 28.0506 41.1628 28.3902 41.4811V41.4797Z" fill="#C7C7C7"/>
<path d="M16.3795 36.6558C14.7929 35.2494 5.67556 30.1574 3.82871 29.5209C1.98187 28.8844 -0.623474 29.721 0.207397 32.4936C1.03827 35.2647 10.4075 43.4531 13.9425 44.034C15.1867 44.2383 16.9529 37.1645 16.3781 36.6558H16.3795Z" fill="#D3766A"/>
<path d="M19.0669 39.1185C18.7037 38.8378 18.8484 38.646 19.664 38.639C20.4893 38.6307 23.7154 39.295 23.8518 38.1485C23.9909 36.9977 19.4093 36.1319 18.0524 36.2473C16.694 36.3599 14.5382 37.0255 14.5382 37.0255C15.3955 37.373 17.3941 38.4153 19.0669 39.1185Z" fill="#D3766A"/>
<path d="M12.6816 43.5712C15.131 44.462 18.1275 45.7212 21.0195 45.1875C21.5873 45.0833 21.8615 44.7386 21.8615 44.7386C23.1628 44.5218 23.4509 43.8436 23.4509 43.8436C24.6005 43.2724 24.8009 42.5373 24.8009 42.5373C24.8009 42.5373 26.3248 42.2663 26.3151 41.3198C26.3068 40.2581 24.1676 40.8445 22.7926 40.4499C19.6431 39.5438 15.4219 37.3771 14.5396 37.0255L12.683 43.5698L12.6816 43.5712Z" fill="#D3766A"/>
<path d="M18.8234 41.8174C19.7558 42.0661 20.6646 42.333 21.6249 42.4539C22.6785 42.5859 23.7153 42.5372 24.7731 42.5136C24.8065 42.5136 24.8106 42.5581 24.7786 42.565C22.8733 42.9097 20.5951 42.6067 18.8122 41.8591C18.7691 41.841 18.7774 41.8049 18.8248 41.8174H18.8234Z" fill="#263238"/>
<path d="M18.0008 43.6351C18.9207 43.8269 20.5407 44.1521 23.4481 43.813C23.4578 43.813 23.462 43.8283 23.4523 43.8297C21.5943 44.3008 19.8142 44.2202 17.9925 43.6782C17.9354 43.6615 17.941 43.6212 18.0008 43.6351Z" fill="#263238"/>
<path d="M17.5764 44.6205C19.1532 44.8859 20.1817 44.8539 21.8546 44.7317C21.8643 44.7317 21.8685 44.7469 21.8574 44.7497C19.9702 45.0874 19.2478 44.9971 17.5597 44.6733C17.5012 44.6622 17.5151 44.6107 17.5764 44.6205Z" fill="#263238"/>
<path d="M16.8555 36.2404L12.4255 44.936C12.4255 44.936 4.67353 40.4388 0.517785 33.3344C-0.867 30.9677 0.524744 27.7921 4.72224 29.4904C8.92113 31.1886 16.8541 36.2404 16.8541 36.2404H16.8555Z" fill="#FFC727"/>
<path d="M15.0671 35.6066C14.3656 36.8768 11.6865 42.1815 11.1855 43.3669C11.1507 43.4489 11.1938 43.4906 11.2412 43.41C13.4345 39.6521 14.4923 36.9171 15.1158 35.6358C15.1311 35.6038 15.0838 35.5746 15.0671 35.6066Z" fill="#263238"/>
<path d="M36.4067 5.3102C36.1326 7.92986 33.7819 9.83381 31.1571 9.56003C30.0966 9.44885 29.1543 8.99996 28.4237 8.32872L26.0341 8.67893L27.2296 6.61517C26.9401 5.91057 26.8176 5.12536 26.9011 4.31792C27.1753 1.69826 29.5259 -0.205691 32.1508 0.0694783C34.7742 0.343258 36.6809 2.69053 36.4053 5.31159L36.4067 5.3102Z" fill="white"/>
<path d="M36.4066 5.31023C36.3064 6.1816 35.9877 7.0349 35.4421 7.72838C35.3169 7.91044 35.1554 8.06192 35.0093 8.22591C34.8437 8.37044 34.6878 8.52887 34.5055 8.65256C34.1562 8.92078 33.7637 9.13202 33.3531 9.29323C32.9454 9.46556 32.5056 9.54755 32.0672 9.59897C31.8459 9.61148 31.6246 9.63094 31.4033 9.61148C31.182 9.60592 30.9607 9.5823 30.7422 9.54338C29.8682 9.38495 29.0401 8.97637 28.379 8.37739L28.4361 8.39546L26.0479 8.76096L25.8739 8.78737L25.9616 8.63449L27.1501 6.56656L27.1446 6.64855C26.5656 5.2866 26.6964 3.66477 27.4382 2.39594C27.8084 1.76083 28.3248 1.21327 28.9343 0.804685C29.5439 0.394711 30.2495 0.138998 30.9733 0.0403263C31.697 -0.0555659 32.4429 0.00975197 33.1332 0.239059C33.8235 0.471146 34.4568 0.861664 34.9759 1.36753C36.0308 2.36953 36.5611 3.87046 36.4052 5.30745L36.4066 5.31023ZM36.4066 5.31023C36.5514 3.87185 36.0114 2.37926 34.9564 1.39116C34.4331 0.897797 33.7985 0.522567 33.1138 0.305767C32.4276 0.0917468 31.6956 0.0403263 30.9886 0.147336C30.2829 0.255736 29.5996 0.518398 29.0151 0.925592C28.4319 1.33418 27.9406 1.86923 27.5857 2.4821C27.2239 3.09498 27.036 3.7968 26.9789 4.5014C26.9344 5.20878 27.0499 5.92311 27.3157 6.58045L27.3324 6.62354L27.3102 6.66245L26.1077 8.72205L26.0228 8.59558L28.4152 8.26065L28.4486 8.25648L28.4723 8.27872C29.1041 8.87214 29.9058 9.28489 30.7603 9.45583C30.9733 9.49891 31.1904 9.52532 31.4089 9.53505C31.626 9.55867 31.8445 9.542 32.063 9.53505C32.4958 9.49057 32.9314 9.41692 33.3392 9.25432C33.7484 9.10145 34.1436 8.90132 34.4916 8.63449C34.6753 8.51359 34.8298 8.35655 34.9968 8.2134C35.1429 8.0508 35.3057 7.90071 35.431 7.72004C35.9794 7.03212 36.3036 6.18299 36.4094 5.31301L36.4066 5.31023Z" fill="#263238"/>
<path d="M31.0958 7.53521L29.0541 5.47144L29.7402 4.79602L30.9315 6.00093L33.4088 2.12355L34.2216 2.64053L31.0958 7.53521Z" fill="#FFC727"/>
<path d="M50.64 36.0777H30.0659V52H50.64V36.0777Z" fill="#FFC727"/>
<path opacity="0.2" d="M50.64 36.0777H30.0659V52H50.64V36.0777Z" fill="black"/>
<path opacity="0.2" d="M30.0673 52H37.8597V36.0777H30.0673V52Z" fill="black"/>
<path d="M30.6045 50.9035C31.1821 49.7708 31.7541 48.6354 32.3205 47.4958L34.0115 44.0715L35.6802 40.6319C36.2341 39.4839 36.7811 38.3305 37.3238 37.1742C36.7463 38.3068 36.1743 39.4423 35.6078 40.5818L33.9168 44.0062L32.2481 47.4458C31.6942 48.5937 31.1473 49.7472 30.6045 50.9021V50.9035Z" fill="#FFC727"/>
<path d="M30.6045 37.1742C31.1473 38.3305 31.6942 39.4826 32.2481 40.6305L33.9168 44.0701L35.6078 47.4944C36.1743 48.634 36.7463 49.7694 37.3238 50.9021C36.7811 49.7458 36.2341 48.5937 35.6802 47.4444L34.0115 44.0048L32.3205 40.5804C31.7541 39.4409 31.1821 38.3054 30.6045 37.1728V37.1742Z" fill="#FFC727"/>
<path d="M35.1304 36.0777H32.7645V38.0206H35.1304V36.0777Z" fill="#EBEBEB"/>
<path d="M46.3173 48.6062H46.1517V50.941H46.3173V48.6062Z" fill="#263238"/>
<path d="M46.7154 48.6062H46.5497V50.941H46.7154V48.6062Z" fill="#263238"/>
<path d="M47.1133 48.6062H46.9477V50.941H47.1133V48.6062Z" fill="#263238"/>
<path d="M47.5113 48.6062H47.3457V50.941H47.5113V48.6062Z" fill="#263238"/>
<path d="M47.908 48.6062H47.7424V50.941H47.908V48.6062Z" fill="#263238"/>
<path d="M48.3061 48.6062H48.1405V50.941H48.3061V48.6062Z" fill="#263238"/>
<path d="M48.7042 48.6062H48.5386V50.941H48.7042V48.6062Z" fill="#263238"/>
<path d="M49.1021 48.6062H48.9365V50.941H49.1021V48.6062Z" fill="#263238"/>
<path d="M49.4988 48.6062H49.3332V50.941H49.4988V48.6062Z" fill="#263238"/>
<path d="M44.5247 50.7631L45.1621 50.9396H43.6646L44.302 50.7603V49.9029C43.8455 49.8431 43.6646 49.3928 43.6646 48.6076H45.1621C45.1621 49.3915 44.9812 49.8431 44.5247 49.9029V50.7631Z" fill="#263238"/>
<path d="M43.3168 49.7972H42.9271V50.9396H41.9264V49.7972H41.5339L42.426 48.6062L43.3168 49.7972Z" fill="#263238"/>
<path opacity="0.1" d="M50.6415 52V50.8826L37.8597 48.8133V51.9986L50.6415 52Z" fill="black"/>
<path d="M49.8983 30.4617H34.0032V36.0763H49.8983V30.4617Z" fill="#FFC727"/>
<path opacity="0.2" d="M49.8983 30.4617H34.0032V36.0763H49.8983V30.4617Z" fill="black"/>
<path opacity="0.2" d="M34.0045 36.0777H38.8617V30.4631H34.0045V36.0777Z" fill="black"/>
<path d="M34.3386 35.6899C34.6976 35.2911 35.0553 34.8908 35.4074 34.4878L36.461 33.2801L37.5006 32.0669C37.8458 31.6625 38.1867 31.2553 38.5249 30.8481C38.1645 31.2469 37.8082 31.6472 37.4561 32.0502L36.4025 33.2579L35.3629 34.4711C35.0177 34.8756 34.6768 35.2828 34.3386 35.6899Z" fill="#FFC727"/>
<path d="M34.3386 30.8495C34.6768 31.2567 35.0177 31.6639 35.3629 32.0683L36.4025 33.2815L37.4561 34.4892C37.8096 34.8908 38.1659 35.2911 38.5249 35.6913C38.1867 35.2841 37.8458 34.877 37.5006 34.4725L36.461 33.2593L35.4074 32.0516C35.0539 31.65 34.6976 31.2497 34.3386 30.8495Z" fill="#FFC727"/>
<path d="M37.161 30.4617H35.6857V31.7764H37.161V30.4617Z" fill="#EBEBEB"/>
<path d="M47.2038 33.9611H47.1008V35.4161H47.2038V33.9611Z" fill="#263238"/>
<path d="M47.4515 33.9611H47.3485V35.4161H47.4515V33.9611Z" fill="#263238"/>
<path d="M47.7006 33.9611H47.5977V35.4161H47.7006V33.9611Z" fill="#263238"/>
<path d="M47.9484 33.9611H47.8455V35.4161H47.9484V33.9611Z" fill="#263238"/>
<path d="M48.1961 33.9611H48.0931V35.4161H48.1961V33.9611Z" fill="#263238"/>
<path d="M48.4439 33.9611H48.3409V35.4161H48.4439V33.9611Z" fill="#263238"/>
<path d="M48.6915 33.9611H48.5886V35.4161H48.6915V33.9611Z" fill="#263238"/>
<path d="M48.9394 33.9611H48.8364V35.4161H48.9394V33.9611Z" fill="#263238"/>
<path d="M49.187 33.9611H49.084V35.4161H49.187V33.9611Z" fill="#263238"/>
<path d="M46.0876 35.3064L46.4857 35.4161H45.5518L45.9499 35.305V34.7699C45.6659 34.7324 45.5518 34.4517 45.5518 33.9625H46.4857C46.4857 34.4517 46.3729 34.7324 46.0876 34.7699V35.3064Z" fill="#263238"/>
<path d="M45.3348 34.7046H45.0912V35.4161H44.4663V34.7046H44.2214L44.7781 33.9625L45.3348 34.7046Z" fill="#263238"/>
<path opacity="0.1" d="M49.8996 36.0777V35.38L38.8617 34.0904V36.0763L49.8996 36.0777Z" fill="black"/>
</g>
<defs>
<clipPath id="clip0_7533_33228">
<rect width="51.4583" height="52" fill="white"/>
</clipPath>
</defs>
</svg>
