<svg width="24" height="24" viewBox="0 0 24 24" fill="none" xmlns="http://www.w3.org/2000/svg">
<path d="M0 12C0 5.37258 5.37258 0 12 0C18.6274 0 24 5.37258 24 12C24 18.6274 18.6274 24 12 24C5.37258 24 0 18.6274 0 12Z" fill="#FFFBE6"/>
<path d="M14.8425 6.22014C14.8205 6.17791 14.7875 6.1424 14.747 6.11732C14.7066 6.09225 14.6601 6.07854 14.6125 6.07764L12.38 6.12014C11.7971 6.12781 11.2406 6.3639 10.83 6.77764L5.21248 12.3951C4.97814 12.6295 4.8465 12.9474 4.8465 13.2789C4.8465 13.6103 4.97814 13.9282 5.21248 14.1626C6.85248 15.7651 6.77748 15.8101 6.96248 15.8051C6.99709 15.8034 7.03095 15.7945 7.06194 15.779C7.09293 15.7636 7.12035 15.7418 7.14248 15.7151L14.8075 6.50014C14.8408 6.46242 14.862 6.41551 14.8683 6.36555C14.8745 6.31559 14.8655 6.2649 14.8425 6.22014Z" fill="#FFC633"/>
<path d="M14.4269 6.31152C14.4515 6.31721 14.4744 6.3298 14.4933 6.34668C14.512 6.36352 14.5269 6.38442 14.5353 6.4082C14.5394 6.4201 14.542 6.43286 14.5431 6.44531L14.5411 6.4834L12.2169 18.7783C12.2064 18.8317 12.1815 18.8596 12.1485 18.877C12.1105 18.8969 12.0525 18.9075 11.9767 18.9023C11.8251 18.892 11.6393 18.8243 11.4962 18.7451H11.4952L7.38487 16.3711C7.12086 16.2186 6.92868 15.9673 6.84972 15.6729C6.77078 15.3783 6.81148 15.0639 6.96397 14.7998L10.9366 7.92285C11.2145 7.44106 11.6688 7.08589 12.2032 6.93164L12.2023 6.93066L14.3526 6.31348C14.3768 6.30663 14.4024 6.30597 14.4269 6.31152Z" fill="#F9DD4B" stroke="black" stroke-width="0.2"/>
<path d="M15.125 6.03955C15.2796 6.03955 15.4329 6.07088 15.5752 6.13135C15.7174 6.19181 15.8459 6.28085 15.9531 6.39209L18.0479 8.56885V8.56982C18.385 8.91968 18.5925 9.37151 18.6396 9.85107L18.6504 10.0581V17.9995C18.6504 18.3044 18.529 18.5973 18.3135 18.813C18.0978 19.0287 17.805 19.1499 17.5 19.1499H12.75C12.445 19.1499 12.1522 19.0287 11.9365 18.813C11.721 18.5973 11.5996 18.3044 11.5996 17.9995V10.0581C11.6006 9.50297 11.8169 8.96956 12.2021 8.56982V8.56885L14.2969 6.39209C14.4041 6.28085 14.5326 6.19181 14.6748 6.13135C14.8171 6.07088 14.9704 6.03955 15.125 6.03955Z" fill="#F9DD4B" stroke="black" stroke-width="0.2"/>
<path d="M16.7499 4.72021C16.7499 4.73521 16.5574 6.14021 15.4474 6.78771C15.3641 6.71644 15.2596 6.67455 15.15 6.66852C15.0405 6.66248 14.932 6.69264 14.8413 6.75433C14.7506 6.81602 14.6827 6.90582 14.6481 7.0099C14.6135 7.11398 14.614 7.22657 14.6497 7.3303C14.6854 7.43404 14.7541 7.52316 14.8454 7.58396C14.9367 7.64475 15.0455 7.67382 15.155 7.66671C15.2644 7.65959 15.3685 7.61668 15.4512 7.54458C15.5339 7.47248 15.5905 7.37519 15.6124 7.26771C16.9999 6.52771 17.2499 4.86021 17.2499 4.78021L16.7499 4.72021Z" fill="url(#paint0_linear_16475_59146)"/>
<path d="M17.0374 15.061C17.0186 15.2476 16.9696 15.4255 16.8958 15.5894L15.3294 15.9224C15.3481 15.7358 15.397 15.558 15.471 15.394L17.0374 15.061ZM14.8411 13.5327L15.3284 13.4282V11.9399C15.4633 11.7751 15.6297 11.6357 15.8167 11.5308V13.3247L17.0374 13.0659C17.0186 13.2524 16.9696 13.4304 16.8958 13.5942L15.8167 13.8237V14.3228L17.0374 14.063C17.0186 14.2497 16.9698 14.4282 16.8958 14.5923L15.3284 14.9253V13.9272L14.8411 14.0308V14.5845C14.8411 14.635 14.8254 14.6823 14.7991 14.7212L14.5452 15.0972C14.4822 15.1888 14.3854 15.2554 14.2727 15.2788L12.8889 15.5728C12.9077 15.3862 12.9566 15.2083 13.0305 15.0444L14.3528 14.7632V14.1353L13.1194 14.397C13.1382 14.2102 13.187 14.0317 13.261 13.8677L14.3528 13.6362V11.6958C14.4877 11.5311 14.6542 11.3915 14.8411 11.2866V13.5327Z" fill="#232323"/>
<defs>
<linearGradient id="paint0_linear_16475_59146" x1="14.6249" y1="6.19271" x2="17.2474" y2="6.19271" gradientUnits="userSpaceOnUse">
<stop stop-color="#002237"/>
<stop offset="1" stop-color="#003352"/>
</linearGradient>
</defs>
</svg>
