<svg width="52" height="52" viewBox="0 0 52 52" fill="none" xmlns="http://www.w3.org/2000/svg">
<g clip-path="url(#clip0_7533_68052)">
<path d="M0.901489 51.8552H50.0246" stroke="#263238" stroke-width="0.289661" stroke-linecap="round" stroke-linejoin="round"/>
<path d="M40.1008 4.6427H10.8241C10.3589 4.6427 9.98181 5.01983 9.98181 5.48504V43.7632C9.98181 44.2284 10.3589 44.6055 10.8241 44.6055H40.1008C40.566 44.6055 40.9431 44.2284 40.9431 43.7632V5.48504C40.9431 5.01983 40.566 4.6427 40.1008 4.6427Z" fill="#FFC727" stroke="#FFC727" stroke-width="0.289661" stroke-linecap="round" stroke-linejoin="round"/>
<path d="M38.902 7.39065L12.1884 7.03162L11.7047 43.0171L38.4183 43.3761L38.902 7.39065Z" fill="white" stroke="#FFC727" stroke-width="0.289661" stroke-linecap="round" stroke-linejoin="round"/>
<path d="M25.4624 10.3722V37.4972" stroke="#FFC727" stroke-width="0.289661" stroke-linecap="round" stroke-linejoin="round"/>
<path d="M16.5398 15.5027H14.5747V17.4678H16.5398V15.5027Z" stroke="#FFC727" stroke-width="0.289661" stroke-linecap="round" stroke-linejoin="round"/>
<path d="M17.5454 15.9453H23.7894" stroke="#FFC727" stroke-width="0.289661" stroke-linecap="round" stroke-linejoin="round"/>
<path d="M17.5454 16.6961H22.735" stroke="#FFC727" stroke-width="0.289661" stroke-linecap="round" stroke-linejoin="round"/>
<path d="M15.1343 16.5327L15.4865 16.8849L16.6 15.7715" stroke="#FFC727" stroke-width="0.289661" stroke-linecap="round" stroke-linejoin="round"/>
<path d="M29.1921 15.5027H27.2271V17.4678H29.1921V15.5027Z" stroke="#FFC727" stroke-width="0.289661" stroke-linecap="round" stroke-linejoin="round"/>
<path d="M30.1978 15.9453H36.4417" stroke="#FFC727" stroke-width="0.289661" stroke-linecap="round" stroke-linejoin="round"/>
<path d="M30.1978 16.6961H35.3873" stroke="#FFC727" stroke-width="0.289661" stroke-linecap="round" stroke-linejoin="round"/>
<path d="M27.702 15.9777L28.717 16.9915" stroke="#FFC727" stroke-width="0.289661" stroke-linecap="round" stroke-linejoin="round"/>
<path d="M27.702 16.9915L28.717 15.9777" stroke="#FFC727" stroke-width="0.289661" stroke-linecap="round" stroke-linejoin="round"/>
<path d="M29.1921 19.113H27.2271V21.0781H29.1921V19.113Z" stroke="#FFC727" stroke-width="0.289661" stroke-linecap="round" stroke-linejoin="round"/>
<path d="M30.1978 19.5556H36.4417" stroke="#FFC727" stroke-width="0.289661" stroke-linecap="round" stroke-linejoin="round"/>
<path d="M30.1978 20.3064H35.3873" stroke="#FFC727" stroke-width="0.289661" stroke-linecap="round" stroke-linejoin="round"/>
<path d="M27.702 19.5881L28.717 20.6019" stroke="#FFC727" stroke-width="0.289661" stroke-linecap="round" stroke-linejoin="round"/>
<path d="M27.702 20.6019L28.717 19.5881" stroke="#FFC727" stroke-width="0.289661" stroke-linecap="round" stroke-linejoin="round"/>
<path d="M16.5398 19.113H14.5747V21.0781H16.5398V19.113Z" stroke="#FFC727" stroke-width="0.289661" stroke-linecap="round" stroke-linejoin="round"/>
<path d="M17.5454 19.5556H23.7894" stroke="#FFC727" stroke-width="0.289661" stroke-linecap="round" stroke-linejoin="round"/>
<path d="M17.5454 20.3064H22.735" stroke="#FFC727" stroke-width="0.289661" stroke-linecap="round" stroke-linejoin="round"/>
<path d="M15.1343 20.1431L15.4865 20.4965L16.6 19.3818" stroke="#FFC727" stroke-width="0.289661" stroke-linecap="round" stroke-linejoin="round"/>
<path d="M16.5398 22.7233H14.5747V24.6884H16.5398V22.7233Z" stroke="#FFC727" stroke-width="0.289661" stroke-linecap="round" stroke-linejoin="round"/>
<path d="M17.5454 23.166H23.7894" stroke="#FFC727" stroke-width="0.289661" stroke-linecap="round" stroke-linejoin="round"/>
<path d="M17.5454 23.9179H22.735" stroke="#FFC727" stroke-width="0.289661" stroke-linecap="round" stroke-linejoin="round"/>
<path d="M15.1343 23.7534L15.4865 24.1068L16.6 22.9922" stroke="#FFC727" stroke-width="0.289661" stroke-linecap="round" stroke-linejoin="round"/>
<path d="M16.5398 26.3337H14.5747V28.2988H16.5398V26.3337Z" stroke="#FFC727" stroke-width="0.289661" stroke-linecap="round" stroke-linejoin="round"/>
<path d="M17.5454 26.7763H23.7894" stroke="#FFC727" stroke-width="0.289661" stroke-linecap="round" stroke-linejoin="round"/>
<path d="M17.5454 27.5282H22.735" stroke="#FFC727" stroke-width="0.289661" stroke-linecap="round" stroke-linejoin="round"/>
<path d="M15.1343 27.3637L15.4865 27.7171L16.6 26.6036" stroke="#FFC727" stroke-width="0.289661" stroke-linecap="round" stroke-linejoin="round"/>
<path d="M27.7404 3.57789C27.8748 3.26158 27.9443 2.91283 27.9339 2.54554C27.8991 1.29304 26.905 0.246786 25.656 0.151778C24.2042 0.0417063 22.9899 1.18761 22.9899 2.61737C22.9899 2.95917 23.0583 3.2836 23.1846 3.57789H19.514C18.5697 3.57789 17.8038 4.34376 17.8038 5.28805V8.1221H33.12V5.28805C33.12 4.34376 32.3541 3.57789 31.4098 3.57789H27.7392H27.7404ZM26.0684 3.57789C25.8923 3.68912 25.6849 3.75401 25.4625 3.75401C25.24 3.75401 25.0326 3.69028 24.8565 3.57789C24.5379 3.37629 24.327 3.02174 24.327 2.61737C24.327 1.99055 24.8345 1.4819 25.4625 1.4819C26.0905 1.4819 26.598 1.98939 26.598 2.61737C26.598 3.02174 26.3871 3.37629 26.0684 3.57789Z" fill="#E6B323" stroke="#FFC727" stroke-width="0.289661" stroke-linecap="round" stroke-linejoin="round"/>
<g clip-path="url(#clip1_7533_68052)">
<path d="M36.3177 20.3216C34.9579 21.5823 33.5253 22.7648 32.0688 23.9219C30.3355 25.2988 28.5685 26.6396 26.8506 28.033C24.5162 29.926 22.2726 31.9162 20.3272 34.2257C20.0288 34.5798 19.7373 34.9416 19.4538 35.3117L29.5263 46.1787C30.8089 44.5048 32.2504 43.0012 33.7817 41.5935C36.0435 39.5139 38.5009 37.6436 40.9301 35.7431C42.6603 34.3892 44.3763 33.0202 45.9972 31.5492C47.3265 30.3428 48.5919 29.0677 49.7486 27.6764C50.0023 27.3714 50.2508 27.0607 50.4934 26.744L40.4209 15.8772C39.1808 17.4953 37.7922 18.9544 36.3179 20.3216L36.3177 20.3216Z" fill="#6E9051"/>
<path d="M39.5825 35.005L38.4761 34.3992C38.4125 34.4653 38.3465 34.53 38.2783 34.5932C37.2975 35.5023 36.0381 35.9273 34.7977 35.8779C33.5573 35.829 32.3322 35.3058 31.4203 34.3215C30.5081 33.3376 30.0791 32.0765 30.1243 30.836C30.1358 30.5195 30.1781 30.2043 30.2509 29.8949L28.2174 28.7814C27.0762 29.7168 25.9548 30.6712 24.8771 31.6703C24.2163 32.2827 23.572 32.9118 22.9496 33.5635C23.3748 34.3062 23.5604 35.1444 23.5102 35.9688L26.2133 37.449C26.1144 36.7627 26.3425 36.0419 26.8883 35.536C27.7725 34.7165 29.1559 34.7712 29.978 35.6582C30.8002 36.5452 30.7501 37.9289 29.8659 38.7484C29.6904 38.9111 29.4955 39.0392 29.289 39.1333L32.5541 40.9213C32.7133 40.7699 32.8732 40.6197 33.0342 40.4705C35.1203 38.5372 37.3601 36.7764 39.5825 35.005Z" fill="#8AA751"/>
<path d="M24.6216 31.3947C25.6702 30.423 26.7577 29.4948 27.8622 28.5868L26.8508 28.033C24.5163 29.9261 22.2727 31.9163 20.3273 34.2258L21.3416 34.7812C22.3686 33.5793 23.4717 32.4608 24.6216 31.3949L24.6216 31.3947Z" fill="#8AA751"/>
<path d="M32.0524 33.7356C31.169 32.7825 30.8375 31.5153 31.0437 30.329L30.5937 30.0826C30.5401 30.3356 30.5086 30.5928 30.4992 30.8508C30.4578 31.9968 30.8526 33.1581 31.6949 34.0671C32.5374 34.976 33.6656 35.4575 34.8113 35.5031C35.9571 35.5482 37.1169 35.1572 38.0229 34.3177C38.0605 34.2828 38.0974 34.2474 38.1335 34.2116L37.6836 33.9653C36.0699 35.4543 33.5507 35.3523 32.0524 33.7358L32.0524 33.7356Z" fill="#8AA751"/>
<path d="M33.2898 40.7462C33.1593 40.8671 33.0296 40.9887 32.9005 41.1109L33.782 41.5936C36.0438 39.5139 38.5012 37.6436 40.9304 35.7431L39.9401 35.2008C37.6759 37.0068 35.399 38.791 33.2899 40.7463L33.2898 40.7462Z" fill="#8AA751"/>
<path d="M36.6578 21.3093C36.8386 21.1418 37.0182 20.973 37.1963 20.8028L36.3178 20.3217C34.9581 21.5824 33.5255 22.7649 32.069 23.922L33.019 24.4422C34.2631 23.4287 35.4864 22.3956 36.6577 21.3094L36.6578 21.3093Z" fill="#8AA751"/>
<path d="M37.5676 26.9329L44.6226 30.7963C44.7729 30.6601 44.9224 30.523 45.071 30.3853C45.5836 29.9101 46.0863 29.4249 46.5766 28.9269C46.1953 27.9574 46.1799 26.8823 46.523 25.9101L43.6232 24.3223C43.8575 25.097 43.6516 25.971 43.0196 26.5567C42.1355 27.3763 40.7522 27.3216 39.9298 26.4344C39.1075 25.5472 39.1579 24.1638 40.042 23.3443C40.3029 23.1025 40.6072 22.9368 40.9278 22.8461L37.5423 20.9923C37.3345 21.1917 37.1248 21.3894 36.9136 21.5851C35.7708 22.644 34.5819 23.6514 33.375 24.6371L37.0095 26.6274C37.2008 26.7163 37.3872 26.8183 37.5677 26.933L37.5676 26.9329Z" fill="#8AA751"/>
<path d="M45.3261 30.6608C45.2082 30.7702 45.0899 30.8789 44.9708 30.987L45.9973 31.5492C47.3266 30.3427 48.5921 29.0677 49.7487 27.6764L48.7357 27.1218C47.6722 28.3819 46.5247 29.5499 45.3261 30.6608Z" fill="#8AA751"/>
<path d="M40.7155 16.9715L40.5797 17.1414C39.5353 18.4488 38.3962 19.6568 37.1963 20.8028C37.0181 20.973 36.8385 21.1418 36.6578 21.3093C35.4864 22.3955 34.263 23.4287 33.019 24.4422C31.3125 25.8324 29.5669 27.1855 27.8621 28.5869C26.7576 29.4949 25.6701 30.423 24.6215 31.3948C23.4715 32.4607 22.3685 33.5792 21.3414 34.7812C21.1108 35.051 20.8841 35.3251 20.6614 35.6038L20.5607 35.7298L29.2316 45.0845L29.3672 44.9145C30.4546 43.553 31.6451 42.2991 32.8999 41.1109C33.029 40.9887 33.1589 40.867 33.2892 40.7461C35.3983 38.7909 37.6752 37.0067 39.9394 35.2007C41.6498 33.8365 43.3527 32.4597 44.9705 30.9871C45.0894 30.8788 45.2079 30.7701 45.3258 30.6608C46.5242 29.55 47.6719 28.382 48.7353 27.1218C48.9213 26.9014 49.1048 26.6782 49.2855 26.4522L49.3862 26.3261L49.2762 26.2075C47.8742 24.6949 46.472 23.1821 45.0699 21.6695C43.6678 20.1568 42.2657 18.6441 40.8637 17.1315L40.7153 16.9715L40.7155 16.9715ZM27.7852 42.4426C27.6644 42.4852 27.5451 42.5335 27.4276 42.5873L22.9814 37.7905C23.0441 37.6775 23.1011 37.5621 23.1529 37.445L27.7852 42.4426ZM46.8569 25.1861C46.7219 25.4183 46.6105 25.6607 46.5224 25.91C46.1794 26.8822 46.1949 27.9572 46.576 28.9268C46.0858 29.4249 45.5831 29.91 45.0704 30.3852C44.9218 30.523 44.7723 30.66 44.622 30.7962C43.0051 32.2617 41.2988 33.6366 39.5822 35.005C37.36 36.7764 35.1202 38.5372 33.034 40.4704C32.8731 40.6196 32.7131 40.7698 32.5539 40.9212C31.9989 41.4493 31.4561 41.991 30.9289 42.5498C30.0511 42.1718 29.0714 42.0967 28.1521 42.331L23.2916 37.0871C23.414 36.7245 23.487 36.348 23.51 35.9687C23.5602 35.1444 23.3746 34.3061 22.9495 33.5634C23.5718 32.9116 24.2161 32.2825 24.8768 31.6701C25.9544 30.6711 27.0759 29.7166 28.2171 28.7812C29.9189 27.386 31.6647 26.0331 33.3745 24.6366C34.5814 23.6509 35.7701 22.6436 36.9131 21.5846C37.1243 21.3888 37.3339 21.1912 37.5418 20.9918C37.8261 20.719 38.1071 20.4423 38.3845 20.1616C39.5892 20.7947 41.0353 20.8235 42.2629 20.2296L46.8568 25.1857L46.8569 25.1861ZM47.2711 24.5949C47.1924 24.6893 47.1183 24.7862 47.0488 24.8856L42.5772 20.0614C42.6815 19.9997 42.7838 19.9332 42.8839 19.8618L47.2712 24.595L47.2711 24.5949Z" fill="#4E6D42"/>
<path d="M37.0093 26.6274C36.4204 26.3535 35.7872 26.2031 35.1498 26.178C33.9093 26.1286 32.6499 26.5536 31.6692 27.4628C30.9386 28.14 30.4641 28.9916 30.2511 29.895C30.1782 30.2043 30.1359 30.5195 30.1245 30.8361C30.0793 32.0767 30.5082 33.3379 31.4205 34.3217C32.3326 35.3059 33.5575 35.8292 34.7978 35.878C36.0383 35.9274 37.2977 35.5024 38.2785 34.5933C38.3466 34.5301 38.4127 34.4654 38.4763 34.3993C39.3293 33.5141 39.7815 32.3745 39.8233 31.2201C39.8686 29.9794 39.4396 28.7183 38.5274 27.7344C38.2362 27.4203 37.913 27.1529 37.5677 26.9331C37.3873 26.8183 37.2008 26.7165 37.0095 26.6276L37.0093 26.6274ZM39.4483 31.2051C39.4083 32.3034 38.9676 33.3842 38.1336 34.2115C38.0974 34.2473 38.0606 34.2826 38.0229 34.3175C37.1171 35.1571 35.9572 35.548 34.8114 35.5029C33.6657 35.4573 32.5376 34.9757 31.695 34.0669C30.8526 33.1581 30.4578 31.9967 30.4993 30.8507C30.5086 30.5926 30.5403 30.3355 30.5938 30.0824C30.7781 29.2117 31.2228 28.3887 31.9247 27.7381C32.8306 26.8984 33.9905 26.5075 35.1363 26.5526C36.282 26.5982 37.4103 27.0797 38.2527 27.9885C39.0952 28.8974 39.4898 30.0589 39.4484 31.2048L39.4483 31.2051Z" fill="#4E6D42"/>
<path d="M32.2571 28.0971C31.5938 28.712 31.1877 29.5008 31.0437 30.3292C30.8376 31.5154 31.169 32.7827 32.0525 33.7358C33.5508 35.3523 36.0701 35.4542 37.6836 33.9653C37.6859 33.9632 37.6882 33.9611 37.6904 33.9591C39.3038 32.4636 39.3953 29.939 37.8949 28.3203C36.3945 26.7016 33.8703 26.6016 32.2569 28.0971L32.2571 28.0971Z" fill="#4E6D42"/>
<path d="M40.9275 22.846C40.6069 22.9367 40.3026 23.1024 40.0418 23.3442C39.1576 24.1637 39.1074 25.5473 39.9296 26.4343C40.7517 27.3213 42.1352 27.3762 43.0194 26.5566C43.6513 25.9709 43.8573 25.0969 43.6231 24.3221C43.5295 24.0128 43.366 23.7196 43.1314 23.4665C42.5518 22.8411 41.6933 22.6294 40.9274 22.8461L40.9275 22.846Z" fill="#4E6D42"/>
<path d="M26.8884 35.5361C26.3426 36.042 26.1145 36.7628 26.2134 37.4491C26.2747 37.8746 26.4615 38.2866 26.7762 38.6261C27.4354 39.3373 28.455 39.5135 29.2892 39.1333C29.4957 39.0392 29.6906 38.9111 29.8661 38.7485C30.7503 37.9289 30.8005 36.5454 29.9782 35.6582C29.1558 34.771 27.7726 34.7165 26.8885 35.536L26.8884 35.5361Z" fill="#4E6D42"/>
<path d="M36.9396 31.6218C36.9432 31.7741 36.9174 31.9371 36.8638 32.0968C36.7789 32.3507 36.6315 32.5949 36.428 32.7834C36.3691 32.838 36.3057 32.8879 36.2376 32.9323C36.0906 33.0281 35.9297 33.0995 35.7713 33.1385C35.6127 33.1778 35.4574 33.1845 35.3204 33.1557C35.255 33.142 35.1967 33.1202 35.1406 33.0903C35.092 33.0636 35.0343 33.0595 34.9889 33.071C34.9428 33.0824 34.9065 33.1054 34.8773 33.1321C34.8394 33.168 34.8114 33.211 34.7974 33.2655C34.7909 33.2927 34.7883 33.3236 34.7945 33.3569C34.8007 33.39 34.8172 33.4253 34.8429 33.4526C34.8586 33.4695 34.8773 33.4836 34.8972 33.4941C35.151 33.6297 35.4476 33.6537 35.7391 33.5989C35.995 33.5505 36.2495 33.442 36.4781 33.2874L36.8005 33.6352C36.8427 33.6805 36.899 33.7032 36.954 33.7054C37.0091 33.7077 37.0669 33.6895 37.1123 33.6474C37.1573 33.6056 37.1801 33.5493 37.182 33.494C37.1842 33.4388 37.1655 33.381 37.1236 33.3355L36.8157 33.0034C36.9074 32.9088 36.9903 32.8053 37.0609 32.6934C37.2641 32.3711 37.3798 32.0081 37.3916 31.6619C37.3975 31.4886 37.3772 31.3195 37.3269 31.1622C37.2767 31.0049 37.1963 30.8593 37.0829 30.7372C37.0171 30.6662 36.9405 30.6033 36.8533 30.5506C36.6755 30.4431 36.4645 30.3854 36.2433 30.3818C36.0401 30.3786 35.836 30.4282 35.6437 30.4999C35.4444 30.5745 35.2559 30.6703 35.072 30.7596C34.868 30.8586 34.664 30.95 34.4591 31.0191C34.2793 31.0798 34.1006 31.1194 33.9353 31.1267C33.7695 31.134 33.6186 31.1096 33.4863 31.0456C33.3886 30.9984 33.3042 30.9352 33.2335 30.8589C33.1397 30.7577 33.0698 30.6331 33.028 30.4903C32.9571 30.2502 32.9877 29.9437 33.1363 29.6713C33.21 29.5357 33.3113 29.408 33.4299 29.298C33.5946 29.1454 33.7926 29.0272 33.9911 28.9665C34.0735 28.9412 34.1537 28.927 34.2348 28.922C34.2941 28.9186 34.3478 28.8928 34.3851 28.8577C34.4297 28.8158 34.455 28.7639 34.4635 28.7087C34.4675 28.681 34.4672 28.6517 34.4599 28.6212C34.4525 28.591 34.4377 28.5592 34.4126 28.5322C34.3922 28.5099 34.365 28.492 34.3358 28.4817C34.3066 28.4714 34.2764 28.4682 34.2476 28.4699C34.0489 28.4824 33.8501 28.5381 33.662 28.6259C33.474 28.7138 33.2962 28.8341 33.1407 28.9782C33.1306 28.9876 33.1213 28.9977 33.1115 29.0072L32.8355 28.7095C32.7934 28.6641 32.7369 28.6414 32.6819 28.6392C32.6269 28.6371 32.5691 28.6553 32.5238 28.6971C32.4786 28.739 32.4558 28.7953 32.454 28.8505C32.452 28.9057 32.4705 28.9635 32.5125 29.009L32.8271 29.3484C32.6575 29.6053 32.5528 29.8934 32.5386 30.1826C32.5199 30.5672 32.649 30.926 32.889 31.1848C33.0978 31.4106 33.392 31.5588 33.7335 31.5803C33.9693 31.5954 34.2058 31.5553 34.4368 31.4877C34.6679 31.4199 34.8941 31.324 35.1101 31.2236C35.288 31.1405 35.4639 31.0471 35.6359 30.9732C35.8082 30.8992 35.9758 30.8458 36.1355 30.836C36.3813 30.8207 36.5976 30.9112 36.7392 31.064C36.7794 31.1074 36.8137 31.1558 36.8411 31.2087C36.903 31.328 36.936 31.4691 36.9397 31.6215L36.9396 31.6218Z" fill="#6E9051"/>
</g>
</g>
<defs>
<clipPath id="clip0_7533_68052">
<rect width="51.9861" height="52" fill="white" transform="translate(0.013916)"/>
</clipPath>
<clipPath id="clip1_7533_68052">
<rect width="28.5887" height="15.7576" fill="white" transform="translate(19.1342 34.9669) rotate(-42.8276)"/>
</clipPath>
</defs>
</svg>
