<svg width="410" height="240" viewBox="0 0 410 240" fill="none" xmlns="http://www.w3.org/2000/svg">
<g clip-path="url(#clip0_17630_30125)">
<path d="M372.713 208.456L381.601 206.835L388.155 202.406L385.162 198.9L372.972 196.693L369.705 204.932L372.713 208.456ZM408.573 226.292L401.041 217.485V227.668L405.81 229.525L408.573 226.292ZM362.444 196.429L367.983 202.914L370.621 196.259L365.334 195.298L362.444 196.429ZM386.316 205.976L392.984 204.766L398.616 211.352V205.006H401.048V214.201L409.979 224.652V224.643L409.986 227.95V227.941L406.698 231.779L401.048 229.571H398.616V228.624L397.398 228.149L398.616 226.731V214.654L391.816 206.696L382.872 208.317L376.352 212.723L374.637 211.569L378.163 209.176L371.537 210.377L368.81 207.186L367.245 211.139L361.45 212.188L360.818 210.603L365.249 209.795L367.081 205.172L360.324 197.261L359.106 195.843L357.434 193.885L359.532 193.063L361.212 195.021L364.976 193.548L371.229 194.684L372.912 190.463L376.683 188.994L377.897 190.412L374.996 191.548L373.579 195.113L383.426 196.896L377.89 190.416L379.988 189.599L386.746 197.501L389.096 197.93L388.461 199.515L391.174 202.697L386.288 205.999L386.316 205.976Z" fill="#FFD400"/>
<path d="M389.672 240.014H387.232L371.818 233.996H358.186V232.351H367.6L357.824 228.532L359.614 224.02L361.957 224.445L360.658 227.738L372.468 232.351H376.69V233.996L389.672 239.062V240.014Z" fill="#FFD400"/>
<path d="M392.104 240.009L392.125 240.014H389.671V239.062L394.454 237.196L391.713 233.996H376.69V232.351H390.307L381.377 221.891L369.588 217.291L367.866 216.127L369.18 215.231L378.944 219.036L373.313 212.446L374.634 211.559L376.349 212.714L383.159 220.681L398.616 226.717L397.398 228.139L385.592 223.535L393.123 232.351H398.616V229.566H401.048V233.996H394.522L397.774 237.801L392.104 240.009Z" fill="#FFD400"/>
<path d="M378.792 188.158L386.021 185.341L378.042 183.895L377.126 186.2L378.799 188.163L378.792 188.158ZM398.616 187.613L389.355 185.936L380.01 189.58L377.911 190.398L376.697 188.98L374.517 186.431L375.692 183.466L371.31 182.676L370.806 182.085L372.904 181.263L376.32 181.882L377.236 179.572L374.346 176.192L379.271 174.271L379.715 172.202L382.115 172.437L381.505 175.296L377.666 176.792L379.839 179.342L378.664 182.302L388.993 184.172L393.709 182.33L396.485 175.351L398.829 175.781L396.695 181.17L409.964 175.993H409.972V177.896H409.964L392.324 184.777L401.034 186.357V193.7L409.972 187.664V189.987L401.034 196.023V200.073L409.964 201.69H409.972V203.389H409.964L401.034 205.006H398.602V203.745L405.263 202.54L398.602 201.334V197.667L394.323 200.563L388.475 199.501L389.11 197.917L393.599 198.729L398.602 195.349V187.622L398.616 187.613Z" fill="#FFD400"/>
<path d="M389.515 112.356H392.842L395.349 110.657L389.515 106.708V112.356ZM397.071 95.5685L389.515 100.676V104.366L394.209 107.549L397.057 109.479L400.271 107.313H404.617V104.316L407.983 102.533L404.628 100.746V97.7484H400.281L397.079 95.5731L397.071 95.5685ZM387.076 116.249V114H376.019L383.209 118.864L387.076 116.249ZM387.076 101.258V88.9594L374.953 84.2256L376.171 82.8077L389.508 88.0035V98.3486L397.064 93.2407L400.278 91.0747H404.635V88.1837L409.979 83.7406V86.3456L407.067 88.77V92.719H401.286L398.786 94.3999L401.286 96.0948H407.06V99.9375L409.95 101.48L409.986 101.461V103.59L409.95 103.572L407.049 105.105V108.948H401.279L398.772 110.629L401.276 112.324H407.049V116.277L409.95 118.697L409.986 118.67V120.023H408.413L404.61 116.859V113.968L400.271 113.963L397.071 111.802L393.854 113.991H389.515V116.924L384.935 120.018L388.798 122.627L387.076 123.791L383.209 121.182L381.487 120.018L372.567 113.991H366.549L365.249 117.261L362.905 116.831L364.684 112.347H370.135L365.845 109.442L366.208 108.532L368.551 108.953L373.579 112.347H387.069V105.055L380.418 100.566L379.225 99.1339L380.83 98.5195L387.062 102.732V101.249L387.076 101.258Z" fill="#FFD400"/>
<path d="M359.621 108.541L349.862 112.352L361.137 112.356L362.912 116.841L360.569 117.27L359.273 114L345.647 113.996L330.218 120.027L342.004 124.632L340.788 126.054L327.785 120.979L322.995 122.854L325.031 125.237L322.927 126.059L319.668 122.249L325.352 120.027L321.779 118.624L322.995 117.206L327.785 119.076L340.788 113.996L327.136 113.991V112.347L345.004 112.352L356.784 107.747L359.134 107.318L359.621 108.541Z" fill="#FFD400"/>
<path d="M405.867 10.5022L401.091 12.3681V22.5424L408.619 13.7305L405.874 10.5022H405.867ZM398.655 7.68963H393.144L385.62 16.5061L398.655 11.4167V7.68963ZM376.676 6.04547H391.727L394.476 2.82184L389.707 0.956009L376.668 6.04547H376.676ZM398.655 13.3148L383.188 19.3511L381.075 21.8173L378.976 20.9952L369.226 24.7963L367.916 23.9094L369.624 22.7456L381.405 18.1457L390.336 7.68963H372.471L360.7 12.2896L361.996 15.5871L359.653 16.0074L357.87 11.4952L367.614 7.68963H356.361L354.577 3.18669L356.922 2.75719L358.225 6.04086H371.825L387.253 0.0092392H392.178L397.817 2.21221L394.55 6.04086H401.095V10.4653L406.762 8.25769L410 12.0402V15.4116L401.102 25.8307V35.0212L410 36.633V38.3512L401.102 39.963V44.0133L410 50.0264V52.3588L401.102 46.3365V52.4188H398.669V44.6922L393.67 41.3022L393.048 39.7182L394.394 39.4734L398.676 42.3693V38.6975L405.338 37.4922L398.676 36.2867V28.6802L393.048 35.266L391.237 34.9382L391.873 33.3539L398.676 25.3919V13.3194L398.655 13.3148Z" fill="#FFD400"/>
<path d="M380.152 69.8994L376.182 70.9755L372.343 69.4746L370.163 72.0193L365.778 72.8089L368.537 79.7873L373.267 81.6346L383.589 79.7689L382.421 76.8039L384.594 74.2592L380.755 72.7628H380.748L380.145 69.8994H380.152ZM360.004 73.8805L358.328 75.8432L365.558 78.6651L363.42 73.2663L360.004 73.8805ZM356.567 100.856L363.118 105.281L368.278 103.314L371.569 95.0141L359.369 92.8066L354.174 94.8341L356.56 100.861L356.567 100.856ZM349.473 82.928L355.008 76.4482L352.104 75.3121L346.829 76.2728L349.473 82.928ZM357.114 77.2657L350.355 85.1724L352.186 89.7953L359.031 91.0332L368.928 87.1676L366.446 80.9096L357.114 77.2657ZM386.316 66.6018L389.924 68.0151L392.104 65.4704L396.489 64.676L394.359 59.2679L396.702 58.8476L398.84 64.2464L400.644 68.8095L398.474 71.3542L402.17 72.7952L405.21 78.134L396.833 79.0345L393.137 77.5937L390.957 80.1385L386.568 80.928H386.575L376.175 82.8077L374.96 84.2256L369.439 82.0688L371.775 87.9574L362.366 91.6289L374.556 93.8364L371.257 102.173L379.239 99.1339L380.432 100.566L370.376 104.399L368.565 108.957L366.222 108.537L367.404 105.53L362.714 107.318L357.831 104.025L359.134 107.313L356.791 107.742L354.393 101.702L351.413 99.6881L353.136 98.5241L351.359 94.0306L356.066 92.1924L350.211 91.1347L348.646 87.1815L346.548 86.3592L347.765 84.9322L344.499 76.6839L334.652 78.4666L334.017 76.8824L343.863 75.0951L342.449 71.539L339.545 70.4029L340.761 68.985L344.533 70.4535L346.214 74.6749L352.452 73.5387L356.23 75.0121L358.41 72.458L362.824 71.6636L362.809 71.6312L361.9 69.3222L364.248 68.9019L365.16 71.211L368.58 70.5968L371.47 67.2207L376.395 69.1465L379.818 68.2184L379.736 67.8258L382.133 67.5901L386.103 66.5142H386.11L386.33 66.6018H386.316ZM389.355 78.7251L392.246 75.349L397.309 77.3211L401.869 76.8315L400.214 73.9313L395.15 71.9499L398.041 68.5738L397.132 66.2694L393.716 66.8881L390.818 70.2642L385.908 68.3338L382.485 69.2622L383.003 71.7284L387.914 73.6496H387.921L385.031 77.0302L385.94 79.3347L389.355 78.7205V78.7251Z" fill="#FFD400"/>
<path d="M331.12 85.9805L326.241 82.6832L328.954 79.5056L328.325 77.9216L330.676 77.492L337.433 69.5854L339.531 70.4074L334.003 76.8869L334.632 78.4757L332.281 78.9005L329.281 82.4105L335.821 86.8304L344.751 88.4467L346.535 86.364L348.632 87.186L345.927 90.3682L339.265 89.1581L342.818 91.5595L341.096 92.7235L334.563 88.3037L325.633 86.6873L323.528 85.8651L324.464 84.7752L331.12 85.9805Z" fill="#FFD400"/>
<path d="M400.288 132.728L397.078 130.562L389.529 135.665V139.355L397.078 144.463L400.288 142.297L404.635 142.293V139.3L407.99 137.513L404.635 135.725V132.733H400.288V132.728ZM361.13 127.699H349.862L359.621 131.513L357.838 136.021L362.71 132.728L367.397 134.515L365.845 130.599L370.128 127.703H364.698L362.912 123.196L361.13 127.699ZM392.857 127.703H389.515V133.338L395.349 129.394L392.864 127.699L392.857 127.703ZM387.076 134.986V127.703H373.565L368.551 131.093L370.362 135.642L380.418 139.48L387.069 134.986H387.076ZM345.004 127.699H327.143L336.408 138.543L347.512 142.995L354.4 138.344L356.791 132.303L345.004 127.699ZM332.124 136.834L324.328 127.703H318.82V126.059H322.927L325.025 125.237L325.728 126.059H340.781L341.998 124.632L345.64 126.05H359.251L361.641 120.014L360.555 117.266L362.898 116.836L365.245 117.266L364.159 120.014L366.556 126.054H372.549L381.473 120.023L383.195 121.187L375.99 126.054H387.062V123.796L388.784 122.632L389.494 123.113V126.05H393.84L397.05 128.225H397.057L400.271 126.054H404.617V123.159L408.388 120.023H409.957V121.321L407.049 123.745V127.694H401.276L398.786 129.384L401.276 131.079H407.049V134.922L409.943 136.455H409.957V138.556H409.943L407.049 140.09V143.928H401.276L398.786 145.618L401.276 147.308H407.049V151.262L409.957 153.682V156.291L404.617 151.844V148.953H400.271L397.057 146.782L389.487 141.665V151.086H387.054V137.309L380.816 141.521L371.228 137.864L373.902 144.611L371.559 145.031L368.263 136.732L363.104 134.765L356.56 139.189L354.167 145.221L352.951 146.639L351.338 146.006L353.115 141.512L347.874 145.054L338.868 141.448L343.186 146.495L341.089 147.317L334.598 139.73L330.874 138.238L332.117 136.825L332.124 136.834Z" fill="#FFD400"/>
<path d="M330.409 6.04086H341.471L334.27 1.17769L330.409 3.78707V6.04086ZM324.642 7.685L322.92 6.52117L323.631 6.04086H327.969V3.10818L332.534 0.013855H335.991L344.909 6.04547H350.922L353.306 0.013855H355.829L356.915 2.76179L354.57 3.19132L352.787 7.69424H347.355L351.639 10.59L350.081 14.5064L347.737 14.0861L348.92 11.0888L343.904 7.69887H330.409V14.9867L337.044 19.4758L345.045 16.4276L346.241 17.8593L336.634 21.5217L330.409 17.3144V31.0864L342.469 35.7971L341.253 37.215L327.977 32.0332V21.6649L326.268 20.501L327.969 19.3511V15.661L320.419 10.553L322.141 9.38918L327.983 13.3379V7.68963H324.649L324.642 7.685Z" fill="#FFD400"/>
<path d="M376.182 169.056H376.189L380.145 170.132L380.755 167.274L384.594 165.773L382.421 163.228L383.596 160.263L373.284 158.392L368.558 160.235L365.785 167.209L370.17 168.008L372.343 170.553L375.362 169.38L376.182 169.056ZM360.004 166.17L363.42 166.784L365.558 161.385L358.321 164.207L360.004 166.17ZM357.107 162.784L366.453 159.141L368.935 152.883L359.038 149.017L352.192 150.255L350.361 154.882L357.114 162.784H357.107ZM355.001 163.607L349.459 157.132L346.822 163.787L352.097 164.743L355.001 163.607ZM397.316 162.706L392.253 164.678L389.363 161.302L385.954 160.683L385.038 162.992L387.928 166.373L383.003 168.294L382.477 170.761L385.9 171.689L390.811 169.763H390.818L393.709 173.144L397.121 173.758L398.034 171.453L395.143 168.073L400.207 166.1L401.854 163.191L397.309 162.711L397.316 162.706ZM335.834 153.211L329.288 157.64L332.281 161.15L344.471 163.357L347.738 155.109L344.731 151.59L335.834 153.206V153.211ZM320.925 147.858L325.633 153.363L334.577 151.733L341.096 147.322L343.194 146.5L344.136 147.595L339.278 150.874L345.906 149.668L348.632 152.859L350.197 148.906L356.052 147.849L352.965 146.643L354.181 145.225L359.372 147.248L371.576 145.041L373.92 144.62L374.556 146.209L362.366 148.412L371.775 152.084L369.439 157.972L387.083 151.091H389.515V152.037L376.239 157.219L384.224 158.665L390.978 159.884L393.148 162.434L396.848 160.988L405.21 161.87L402.177 167.228L398.477 168.673L400.651 171.218L399.475 174.183L398.84 175.772L396.496 175.342L392.111 174.548L389.938 172.003L386.099 173.504L382.122 172.428L379.722 172.192L379.804 171.8L376.381 170.871L374.414 171.638L371.463 172.788L368.572 169.412L365.153 168.793L364.24 171.102L367.131 174.478L362.067 176.45L360.413 179.351L364.965 179.845L370.028 177.873L372.919 181.249L370.82 182.071L369.144 180.113L365.433 181.558L359.504 180.916L357.338 184.736L356.585 185.027L355.378 183.609L357.025 180.69L352.479 180.21L349.528 181.36L348.311 179.942L352.008 178.501L357.931 179.124L360.104 175.314L363.8 173.873L361.631 171.329L362.806 168.368L358.41 167.574L356.23 165.02L352.452 166.493L346.214 165.362L344.533 169.578L343.665 169.92L342.449 168.502L343.863 164.937L334.017 163.154L339.552 169.629L337.454 170.451L330.703 162.549L323.856 161.307L324.478 159.723L328.974 160.535L326.261 157.353L331.147 154.051L324.478 155.261L318.841 148.666L320.938 147.844L320.925 147.858Z" fill="#FFD400"/>
<path d="M311.625 130.53L308.878 133.749L316.388 142.547V132.437L311.625 130.53ZM298.533 145.849V155.039L303.391 155.922L302.756 157.506L296.094 156.3V148.694L290.464 155.28L288.653 154.952L289.288 153.368L296.094 145.406V133.333H298.526V142.561L306.056 133.749L303.296 130.52L302.079 129.103L304.191 128.28L307.457 132.109L310.744 128.271L316.381 130.534V126.064H318.813V131.509L332.117 136.838L330.874 138.252L318.813 133.416V145.401L320.911 147.862L318.813 148.685V155.039H316.381V145.84L307.457 135.393L298.526 145.849H298.533Z" fill="#FFD400"/>
<path d="M348.264 95.2404L353.129 98.5289L351.407 99.6926L347.861 97.2958L336.067 101.896L327.136 112.347V113.991H325.735L322.995 117.206L321.779 118.624L319.668 117.801L322.927 113.991H316.388V109.576L310.744 111.779L309.528 110.352L311.625 109.53L316.388 107.673V97.5036H318.82V106.727L334.283 100.69L341.096 92.7235L342.818 91.5595L344.144 92.4557L338.506 99.0461L348.264 95.2404ZM318.82 112.347H324.328L331.851 103.54L318.82 108.629V112.347Z" fill="#FFD400"/>
<path d="M340.323 66.2046L339.401 63.8955L331.42 65.341L338.656 68.163L340.331 66.2L340.323 66.2046ZM323.528 85.8651L325.626 86.6873L318.82 94.6587V97.5036H316.388L309.568 105.48L307.471 104.658L316.394 94.2106V85.0107L307.464 83.3943L303.398 84.1287L302.763 82.5444L303.398 80.9604L307.464 81.6948L316.394 80.0782V76.0234L307.471 69.9918L305.749 68.828L307.471 67.6594L316.394 73.6911V66.3618L325.107 64.7823L307.464 57.8963L306.248 56.4783L307.464 56.0027L320.85 61.2215L318.048 54.1739H318.055L317.139 51.86L319.483 51.4396L320.399 53.7488L323.815 53.1301L326.705 49.754L331.632 51.6798L332.534 53.2038L331.441 53.4995L327.601 52.0031L325.428 54.5478H325.421L321.041 55.3422L323.808 62.3207L328.537 64.1634L334.96 62.9996L338.861 62.2928L337.686 59.3279L339.859 56.7831L341.97 57.6006L340.296 59.5635L341.212 61.868L344.622 61.2539L347.512 57.873L352.575 59.8544L357.114 59.3603L357.1 59.3372H357.125L355.488 56.4599L350.423 54.4878L353.3 51.1072L352.391 48.7979L354.735 48.3776L355.91 51.3426L353.737 53.8873L357.448 55.3283L359.578 59.0785L365.462 58.4595L369.158 59.9053L371.257 60.7273L370.039 62.1543L364.975 60.1731L360.473 60.644V60.6625L360.441 60.6673L362.082 63.5674L367.141 65.5395L364.248 68.9156L361.904 69.3358L361.641 68.6847L363.814 66.14L360.118 64.6945L357.995 60.9351L352.104 61.5723L348.407 60.1268L346.234 62.6715L341.848 63.4659L341.765 63.4844L342.948 66.4542L340.768 69.0034L339.552 70.4214L337.454 69.5991L328.106 65.96L318.841 67.6364V75.349L323.856 78.7436L328.345 77.9307L328.981 79.5149L323.132 80.5772L318.848 77.6768V81.3483L312.185 82.5538L318.848 83.7591V91.375L323.555 85.8699L323.528 85.8651Z" fill="#FFD400"/>
<path d="M360.331 197.256L351.004 200.9L348.571 207.029L358.527 211.01L360.821 210.594L361.45 212.178L366.083 214.025L364.301 218.533L367.866 216.127L369.588 217.291L363.044 221.701L361.957 224.445L359.614 224.02L354.727 227.317L353.122 226.703L354.311 225.271L360.857 220.852L363.257 214.811L358.165 212.774L345.872 215L348.544 221.757L346.2 222.177L342.893 213.841L355.232 211.601L345.742 207.814L348.017 202.078L344.485 203.454L344.458 203.449L342.353 204.271L341.137 202.854L330.832 200.983V200.979L326.439 200.184L324.273 197.64L320.57 199.08L312.185 198.171L314.939 193.377L317.201 193.968L315.547 196.864L320.098 197.362L325.168 195.391L328.045 198.766L331.461 199.385L332.377 197.085L329.5 193.7L334.42 191.783L334.871 189.714L337.269 189.95L336.661 192.809V192.813L332.828 194.305L334.994 196.854L333.812 199.819L344.116 201.685L348.872 199.833L351.639 192.869L347.259 192.074L346.753 191.488L348.851 190.666L352.268 191.285L353.183 188.975L350.307 185.59L355.37 183.623L356.578 185.045L353.621 186.195L355.8 188.744L354.639 191.668L359.046 192.462L359.546 193.053L357.448 193.876L354.031 193.257L351.899 198.651L359.113 195.834L360.331 197.256Z" fill="#FFD400"/>
<path d="M373.008 43.3437L385.198 41.1361L388.194 37.6262L381.657 33.2063L372.738 31.5945L369.741 35.109L373 43.3437H373.008ZM375.049 48.4976L377.947 49.6292L383.482 43.1497L373.643 44.9324L375.056 48.5024L375.049 48.4976ZM368.026 37.1226L362.483 43.5976L365.359 44.7292L370.65 43.7685L368.019 37.1226H368.026ZM337.365 50.1095L341.335 49.0336L342.162 49.3568L345.168 50.5345L347.341 47.985L351.714 47.1954L348.947 40.2124L344.232 38.3742L333.921 40.24L335.09 43.2097L332.917 45.7545L336.764 47.2508L337.365 50.1095ZM354.092 46.7704L357.476 46.1562L359.156 44.1981L351.954 41.3855L354.085 46.7658H354.092V46.7704ZM354.352 14.7558L349.2 16.7186L345.906 25.0271L358.201 27.2531L363.282 25.2256L360.899 19.1848L354.352 14.7604V14.7558ZM351.058 39.1408L360.37 42.7756L367.131 34.8736L365.292 30.2411L358.559 29.0219L348.605 32.9985L351.038 39.1271H351.052L351.058 39.1362V39.1408ZM324.382 42.4199L326.555 39.8752L333.299 38.6514L341.26 37.2105L342.476 35.7926L344.587 36.6146L348.065 37.9679L345.783 32.2226L355.275 28.4263L342.927 26.1955L346.234 17.8501L345.038 16.4184L347.116 15.6286L347.731 14.0769L350.074 14.4971L354.762 12.7098L359.646 16.0027L361.993 15.5825L363.076 18.3304L369.616 22.7456L367.909 23.9094L364.34 21.5032L366.119 26.0061L361.492 27.8536L367.273 28.9019L368.846 32.8646L371.569 29.6778L378.213 30.8831L373.334 27.5903L378.966 20.9998L381.061 21.8219L376.374 27.3177L382.914 31.7375L391.838 33.3542L391.202 34.9382L386.352 34.0607L391.223 37.3535L388.503 40.5357L393.006 39.7228L393.627 41.307L386.781 42.5447L380.031 50.4512L389.363 54.0906L398.63 52.4188H401.063V53.6795L392.342 55.2591L409.965 62.1313V64.034L396.688 58.8522L394.344 59.2724L393.723 57.7021L389.008 55.8594L378.685 57.7299L379.846 60.6858L377.673 63.2305L379.026 63.7616L381.505 64.7314L382.108 67.5901L379.708 67.8258L379.264 65.7522L378.451 65.4334L374.346 63.8307L377.237 60.4501L376.32 58.1411L372.912 58.7598L371.229 60.7134L369.13 59.8914L371.303 57.3467L375.713 56.5523L374.545 53.601L376.715 51.0517L372.944 49.5784L371.271 45.3573L365.004 46.4934L361.247 45.0246L359.067 47.5741L354.701 48.3592L352.357 48.7888L348.933 49.4075L346.043 52.7884L343.091 51.6337L341.123 50.8669L337.707 51.7952L338.226 54.2615L343.153 56.1827L341.943 57.6006L339.832 56.7831L335.985 55.2867L335.377 52.4233L332.507 53.2038L331.605 51.6798L335.021 50.7515L334.502 48.2852L329.576 46.3641L332.452 42.9834L331.537 40.6741L328.127 41.2931L325.236 44.6692L320.173 42.6877L315.629 43.1682L317.276 46.0869L322.339 48.0589L319.449 51.435L317.105 51.8552L316.845 51.2041L319.019 48.6594L315.308 47.2139L312.281 41.8566L320.638 40.9744L324.348 42.4153L324.382 42.4199ZM378.075 56.132L386.057 54.6911L378.834 51.8785L377.162 53.8367L378.067 56.132H378.075Z" fill="#FFD400"/>
<path d="M309.37 222.546L312.725 224.329V227.327H317.071L320.276 229.497L327.833 224.394V220.704L320.296 215.6L317.078 217.771H312.732V220.02L312.725 220.759L309.37 222.546ZM337.01 220.565L330.375 225.05V232.347H343.863L348.885 228.952L347.075 224.403L337.01 220.565ZM341.431 233.996H330.375V236.249L334.236 238.859L341.431 233.996ZM327.942 226.698L322.093 230.652L324.608 232.351H327.942V226.698ZM327.942 233.996H323.603L320.344 231.793L317.078 234H312.732V236.891L309.022 239.986L309.063 240.019H307.409V238.725L310.299 236.314V232.361H316.073L318.574 230.67L316.073 228.98H310.299L310.306 225.133L307.409 223.6L304.505 225.133V228.975H298.731L297.009 227.812L297.72 227.331H302.066V224.334L305.434 222.551L302.079 220.764V217.767H297.734L294.529 215.591L296.251 214.428L298.752 216.118H304.519L304.526 216.122V219.965L307.416 221.507L310.313 219.965V216.122H316.087L318.595 214.432L316.094 212.751H312.759V211.107H317.105L322.039 214.446L327.949 218.45V208.017L341.15 202.863L342.367 204.281L330.389 208.964V222.736L336.613 218.529L346.22 222.186L348.564 221.766L349.179 223.318L354.331 225.281L353.136 226.712L350.061 225.544L351.612 229.451L347.321 232.356H352.767L354.55 236.845L356.326 232.356H358.201V234L355.807 240.023H353.293L350.901 234H344.888L335.971 240.023H332.521L327.956 236.938V234.005L327.942 233.996Z" fill="#FFD400"/>
<path d="M298.533 164.027L307.457 170.063L316.388 164.027V159.976L307.457 158.36L298.533 159.976V164.027ZM324.464 159.736L323.842 161.32L318.827 164.71V172.432H316.394V166.359L307.464 172.395L298.54 166.359V172.432H296.107V164.71L291.106 161.32L290.484 159.736L291.83 159.492L296.114 162.383V158.716L302.776 157.51L303.412 155.926L307.478 156.661L316.408 155.044H318.841V156.305L312.179 157.51L318.841 158.716V162.387L323.125 159.492L324.478 159.736H324.464Z" fill="#FFD400"/>
<path d="M276.285 68.1675L283.514 65.3456L275.527 63.9001L274.611 66.2094L276.292 68.1721L276.285 68.1675ZM307.464 69.9918L298.533 76.028V80.0782L303.391 80.9605L302.756 82.5444L296.094 81.3392V77.6722L291.81 80.5678L285.96 79.5056L286.596 77.9216L291.092 78.7345L296.094 75.3538V67.627L286.828 65.9506L277.494 69.5946L275.383 70.412L274.167 68.9941L271.987 66.4448L273.183 63.4474L269.828 62.8379L270.45 61.2539L273.866 61.868L274.782 59.5635L271.891 56.1827L276.818 54.2615L277.262 52.1879L279.66 52.4233L279.052 55.2868L275.212 56.7831L277.385 59.3279L276.21 62.2928L280.105 62.9996L286.528 64.1634L291.256 62.3207L294.03 55.3422L296.374 55.7718L294.242 61.1615L306.234 56.4829L307.45 57.9008L289.807 64.7869L298.526 66.3663V73.7096L305.735 68.8371L307.457 70.0009L307.464 69.9918Z" fill="#FFD400"/>
<path d="M290.6 112.356H296.1V108.625L283.07 103.54L290.6 112.356ZM298.533 107.673L303.296 109.53L306.056 106.297L298.533 97.4897V107.673ZM298.533 94.2106L307.464 104.662L309.562 105.484L308.865 106.302L311.625 109.535L309.528 110.357L307.464 107.946L304.184 111.784L298.533 109.576V114.005H292.001L295.253 117.806L293.142 118.628L291.926 117.21L289.192 114.01H274.16V112.366H287.785L278.847 101.905L267.06 97.3049L265.339 96.1411L266.664 95.2452L276.422 99.0507L278.519 98.2286L280.631 100.695L296.094 106.731V94.6539L289.288 86.6919L288.653 85.1076L290.463 84.7798L296.094 91.3656V83.7591L302.756 82.5538L303.391 84.1378L298.533 85.02V94.2151V94.2106Z" fill="#FFD400"/>
<path d="M279.572 187.604L283.542 186.528H283.548L283.733 186.606L287.375 188.033L289.548 185.489L293.942 184.694L291.181 177.72L286.466 175.878L276.142 177.748L277.303 180.704L275.13 183.249L277.556 184.195L278.97 184.75L279.572 187.608V187.604ZM280.446 191.751L285.359 193.672H285.366L282.476 197.053L283.385 199.358L286.801 198.743L289.691 195.367L294.754 197.339L299.312 196.85L297.659 193.95L292.595 191.968L295.486 188.592L294.577 186.288L291.161 186.907L288.263 190.282L283.35 188.352L279.927 189.28L280.446 191.747V191.751ZM335.916 184.787L337.98 183.978L339.756 183.286L337.584 180.736L338.759 177.771L328.441 175.901L323.713 177.744L320.945 184.713L325.332 185.512L327.498 188.056L331.345 186.56L335.315 187.641L335.916 184.782H335.923L335.916 184.787ZM328.086 174.109L337.434 170.465L339.531 169.643L342.435 168.511L343.651 169.929L340.747 171.065L342.927 173.615L341.731 176.607L346.118 177.402L348.291 179.951L349.507 181.369L347.396 182.191L344.505 178.815L341.096 178.196L340.18 180.505L343.057 183.886L338.13 185.807L337.604 188.269L341.027 189.197L345.954 187.276L348.831 190.657L346.733 191.479L345.059 189.52L341.212 191.017L337.242 189.941L334.844 189.705L334.926 189.313L331.502 188.384L326.576 190.306L323.685 186.925L320.269 186.306L319.353 188.611L322.244 191.991L317.174 193.963L314.912 193.372L315.219 192.827L318.916 191.386L316.75 188.837L318.56 184.279L320.713 178.866L307.436 184.048L294.133 178.856L296.272 184.255L298.075 188.818L295.902 191.363L299.599 192.804L302.64 198.143L294.263 199.044L290.566 197.603L288.386 200.147L283.999 200.937L273.688 202.803L273.067 201.219L281.027 199.778L279.859 196.813L282.031 194.268L278.191 192.772H278.184L277.583 189.908L273.613 190.984L269.773 189.483L268.092 191.437L265.994 190.615L268.885 187.239L273.812 189.165L277.228 188.237L276.709 185.77L271.796 183.849L274.686 180.468L273.77 178.159L270.354 178.778L268.256 177.956L268.762 177.365L273.169 176.57L271.994 173.619L274.174 171.07L271.276 169.934L272.493 168.516L275.39 169.647L280.925 163.168L280.289 161.584L282.64 161.154L285.639 157.644L279.1 153.225L270.183 151.608L270.819 150.024L275.663 150.901L270.791 147.609L276.422 141.018L278.519 141.84L273.832 147.336L280.371 151.756L289.295 153.372L288.659 154.956L283.808 154.079L288.68 157.377L285.96 160.558L290.464 159.746L291.085 161.33L284.239 162.567L277.488 170.474L286.821 174.113L296.087 172.437H298.52V173.702L289.801 175.282L307.443 182.163L325.093 175.282L316.374 173.702V172.437H318.807L328.072 174.118L328.086 174.109ZM338.65 171.892L331.413 174.709L339.394 176.155L340.317 173.846L338.643 171.887L338.65 171.892ZM275.519 176.145L283.494 174.705L276.285 171.892L274.604 173.85L275.519 176.145Z" fill="#FFD400"/>
<path d="M242.038 190.449L243.712 194.665L249.957 193.534L253.729 195.007L255.909 192.453L260.255 191.668V191.645L259.073 188.684L261.252 186.14L263.35 186.962L261.676 188.915L262.592 191.225L266.008 190.61L268.106 191.432L267.6 192.024L263.255 192.809L266.036 199.815L270.716 201.639L273.067 201.219L273.688 202.803L272.472 204.221L270.361 203.399H270.347L266.931 202.068L269.261 207.952L259.851 211.624L259.23 213.208L256.879 212.788L251.679 214.811L250.463 213.393L253.552 212.188L247.703 211.13L246.138 207.177L244.355 209.259L242.257 208.437L245.249 204.927L241.983 196.679L232.137 198.462L231.515 196.878L241.355 195.09L239.94 191.525L241.157 190.107L242.031 190.449H242.038ZM266.445 207.163L263.965 200.905L263.904 200.877H263.897L254.624 197.256L247.873 205.163L249.705 209.786L256.545 211.024L266.452 207.158L266.445 207.163ZM263.008 198.632L260.883 193.266L257.515 193.876L255.834 195.838L263.002 198.632H263.008ZM246.978 202.918L252.513 196.439L249.609 195.303L244.347 196.259L246.985 202.918H246.978Z" fill="#FFD400"/>
<path d="M256.825 6.04547V7.685L247.423 7.68963L257.187 11.4998L255.397 16.0074L253.053 15.5871L254.351 12.2942L242.564 7.68963L224.703 7.69424V6.0501L238.355 6.04547L225.352 0.969862V0.013855H227.784L243.213 6.04547H256.825Z" fill="#FFD400"/>
<path d="M283.063 136.52L296.1 131.43V127.703H290.586L283.063 136.52ZM274.126 126.059H289.179L291.926 122.835L287.156 120.97L274.119 126.059H274.126ZM260.528 138.349L267.067 142.764L278.847 138.164L287.778 127.708H269.917L258.143 132.308L260.528 138.349ZM251.802 134.769L250.606 133.338L252.212 132.723L257.084 136.016L255.308 131.504L265.052 127.699H253.798L252.014 123.196L254.358 122.766L255.663 126.05H269.261L284.724 120.009L285.94 118.591L287.149 119.062L291.926 117.196L293.142 118.614L289.582 120.009L295.253 122.226L291.987 126.054H298.533V130.479L302.086 129.093L303.303 130.511L298.533 132.377V133.324H296.1L280.631 139.36L278.519 141.826L276.422 141.004L266.671 144.805L261.785 141.508L263.562 146.011L261.97 146.648L260.726 145.235L258.342 139.194L251.796 134.769H251.802Z" fill="#FFD400"/>
<path d="M287.02 232.347H290.354L292.821 230.68L292.787 230.656L287.02 226.754V232.347ZM271.092 232.347H284.58V225.11L284.519 225.068V225.017L277.939 220.565L267.88 224.399L266.07 228.957L271.092 232.351V232.347ZM284.58 233.991H273.524L280.72 238.854L284.58 236.245V233.991ZM247.368 232.347H258.642L260.426 236.831L262.202 232.347H267.655L263.357 229.446L264.915 225.53L260.221 227.317L255.349 224.024L257.132 228.537L247.375 232.347H247.368ZM250.47 213.397L251.686 214.815L254.078 220.842L260.624 225.271L265.783 223.304L269.076 214.996L259.237 213.213L259.859 211.629L272.062 213.832L268.755 222.173L278.348 218.515L284.512 222.685V220.002L284.573 219.965V208.945L272.479 204.225L273.695 202.807L287.006 207.999V218.321L294.509 213.254L297.72 211.088H302.066V208.197L307.43 203.75L312.732 208.202V212.732H310.299V208.784L307.423 206.359L304.512 208.784V212.732H298.731L296.23 214.414L294.509 215.577L287.006 220.644V224.366L294.543 229.46L296.996 227.802L298.718 228.966L296.264 230.624L296.292 230.643L296.244 230.675L298.718 232.347H304.491V236.3L307.396 238.72V240.014H305.817L302.052 236.882V233.991L297.713 233.986L294.536 231.839L291.359 233.986H287.02V236.919L282.441 240.014H279.005L270.087 233.986H264.068L261.683 240.009L259.162 240.014L256.777 233.986H243.165L227.73 240.014H225.304V239.067L238.3 233.991H224.655V232.342H242.51L254.297 227.742L251.905 221.701L245.373 217.286L247.081 216.122L250.641 218.524L248.857 214.03L250.47 213.397Z" fill="#FFD400"/>
<path d="M290.416 7.69424H287.074V13.3241L292.91 9.37534L290.422 7.69424H290.416ZM283.446 51.6752L288.359 49.7492H288.366L291.256 53.1253L294.666 53.7443L295.581 51.435L292.691 48.0589L297.754 46.0868L299.401 43.1682L294.857 42.6877L289.794 44.6692L286.903 41.2931L283.494 40.6741L282.578 42.9834L285.469 46.364L280.542 48.2852L280.016 50.7515L283.439 51.6798L283.446 51.6752ZM284.642 7.69424H271.133L266.131 11.0841L267.935 15.6333L277.993 19.4665L284.642 14.9775V7.69424ZM280.781 1.18231L273.572 6.0501H284.642V3.7917L280.781 1.18231ZM263.33 47.1954L267.717 47.9898L269.889 50.5345L272.841 49.389L273.722 49.0381H273.73L277.686 50.1143L278.294 47.2554L282.134 45.759L279.961 43.2143L281.137 40.2448L270.825 38.3788L266.097 40.2215L263.323 47.1954H263.33ZM302.189 12.7144H297.843L294.638 10.5484L287.081 15.6564V19.3418L294.631 24.4497L297.843 22.2791H302.189V19.2818L305.544 17.4991L302.189 15.7118V12.7144ZM298.841 27.304H304.615V31.2573L307.525 33.6774L310.416 31.2573V27.304H316.183L318.684 25.6228L316.183 23.9325H310.409V20.0854L307.512 18.5429L307.43 18.5844L304.615 20.0808V23.9233H298.841L296.34 25.6137L298.841 27.304ZM298.841 11.0657H304.615V14.9082L307.512 16.4507L310.409 14.9082V11.0703H316.183L318.69 9.37534L316.183 7.685H310.416V3.73165L307.525 1.31162L304.615 3.73165V7.685H298.841L296.34 9.37534L298.841 11.0657ZM257.563 46.1608L260.972 46.7752V46.7658H260.986L263.118 41.3761L255.888 44.1981L257.563 46.1608ZM249.561 58.5013L255.465 59.1339L257.638 55.3191L261.334 53.8782L259.162 51.3335L260.337 48.3731L255.957 47.5832L253.777 45.0294L249.999 46.5025L243.76 45.3664L242.079 49.5877L238.314 51.0563L237.098 49.6386L239.995 48.5024L241.41 44.9461L231.57 43.1589L232.192 41.5749L242.038 43.3576L244.382 43.7778L249.657 44.7383L252.561 43.6021L247.026 37.1226L249.124 36.3006L254.665 42.7801L263.999 39.1362L266.487 32.8782L268.83 33.3078L266.978 37.9725L284.621 31.0864V17.3097L278.39 21.5217L268.796 17.8686L271.468 24.6115L269.124 25.0408L265.83 16.7417L260.672 14.7742L261.867 13.3425L264.949 14.5156L263.398 10.5992L267.682 7.70348H262.25L260.466 3.19593L258.683 7.68963H256.818V6.0501L259.202 0.0184708H261.731L264.122 6.0547H270.115L279.039 0.0184708H282.489L287.068 3.11279V6.05934H291.413L294.618 8.22535L297.829 6.0547H302.175V3.1636L305.947 0.0230892H309.097L312.842 3.1636V6.0547H317.187L320.399 8.22535L322.906 6.53041L324.628 7.69424L322.121 9.38918L320.399 10.5576L317.18 12.7283H312.834V15.721L309.473 17.5083L312.834 19.291V22.2838H317.18L320.399 24.4545L326.248 20.5057L327.956 21.6695L322.114 25.6183L317.18 28.9574H312.834V31.8484L307.519 36.3006L302.161 31.8484V28.9574H297.816L294.604 26.7866L287.054 21.6787V32.0471L273.784 37.2241L281.751 38.6651L288.502 39.8891L290.675 42.4338L294.372 40.9929L302.736 41.8749L299.702 47.2324L296.005 48.6779L298.178 51.2226L297.003 54.1875L296.367 55.7763L294.024 55.3467L289.637 54.5523L287.464 52.0076L283.624 53.504H283.617L279.647 52.4281L277.248 52.1924L277.33 51.7998L273.907 50.8717L271.987 51.6244L268.987 52.7975L266.097 49.4168L262.68 48.7979L261.765 51.1072L264.655 54.4878L259.592 56.4599L257.938 59.3603L262.489 59.8544L267.553 57.873L270.443 61.2539L269.821 62.8379L268.851 62.6624L266.678 60.1177L262.967 61.5632L257.057 60.9212L254.891 64.7499L251.181 66.1909L249.069 67.0083L247.86 65.5904L252.923 63.6183L254.57 60.7088L250.026 60.2286L244.963 62.2004L242.086 58.8152L244.184 57.9932L245.858 59.9514L249.554 58.5104L249.561 58.5013Z" fill="#FFD400"/>
<path d="M233.476 64.773L235.964 63.8031L237.31 63.2766L235.137 60.7319L236.312 57.7669L225.994 55.8963L221.266 57.7391L218.498 64.7084L222.885 65.5074L225.058 68.0521L228.645 66.6526L228.891 66.5602H228.898L232.868 67.6364L233.469 64.773H233.476ZM236.209 51.8785L228.973 54.7002L236.954 56.1457L237.877 53.8367L236.203 51.8737L236.209 51.8785ZM214.344 68.8326L216.155 64.2743L218.307 58.8567L217.091 57.4391L222.68 55.2591L213.961 53.6795V52.4188H216.394L225.659 54.0952L235.007 50.456L228.256 42.5493L221.409 41.3116L222.031 39.7273L226.527 40.5402L223.814 37.3581L228.7 34.0559L230.422 35.2199L226.862 37.6262L229.855 41.1407L232.205 41.5701L231.584 43.1543L237.118 49.6338L238.334 51.0517L240.508 53.6058L239.312 56.5938L243.698 57.3927L244.204 57.9793L242.106 58.8013L238.69 58.1826L237.774 60.4964L240.651 63.8725L236.544 65.475L235.724 65.7937L235.198 68.2599L238.621 69.1882L243.548 67.2668L246.439 70.6477L245.803 72.2317L244.833 72.0562L242.66 69.5115L238.813 71.0079L234.843 69.9318L232.444 69.6961L232.526 69.3037L229.103 68.3708L229.028 68.403L224.177 70.2966L221.286 66.9159L217.87 66.297L216.954 68.6017L219.845 71.9823L214.774 73.9544L212.513 73.3633L212.82 72.8182L216.517 71.3773L214.351 68.828L214.344 68.8326Z" fill="#FFD400"/>
<path d="M245.072 22.9858L251.959 18.3396L253.053 15.5871L255.397 16.0074L260.268 12.7191L261.881 13.3333L260.685 14.765L254.139 19.1894L253.046 21.942L250.702 21.5125L245.448 25.0547L236.449 21.4478L234.344 22.2699L232.178 19.7298L228.447 18.238L229.691 16.8248L221.895 7.69424H216.387V6.0501H220.494L217.234 2.23992L222.926 0.013855H225.352V0.969861L220.555 2.83569L223.295 6.0501H224.703V7.69424L233.961 18.5336L245.072 22.9858Z" fill="#FFD400"/>
<path d="M250.702 21.5125L253.046 21.942L251.748 25.2117L256.941 27.244L269.138 25.0317L271.481 24.6021L272.117 26.1955L259.92 28.4032L269.336 32.0793L268.844 33.2987L266.5 32.8737L256.599 29.008L249.753 30.2459L247.914 34.8736L249.131 36.2961L247.033 37.1181L244.389 43.773L242.045 43.3482L245.304 35.1045L242.298 31.5851L233.394 33.2015L230.408 35.2199L228.693 34.0559L222.024 35.2706L221.088 34.1762L223.193 33.3539L232.137 31.7284L238.663 27.3177L234.344 22.2699L236.449 21.4478L241.703 27.5858L236.845 30.8695L243.473 29.6639L246.199 32.8552L247.764 28.9019L253.62 27.8443L248.912 26.0061L250.702 21.5125Z" fill="#FFD400"/>
<path d="M213.955 22.5378V12.4281L209.192 10.5207L206.445 13.7397L213.955 22.5378ZM216.387 28.671V36.2867L209.725 37.4922L209.09 35.908L213.948 35.026V25.8261L205.024 15.3746L198.191 23.3691L196.093 22.547L203.623 13.7305L202.926 12.9084L205.024 12.091L208.31 8.25307L213.948 10.5115V6.05009H216.38V11.4906L229.684 16.8248L228.44 18.238L216.38 13.4026V25.3826L223.186 33.3539L221.088 34.1762L216.38 28.671H216.387Z" fill="#FFD400"/>
<path d="M213.893 227.668V217.499L206.37 226.292L209.137 229.52L213.893 227.668ZM223.145 206.678L216.332 214.644V226.717L231.802 220.681L238.608 212.714L232.069 208.294L223.145 206.678ZM216.325 232.337H221.833L229.363 223.53L216.325 228.615V232.337ZM196.038 217.485V227.659L200.801 229.516L203.568 226.288L196.038 217.48V217.485ZM186.807 206.678L188.905 205.856L193.599 211.352V205.006H196.032V214.196L204.962 224.648L213.886 214.21V205.01H216.319V211.365L221.956 204.77L228.618 205.976L225.065 203.569L226.787 202.406L233.326 206.826L242.257 208.442L244.354 209.264L243.418 210.354L236.756 209.148L241.628 212.441L235.998 219.036L245.748 215.231L247.06 216.118L245.352 217.282L233.565 221.886L224.634 232.337V233.982H223.233L220.494 237.187L225.29 239.062V240.009H222.858L217.173 237.787L220.425 233.977H213.886V229.557L208.242 231.76L204.962 227.927L201.682 231.76L196.032 229.557H193.599V228.611L180.568 223.526L178.471 224.348L176.359 221.881L164.566 217.277L162.857 216.113L164.169 215.226L173.927 219.032L176.024 218.21L178.136 220.676L193.599 226.708V214.635L186.8 206.673L186.807 206.678Z" fill="#FFD400"/>
<path d="M270.19 88.4652L279.087 86.8443L285.639 82.4153L282.64 78.9053L270.45 76.7024L267.183 84.9416L270.19 88.4652ZM251.802 105.281L258.348 100.861L260.733 94.8202L255.649 92.7881L243.357 95.0141L246.65 103.323L251.802 105.286V105.281ZM256.599 75.8432L254.925 73.885L251.556 73.2754V73.2848L249.424 78.6375L256.592 75.8432H256.599ZM265.079 112.356L255.301 108.541L257.084 104.029L252.212 107.322L247.525 105.54L245.181 105.96L244.566 104.408L234.494 100.57L235.69 99.1385L243.692 102.182L240.384 93.8412L252.732 91.6059L243.241 87.8187L245.502 82.0966L242.052 83.4452L242.011 83.4358L239.899 84.258L238.683 82.8401L228.399 80.9696L224.013 80.1754L221.846 77.6259L218.136 79.0714L209.766 78.1618L212.506 73.3678L214.768 73.9589L213.114 76.8548L217.671 77.3489L222.735 75.3814L225.611 78.7575L229.028 79.3765L229.943 77.0717L227.067 73.6911L231.993 71.7699L232.438 69.7009L234.836 69.9363L234.228 72.7952L230.388 74.2916L232.554 76.8409L232.492 76.9978L231.378 79.8013L241.655 81.667L246.397 79.8197L249.158 72.8506L245.789 72.2362L246.425 70.6522L249.793 71.2618V71.2525H249.841L250.75 68.9665L249.076 67.0038L251.187 66.1861L253.36 68.7356L252.192 71.6866L256.531 72.4719L258.704 75.0166L262.469 73.5478L268.728 74.684L270.402 70.4629L274.174 68.9941L275.39 70.412L272.493 71.5482L271.078 75.1136L280.918 76.8963L275.383 70.4166L277.494 69.5991L284.245 77.5013L286.596 77.9307L285.96 79.5149L288.68 82.6969L283.788 85.999L288.653 85.117L289.288 86.701L280.344 88.3313L273.832 92.7375L278.526 98.2378L276.428 99.06L270.791 92.4694L275.643 89.1857L269.015 90.3912L266.288 87.2L264.723 91.1532L258.943 92.2015L263.569 94.0491L261.785 98.5565L265.352 96.1503L267.074 97.3143L260.535 101.729L258.143 107.766L269.957 112.375H274.174V114.019L285.954 118.614L284.737 120.032L269.308 114.019H255.67V112.375H265.086L265.079 112.356ZM257.815 77.2611L248.536 80.8865L248.522 80.9189L248.475 80.942L246.056 87.0382L256.012 91.0147L262.742 89.7955L264.573 85.1724L257.815 77.2611ZM265.461 82.928L268.099 76.2728L262.81 75.3121L259.92 76.4437L265.461 82.928Z" fill="#FFD400"/>
<path d="M228.932 185.341L236.155 188.153L237.829 186.195L236.913 183.891L228.939 185.336L228.932 185.341ZM216.325 187.608V195.33L221.341 198.725L228.188 197.483L234.938 189.58L225.591 185.936L216.325 187.613V187.608ZM255.431 180.93L249.541 181.572L245.844 180.127L243.671 182.671L239.284 183.466H239.271L240.446 186.426L238.273 188.975L241.17 190.111L239.954 191.529L237.057 190.398L231.522 196.878L232.144 198.462L229.793 198.891L226.8 202.401L225.078 203.565L223.753 202.669L226.465 199.496L220.623 200.554L216.332 197.653V201.325L209.67 202.53L209.035 200.946L213.893 200.064V196.005L212.171 194.841L213.893 193.677V186.343L222.612 184.764L217.05 182.593L218.266 181.175L215.492 174.183L214.323 171.218L216.496 168.668L213.544 167.518L214.754 166.1L219.817 168.073L216.927 171.449L217.842 173.758L221.259 173.139L223.357 173.961L222.851 174.552L218.471 175.346L221.238 182.325L225.953 184.163L236.285 182.288L238.635 181.872L242.052 181.258L244.942 177.878L250.005 179.85L254.529 179.36V179.337L254.542 179.332L252.902 176.46L255.164 175.868L256.995 179.074L262.879 178.455L266.569 179.9L268.249 177.947L270.347 178.769L267.457 182.145L262.393 180.163L257.891 180.635V180.653L257.856 180.658L259.496 183.558L264.559 185.53L263.337 186.957L261.239 186.135L257.528 184.69L255.41 180.921L255.431 180.93Z" fill="#FFD400"/>
<path d="M265.461 157.136L259.92 163.611L262.81 164.743L268.099 163.782L265.461 157.136ZM249.165 167.214L246.397 160.231L241.676 158.392L231.372 160.258L232.54 163.228L230.367 165.773L234.214 167.269L234.816 170.128L238.785 169.052L242.626 170.548L244.798 168.003L249.172 167.214H249.165ZM227.853 137.323V151.095L242.024 156.628L245.502 157.981L243.22 152.236L252.704 148.44L240.364 146.209L243.671 137.864L234.064 141.526L227.839 137.319L227.853 137.323ZM227.853 134.991L234.487 139.48L244.559 135.642L246.363 131.093L241.348 127.703H227.853V134.991ZM248.509 159.154L257.822 162.789L264.58 154.887L262.742 150.255L256.012 149.036L246.056 153.012L248.488 159.14H248.502L248.509 159.15V159.154ZM256.606 164.216L249.404 161.404L251.536 166.784H251.543L254.925 166.174L256.606 164.216ZM250.606 133.342L251.802 134.774L246.65 136.737L243.357 145.045L255.649 147.271L260.733 145.244L261.977 146.657L258.943 147.867L264.723 148.916L266.295 152.878L269.015 149.691L270.825 150.019L270.19 151.603L267.19 155.123L270.45 163.357L280.289 161.575L280.924 163.159L271.085 164.941L272.499 168.511L271.283 169.929L270.409 169.587L268.734 165.366L262.475 166.502L258.71 165.034L256.537 167.583L252.171 168.368L253.347 171.338L251.174 173.882L254.87 175.323L255.178 175.868L252.916 176.46L247.846 174.488L250.736 171.107L249.821 168.798L246.404 169.417L243.514 172.797L240.207 171.504L238.594 170.871L235.178 171.8L235.697 174.266L240.624 176.187L237.747 179.568L238.656 181.872L236.305 182.288L235.137 179.332L237.303 176.787L233.463 175.291L232.854 172.428L228.885 173.504L225.038 172.007L223.363 173.961L221.266 173.139L224.142 169.763H224.149L229.076 171.684L232.492 170.765L231.973 168.299L227.04 166.378L229.93 162.997L229.014 160.688L225.605 161.307L222.714 164.683L217.651 162.701L213.107 163.182L214.754 166.1L213.544 167.518L212.793 167.228L209.766 161.87L218.122 160.988L221.833 162.429L224.006 159.884L230.75 158.66L238.71 157.224L225.434 152.037V141.669L223.712 140.506L225.413 139.355V135.665L218.553 131.014L220.275 129.851L225.434 133.338V127.689H222.099L220.378 126.526L221.088 126.045H225.427V123.113L230.005 120.018L231.727 121.182L227.866 123.791V126.045H238.929L240.651 124.891L242.373 126.054H248.386V127.699H244.805L249.097 130.594L247.539 134.511L250.62 133.338L250.606 133.342Z" fill="#FFD400"/>
<path d="M238.915 114H227.86V116.249L231.72 118.864L238.915 114ZM225.42 106.703L219.571 110.657L222.086 112.356H225.42V106.703ZM244.785 112.356H250.231L252.014 116.845L253.798 112.356H255.663V114L253.278 120.027L254.365 122.775L252.021 123.205L250.238 127.708H248.372V126.064L250.757 120.032L248.365 114.005H242.352L233.435 120.032L240.637 124.9L238.915 126.064L231.713 121.196L229.991 120.032L225.413 116.938V114.005H221.074L217.849 111.825L214.631 113.996H210.285V116.878L206.855 119.746L204.962 118.716L207.853 116.296V112.347H213.626L216.127 110.657L213.626 108.962H207.853V105.119L205.434 103.826L206.937 102.538L210.292 104.32V107.318H214.638L217.849 109.488L225.4 104.385V100.695L223.698 99.5403L225.42 98.3765V88.008L238.676 82.8356L239.893 84.2532L227.853 88.9594V102.732L234.078 98.5241L235.683 99.1385L234.488 100.57L227.853 105.055V112.352H241.341L246.363 108.957L245.181 105.96L247.525 105.54L249.083 109.447L244.785 112.352V112.356Z" fill="#FFD400"/>
<path d="M181.02 185.336L173.039 183.895L172.123 186.2L173.797 188.158L181.026 185.341L181.02 185.336ZM193.831 175.776L191.699 181.166L204.969 175.984L218.266 181.175L217.05 182.593L204.969 177.882L187.327 184.764L196.038 186.343V193.686L204.976 187.65L213.893 193.681L212.171 194.845L204.976 189.978L196.038 196.019V200.064L204.969 201.681L209.035 200.946L209.67 202.53L216.333 203.736V205.001H213.9L204.976 203.385L196.045 205.001H193.613V203.736L200.275 202.53L193.613 201.325V197.663L189.335 200.554L183.48 199.496L181.382 200.318L180.166 198.891L177.815 198.462L178.45 196.878L172.909 190.398L170.012 191.529L168.795 190.111L171.693 188.975L169.519 186.426L170.695 183.466L166.315 182.671L165.809 182.085L167.907 181.263L171.324 181.877L172.239 179.572L169.349 176.192L174.275 174.271L174.713 172.202L177.125 172.432L176.517 175.296L172.677 176.792L174.849 179.337L173.674 182.297L183.999 184.168L188.72 182.33L191.494 175.351L193.838 175.781L193.831 175.776ZM188.604 198.725L193.606 195.335V187.608L184.34 185.932L175.007 189.576L181.757 197.478L188.604 198.72V198.725Z" fill="#FFD400"/>
<path d="M188.912 205.856L186.807 206.678L177.862 208.308L171.337 212.714L176.038 218.214L173.934 219.036L168.297 212.442L173.148 209.162L166.527 210.368L163.807 207.177L162.236 211.13L156.448 212.178L155.211 213.592L153.155 212.769L140.862 214.996L140.24 213.411L150.223 211.601L142.324 208.446L143.568 207.029L153.517 211.005L160.254 209.786L162.085 205.158L160.869 203.74L162.967 202.918L165.611 196.263L167.955 196.684L164.696 204.932L167.709 208.451L176.598 206.835L183.151 202.401L181.375 200.318L183.472 199.496L186.192 202.669L181.306 205.976L187.976 204.766L188.912 205.856Z" fill="#FFD400"/>
<path d="M189.383 39.478L193.667 42.3693V38.7021L200.322 37.4968L200.958 39.0808L196.1 39.963V44.0133L205.024 50.0495L212.233 45.1818L213.954 46.3456L205.024 52.3818L196.1 46.3456V53.6795L187.374 55.2591L205.024 62.1452L217.084 57.4436L218.3 58.8615L205.024 64.0434L191.72 58.8567L189.369 59.277L188.748 57.7115L184.033 55.8687L173.708 57.7391L174.87 60.6949L172.697 63.2351L174.59 63.9786L176.53 64.7314V64.7406L176.694 65.5304L174.296 65.7567L172.813 65.1841L169.369 63.8355L172.26 60.4547L171.337 58.1502L167.928 58.7643L165.823 57.9423L166.329 57.3558L170.729 56.5523L173.086 56.1366L181.067 54.6956L173.845 51.8785L175.061 50.456L184.402 54.0952L193.667 52.4188V44.7013L188.659 41.3116L188.037 39.7273L189.383 39.478Z" fill="#FFD400"/>
<path d="M167.353 69.4698L165.174 72.0147L160.787 72.8089L163.548 79.7873L168.276 81.6346L178.601 79.7689L177.432 76.8039L179.605 74.2592L175.765 72.7628L175.758 72.7582L175.157 69.8994L171.187 70.971L167.347 69.4698H167.353ZM196.298 92.7235L193.797 94.4139L196.298 96.1042H202.065L202.072 96.1087V99.9514L204.962 101.494L207.86 99.9514V96.1087H213.633L216.141 94.4184L213.64 92.7375H207.873V88.7794L204.996 86.3592L202.086 88.7794V92.7327L196.305 92.7281L196.298 92.7235ZM195.219 73.9405L190.155 71.9593L193.045 68.5832L192.137 66.2785L188.72 66.8929L185.823 70.269L180.91 68.343L177.487 69.2713L177.521 69.4422L178.006 71.7375L182.919 73.6587H182.926L180.036 77.0393L180.944 79.3441L184.361 78.7297L187.251 75.349L192.314 77.3305L196.872 76.8409L195.219 73.9405ZM184.498 112.352H187.832L190.34 110.652L184.498 106.708V112.352ZM192.082 95.5731L184.525 100.681V104.371L189.219 107.553L192.068 109.484L195.28 107.313H199.626V104.32L202.995 102.533L199.639 100.75V97.753H195.293L192.089 95.5776L192.082 95.5731ZM188.146 77.5983L185.967 80.143L181.58 80.9374L171.187 82.8125L184.498 88.008V98.3717L192.082 93.2501L195.293 91.0793H199.653V88.1974L205.01 83.7454L210.312 88.2022V91.0839H214.658L219.592 94.4278L225.427 98.3765L223.705 99.5402L217.87 95.5915L214.652 97.7621H210.306L210.299 100.011V100.75L206.944 102.538L205.441 103.826L204.969 103.581L202.065 105.124V108.966H196.291L193.79 110.647L196.291 112.338H202.065L202.058 116.291L204.969 118.716L206.862 119.746L206.541 120.018L206.882 120.305L204.99 121.334L202.079 123.755V127.708H196.305L194.583 126.544L195.293 126.064H199.639V123.173L203.411 120.032L199.626 116.878V113.987L195.287 113.982L192.075 111.811L188.857 114H184.511V116.933L183.801 117.413L182.079 116.249V105.064L175.437 100.57L174.241 99.1385L175.847 98.5241L182.079 102.736V88.9594L164.443 82.0781L166.78 87.9665L157.371 91.6335L156.154 90.2158L163.944 87.1721L161.463 80.9096L159.352 80.0876L160.569 78.6697L158.429 73.2615L155.013 73.8759L154.391 72.2917L157.842 71.6682V71.6451L156.66 68.6847L158.84 66.1354L160.056 64.7175L162.167 65.5395L159.27 68.9156L160.186 71.2249L163.602 70.6107L166.493 67.2298L171.419 69.1604L174.842 68.2321L174.323 65.7658L176.722 65.535L177.159 67.604L181.129 66.5278H181.136L181.751 66.7726L184.962 68.029L187.135 65.4841L191.529 64.6899L189.397 59.2818L191.741 58.8615L193.879 64.2603L195.683 68.8186L193.51 71.3682L197.207 72.8089L200.248 78.1479L191.87 79.0484L188.174 77.6029L188.146 77.5983Z" fill="#FFD400"/>
<path d="M189.52 233.991L192.765 237.796L187.101 240.014H187.114L182.215 240.019H182.229L166.807 233.991H153.161L150.818 233.571L151.296 232.347H162.591L154.432 229.16L155.648 227.742L167.463 232.347H185.303L178.484 224.357L180.582 223.535L188.119 232.347H193.612V229.566H196.045V233.991H189.527H189.52ZM189.444 237.191L186.704 233.991H171.679L184.668 239.062L189.444 237.191Z" fill="#FFD400"/>
<path d="M193.667 7.69424H188.153L180.63 16.5061L193.667 11.4213V7.69424ZM182.277 0.0138552H187.176L192.82 2.21683L189.554 6.0501H196.1V10.4745L201.764 8.25768L205.03 12.091L202.933 12.9084L200.883 10.5068L196.107 12.3727V22.547L198.204 23.3691L196.107 25.8307V35.026L205.037 36.6424L209.103 35.908L209.739 37.4922L216.401 38.6975V42.3693L220.685 39.4734L222.038 39.7182L221.416 41.3022L216.401 44.6922V52.4142H213.968V46.341L212.246 45.177L213.968 44.0133V39.9537L205.037 38.3373L200.972 39.0717L200.336 37.4874L193.674 36.2822V28.6756L188.044 35.2614L181.382 34.0559L179.659 35.2199L176.674 33.2063L167.757 31.5899L165.659 30.7677L166.595 29.6779L173.237 30.8831L168.365 27.5903L173.995 20.9952L164.244 24.8008L162.919 23.9048L164.641 22.741L176.421 18.1457L185.351 7.68963H167.49L155.717 12.2896L157.015 15.5825L154.672 16.0027L152.888 11.4906L162.632 7.685H151.378L149.595 3.18208L151.938 2.75255L153.243 6.03625H166.841L182.284 0L182.277 0.0138552ZM171.685 6.0501H186.739L189.485 2.82184L184.716 0.956007L171.679 6.0501H171.685ZM186.855 33.3539L193.66 25.3919V13.3194L178.19 19.3557L171.392 27.3177L177.931 31.7375L186.855 33.3539Z" fill="#FFD400"/>
<path d="M149.308 225.271L155.854 220.847L158.245 214.806L155.211 213.592L156.448 212.178L161.067 214.026L159.291 218.529L162.864 216.122L164.572 217.282L158.033 221.701L155.648 227.738L154.432 229.16L152.82 228.527L154.596 224.02L149.724 227.317L148.119 226.703L149.308 225.271Z" fill="#FFD400"/>
<path d="M167.34 170.553L169.403 169.744L171.18 169.047H171.187L175.143 170.123L175.751 167.264L179.591 165.768L177.419 163.223L178.594 160.254L168.276 158.388L163.554 160.231L160.78 167.204L165.167 167.999L167.34 170.548V170.553ZM154.993 166.17L158.409 166.784L160.548 161.385L153.312 164.207L154.993 166.17ZM158.115 134.769L151.569 139.194L149.178 145.221L154.371 147.248L166.574 145.041L163.281 136.732L158.122 134.769H158.115ZM152.096 162.784L161.443 159.14L163.923 152.878L154.029 149.017L147.183 150.255L145.351 154.878L152.102 162.784H152.096ZM149.998 163.607L144.456 157.127L141.819 163.782L147.094 164.738L149.998 163.607ZM184.498 151.091V152.037L171.228 157.219L179.216 158.665L185.967 159.889L188.139 162.434L191.836 160.993L200.2 161.875L197.166 167.232L193.469 168.673L195.642 171.222L194.467 174.187L193.831 175.776L191.488 175.346L187.101 174.552L184.928 172.007L181.088 173.504H181.081L177.111 172.428L174.699 172.197L174.781 171.795L171.364 170.867L169.397 171.633L166.445 172.788L163.554 169.407L160.138 168.788L159.222 171.098L162.113 174.478L157.049 176.45L155.396 179.351L159.946 179.84L165.01 177.868L167.9 181.249L165.802 182.071L164.121 180.113L160.425 181.558L154.494 180.916L152.635 184.191L150.367 183.604L152.013 180.695L147.47 180.214L142.406 182.186L139.516 178.806L140.151 177.222L141.122 177.397L143.294 179.942L146.991 178.501L152.915 179.134L155.088 175.323L158.785 173.882L156.612 171.338L157.788 168.373L153.394 167.583L151.214 165.029L147.435 166.498L141.19 165.366L138.846 164.946L139.468 163.357L142.734 155.109L139.728 151.585L139.092 150.001L140.903 149.673L143.629 152.864L145.194 148.911L151.043 147.853L146.335 146.015L148.119 141.521L144.21 144.159L142.502 142.995L149.389 138.339L151.781 132.303L154.125 132.723L152.827 136.012L157.698 132.723L162.386 134.511L160.835 130.594L161.833 129.925L163.541 131.079L165.351 135.638L175.41 139.471L174.214 140.902L166.233 137.864L169.533 146.2L157.343 148.407L166.752 152.079L164.415 157.968L182.051 151.082H184.484L184.498 151.091ZM192.308 162.701L187.244 164.683L184.354 161.307L180.944 160.688L180.029 162.997L182.919 166.378L177.992 168.299L177.466 170.765L180.89 171.684L185.802 169.763H185.81L188.7 173.139L192.109 173.758L193.025 171.449L190.135 168.073L195.198 166.1L196.845 163.182L192.301 162.701H192.308Z" fill="#FFD400"/>
<path d="M112.068 227.327L115.279 229.497L122.837 224.394V220.704L115.293 215.6L112.082 217.771H107.736L107.729 220.016V220.759L104.374 222.546L107.729 224.329V227.327H112.068ZM133.646 171.883L126.41 174.705L134.391 176.15L135.314 173.836L133.64 171.878L133.646 171.883ZM125.358 236.245L129.219 238.854L136.414 233.991H125.358V236.245ZM119.605 232.347H122.932V226.698L117.09 230.647L119.605 232.347ZM129.417 191.783L129.943 189.317L126.52 188.389L121.593 190.315L118.703 186.934L115.286 186.315L114.37 188.62L117.261 192.001L112.191 193.968L110.537 196.868L115.088 197.362L120.151 195.391L123.042 198.771L126.458 199.39L127.374 197.085L124.483 193.705H124.49L129.417 191.783ZM132.266 189.945L131.658 192.809L127.811 194.305L129.984 196.85L128.808 199.815L139.113 201.685L143.869 199.829L146.636 192.869L142.249 192.074L140.083 189.53L136.236 191.026L132.266 189.945ZM132.97 183.974L134.746 183.281L132.574 180.736L133.749 177.771L123.431 175.901L118.703 177.744L115.929 184.713L120.322 185.507L122.488 188.056L126.335 186.56L130.291 187.636L130.9 184.777L132.97 183.969V183.974ZM152.437 193.876L149.02 193.257L146.882 198.646L154.111 195.829L152.437 193.876ZM138.853 232.347L143.875 228.952L142.071 224.403L132.006 220.565L125.365 225.054V232.347H138.853ZM140.862 214.996L144.155 223.309L149.308 225.271L148.112 226.703L145.037 225.53L146.588 229.446L142.297 232.347H147.743L149.526 236.841L150.825 233.566L153.168 233.986L150.783 240.014H148.269L145.877 233.986H139.864L130.947 240.014H127.497L122.919 236.919V233.986H118.58L115.327 231.788L112.061 233.996H107.715V236.878L104.005 239.976L104.046 240.009H102.385V238.715L105.283 236.296V232.342H111.056L113.557 230.661L111.056 228.966H105.283V225.124L102.392 223.581L99.4882 225.124V228.961H93.7145L91.9924 227.798L92.7033 227.317H97.0487V224.325L100.417 222.537L101.921 221.249L102.392 221.494L105.29 219.951V216.108H111.063L113.564 214.418L111.077 212.728V211.088H112.088L117.022 214.428L122.925 218.422V207.989L136.133 202.835L125.823 200.965L121.436 200.166L119.263 197.621L115.566 199.062L107.189 198.152L110.237 192.818L113.947 191.377L111.774 188.832L113.585 184.274H113.591L115.744 178.856L102.467 184.038L101.251 183.563L102.467 182.145L120.11 175.259L111.398 173.679V172.418H113.831L123.096 174.095L132.444 170.451L134.542 169.629L137.445 168.497L138.86 164.941L141.204 165.362L139.529 169.583L135.758 171.051L137.938 173.601L136.742 176.594L140.158 177.217L139.523 178.801L136.106 178.182L135.191 180.491L138.081 183.872L133.154 185.793L132.628 188.26L136.051 189.188L140.978 187.267L143.855 190.643L147.271 191.262L148.187 188.957L145.297 185.576L150.367 183.604L152.635 184.191L152.328 184.74L148.617 186.181L150.79 188.726L149.629 191.649L154.036 192.449L156.209 194.993L159.974 193.525L166.233 194.661L167.914 190.44L168.782 190.098L169.998 191.515L168.583 195.081L178.43 196.868L177.794 198.452L167.948 196.67L165.604 196.249L160.316 195.289L157.418 196.42L162.96 202.904L160.862 203.727L155.321 197.242L145.993 200.882L143.561 207.015L142.318 208.428L140.725 207.791L142.994 202.055L139.455 203.436H139.441L125.351 208.932V222.704L131.583 218.496L141.176 222.154L137.876 213.813L140.226 213.393L140.848 214.977L140.862 214.996Z" fill="#FFD400"/>
<path d="M60.3421 96.1272L62.0639 97.291L55.5247 101.711L53.1332 107.742L50.7896 107.318L52.0878 104.029L47.2022 107.322L42.5215 105.535L43.7175 104.108L46.7854 105.272L53.3452 100.856L55.7299 94.8111L52.6961 93.5964L53.9261 92.1879L58.5589 94.0351L56.7753 98.5335L60.3421 96.1272Z" fill="#FFD400"/>
<path d="M83.383 49.754L86.2734 53.1301L89.6829 53.7488L90.5987 51.4396L87.7083 48.0589L92.7714 46.0869L94.4183 43.1773L89.8743 42.6971L84.8112 44.6783L81.9208 41.2977L78.511 40.6835L77.5956 42.9925L80.4856 46.3686L75.5592 48.2898L75.0329 50.756L78.4563 51.6844L83.3692 49.7632H83.3759L83.383 49.754ZM50.8919 44.2072L52.5729 46.1701L55.9827 46.7843V46.7752H55.9962L58.1281 41.3855L50.8919 44.2072ZM61.5107 32.8737L51.6028 29.0128L44.7561 30.2505L42.9249 34.8736L49.6757 42.7801L59.0233 39.1362L61.5107 32.8737ZM47.5779 43.6021L42.0365 37.1226L39.3989 43.7778L44.674 44.7337L47.5779 43.6021ZM76.1536 40.2493L65.8427 38.3788L61.1144 40.2263L58.3401 47.2L62.7268 47.9944L64.8996 50.5391L66.9633 49.7401L68.7398 49.0427H68.7465L72.7029 50.1188L73.3111 47.26L77.1513 45.7636L74.9782 43.2143L76.1536 40.2493ZM64.1482 25.0363L60.8545 16.7278L55.6958 14.765L49.1495 19.1894L46.758 25.2165L51.9511 27.244L64.155 25.0363H64.1482ZM54.9303 28.4078L64.3393 32.0793L62.0024 37.9679L79.6454 31.0818H82.0778V32.0286L68.8083 37.2105L76.7753 38.6514L83.5265 39.8752L85.6993 42.4199L89.396 40.9744L97.7596 41.8612L94.7258 47.2184L91.029 48.6594L93.2018 51.2041L92.0265 54.1691L91.3912 55.7624L89.0473 55.3331L84.6606 54.5387L82.4879 51.994L78.6477 53.4904H78.6409L74.6707 52.4142L72.2725 52.1785L72.3545 51.7861L68.9312 50.8578L66.9633 51.6244L64.0115 52.7744L61.1211 49.3984L57.7045 48.7794L56.7891 51.0887L59.6791 54.4648L57.5678 55.2868L56.3517 53.8688L54.1789 51.3196L55.3539 48.3592L50.9739 47.5741L48.7944 45.0201L45.0156 46.4888L38.7772 45.3573L37.3558 48.9227L35.0122 48.4931L36.4265 44.9277L37.0483 43.3437L40.3147 35.0951L37.3082 31.5714L36.6726 29.9872L38.4835 29.6594L41.2099 32.8506L42.7744 28.8974L48.6304 27.8397L43.9223 26.0015L45.6992 21.5079L41.7904 24.1449L40.0825 22.9811L46.97 18.3258L49.3615 12.2896L51.705 12.7098L50.4069 15.9981L55.279 12.7098L59.9664 14.4971L58.415 10.5807L59.4128 9.91106L61.1211 11.0657L62.9317 15.624L72.9898 19.4573L71.7942 20.889L63.8134 17.8501L67.1135 26.1863L54.9235 28.3939L54.9303 28.4078Z" fill="#FFD400"/>
<path d="M48.7877 112.352H50.6597V113.996L48.2682 120.023L50.6664 126.059V127.703H48.7944L47.0109 123.205L45.2344 127.703H43.3553V126.059L45.7468 120.023L43.3553 113.996V112.352H45.2209L47.0109 116.85L48.7877 112.352Z" fill="#FFD400"/>
<path d="M93.5299 132.382V142.551L101.06 133.739L98.2994 130.516L93.5299 132.382ZM111.385 142.542V132.437L106.615 130.53L103.868 133.744L111.391 142.542H111.385ZM111.385 155.035V145.83L102.461 135.384L93.5299 145.84V155.035L102.454 156.651L111.385 155.035ZM91.0972 127.703H85.5832L78.0533 136.515L91.0972 131.43V127.703ZM123.95 160.545L121.231 157.363L126.123 154.06L119.454 155.271L113.817 148.675V156.291L107.155 157.497L113.817 158.702V162.374L118.101 159.473L123.95 160.535V160.545ZM68.8286 147.327L75.361 151.747L84.2917 153.363L91.0972 145.401V133.328L75.6273 139.36L68.8286 147.327ZM69.1226 126.059H84.1756L86.9225 122.831L82.1463 120.965L69.1158 126.059H69.1226ZM84.1962 113.996H69.1634L82.1531 119.067L86.9293 117.196L84.1962 113.996ZM82.7681 127.703H64.9134L53.1403 132.303L55.5247 138.339L62.0639 142.755L73.8441 138.159L82.7681 127.703ZM139.092 150.001L139.728 151.585L130.831 153.206L124.278 157.63L127.278 161.145L139.468 163.353L138.846 164.937L129 163.154L134.535 169.629L132.437 170.451L125.679 162.549L118.839 161.311L113.824 164.701V172.423H111.391V166.35L109.669 165.186L111.391 164.022V159.963L102.461 158.346L98.3949 159.081L97.7597 157.497L91.0972 156.291V148.684L85.467 155.271L78.805 154.065L77.0828 155.229L74.0969 153.215L65.1797 151.599L63.3898 153.696L61.2919 152.873L64.0115 149.687L70.6601 150.888L65.788 147.595L71.4185 141.004L61.6609 144.81L56.7753 141.512L54.4317 141.933L53.3452 139.185L46.7921 134.765L45.5966 133.333L47.2022 132.719L52.0878 136.012L50.3046 131.5L60.0484 127.694H50.6735V126.05H64.2643L79.7271 120.009L64.3052 113.987H50.6664V112.343H60.0825L50.3046 108.528L50.7896 107.308L53.1332 107.729L64.9475 112.338H82.7954L84.8929 111.516L85.5966 112.338H91.0972V109.558H93.5299V113.982H86.9974L90.25 117.787L84.5786 120.004L90.25 122.212L86.984 126.045H93.5299V130.465L99.1945 128.257L102.461 132.086L105.74 128.253L111.385 130.511V126.05H117.924V127.689H113.817V131.49L127.121 136.825L125.877 138.238L113.817 133.402V145.382L120.623 153.349L129.567 151.728L132.553 149.705L134.275 150.869L139.092 149.996V150.001Z" fill="#FFD400"/>
<path d="M82.0096 232.351H85.3438L87.8106 230.68L87.7765 230.656L82.0096 226.754V232.351ZM79.5769 233.996H68.5211L75.7165 238.859L79.5769 236.249V233.996ZM73.9876 240.014L65.0775 233.991H59.0574L56.6727 240.004L54.1516 240.009L51.7668 233.986H38.1487L22.7265 240.009H20.2871V239.062L33.2903 233.986H19.6448V232.342H37.4996L49.2862 227.738L46.8947 221.697L43.9156 219.683L45.6374 218.519L44.3392 215.245L46.6831 214.815L49.0746 220.842L55.6206 225.267L60.7796 223.299L64.0729 215L66.4165 215.429L63.7449 222.173L73.3385 218.519L79.5017 222.685V220.002L79.5634 219.965V208.95L67.4622 204.225L68.6784 202.807L81.9958 207.999V218.321L89.4983 213.254L92.71 211.084H97.0559V208.193L102.42 203.745L107.722 208.197V211.088H111.063L111.056 212.732H105.283V208.779L102.406 206.359L99.4949 208.779V212.732H93.7213L91.2205 214.414L93.7213 216.104H99.4882L99.4949 216.108V219.951L101.914 221.244L100.411 222.533L97.0559 220.745H97.0488V217.753L92.71 217.748L89.4983 215.577L82.0025 220.644V224.371L89.5327 229.46L91.9924 227.798L93.7146 228.961L91.2545 230.624L91.2886 230.647L91.2478 230.675L93.7146 232.342H99.4882L99.4815 236.296L102.385 238.72V240.014H100.814L97.0488 236.878V233.986H92.7033L89.5327 231.839L86.3555 233.996H82.0163V236.928L77.4383 240.014H73.9876ZM62.6448 232.351L58.3469 229.446L59.9046 225.53L55.2104 227.317L50.3387 224.024L52.1219 228.537L42.3646 232.347H53.6388L55.4157 236.831L57.1922 232.351H62.6516H62.6448ZM72.9355 220.565L62.8703 224.399L61.0665 228.957L66.0887 232.351H79.5769V225.105L79.5155 225.064V225.022L72.9355 220.575V220.565Z" fill="#FFD400"/>
<path d="M57.9985 198.637L55.8734 193.266L52.5047 193.876L50.8237 195.838L57.9914 198.642L57.9985 198.637ZM81.7976 198.734L84.688 195.358L89.7511 197.339L94.3022 196.845L92.6553 193.95L87.5922 191.968L90.4822 188.592L89.5736 186.288L86.157 186.902L83.2598 190.278L78.3469 188.352L74.9168 189.28L75.443 191.742L80.356 193.668H80.3627L77.4656 197.044L78.3814 199.353L81.7976 198.734ZM36.9801 196.684L24.7764 198.891L21.7836 202.401L28.3227 206.821L37.2535 208.437L40.2462 204.932L36.9801 196.679V196.684ZM61.4354 207.163L58.9551 200.905L49.6076 197.261L42.8564 205.168L44.6879 209.79L51.5275 211.028L61.4354 207.163ZM64.7835 189.479L62.6107 192.024L58.2648 192.809L61.0459 199.819L62.2144 200.277L65.7127 201.644L76.0375 199.787L74.8621 196.822L77.0352 194.277L73.195 192.776L72.5935 189.913L68.6169 190.989L64.7767 189.488L64.7835 189.479ZM60.9979 190.61L63.8954 187.234L68.8083 189.16L72.2313 188.241L71.7122 185.775L68.9038 184.671L70.12 183.253L72.8122 184.306L73.9535 184.75L74.5546 187.613L78.5248 186.537H78.5316L78.7158 186.615L82.3579 188.033L84.531 185.489L88.9245 184.694L91.268 184.274H91.2751L93.0789 188.832L90.9062 191.377L94.5959 192.823L97.6435 198.157L89.2661 199.062L85.5697 197.616L83.3898 200.161L79.0031 200.956L68.6851 202.821L67.469 204.239L65.3576 203.417H65.3505L61.9275 202.078L64.2643 207.966L54.8553 211.638L67.0453 213.846L66.4097 215.434L64.0662 215.005L51.8762 212.797L46.676 214.825L44.3325 215.254L43.8474 214.03L48.5551 212.192L42.7062 211.134L41.1413 207.181L38.4218 210.363L31.7597 209.158L36.6385 212.451L31.0013 219.041L28.9035 218.219L33.5978 212.719L27.0586 208.299L18.1348 206.682L18.7702 205.098L23.6216 205.976L18.7497 202.683L21.4624 199.501L20.8269 197.917L23.1775 197.487L29.9353 189.585L32.033 190.407L26.4983 196.882L36.3445 195.099L34.9302 191.534L32.033 190.398L33.2493 188.98L37.021 190.449L38.6952 194.67L44.9407 193.534L48.7124 195.007L50.8923 192.453L55.2378 191.668V191.645L54.0557 188.68L56.2355 186.135L58.3334 186.957L56.6592 188.915L57.5749 191.225L60.9844 190.606L60.9979 190.61ZM41.9683 202.918L47.503 196.439L44.5988 195.303L39.3375 196.263L41.9751 202.918H41.9683Z" fill="#FFD400"/>
<path d="M11.3222 232.337H16.8297L24.3596 223.53L11.3222 228.62V232.337ZM40.7589 215.231L45.6306 218.519L43.9088 219.683L40.3555 217.286L28.5619 221.886L19.638 232.342V233.982H18.2236L15.4835 237.196L20.2803 239.067V240.014H17.8477L12.1695 237.796L15.422 233.982H8.8829V229.566L3.23884 231.769L0 227.982V226.288H1.35977L4.12713 229.52L8.8829 227.664V217.494H11.3154V226.717L26.7853 220.681L28.8967 218.214L30.9944 219.036L40.7518 215.231H40.7589Z" fill="#FFD400"/>
<path d="M172.957 49.6338L178.491 43.1543L168.652 44.937L170.066 48.5024L172.963 49.6386L172.957 49.6338ZM93.5299 97.4942V107.669L98.2926 109.525L101.053 106.297L93.5299 97.4897V97.4942ZM113.817 75.3353L118.832 78.7251L125.672 77.4874L132.423 69.5854L123.089 65.9415L113.824 67.6179V75.3399L113.817 75.3353ZM111.385 107.673V97.5036L103.861 106.297L106.622 109.525L111.385 107.673ZM111.385 80.0736V76.0141L102.461 69.9826L93.5299 76.0234V80.0691L102.454 81.6855L111.385 80.0691V80.0736ZM111.385 94.2151V85.0155L102.454 83.3988L93.5299 85.0155V94.206L102.461 104.658L111.385 94.2199V94.2151ZM163.028 37.1272L157.493 43.6021L160.37 44.7337L165.659 43.773L163.021 37.1272H163.028ZM84.8314 64.7823L93.5299 66.357V73.7002L102.461 67.664L111.385 73.6957V66.3618L120.096 64.7823L102.454 57.9008L88.378 63.3968V63.4059L84.8314 64.7869V64.7823ZM91.0972 77.6722L86.8131 80.5632L80.9642 79.5056L83.6767 82.6786L78.7911 85.9853L85.4603 84.7659L91.0972 91.3565V83.7454L97.7596 82.5399L91.0972 81.3346V77.6722ZM91.0972 67.6179L81.8317 65.9415L72.498 69.5854L79.2488 77.4874L86.0888 78.7251L91.1043 75.3399V67.6134L91.0972 67.6179ZM178.204 121.187L171.002 126.059H182.065V123.796L178.204 121.187ZM161.559 126.059H167.565L176.489 120.023L167.572 113.996H161.552L159.168 120.018L161.559 126.059ZM49.9218 73.8805L46.5737 73.2754V73.2939L44.4486 78.6281L51.596 75.8386L49.9218 73.8805ZM136.482 6.04547L129.28 1.18231L125.42 3.7917V6.04547H136.482ZM120.732 126.054H135.785L122.782 120.97L117.985 122.845L120.725 126.054H120.732ZM113.817 112.347H119.325L126.848 103.54L113.817 108.625V112.347ZM122.987 7.68963H119.652L117.145 9.38458L117.671 9.74482L122.987 13.3379V7.68963ZM135.785 113.991H120.732L117.992 117.201L122.789 119.076L135.792 113.991H135.785ZM126.117 85.9805L121.231 82.6786L123.95 79.5056L118.101 80.5632L113.817 77.6629V81.3346L107.155 82.5399L113.817 83.7454V91.3656L119.454 84.7707L126.117 85.976V85.9805ZM196.291 143.937L193.79 145.627L196.291 147.317H202.065V151.271L204.976 153.691L207.866 151.271V147.317H213.633L216.134 145.636L213.633 143.942H207.859V140.099L204.962 138.556L202.065 140.099V143.942H196.291V143.937ZM75.3404 88.3176L68.8285 92.719L75.6344 100.69L91.0972 106.722V94.6493L84.2917 86.6873L75.3472 88.3176H75.3404ZM70.5163 63.8955L69.6009 66.2046L71.2818 68.163L78.5109 65.3456L70.5234 63.9001L70.5163 63.8955ZM77.6364 78.9005L65.4464 76.693L62.1803 84.9416L65.1868 88.4607L74.0831 86.8443L80.6361 82.4153L77.6364 78.9053V78.9005ZM67.4895 71.539L66.0681 75.1042L75.9146 76.8917L70.3799 70.412L67.4824 71.5436L67.4895 71.539ZM63.8609 62.6624L61.6882 60.1177L57.9779 61.5587L52.0672 60.9212L49.9012 64.7499L46.191 66.1909L48.3637 68.7356L47.1955 71.6866L51.5207 72.4719L53.6935 75.0166L57.4584 73.5478L63.7175 74.684L65.3917 70.4629L69.1634 68.9895L66.9839 66.4402L68.1795 63.452L63.8609 62.667V62.6624ZM135.314 66.2046L134.391 63.9001L126.417 65.341L133.64 68.1582L135.32 66.2L135.314 66.2046ZM138.846 75.0997L137.432 71.5342L134.528 70.4029L128.993 76.8778L138.84 75.0951L138.846 75.0997ZM130.052 50.7469L129.533 48.2807L124.606 46.3595L127.483 42.9834L126.568 40.6741L123.158 41.2885L120.267 44.6692L115.204 42.6877L110.66 43.1682L112.307 46.0777L117.37 48.0498L114.48 51.4304L115.396 53.7397L118.812 53.1208L121.702 49.7447L126.629 51.6659L130.045 50.7376L130.052 50.7469ZM134.863 56.7831L131.016 55.2868L130.407 52.4233L126.438 53.4995L122.597 52.0031L120.425 54.5478H120.418L116.038 55.3422L118.805 62.3161L123.527 64.1588L133.851 62.2882L132.683 59.3279L134.856 56.7831H134.863ZM132.375 50.1143L136.345 49.0381L136.742 49.1905L140.179 50.5345L142.352 47.9898L146.725 47.1954L143.957 40.2169L139.243 38.3742L128.932 40.2448L130.1 43.2097L127.927 45.759L131.439 47.126L131.761 47.2508H131.767L132.369 50.1143H132.375ZM136.086 92.719L129.553 88.3037L120.623 86.6873L113.817 94.6541V106.727L129.28 100.69L136.086 92.719ZM148.125 98.5289L146.342 94.0351L151.05 92.197L145.201 91.1393L143.636 87.186L140.924 90.3588L134.254 89.1535L139.126 92.4463L133.496 99.0415L143.254 95.2313L148.119 98.5241L148.125 98.5289ZM149.998 76.4437L147.094 75.3075L141.819 76.2634L144.456 82.9232L149.998 76.4437ZM149.102 46.7704L152.485 46.1608L154.166 44.2026L146.964 41.3901L149.096 46.7704H149.102ZM149.383 101.706L142.851 97.291L131.064 101.891L122.133 112.347H139.994L151.774 107.747L149.383 101.706ZM153.564 29.0313L143.609 33.0076L146.041 39.1362H146.055L146.062 39.1456L155.375 42.7801L162.133 34.8782L160.295 30.2459L153.564 29.0265V29.0313ZM149.362 14.765L144.21 16.7278L140.917 25.0363L153.209 27.2625L158.293 25.2302L155.908 19.194L149.362 14.7696V14.765ZM144.853 112.352H156.127L157.904 116.836L159.68 112.352H165.133L160.842 109.451L162.393 105.535L157.705 107.322L152.82 104.029L154.61 108.537L144.853 112.352ZM150.476 56.4553L145.406 54.4739L148.296 51.0978L147.387 48.7888L143.964 49.4075L141.074 52.7836L136.66 51.0611L136.147 50.8624L132.731 51.7907L133.25 54.2569L138.177 56.1781L135.3 59.5542L136.215 61.8635L139.625 61.2445L142.516 57.8684L147.579 59.8405L152.116 59.3509L152.102 59.3233H152.13L150.49 56.4505L150.476 56.4553ZM139.741 88.4467L142.734 84.937L139.468 76.6885L127.278 78.896L124.278 82.406L130.817 86.8258L139.748 88.4422L139.741 88.4467ZM132.054 19.4665L142.126 15.6333L143.93 11.0841L138.914 7.69424H125.42V14.9821L132.054 19.4665ZM154.255 113.996H140.643L125.214 120.023L140.643 126.054H154.255L156.646 120.018L154.255 113.996ZM143.069 37.9725L140.787 32.2226L150.278 28.4354L137.931 26.2003L141.238 17.8593L131.631 21.5171L125.406 17.3097V31.0818L139.577 36.6146L143.055 37.9725H143.069ZM187.846 127.703H184.498V133.338L190.34 129.389L187.852 127.699L187.846 127.703ZM181.375 34.0607L186.247 37.3535L183.527 40.5357L188.03 39.7228L188.652 41.307L181.805 42.5447L175.054 50.4512L173.838 51.8692L172.164 53.8321L173.073 56.1272L170.722 56.5429L169.554 53.5919L171.727 51.0426L167.955 49.5738L166.281 45.3527L160.022 46.4888L156.257 45.0201L154.084 47.5696L149.717 48.3546L150.893 51.3196L148.72 53.8688L152.416 55.3098L154.555 59.06L160.439 58.4411L164.135 59.8868L165.809 57.9284L167.907 58.7507L165.017 62.1267L159.953 60.1547L155.45 60.6255V60.644L155.416 60.6488L157.056 63.5444L160.008 64.7036L158.792 66.1215L155.095 64.6806L152.97 60.9121L147.08 61.5493L143.384 60.1083L141.21 62.653L136.824 63.4474L136.728 63.4659L137.91 66.4263L135.73 68.9756L139.502 70.449L141.176 74.6655L147.422 73.5341L151.2 75.0073L153.373 72.4534L154.357 72.2777L154.979 73.862L153.298 75.8295L160.534 78.6512L159.318 80.0691L152.082 77.252L145.331 85.154L147.162 89.7816L154.009 91.0193L156.12 90.1973L157.336 91.615L169.527 93.8227L166.226 102.163L174.207 99.12L175.403 100.552L165.345 104.385L163.534 108.943L168.556 112.338H182.044V113.982H170.989L178.184 118.845L182.044 116.236L183.766 117.4L179.906 120.009L184.484 123.103V126.05H188.843L192.055 128.225H192.061L194.562 126.53L196.284 127.694L193.784 129.384L196.284 131.075H202.058V134.917L204.955 136.46L207.853 134.917V131.075H213.626L216.127 129.384L213.626 127.694H207.853V123.741L204.976 121.321L206.869 120.291L210.299 123.159V126.05H214.638L217.856 128.22L220.364 126.526L222.086 127.689L219.578 129.384L220.104 129.744L220.261 129.851L218.539 131.014L217.849 130.553L214.638 132.723H210.292V135.716L206.937 137.503L210.292 139.286V142.279H214.638L217.856 144.449L223.698 140.501L225.42 141.665L219.578 145.613L214.638 148.953H210.292V151.844L204.99 156.296L199.633 151.844V148.953H195.287L192.075 146.782L184.498 141.66V151.082H182.065V137.305L175.833 141.517L174.227 140.902L175.423 139.471L182.065 134.982V127.699H168.57L163.554 131.079L161.846 129.925L165.133 127.699H159.701L157.917 123.191L156.134 127.685H144.866L154.624 131.5L154.139 132.719L151.795 132.298L140.001 127.694H122.146L131.412 138.538L142.516 142.99L144.224 144.154L142.891 145.054L133.885 141.448L139.133 147.595L134.282 150.874L132.56 149.71L136.086 147.327L129.601 139.739L125.877 138.247L127.121 136.834L119.325 127.699H117.924V126.059L114.664 122.244L120.349 120.023L114.664 117.801L117.924 113.991H111.385V109.572L105.734 111.774L102.467 107.941L99.1874 111.774L93.5366 109.572H91.1043V108.625L78.0738 103.54L84.8929 111.53L82.7954 112.352L73.8576 101.896L62.071 97.291L60.3488 96.1272L61.6608 95.2313L71.4185 99.0415L65.788 92.4463L70.6395 89.1672L64.0115 90.3727L61.2852 87.1815L59.7203 91.1302L58.3675 91.375L57.7319 89.7907L59.563 85.1631L52.8054 77.2565L43.5399 80.868L43.5261 80.9189L43.4646 80.9465L41.0458 87.0336L38.7019 86.6134L40.4787 82.1105L37.0554 83.4497L36.9939 83.4312L34.8824 84.2532L33.6661 82.8356L23.403 80.9696L19.0162 80.1706L16.8501 77.6259L13.1398 79.0669L4.76257 78.157L7.50942 73.3633L9.77116 73.9544L8.11757 76.8548L12.6752 77.3489L17.7384 75.3769L20.6151 78.7575L24.0316 79.3762L24.9472 77.0717L22.0705 73.6911L26.9971 71.7699L27.4413 69.6961L29.8396 69.9317L29.2315 72.7952L25.3914 74.2916L27.5574 76.8363L26.3822 79.8012L36.6385 81.6579L41.3806 79.8058L44.1478 72.8413L39.8225 72.0562L39.3169 71.4651L41.4147 70.6429L44.7628 71.2525V71.234L44.8381 71.2433L45.7467 68.9571L42.8702 65.5765L47.9333 63.6044L49.5802 60.6949L45.0362 60.2147L39.9731 62.1867L37.0827 58.8061L37.718 57.2219L38.6884 57.3973L40.8612 59.942L44.5579 58.5013L50.4615 59.1246L52.6346 55.3146L56.3311 53.8736L57.5476 55.2913L54.5954 56.4505L52.9421 59.3463L57.4929 59.8405L62.556 57.8684L65.4464 61.2445L68.863 61.8635L69.7784 59.5542L66.888 56.1781L71.8148 54.2569L72.2587 52.1833L74.6572 52.4188L74.049 55.2822L70.2088 56.7786L72.3819 59.3233L71.2065 62.2882L81.5107 64.154L86.2663 62.3022L89.0338 55.3376L91.3774 55.767L89.2526 61.1384L102.433 55.9887L115.833 61.2215L113.031 54.1739H113.038L111.863 51.2041L114.036 48.6594L110.325 47.2184L107.298 41.8612L115.655 40.9744L119.365 42.4199L121.538 39.8752L128.283 38.6514L136.243 37.2105L122.966 32.0286V21.6603L117.124 25.6089L115.402 24.4451L122.946 19.3418V15.6517L116.085 11.0056L115.402 10.5438L112.184 12.7144H107.838V15.7071L104.483 17.4899L102.98 16.2013L105.406 14.9082V11.0657H111.18L113.687 9.37534L111.18 7.685H105.412V3.73166L102.522 1.31162V0.013855H104.087L107.845 3.15899V6.0501H112.191L115.402 8.22075L118.621 6.04086H122.96V3.10818L127.538 0.013855H130.975L139.898 6.0501H145.912L148.296 0.013855H150.818L151.904 2.76643L149.561 3.19593L147.777 7.69887H142.331L146.622 10.5946L145.064 14.5017L149.752 12.7191L154.637 16.012L156.981 15.5917L158.068 18.335L164.606 22.7502L162.885 23.914L159.325 21.5125L161.101 26.0155L156.475 27.8627L162.256 28.9111L163.828 32.8737L165.618 30.7771L167.716 31.599L164.716 35.1136L167.975 43.3482L180.166 41.1453L183.165 37.6307L179.612 35.229L181.334 34.0653L181.375 34.0607ZM184.511 139.355L192.068 144.463L195.28 142.293H199.626V139.295L202.981 137.513L199.626 135.725V132.728H195.28L192.068 130.557L184.518 135.665V139.355H184.511ZM163.274 103.309L166.568 95.0004L154.364 92.7975L149.171 94.8202L151.556 100.847L158.108 105.272L163.267 103.309H163.274ZM60.4582 82.928L63.0957 76.2728L57.8071 75.3121L54.9168 76.4437L60.4582 82.928Z" fill="#FFD400"/>
<path d="M11.3972 11.4952L24.7011 16.8294L16.9046 7.69424H11.3972V11.4952ZM105.433 31.2618V27.3086H111.2L113.701 25.6274L111.2 23.9325H105.426V20.09L102.529 18.5475L99.6315 20.09V23.9279L93.8578 23.9325L91.357 25.6228L93.8578 27.3131H99.6315V31.2618L102.542 33.6866L105.433 31.2664V31.2618ZM8.9647 12.4327L4.20212 10.5207L1.45524 13.7397L8.9647 22.5378V12.4327ZM85.4257 7.69887H82.0843V13.3241L87.9198 9.37997L85.4328 7.69887H85.4257ZM89.6419 10.553L82.0843 15.661V19.3464L89.6348 24.4545L92.8465 22.2838H97.192V19.2864L100.547 17.4991L97.192 15.7164V12.7191H92.8465L89.6419 10.553ZM33.6728 27.3225L27.1883 19.7344L11.3972 13.4072V25.3874L18.2029 33.3539L27.1473 31.733L33.6659 27.3271L33.6728 27.3225ZM18.3054 6.0501H33.3585L20.3621 0.969861L15.5654 2.84493L18.3054 6.0501ZM75.7912 1.18231L68.5827 6.05471H79.652V3.7917L75.7912 1.18231ZM59.146 6.05471H65.1387L74.0626 0.0184734L77.5133 0.013855L82.0914 3.11279V6.05934H86.4369L89.6419 8.22536L92.8533 6.05471H97.1991V3.1636L100.978 0.0184734H102.542V1.3301L99.6315 3.75013V7.70348H93.8578L91.357 9.39382L93.8578 11.0841H99.6315V14.9266L102.529 16.4692L103 16.2244L104.504 17.513L107.858 19.2956V22.293H112.204L115.423 24.4636L117.144 25.6274L112.211 28.9665H107.865V31.8578L102.549 36.3098L97.192 31.8578V28.9665H92.8465L89.6348 26.7959L82.0843 21.688V31.1003H79.652V20.0392H79.6453V17.319L73.4136 21.5309L71.8075 20.9167L73.0034 19.485L79.652 14.9959V7.71272H66.1432L61.1277 11.0934L59.4194 9.93878L62.706 7.71272H57.274L55.4904 3.20517L53.7072 7.69887H42.4393L52.197 11.5137L51.712 12.7329L49.3681 12.3126L37.5811 7.70811H19.7198L28.9853 18.5521L40.089 23.0042L41.7973 24.1679L40.4647 25.0687L31.4589 21.4617L36.7136 27.6088L31.8552 30.8879L36.6724 30.015L37.308 31.599L28.4114 33.2154L25.4254 35.2384L23.7034 34.0744L17.0345 35.2845L11.3972 28.6895V36.3052L4.73506 37.5107L4.09961 35.9265L8.95785 35.0445V25.84L0.0408177 15.3839L0.00665283 15.4208V12.054L0.0408177 12.091L3.32748 8.25768L8.9647 10.5161V6.05471H15.5039L12.2445 2.23992L17.9227 0.0184734H17.9159L22.8015 0.013855H22.7946L38.2234 6.0501H51.8348L54.2263 0.013855H56.7477L59.1392 6.05471H59.146Z" fill="#FFD400"/>
<path d="M22.8493 105.078V112.352H36.3376L41.3599 108.957L39.5493 104.408L29.4842 100.57L22.8493 105.055V105.073V105.078ZM33.9051 113.996H22.8493V116.249L26.71 118.859L33.9051 113.996ZM20.4168 112.352V106.717L14.5814 110.661L17.0823 112.356H20.4168V112.352ZM20.4168 104.376V100.695L12.88 95.5961L9.66166 97.7621H5.31587V100.759L1.94722 102.538L5.3022 104.325V107.318H9.64799L12.8458 109.488L20.4168 104.371V104.376ZM42.5214 105.535L44.0727 109.451L39.7815 112.352H43.3618V113.996H37.3489L28.4319 120.023L35.6338 124.891L33.9119 126.054L26.71 121.187L24.988 120.023L20.4099 116.928V113.996H16.071L12.8526 111.825L9.64117 113.996H5.29538V116.878L1.53724 120.018H0.00665283V118.679L2.86284 116.296V112.343H8.63671L11.1376 110.661V110.652L8.63671 108.971H2.86284V105.128L0.00665283 103.609V101.475L2.86967 99.9559V96.1133H8.64353L11.1513 94.423L8.65038 92.7327H2.87651V88.7794L0.00665283 86.3686V83.7545H0.0134858L5.31587 88.2022V91.0932H9.66166L14.5951 94.4323L20.4099 98.3765V88.0128L33.6591 82.8401L34.8754 84.258L22.8425 88.9548V100.016H22.8493L22.8425 102.732L29.0673 98.5241L38.6744 102.182L35.3674 93.8412L47.7077 91.6104L38.2234 87.8141L38.7017 86.6134L41.0456 87.0336L51.0011 91.01L57.7317 89.7907L58.3673 91.375L53.9326 92.1831L52.7026 93.5919L50.6527 92.7742L38.3601 95.0004L41.6535 103.314L43.724 104.103L42.5285 105.535H42.5214Z" fill="#FFD400"/>
<path d="M65.3574 178.773L62.4671 182.149L57.4036 180.168L52.9008 180.644V180.662L52.8667 180.667L54.5065 183.563L59.5628 185.544L58.3467 186.962L56.2488 186.14L52.5386 184.699L50.4134 180.93L44.5304 181.567L40.8336 180.127L38.6609 182.671L34.2741 183.466H34.2604L35.4357 186.431L33.2628 188.98L32.0465 190.398H32.0397L29.942 189.58L20.5944 185.936L11.3289 187.613V195.335L16.3443 198.725L20.8336 197.912L21.4691 199.496L15.6268 200.558L11.3357 197.658V201.33L4.6736 202.535L11.3357 203.74V211.356L16.973 204.761L18.7837 205.089L18.1482 206.673L11.3357 214.644V217.489H8.9032L1.38008 226.283H0.00665283V224.592L8.88953 214.196V204.997L0.00665283 203.389V201.667L8.88953 200.06V196L0.00665283 189.991V187.669L8.88953 193.672V186.343L17.6084 184.764L0.00665283 177.891V175.993L13.2626 181.166L11.1239 175.758L13.4676 175.328L16.2418 182.306L20.9634 184.149L31.2881 182.279L30.3793 179.97L32.723 179.549L33.6386 181.858L37.0552 181.24L39.9456 177.864L45.0087 179.836L49.5321 179.346V179.318H49.5459L47.8991 176.441L49.1152 175.023L49.8602 175.314L51.9989 179.06L57.8751 178.446L61.5719 179.887L63.2529 177.933L65.3503 178.755L65.3574 178.773ZM32.8186 186.195L31.903 183.891L23.9221 185.336L31.1514 188.153L32.8255 186.191L32.8186 186.195Z" fill="#FFD400"/>
<path d="M5.28857 135.725L1.93356 137.508L5.28857 139.291V142.288H9.63432L12.8526 144.459L20.3963 139.355V135.665L12.8458 130.562L9.63432 132.728H5.28857V135.725ZM54.9166 163.611L57.807 164.733L63.0956 163.778L60.458 157.127L54.9166 163.607V163.611ZM91.097 164.701L86.0818 161.32L79.2419 162.558L72.4911 170.46L81.8248 174.104L91.0903 172.428V164.701H91.097ZM36.3514 127.699H22.8562V134.991L29.491 139.475L39.5561 135.638L41.3666 131.088L36.3514 127.699ZM22.8493 137.314V151.086L37.0208 156.619L40.4921 157.972L38.2234 152.227L47.7077 148.44L35.3674 146.205L38.6744 137.864L29.0673 141.521L22.8425 137.314H22.8493ZM20.4168 133.347V127.694H17.0823L14.5746 129.394L16.0437 130.391L20.4168 133.347ZM24.0041 160.678L20.5944 161.297L17.7041 164.678L12.6408 162.697L8.09692 163.177L9.74365 166.087L14.8069 168.059L11.9165 171.439L12.8322 173.744L16.2418 173.13L19.1322 169.754H19.139L24.0519 171.675L27.4752 170.747L26.9491 168.28L22.0225 166.359L24.9129 162.979L23.9973 160.669L24.0041 160.678ZM49.9216 166.17L51.5958 164.212L44.3937 161.399L46.5324 166.779L49.9216 166.17ZM43.4918 159.154L52.812 162.789L59.5628 154.887L57.7317 150.255L51.0011 149.031L41.0456 153.012L43.4779 159.136L43.4918 159.145V159.154ZM66.068 164.946L67.4894 168.511L70.3865 169.643L75.9212 163.168L66.0747 164.951L66.068 164.946ZM63.3963 153.7L62.1802 155.118L65.4462 163.353L77.6362 161.145L80.6359 157.635L77.0826 155.234L78.8048 154.07L83.6765 157.367L80.9569 160.549L86.8062 159.487L91.0903 162.383V158.716L97.7524 157.51L98.3879 159.094L93.5297 159.976V164.027L102.454 170.063L109.663 165.195L111.384 166.359L102.454 172.395L93.5297 166.355V173.698L84.811 175.277L102.454 182.163L101.237 183.581L89.1498 178.866L91.2817 184.274L88.9378 184.694L86.1774 177.725L81.4626 175.882L71.1311 177.753L72.2997 180.709L70.1269 183.253L68.9104 184.671L66.7991 183.849L69.6895 180.473L68.7737 178.159L65.3574 178.778L63.2596 177.956L63.7652 177.365L68.1725 176.57L66.9972 173.619L69.1771 171.07L65.405 169.601L63.7312 165.38L57.4721 166.512L53.7072 165.048L51.5273 167.597L47.168 168.382L48.3433 171.347L46.1702 173.892L49.122 175.046L47.9058 176.464L42.8427 174.492L45.7331 171.116L44.8173 168.807L41.4007 169.426L38.5107 172.802L35.2034 171.509L33.5908 170.885L30.1743 171.813L30.6936 174.275L35.6203 176.201L32.7298 179.577L30.3861 179.997L30.1264 179.346L32.2925 176.801L28.4524 175.305L27.8442 172.442L23.8743 173.518H23.8674L20.0273 172.021L17.8544 174.561L13.4677 175.356L11.1239 175.785L10.4884 174.197L9.31318 171.232L11.4861 168.687L7.78941 167.246L4.7624 161.888L13.1191 161.002L16.8158 162.447L18.9887 159.898L25.7397 158.679L33.7001 157.238L20.4236 152.051V141.688L14.5814 145.636L9.64117 148.976H5.29538V151.857L0.0134858 156.286V153.668L2.86284 151.285V147.331H8.63671L11.1376 145.641L8.6299 143.951H2.85601V140.108L0.00665283 138.593V136.446L2.85601 134.94V131.098H8.6299L11.1307 129.407L8.6299 127.717H2.85601V123.764L0.00665283 121.371V120.032H1.53724L5.28171 123.177V126.059H9.6275L12.839 128.23L16.071 126.054H20.4099V123.122L24.988 120.027L26.71 121.191L22.8493 123.801V126.059H33.9119L35.6338 124.895L37.3556 126.059H43.3618V127.708H39.795L44.0795 130.604L42.5285 134.511L45.6031 133.342L46.799 134.774L41.6535 136.737L38.3601 145.045L50.6527 147.271L55.7365 145.239L54.4383 141.946L56.7818 141.526L58.5654 146.029L53.9326 147.876L59.7269 148.925L61.2985 152.887L63.3963 153.709V153.7ZM70.5161 176.141L78.4902 174.705L71.2816 171.887L69.6007 173.846L70.5161 176.141ZM44.1547 167.209L41.3872 160.231L36.6724 158.388L26.3615 160.258L27.5367 163.223L25.3638 165.768L29.2108 167.269L29.8121 170.128L33.7821 169.052L37.6223 170.548L39.795 168.003L44.1615 167.209H44.1547Z" fill="#FFD400"/>
<path d="M16.4058 41.3161L11.3904 44.7061V52.4281L20.6559 54.1045L30.0035 50.4606L23.2525 42.5584L16.4058 41.3207V41.3161ZM28.4865 64.7775L29.2928 64.4636L32.3267 63.2811L30.1538 60.7364L31.3291 57.7715L21.0112 55.8963L16.2828 57.7439L13.5155 64.713L17.9022 65.5074L20.0751 68.0566L23.9153 66.5602L27.8852 67.6364L28.4865 64.7775ZM18.8179 37.3629L23.7034 34.0607L25.4254 35.2245L21.8654 37.6307L24.8582 41.1453L37.0481 43.3528L36.4263 44.937L26.587 43.1543L32.1217 49.6292L35.0189 48.4976L37.3627 48.9272L37.1028 49.5832L33.3379 51.0517L35.5109 53.601L34.3151 56.5938L37.7316 57.2173L37.096 58.8013L33.6864 58.1826L32.764 60.4916L35.6544 63.8725L31.5477 65.475L30.7278 65.7937L30.2016 68.2599L33.6249 69.1882L38.5515 67.2668L41.428 70.6429L39.3306 71.4651L37.6564 69.5067L33.8094 71.0079L29.8395 69.9272L27.4411 69.6915L27.5231 69.2989L24.0998 68.3708L19.1732 70.292L16.2828 66.9159L12.8663 66.297L11.9507 68.6017L14.8411 71.9823L9.77099 73.9498L7.50925 73.3585L7.81676 72.8137L11.5134 71.3727L9.34052 68.828L11.1581 64.2695L13.3105 58.8522L0.0339848 64.0479L0.00665283 64.0386V62.1404L0.0339848 62.1498L17.6836 55.2637L8.9647 53.6843V46.3501L0.0339848 52.3864L0.00665283 52.3633V50.0404L0.0339848 50.0588L8.9647 44.0272V39.9676L0.0339848 38.3512H0.00665283V36.647H0.0408177L4.10646 35.9174L4.74192 37.5014L11.4041 38.7069V42.3784L15.6883 39.478L21.5374 40.5402L18.8247 37.3581L18.8179 37.3629ZM32.8938 53.8412L31.2197 51.8831L23.9836 54.7048L31.9645 56.1505L32.887 53.8367L32.8938 53.8412Z" fill="#FFD400"/>
</g>
<defs>
<clipPath id="clip0_17630_30125">
<rect width="410" height="240.023" fill="white"/>
</clipPath>
</defs>
</svg>
