<svg width="343" height="159" viewBox="0 0 343 159" fill="none" xmlns="http://www.w3.org/2000/svg">
<g clip-path="url(#clip0_17287_27337)">
<rect width="343" height="158.062" rx="6" fill="url(#paint0_linear_17287_27337)"/>
<path d="M243 20C243 -2.09139 260.909 -20 283 -20C305.091 -20 323 -2.09139 323 20C323 42.0914 305.091 60 283 60C260.909 60 243 42.0914 243 20Z" fill="white" fill-opacity="0.2"/>
<path d="M10 138.062C10 110.448 32.3858 88.0625 60 88.0625C87.6142 88.0625 110 110.448 110 138.062C110 165.677 87.6142 188.062 60 188.062C32.3858 188.062 10 165.677 10 138.062Z" fill="white" fill-opacity="0.15"/>
<path opacity="0.95" d="M171.5 134.031C201.876 134.031 226.5 109.407 226.5 79.0312C226.5 48.6556 201.876 24.0312 171.5 24.0312C141.124 24.0312 116.5 48.6556 116.5 79.0312C116.5 109.407 141.124 134.031 171.5 134.031Z" fill="white"/>
<path opacity="0.1" d="M171.5 134.031C201.876 134.031 226.5 109.407 226.5 79.0312C226.5 48.6556 201.876 24.0312 171.5 24.0312C141.124 24.0312 116.5 48.6556 116.5 79.0312C116.5 109.407 141.124 134.031 171.5 134.031Z" fill="url(#paint1_linear_17287_27337)"/>
<path d="M195 63.0625H147C143.686 63.0625 141 65.7488 141 69.0625V99.0625C141 102.376 143.686 105.062 147 105.062H195C198.314 105.062 201 102.376 201 99.0625V69.0625C201 65.7488 198.314 63.0625 195 63.0625Z" fill="#1C1C28"/>
<path d="M195.5 64.0312H147.5C144.186 64.0312 141.5 66.7175 141.5 70.0312C141.5 73.345 144.186 76.0312 147.5 76.0312H195.5C198.814 76.0312 201.5 73.345 201.5 70.0312C201.5 66.7175 198.814 64.0312 195.5 64.0312Z" fill="#0F0F15"/>
<path d="M195.5 66.0312H147.5C145.291 66.0312 143.5 67.8221 143.5 70.0312C143.5 72.2404 145.291 74.0312 147.5 74.0312H195.5C197.709 74.0312 199.5 72.2404 199.5 70.0312C199.5 67.8221 197.709 66.0312 195.5 66.0312Z" fill="#2A2A38"/>
<path d="M186.5 91.0312C189.814 91.0312 192.5 88.345 192.5 85.0312C192.5 81.7175 189.814 79.0312 186.5 79.0312C183.186 79.0312 180.5 81.7175 180.5 85.0312C180.5 88.345 183.186 91.0312 186.5 91.0312Z" fill="#FFD400"/>
<path d="M186.5 88.0312C188.157 88.0312 189.5 86.6881 189.5 85.0312C189.5 83.3744 188.157 82.0312 186.5 82.0312C184.843 82.0312 183.5 83.3744 183.5 85.0312C183.5 86.6881 184.843 88.0312 186.5 88.0312Z" fill="#1C1C28"/>
<path opacity="0.85" d="M186.5 47.0312H154.5C152.843 47.0312 151.5 48.3744 151.5 50.0312V68.0312C151.5 69.6881 152.843 71.0312 154.5 71.0312H186.5C188.157 71.0312 189.5 69.6881 189.5 68.0312V50.0312C189.5 48.3744 188.157 47.0312 186.5 47.0312Z" fill="#10B981"/>
<path opacity="0.4" d="M170.5 65.0312C173.814 65.0312 176.5 62.345 176.5 59.0312C176.5 55.7175 173.814 53.0312 170.5 53.0312C167.186 53.0312 164.5 55.7175 164.5 59.0312C164.5 62.345 167.186 65.0312 170.5 65.0312Z" fill="#065F46"/>
<path d="M158.5 54.0312H166.5" stroke="#065F46" stroke-width="1.5" stroke-linecap="round"/>
<path d="M174.5 54.0312H182.5" stroke="#065F46" stroke-width="1.5" stroke-linecap="round"/>
<path d="M183.5 43.0312H151.5C149.843 43.0312 148.5 44.3744 148.5 46.0312V64.0312C148.5 65.6881 149.843 67.0312 151.5 67.0312H183.5C185.157 67.0312 186.5 65.6881 186.5 64.0312V46.0312C186.5 44.3744 185.157 43.0312 183.5 43.0312Z" fill="#34D399"/>
<path opacity="0.4" d="M167.5 61.0312C170.814 61.0312 173.5 58.345 173.5 55.0312C173.5 51.7175 170.814 49.0312 167.5 49.0312C164.186 49.0312 161.5 51.7175 161.5 55.0312C161.5 58.345 164.186 61.0312 167.5 61.0312Z" fill="#065F46"/>
<path d="M155.5 50.0312H163.5" stroke="#065F46" stroke-width="1.5" stroke-linecap="round"/>
<path d="M171.5 50.0312H179.5" stroke="#065F46" stroke-width="1.5" stroke-linecap="round"/>
<path d="M167.256 57.9403V48.8494H167.839V57.9403H167.256ZM168.801 51.8501C168.773 51.5637 168.651 51.3411 168.435 51.1825C168.22 51.0239 167.927 50.9446 167.558 50.9446C167.307 50.9446 167.095 50.9801 166.922 51.0511C166.75 51.1198 166.617 51.2157 166.525 51.3388C166.435 51.4619 166.39 51.6016 166.39 51.7578C166.385 51.888 166.412 52.0017 166.472 52.0987C166.533 52.1958 166.617 52.2798 166.724 52.3509C166.83 52.4195 166.953 52.4799 167.093 52.532C167.233 52.5817 167.382 52.6243 167.54 52.6598L168.194 52.8161C168.511 52.8871 168.802 52.9818 169.067 53.1001C169.333 53.2185 169.562 53.3641 169.756 53.5369C169.95 53.7098 170.101 53.9134 170.207 54.1477C170.316 54.3821 170.372 54.6508 170.374 54.9538C170.372 55.3989 170.258 55.7848 170.033 56.1115C169.811 56.4358 169.489 56.688 169.067 56.8679C168.648 57.0455 168.143 57.1342 167.551 57.1342C166.964 57.1342 166.453 57.0443 166.017 56.8643C165.584 56.6844 165.245 56.4181 165.001 56.0653C164.76 55.7102 164.633 55.2711 164.621 54.7479H166.109C166.126 54.9917 166.196 55.1953 166.319 55.3587C166.444 55.5196 166.611 55.6416 166.82 55.7244C167.03 55.8049 167.268 55.8452 167.533 55.8452C167.794 55.8452 168.02 55.8073 168.212 55.7315C168.406 55.6558 168.556 55.5504 168.663 55.4155C168.769 55.2805 168.822 55.1255 168.822 54.9503C168.822 54.7869 168.774 54.6496 168.677 54.5384C168.582 54.4271 168.442 54.3324 168.258 54.2543C168.075 54.1761 167.852 54.1051 167.587 54.0412L166.795 53.8423C166.181 53.6932 165.697 53.46 165.342 53.1428C164.987 52.8255 164.811 52.3982 164.813 51.8608C164.811 51.4205 164.928 51.0357 165.165 50.7067C165.404 50.3776 165.732 50.1207 166.148 49.9361C166.565 49.7514 167.039 49.6591 167.569 49.6591C168.109 49.6591 168.58 49.7514 168.982 49.9361C169.387 50.1207 169.702 50.3776 169.927 50.7067C170.152 51.0357 170.268 51.4169 170.275 51.8501H168.801Z" fill="#065F46"/>
<path d="M181.5 39.0312H149.5C147.843 39.0312 146.5 40.3744 146.5 42.0312V60.0312C146.5 61.6881 147.843 63.0312 149.5 63.0312H181.5C183.157 63.0312 184.5 61.6881 184.5 60.0312V42.0312C184.5 40.3744 183.157 39.0312 181.5 39.0312Z" fill="#6EE7B7"/>
<path opacity="0.4" d="M165.5 57.0312C168.814 57.0312 171.5 54.345 171.5 51.0312C171.5 47.7175 168.814 45.0312 165.5 45.0312C162.186 45.0312 159.5 47.7175 159.5 51.0312C159.5 54.345 162.186 57.0312 165.5 57.0312Z" fill="#065F46"/>
<path d="M153.5 46.0312H160.5" stroke="#065F46" stroke-width="1.5" stroke-linecap="round"/>
<path d="M170.5 46.0312H177.5" stroke="#065F46" stroke-width="1.5" stroke-linecap="round"/>
<path d="M168.368 52.9463C168.344 53.188 168.281 53.4195 168.186 53.6318L166.158 54.0625C166.182 53.8209 166.245 53.5902 166.341 53.3779L168.368 52.9463ZM165.526 50.9688L166.157 50.835V48.9082C166.332 48.6949 166.547 48.5138 166.789 48.3779V50.7002L168.368 50.3643C168.344 50.606 168.28 50.8374 168.185 51.0498L166.789 51.3457V51.9912L168.368 51.6562C168.344 51.8978 168.28 52.1286 168.185 52.3408L166.157 52.7715V51.4805L165.526 51.6143V52.3311C165.526 52.3963 165.506 52.4566 165.472 52.5068L165.144 52.9941C165.062 53.1128 164.937 53.1992 164.791 53.2295L163 53.6104C163.024 53.3687 163.088 53.1381 163.184 52.9258L164.895 52.5615V51.749L163.298 52.0879C163.322 51.8462 163.386 51.6157 163.481 51.4033L164.895 51.1025V48.5928C165.069 48.3794 165.284 48.1983 165.526 48.0625V50.9688Z" fill="#065F46"/>
<path opacity="0.2" d="M171.5 107.031C177.575 107.031 182.5 102.106 182.5 96.0312C182.5 89.9561 177.575 85.0312 171.5 85.0312C165.425 85.0312 160.5 89.9561 160.5 96.0312C160.5 102.106 165.425 107.031 171.5 107.031Z" fill="#10B981"/>
<path d="M171.5 87.0312C173.887 87.0312 176.176 87.9795 177.864 89.6673C179.552 91.3551 180.5 93.6443 180.5 96.0312C180.5 98.4182 179.552 100.707 177.864 102.395C176.176 104.083 173.887 105.031 171.5 105.031" stroke="#10B981" stroke-width="3" stroke-linecap="round"/>
<path d="M168 87.0625L172 84.0625L175 87.0625" stroke="#10B981" stroke-width="3" stroke-linecap="round" stroke-linejoin="round"/>
<path d="M171.5 99.0312C173.157 99.0312 174.5 97.6881 174.5 96.0312C174.5 94.3744 173.157 93.0312 171.5 93.0312C169.843 93.0312 168.5 94.3744 168.5 96.0312C168.5 97.6881 169.843 99.0312 171.5 99.0312Z" fill="#10B981"/>
<path d="M211.5 56.5312C212.881 56.5312 214 55.412 214 54.0312C214 52.6505 212.881 51.5312 211.5 51.5312C210.119 51.5312 209 52.6505 209 54.0312C209 55.412 210.119 56.5312 211.5 56.5312Z" fill="#10B981"/>
<path d="M131.5 101.031C132.605 101.031 133.5 100.136 133.5 99.0312C133.5 97.9267 132.605 97.0312 131.5 97.0312C130.395 97.0312 129.5 97.9267 129.5 99.0312C129.5 100.136 130.395 101.031 131.5 101.031Z" fill="#34D399"/>
<path d="M206.5 106.031C207.605 106.031 208.5 105.136 208.5 104.031C208.5 102.927 207.605 102.031 206.5 102.031C205.395 102.031 204.5 102.927 204.5 104.031C204.5 105.136 205.395 106.031 206.5 106.031Z" fill="#6EE7B7"/>
</g>
<defs>
<linearGradient id="paint0_linear_17287_27337" x1="171.5" y1="0" x2="171.5" y2="158.062" gradientUnits="userSpaceOnUse">
<stop stop-color="#FFF5CC"/>
<stop offset="0.5" stop-color="#FFD400"/>
<stop offset="1" stop-color="#FFED4E"/>
</linearGradient>
<linearGradient id="paint1_linear_17287_27337" x1="116.5" y1="24.0312" x2="11116.5" y2="11024" gradientUnits="userSpaceOnUse">
<stop stop-color="#FFD400"/>
<stop offset="1" stop-color="#10B981"/>
</linearGradient>
<clipPath id="clip0_17287_27337">
<rect width="343" height="158.062" rx="6" fill="white"/>
</clipPath>
</defs>
</svg>
