<svg width="64" height="19" viewBox="0 0 64 19" fill="none" xmlns="http://www.w3.org/2000/svg">
<g clip-path="url(#clip0_1196_23682)">
<path d="M6.74346 18.7221C8.41861 18.782 10.0525 18.2037 11.3045 17.1078C11.7105 16.7152 12.0314 16.2458 12.2478 15.7279C12.4642 15.21 12.5715 14.6543 12.5633 14.0945C12.5683 13.5724 12.4677 13.0546 12.2672 12.5712C12.0668 12.0877 11.7705 11.6482 11.3957 11.2784C10.5086 10.457 9.38904 9.91921 8.18479 9.73582L5.93162 9.30538C5.01942 9.12598 4.4721 8.66859 4.4721 8.04084C4.4721 7.20674 5.29308 6.63279 6.60662 6.63279C7.33979 6.60482 8.05454 6.86264 8.59524 7.35026C8.89881 7.67556 9.09036 8.08666 9.1426 8.52513L12.39 7.80766C12.2864 6.89799 11.8601 6.05333 11.1859 5.42207C9.94726 4.29693 8.31064 3.69193 6.62492 3.73602C5.0539 3.68745 3.52127 4.21851 2.32842 5.22477C1.89346 5.62005 1.54712 6.10017 1.31151 6.63445C1.07591 7.16878 0.956234 7.74548 0.960118 8.32782C0.943889 8.81431 1.02852 9.2989 1.20887 9.75224C1.38921 10.2055 1.6615 10.618 2.00915 10.9645C2.86423 11.7433 3.92192 12.2741 5.06503 12.4981L7.2817 13.0183C8.39458 13.2694 8.88716 13.673 8.88716 14.3904C8.88716 15.2872 8.07531 15.7984 6.73434 15.7984C6.32075 15.8182 5.9074 15.7545 5.51987 15.611C5.13233 15.4675 4.77883 15.2475 4.48122 14.9644C4.12563 14.6123 3.9173 14.1418 3.89741 13.6461L0.567871 14.3635C0.669767 15.3265 1.11584 16.2226 1.82671 16.8926C2.48142 17.4987 3.253 17.9697 4.0959 18.2777C4.9388 18.5858 5.83595 18.7247 6.73434 18.6862L6.74346 18.7221ZM31.3638 18.6862C32.2758 18.7112 33.1838 18.5584 34.0355 18.2366C34.8872 17.915 35.6658 17.4307 36.3262 16.8119C37.171 16.0223 37.7798 15.0206 38.0868 13.9151L34.666 12.794C34.5063 13.3656 34.1909 13.8835 33.7538 14.2918C33.111 14.8869 32.2556 15.2091 31.3729 15.1886C30.8918 15.1937 30.4145 15.1052 29.9683 14.9282C29.5221 14.7512 29.116 14.4892 28.7732 14.1572C28.0546 13.3477 27.6792 12.2981 27.7241 11.2246C27.6746 10.1375 28.0612 9.07481 28.8005 8.26505C29.4905 7.61106 30.4146 7.25024 31.3729 7.26059C31.7995 7.24744 32.2243 7.32022 32.6212 7.47444C33.0181 7.62867 33.3786 7.86109 33.6808 8.15741C34.1074 8.5844 34.4207 9.10801 34.593 9.68203L38.0685 8.53412C37.7779 7.46576 37.216 6.48754 36.4356 5.69112C35.7539 5.0547 34.9507 4.55741 34.0723 4.22799C33.1939 3.89857 32.2579 3.74355 31.3182 3.77189C30.3412 3.76049 29.3715 3.93925 28.465 4.29789C27.5586 4.65652 26.7332 5.18793 26.0365 5.86152C24.6488 7.32432 23.8816 9.2529 23.8918 11.2532C23.902 13.2535 24.6888 15.1745 26.0913 16.6235C27.5047 17.9757 29.4009 18.7291 31.3729 18.7221L31.3638 18.6862ZM19.5782 18.7221C20.6727 18.7659 21.7511 18.4504 22.6432 17.8253V14.7582C22.0692 15.1447 21.3867 15.3454 20.691 15.3321C20.4288 15.3796 20.1588 15.3633 19.9045 15.2846C19.6502 15.2058 19.4194 15.067 19.2322 14.8804C19.0451 14.6937 18.9072 14.4648 18.8307 14.2136C18.7544 13.9626 18.7416 13.6969 18.7937 13.4398V0.283203H14.9533V4.1665H22.6614V7.83455H14.9533V14.3546C14.9008 15.5045 15.3103 16.6288 16.0936 17.4845C16.5642 17.9098 17.1164 18.2384 17.7179 18.4509C18.3194 18.6634 18.9581 18.7556 19.5964 18.7221" fill="#4F008C"/>
<path d="M41.8379 13.8972V4.16878H43.4995V4.93821C43.7628 4.62169 44.0967 4.36991 44.4749 4.20265C44.853 4.03539 45.2652 3.9572 45.6791 3.97421C47.5908 3.97421 48.9665 5.48654 48.9665 7.65332C48.9665 9.82009 47.6355 11.3767 45.6791 11.3767C45.2638 11.3915 44.8507 11.3106 44.4724 11.1403C44.0941 10.9698 43.761 10.7147 43.4995 10.3949V13.9326L41.8379 13.8972ZM43.4995 6.82196V8.59078C43.6556 8.96112 43.9185 9.27773 44.2553 9.5011C44.5921 9.72441 44.9879 9.8446 45.3933 9.84663C46.501 9.84663 47.2335 9.02413 47.2335 7.69753C47.2335 6.37093 46.501 5.56613 45.3933 5.56613C44.9873 5.56031 44.5891 5.67634 44.251 5.89893C43.913 6.12152 43.651 6.44025 43.4995 6.81315" fill="#03BB86"/>
<path d="M50.0954 8.85032C50.0698 8.31998 50.2732 7.80171 50.6616 7.40817C51.05 7.01462 51.592 6.77757 52.1699 6.74847L55.1494 6.40246V6.05649C55.1629 5.97411 55.1557 5.89 55.1282 5.8106C55.1006 5.73121 55.0537 5.65865 54.9909 5.59851C54.9281 5.53837 54.851 5.49224 54.7657 5.46368C54.6804 5.4351 54.5891 5.42486 54.4988 5.43372H50.7272V3.97192H54.4988C56.0075 3.97192 56.8467 4.64659 56.8467 5.85754V10.7965H55.1494V9.93153C54.8637 10.2766 54.4897 10.5519 54.0605 10.733C53.6312 10.914 53.16 10.9952 52.6885 10.9695C52.361 11.001 52.0299 10.969 51.7168 10.8755C51.4037 10.7821 51.1154 10.6293 50.8709 10.4269C50.6263 10.2246 50.4309 9.97741 50.2974 9.70132C50.1638 9.42523 50.0949 9.12647 50.0954 8.82438V8.85032ZM53.1222 9.68936C53.5439 9.69763 53.9593 9.59439 54.3189 9.39197C54.6784 9.18948 54.9667 8.89637 55.1494 8.54757V7.68265L52.877 7.97671C52.2453 8.05454 51.9341 8.35729 51.9341 8.84169C51.9341 9.32604 52.3773 9.70661 53.1599 9.70661" fill="#03BB86"/>
<path d="M58.2584 12.389H59.3707C59.543 12.4079 59.7155 12.3539 59.8535 12.2377C59.9915 12.1216 60.0849 11.9518 60.115 11.7625L60.3194 11.136L57.9722 3.97192H59.5588L61.0144 8.95677L62.4129 3.97192H63.9752L61.399 12.1983C61.0476 13.3333 60.5811 13.9326 59.4525 13.9326H58.2584V12.389Z" fill="#03BB86"/>
</g>
<defs>
<clipPath id="clip0_1196_23682">
<rect width="63.4069" height="18.4456" fill="white" transform="translate(0.567871 0.283203)"/>
</clipPath>
</defs>
</svg>
