<svg width="42" height="17" viewBox="0 0 42 17" fill="none" xmlns="http://www.w3.org/2000/svg">
<g clip-path="url(#clip0_11430_155031)">
<path d="M35.8304 16.9629H5.41541C2.48507 16.9629 0.135742 14.5883 0.135742 11.6833V5.3426C0.135742 2.41225 2.51033 0.0629272 5.41541 0.0629272H35.8304C38.7607 0.0629272 41.11 2.43752 41.11 5.3426V11.6833C41.11 14.5883 38.7607 16.9629 35.8304 16.9629Z" fill="#5AFEAE"/>
<path d="M33.7335 5.49414L31.6368 13.5021V13.5273H33.2788L35.3755 5.5194H33.7335V5.49414ZM7.8151 10.0412C7.56248 10.1675 7.30987 10.2181 7.03199 10.2181C6.45097 10.2181 6.12257 10.117 6.07205 9.63704V7.0351V5.54466L4.60688 5.72149C5.59208 5.5194 6.14783 4.76155 6.14783 3.97844V3.49847H4.50583V5.74675L4.40479 5.77202V9.91492C4.45531 11.0769 5.23842 11.7843 6.47624 11.7843C6.93094 11.7843 7.41091 11.6832 7.78984 11.5064L7.8151 10.0412Z" fill="#292929"/>
<path d="M8.06782 5.191L3.47021 5.89833V7.06036L8.06782 6.35303V5.191ZM8.06782 6.90879L3.47021 7.61611V8.72762L8.06782 8.0203V6.90879ZM13.2212 7.43928C13.1454 6.15094 12.337 5.36783 11.0234 5.36783C10.2656 5.36783 9.63404 5.67097 9.2046 6.22673C8.77515 6.78248 8.54779 7.59085 8.54779 8.57605C8.54779 9.56126 8.77515 10.3696 9.2046 10.9254C9.63404 11.4811 10.2656 11.759 11.0234 11.759C12.337 11.759 13.1454 11.0012 13.2212 9.68756V11.6327H14.8632V5.5194L13.2212 5.77202V7.43928ZM13.3222 8.57605C13.3222 9.71283 12.716 10.4707 11.7813 10.4707C10.8466 10.4707 10.2403 9.76335 10.2403 8.57605C10.2403 7.38876 10.8213 6.68144 11.7813 6.68144C12.236 6.68144 12.6402 6.85827 12.918 7.21193C13.1707 7.54033 13.3222 8.0203 13.3222 8.57605ZM19.6376 5.36783C18.324 5.36783 17.5157 6.12568 17.4399 7.43928V3.72583L15.7979 3.97845V11.6327H17.4399V9.68756C17.5157 11.0012 18.324 11.759 19.6376 11.759C21.1786 11.759 22.1133 10.5717 22.1133 8.57605C22.1133 6.58039 21.1786 5.36783 19.6376 5.36783ZM18.905 10.4707C17.9704 10.4707 17.3641 9.73809 17.3641 8.57605C17.3641 8.0203 17.5157 7.54033 17.7683 7.21193C18.0462 6.85827 18.4251 6.68144 18.905 6.68144C19.865 6.68144 20.446 7.38876 20.446 8.57605C20.446 9.76335 19.865 10.4707 18.905 10.4707ZM26.5593 5.36783C25.2457 5.36783 24.4373 6.12568 24.3615 7.43928V3.72583L22.7195 3.97845V11.6327H24.3615V9.68756C24.4373 11.0012 25.2457 11.759 26.5593 11.759C28.1003 11.759 29.0349 10.5717 29.0349 8.57605C29.0349 6.58039 28.1003 5.36783 26.5593 5.36783ZM25.8267 10.4707C24.892 10.4707 24.2858 9.73809 24.2858 8.57605C24.2858 8.0203 24.4373 7.54033 24.6899 7.21193C24.9678 6.85827 25.3467 6.68144 25.8267 6.68144C26.7867 6.68144 27.3677 7.38876 27.3677 8.57605C27.3677 9.76335 26.7867 10.4707 25.8267 10.4707ZM29.0349 5.49414H30.778L32.1926 11.6327H30.6264L29.0349 5.49414ZM36.7145 6.12568V5.64571H36.5124V5.54466H37.0429V5.64571H36.8408V6.12568H36.7145ZM37.0681 6.12568V5.5194H37.2702L37.3713 5.79728C37.3965 5.87306 37.4218 5.89833 37.4218 5.92359C37.4218 5.89833 37.4471 5.87306 37.4723 5.79728L37.5734 5.5194H37.7755V6.12568H37.6491V5.64571L37.4723 6.12568H37.346L37.1944 5.64571V6.12568H37.0681Z" fill="#292929"/>
</g>
<defs>
<clipPath id="clip0_11430_155031">
<rect width="40.9743" height="16.9" fill="white" transform="translate(0.135742 0.0629272)"/>
</clipPath>
</defs>
</svg>
