<svg width="59" height="19" viewBox="0 0 59 19" fill="none" xmlns="http://www.w3.org/2000/svg">
<path d="M55.3344 4.04128L51.5387 18.5383V18.584H54.5112L58.307 4.08702H55.3344V4.04128ZM8.41354 12.273C7.95623 12.5017 7.49891 12.5931 6.99586 12.5931C5.94403 12.5931 5.34951 12.4102 5.25805 11.5413V11.4956C5.25805 11.4498 5.25805 11.4498 5.25805 11.4041V8.88886V8.61447V6.83093V6.09922V5.82483V4.13275L2.6056 4.45287C4.38914 4.08702 5.39524 2.71506 5.39524 1.29737V0.428467H2.42267V4.4986L2.23975 4.54433V12.0444C2.33121 14.148 3.7489 15.4285 5.98976 15.4285C6.81293 15.4285 7.68184 15.2456 8.36781 14.9255L8.41354 12.273Z" fill="#292929"/>
<path d="M8.87105 3.49205L0.547852 4.77254V6.8762L8.87105 5.59571V3.49205ZM8.87105 6.60181L0.547852 7.8823V9.8945L8.87105 8.61401V6.60181ZM18.2003 7.56218C18.0631 5.22986 16.5997 3.81217 14.2217 3.81217C12.8497 3.81217 11.7064 4.36095 10.929 5.36705C10.1515 6.37315 9.73995 7.83657 9.73995 9.62011C9.73995 11.4037 10.1515 12.8671 10.929 13.8732C11.7064 14.8793 12.8497 15.3823 14.2217 15.3823C16.5997 15.3823 18.0631 14.0104 18.2003 11.6323V15.1537H21.1729V4.08656L18.2003 4.54388V7.56218ZM18.3833 9.62011C18.3833 11.678 17.2857 13.05 15.5936 13.05C13.8558 13.05 12.804 11.7695 12.804 9.62011C12.804 7.47072 13.8558 6.19023 15.5936 6.19023C16.4168 6.19023 17.1485 6.51035 17.6516 7.15059C18.1089 7.74511 18.3833 8.61401 18.3833 9.62011ZM29.8162 3.81217C27.4382 3.81217 25.9748 5.18413 25.8376 7.56218V0.8396L22.865 1.29692V15.1537H25.8376V11.6323C25.9748 14.0104 27.4382 15.3823 29.8162 15.3823C32.6059 15.3823 34.298 13.2329 34.298 9.62011C34.298 6.0073 32.6059 3.81217 29.8162 3.81217ZM28.49 13.05C26.7979 13.05 25.7004 11.7238 25.7004 9.62011C25.7004 8.61401 25.9748 7.74511 26.4321 7.15059C26.9351 6.51035 27.6211 6.19023 28.49 6.19023C30.2278 6.19023 31.2797 7.47072 31.2797 9.62011C31.2797 11.7695 30.2278 13.05 28.49 13.05ZM42.3468 3.81217C39.9687 3.81217 38.5053 5.18413 38.3681 7.56218V0.8396L35.3955 1.29692V15.1537H38.3681V11.6323C38.5053 14.0104 39.9687 15.3823 42.3468 15.3823C45.1364 15.3823 46.8285 13.2329 46.8285 9.62011C46.8285 6.0073 45.1364 3.81217 42.3468 3.81217ZM41.0205 13.05C39.3285 13.05 38.2309 11.7238 38.2309 9.62011C38.2309 8.61401 38.5053 7.74511 38.9626 7.15059C39.4656 6.51035 40.1516 6.19023 41.0205 6.19023C42.7583 6.19023 43.8102 7.47072 43.8102 9.62011C43.8102 11.7695 42.7583 13.05 41.0205 13.05ZM46.8285 4.04083H49.984L52.545 15.1537H49.7096L46.8285 4.04083Z" fill="#292929"/>
</svg>
