<svg width="57" height="58" viewBox="0 0 57 58" fill="none" xmlns="http://www.w3.org/2000/svg">
<g clip-path="url(#clip0_4896_19091)">
<path d="M28.8055 57.0352C44.3769 57.0352 57 44.4121 57 28.8407C57 13.2694 44.3769 0.646271 28.8055 0.646271C13.2342 0.646271 0.611084 13.2694 0.611084 28.8407C0.611084 44.4121 13.2342 57.0352 28.8055 57.0352Z" fill="#ECEFF1"/>
<path d="M49.3204 45.3274C48.0939 44.3582 46.5996 43.6604 44.9784 43.3221L37.2496 41.7714C36.4391 41.6163 35.854 40.8903 35.854 40.0445V38.2718C36.3509 37.5739 36.8197 36.6471 37.3096 35.6779C37.6902 34.9272 38.2646 33.7959 38.5501 33.5034C40.1149 31.9315 41.6268 30.1659 42.0956 27.8892C42.5326 25.7534 42.1026 24.6327 41.5986 23.7305C41.5986 21.4784 41.5281 18.659 40.996 16.6079C40.9325 13.8307 40.4286 12.2694 39.1598 10.902C38.2646 9.93282 36.9466 9.70726 35.8857 9.52752C35.4699 9.45704 34.8954 9.35836 34.6839 9.24558C32.8055 8.23058 30.9482 7.73365 28.7314 7.69489C24.0899 7.8852 18.384 10.8386 16.4739 16.1039C15.8818 17.7074 15.9417 20.3401 15.991 22.4547L15.9452 23.7269C15.4906 24.6151 15.043 25.7429 15.4835 27.8856C15.9487 30.1659 17.4607 31.9351 19.0536 33.528C19.3144 33.7959 19.903 34.9378 20.2907 35.692C20.7876 36.6576 21.2599 37.581 21.7568 38.2753V40.048C21.7568 40.8903 21.1682 41.6163 20.3541 41.7749L12.6183 43.3256C11.0077 43.6675 9.51335 44.3582 8.29042 45.3274C7.9098 45.634 7.67014 46.0816 7.63138 46.568C7.59261 47.0543 7.75473 47.5301 8.08249 47.8931C13.3478 53.7012 20.9004 57.0352 28.8054 57.0352C36.7104 57.0352 44.2665 53.7047 49.5283 47.8931C49.8561 47.5301 50.0217 47.0508 49.9794 46.5645C49.9407 46.0781 49.701 45.6305 49.3204 45.3274Z" fill="#455A64"/>
</g>
<defs>
<clipPath id="clip0_4896_19091">
<rect width="56.3889" height="56.3889" fill="white" transform="translate(0.611084 0.646271)"/>
</clipPath>
</defs>
</svg>
