<svg width="26" height="26" viewBox="0 0 26 26" fill="none" xmlns="http://www.w3.org/2000/svg">
<g clip-path="url(#clip0_16475_59238)">
<path d="M10.0971 11.3646L12.877 12.877L16.0963 11.9264M16.2799 6.62218C17.1013 7.06906 17.8267 7.67334 18.4145 8.40054C19.0024 9.12774 19.4413 9.9636 19.7061 10.8604C19.9709 11.7572 20.0565 12.6974 19.958 13.6273C19.8595 14.5572 19.5788 15.4585 19.1319 16.2799C18.685 17.1013 18.0807 17.8267 17.3535 18.4145C16.6263 19.0024 15.7905 19.4413 14.8937 19.7061C13.9968 19.9709 13.0567 20.0565 12.1268 19.958C11.1969 19.8595 10.2955 19.5788 9.47411 19.1319C7.81522 18.2294 6.58279 16.7049 6.04795 14.8937C5.5131 13.0825 5.71965 11.133 6.62216 9.47414C7.52466 7.81525 9.04919 6.58282 10.8604 6.04798C12.6716 5.51313 14.621 5.71968 16.2799 6.62218Z" stroke="#6A7282" stroke-width="1.97795" stroke-linecap="round" stroke-linejoin="round"/>
</g>
<defs>
<clipPath id="clip0_16475_59238">
<rect width="18.9883" height="18.9883" fill="white" transform="translate(0 16.6797) rotate(-61.452)"/>
</clipPath>
</defs>
</svg>
