<svg width="58" height="19" viewBox="0 0 58 19" fill="none" xmlns="http://www.w3.org/2000/svg">
<path d="M28.5839 0.612553L24.7695 18.4456H20.1557L23.9705 0.612553H28.5839ZM47.9936 12.1275L50.4218 5.43088L51.8192 12.1275H47.9936ZM53.1428 18.4456H57.4089L53.6819 0.612553H49.7468C48.86 0.612553 48.1123 1.12675 47.7814 1.91972L40.859 18.4456H45.7042L46.666 15.7823H52.5841L53.1428 18.4456ZM41.0992 12.6237C41.1193 7.91726 34.5931 7.65655 34.6368 5.55362C34.6508 4.91468 35.2605 4.23402 36.5929 4.05995C37.2535 3.97492 39.0765 3.90593 41.1429 4.85812L41.9511 1.07501C40.8413 0.673519 39.413 0.286865 37.6358 0.286865C33.0749 0.286865 29.8666 2.70947 29.8409 6.18133C29.8116 8.74873 32.1328 10.1802 33.8779 11.0354C35.6772 11.9093 36.2801 12.4697 36.2712 13.2506C36.2588 14.4471 34.8365 14.9769 33.5121 14.997C31.1914 15.0331 29.8461 14.3696 28.774 13.8699L27.9365 17.7793C29.0163 18.2735 31.0057 18.7035 33.0657 18.7255C37.9145 18.7255 41.0848 16.3314 41.0992 12.6237ZM21.9915 0.612553L14.5164 18.4456H9.64027L5.96144 4.21357C5.73844 3.33838 5.54391 3.0167 4.86566 2.6469C3.75623 2.04445 1.92484 1.48092 0.314453 1.13036L0.423552 0.612553H8.27375C9.27367 0.612553 10.1733 1.27797 10.4023 2.42991L12.3456 12.75L17.1447 0.612553H21.9915Z" fill="#1434CB"/>
</svg>
