<svg width="30" height="31" viewBox="0 0 30 31" fill="none" xmlns="http://www.w3.org/2000/svg">
<path d="M27.8571 7.61847H26.7857H23.5714H6.42857H3.26786H2.14286C1.55357 7.61847 1.01786 7.88633 0.642857 8.26133C0.267857 8.63633 0 9.17204 0 9.76133V26.9042C0 28.0828 0.964286 29.047 2.14286 29.047H27.8571C29.0357 29.047 30 28.0828 30 26.9042V22.6185V18.3328V9.76133C30 8.58275 29.0357 7.61847 27.8571 7.61847Z" fill="#232323"/>
<path d="M30 9.76133C30 10.3506 29.7321 10.8863 29.3571 11.2613C28.9821 11.6363 28.4464 11.9042 27.8571 11.9042H2.14286C0.964286 11.9042 0 10.9399 0 9.76133C0 9.17204 0.267857 8.63633 0.642857 8.26133C1.01786 7.88633 1.55357 7.61847 2.14286 7.61847H27.8571C29.0357 7.61847 30 8.58275 30 9.76133Z" fill="#6B7280"/>
<path d="M29.9999 18.3328H21.4285L19.2856 20.4756L21.4285 22.6185H29.9999V18.3328Z" fill="#6B7280"/>
<path d="M22.4999 21.547C23.0916 21.547 23.5713 21.0673 23.5713 20.4756C23.5713 19.8839 23.0916 19.4042 22.4999 19.4042C21.9082 19.4042 21.4285 19.8839 21.4285 20.4756C21.4285 21.0673 21.9082 21.547 22.4999 21.547Z" fill="#F1F1F1"/>
<path d="M6.42847 11.9042L14.9999 3.33277L17.1428 1.18991L27.857 11.9042H6.42847Z" fill="#DADADA"/>
<path d="M12.375 11.9042C13.5536 10.8328 15.2679 9.76135 17.1429 9.76135C19.0714 9.76135 20.7321 10.8328 21.9107 11.9042H12.375Z" fill="#F1F1F1"/>
<path d="M2.14282 11.9042L10.7143 3.33277L12.8571 1.18991L23.5714 11.9042H2.14282Z" fill="#F1F1F1"/>
<path d="M8.08936 11.9042C9.26793 10.8328 10.9822 9.76132 12.8572 9.76132C14.7858 9.76132 16.4465 10.8328 17.6251 11.9042H8.08936Z" fill="#DADADA"/>
</svg>
