<svg width="51" height="30" viewBox="0 0 51 30" fill="none" xmlns="http://www.w3.org/2000/svg">
<path d="M1.72162 25.4697C1.72162 27.5385 3.42028 29.2166 5.51447 29.2166C7.60866 29.2166 9.30732 27.5385 9.30732 25.4697C9.30732 23.4009 7.60866 21.7228 5.51447 21.7228C3.42028 21.7228 1.72162 23.399 1.72162 25.4697Z" fill="#2D1E31"/>
<path d="M29.2823 25.4697C29.2823 27.5385 30.981 29.2166 33.0752 29.2166C35.1694 29.2166 36.8681 27.5385 36.8681 25.4697C36.8681 23.4009 35.1713 21.7228 33.0752 21.7228C30.9791 21.7228 29.2823 23.399 29.2823 25.4697Z" fill="#2D1E31"/>
<path d="M9.30732 25.4697C9.30732 23.4009 7.60866 21.7228 5.51447 21.7228C3.42028 21.7228 1.72162 23.399 1.72162 25.4697C1.72162 25.9227 1.8076 26.3569 1.95664 26.759C3.41264 27.0176 4.87819 27.3064 6.21381 27.7669C6.72971 27.9463 7.28574 28.1633 7.84941 28.4182C8.73409 27.733 9.30541 26.6683 9.30541 25.4697H9.30732Z" fill="#211823"/>
<path d="M36.8662 25.4697C36.8662 23.4009 35.1694 21.7228 33.0733 21.7228C30.9772 21.7228 29.2805 23.399 29.2805 25.4697C29.2805 25.8359 29.3359 26.1908 29.4352 26.5249C30.9466 26.6797 32.4198 26.9156 33.7402 27.2629C34.4376 27.4781 35.0968 27.7858 35.6796 28.1841C36.4076 27.5008 36.8642 26.5381 36.8642 25.4678L36.8662 25.4697Z" fill="#211823"/>
<path d="M50.8299 25.6377C50.0733 25.6698 4.89918 25.6377 1.35663 25.6377C-0.103185 25.6377 -4.15952e-06 18.7441 -4.15952e-06 18.0249C-4.15952e-06 17.3057 1.56299 15.2463 1.56299 15.2463C1.56299 15.2463 4.89535 0.943814 5.52017 0.326561C6.14499 -0.290692 44.8913 0.12081 46.3492 0.326561C47.8071 0.532312 51.8732 25.5962 50.828 25.6396L50.8299 25.6377Z" fill="#CC9F1F"/>
<path d="M-5.2317e-07 18.0249C-5.2317e-07 17.3038 1.563 15.2463 1.563 15.2463C1.563 15.2463 4.89536 0.943814 5.52017 0.326561C6.14499 -0.290692 44.8913 0.12081 46.3492 0.326561C47.8071 0.532312 51.8732 25.5962 50.828 25.6396C50.7077 25.6434 49.479 25.6471 47.4842 25.649C47.2759 23.2763 45.3059 21.4151 42.9022 21.4151C40.4985 21.4151 38.5266 23.2782 38.3202 25.6528C32.6701 25.6528 25.8831 25.6509 19.6598 25.6471C19.6579 23.0819 17.6306 21.0036 15.1294 21.0036C12.6282 21.0036 10.6028 23.08 10.599 25.6434C5.7915 25.6415 2.24896 25.6396 1.35473 25.6396C-0.103181 25.6377 -5.2317e-07 18.7441 -5.2317e-07 18.0249Z" fill="#FFC727"/>
<path d="M0.615245 13.9307C0.640085 13.7249 0.82925 13.5947 1.02797 13.6966C1.18656 13.7778 1.32987 13.9005 1.38337 14.076C1.50566 14.4649 1.18847 15.3313 1.81711 15.3898C1.86297 15.3936 1.88017 15.4634 1.82858 15.4747C1.69673 15.5031 1.55534 15.5295 1.43114 15.5012C1.47126 15.8126 1.51903 16.1241 1.58973 16.4318C1.63177 16.5733 1.67189 16.7168 1.70438 16.8621C1.81711 17.3831 1.04325 17.6002 0.894216 17.083C0.607602 16.0863 0.494868 14.9613 0.617156 13.9307H0.615245Z" fill="#2D1E31"/>
<path d="M-5.23287e-07 18.0249C-5.23287e-07 17.3039 1.17894 15.7768 1.17894 15.7768C1.17894 15.7768 4.89536 0.943816 5.52017 0.326564C5.69405 0.15479 8.79712 0.0641839 13.2224 0.0245438C12.1753 4.37929 9.5213 15.4106 9.27099 16.4808C8.95763 17.8192 7.39654 19.1556 7.29145 19.6709C7.22075 20.0258 7.6927 23.5122 7.99269 25.6415C4.53422 25.6415 2.07699 25.6377 1.35473 25.6377C-0.103181 25.6377 -5.23287e-07 18.7441 -5.23287e-07 18.0249Z" fill="#CC9F1F"/>
<path d="M19.9139 2.91827C19.9139 2.91827 20.7775 15.0123 20.5865 15.1557C20.3954 15.2973 10.9372 15.9617 10.7919 15.7239C10.6486 15.4861 12.9052 3.25049 13.3848 2.91827C13.8644 2.58605 19.9139 2.91827 19.9139 2.91827Z" fill="#F3E4E7"/>
<path d="M11.8008 3.06173C11.8008 3.06173 8.82385 16.1996 8.58309 16.294C8.34234 16.3884 1.71775 16.4355 1.76552 16.0089C1.81328 15.5823 5.07686 3.34487 5.22207 3.06173C5.36729 2.7767 11.8696 2.75027 11.7989 3.06173H11.8008Z" fill="#F3E4E7"/>
<path d="M5.22212 3.06173C5.07881 3.34676 1.81333 15.5823 1.76556 16.0089C1.75409 16.1033 2.07128 16.1751 2.5719 16.2279C4.14827 14.3271 5.81827 12.4376 7.25134 10.5027C8.39206 9.07192 9.678 7.78645 11.0022 6.54251C11.4607 4.55673 11.7989 3.06173 11.7989 3.06173C11.8696 2.75027 5.36542 2.7767 5.22212 3.06173Z" fill="#FFF3F6"/>
<mask id="mask0_7533_26588" style="mask-type:luminance" maskUnits="userSpaceOnUse" x="10" y="2" width="11" height="14">
<path d="M19.9139 2.91827C19.9139 2.91827 20.7775 15.0123 20.5865 15.1557C20.3954 15.2973 10.9372 15.9617 10.7919 15.7239C10.6486 15.4861 12.9052 3.25049 13.3848 2.91827C13.8644 2.58605 19.9139 2.91827 19.9139 2.91827Z" fill="white"/>
</mask>
<g mask="url(#mask0_7533_26588)">
<path d="M10.6257 13.7041C11.2219 13.5966 11.432 14.529 11.5601 14.9519C11.6518 15.2577 11.6556 15.6012 11.6537 15.9183C11.6518 16.3676 11.4397 16.6319 11.2467 17.0037C11.1837 17.1226 11.2868 17.285 11.4301 17.2397C12.3435 16.9565 12.1868 15.3407 11.9346 14.6517C11.8218 14.3441 10.983 12.7792 10.5474 13.6041C10.5187 13.6607 10.5665 13.7155 10.6257 13.7041Z" fill="#2D1E31"/>
<path d="M12.1754 14.9349C12.1754 14.9349 12.1715 14.9292 12.1715 14.9273C12.1945 14.865 12.183 14.799 12.1715 14.7348C12.1524 14.6102 12.0703 14.4932 11.9518 14.4554C11.9556 14.4441 11.9594 14.4328 11.9613 14.4214C11.9728 14.2969 11.8161 14.1572 11.6958 14.2006C11.5926 14.2383 11.5295 14.4139 11.6614 14.4686C11.6919 14.4818 11.7168 14.4856 11.7397 14.4913C11.6766 14.5536 11.6747 14.6593 11.7493 14.7216C11.562 14.8046 11.6346 15.0878 11.8467 15.0387C11.9193 15.0217 11.9843 15.0897 11.99 15.1029C12.0091 15.135 12.0722 15.3747 12.0951 15.352C12.2499 15.2142 12.2231 15.0557 12.1734 14.9349H12.1754Z" fill="#FFA8A7"/>
<path d="M11.755 14.7272C11.755 14.7272 11.7473 14.7386 11.755 14.7386C11.8448 14.7367 11.925 14.7574 12.0034 14.8009C12.0722 14.8405 12.118 14.9066 12.1792 14.9538C12.183 14.9575 12.1906 14.9538 12.1906 14.9481C12.1505 14.7763 11.9117 14.7084 11.755 14.7272Z" fill="#E37166"/>
<path d="M11.9365 14.4988C11.9651 14.5121 11.9823 14.4592 11.9498 14.4516C11.8772 14.4309 11.8008 14.4516 11.7339 14.4781C11.7205 14.4837 11.7301 14.5045 11.7435 14.5007C11.8065 14.4837 11.8753 14.4743 11.9365 14.5007V14.4988Z" fill="#E37166"/>
</g>
<path d="M8.77419 18.4761C8.85826 18.7479 8.77419 22.2702 8.77419 22.2702C8.77419 22.2702 6.27683 22.4136 6.22906 22.2702C6.18129 22.1286 5.94054 19.9465 6.22906 19.5199C6.51759 19.0933 8.5812 17.8607 8.77419 18.4761Z" fill="#FF4C48"/>
<path d="M1.09297 19.1877C1.14074 19.8993 1.42926 22.3967 1.09297 22.3344C0.938199 22.3042 0.536941 22.3042 0.150968 22.3098C-0.0133573 20.5619 1.80151e-05 18.678 1.80151e-05 18.125C0.454778 18.3534 1.0624 18.7422 1.09297 19.1858V19.1877Z" fill="#FF4C48"/>
<path d="M8.77419 22.2702C8.77419 22.2702 8.85826 18.7479 8.77419 18.4761C8.76463 18.4459 8.74935 18.4213 8.73215 18.3987C7.77295 19.5218 7.11374 20.896 6.71057 22.3306C7.44812 22.3457 8.77419 22.2702 8.77419 22.2702Z" fill="#CF4737"/>
<path d="M0.150961 22.3079C0.538844 22.3023 0.938192 22.3042 1.09296 22.3325C1.42926 22.3967 1.14073 19.8974 1.09296 19.1858C1.09105 19.1481 1.0815 19.1103 1.07195 19.0744C0.632471 19.9031 0.319107 20.8243 0.105103 21.7605C0.118478 21.9436 0.133764 22.1267 0.150961 22.3079Z" fill="#CF4737"/>
<g style="mix-blend-mode:multiply">
<path d="M10.8836 19.7747C10.9027 19.1405 10.7823 18.5195 10.7919 17.8871C10.8015 17.166 10.8626 16.445 10.8091 15.7258C10.8034 15.6371 10.9486 15.6182 10.9677 15.705C11.0995 16.3355 11.1205 16.9358 11.0995 17.5794C11.0766 18.2854 11.1932 18.9801 11.1836 19.686C14.4319 18.8139 19.654 20.6166 20.4298 24.1616C20.4489 24.154 20.468 24.1446 20.4928 24.1427C21.0507 24.0899 21.6125 24.0559 22.1781 24.0351C22.1303 16.864 20.6418 9.77034 20.7584 2.58604C20.7584 2.55584 20.8024 2.55773 20.8043 2.58604C21.1883 9.72692 22.4666 16.8735 22.5431 24.0238C24.2188 23.9785 25.9098 24.0313 27.5683 24.0181C29.4772 24.003 31.386 23.9936 33.2968 23.9917C34.6458 23.9917 36.1629 23.8199 37.5062 24.0899C37.5043 24.0653 37.5024 24.0408 37.5062 24.0125C37.9915 21.8832 39.8602 20.1523 41.9831 19.6181C43.8365 19.1518 46.1027 20.8884 46.9453 22.3948C48.2427 22.2003 49.5975 22.442 50.9101 22.2532C50.9961 22.24 51.0324 22.3551 50.9464 22.3834C49.7121 22.7968 48.193 22.8346 46.9128 22.6175C46.8307 22.6024 46.8097 22.4967 46.8517 22.4382C45.4416 21.4472 44.4117 20.0598 42.5162 19.9711C40.4163 19.8729 38.3412 22.3325 37.9437 24.1352C37.9017 24.3277 37.6896 24.3315 37.5731 24.2295C36.3253 24.473 34.9419 24.3239 33.6847 24.3315C31.7796 24.3447 29.8727 24.3673 27.9658 24.3938C26.1716 24.4202 24.3373 24.3711 22.5259 24.4372C22.4666 24.558 22.2755 24.5618 22.2068 24.4504C21.6316 24.4768 21.0584 24.5146 20.489 24.5712C20.3323 24.5863 20.2673 24.4579 20.2864 24.3371C19.396 22.9006 18.6279 21.7379 17.0764 20.845C15.3395 19.8446 12.8784 19.4067 10.983 20.1202C10.7651 20.2013 10.6639 19.8521 10.8817 19.7747H10.8836Z" fill="#FFC727"/>
<path d="M47.6619 3.03341C38.7654 2.9277 29.867 3.1259 20.9686 3.05417C20.7909 3.05417 20.7909 2.78236 20.9686 2.78236C25.2735 2.81822 29.5785 2.75593 33.8853 2.78613C38.4692 2.81822 43.0913 2.4558 47.6619 2.8975C47.7479 2.90505 47.7517 3.03341 47.6619 3.03341Z" fill="#FFC727"/>
<path d="M18.4025 17.015C17.7242 16.9358 17.6955 15.9938 18.4025 15.9523C18.7713 15.9315 19.1305 15.9674 19.4973 15.9825C19.8566 15.9976 20.2425 15.9655 20.5674 16.143C20.7107 16.2222 20.7355 16.3921 20.6705 16.528C20.3209 17.2491 19.0483 17.0905 18.4025 17.015Z" fill="#FFC727"/>
<path d="M6.09337 20.156C5.41697 20.3939 4.62782 20.3259 3.91511 20.3165C3.07056 20.3052 2.226 20.2919 1.38145 20.2901C1.11585 20.2901 1.11585 19.8823 1.38145 19.8842C2.226 19.8842 3.07056 19.8974 3.91511 19.9107C4.62782 19.922 5.41888 19.8729 6.09337 20.1126C6.11439 20.1202 6.11439 20.1485 6.09337 20.156Z" fill="#FFC727"/>
</g>
<g style="mix-blend-mode:multiply" opacity="0.3">
<path d="M46.3511 0.326562C46.2078 0.305798 45.7053 0.285034 44.9181 0.262383C42.694 8.03939 36.9674 13.3531 28.5429 16.3789C24.5647 17.7588 20.3954 19.1424 16.7306 21.3037C18.4426 21.9663 19.6598 23.6614 19.6617 25.6471C25.7475 25.649 32.374 25.6509 37.9476 25.6528H38.3221C38.5285 23.2782 40.5004 21.4151 42.9041 21.4151C45.3079 21.4151 47.2779 23.2763 47.4861 25.649C48.7243 25.649 49.6644 25.6471 50.2319 25.6434H50.2739C50.3045 25.6434 50.3312 25.6434 50.358 25.6434H50.4249C50.4459 25.6434 50.465 25.6434 50.4841 25.6434C50.5682 25.6434 50.6389 25.6434 50.6924 25.6434C50.6981 25.6434 50.7038 25.6434 50.7077 25.6434C50.7229 25.6434 50.7363 25.6434 50.7497 25.6434C50.7593 25.6434 50.7669 25.6434 50.7745 25.6434C50.7841 25.6434 50.7917 25.6434 50.7994 25.6434C50.8128 25.6434 50.8223 25.6434 50.8299 25.6434C51.8751 25.6 47.809 0.537976 46.3511 0.330337V0.326562Z" fill="#FFC727"/>
</g>
<path d="M11.6021 13.9307C11.5773 13.7249 11.3881 13.5947 11.1894 13.6966C11.0308 13.7778 10.8875 13.9005 10.834 14.076C10.7117 14.4649 11.0289 15.3313 10.4002 15.3898C10.3544 15.3936 10.3372 15.4634 10.3888 15.4747C10.5206 15.5031 10.662 15.5295 10.7862 15.5012C10.7442 15.8126 10.6983 16.1241 10.6276 16.4318C10.5856 16.5733 10.5454 16.7168 10.5149 16.8621C10.4021 17.3831 11.176 17.6002 11.325 17.083C11.6116 16.0863 11.7225 14.9613 11.6021 13.9307Z" fill="#48314F"/>
<path d="M11.6193 26.2531C11.6193 28.3219 13.318 30 15.4122 30C17.5064 30 19.205 28.3219 19.205 26.2531C19.205 24.1842 17.5064 22.5061 15.4122 22.5061C13.318 22.5061 11.6193 24.1842 11.6193 26.2531Z" fill="#2D1E31"/>
<path d="M13.2224 26.2531C13.2224 27.6442 14.2829 28.773 15.5918 28.773C16.9006 28.773 17.9611 27.6442 17.9611 26.2531C17.9611 24.8619 16.9006 23.7331 15.5918 23.7331C14.2829 23.7331 13.2224 24.86 13.2224 26.2531Z" fill="#48314F"/>
<path d="M39.1782 26.2531C39.1782 28.3219 40.8768 30 42.971 30C45.0652 30 46.7639 28.3219 46.7639 26.2531C46.7639 24.1842 45.0652 22.5061 42.971 22.5061C40.8768 22.5061 39.1782 24.1842 39.1782 26.2531Z" fill="#2D1E31"/>
<path d="M43.1755 28.773C44.4724 28.773 45.5238 27.6448 45.5238 26.2531C45.5238 24.8613 44.4724 23.7331 43.1755 23.7331C41.8785 23.7331 40.8271 24.8613 40.8271 26.2531C40.8271 27.6448 41.8785 28.773 43.1755 28.773Z" fill="#48314F"/>
<path d="M49.1504 18.3062C49.1504 18.3062 48.7185 14.5857 48.8618 14.3006C48.9249 14.1761 49.2899 14.1157 49.7026 14.0854C50.1803 16.9981 50.5796 19.8276 50.8032 21.9587C50.4382 21.9247 50.0656 21.8832 49.9128 21.8398C49.5707 21.7454 49.1485 18.3043 49.1485 18.3043L49.1504 18.3062Z" fill="#CF4737"/>
</svg>
