<svg version="1.2" xmlns="http://www.w3.org/2000/svg" viewBox="0 0 18 18" width="18" height="18">
	<defs>
		<linearGradient id="g1" x2="1" gradientUnits="userSpaceOnUse" gradientTransform="matrix(0,18,-18,0,9,0)">
			<stop offset="0" stop-color="#ffd400"/>
			<stop offset=".5" stop-color="#f5c900"/>
			<stop offset="1" stop-color="#eab900"/>
		</linearGradient>
		<clipPath clipPathUnits="userSpaceOnUse" id="cp1">
			<path d="m9 18c-4.98 0-9-4.02-9-9 0-4.98 4.02-9 9-9 4.98 0 9 4.02 9 9 0 4.98-4.02 9-9 9z"/>
		</clipPath>
	</defs>
	<style>
		.s0 { fill: url(#g1) } 
		.s1 { opacity: .5;fill: #fff085 } 
		.s2 { fill: none;stroke: #ffffff;stroke-linecap: round;stroke-linejoin: round;stroke-width: 1.6 } 
	</style>
	<g>
		<path fill-rule="evenodd" class="s0" d="m9 18c-4.98 0-9-4.02-9-9 0-4.98 4.02-9 9-9 4.98 0 9 4.02 9 9 0 4.98-4.02 9-9 9z"/>
		<g id="Clip-Path" clip-path="url(#cp1)">
			<path class="s1" d="m9 18v-2c-3.87 0-7-3.13-7-7h-2-2c0 6.08 4.92 11 11 11zm9-9h-2c0 3.87-3.13 7-7 7v2 2c6.08 0 11-4.92 11-11zm-9-9v2c3.87 0 7 3.13 7 7h2 2c0-6.08-4.92-11-11-11zm0 0v-2c-6.08 0-11 4.92-11 11h2 2c0-3.87 3.13-7 7-7z"/>
		</g>
		<g>
			<path fill-rule="evenodd" class="s2" d="m12.33 6.5l-4.58 4.58-2.08-2.08"/>
		</g>
	</g>
</svg>